<svg width="20" height="20" viewBox="0 0 20 20" fill="none" xmlns="http://www.w3.org/2000/svg">
<path d="M7.61858 17.9888C6.22228 17.5731 4.97941 16.8013 3.99527 15.7787C4.36241 15.3436 4.58366 14.7814 4.58366 14.1675C4.58366 12.7868 3.46437 11.6675 2.08366 11.6675C2.00014 11.6675 1.91757 11.6716 1.83615 11.6796C1.72524 11.1373 1.66699 10.5759 1.66699 10.0008C1.66699 9.12974 1.80065 8.28987 2.04857 7.50057C2.06025 7.50074 2.07194 7.50082 2.08366 7.50082C3.46437 7.50082 4.58366 6.38153 4.58366 5.00082C4.58366 4.60445 4.49141 4.22962 4.32724 3.89665C5.29095 3.00056 6.4672 2.32995 7.77203 1.96875C8.18549 2.77919 9.02812 3.33416 10.0003 3.33416C10.9725 3.33416 11.8152 2.77919 12.2286 1.96875C13.5335 2.32995 14.7097 3.00056 15.6734 3.89665C15.5092 4.22962 15.417 4.60445 15.417 5.00082C15.417 6.38153 16.5363 7.50082 17.917 7.50082C17.9287 7.50082 17.9404 7.50074 17.9521 7.50057C18.2 8.28987 18.3337 9.12974 18.3337 10.0008C18.3337 10.5759 18.2754 11.1373 18.1645 11.6796C18.0831 11.6716 18.0005 11.6675 17.917 11.6675C16.5363 11.6675 15.417 12.7868 15.417 14.1675C15.417 14.7814 15.6382 15.3436 16.0054 15.7787C15.0212 16.8013 13.7784 17.5731 12.3821 17.9888C12.0598 16.9807 11.1153 16.2508 10.0003 16.2508C8.88533 16.2508 7.94083 16.9807 7.61858 17.9888Z" stroke="#333333" stroke-width="2" stroke-linejoin="round"/>
<path d="M9.99967 12.9173C11.6105 12.9173 12.9163 11.6115 12.9163 10.0007C12.9163 8.38982 11.6105 7.08398 9.99967 7.08398C8.38884 7.08398 7.08301 8.38982 7.08301 10.0007C7.08301 11.6115 8.38884 12.9173 9.99967 12.9173Z" stroke="#333333" stroke-width="2" stroke-linejoin="round"/>
</svg>
