<svg width="20" height="20" viewBox="0 0 20 20" fill="none" xmlns="http://www.w3.org/2000/svg">
<path d="M10.0003 18.3332C12.3015 18.3332 14.3848 17.4004 15.8929 15.8924C17.4009 14.3843 18.3337 12.301 18.3337 9.99984C18.3337 7.69867 17.4009 5.61534 15.8929 4.10728C14.3848 2.59925 12.3015 1.6665 10.0003 1.6665C7.69916 1.6665 5.61583 2.59925 4.10777 4.10728C2.59973 5.61534 1.66699 7.69867 1.66699 9.99984C1.66699 12.301 2.59973 14.3843 4.10777 15.8924C5.61583 17.4004 7.69916 18.3332 10.0003 18.3332Z" stroke="#333333" stroke-width="2" stroke-linejoin="round"/>
<path d="M10 11.9269V10.2603C11.3807 10.2603 12.5 9.14096 12.5 7.76025C12.5 6.37955 11.3807 5.26025 10 5.26025C8.61929 5.26025 7.5 6.37955 7.5 7.76025" stroke="#333333" stroke-width="2" stroke-linecap="round" stroke-linejoin="round"/>
<path fill-rule="evenodd" clip-rule="evenodd" d="M9.99967 15.6771C10.575 15.6771 11.0413 15.2107 11.0413 14.6354C11.0413 14.0601 10.575 13.5938 9.99967 13.5938C9.42438 13.5938 8.95801 14.0601 8.95801 14.6354C8.95801 15.2107 9.42438 15.6771 9.99967 15.6771Z" fill="#333333"/>
</svg>
