<svg width="500" height="500" viewBox="0 0 500 500" fill="none" xmlns="http://www.w3.org/2000/svg">
<rect x="0.5" y="0.5" width="499" height="499" rx="23.5" stroke="#E0E0E0"/>
<path d="M135.583 199.833C135.583 197.532 133.531 195.667 130.999 195.667C128.468 195.667 126.416 197.532 126.416 199.833" stroke="#FF4B00" stroke-width="2" stroke-linecap="round" stroke-linejoin="round"/>
<path d="M123.916 200.667C123.916 200.207 124.289 199.833 124.749 199.833H137.249C137.71 199.833 138.083 200.207 138.083 200.667V205.667C138.083 206.127 137.71 206.5 137.249 206.5H133.499C133.039 206.5 132.666 206.127 132.666 205.667C132.666 205.207 132.293 204.833 131.833 204.833H130.166C129.706 204.833 129.333 205.207 129.333 205.667C129.333 206.127 128.96 206.5 128.499 206.5H124.749C124.289 206.5 123.916 206.127 123.916 205.667V200.667Z" stroke="#FF4B00" stroke-width="2" stroke-linecap="round" stroke-linejoin="round"/>
<path d="M125.166 206.5V212.333H136.833V206.5" stroke="#FF4B00" stroke-width="2" stroke-linecap="round" stroke-linejoin="round"/>
<path d="M132.667 204.833H129.334V207.333H132.667V204.833Z" stroke="#FF4B00" stroke-width="2" stroke-linecap="round" stroke-linejoin="round"/>
<path d="M150.285 209V199.2H153.659C154.434 199.2 155.068 199.331 155.563 199.592C156.067 199.853 156.44 200.208 156.683 200.656C156.926 201.095 157.047 201.585 157.047 202.126C157.047 202.733 156.884 203.283 156.557 203.778C156.24 204.273 155.74 204.627 155.059 204.842L157.145 209H155.423L153.519 205.052H151.769V209H150.285ZM151.769 203.932H153.575C154.247 203.932 154.737 203.769 155.045 203.442C155.362 203.115 155.521 202.691 155.521 202.168C155.521 201.645 155.367 201.23 155.059 200.922C154.751 200.605 154.252 200.446 153.561 200.446H151.769V203.932ZM162.321 209.168C161.639 209.168 161.033 209.019 160.501 208.72C159.978 208.412 159.567 207.987 159.269 207.446C158.97 206.905 158.821 206.275 158.821 205.556C158.821 204.828 158.965 204.189 159.255 203.638C159.553 203.087 159.964 202.658 160.487 202.35C161.019 202.042 161.635 201.888 162.335 201.888C163.016 201.888 163.609 202.042 164.113 202.35C164.617 202.649 165.009 203.05 165.289 203.554C165.569 204.058 165.709 204.613 165.709 205.22C165.709 205.313 165.704 205.416 165.695 205.528C165.695 205.631 165.69 205.747 165.681 205.878H160.277C160.323 206.55 160.543 207.063 160.935 207.418C161.336 207.763 161.798 207.936 162.321 207.936C162.741 207.936 163.091 207.843 163.371 207.656C163.66 207.46 163.875 207.199 164.015 206.872H165.499C165.312 207.525 164.939 208.071 164.379 208.51C163.828 208.949 163.142 209.168 162.321 209.168ZM162.321 203.106C161.826 203.106 161.387 203.255 161.005 203.554C160.622 203.843 160.389 204.282 160.305 204.87H164.225C164.197 204.329 164.005 203.899 163.651 203.582C163.296 203.265 162.853 203.106 162.321 203.106ZM173.599 212.08V207.922C173.375 208.249 173.067 208.538 172.675 208.79C172.283 209.042 171.779 209.168 171.163 209.168C170.491 209.168 169.898 209.009 169.385 208.692C168.871 208.375 168.47 207.941 168.181 207.39C167.891 206.839 167.747 206.214 167.747 205.514C167.747 204.814 167.891 204.193 168.181 203.652C168.47 203.101 168.871 202.672 169.385 202.364C169.907 202.047 170.505 201.888 171.177 201.888C171.727 201.888 172.208 201.995 172.619 202.21C173.039 202.425 173.365 202.728 173.599 203.12L173.753 202.056H175.083V212.08H173.599ZM171.429 207.88C172.063 207.88 172.581 207.661 172.983 207.222C173.393 206.783 173.599 206.219 173.599 205.528C173.599 204.828 173.393 204.263 172.983 203.834C172.581 203.395 172.063 203.176 171.429 203.176C170.794 203.176 170.271 203.395 169.861 203.834C169.45 204.263 169.245 204.828 169.245 205.528C169.245 205.985 169.338 206.391 169.525 206.746C169.711 207.101 169.968 207.381 170.295 207.586C170.631 207.782 171.009 207.88 171.429 207.88ZM180.266 209.168C179.426 209.168 178.763 208.907 178.278 208.384C177.802 207.861 177.564 207.082 177.564 206.046V202.056H179.048V205.892C179.048 207.236 179.598 207.908 180.7 207.908C181.25 207.908 181.703 207.712 182.058 207.32C182.412 206.928 182.59 206.368 182.59 205.64V202.056H184.074V209H182.758L182.646 207.782C182.431 208.211 182.114 208.552 181.694 208.804C181.283 209.047 180.807 209.168 180.266 209.168ZM189.959 209.168C189.278 209.168 188.671 209.019 188.139 208.72C187.617 208.412 187.206 207.987 186.907 207.446C186.609 206.905 186.459 206.275 186.459 205.556C186.459 204.828 186.604 204.189 186.893 203.638C187.192 203.087 187.603 202.658 188.125 202.35C188.657 202.042 189.273 201.888 189.973 201.888C190.655 201.888 191.247 202.042 191.751 202.35C192.255 202.649 192.647 203.05 192.927 203.554C193.207 204.058 193.347 204.613 193.347 205.22C193.347 205.313 193.343 205.416 193.333 205.528C193.333 205.631 193.329 205.747 193.319 205.878H187.915C187.962 206.55 188.181 207.063 188.573 207.418C188.975 207.763 189.437 207.936 189.959 207.936C190.379 207.936 190.729 207.843 191.009 207.656C191.299 207.46 191.513 207.199 191.653 206.872H193.137C192.951 207.525 192.577 208.071 192.017 208.51C191.467 208.949 190.781 209.168 189.959 209.168ZM189.959 203.106C189.465 203.106 189.026 203.255 188.643 203.554C188.261 203.843 188.027 204.282 187.943 204.87H191.863C191.835 204.329 191.644 203.899 191.289 203.582C190.935 203.265 190.491 203.106 189.959 203.106ZM195.637 209V202.056H196.967L197.093 203.372C197.336 202.915 197.672 202.555 198.101 202.294C198.54 202.023 199.067 201.888 199.683 201.888V203.442H199.277C198.867 203.442 198.498 203.512 198.171 203.652C197.854 203.783 197.597 204.011 197.401 204.338C197.215 204.655 197.121 205.099 197.121 205.668V209H195.637ZM209.231 209.168C208.55 209.168 207.943 209.019 207.411 208.72C206.888 208.412 206.478 207.987 206.179 207.446C205.88 206.905 205.731 206.275 205.731 205.556C205.731 204.828 205.876 204.189 206.165 203.638C206.464 203.087 206.874 202.658 207.397 202.35C207.929 202.042 208.545 201.888 209.245 201.888C209.926 201.888 210.519 202.042 211.023 202.35C211.527 202.649 211.919 203.05 212.199 203.554C212.479 204.058 212.619 204.613 212.619 205.22C212.619 205.313 212.614 205.416 212.605 205.528C212.605 205.631 212.6 205.747 212.591 205.878H207.187C207.234 206.55 207.453 207.063 207.845 207.418C208.246 207.763 208.708 207.936 209.231 207.936C209.651 207.936 210.001 207.843 210.281 207.656C210.57 207.46 210.785 207.199 210.925 206.872H212.409C212.222 207.525 211.849 208.071 211.289 208.51C210.738 208.949 210.052 209.168 209.231 209.168ZM209.231 203.106C208.736 203.106 208.298 203.255 207.915 203.554C207.532 203.843 207.299 204.282 207.215 204.87H211.135C211.107 204.329 210.916 203.899 210.561 203.582C210.206 203.265 209.763 203.106 209.231 203.106ZM213.827 209L216.291 205.528L213.827 202.056H215.409L217.271 204.716L219.119 202.056H220.715L218.251 205.528L220.715 209H219.119L217.271 206.34L215.409 209H213.827ZM222.672 212.08V202.056H224.002L224.156 203.134C224.38 202.807 224.688 202.518 225.08 202.266C225.472 202.014 225.976 201.888 226.592 201.888C227.264 201.888 227.857 202.047 228.37 202.364C228.884 202.681 229.285 203.115 229.574 203.666C229.873 204.217 230.022 204.842 230.022 205.542C230.022 206.242 229.873 206.867 229.574 207.418C229.285 207.959 228.884 208.389 228.37 208.706C227.857 209.014 227.26 209.168 226.578 209.168C226.037 209.168 225.556 209.061 225.136 208.846C224.726 208.631 224.399 208.328 224.156 207.936V212.08H222.672ZM226.326 207.88C226.961 207.88 227.484 207.665 227.894 207.236C228.305 206.797 228.51 206.228 228.51 205.528C228.51 205.071 228.417 204.665 228.23 204.31C228.044 203.955 227.787 203.68 227.46 203.484C227.134 203.279 226.756 203.176 226.326 203.176C225.692 203.176 225.169 203.395 224.758 203.834C224.357 204.273 224.156 204.837 224.156 205.528C224.156 206.228 224.357 206.797 224.758 207.236C225.169 207.665 225.692 207.88 226.326 207.88ZM235.625 209.168C234.944 209.168 234.337 209.019 233.805 208.72C233.283 208.412 232.872 207.987 232.573 207.446C232.275 206.905 232.125 206.275 232.125 205.556C232.125 204.828 232.27 204.189 232.559 203.638C232.858 203.087 233.269 202.658 233.791 202.35C234.323 202.042 234.939 201.888 235.639 201.888C236.321 201.888 236.913 202.042 237.417 202.35C237.921 202.649 238.313 203.05 238.593 203.554C238.873 204.058 239.013 204.613 239.013 205.22C239.013 205.313 239.009 205.416 238.999 205.528C238.999 205.631 238.995 205.747 238.985 205.878H233.581C233.628 206.55 233.847 207.063 234.239 207.418C234.641 207.763 235.103 207.936 235.625 207.936C236.045 207.936 236.395 207.843 236.675 207.656C236.965 207.46 237.179 207.199 237.319 206.872H238.803C238.617 207.525 238.243 208.071 237.683 208.51C237.133 208.949 236.447 209.168 235.625 209.168ZM235.625 203.106C235.131 203.106 234.692 203.255 234.309 203.554C233.927 203.843 233.693 204.282 233.609 204.87H237.529C237.501 204.329 237.31 203.899 236.955 203.582C236.601 203.265 236.157 203.106 235.625 203.106ZM241.303 209V202.056H242.633L242.759 203.372C243.002 202.915 243.338 202.555 243.767 202.294C244.206 202.023 244.733 201.888 245.349 201.888V203.442H244.943C244.533 203.442 244.164 203.512 243.837 203.652C243.52 203.783 243.263 204.011 243.067 204.338C242.881 204.655 242.787 205.099 242.787 205.668V209H241.303ZM248.212 200.74C247.932 200.74 247.698 200.656 247.512 200.488C247.334 200.311 247.246 200.091 247.246 199.83C247.246 199.569 247.334 199.354 247.512 199.186C247.698 199.009 247.932 198.92 248.212 198.92C248.492 198.92 248.72 199.009 248.898 199.186C249.084 199.354 249.178 199.569 249.178 199.83C249.178 200.091 249.084 200.311 248.898 200.488C248.72 200.656 248.492 200.74 248.212 200.74ZM247.47 209V202.056H248.954V209H247.47ZM254.911 209.168C254.229 209.168 253.623 209.019 253.091 208.72C252.568 208.412 252.157 207.987 251.859 207.446C251.56 206.905 251.411 206.275 251.411 205.556C251.411 204.828 251.555 204.189 251.845 203.638C252.143 203.087 252.554 202.658 253.077 202.35C253.609 202.042 254.225 201.888 254.925 201.888C255.606 201.888 256.199 202.042 256.703 202.35C257.207 202.649 257.599 203.05 257.879 203.554C258.159 204.058 258.299 204.613 258.299 205.22C258.299 205.313 258.294 205.416 258.285 205.528C258.285 205.631 258.28 205.747 258.271 205.878H252.867C252.913 206.55 253.133 207.063 253.525 207.418C253.926 207.763 254.388 207.936 254.911 207.936C255.331 207.936 255.681 207.843 255.961 207.656C256.25 207.46 256.465 207.199 256.605 206.872H258.089C257.902 207.525 257.529 208.071 256.969 208.51C256.418 208.949 255.732 209.168 254.911 209.168ZM254.911 203.106C254.416 203.106 253.977 203.255 253.595 203.554C253.212 203.843 252.979 204.282 252.895 204.87H256.815C256.787 204.329 256.595 203.899 256.241 203.582C255.886 203.265 255.443 203.106 254.911 203.106ZM252.923 201.342V200.236L254.897 199.102L256.885 200.236V201.342L254.897 200.18L252.923 201.342ZM260.588 209V202.056H261.904L262.016 203.274C262.231 202.845 262.544 202.509 262.954 202.266C263.374 202.014 263.855 201.888 264.396 201.888C265.236 201.888 265.894 202.149 266.37 202.672C266.856 203.195 267.098 203.974 267.098 205.01V209H265.628V205.164C265.628 203.82 265.078 203.148 263.976 203.148C263.426 203.148 262.968 203.344 262.604 203.736C262.25 204.128 262.072 204.688 262.072 205.416V209H260.588ZM272.886 209.168C272.205 209.168 271.594 209.014 271.052 208.706C270.52 208.398 270.1 207.973 269.792 207.432C269.494 206.881 269.344 206.247 269.344 205.528C269.344 204.809 269.494 204.179 269.792 203.638C270.1 203.087 270.52 202.658 271.052 202.35C271.594 202.042 272.205 201.888 272.886 201.888C273.745 201.888 274.464 202.112 275.042 202.56C275.63 203.008 276.008 203.615 276.176 204.38H274.622C274.529 203.997 274.324 203.699 274.006 203.484C273.689 203.269 273.316 203.162 272.886 203.162C272.522 203.162 272.186 203.255 271.878 203.442C271.57 203.619 271.323 203.885 271.136 204.24C270.95 204.585 270.856 205.015 270.856 205.528C270.856 206.041 270.95 206.475 271.136 206.83C271.323 207.175 271.57 207.441 271.878 207.628C272.186 207.815 272.522 207.908 272.886 207.908C273.316 207.908 273.689 207.801 274.006 207.586C274.324 207.371 274.529 207.068 274.622 206.676H276.176C276.018 207.423 275.644 208.025 275.056 208.482C274.468 208.939 273.745 209.168 272.886 209.168ZM279.376 200.74C279.096 200.74 278.862 200.656 278.676 200.488C278.498 200.311 278.41 200.091 278.41 199.83C278.41 199.569 278.498 199.354 278.676 199.186C278.862 199.009 279.096 198.92 279.376 198.92C279.656 198.92 279.884 199.009 280.062 199.186C280.248 199.354 280.342 199.569 280.342 199.83C280.342 200.091 280.248 200.311 280.062 200.488C279.884 200.656 279.656 200.74 279.376 200.74ZM278.634 209V202.056H280.118V209H278.634ZM285.179 209.168C284.591 209.168 284.105 209.07 283.723 208.874C283.34 208.678 283.055 208.421 282.869 208.104C282.682 207.777 282.589 207.423 282.589 207.04C282.589 206.368 282.85 205.836 283.373 205.444C283.895 205.052 284.642 204.856 285.613 204.856H287.433V204.73C287.433 204.189 287.283 203.783 286.985 203.512C286.695 203.241 286.317 203.106 285.851 203.106C285.44 203.106 285.081 203.209 284.773 203.414C284.474 203.61 284.292 203.904 284.227 204.296H282.743C282.789 203.792 282.957 203.363 283.247 203.008C283.545 202.644 283.919 202.369 284.367 202.182C284.824 201.986 285.323 201.888 285.865 201.888C286.835 201.888 287.587 202.145 288.119 202.658C288.651 203.162 288.917 203.853 288.917 204.73V209H287.629L287.503 207.81C287.307 208.193 287.022 208.515 286.649 208.776C286.275 209.037 285.785 209.168 285.179 209.168ZM285.473 207.964C285.874 207.964 286.21 207.871 286.481 207.684C286.761 207.488 286.975 207.231 287.125 206.914C287.283 206.597 287.381 206.247 287.419 205.864H285.767C285.179 205.864 284.759 205.967 284.507 206.172C284.264 206.377 284.143 206.634 284.143 206.942C284.143 207.259 284.259 207.511 284.493 207.698C284.735 207.875 285.062 207.964 285.473 207.964Z" fill="#FF4B00"/>
<rect x="109.5" y="172.5" width="192" height="63" rx="31.5" stroke="#FF4B00"/>
<path d="M334.342 208.583C333.787 210.74 331.83 212.333 329.5 212.333C326.739 212.333 324.5 210.095 324.5 207.333C324.5 205.315 325.695 203.577 327.417 202.787" stroke="#FF4B00" stroke-width="2" stroke-linecap="round" stroke-linejoin="round"/>
<path d="M329.5 199L330.333 206.5L336.583 206.083L337.833 210.667H339.083" stroke="#FF4B00" stroke-width="2" stroke-linecap="round" stroke-linejoin="round"/>
<path d="M331.167 197.333C331.167 198.254 330.421 199 329.501 199C328.58 199 327.834 198.254 327.834 197.333C327.834 196.413 328.58 195.667 329.501 195.667C330.421 195.667 331.167 196.413 331.167 197.333Z" stroke="#FF4B00" stroke-width="2" stroke-linecap="round" stroke-linejoin="round"/>
<path d="M332.416 202.333H335.749" stroke="#FF4B00" stroke-width="2" stroke-linecap="round" stroke-linejoin="round"/>
<path d="M351.269 209V199.2H354.699C355.465 199.2 356.099 199.331 356.603 199.592C357.107 199.844 357.481 200.194 357.723 200.642C357.975 201.081 358.101 201.58 358.101 202.14C358.101 202.672 357.98 203.162 357.737 203.61C357.504 204.049 357.135 204.399 356.631 204.66C356.127 204.921 355.483 205.052 354.699 205.052H352.753V209H351.269ZM352.753 203.834H354.629C355.329 203.834 355.829 203.685 356.127 203.386C356.435 203.078 356.589 202.663 356.589 202.14C356.589 201.599 356.435 201.179 356.127 200.88C355.829 200.572 355.329 200.418 354.629 200.418H352.753V203.834ZM363.169 209.168C362.488 209.168 361.877 209.014 361.335 208.706C360.803 208.398 360.383 207.973 360.075 207.432C359.777 206.881 359.627 206.247 359.627 205.528C359.627 204.809 359.777 204.179 360.075 203.638C360.383 203.087 360.803 202.658 361.335 202.35C361.877 202.042 362.488 201.888 363.169 201.888C364.028 201.888 364.747 202.112 365.325 202.56C365.913 203.008 366.291 203.615 366.459 204.38H364.905C364.812 203.997 364.607 203.699 364.289 203.484C363.972 203.269 363.599 203.162 363.169 203.162C362.805 203.162 362.469 203.255 362.161 203.442C361.853 203.619 361.606 203.885 361.419 204.24C361.233 204.585 361.139 205.015 361.139 205.528C361.139 206.041 361.233 206.475 361.419 206.83C361.606 207.175 361.853 207.441 362.161 207.628C362.469 207.815 362.805 207.908 363.169 207.908C363.599 207.908 363.972 207.801 364.289 207.586C364.607 207.371 364.812 207.068 364.905 206.676H366.459C366.301 207.423 365.927 208.025 365.339 208.482C364.751 208.939 364.028 209.168 363.169 209.168ZM368.875 209V199.2H372.053C373.201 199.2 374.144 199.401 374.881 199.802C375.628 200.203 376.178 200.773 376.533 201.51C376.897 202.238 377.079 203.106 377.079 204.114C377.079 205.113 376.897 205.981 376.533 206.718C376.178 207.446 375.628 208.011 374.881 208.412C374.144 208.804 373.201 209 372.053 209H368.875ZM370.359 207.74H371.997C372.884 207.74 373.584 207.595 374.097 207.306C374.62 207.017 374.993 206.601 375.217 206.06C375.45 205.519 375.567 204.87 375.567 204.114C375.567 203.358 375.45 202.705 375.217 202.154C374.993 201.603 374.62 201.183 374.097 200.894C373.584 200.595 372.884 200.446 371.997 200.446H370.359V207.74Z" fill="#FF4B00"/>
<rect x="310.5" y="172.5" width="79" height="63" rx="31.5" stroke="#FF4B00"/>
<path d="M80.9993 130.333C82.8403 130.333 84.3327 128.841 84.3327 127C84.3327 125.159 82.8403 123.667 80.9993 123.667C79.1584 123.667 77.666 125.159 77.666 127C77.666 128.841 79.1584 130.333 80.9993 130.333Z" stroke="#FF4B00" stroke-width="2" stroke-linecap="round" stroke-linejoin="round"/>
<path d="M88.5 140.333C88.5 136.191 85.1421 132.833 81 132.833C76.8579 132.833 73.5 136.191 73.5 140.333" stroke="#FF4B00" stroke-width="2" stroke-linecap="round" stroke-linejoin="round"/>
<path d="M83.5 137L80.1667 140.333L78.5 138.667" stroke="#FF4B00" stroke-width="2" stroke-linecap="round" stroke-linejoin="round"/>
<path d="M104.721 137.168C103.751 137.168 102.911 136.958 102.201 136.538C101.501 136.109 100.96 135.516 100.577 134.76C100.195 133.995 100.003 133.113 100.003 132.114C100.003 131.106 100.195 130.224 100.577 129.468C100.96 128.703 101.501 128.105 102.201 127.676C102.911 127.247 103.751 127.032 104.721 127.032C105.869 127.032 106.807 127.312 107.535 127.872C108.263 128.432 108.725 129.216 108.921 130.224H107.269C107.139 129.655 106.859 129.202 106.429 128.866C106 128.53 105.426 128.362 104.707 128.362C103.727 128.362 102.953 128.698 102.383 129.37C101.814 130.033 101.529 130.947 101.529 132.114C101.529 133.271 101.814 134.181 102.383 134.844C102.953 135.507 103.727 135.838 104.707 135.838C105.426 135.838 106 135.679 106.429 135.362C106.859 135.045 107.139 134.611 107.269 134.06H108.921C108.725 135.031 108.263 135.791 107.535 136.342C106.807 136.893 105.869 137.168 104.721 137.168ZM114.495 137.168C113.832 137.168 113.235 137.019 112.703 136.72C112.18 136.412 111.765 135.987 111.457 135.446C111.149 134.895 110.995 134.256 110.995 133.528C110.995 132.8 111.149 132.165 111.457 131.624C111.774 131.073 112.199 130.649 112.731 130.35C113.263 130.042 113.855 129.888 114.509 129.888C115.171 129.888 115.764 130.042 116.287 130.35C116.819 130.649 117.239 131.073 117.547 131.624C117.864 132.165 118.023 132.8 118.023 133.528C118.023 134.256 117.864 134.895 117.547 135.446C117.239 135.987 116.819 136.412 116.287 136.72C115.755 137.019 115.157 137.168 114.495 137.168ZM114.495 135.894C114.849 135.894 115.176 135.805 115.475 135.628C115.783 135.451 116.03 135.189 116.217 134.844C116.403 134.489 116.497 134.051 116.497 133.528C116.497 133.005 116.403 132.571 116.217 132.226C116.039 131.871 115.797 131.605 115.489 131.428C115.19 131.251 114.863 131.162 114.509 131.162C114.154 131.162 113.823 131.251 113.515 131.428C113.216 131.605 112.973 131.871 112.787 132.226C112.6 132.571 112.507 133.005 112.507 133.528C112.507 134.051 112.6 134.489 112.787 134.844C112.973 135.189 113.216 135.451 113.515 135.628C113.813 135.805 114.14 135.894 114.495 135.894ZM120.377 137V130.056H121.693L121.805 131.274C122.02 130.845 122.333 130.509 122.743 130.266C123.163 130.014 123.644 129.888 124.185 129.888C125.025 129.888 125.683 130.149 126.159 130.672C126.645 131.195 126.887 131.974 126.887 133.01V137H125.417V133.164C125.417 131.82 124.867 131.148 123.765 131.148C123.215 131.148 122.757 131.344 122.393 131.736C122.039 132.128 121.861 132.688 121.861 133.416V137H120.377ZM132.297 137C131.616 137 131.075 136.837 130.673 136.51C130.272 136.174 130.071 135.581 130.071 134.732V131.302H128.881V130.056H130.071L130.253 128.292H131.555V130.056H133.515V131.302H131.555V134.732C131.555 135.115 131.635 135.381 131.793 135.53C131.961 135.67 132.246 135.74 132.647 135.74H133.445V137H132.297ZM138.147 137.168C137.559 137.168 137.074 137.07 136.691 136.874C136.309 136.678 136.024 136.421 135.837 136.104C135.651 135.777 135.557 135.423 135.557 135.04C135.557 134.368 135.819 133.836 136.341 133.444C136.864 133.052 137.611 132.856 138.581 132.856H140.401V132.73C140.401 132.189 140.252 131.783 139.953 131.512C139.664 131.241 139.286 131.106 138.819 131.106C138.409 131.106 138.049 131.209 137.741 131.414C137.443 131.61 137.261 131.904 137.195 132.296H135.711C135.758 131.792 135.926 131.363 136.215 131.008C136.514 130.644 136.887 130.369 137.335 130.182C137.793 129.986 138.292 129.888 138.833 129.888C139.804 129.888 140.555 130.145 141.087 130.658C141.619 131.162 141.885 131.853 141.885 132.73V137H140.597L140.471 135.81C140.275 136.193 139.991 136.515 139.617 136.776C139.244 137.037 138.754 137.168 138.147 137.168ZM138.441 135.964C138.843 135.964 139.179 135.871 139.449 135.684C139.729 135.488 139.944 135.231 140.093 134.914C140.252 134.597 140.35 134.247 140.387 133.864H138.735C138.147 133.864 137.727 133.967 137.475 134.172C137.233 134.377 137.111 134.634 137.111 134.942C137.111 135.259 137.228 135.511 137.461 135.698C137.704 135.875 138.031 135.964 138.441 135.964ZM147.141 137C146.46 137 145.918 136.837 145.517 136.51C145.116 136.174 144.915 135.581 144.915 134.732V131.302H143.725V130.056H144.915L145.097 128.292H146.399V130.056H148.359V131.302H146.399V134.732C146.399 135.115 146.478 135.381 146.637 135.53C146.805 135.67 147.09 135.74 147.491 135.74H148.289V137H147.141ZM152.991 137.168C152.403 137.168 151.918 137.07 151.535 136.874C151.153 136.678 150.868 136.421 150.681 136.104C150.495 135.777 150.401 135.423 150.401 135.04C150.401 134.368 150.663 133.836 151.185 133.444C151.708 133.052 152.455 132.856 153.425 132.856H155.245V132.73C155.245 132.189 155.096 131.783 154.797 131.512C154.508 131.241 154.13 131.106 153.663 131.106C153.253 131.106 152.893 131.209 152.585 131.414C152.287 131.61 152.105 131.904 152.039 132.296H150.555C150.602 131.792 150.77 131.363 151.059 131.008C151.358 130.644 151.731 130.369 152.179 130.182C152.637 129.986 153.136 129.888 153.677 129.888C154.648 129.888 155.399 130.145 155.931 130.658C156.463 131.162 156.729 131.853 156.729 132.73V137H155.441L155.315 135.81C155.119 136.193 154.835 136.515 154.461 136.776C154.088 137.037 153.598 137.168 152.991 137.168ZM153.285 135.964C153.687 135.964 154.023 135.871 154.293 135.684C154.573 135.488 154.788 135.231 154.937 134.914C155.096 134.597 155.194 134.247 155.231 133.864H153.579C152.991 133.864 152.571 133.967 152.319 134.172C152.077 134.377 151.955 134.634 151.955 134.942C151.955 135.259 152.072 135.511 152.305 135.698C152.548 135.875 152.875 135.964 153.285 135.964ZM162.499 137.168C161.818 137.168 161.207 137.014 160.665 136.706C160.133 136.398 159.713 135.973 159.405 135.432C159.107 134.881 158.957 134.247 158.957 133.528C158.957 132.809 159.107 132.179 159.405 131.638C159.713 131.087 160.133 130.658 160.665 130.35C161.207 130.042 161.818 129.888 162.499 129.888C163.358 129.888 164.077 130.112 164.655 130.56C165.243 131.008 165.621 131.615 165.789 132.38H164.235C164.142 131.997 163.937 131.699 163.619 131.484C163.302 131.269 162.929 131.162 162.499 131.162C162.135 131.162 161.799 131.255 161.491 131.442C161.183 131.619 160.936 131.885 160.749 132.24C160.563 132.585 160.469 133.015 160.469 133.528C160.469 134.041 160.563 134.475 160.749 134.83C160.936 135.175 161.183 135.441 161.491 135.628C161.799 135.815 162.135 135.908 162.499 135.908C162.929 135.908 163.302 135.801 163.619 135.586C163.937 135.371 164.142 135.068 164.235 134.676H165.789C165.631 135.423 165.257 136.025 164.669 136.482C164.081 136.939 163.358 137.168 162.499 137.168ZM161.365 140.682V139.786H162.793C163.363 139.786 163.647 139.59 163.647 139.198C163.647 138.834 163.363 138.652 162.793 138.652H162.023V136.93H162.975V137.812C163.479 137.803 163.904 137.915 164.249 138.148C164.604 138.381 164.781 138.741 164.781 139.226C164.781 139.702 164.609 140.061 164.263 140.304C163.927 140.556 163.517 140.682 163.031 140.682H161.365ZM170.501 137.168C169.913 137.168 169.428 137.07 169.045 136.874C168.662 136.678 168.378 136.421 168.191 136.104C168.004 135.777 167.911 135.423 167.911 135.04C167.911 134.368 168.172 133.836 168.695 133.444C169.218 133.052 169.964 132.856 170.935 132.856H172.755V132.73C172.755 132.189 172.606 131.783 172.307 131.512C172.018 131.241 171.64 131.106 171.173 131.106C170.762 131.106 170.403 131.209 170.095 131.414C169.796 131.61 169.614 131.904 169.549 132.296H168.065C168.112 131.792 168.28 131.363 168.569 131.008C168.868 130.644 169.241 130.369 169.689 130.182C170.146 129.986 170.646 129.888 171.187 129.888C172.158 129.888 172.909 130.145 173.441 130.658C173.973 131.162 174.239 131.853 174.239 132.73V137H172.951L172.825 135.81C172.629 136.193 172.344 136.515 171.971 136.776C171.598 137.037 171.108 137.168 170.501 137.168ZM170.795 135.964C171.196 135.964 171.532 135.871 171.803 135.684C172.083 135.488 172.298 135.231 172.447 134.914C172.606 134.597 172.704 134.247 172.741 133.864H171.089C170.501 133.864 170.081 133.967 169.829 134.172C169.586 134.377 169.465 134.634 169.465 134.942C169.465 135.259 169.582 135.511 169.815 135.698C170.058 135.875 170.384 135.964 170.795 135.964ZM171.929 129.3C171.677 129.3 171.462 129.249 171.285 129.146C171.108 129.034 170.94 128.927 170.781 128.824C170.632 128.712 170.464 128.656 170.277 128.656C169.932 128.656 169.731 128.866 169.675 129.286H168.849C168.933 128.745 169.101 128.348 169.353 128.096C169.614 127.835 169.941 127.704 170.333 127.704C170.585 127.704 170.8 127.76 170.977 127.872C171.154 127.975 171.318 128.082 171.467 128.194C171.626 128.297 171.803 128.348 171.999 128.348C172.158 128.348 172.288 128.297 172.391 128.194C172.503 128.091 172.573 127.933 172.601 127.718H173.427C173.352 128.25 173.18 128.647 172.909 128.908C172.648 129.169 172.321 129.3 171.929 129.3ZM179.967 137.168C179.305 137.168 178.707 137.019 178.175 136.72C177.653 136.412 177.237 135.987 176.929 135.446C176.621 134.895 176.467 134.256 176.467 133.528C176.467 132.8 176.621 132.165 176.929 131.624C177.247 131.073 177.671 130.649 178.203 130.35C178.735 130.042 179.328 129.888 179.981 129.888C180.644 129.888 181.237 130.042 181.759 130.35C182.291 130.649 182.711 131.073 183.019 131.624C183.337 132.165 183.495 132.8 183.495 133.528C183.495 134.256 183.337 134.895 183.019 135.446C182.711 135.987 182.291 136.412 181.759 136.72C181.227 137.019 180.63 137.168 179.967 137.168ZM179.967 135.894C180.322 135.894 180.649 135.805 180.947 135.628C181.255 135.451 181.503 135.189 181.689 134.844C181.876 134.489 181.969 134.051 181.969 133.528C181.969 133.005 181.876 132.571 181.689 132.226C181.512 131.871 181.269 131.605 180.961 131.428C180.663 131.251 180.336 131.162 179.981 131.162C179.627 131.162 179.295 131.251 178.987 131.428C178.689 131.605 178.446 131.871 178.259 132.226C178.073 132.571 177.979 133.005 177.979 133.528C177.979 134.051 178.073 134.489 178.259 134.844C178.446 135.189 178.689 135.451 178.987 135.628C179.286 135.805 179.613 135.894 179.967 135.894ZM190.967 128.74C190.687 128.74 190.454 128.656 190.267 128.488C190.09 128.311 190.001 128.091 190.001 127.83C190.001 127.569 190.09 127.354 190.267 127.186C190.454 127.009 190.687 126.92 190.967 126.92C191.247 126.92 191.476 127.009 191.653 127.186C191.84 127.354 191.933 127.569 191.933 127.83C191.933 128.091 191.84 128.311 191.653 128.488C191.476 128.656 191.247 128.74 190.967 128.74ZM190.225 137V130.056H191.709V137H190.225ZM194.418 137V130.056H195.734L195.86 131.036C196.084 130.681 196.378 130.401 196.742 130.196C197.116 129.991 197.545 129.888 198.03 129.888C199.132 129.888 199.897 130.322 200.326 131.19C200.578 130.789 200.914 130.471 201.334 130.238C201.764 130.005 202.226 129.888 202.72 129.888C203.588 129.888 204.27 130.149 204.764 130.672C205.259 131.195 205.506 131.974 205.506 133.01V137H204.022V133.164C204.022 131.82 203.509 131.148 202.482 131.148C201.96 131.148 201.53 131.344 201.194 131.736C200.868 132.128 200.704 132.688 200.704 133.416V137H199.22V133.164C199.22 131.82 198.702 131.148 197.666 131.148C197.153 131.148 196.728 131.344 196.392 131.736C196.066 132.128 195.902 132.688 195.902 133.416V137H194.418ZM211.241 137.168C210.559 137.168 209.953 137.019 209.421 136.72C208.898 136.412 208.487 135.987 208.189 135.446C207.89 134.905 207.741 134.275 207.741 133.556C207.741 132.828 207.885 132.189 208.175 131.638C208.473 131.087 208.884 130.658 209.407 130.35C209.939 130.042 210.555 129.888 211.255 129.888C211.936 129.888 212.529 130.042 213.033 130.35C213.537 130.649 213.929 131.05 214.209 131.554C214.489 132.058 214.629 132.613 214.629 133.22C214.629 133.313 214.624 133.416 214.615 133.528C214.615 133.631 214.61 133.747 214.601 133.878H209.197C209.243 134.55 209.463 135.063 209.855 135.418C210.256 135.763 210.718 135.936 211.241 135.936C211.661 135.936 212.011 135.843 212.291 135.656C212.58 135.46 212.795 135.199 212.935 134.872H214.419C214.232 135.525 213.859 136.071 213.299 136.51C212.748 136.949 212.062 137.168 211.241 137.168ZM211.241 131.106C210.746 131.106 210.307 131.255 209.925 131.554C209.542 131.843 209.309 132.282 209.225 132.87H213.145C213.117 132.329 212.925 131.899 212.571 131.582C212.216 131.265 211.773 131.106 211.241 131.106ZM220.082 137.168C219.41 137.168 218.818 137.009 218.304 136.692C217.791 136.375 217.39 135.941 217.1 135.39C216.811 134.839 216.666 134.214 216.666 133.514C216.666 132.814 216.811 132.193 217.1 131.652C217.39 131.101 217.791 130.672 218.304 130.364C218.827 130.047 219.424 129.888 220.096 129.888C220.647 129.888 221.128 129.995 221.538 130.21C221.958 130.425 222.285 130.728 222.518 131.12V126.92H224.002V137H222.672L222.518 135.922C222.294 136.249 221.986 136.538 221.594 136.79C221.202 137.042 220.698 137.168 220.082 137.168ZM220.348 135.88C220.983 135.88 221.501 135.661 221.902 135.222C222.313 134.783 222.518 134.219 222.518 133.528C222.518 132.828 222.313 132.263 221.902 131.834C221.501 131.395 220.983 131.176 220.348 131.176C219.714 131.176 219.191 131.395 218.78 131.834C218.37 132.263 218.164 132.828 218.164 133.528C218.164 133.985 218.258 134.391 218.444 134.746C218.631 135.101 218.888 135.381 219.214 135.586C219.55 135.782 219.928 135.88 220.348 135.88ZM227.464 128.74C227.184 128.74 226.95 128.656 226.764 128.488C226.586 128.311 226.498 128.091 226.498 127.83C226.498 127.569 226.586 127.354 226.764 127.186C226.95 127.009 227.184 126.92 227.464 126.92C227.744 126.92 227.972 127.009 228.15 127.186C228.336 127.354 228.43 127.569 228.43 127.83C228.43 128.091 228.336 128.311 228.15 128.488C227.972 128.656 227.744 128.74 227.464 128.74ZM226.722 137V130.056H228.206V137H226.722ZM233.267 137.168C232.679 137.168 232.193 137.07 231.811 136.874C231.428 136.678 231.143 136.421 230.957 136.104C230.77 135.777 230.677 135.423 230.677 135.04C230.677 134.368 230.938 133.836 231.461 133.444C231.983 133.052 232.73 132.856 233.701 132.856H235.521V132.73C235.521 132.189 235.371 131.783 235.073 131.512C234.783 131.241 234.405 131.106 233.939 131.106C233.528 131.106 233.169 131.209 232.861 131.414C232.562 131.61 232.38 131.904 232.315 132.296H230.831C230.877 131.792 231.045 131.363 231.335 131.008C231.633 130.644 232.007 130.369 232.455 130.182C232.912 129.986 233.411 129.888 233.953 129.888C234.923 129.888 235.675 130.145 236.207 130.658C236.739 131.162 237.005 131.853 237.005 132.73V137H235.717L235.591 135.81C235.395 136.193 235.11 136.515 234.737 136.776C234.363 137.037 233.873 137.168 233.267 137.168ZM233.561 135.964C233.962 135.964 234.298 135.871 234.569 135.684C234.849 135.488 235.063 135.231 235.213 134.914C235.371 134.597 235.469 134.247 235.507 133.864H233.855C233.267 133.864 232.847 133.967 232.595 134.172C232.352 134.377 232.231 134.634 232.231 134.942C232.231 135.259 232.347 135.511 232.581 135.698C232.823 135.875 233.15 135.964 233.561 135.964ZM242.26 137C241.579 137 241.037 136.837 240.636 136.51C240.235 136.174 240.034 135.581 240.034 134.732V131.302H238.844V130.056H240.034L240.216 128.292H241.518V130.056H243.478V131.302H241.518V134.732C241.518 135.115 241.597 135.381 241.756 135.53C241.924 135.67 242.209 135.74 242.61 135.74H243.408V137H242.26ZM248.11 137.168C247.522 137.168 247.037 137.07 246.654 136.874C246.272 136.678 245.987 136.421 245.8 136.104C245.614 135.777 245.52 135.423 245.52 135.04C245.52 134.368 245.782 133.836 246.304 133.444C246.827 133.052 247.574 132.856 248.544 132.856H250.364V132.73C250.364 132.189 250.215 131.783 249.916 131.512C249.627 131.241 249.249 131.106 248.782 131.106C248.372 131.106 248.012 131.209 247.704 131.414C247.406 131.61 247.224 131.904 247.158 132.296H245.674C245.721 131.792 245.889 131.363 246.178 131.008C246.477 130.644 246.85 130.369 247.298 130.182C247.756 129.986 248.255 129.888 248.796 129.888C249.767 129.888 250.518 130.145 251.05 130.658C251.582 131.162 251.848 131.853 251.848 132.73V137H250.56L250.434 135.81C250.238 136.193 249.954 136.515 249.58 136.776C249.207 137.037 248.717 137.168 248.11 137.168ZM248.404 135.964C248.806 135.964 249.142 135.871 249.412 135.684C249.692 135.488 249.907 135.231 250.056 134.914C250.215 134.597 250.313 134.247 250.35 133.864H248.698C248.11 133.864 247.69 133.967 247.438 134.172C247.196 134.377 247.074 134.634 247.074 134.942C247.074 135.259 247.191 135.511 247.424 135.698C247.667 135.875 247.994 135.964 248.404 135.964Z" fill="#FF4B00"/>
<rect x="59.5" y="100.5" width="205" height="63" rx="31.5" stroke="#FF4B00"/>
<g clip-path="url(#clip0_3881_4292)">
<path d="M285.834 129.25L294.593 125.75L303.352 129.25L294.593 132.75L285.834 129.25Z" stroke="#FF4B00" stroke-width="2" stroke-linejoin="round"/>
<path d="M303.352 129.296V133.139" stroke="#FF4B00" stroke-width="2" stroke-linecap="round" stroke-linejoin="round"/>
<path d="M289.814 131.094V136.278C289.814 136.278 291.819 138.25 294.592 138.25C297.366 138.25 299.37 136.278 299.37 136.278V131.094" stroke="#FF4B00" stroke-width="2" stroke-linecap="round" stroke-linejoin="round"/>
</g>
<path d="M314.1 137V127.2H317.32C318.086 127.2 318.716 127.326 319.21 127.578C319.705 127.83 320.069 128.171 320.302 128.6C320.545 129.029 320.666 129.515 320.666 130.056C320.666 130.588 320.55 131.069 320.316 131.498C320.083 131.927 319.719 132.273 319.224 132.534C318.73 132.786 318.095 132.912 317.32 132.912H315.276V137H314.1ZM315.276 131.918H317.292C318.076 131.918 318.632 131.755 318.958 131.428C319.294 131.092 319.462 130.635 319.462 130.056C319.462 129.468 319.294 129.011 318.958 128.684C318.632 128.348 318.076 128.18 317.292 128.18H315.276V131.918ZM324.87 137.168C324.291 137.168 323.81 137.07 323.428 136.874C323.045 136.678 322.76 136.417 322.574 136.09C322.387 135.763 322.294 135.409 322.294 135.026C322.294 134.317 322.564 133.771 323.106 133.388C323.647 133.005 324.384 132.814 325.318 132.814H327.194V132.73C327.194 132.123 327.035 131.666 326.718 131.358C326.4 131.041 325.976 130.882 325.444 130.882C324.986 130.882 324.59 130.999 324.254 131.232C323.927 131.456 323.722 131.787 323.638 132.226H322.434C322.48 131.722 322.648 131.297 322.938 130.952C323.236 130.607 323.605 130.345 324.044 130.168C324.482 129.981 324.949 129.888 325.444 129.888C326.414 129.888 327.142 130.149 327.628 130.672C328.122 131.185 328.37 131.871 328.37 132.73V137H327.32L327.25 135.754C327.054 136.146 326.764 136.482 326.382 136.762C326.008 137.033 325.504 137.168 324.87 137.168ZM325.052 136.174C325.5 136.174 325.882 136.057 326.2 135.824C326.526 135.591 326.774 135.287 326.942 134.914C327.11 134.541 327.194 134.149 327.194 133.738V133.724H325.416C324.725 133.724 324.235 133.845 323.946 134.088C323.666 134.321 323.526 134.615 323.526 134.97C323.526 135.334 323.656 135.628 323.918 135.852C324.188 136.067 324.566 136.174 325.052 136.174ZM330.884 137V130.056H331.948L332.046 131.386C332.261 130.929 332.587 130.565 333.026 130.294C333.465 130.023 334.006 129.888 334.65 129.888V131.12H334.328C333.917 131.12 333.539 131.195 333.194 131.344C332.849 131.484 332.573 131.727 332.368 132.072C332.163 132.417 332.06 132.893 332.06 133.5V137H330.884ZM339.03 137.168C338.451 137.168 337.971 137.07 337.588 136.874C337.205 136.678 336.921 136.417 336.734 136.09C336.547 135.763 336.454 135.409 336.454 135.026C336.454 134.317 336.725 133.771 337.266 133.388C337.807 133.005 338.545 132.814 339.478 132.814H341.354V132.73C341.354 132.123 341.195 131.666 340.878 131.358C340.561 131.041 340.136 130.882 339.604 130.882C339.147 130.882 338.75 130.999 338.414 131.232C338.087 131.456 337.882 131.787 337.798 132.226H336.594C336.641 131.722 336.809 131.297 337.098 130.952C337.397 130.607 337.765 130.345 338.204 130.168C338.643 129.981 339.109 129.888 339.604 129.888C340.575 129.888 341.303 130.149 341.788 130.672C342.283 131.185 342.53 131.871 342.53 132.73V137H341.48L341.41 135.754C341.214 136.146 340.925 136.482 340.542 136.762C340.169 137.033 339.665 137.168 339.03 137.168ZM339.212 136.174C339.66 136.174 340.043 136.057 340.36 135.824C340.687 135.591 340.934 135.287 341.102 134.914C341.27 134.541 341.354 134.149 341.354 133.738V133.724H339.576C338.885 133.724 338.395 133.845 338.106 134.088C337.826 134.321 337.686 134.615 337.686 134.97C337.686 135.334 337.817 135.628 338.078 135.852C338.349 136.067 338.727 136.174 339.212 136.174ZM352.621 137.168C351.959 137.168 351.371 137.019 350.857 136.72C350.344 136.412 349.938 135.987 349.639 135.446C349.35 134.905 349.205 134.265 349.205 133.528C349.205 132.8 349.35 132.165 349.639 131.624C349.929 131.073 350.33 130.649 350.843 130.35C351.366 130.042 351.968 129.888 352.649 129.888C353.321 129.888 353.9 130.042 354.385 130.35C354.88 130.649 355.258 131.045 355.519 131.54C355.781 132.035 355.911 132.567 355.911 133.136C355.911 133.239 355.907 133.341 355.897 133.444C355.897 133.547 355.897 133.663 355.897 133.794H350.367C350.395 134.326 350.517 134.769 350.731 135.124C350.955 135.469 351.231 135.731 351.557 135.908C351.893 136.085 352.248 136.174 352.621 136.174C353.107 136.174 353.513 136.062 353.839 135.838C354.166 135.614 354.404 135.311 354.553 134.928H355.715C355.529 135.572 355.169 136.109 354.637 136.538C354.115 136.958 353.443 137.168 352.621 137.168ZM352.621 130.882C352.061 130.882 351.562 131.055 351.123 131.4C350.694 131.736 350.447 132.231 350.381 132.884H354.749C354.721 132.259 354.507 131.769 354.105 131.414C353.704 131.059 353.209 130.882 352.621 130.882ZM360.88 137.168C360.049 137.168 359.359 136.958 358.808 136.538C358.257 136.118 357.935 135.549 357.842 134.83H359.046C359.121 135.194 359.312 135.511 359.62 135.782C359.937 136.043 360.362 136.174 360.894 136.174C361.389 136.174 361.753 136.071 361.986 135.866C362.219 135.651 362.336 135.399 362.336 135.11C362.336 134.69 362.182 134.41 361.874 134.27C361.575 134.13 361.151 134.004 360.6 133.892C360.227 133.817 359.853 133.71 359.48 133.57C359.107 133.43 358.794 133.234 358.542 132.982C358.29 132.721 358.164 132.38 358.164 131.96C358.164 131.353 358.388 130.859 358.836 130.476C359.293 130.084 359.909 129.888 360.684 129.888C361.421 129.888 362.023 130.075 362.49 130.448C362.966 130.812 363.241 131.335 363.316 132.016H362.154C362.107 131.661 361.953 131.386 361.692 131.19C361.44 130.985 361.099 130.882 360.67 130.882C360.25 130.882 359.923 130.971 359.69 131.148C359.466 131.325 359.354 131.559 359.354 131.848C359.354 132.128 359.499 132.347 359.788 132.506C360.087 132.665 360.488 132.8 360.992 132.912C361.421 133.005 361.827 133.122 362.21 133.262C362.602 133.393 362.919 133.593 363.162 133.864C363.414 134.125 363.54 134.508 363.54 135.012C363.549 135.637 363.311 136.155 362.826 136.566C362.35 136.967 361.701 137.168 360.88 137.168ZM368.399 137C367.765 137 367.265 136.846 366.901 136.538C366.537 136.23 366.355 135.675 366.355 134.872V131.05H365.151V130.056H366.355L366.509 128.39H367.531V130.056H369.575V131.05H367.531V134.872C367.531 135.311 367.62 135.609 367.797 135.768C367.975 135.917 368.287 135.992 368.735 135.992H369.463V137H368.399ZM374.354 137.168C373.532 137.168 372.879 136.921 372.394 136.426C371.908 135.922 371.666 135.152 371.666 134.116V130.056H372.842V133.99C372.842 135.437 373.434 136.16 374.62 136.16C375.226 136.16 375.726 135.945 376.118 135.516C376.519 135.077 376.72 134.457 376.72 133.654V130.056H377.896V137H376.832L376.748 135.754C376.533 136.193 376.211 136.538 375.782 136.79C375.362 137.042 374.886 137.168 374.354 137.168ZM383.731 137.168C383.041 137.168 382.434 137.009 381.911 136.692C381.398 136.375 380.997 135.941 380.707 135.39C380.427 134.839 380.287 134.214 380.287 133.514C380.287 132.814 380.432 132.193 380.721 131.652C381.011 131.101 381.412 130.672 381.925 130.364C382.439 130.047 383.045 129.888 383.745 129.888C384.315 129.888 384.819 130.005 385.257 130.238C385.696 130.471 386.037 130.798 386.279 131.218V126.92H387.455V137H386.391L386.279 135.852C386.055 136.188 385.733 136.491 385.313 136.762C384.893 137.033 384.366 137.168 383.731 137.168ZM383.857 136.146C384.324 136.146 384.735 136.039 385.089 135.824C385.453 135.6 385.733 135.292 385.929 134.9C386.135 134.508 386.237 134.051 386.237 133.528C386.237 133.005 386.135 132.548 385.929 132.156C385.733 131.764 385.453 131.461 385.089 131.246C384.735 131.022 384.324 130.91 383.857 130.91C383.4 130.91 382.989 131.022 382.625 131.246C382.271 131.461 381.991 131.764 381.785 132.156C381.589 132.548 381.491 133.005 381.491 133.528C381.491 134.051 381.589 134.508 381.785 134.9C381.991 135.292 382.271 135.6 382.625 135.824C382.989 136.039 383.4 136.146 383.857 136.146ZM392.432 137.168C391.854 137.168 391.373 137.07 390.99 136.874C390.608 136.678 390.323 136.417 390.136 136.09C389.95 135.763 389.856 135.409 389.856 135.026C389.856 134.317 390.127 133.771 390.668 133.388C391.21 133.005 391.947 132.814 392.88 132.814H394.756V132.73C394.756 132.123 394.598 131.666 394.28 131.358C393.963 131.041 393.538 130.882 393.006 130.882C392.549 130.882 392.152 130.999 391.816 131.232C391.49 131.456 391.284 131.787 391.2 132.226H389.996C390.043 131.722 390.211 131.297 390.5 130.952C390.799 130.607 391.168 130.345 391.606 130.168C392.045 129.981 392.512 129.888 393.006 129.888C393.977 129.888 394.705 130.149 395.19 130.672C395.685 131.185 395.932 131.871 395.932 132.73V137H394.882L394.812 135.754C394.616 136.146 394.327 136.482 393.944 136.762C393.571 137.033 393.067 137.168 392.432 137.168ZM392.614 136.174C393.062 136.174 393.445 136.057 393.762 135.824C394.089 135.591 394.336 135.287 394.504 134.914C394.672 134.541 394.756 134.149 394.756 133.738V133.724H392.978C392.288 133.724 391.798 133.845 391.508 134.088C391.228 134.321 391.088 134.615 391.088 134.97C391.088 135.334 391.219 135.628 391.48 135.852C391.751 136.067 392.129 136.174 392.614 136.174ZM398.446 137V130.056H399.51L399.58 131.302C399.804 130.863 400.126 130.518 400.546 130.266C400.966 130.014 401.442 129.888 401.974 129.888C402.796 129.888 403.449 130.14 403.934 130.644C404.429 131.139 404.676 131.904 404.676 132.94V137H403.5V133.066C403.5 131.619 402.903 130.896 401.708 130.896C401.111 130.896 400.612 131.115 400.21 131.554C399.818 131.983 399.622 132.599 399.622 133.402V137H398.446ZM409.952 137C409.318 137 408.818 136.846 408.454 136.538C408.09 136.23 407.908 135.675 407.908 134.872V131.05H406.704V130.056H407.908L408.062 128.39H409.084V130.056H411.128V131.05H409.084V134.872C409.084 135.311 409.173 135.609 409.35 135.768C409.528 135.917 409.84 135.992 410.288 135.992H411.016V137H409.952ZM416.303 137.168C415.64 137.168 415.052 137.019 414.539 136.72C414.026 136.412 413.62 135.987 413.321 135.446C413.032 134.905 412.887 134.265 412.887 133.528C412.887 132.8 413.032 132.165 413.321 131.624C413.61 131.073 414.012 130.649 414.525 130.35C415.048 130.042 415.65 129.888 416.331 129.888C417.003 129.888 417.582 130.042 418.067 130.35C418.562 130.649 418.94 131.045 419.201 131.54C419.462 132.035 419.593 132.567 419.593 133.136C419.593 133.239 419.588 133.341 419.579 133.444C419.579 133.547 419.579 133.663 419.579 133.794H414.049C414.077 134.326 414.198 134.769 414.413 135.124C414.637 135.469 414.912 135.731 415.239 135.908C415.575 136.085 415.93 136.174 416.303 136.174C416.788 136.174 417.194 136.062 417.521 135.838C417.848 135.614 418.086 135.311 418.235 134.928H419.397C419.21 135.572 418.851 136.109 418.319 136.538C417.796 136.958 417.124 137.168 416.303 137.168ZM416.303 130.882C415.743 130.882 415.244 131.055 414.805 131.4C414.376 131.736 414.128 132.231 414.063 132.884H418.431C418.403 132.259 418.188 131.769 417.787 131.414C417.386 131.059 416.891 130.882 416.303 130.882ZM424.562 137.168C423.731 137.168 423.04 136.958 422.49 136.538C421.939 136.118 421.617 135.549 421.524 134.83H422.728C422.802 135.194 422.994 135.511 423.302 135.782C423.619 136.043 424.044 136.174 424.576 136.174C425.07 136.174 425.434 136.071 425.668 135.866C425.901 135.651 426.018 135.399 426.018 135.11C426.018 134.69 425.864 134.41 425.556 134.27C425.257 134.13 424.832 134.004 424.282 133.892C423.908 133.817 423.535 133.71 423.162 133.57C422.788 133.43 422.476 133.234 422.224 132.982C421.972 132.721 421.846 132.38 421.846 131.96C421.846 131.353 422.07 130.859 422.518 130.476C422.975 130.084 423.591 129.888 424.366 129.888C425.103 129.888 425.705 130.075 426.172 130.448C426.648 130.812 426.923 131.335 426.998 132.016H425.836C425.789 131.661 425.635 131.386 425.374 131.19C425.122 130.985 424.781 130.882 424.352 130.882C423.932 130.882 423.605 130.971 423.372 131.148C423.148 131.325 423.036 131.559 423.036 131.848C423.036 132.128 423.18 132.347 423.47 132.506C423.768 132.665 424.17 132.8 424.674 132.912C425.103 133.005 425.509 133.122 425.892 133.262C426.284 133.393 426.601 133.593 426.844 133.864C427.096 134.125 427.222 134.508 427.222 135.012C427.231 135.637 426.993 136.155 426.508 136.566C426.032 136.967 425.383 137.168 424.562 137.168Z" fill="#FF4B00"/>
<rect x="273.5" y="100.5" width="166" height="63" rx="31.5" stroke="#FF4B00"/>
<path d="M37.9754 375V354.808H31.2874V352.6H47.3514V354.808H40.6634V375H37.9754ZM54.3786 375.384C53.056 375.384 51.9573 375.16 51.0826 374.712C50.208 374.264 49.5573 373.667 49.1306 372.92C48.704 372.173 48.4906 371.363 48.4906 370.488C48.4906 368.867 49.1093 367.619 50.3466 366.744C51.584 365.869 53.2693 365.432 55.4026 365.432H59.6906V365.24C59.6906 363.853 59.328 362.808 58.6026 362.104C57.8773 361.379 56.9066 361.016 55.6906 361.016C54.6453 361.016 53.7386 361.283 52.9706 361.816C52.224 362.328 51.7546 363.085 51.5626 364.088H48.8106C48.9173 362.936 49.3013 361.965 49.9626 361.176C50.6453 360.387 51.488 359.789 52.4906 359.384C53.4933 358.957 54.56 358.744 55.6906 358.744C57.9093 358.744 59.5733 359.341 60.6826 360.536C61.8133 361.709 62.3786 363.277 62.3786 365.24V375H59.9786L59.8186 372.152C59.3706 373.048 58.7093 373.816 57.8346 374.456C56.9813 375.075 55.8293 375.384 54.3786 375.384ZM54.7946 373.112C55.8186 373.112 56.6933 372.845 57.4186 372.312C58.1653 371.779 58.7306 371.085 59.1146 370.232C59.4986 369.379 59.6906 368.483 59.6906 367.544V367.512H55.6266C54.048 367.512 52.928 367.789 52.2666 368.344C51.6266 368.877 51.3066 369.549 51.3066 370.36C51.3066 371.192 51.6053 371.864 52.2026 372.376C52.8213 372.867 53.6853 373.112 54.7946 373.112ZM73.6831 370.008C72.7871 370.008 71.9658 369.891 71.2191 369.656L69.6191 371.16C69.8538 371.331 70.1418 371.48 70.4831 371.608C70.8458 371.715 71.3578 371.821 72.0191 371.928C72.6805 372.013 73.6085 372.109 74.8031 372.216C76.9365 372.365 78.4618 372.856 79.3791 373.688C80.2965 374.52 80.7551 375.608 80.7551 376.952C80.7551 377.869 80.4991 378.744 79.9871 379.576C79.4965 380.408 78.7285 381.091 77.6831 381.624C76.6591 382.157 75.3365 382.424 73.7151 382.424C72.2858 382.424 71.0165 382.232 69.9071 381.848C68.7978 381.485 67.9338 380.92 67.3151 380.152C66.6965 379.405 66.3871 378.456 66.3871 377.304C66.3871 376.707 66.5471 376.056 66.8671 375.352C67.1871 374.669 67.7845 374.019 68.6591 373.4C68.1898 373.208 67.7845 373.005 67.4431 372.792C67.1231 372.557 66.8245 372.301 66.5471 372.024V371.288L69.2671 368.6C68.0085 367.533 67.3791 366.125 67.3791 364.376C67.3791 363.331 67.6245 362.381 68.1151 361.528C68.6058 360.675 69.3205 360.003 70.2591 359.512C71.1978 359 72.3391 358.744 73.6831 358.744C74.6005 358.744 75.4325 358.872 76.1791 359.128H82.0351V361.144L79.0591 361.272C79.6778 362.168 79.9871 363.203 79.9871 364.376C79.9871 365.421 79.7311 366.371 79.2191 367.224C78.7285 368.077 78.0138 368.76 77.0751 369.272C76.1578 369.763 75.0271 370.008 73.6831 370.008ZM73.6831 367.8C74.8138 367.8 75.7098 367.512 76.3711 366.936C77.0538 366.339 77.3951 365.485 77.3951 364.376C77.3951 363.288 77.0538 362.456 76.3711 361.88C75.7098 361.283 74.8138 360.984 73.6831 360.984C72.5311 360.984 71.6138 361.283 70.9311 361.88C70.2698 362.456 69.9391 363.288 69.9391 364.376C69.9391 365.485 70.2698 366.339 70.9311 366.936C71.6138 367.512 72.5311 367.8 73.6831 367.8ZM69.0111 377.048C69.0111 378.115 69.4591 378.904 70.3551 379.416C71.2511 379.949 72.3711 380.216 73.7151 380.216C75.0378 380.216 76.0938 379.928 76.8831 379.352C77.6938 378.776 78.0991 378.008 78.0991 377.048C78.0991 376.365 77.8218 375.768 77.2671 375.256C76.7125 374.765 75.6885 374.477 74.1951 374.392C73.0218 374.307 72.0085 374.2 71.1551 374.072C70.2805 374.541 69.7045 375.043 69.4271 375.576C69.1498 376.131 69.0111 376.621 69.0111 377.048ZM92.1474 375.384C90.2487 375.384 88.67 374.904 87.4114 373.944C86.1527 372.984 85.4167 371.683 85.2034 370.04H87.9554C88.126 370.872 88.5634 371.597 89.2674 372.216C89.9927 372.813 90.9634 373.112 92.1794 373.112C93.31 373.112 94.142 372.877 94.6754 372.408C95.2087 371.917 95.4754 371.341 95.4754 370.68C95.4754 369.72 95.1234 369.08 94.4194 368.76C93.7367 368.44 92.766 368.152 91.5074 367.896C90.654 367.725 89.8007 367.48 88.9474 367.16C88.094 366.84 87.3794 366.392 86.8034 365.816C86.2274 365.219 85.9394 364.44 85.9394 363.48C85.9394 362.093 86.4514 360.963 87.4754 360.088C88.5207 359.192 89.9287 358.744 91.6994 358.744C93.3847 358.744 94.7607 359.171 95.8274 360.024C96.9154 360.856 97.5447 362.051 97.7154 363.608H95.0594C94.9527 362.797 94.6007 362.168 94.0034 361.72C93.4274 361.251 92.6487 361.016 91.6674 361.016C90.7074 361.016 89.9607 361.219 89.4274 361.624C88.9154 362.029 88.6594 362.563 88.6594 363.224C88.6594 363.864 88.99 364.365 89.6514 364.728C90.334 365.091 91.2514 365.4 92.4034 365.656C93.3847 365.869 94.3127 366.136 95.1874 366.456C96.0834 366.755 96.8087 367.213 97.3634 367.832C97.9394 368.429 98.2274 369.304 98.2274 370.456C98.2487 371.885 97.7047 373.069 96.5954 374.008C95.5074 374.925 94.0247 375.384 92.1474 375.384ZM125.56 382.04V372.376C125.048 373.144 124.312 373.837 123.352 374.456C122.392 375.075 121.187 375.384 119.736 375.384C118.157 375.384 116.771 375.021 115.576 374.296C114.403 373.571 113.485 372.579 112.824 371.32C112.184 370.061 111.864 368.632 111.864 367.032C111.864 365.432 112.195 364.013 112.856 362.776C113.517 361.517 114.435 360.536 115.608 359.832C116.781 359.107 118.168 358.744 119.768 358.744C121.069 358.744 122.221 359.011 123.224 359.544C124.227 360.077 125.005 360.824 125.56 361.784L125.816 359.128H128.248V382.04H125.56ZM120.024 373.048C121.091 373.048 122.029 372.803 122.84 372.312C123.672 371.8 124.312 371.096 124.76 370.2C125.229 369.304 125.464 368.259 125.464 367.064C125.464 365.869 125.229 364.824 124.76 363.928C124.312 363.032 123.672 362.339 122.84 361.848C122.029 361.336 121.091 361.08 120.024 361.08C118.979 361.08 118.04 361.336 117.208 361.848C116.397 362.339 115.757 363.032 115.288 363.928C114.84 364.824 114.616 365.869 114.616 367.064C114.616 368.259 114.84 369.304 115.288 370.2C115.757 371.096 116.397 371.8 117.208 372.312C118.04 372.803 118.979 373.048 120.024 373.048ZM139.422 375.384C137.545 375.384 136.051 374.819 134.942 373.688C133.833 372.536 133.278 370.776 133.278 368.408V359.128H135.966V368.12C135.966 371.427 137.321 373.08 140.03 373.08C141.417 373.08 142.558 372.589 143.454 371.608C144.371 370.605 144.83 369.187 144.83 367.352V359.128H147.518V375H145.086L144.894 372.152C144.403 373.155 143.667 373.944 142.686 374.52C141.726 375.096 140.638 375.384 139.422 375.384ZM160.078 375.384C158.564 375.384 157.22 375.043 156.046 374.36C154.873 373.656 153.945 372.685 153.262 371.448C152.601 370.211 152.27 368.749 152.27 367.064C152.27 365.4 152.601 363.949 153.262 362.712C153.924 361.453 154.841 360.483 156.014 359.8C157.209 359.096 158.585 358.744 160.142 358.744C161.678 358.744 163.001 359.096 164.11 359.8C165.241 360.483 166.105 361.389 166.702 362.52C167.3 363.651 167.598 364.867 167.598 366.168C167.598 366.403 167.588 366.637 167.566 366.872C167.566 367.107 167.566 367.373 167.566 367.672H154.926C154.99 368.888 155.268 369.901 155.758 370.712C156.27 371.501 156.9 372.099 157.646 372.504C158.414 372.909 159.225 373.112 160.078 373.112C161.188 373.112 162.116 372.856 162.862 372.344C163.609 371.832 164.153 371.139 164.494 370.264H167.15C166.724 371.736 165.902 372.963 164.686 373.944C163.492 374.904 161.956 375.384 160.078 375.384ZM160.078 361.016C158.798 361.016 157.657 361.411 156.654 362.2C155.673 362.968 155.108 364.099 154.958 365.592H164.942C164.878 364.163 164.388 363.043 163.47 362.232C162.553 361.421 161.422 361.016 160.078 361.016ZM183.262 355.608C182.729 355.608 182.281 355.437 181.918 355.096C181.577 354.733 181.406 354.285 181.406 353.752C181.406 353.24 181.577 352.813 181.918 352.472C182.281 352.131 182.729 351.96 183.262 351.96C183.774 351.96 184.211 352.131 184.574 352.472C184.937 352.813 185.118 353.24 185.118 353.752C185.118 354.285 184.937 354.733 184.574 355.096C184.211 355.437 183.774 355.608 183.262 355.608ZM181.918 375V359.128H184.606V375H181.918ZM190.286 375V359.128H192.718L192.878 361.976C193.39 360.973 194.126 360.184 195.086 359.608C196.046 359.032 197.134 358.744 198.35 358.744C200.227 358.744 201.721 359.32 202.83 360.472C203.961 361.603 204.526 363.352 204.526 365.72V375H201.838V366.008C201.838 362.701 200.473 361.048 197.742 361.048C196.377 361.048 195.235 361.549 194.318 362.552C193.422 363.533 192.974 364.941 192.974 366.776V375H190.286ZM216.799 375.384C215.22 375.384 213.833 375.021 212.639 374.296C211.465 373.571 210.548 372.579 209.887 371.32C209.247 370.061 208.927 368.632 208.927 367.032C208.927 365.432 209.257 364.013 209.919 362.776C210.58 361.517 211.497 360.536 212.671 359.832C213.844 359.107 215.231 358.744 216.831 358.744C218.132 358.744 219.284 359.011 220.287 359.544C221.289 360.077 222.068 360.824 222.623 361.784V351.96H225.311V375H222.879L222.623 372.376C222.111 373.144 221.375 373.837 220.415 374.456C219.455 375.075 218.249 375.384 216.799 375.384ZM217.087 373.048C218.153 373.048 219.092 372.803 219.903 372.312C220.735 371.8 221.375 371.096 221.823 370.2C222.292 369.304 222.527 368.259 222.527 367.064C222.527 365.869 222.292 364.824 221.823 363.928C221.375 363.032 220.735 362.339 219.903 361.848C219.092 361.336 218.153 361.08 217.087 361.08C216.041 361.08 215.103 361.336 214.271 361.848C213.46 362.339 212.82 363.032 212.351 363.928C211.903 364.824 211.679 365.869 211.679 367.064C211.679 368.259 211.903 369.304 212.351 370.2C212.82 371.096 213.46 371.8 214.271 372.312C215.103 372.803 216.041 373.048 217.087 373.048ZM232.324 355.608C231.791 355.608 231.343 355.437 230.98 355.096C230.639 354.733 230.468 354.285 230.468 353.752C230.468 353.24 230.639 352.813 230.98 352.472C231.343 352.131 231.791 351.96 232.324 351.96C232.836 351.96 233.274 352.131 233.636 352.472C233.999 352.813 234.18 353.24 234.18 353.752C234.18 354.285 233.999 354.733 233.636 355.096C233.274 355.437 232.836 355.608 232.324 355.608ZM230.98 375V359.128H233.668V375H230.98ZM246.645 375.384C245.13 375.384 243.765 375.043 242.549 374.36C241.354 373.656 240.405 372.685 239.701 371.448C239.018 370.189 238.677 368.728 238.677 367.064C238.677 365.4 239.018 363.949 239.701 362.712C240.405 361.453 241.354 360.483 242.549 359.8C243.765 359.096 245.13 358.744 246.645 358.744C248.522 358.744 250.101 359.235 251.381 360.216C252.682 361.197 253.503 362.509 253.845 364.152H251.093C250.879 363.171 250.357 362.413 249.525 361.88C248.693 361.325 247.722 361.048 246.613 361.048C245.717 361.048 244.874 361.272 244.085 361.72C243.295 362.168 242.655 362.84 242.165 363.736C241.674 364.632 241.429 365.741 241.429 367.064C241.429 368.387 241.674 369.496 242.165 370.392C242.655 371.288 243.295 371.971 244.085 372.44C244.874 372.888 245.717 373.112 246.613 373.112C247.722 373.112 248.693 372.845 249.525 372.312C250.357 371.757 250.879 370.979 251.093 369.976H253.845C253.525 371.576 252.714 372.877 251.413 373.88C250.111 374.883 248.522 375.384 246.645 375.384ZM263.879 375.384C262.556 375.384 261.457 375.16 260.583 374.712C259.708 374.264 259.057 373.667 258.631 372.92C258.204 372.173 257.991 371.363 257.991 370.488C257.991 368.867 258.609 367.619 259.847 366.744C261.084 365.869 262.769 365.432 264.903 365.432H269.191V365.24C269.191 363.853 268.828 362.808 268.103 362.104C267.377 361.379 266.407 361.016 265.191 361.016C264.145 361.016 263.239 361.283 262.471 361.816C261.724 362.328 261.255 363.085 261.063 364.088H258.311C258.417 362.936 258.801 361.965 259.463 361.176C260.145 360.387 260.988 359.789 261.991 359.384C262.993 358.957 264.06 358.744 265.191 358.744C267.409 358.744 269.073 359.341 270.183 360.536C271.313 361.709 271.879 363.277 271.879 365.24V375H269.479L269.319 372.152C268.871 373.048 268.209 373.816 267.335 374.456C266.481 375.075 265.329 375.384 263.879 375.384ZM264.295 373.112C265.319 373.112 266.193 372.845 266.919 372.312C267.665 371.779 268.231 371.085 268.615 370.232C268.999 369.379 269.191 368.483 269.191 367.544V367.512H265.127C263.548 367.512 262.428 367.789 261.767 368.344C261.127 368.877 260.807 369.549 260.807 370.36C260.807 371.192 261.105 371.864 261.703 372.376C262.321 372.867 263.185 373.112 264.295 373.112ZM276.911 375V359.128H279.343L279.535 361.432C280.047 360.579 280.73 359.917 281.583 359.448C282.436 358.979 283.396 358.744 284.463 358.744C285.722 358.744 286.799 359 287.695 359.512C288.612 360.024 289.316 360.803 289.807 361.848C290.362 360.888 291.119 360.131 292.079 359.576C293.06 359.021 294.116 358.744 295.247 358.744C297.146 358.744 298.66 359.32 299.791 360.472C300.922 361.603 301.487 363.352 301.487 365.72V375H298.831V366.008C298.831 364.365 298.5 363.128 297.839 362.296C297.178 361.464 296.228 361.048 294.991 361.048C293.711 361.048 292.644 361.549 291.791 362.552C290.959 363.533 290.543 364.941 290.543 366.776V375H287.855V366.008C287.855 364.365 287.524 363.128 286.863 362.296C286.202 361.464 285.252 361.048 284.015 361.048C282.756 361.048 281.7 361.549 280.847 362.552C280.015 363.533 279.599 364.941 279.599 366.776V375H276.911ZM316.005 375V359.128H318.437L318.661 362.168C319.152 361.123 319.898 360.291 320.901 359.672C321.904 359.053 323.141 358.744 324.613 358.744V361.56H323.877C322.938 361.56 322.074 361.731 321.285 362.072C320.496 362.392 319.866 362.947 319.397 363.736C318.928 364.525 318.693 365.613 318.693 367V375H316.005ZM335.172 375.384C333.657 375.384 332.313 375.043 331.14 374.36C329.967 373.656 329.039 372.685 328.356 371.448C327.695 370.211 327.364 368.749 327.364 367.064C327.364 365.4 327.695 363.949 328.356 362.712C329.017 361.453 329.935 360.483 331.108 359.8C332.303 359.096 333.679 358.744 335.236 358.744C336.772 358.744 338.095 359.096 339.204 359.8C340.335 360.483 341.199 361.389 341.796 362.52C342.393 363.651 342.692 364.867 342.692 366.168C342.692 366.403 342.681 366.637 342.66 366.872C342.66 367.107 342.66 367.373 342.66 367.672H330.02C330.084 368.888 330.361 369.901 330.852 370.712C331.364 371.501 331.993 372.099 332.74 372.504C333.508 372.909 334.319 373.112 335.172 373.112C336.281 373.112 337.209 372.856 337.956 372.344C338.703 371.832 339.247 371.139 339.588 370.264H342.244C341.817 371.736 340.996 372.963 339.78 373.944C338.585 374.904 337.049 375.384 335.172 375.384ZM335.172 361.016C333.892 361.016 332.751 361.411 331.748 362.2C330.767 362.968 330.201 364.099 330.052 365.592H340.036C339.972 364.163 339.481 363.043 338.564 362.232C337.647 361.421 336.516 361.016 335.172 361.016ZM360.279 382.04V372.376C359.767 373.144 359.031 373.837 358.071 374.456C357.111 375.075 355.906 375.384 354.455 375.384C352.876 375.384 351.49 375.021 350.295 374.296C349.122 373.571 348.204 372.579 347.543 371.32C346.903 370.061 346.583 368.632 346.583 367.032C346.583 365.432 346.914 364.013 347.575 362.776C348.236 361.517 349.154 360.536 350.327 359.832C351.5 359.107 352.887 358.744 354.487 358.744C355.788 358.744 356.94 359.011 357.943 359.544C358.946 360.077 359.724 360.824 360.279 361.784L360.535 359.128H362.967V382.04H360.279ZM354.743 373.048C355.81 373.048 356.748 372.803 357.559 372.312C358.391 371.8 359.031 371.096 359.479 370.2C359.948 369.304 360.183 368.259 360.183 367.064C360.183 365.869 359.948 364.824 359.479 363.928C359.031 363.032 358.391 362.339 357.559 361.848C356.748 361.336 355.81 361.08 354.743 361.08C353.698 361.08 352.759 361.336 351.927 361.848C351.116 362.339 350.476 363.032 350.007 363.928C349.559 364.824 349.335 365.869 349.335 367.064C349.335 368.259 349.559 369.304 350.007 370.2C350.476 371.096 351.116 371.8 351.927 372.312C352.759 372.803 353.698 373.048 354.743 373.048ZM374.141 375.384C372.263 375.384 370.77 374.819 369.661 373.688C368.551 372.536 367.997 370.776 367.997 368.408V359.128H370.685V368.12C370.685 371.427 372.039 373.08 374.749 373.08C376.135 373.08 377.277 372.589 378.173 371.608C379.09 370.605 379.549 369.187 379.549 367.352V359.128H382.237V375H379.805L379.613 372.152C379.122 373.155 378.386 373.944 377.405 374.52C376.445 375.096 375.357 375.384 374.141 375.384ZM389.293 355.608C388.76 355.608 388.312 355.437 387.949 355.096C387.608 354.733 387.437 354.285 387.437 353.752C387.437 353.24 387.608 352.813 387.949 352.472C388.312 352.131 388.76 351.96 389.293 351.96C389.805 351.96 390.242 352.131 390.605 352.472C390.968 352.813 391.149 353.24 391.149 353.752C391.149 354.285 390.968 354.733 390.605 355.096C390.242 355.437 389.805 355.608 389.293 355.608ZM387.949 375V359.128H390.637V375H387.949ZM402.397 375.384C400.499 375.384 398.92 374.904 397.661 373.944C396.403 372.984 395.667 371.683 395.453 370.04H398.205C398.376 370.872 398.813 371.597 399.517 372.216C400.243 372.813 401.213 373.112 402.429 373.112C403.56 373.112 404.392 372.877 404.925 372.408C405.459 371.917 405.725 371.341 405.725 370.68C405.725 369.72 405.373 369.08 404.669 368.76C403.987 368.44 403.016 368.152 401.757 367.896C400.904 367.725 400.051 367.48 399.197 367.16C398.344 366.84 397.629 366.392 397.053 365.816C396.477 365.219 396.189 364.44 396.189 363.48C396.189 362.093 396.701 360.963 397.725 360.088C398.771 359.192 400.179 358.744 401.949 358.744C403.635 358.744 405.011 359.171 406.077 360.024C407.165 360.856 407.795 362.051 407.965 363.608H405.309C405.203 362.797 404.851 362.168 404.253 361.72C403.677 361.251 402.899 361.016 401.917 361.016C400.957 361.016 400.211 361.219 399.677 361.624C399.165 362.029 398.909 362.563 398.909 363.224C398.909 363.864 399.24 364.365 399.901 364.728C400.584 365.091 401.501 365.4 402.653 365.656C403.635 365.869 404.563 366.136 405.437 366.456C406.333 366.755 407.059 367.213 407.613 367.832C408.189 368.429 408.477 369.304 408.477 370.456C408.499 371.885 407.955 373.069 406.845 374.008C405.757 374.925 404.275 375.384 402.397 375.384ZM414.949 355.608C414.416 355.608 413.968 355.437 413.605 355.096C413.264 354.733 413.093 354.285 413.093 353.752C413.093 353.24 413.264 352.813 413.605 352.472C413.968 352.131 414.416 351.96 414.949 351.96C415.461 351.96 415.899 352.131 416.261 352.472C416.624 352.813 416.805 353.24 416.805 353.752C416.805 354.285 416.624 354.733 416.261 355.096C415.899 355.437 415.461 355.608 414.949 355.608ZM413.605 375V359.128H416.293V375H413.605ZM428.246 375C426.795 375 425.654 374.648 424.822 373.944C423.99 373.24 423.574 371.971 423.574 370.136V361.4H420.822V359.128H423.574L423.926 355.32H426.262V359.128H430.934V361.4H426.262V370.136C426.262 371.139 426.464 371.821 426.87 372.184C427.275 372.525 427.99 372.696 429.014 372.696H430.678V375H428.246ZM442.143 375.384C440.65 375.384 439.306 375.043 438.111 374.36C436.916 373.677 435.967 372.717 435.263 371.48C434.58 370.221 434.239 368.749 434.239 367.064C434.239 365.379 434.591 363.917 435.295 362.68C435.999 361.421 436.948 360.451 438.143 359.768C439.359 359.085 440.714 358.744 442.207 358.744C443.7 358.744 445.044 359.085 446.239 359.768C447.434 360.451 448.372 361.421 449.055 362.68C449.759 363.917 450.111 365.379 450.111 367.064C450.111 368.749 449.759 370.221 449.055 371.48C448.351 372.717 447.391 373.677 446.175 374.36C444.98 375.043 443.636 375.384 442.143 375.384ZM442.143 373.08C443.06 373.08 443.914 372.856 444.703 372.408C445.492 371.96 446.132 371.288 446.623 370.392C447.114 369.496 447.359 368.387 447.359 367.064C447.359 365.741 447.114 364.632 446.623 363.736C446.154 362.84 445.524 362.168 444.735 361.72C443.946 361.272 443.103 361.048 442.207 361.048C441.29 361.048 440.436 361.272 439.647 361.72C438.858 362.168 438.218 362.84 437.727 363.736C437.236 364.632 436.991 365.741 436.991 367.064C436.991 368.387 437.236 369.496 437.727 370.392C438.218 371.288 438.847 371.96 439.615 372.408C440.404 372.856 441.247 373.08 442.143 373.08ZM460.929 375.384C459.03 375.384 457.451 374.904 456.193 373.944C454.934 372.984 454.198 371.683 453.985 370.04H456.737C456.907 370.872 457.345 371.597 458.049 372.216C458.774 372.813 459.745 373.112 460.961 373.112C462.091 373.112 462.923 372.877 463.457 372.408C463.99 371.917 464.257 371.341 464.257 370.68C464.257 369.72 463.905 369.08 463.201 368.76C462.518 368.44 461.547 368.152 460.289 367.896C459.435 367.725 458.582 367.48 457.729 367.16C456.875 366.84 456.161 366.392 455.585 365.816C455.009 365.219 454.721 364.44 454.721 363.48C454.721 362.093 455.233 360.963 456.257 360.088C457.302 359.192 458.71 358.744 460.481 358.744C462.166 358.744 463.542 359.171 464.609 360.024C465.697 360.856 466.326 362.051 466.497 363.608H463.841C463.734 362.797 463.382 362.168 462.785 361.72C462.209 361.251 461.43 361.016 460.449 361.016C459.489 361.016 458.742 361.219 458.209 361.624C457.697 362.029 457.441 362.563 457.441 363.224C457.441 363.864 457.771 364.365 458.433 364.728C459.115 365.091 460.033 365.4 461.185 365.656C462.166 365.869 463.094 366.136 463.969 366.456C464.865 366.755 465.59 367.213 466.145 367.832C466.721 368.429 467.009 369.304 467.009 370.456C467.03 371.885 466.486 373.069 465.377 374.008C464.289 374.925 462.806 375.384 460.929 375.384ZM120.391 423.384C118.876 423.384 117.532 423.043 116.359 422.36C115.186 421.656 114.258 420.685 113.575 419.448C112.914 418.211 112.583 416.749 112.583 415.064C112.583 413.4 112.914 411.949 113.575 410.712C114.236 409.453 115.154 408.483 116.327 407.8C117.522 407.096 118.898 406.744 120.455 406.744C121.991 406.744 123.314 407.096 124.423 407.8C125.554 408.483 126.418 409.389 127.015 410.52C127.612 411.651 127.911 412.867 127.911 414.168C127.911 414.403 127.9 414.637 127.879 414.872C127.879 415.107 127.879 415.373 127.879 415.672H115.239C115.303 416.888 115.58 417.901 116.071 418.712C116.583 419.501 117.212 420.099 117.959 420.504C118.727 420.909 119.538 421.112 120.391 421.112C121.5 421.112 122.428 420.856 123.175 420.344C123.922 419.832 124.466 419.139 124.807 418.264H127.463C127.036 419.736 126.215 420.963 124.999 421.944C123.804 422.904 122.268 423.384 120.391 423.384ZM120.391 409.016C119.111 409.016 117.97 409.411 116.967 410.2C115.986 410.968 115.42 412.099 115.271 413.592H125.255C125.191 412.163 124.7 411.043 123.783 410.232C122.866 409.421 121.735 409.016 120.391 409.016ZM138.554 423.384C136.655 423.384 135.076 422.904 133.818 421.944C132.559 420.984 131.823 419.683 131.61 418.04H134.362C134.532 418.872 134.97 419.597 135.674 420.216C136.399 420.813 137.37 421.112 138.586 421.112C139.716 421.112 140.548 420.877 141.082 420.408C141.615 419.917 141.882 419.341 141.882 418.68C141.882 417.72 141.53 417.08 140.826 416.76C140.143 416.44 139.172 416.152 137.914 415.896C137.06 415.725 136.207 415.48 135.354 415.16C134.5 414.84 133.786 414.392 133.21 413.816C132.634 413.219 132.346 412.44 132.346 411.48C132.346 410.093 132.858 408.963 133.882 408.088C134.927 407.192 136.335 406.744 138.106 406.744C139.791 406.744 141.167 407.171 142.234 408.024C143.322 408.856 143.951 410.051 144.122 411.608H141.466C141.359 410.797 141.007 410.168 140.41 409.72C139.834 409.251 139.055 409.016 138.074 409.016C137.114 409.016 136.367 409.219 135.834 409.624C135.322 410.029 135.066 410.563 135.066 411.224C135.066 411.864 135.396 412.365 136.058 412.728C136.74 413.091 137.658 413.4 138.81 413.656C139.791 413.869 140.719 414.136 141.594 414.456C142.49 414.755 143.215 415.213 143.77 415.832C144.346 416.429 144.634 417.304 144.634 418.456C144.655 419.885 144.111 421.069 143.002 422.008C141.914 422.925 140.431 423.384 138.554 423.384ZM149.474 430.04V407.128H151.906L152.162 409.752C152.674 408.984 153.399 408.291 154.338 407.672C155.298 407.053 156.514 406.744 157.986 406.744C159.564 406.744 160.94 407.107 162.114 407.832C163.287 408.557 164.194 409.549 164.834 410.808C165.495 412.067 165.826 413.496 165.826 415.096C165.826 416.696 165.495 418.125 164.834 419.384C164.194 420.621 163.276 421.603 162.082 422.328C160.908 423.032 159.532 423.384 157.954 423.384C156.652 423.384 155.49 423.117 154.466 422.584C153.463 422.051 152.695 421.304 152.162 420.344V430.04H149.474ZM157.666 421.048C158.732 421.048 159.671 420.803 160.482 420.312C161.292 419.8 161.932 419.096 162.402 418.2C162.871 417.304 163.106 416.259 163.106 415.064C163.106 413.869 162.871 412.824 162.402 411.928C161.932 411.032 161.292 410.339 160.482 409.848C159.671 409.336 158.732 409.08 157.666 409.08C156.599 409.08 155.66 409.336 154.85 409.848C154.039 410.339 153.399 411.032 152.93 411.928C152.46 412.824 152.226 413.869 152.226 415.064C152.226 416.259 152.46 417.304 152.93 418.2C153.399 419.096 154.039 419.8 154.85 420.312C155.66 420.803 156.599 421.048 157.666 421.048ZM177.703 423.384C176.189 423.384 174.845 423.043 173.671 422.36C172.498 421.656 171.57 420.685 170.887 419.448C170.226 418.211 169.895 416.749 169.895 415.064C169.895 413.4 170.226 411.949 170.887 410.712C171.549 409.453 172.466 408.483 173.639 407.8C174.834 407.096 176.21 406.744 177.767 406.744C179.303 406.744 180.626 407.096 181.735 407.8C182.866 408.483 183.73 409.389 184.327 410.52C184.925 411.651 185.223 412.867 185.223 414.168C185.223 414.403 185.213 414.637 185.191 414.872C185.191 415.107 185.191 415.373 185.191 415.672H172.551C172.615 416.888 172.893 417.901 173.383 418.712C173.895 419.501 174.525 420.099 175.271 420.504C176.039 420.909 176.85 421.112 177.703 421.112C178.813 421.112 179.741 420.856 180.487 420.344C181.234 419.832 181.778 419.139 182.119 418.264H184.775C184.349 419.736 183.527 420.963 182.311 421.944C181.117 422.904 179.581 423.384 177.703 423.384ZM177.703 409.016C176.423 409.016 175.282 409.411 174.279 410.2C173.298 410.968 172.733 412.099 172.583 413.592H182.567C182.503 412.163 182.013 411.043 181.095 410.232C180.178 409.421 179.047 409.016 177.703 409.016ZM197.082 423.384C195.567 423.384 194.202 423.043 192.986 422.36C191.791 421.656 190.842 420.685 190.138 419.448C189.455 418.189 189.114 416.728 189.114 415.064C189.114 413.4 189.455 411.949 190.138 410.712C190.842 409.453 191.791 408.483 192.986 407.8C194.202 407.096 195.567 406.744 197.082 406.744C198.959 406.744 200.538 407.235 201.818 408.216C203.119 409.197 203.941 410.509 204.282 412.152H201.53C201.317 411.171 200.794 410.413 199.962 409.88C199.13 409.325 198.159 409.048 197.05 409.048C196.154 409.048 195.311 409.272 194.522 409.72C193.733 410.168 193.093 410.84 192.602 411.736C192.111 412.632 191.866 413.741 191.866 415.064C191.866 416.387 192.111 417.496 192.602 418.392C193.093 419.288 193.733 419.971 194.522 420.44C195.311 420.888 196.154 421.112 197.05 421.112C198.159 421.112 199.13 420.845 199.962 420.312C200.794 419.757 201.317 418.979 201.53 417.976H204.282C203.962 419.576 203.151 420.877 201.85 421.88C200.549 422.883 198.959 423.384 197.082 423.384ZM210.668 403.608C210.135 403.608 209.687 403.437 209.324 403.096C208.983 402.733 208.812 402.285 208.812 401.752C208.812 401.24 208.983 400.813 209.324 400.472C209.687 400.131 210.135 399.96 210.668 399.96C211.18 399.96 211.617 400.131 211.98 400.472C212.343 400.813 212.524 401.24 212.524 401.752C212.524 402.285 212.343 402.733 211.98 403.096C211.617 403.437 211.18 403.608 210.668 403.608ZM209.324 423V407.128H212.012V423H209.324ZM222.972 423.384C221.65 423.384 220.551 423.16 219.676 422.712C218.802 422.264 218.151 421.667 217.724 420.92C217.298 420.173 217.084 419.363 217.084 418.488C217.084 416.867 217.703 415.619 218.94 414.744C220.178 413.869 221.863 413.432 223.996 413.432H228.284V413.24C228.284 411.853 227.922 410.808 227.196 410.104C226.471 409.379 225.5 409.016 224.284 409.016C223.239 409.016 222.332 409.283 221.564 409.816C220.818 410.328 220.348 411.085 220.156 412.088H217.404C217.511 410.936 217.895 409.965 218.556 409.176C219.239 408.387 220.082 407.789 221.084 407.384C222.087 406.957 223.154 406.744 224.284 406.744C226.503 406.744 228.167 407.341 229.276 408.536C230.407 409.709 230.972 411.277 230.972 413.24V423H228.572L228.412 420.152C227.964 421.048 227.303 421.816 226.428 422.456C225.575 423.075 224.423 423.384 222.972 423.384ZM223.388 421.112C224.412 421.112 225.287 420.845 226.012 420.312C226.759 419.779 227.324 419.085 227.708 418.232C228.092 417.379 228.284 416.483 228.284 415.544V415.512H224.22C222.642 415.512 221.522 415.789 220.86 416.344C220.22 416.877 219.9 417.549 219.9 418.36C219.9 419.192 220.199 419.864 220.796 420.376C221.415 420.867 222.279 421.112 223.388 421.112ZM237.637 403.608C237.104 403.608 236.656 403.437 236.293 403.096C235.952 402.733 235.781 402.285 235.781 401.752C235.781 401.24 235.952 400.813 236.293 400.472C236.656 400.131 237.104 399.96 237.637 399.96C238.149 399.96 238.586 400.131 238.949 400.472C239.312 400.813 239.493 401.24 239.493 401.752C239.493 402.285 239.312 402.733 238.949 403.096C238.586 403.437 238.149 403.608 237.637 403.608ZM236.293 423V407.128H238.981V423H236.293ZM250.741 423.384C248.842 423.384 247.264 422.904 246.005 421.944C244.746 420.984 244.01 419.683 243.797 418.04H246.549C246.72 418.872 247.157 419.597 247.861 420.216C248.586 420.813 249.557 421.112 250.773 421.112C251.904 421.112 252.736 420.877 253.269 420.408C253.802 419.917 254.069 419.341 254.069 418.68C254.069 417.72 253.717 417.08 253.013 416.76C252.33 416.44 251.36 416.152 250.101 415.896C249.248 415.725 248.394 415.48 247.541 415.16C246.688 414.84 245.973 414.392 245.397 413.816C244.821 413.219 244.533 412.44 244.533 411.48C244.533 410.093 245.045 408.963 246.069 408.088C247.114 407.192 248.522 406.744 250.293 406.744C251.978 406.744 253.354 407.171 254.421 408.024C255.509 408.856 256.138 410.051 256.309 411.608H253.653C253.546 410.797 253.194 410.168 252.597 409.72C252.021 409.251 251.242 409.016 250.261 409.016C249.301 409.016 248.554 409.219 248.021 409.624C247.509 410.029 247.253 410.563 247.253 411.224C247.253 411.864 247.584 412.365 248.245 412.728C248.928 413.091 249.845 413.4 250.997 413.656C251.978 413.869 252.906 414.136 253.781 414.456C254.677 414.755 255.402 415.213 255.957 415.832C256.533 416.429 256.821 417.304 256.821 418.456C256.842 419.885 256.298 421.069 255.189 422.008C254.101 422.925 252.618 423.384 250.741 423.384ZM278.33 423.384C276.751 423.384 275.365 423.021 274.17 422.296C272.997 421.571 272.079 420.579 271.418 419.32C270.778 418.061 270.458 416.632 270.458 415.032C270.458 413.432 270.789 412.013 271.45 410.776C272.111 409.517 273.029 408.536 274.202 407.832C275.375 407.107 276.762 406.744 278.362 406.744C279.663 406.744 280.815 407.011 281.818 407.544C282.821 408.077 283.599 408.824 284.154 409.784V399.96H286.842V423H284.41L284.154 420.376C283.642 421.144 282.906 421.837 281.946 422.456C280.986 423.075 279.781 423.384 278.33 423.384ZM278.618 421.048C279.685 421.048 280.623 420.803 281.434 420.312C282.266 419.8 282.906 419.096 283.354 418.2C283.823 417.304 284.058 416.259 284.058 415.064C284.058 413.869 283.823 412.824 283.354 411.928C282.906 411.032 282.266 410.339 281.434 409.848C280.623 409.336 279.685 409.08 278.618 409.08C277.573 409.08 276.634 409.336 275.802 409.848C274.991 410.339 274.351 411.032 273.882 411.928C273.434 412.824 273.21 413.869 273.21 415.064C273.21 416.259 273.434 417.304 273.882 418.2C274.351 419.096 274.991 419.8 275.802 420.312C276.634 420.803 277.573 421.048 278.618 421.048ZM297.504 423.384C296.181 423.384 295.082 423.16 294.208 422.712C293.333 422.264 292.682 421.667 292.256 420.92C291.829 420.173 291.616 419.363 291.616 418.488C291.616 416.867 292.234 415.619 293.472 414.744C294.709 413.869 296.394 413.432 298.528 413.432H302.816V413.24C302.816 411.853 302.453 410.808 301.728 410.104C301.002 409.379 300.032 409.016 298.816 409.016C297.77 409.016 296.864 409.283 296.096 409.816C295.349 410.328 294.88 411.085 294.688 412.088H291.936C292.042 410.936 292.426 409.965 293.088 409.176C293.77 408.387 294.613 407.789 295.616 407.384C296.618 406.957 297.685 406.744 298.816 406.744C301.034 406.744 302.698 407.341 303.808 408.536C304.938 409.709 305.504 411.277 305.504 413.24V423H303.104L302.944 420.152C302.496 421.048 301.834 421.816 300.96 422.456C300.106 423.075 298.954 423.384 297.504 423.384ZM297.92 421.112C298.944 421.112 299.818 420.845 300.544 420.312C301.29 419.779 301.856 419.085 302.24 418.232C302.624 417.379 302.816 416.483 302.816 415.544V415.512H298.752C297.173 415.512 296.053 415.789 295.392 416.344C294.752 416.877 294.432 417.549 294.432 418.36C294.432 419.192 294.73 419.864 295.328 420.376C295.946 420.867 296.81 421.112 297.92 421.112ZM324.581 423L318.565 407.128H321.381L326.149 420.408L330.949 407.128H333.701L327.685 423H324.581ZM342.16 423.384C340.837 423.384 339.739 423.16 338.864 422.712C337.989 422.264 337.339 421.667 336.912 420.92C336.485 420.173 336.272 419.363 336.272 418.488C336.272 416.867 336.891 415.619 338.128 414.744C339.365 413.869 341.051 413.432 343.184 413.432H347.472V413.24C347.472 411.853 347.109 410.808 346.384 410.104C345.659 409.379 344.688 409.016 343.472 409.016C342.427 409.016 341.52 409.283 340.752 409.816C340.005 410.328 339.536 411.085 339.344 412.088H336.592C336.699 410.936 337.083 409.965 337.744 409.176C338.427 408.387 339.269 407.789 340.272 407.384C341.275 406.957 342.341 406.744 343.472 406.744C345.691 406.744 347.355 407.341 348.464 408.536C349.595 409.709 350.16 411.277 350.16 413.24V423H347.76L347.6 420.152C347.152 421.048 346.491 421.816 345.616 422.456C344.763 423.075 343.611 423.384 342.16 423.384ZM342.576 421.112C343.6 421.112 344.475 420.845 345.2 420.312C345.947 419.779 346.512 419.085 346.896 418.232C347.28 417.379 347.472 416.483 347.472 415.544V415.512H343.408C341.829 415.512 340.709 415.789 340.048 416.344C339.408 416.877 339.088 417.549 339.088 418.36C339.088 419.192 339.387 419.864 339.984 420.376C340.603 420.867 341.467 421.112 342.576 421.112ZM361.464 418.008C360.568 418.008 359.747 417.891 359 417.656L357.4 419.16C357.635 419.331 357.923 419.48 358.264 419.608C358.627 419.715 359.139 419.821 359.8 419.928C360.462 420.013 361.39 420.109 362.584 420.216C364.718 420.365 366.243 420.856 367.16 421.688C368.078 422.52 368.536 423.608 368.536 424.952C368.536 425.869 368.28 426.744 367.768 427.576C367.278 428.408 366.51 429.091 365.464 429.624C364.44 430.157 363.118 430.424 361.496 430.424C360.067 430.424 358.798 430.232 357.688 429.848C356.579 429.485 355.715 428.92 355.096 428.152C354.478 427.405 354.168 426.456 354.168 425.304C354.168 424.707 354.328 424.056 354.648 423.352C354.968 422.669 355.566 422.019 356.44 421.4C355.971 421.208 355.566 421.005 355.224 420.792C354.904 420.557 354.606 420.301 354.328 420.024V419.288L357.048 416.6C355.79 415.533 355.16 414.125 355.16 412.376C355.16 411.331 355.406 410.381 355.896 409.528C356.387 408.675 357.102 408.003 358.04 407.512C358.979 407 360.12 406.744 361.464 406.744C362.382 406.744 363.214 406.872 363.96 407.128H369.816V409.144L366.84 409.272C367.459 410.168 367.768 411.203 367.768 412.376C367.768 413.421 367.512 414.371 367 415.224C366.51 416.077 365.795 416.76 364.856 417.272C363.939 417.763 362.808 418.008 361.464 418.008ZM361.464 415.8C362.595 415.8 363.491 415.512 364.152 414.936C364.835 414.339 365.176 413.485 365.176 412.376C365.176 411.288 364.835 410.456 364.152 409.88C363.491 409.283 362.595 408.984 361.464 408.984C360.312 408.984 359.395 409.283 358.712 409.88C358.051 410.456 357.72 411.288 357.72 412.376C357.72 413.485 358.051 414.339 358.712 414.936C359.395 415.512 360.312 415.8 361.464 415.8ZM356.792 425.048C356.792 426.115 357.24 426.904 358.136 427.416C359.032 427.949 360.152 428.216 361.496 428.216C362.819 428.216 363.875 427.928 364.664 427.352C365.475 426.776 365.88 426.008 365.88 425.048C365.88 424.365 365.603 423.768 365.048 423.256C364.494 422.765 363.47 422.477 361.976 422.392C360.803 422.307 359.79 422.2 358.936 422.072C358.062 422.541 357.486 423.043 357.208 423.576C356.931 424.131 356.792 424.621 356.792 425.048ZM379.129 423.384C377.806 423.384 376.707 423.16 375.833 422.712C374.958 422.264 374.307 421.667 373.881 420.92C373.454 420.173 373.241 419.363 373.241 418.488C373.241 416.867 373.859 415.619 375.097 414.744C376.334 413.869 378.019 413.432 380.153 413.432H384.441V413.24C384.441 411.853 384.078 410.808 383.353 410.104C382.627 409.379 381.657 409.016 380.441 409.016C379.395 409.016 378.489 409.283 377.721 409.816C376.974 410.328 376.505 411.085 376.313 412.088H373.561C373.667 410.936 374.051 409.965 374.713 409.176C375.395 408.387 376.238 407.789 377.241 407.384C378.243 406.957 379.31 406.744 380.441 406.744C382.659 406.744 384.323 407.341 385.433 408.536C386.563 409.709 387.129 411.277 387.129 413.24V423H384.729L384.569 420.152C384.121 421.048 383.459 421.816 382.585 422.456C381.731 423.075 380.579 423.384 379.129 423.384ZM379.545 421.112C380.569 421.112 381.443 420.845 382.169 420.312C382.915 419.779 383.481 419.085 383.865 418.232C384.249 417.379 384.441 416.483 384.441 415.544V415.512H380.377C378.798 415.512 377.678 415.789 377.017 416.344C376.377 416.877 376.057 417.549 376.057 418.36C376.057 419.192 376.355 419.864 376.953 420.376C377.571 420.867 378.435 421.112 379.545 421.112Z" fill="#333333"/>
<defs>
<clipPath id="clip0_3881_4292">
<rect width="20" height="20" fill="white" transform="translate(285 122)"/>
</clipPath>
</defs>
</svg>
