<svg width="500" height="500" viewBox="0 0 500 500" fill="none" xmlns="http://www.w3.org/2000/svg">
<rect x="0.5" y="0.5" width="499" height="499" rx="23.5" stroke="#E0E0E0"/>
<path d="M58.3872 121.298C57.1104 121.298 55.9994 121.066 55.0543 120.602C54.1091 120.138 53.3795 119.491 52.8655 118.662C52.3514 117.833 52.0944 116.871 52.0944 115.777H54.2832C54.2832 116.457 54.4407 117.087 54.7558 117.667C55.0708 118.231 55.5268 118.687 56.1238 119.035C56.7373 119.367 57.4918 119.533 58.3872 119.533C59.5645 119.533 60.4765 119.251 61.1232 118.687C61.7699 118.123 62.0932 117.418 62.0932 116.573C62.0932 115.876 61.944 115.321 61.6455 114.906C61.3471 114.475 60.9408 114.127 60.4268 113.862C59.9293 113.596 59.3489 113.364 58.6857 113.165C58.039 112.966 57.3591 112.742 56.6461 112.494C55.303 112.029 54.3081 111.457 53.6614 110.777C53.0147 110.081 52.6913 109.177 52.6913 108.066C52.6748 107.138 52.8903 106.317 53.338 105.604C53.7857 104.874 54.4159 104.31 55.2284 103.912C56.0575 103.498 57.0358 103.291 58.1633 103.291C59.2743 103.291 60.2361 103.498 61.0486 103.912C61.8777 104.327 62.5161 104.899 62.9638 105.629C63.4281 106.358 63.6685 107.187 63.6851 108.116H61.4963C61.4963 107.635 61.3719 107.162 61.1232 106.698C60.8745 106.217 60.4931 105.828 59.9791 105.529C59.4816 105.231 58.8515 105.081 58.0887 105.081C57.1436 105.065 56.3642 105.305 55.7507 105.803C55.1537 106.3 54.8553 106.988 54.8553 107.867C54.8553 108.613 55.0625 109.185 55.4771 109.583C55.9082 109.981 56.5052 110.313 57.2679 110.578C58.0307 110.827 58.9095 111.117 59.9044 111.449C60.7335 111.747 61.4797 112.096 62.143 112.494C62.8063 112.891 63.3203 113.406 63.6851 114.036C64.0665 114.666 64.2572 115.47 64.2572 116.448C64.2572 117.277 64.0416 118.065 63.6105 118.811C63.1793 119.541 62.5244 120.138 61.6455 120.602C60.7833 121.066 59.6972 121.298 58.3872 121.298ZM72.3657 121.298C71.3376 121.298 70.4836 121.124 69.8038 120.776C69.1239 120.428 68.6182 119.964 68.2865 119.383C67.9549 118.803 67.7891 118.173 67.7891 117.493C67.7891 116.233 68.27 115.263 69.2317 114.583C70.1935 113.903 71.5034 113.563 73.1616 113.563H76.4945V113.414C76.4945 112.336 76.2127 111.523 75.6489 110.976C75.0851 110.413 74.3306 110.131 73.3855 110.131C72.5729 110.131 71.8682 110.338 71.2713 110.752C70.6909 111.15 70.3261 111.739 70.1769 112.518H68.0378C68.1207 111.623 68.4192 110.869 68.9332 110.255C69.4639 109.641 70.1188 109.177 70.8982 108.862C71.6775 108.53 72.5066 108.365 73.3855 108.365C75.11 108.365 76.4033 108.829 77.2656 109.758C78.1444 110.67 78.5839 111.888 78.5839 113.414V121H76.7184L76.594 118.786C76.2458 119.483 75.7318 120.08 75.0519 120.577C74.3887 121.058 73.4932 121.298 72.3657 121.298ZM72.689 119.533C73.4849 119.533 74.1648 119.325 74.7286 118.911C75.3089 118.496 75.7484 117.957 76.0468 117.294C76.3453 116.631 76.4945 115.934 76.4945 115.205V115.18H73.3357C72.1087 115.18 71.2381 115.395 70.7241 115.826C70.2266 116.241 69.9779 116.763 69.9779 117.393C69.9779 118.04 70.21 118.562 70.6743 118.96C71.1552 119.342 71.8268 119.533 72.689 119.533ZM82.8841 121V103.092H84.9734V121H82.8841ZM93.6678 121.298C92.6397 121.298 91.7858 121.124 91.1059 120.776C90.4261 120.428 89.9203 119.964 89.5887 119.383C89.257 118.803 89.0912 118.173 89.0912 117.493C89.0912 116.233 89.5721 115.263 90.5338 114.583C91.4956 113.903 92.8056 113.563 94.4637 113.563H97.7967V113.414C97.7967 112.336 97.5148 111.523 96.951 110.976C96.3872 110.413 95.6328 110.131 94.6876 110.131C93.8751 110.131 93.1704 110.338 92.5734 110.752C91.993 111.15 91.6282 111.739 91.479 112.518H89.34C89.4229 111.623 89.7213 110.869 90.2354 110.255C90.766 109.641 91.421 109.177 92.2003 108.862C92.9797 108.53 93.8088 108.365 94.6876 108.365C96.4121 108.365 97.7055 108.829 98.5677 109.758C99.4466 110.67 99.886 111.888 99.886 113.414V121H98.0205L97.8962 118.786C97.548 119.483 97.0339 120.08 96.3541 120.577C95.6908 121.058 94.7954 121.298 93.6678 121.298ZM93.9912 119.533C94.7871 119.533 95.4669 119.325 96.0307 118.911C96.6111 118.496 97.0505 117.957 97.349 117.294C97.6474 116.631 97.7967 115.934 97.7967 115.205V115.18H94.6378C93.4108 115.18 92.5402 115.395 92.0262 115.826C91.5288 116.241 91.28 116.763 91.28 117.393C91.28 118.04 91.5122 118.562 91.9765 118.96C92.4573 119.342 93.1289 119.533 93.9912 119.533ZM94.0409 107.643V106.076L99.2642 102.918V104.733L94.0409 107.643ZM104.186 121V108.663H106.077L106.251 111.026C106.632 110.214 107.212 109.567 107.992 109.086C108.771 108.605 109.733 108.365 110.877 108.365V110.553H110.305C109.575 110.553 108.904 110.686 108.29 110.951C107.677 111.2 107.188 111.631 106.823 112.245C106.458 112.858 106.276 113.704 106.276 114.782V121H104.186ZM115.656 105.927C115.242 105.927 114.894 105.794 114.612 105.529C114.346 105.247 114.214 104.899 114.214 104.485C114.214 104.087 114.346 103.755 114.612 103.49C114.894 103.224 115.242 103.092 115.656 103.092C116.054 103.092 116.394 103.224 116.676 103.49C116.958 103.755 117.099 104.087 117.099 104.485C117.099 104.899 116.958 105.247 116.676 105.529C116.394 105.794 116.054 105.927 115.656 105.927ZM114.612 121V108.663H116.701V121H114.612ZM127.126 121.298C125.965 121.298 124.921 121.033 123.992 120.503C123.064 119.972 122.326 119.226 121.778 118.264C121.248 117.286 120.983 116.142 120.983 114.832C120.983 113.522 121.256 112.386 121.803 111.424C122.351 110.446 123.088 109.691 124.017 109.161C124.962 108.63 126.015 108.365 127.176 108.365C128.337 108.365 129.381 108.63 130.31 109.161C131.238 109.691 131.968 110.446 132.499 111.424C133.046 112.386 133.319 113.522 133.319 114.832C133.319 116.142 133.046 117.286 132.499 118.264C131.951 119.226 131.205 119.972 130.26 120.503C129.331 121.033 128.287 121.298 127.126 121.298ZM127.126 119.508C127.839 119.508 128.502 119.334 129.116 118.985C129.729 118.637 130.227 118.115 130.608 117.418C130.99 116.722 131.18 115.86 131.18 114.832C131.18 113.803 130.99 112.941 130.608 112.245C130.243 111.548 129.754 111.026 129.141 110.678C128.527 110.33 127.872 110.155 127.176 110.155C126.463 110.155 125.8 110.33 125.186 110.678C124.572 111.026 124.075 111.548 123.694 112.245C123.312 112.941 123.122 113.803 123.122 114.832C123.122 115.86 123.312 116.722 123.694 117.418C124.075 118.115 124.564 118.637 125.161 118.985C125.775 119.334 126.43 119.508 127.126 119.508ZM145.139 121V108.663H147.029L147.178 110.454C147.576 109.791 148.107 109.277 148.77 108.912C149.434 108.547 150.18 108.365 151.009 108.365C151.987 108.365 152.824 108.564 153.521 108.962C154.234 109.36 154.781 109.965 155.163 110.777C155.594 110.031 156.182 109.442 156.928 109.011C157.691 108.58 158.512 108.365 159.391 108.365C160.867 108.365 162.044 108.812 162.923 109.708C163.802 110.587 164.241 111.946 164.241 113.787V121H162.177V114.011C162.177 112.734 161.92 111.772 161.406 111.126C160.892 110.479 160.154 110.155 159.192 110.155C158.197 110.155 157.368 110.545 156.705 111.325C156.058 112.087 155.735 113.182 155.735 114.608V121H153.645V114.011C153.645 112.734 153.388 111.772 152.874 111.126C152.36 110.479 151.622 110.155 150.661 110.155C149.682 110.155 148.861 110.545 148.198 111.325C147.551 112.087 147.228 113.182 147.228 114.608V121H145.139ZM168.554 121V108.663H170.643V121H168.554ZM169.027 107.643V106.076L174.25 102.918V104.733L169.027 107.643ZM175.234 121V108.663H177.124L177.249 110.877C177.646 110.097 178.219 109.484 178.965 109.036C179.711 108.589 180.557 108.365 181.502 108.365C182.961 108.365 184.122 108.812 184.984 109.708C185.863 110.587 186.302 111.946 186.302 113.787V121H184.213V114.011C184.213 111.441 183.152 110.155 181.029 110.155C179.968 110.155 179.081 110.545 178.368 111.325C177.671 112.087 177.323 113.182 177.323 114.608V121H175.234ZM191.902 105.927C191.488 105.927 191.139 105.794 190.857 105.529C190.592 105.247 190.459 104.899 190.459 104.485C190.459 104.087 190.592 103.755 190.857 103.49C191.139 103.224 191.488 103.092 191.902 103.092C192.3 103.092 192.64 103.224 192.922 103.49C193.204 103.755 193.345 104.087 193.345 104.485C193.345 104.899 193.204 105.247 192.922 105.529C192.64 105.794 192.3 105.927 191.902 105.927ZM190.857 121V108.663H192.947V121H190.857ZM197.75 121V108.663H199.641L199.79 110.454C200.188 109.791 200.719 109.277 201.382 108.912C202.045 108.547 202.791 108.365 203.62 108.365C204.599 108.365 205.436 108.564 206.133 108.962C206.846 109.36 207.393 109.965 207.774 110.777C208.205 110.031 208.794 109.442 209.54 109.011C210.303 108.58 211.124 108.365 212.003 108.365C213.478 108.365 214.656 108.812 215.534 109.708C216.413 110.587 216.853 111.946 216.853 113.787V121H214.788V114.011C214.788 112.734 214.531 111.772 214.017 111.126C213.503 110.479 212.765 110.155 211.804 110.155C210.809 110.155 209.98 110.545 209.316 111.325C208.67 112.087 208.346 113.182 208.346 114.608V121H206.257V114.011C206.257 112.734 206 111.772 205.486 111.126C204.972 110.479 204.234 110.155 203.272 110.155C202.294 110.155 201.473 110.545 200.81 111.325C200.163 112.087 199.84 113.182 199.84 114.608V121H197.75ZM226.787 121.298C225.626 121.298 224.582 121.033 223.653 120.503C222.724 119.972 221.987 119.226 221.439 118.264C220.909 117.286 220.643 116.142 220.643 114.832C220.643 113.522 220.917 112.386 221.464 111.424C222.011 110.446 222.749 109.691 223.678 109.161C224.623 108.63 225.676 108.365 226.837 108.365C227.998 108.365 229.042 108.63 229.971 109.161C230.899 109.691 231.629 110.446 232.16 111.424C232.707 112.386 232.98 113.522 232.98 114.832C232.98 116.142 232.707 117.286 232.16 118.264C231.612 119.226 230.866 119.972 229.921 120.503C228.992 121.033 227.948 121.298 226.787 121.298ZM226.787 119.508C227.5 119.508 228.163 119.334 228.777 118.985C229.39 118.637 229.888 118.115 230.269 117.418C230.651 116.722 230.841 115.86 230.841 114.832C230.841 113.803 230.651 112.941 230.269 112.245C229.904 111.548 229.415 111.026 228.802 110.678C228.188 110.33 227.533 110.155 226.837 110.155C226.124 110.155 225.46 110.33 224.847 110.678C224.233 111.026 223.736 111.548 223.355 112.245C222.973 112.941 222.783 113.803 222.783 114.832C222.783 115.86 222.973 116.722 223.355 117.418C223.736 118.115 224.225 118.637 224.822 118.985C225.436 119.334 226.091 119.508 226.787 119.508Z" fill="#616161"/>
<path d="M62.6404 185.975C60.8496 185.975 59.2951 185.652 57.9768 185.005C56.6585 184.358 55.6015 183.475 54.8055 182.356C54.0345 181.212 53.5619 179.919 53.3878 178.476H56.4471C56.7456 179.919 57.442 181.088 58.5364 181.983C59.6308 182.854 61.0113 183.289 62.6777 183.289C63.9214 183.289 64.9909 183.003 65.8863 182.431C66.7817 181.834 67.4657 181.038 67.9383 180.043C68.4358 179.048 68.6845 177.941 68.6845 176.722C68.6845 174.782 68.1373 173.215 67.0429 172.021C65.9485 170.828 64.5308 170.231 62.7897 170.231C61.3471 170.231 60.1159 170.554 59.0961 171.201C58.0763 171.847 57.3301 172.693 56.8575 173.738H53.8728L56.1113 159.411H69.8038V162.135H58.5364L57.0068 170.081C57.6037 169.36 58.4245 168.763 59.4692 168.291C60.5387 167.818 61.7575 167.582 63.1255 167.582C64.8417 167.582 66.334 167.98 67.6025 168.776C68.8959 169.571 69.9033 170.653 70.6246 172.021C71.3459 173.389 71.7065 174.944 71.7065 176.685C71.7065 178.352 71.3459 179.894 70.6246 181.311C69.9281 182.729 68.8959 183.861 67.5279 184.707C66.1848 185.552 64.5556 185.975 62.6404 185.975ZM78.6667 185.714C78.0449 185.714 77.5226 185.515 77.0998 185.117C76.7018 184.694 76.5028 184.184 76.5028 183.587C76.5028 182.99 76.7018 182.493 77.0998 182.095C77.5226 181.672 78.0449 181.461 78.6667 181.461C79.2637 181.461 79.7611 181.672 80.1591 182.095C80.5819 182.493 80.7934 182.99 80.7934 183.587C80.7934 184.184 80.5819 184.694 80.1591 185.117C79.7611 185.515 79.2637 185.714 78.6667 185.714ZM94.9157 185.975C92.6026 185.975 90.6003 185.415 88.909 184.296C87.2425 183.152 85.9615 181.573 85.0661 179.558C84.1707 177.518 83.723 175.155 83.723 172.469C83.723 169.783 84.1707 167.432 85.0661 165.418C85.9615 163.378 87.2425 161.799 88.909 160.679C90.6003 159.535 92.6026 158.963 94.9157 158.963C97.2289 158.963 99.2187 159.535 100.885 160.679C102.552 161.799 103.833 163.378 104.728 165.418C105.623 167.432 106.071 169.783 106.071 172.469C106.071 175.155 105.623 177.518 104.728 179.558C103.833 181.573 102.552 183.152 100.885 184.296C99.2187 185.415 97.2289 185.975 94.9157 185.975ZM94.9157 183.214C96.433 183.214 97.7885 182.791 98.9824 181.946C100.201 181.075 101.146 179.844 101.818 178.252C102.514 176.635 102.863 174.708 102.863 172.469C102.863 170.231 102.514 168.315 101.818 166.724C101.146 165.132 100.201 163.913 98.9824 163.067C97.7885 162.197 96.433 161.761 94.9157 161.761C93.3736 161.761 92.0056 162.197 90.8117 163.067C89.6178 163.913 88.6727 165.132 87.9762 166.724C87.2798 168.315 86.9316 170.231 86.9316 172.469C86.9316 174.708 87.2798 176.635 87.9762 178.252C88.6727 179.844 89.6178 181.075 90.8117 181.946C92.0056 182.791 93.3736 183.214 94.9157 183.214ZM121.95 185.975C119.637 185.975 117.635 185.415 115.943 184.296C114.277 183.152 112.996 181.573 112.101 179.558C111.205 177.518 110.758 175.155 110.758 172.469C110.758 169.783 111.205 167.432 112.101 165.418C112.996 163.378 114.277 161.799 115.943 160.679C117.635 159.535 119.637 158.963 121.95 158.963C124.263 158.963 126.253 159.535 127.92 160.679C129.586 161.799 130.867 163.378 131.763 165.418C132.658 167.432 133.106 169.783 133.106 172.469C133.106 175.155 132.658 177.518 131.763 179.558C130.867 181.573 129.586 183.152 127.92 184.296C126.253 185.415 124.263 185.975 121.95 185.975ZM121.95 183.214C123.467 183.214 124.823 182.791 126.017 181.946C127.236 181.075 128.181 179.844 128.852 178.252C129.549 176.635 129.897 174.708 129.897 172.469C129.897 170.231 129.549 168.315 128.852 166.724C128.181 165.132 127.236 163.913 126.017 163.067C124.823 162.197 123.467 161.761 121.95 161.761C120.408 161.761 119.04 162.197 117.846 163.067C116.652 163.913 115.707 165.132 115.011 166.724C114.314 168.315 113.966 170.231 113.966 172.469C113.966 174.708 114.314 176.635 115.011 178.252C115.707 179.844 116.652 181.075 117.846 181.946C119.04 182.791 120.408 183.214 121.95 183.214ZM148.985 185.975C146.672 185.975 144.669 185.415 142.978 184.296C141.312 183.152 140.031 181.573 139.135 179.558C138.24 177.518 137.792 175.155 137.792 172.469C137.792 169.783 138.24 167.432 139.135 165.418C140.031 163.378 141.312 161.799 142.978 160.679C144.669 159.535 146.672 158.963 148.985 158.963C151.298 158.963 153.288 159.535 154.954 160.679C156.621 161.799 157.902 163.378 158.797 165.418C159.692 167.432 160.14 169.783 160.14 172.469C160.14 175.155 159.692 177.518 158.797 179.558C157.902 181.573 156.621 183.152 154.954 184.296C153.288 185.415 151.298 185.975 148.985 185.975ZM148.985 183.214C150.502 183.214 151.858 182.791 153.051 181.946C154.27 181.075 155.215 179.844 155.887 178.252C156.583 176.635 156.932 174.708 156.932 172.469C156.932 170.231 156.583 168.315 155.887 166.724C155.215 165.132 154.27 163.913 153.051 163.067C151.858 162.197 150.502 161.761 148.985 161.761C147.443 161.761 146.075 162.197 144.881 163.067C143.687 163.913 142.742 165.132 142.045 166.724C141.349 168.315 141.001 170.231 141.001 172.469C141.001 174.708 141.349 176.635 142.045 178.252C142.742 179.844 143.687 181.075 144.881 181.946C146.075 182.791 147.443 183.214 148.985 183.214ZM176.874 185.527V159.411H185.305C187.345 159.411 189.011 159.747 190.305 160.418C191.598 161.09 192.556 162.01 193.178 163.179C193.799 164.348 194.11 165.642 194.11 167.059C194.11 168.701 193.663 170.181 192.767 171.499C191.897 172.817 190.529 173.75 188.663 174.297L194.372 185.527H190.678L185.38 174.745H185.156H180.008V185.527H176.874ZM180.008 172.283H185.082C187.096 172.283 188.564 171.798 189.484 170.828C190.404 169.858 190.865 168.614 190.865 167.097C190.865 165.555 190.404 164.336 189.484 163.44C188.589 162.52 187.109 162.06 185.044 162.06H180.008V172.283ZM206.946 188.773V185.9C204.508 185.627 202.58 184.756 201.163 183.289C199.745 181.821 199.036 179.956 199.036 177.692H202.319C202.319 179.011 202.705 180.192 203.476 181.237C204.272 182.257 205.428 182.916 206.946 183.214V173.103C206.771 173.054 206.585 173.004 206.386 172.954C206.212 172.88 206.038 172.817 205.864 172.768C203.849 172.071 202.357 171.213 201.387 170.193C200.417 169.149 199.931 167.793 199.931 166.127C199.907 164.187 200.516 162.57 201.76 161.276C203.028 159.983 204.757 159.237 206.946 159.038V156.016H209.52V159.038C211.609 159.287 213.276 160.07 214.519 161.388C215.763 162.707 216.397 164.311 216.422 166.201H213.139C213.139 165.281 212.84 164.398 212.243 163.552C211.647 162.682 210.739 162.097 209.52 161.799V170.828C209.719 170.877 209.918 170.939 210.117 171.014C210.316 171.089 210.527 171.151 210.751 171.201C211.995 171.648 213.114 172.171 214.109 172.768C215.104 173.365 215.875 174.136 216.422 175.081C216.994 176.026 217.28 177.232 217.28 178.7C217.28 179.869 216.994 180.976 216.422 182.02C215.85 183.065 214.979 183.948 213.81 184.669C212.666 185.391 211.236 185.813 209.52 185.938V188.773H206.946ZM203.177 165.828C203.177 166.972 203.513 167.843 204.185 168.44C204.856 169.012 205.777 169.509 206.946 169.932V161.724C205.826 161.898 204.918 162.346 204.222 163.067C203.526 163.764 203.177 164.684 203.177 165.828ZM214.034 178.886C214.034 177.444 213.611 176.374 212.766 175.678C211.92 174.981 210.838 174.409 209.52 173.962V183.289C210.963 183.115 212.069 182.617 212.84 181.796C213.636 180.976 214.034 180.006 214.034 178.886ZM221.174 189.072L230.539 157.023H233.636L224.271 189.072H221.174ZM237.788 185.527V167.022H240.623L240.847 169.708C241.444 168.713 242.24 167.942 243.235 167.395C244.23 166.848 245.349 166.574 246.593 166.574C248.06 166.574 249.316 166.873 250.361 167.47C251.431 168.067 252.251 168.975 252.824 170.193C253.47 169.074 254.353 168.191 255.472 167.544C256.617 166.898 257.848 166.574 259.166 166.574C261.38 166.574 263.146 167.246 264.464 168.589C265.782 169.907 266.441 171.947 266.441 174.708V185.527H263.345V175.043C263.345 173.128 262.959 171.686 262.188 170.716C261.417 169.746 260.31 169.261 258.868 169.261C257.375 169.261 256.132 169.845 255.137 171.014C254.167 172.158 253.682 173.8 253.682 175.939V185.527H250.548V175.043C250.548 173.128 250.162 171.686 249.391 170.716C248.62 169.746 247.513 169.261 246.071 169.261C244.603 169.261 243.372 169.845 242.377 171.014C241.407 172.158 240.922 173.8 240.922 175.939V185.527H237.788ZM280.648 185.975C278.882 185.975 277.315 185.577 275.947 184.781C274.579 183.96 273.497 182.829 272.701 181.386C271.93 179.943 271.545 178.24 271.545 176.275C271.545 174.335 271.93 172.643 272.701 171.201C273.472 169.733 274.542 168.601 275.91 167.806C277.303 166.985 278.907 166.574 280.723 166.574C282.513 166.574 284.056 166.985 285.349 167.806C286.667 168.601 287.675 169.659 288.371 170.977C289.067 172.295 289.416 173.713 289.416 175.23C289.416 175.504 289.403 175.777 289.378 176.051C289.378 176.324 289.378 176.635 289.378 176.984H274.641C274.716 178.401 275.039 179.583 275.611 180.528C276.208 181.448 276.942 182.145 277.812 182.617C278.708 183.09 279.653 183.326 280.648 183.326C281.941 183.326 283.023 183.028 283.894 182.431C284.764 181.834 285.399 181.025 285.797 180.006H288.893C288.396 181.722 287.438 183.152 286.02 184.296C284.628 185.415 282.837 185.975 280.648 185.975ZM280.648 169.223C279.156 169.223 277.825 169.683 276.656 170.604C275.512 171.499 274.853 172.817 274.679 174.558H286.319C286.244 172.892 285.672 171.586 284.603 170.641C283.533 169.696 282.215 169.223 280.648 169.223ZM275.499 164.97V162.508L280.611 159.486L285.722 162.508V164.97L280.611 161.836L275.499 164.97ZM301.824 185.975C299.61 185.975 297.77 185.415 296.302 184.296C294.835 183.177 293.977 181.66 293.728 179.744H296.937C297.136 180.714 297.645 181.56 298.466 182.281C299.312 182.978 300.444 183.326 301.861 183.326C303.18 183.326 304.15 183.053 304.772 182.505C305.393 181.933 305.704 181.262 305.704 180.491C305.704 179.371 305.294 178.625 304.473 178.252C303.677 177.879 302.545 177.543 301.078 177.245C300.083 177.046 299.088 176.76 298.093 176.387C297.098 176.014 296.265 175.491 295.593 174.82C294.922 174.123 294.586 173.215 294.586 172.096C294.586 170.479 295.183 169.161 296.377 168.141C297.596 167.097 299.237 166.574 301.302 166.574C303.267 166.574 304.871 167.072 306.115 168.067C307.383 169.037 308.117 170.43 308.316 172.245H305.219C305.095 171.3 304.684 170.566 303.988 170.044C303.316 169.497 302.409 169.223 301.264 169.223C300.145 169.223 299.275 169.46 298.653 169.932C298.056 170.405 297.757 171.027 297.757 171.798C297.757 172.544 298.143 173.128 298.914 173.551C299.71 173.974 300.779 174.335 302.123 174.633C303.267 174.882 304.349 175.193 305.368 175.566C306.413 175.914 307.259 176.449 307.905 177.17C308.577 177.867 308.913 178.886 308.913 180.229C308.938 181.896 308.303 183.276 307.01 184.371C305.742 185.44 304.013 185.975 301.824 185.975Z" fill="#616161"/>
<path d="M429.923 165.754L422.927 158.759L415.932 165.754" stroke="#616161" stroke-width="3.10909" stroke-linecap="round" stroke-linejoin="round"/>
<path d="M422.92 178.968V158.759" stroke="#616161" stroke-width="3.10909" stroke-linecap="round" stroke-linejoin="round"/>
<path d="M443.135 181.3L436.14 188.295L429.145 181.3" stroke="#616161" stroke-width="3.10909" stroke-linecap="round" stroke-linejoin="round"/>
<path d="M436.135 168.086V188.296" stroke="#616161" stroke-width="3.10909" stroke-linecap="round" stroke-linejoin="round"/>
<rect x="51" y="237.727" width="397.964" height="6.21818" rx="3.10909" fill="#E0E0E0"/>
<rect x="51" y="237.727" width="55.9636" height="6.21818" rx="3.10909" fill="url(#paint0_linear_3881_4293)"/>
<circle cx="103.854" cy="240.836" r="18.6545" fill="url(#paint1_linear_3881_4293)"/>
<path d="M114.634 375V352.6H128.266V354.808H117.322V362.68H126.634V364.856H117.322V375H114.634ZM134.199 355.608C133.666 355.608 133.218 355.437 132.855 355.096C132.514 354.733 132.343 354.285 132.343 353.752C132.343 353.24 132.514 352.813 132.855 352.472C133.218 352.131 133.666 351.96 134.199 351.96C134.711 351.96 135.149 352.131 135.511 352.472C135.874 352.813 136.055 353.24 136.055 353.752C136.055 354.285 135.874 354.733 135.511 355.096C135.149 355.437 134.711 355.608 134.199 355.608ZM132.855 375V359.128H135.543V375H132.855ZM141.224 375V351.96H143.912V375H141.224ZM155.589 375C154.139 375 152.997 374.648 152.165 373.944C151.333 373.24 150.917 371.971 150.917 370.136V361.4H148.165V359.128H150.917L151.269 355.32H153.605V359.128H158.277V361.4H153.605V370.136C153.605 371.139 153.808 371.821 154.213 372.184C154.619 372.525 155.333 372.696 156.357 372.696H158.021V375H155.589ZM162.692 375V359.128H165.124L165.348 362.168C165.839 361.123 166.586 360.291 167.588 359.672C168.591 359.053 169.828 358.744 171.3 358.744V361.56H170.564C169.626 361.56 168.762 361.731 167.972 362.072C167.183 362.392 166.554 362.947 166.084 363.736C165.615 364.525 165.38 365.613 165.38 367V375H162.692ZM181.956 375.384C180.462 375.384 179.118 375.043 177.924 374.36C176.729 373.677 175.78 372.717 175.076 371.48C174.393 370.221 174.052 368.749 174.052 367.064C174.052 365.379 174.404 363.917 175.108 362.68C175.812 361.421 176.761 360.451 177.956 359.768C179.172 359.085 180.526 358.744 182.02 358.744C183.513 358.744 184.857 359.085 186.052 359.768C187.246 360.451 188.185 361.421 188.868 362.68C189.572 363.917 189.924 365.379 189.924 367.064C189.924 368.749 189.572 370.221 188.868 371.48C188.164 372.717 187.204 373.677 185.988 374.36C184.793 375.043 183.449 375.384 181.956 375.384ZM181.956 373.08C182.873 373.08 183.726 372.856 184.516 372.408C185.305 371.96 185.945 371.288 186.436 370.392C186.926 369.496 187.172 368.387 187.172 367.064C187.172 365.741 186.926 364.632 186.436 363.736C185.966 362.84 185.337 362.168 184.548 361.72C183.758 361.272 182.916 361.048 182.02 361.048C181.102 361.048 180.249 361.272 179.46 361.72C178.67 362.168 178.03 362.84 177.54 363.736C177.049 364.632 176.804 365.741 176.804 367.064C176.804 368.387 177.049 369.496 177.54 370.392C178.03 371.288 178.66 371.96 179.428 372.408C180.217 372.856 181.06 373.08 181.956 373.08ZM200.741 375.384C198.842 375.384 197.264 374.904 196.005 373.944C194.746 372.984 194.01 371.683 193.797 370.04H196.549C196.72 370.872 197.157 371.597 197.861 372.216C198.586 372.813 199.557 373.112 200.773 373.112C201.904 373.112 202.736 372.877 203.269 372.408C203.802 371.917 204.069 371.341 204.069 370.68C204.069 369.72 203.717 369.08 203.013 368.76C202.33 368.44 201.36 368.152 200.101 367.896C199.248 367.725 198.394 367.48 197.541 367.16C196.688 366.84 195.973 366.392 195.397 365.816C194.821 365.219 194.533 364.44 194.533 363.48C194.533 362.093 195.045 360.963 196.069 360.088C197.114 359.192 198.522 358.744 200.293 358.744C201.978 358.744 203.354 359.171 204.421 360.024C205.509 360.856 206.138 362.051 206.309 363.608H203.653C203.546 362.797 203.194 362.168 202.597 361.72C202.021 361.251 201.242 361.016 200.261 361.016C199.301 361.016 198.554 361.219 198.021 361.624C197.509 362.029 197.253 362.563 197.253 363.224C197.253 363.864 197.584 364.365 198.245 364.728C198.928 365.091 199.845 365.4 200.997 365.656C201.978 365.869 202.906 366.136 203.781 366.456C204.677 366.755 205.402 367.213 205.957 367.832C206.533 368.429 206.821 369.304 206.821 370.456C206.842 371.885 206.298 373.069 205.189 374.008C204.101 374.925 202.618 375.384 200.741 375.384ZM226.41 375.384C225.087 375.384 223.989 375.16 223.114 374.712C222.239 374.264 221.589 373.667 221.162 372.92C220.735 372.173 220.522 371.363 220.522 370.488C220.522 368.867 221.141 367.619 222.378 366.744C223.615 365.869 225.301 365.432 227.434 365.432H231.722V365.24C231.722 363.853 231.359 362.808 230.634 362.104C229.909 361.379 228.938 361.016 227.722 361.016C226.677 361.016 225.77 361.283 225.002 361.816C224.255 362.328 223.786 363.085 223.594 364.088H220.842C220.949 362.936 221.333 361.965 221.994 361.176C222.677 360.387 223.519 359.789 224.522 359.384C225.525 358.957 226.591 358.744 227.722 358.744C229.941 358.744 231.605 359.341 232.714 360.536C233.845 361.709 234.41 363.277 234.41 365.24V375H232.01L231.85 372.152C231.402 373.048 230.741 373.816 229.866 374.456C229.013 375.075 227.861 375.384 226.41 375.384ZM226.826 373.112C227.85 373.112 228.725 372.845 229.45 372.312C230.197 371.779 230.762 371.085 231.146 370.232C231.53 369.379 231.722 368.483 231.722 367.544V367.512H227.658C226.079 367.512 224.959 367.789 224.298 368.344C223.658 368.877 223.338 369.549 223.338 370.36C223.338 371.192 223.637 371.864 224.234 372.376C224.853 372.867 225.717 373.112 226.826 373.112ZM243.425 375L237.409 359.128H240.225L244.993 372.408L249.793 359.128H252.545L246.529 375H243.425ZM261.004 375.384C259.681 375.384 258.582 375.16 257.708 374.712C256.833 374.264 256.182 373.667 255.756 372.92C255.329 372.173 255.116 371.363 255.116 370.488C255.116 368.867 255.734 367.619 256.972 366.744C258.209 365.869 259.894 365.432 262.028 365.432H266.316V365.24C266.316 363.853 265.953 362.808 265.228 362.104C264.502 361.379 263.532 361.016 262.316 361.016C261.27 361.016 260.364 361.283 259.596 361.816C258.849 362.328 258.38 363.085 258.188 364.088H255.436C255.542 362.936 255.926 361.965 256.588 361.176C257.27 360.387 258.113 359.789 259.116 359.384C260.118 358.957 261.185 358.744 262.316 358.744C264.534 358.744 266.198 359.341 267.308 360.536C268.438 361.709 269.004 363.277 269.004 365.24V375H266.604L266.444 372.152C265.996 373.048 265.334 373.816 264.46 374.456C263.606 375.075 262.454 375.384 261.004 375.384ZM261.42 373.112C262.444 373.112 263.318 372.845 264.044 372.312C264.79 371.779 265.356 371.085 265.74 370.232C266.124 369.379 266.316 368.483 266.316 367.544V367.512H262.252C260.673 367.512 259.553 367.789 258.892 368.344C258.252 368.877 257.932 369.549 257.932 370.36C257.932 371.192 258.23 371.864 258.828 372.376C259.446 372.867 260.31 373.112 261.42 373.112ZM274.036 375V359.128H276.468L276.628 361.976C277.14 360.973 277.876 360.184 278.836 359.608C279.796 359.032 280.884 358.744 282.1 358.744C283.977 358.744 285.471 359.32 286.58 360.472C287.711 361.603 288.276 363.352 288.276 365.72V375H285.588V366.008C285.588 362.701 284.223 361.048 281.492 361.048C280.127 361.048 278.985 361.549 278.068 362.552C277.172 363.533 276.724 364.941 276.724 366.776V375H274.036ZM300.645 375.384C299.13 375.384 297.765 375.043 296.549 374.36C295.354 373.656 294.405 372.685 293.701 371.448C293.018 370.189 292.677 368.728 292.677 367.064C292.677 365.4 293.018 363.949 293.701 362.712C294.405 361.453 295.354 360.483 296.549 359.8C297.765 359.096 299.13 358.744 300.645 358.744C302.522 358.744 304.101 359.235 305.381 360.216C306.682 361.197 307.503 362.509 307.845 364.152H305.093C304.879 363.171 304.357 362.413 303.525 361.88C302.693 361.325 301.722 361.048 300.613 361.048C299.717 361.048 298.874 361.272 298.085 361.72C297.295 362.168 296.655 362.84 296.165 363.736C295.674 364.632 295.429 365.741 295.429 367.064C295.429 368.387 295.674 369.496 296.165 370.392C296.655 371.288 297.295 371.971 298.085 372.44C298.874 372.888 299.717 373.112 300.613 373.112C301.722 373.112 302.693 372.845 303.525 372.312C304.357 371.757 304.879 370.979 305.093 369.976H307.845C307.525 371.576 306.714 372.877 305.413 373.88C304.111 374.883 302.522 375.384 300.645 375.384ZM298.341 383.32V381.624H301.285C302.735 381.624 303.461 381.112 303.461 380.088C303.461 379.128 302.735 378.648 301.285 378.648H299.717V374.808H301.509V377.048C302.725 377.027 303.717 377.272 304.485 377.784C305.253 378.296 305.637 379.075 305.637 380.12C305.637 381.123 305.274 381.901 304.549 382.456C303.823 383.032 302.906 383.32 301.797 383.32H298.341ZM317.879 375.384C316.556 375.384 315.457 375.16 314.583 374.712C313.708 374.264 313.057 373.667 312.631 372.92C312.204 372.173 311.991 371.363 311.991 370.488C311.991 368.867 312.609 367.619 313.847 366.744C315.084 365.869 316.769 365.432 318.903 365.432H323.191V365.24C323.191 363.853 322.828 362.808 322.103 362.104C321.377 361.379 320.407 361.016 319.191 361.016C318.145 361.016 317.239 361.283 316.471 361.816C315.724 362.328 315.255 363.085 315.063 364.088H312.311C312.417 362.936 312.801 361.965 313.463 361.176C314.145 360.387 314.988 359.789 315.991 359.384C316.993 358.957 318.06 358.744 319.191 358.744C321.409 358.744 323.073 359.341 324.183 360.536C325.313 361.709 325.879 363.277 325.879 365.24V375H323.479L323.319 372.152C322.871 373.048 322.209 373.816 321.335 374.456C320.481 375.075 319.329 375.384 317.879 375.384ZM318.295 373.112C319.319 373.112 320.193 372.845 320.919 372.312C321.665 371.779 322.231 371.085 322.615 370.232C322.999 369.379 323.191 368.483 323.191 367.544V367.512H319.127C317.548 367.512 316.428 367.789 315.767 368.344C315.127 368.877 314.807 369.549 314.807 370.36C314.807 371.192 315.105 371.864 315.703 372.376C316.321 372.867 317.185 373.112 318.295 373.112ZM338.111 375.384C336.532 375.384 335.146 375.021 333.951 374.296C332.778 373.571 331.86 372.579 331.199 371.32C330.559 370.061 330.239 368.632 330.239 367.032C330.239 365.432 330.57 364.013 331.231 362.776C331.892 361.517 332.81 360.536 333.983 359.832C335.156 359.107 336.543 358.744 338.143 358.744C339.444 358.744 340.596 359.011 341.599 359.544C342.602 360.077 343.38 360.824 343.935 361.784V351.96H346.623V375H344.191L343.935 372.376C343.423 373.144 342.687 373.837 341.727 374.456C340.767 375.075 339.562 375.384 338.111 375.384ZM338.399 373.048C339.466 373.048 340.404 372.803 341.215 372.312C342.047 371.8 342.687 371.096 343.135 370.2C343.604 369.304 343.839 368.259 343.839 367.064C343.839 365.869 343.604 364.824 343.135 363.928C342.687 363.032 342.047 362.339 341.215 361.848C340.404 361.336 339.466 361.08 338.399 361.08C337.354 361.08 336.415 361.336 335.583 361.848C334.772 362.339 334.132 363.032 333.663 363.928C333.215 364.824 332.991 365.869 332.991 367.064C332.991 368.259 333.215 369.304 333.663 370.2C334.132 371.096 334.772 371.8 335.583 372.312C336.415 372.803 337.354 373.048 338.399 373.048ZM359.237 375.384C357.744 375.384 356.4 375.043 355.205 374.36C354.01 373.677 353.061 372.717 352.357 371.48C351.674 370.221 351.333 368.749 351.333 367.064C351.333 365.379 351.685 363.917 352.389 362.68C353.093 361.421 354.042 360.451 355.237 359.768C356.453 359.085 357.808 358.744 359.301 358.744C360.794 358.744 362.138 359.085 363.333 359.768C364.528 360.451 365.466 361.421 366.149 362.68C366.853 363.917 367.205 365.379 367.205 367.064C367.205 368.749 366.853 370.221 366.149 371.48C365.445 372.717 364.485 373.677 363.269 374.36C362.074 375.043 360.73 375.384 359.237 375.384ZM359.237 373.08C360.154 373.08 361.008 372.856 361.797 372.408C362.586 371.96 363.226 371.288 363.717 370.392C364.208 369.496 364.453 368.387 364.453 367.064C364.453 365.741 364.208 364.632 363.717 363.736C363.248 362.84 362.618 362.168 361.829 361.72C361.04 361.272 360.197 361.048 359.301 361.048C358.384 361.048 357.53 361.272 356.741 361.72C355.952 362.168 355.312 362.84 354.821 363.736C354.33 364.632 354.085 365.741 354.085 367.064C354.085 368.387 354.33 369.496 354.821 370.392C355.312 371.288 355.941 371.96 356.709 372.408C357.498 372.856 358.341 373.08 359.237 373.08ZM378.022 375.384C376.124 375.384 374.545 374.904 373.286 373.944C372.028 372.984 371.292 371.683 371.078 370.04H373.83C374.001 370.872 374.438 371.597 375.142 372.216C375.868 372.813 376.838 373.112 378.054 373.112C379.185 373.112 380.017 372.877 380.55 372.408C381.084 371.917 381.35 371.341 381.35 370.68C381.35 369.72 380.998 369.08 380.294 368.76C379.612 368.44 378.641 368.152 377.382 367.896C376.529 367.725 375.676 367.48 374.822 367.16C373.969 366.84 373.254 366.392 372.678 365.816C372.102 365.219 371.814 364.44 371.814 363.48C371.814 362.093 372.326 360.963 373.35 360.088C374.396 359.192 375.804 358.744 377.574 358.744C379.26 358.744 380.636 359.171 381.702 360.024C382.79 360.856 383.42 362.051 383.59 363.608H380.934C380.828 362.797 380.476 362.168 379.878 361.72C379.302 361.251 378.524 361.016 377.542 361.016C376.582 361.016 375.836 361.219 375.302 361.624C374.79 362.029 374.534 362.563 374.534 363.224C374.534 363.864 374.865 364.365 375.526 364.728C376.209 365.091 377.126 365.4 378.278 365.656C379.26 365.869 380.188 366.136 381.062 366.456C381.958 366.755 382.684 367.213 383.238 367.832C383.814 368.429 384.102 369.304 384.102 370.456C384.124 371.885 383.58 373.069 382.47 374.008C381.382 374.925 379.9 375.384 378.022 375.384ZM163.174 423.384C161.595 423.384 160.208 423.021 159.014 422.296C157.84 421.571 156.923 420.579 156.262 419.32C155.622 418.061 155.302 416.632 155.302 415.032C155.302 413.432 155.632 412.013 156.294 410.776C156.955 409.517 157.872 408.536 159.046 407.832C160.219 407.107 161.606 406.744 163.206 406.744C164.507 406.744 165.659 407.011 166.662 407.544C167.664 408.077 168.443 408.824 168.998 409.784V399.96H171.686V423H169.254L168.998 420.376C168.486 421.144 167.75 421.837 166.79 422.456C165.83 423.075 164.624 423.384 163.174 423.384ZM163.462 421.048C164.528 421.048 165.467 420.803 166.278 420.312C167.11 419.8 167.75 419.096 168.198 418.2C168.667 417.304 168.902 416.259 168.902 415.064C168.902 413.869 168.667 412.824 168.198 411.928C167.75 411.032 167.11 410.339 166.278 409.848C165.467 409.336 164.528 409.08 163.462 409.08C162.416 409.08 161.478 409.336 160.646 409.848C159.835 410.339 159.195 411.032 158.726 411.928C158.278 412.824 158.054 413.869 158.054 415.064C158.054 416.259 158.278 417.304 158.726 418.2C159.195 419.096 159.835 419.8 160.646 420.312C161.478 420.803 162.416 421.048 163.462 421.048ZM184.203 423.384C182.689 423.384 181.345 423.043 180.171 422.36C178.998 421.656 178.07 420.685 177.387 419.448C176.726 418.211 176.395 416.749 176.395 415.064C176.395 413.4 176.726 411.949 177.387 410.712C178.049 409.453 178.966 408.483 180.139 407.8C181.334 407.096 182.71 406.744 184.267 406.744C185.803 406.744 187.126 407.096 188.235 407.8C189.366 408.483 190.23 409.389 190.827 410.52C191.425 411.651 191.723 412.867 191.723 414.168C191.723 414.403 191.713 414.637 191.691 414.872C191.691 415.107 191.691 415.373 191.691 415.672H179.051C179.115 416.888 179.393 417.901 179.883 418.712C180.395 419.501 181.025 420.099 181.771 420.504C182.539 420.909 183.35 421.112 184.203 421.112C185.313 421.112 186.241 420.856 186.987 420.344C187.734 419.832 188.278 419.139 188.619 418.264H191.275C190.849 419.736 190.027 420.963 188.811 421.944C187.617 422.904 186.081 423.384 184.203 423.384ZM184.203 409.016C182.923 409.016 181.782 409.411 180.779 410.2C179.798 410.968 179.233 412.099 179.083 413.592H189.067C189.003 412.163 188.513 411.043 187.595 410.232C186.678 409.421 185.547 409.016 184.203 409.016ZM205.755 430.04V407.128H208.187L208.443 409.752C208.955 408.984 209.68 408.291 210.619 407.672C211.579 407.053 212.795 406.744 214.267 406.744C215.846 406.744 217.222 407.107 218.395 407.832C219.568 408.557 220.475 409.549 221.115 410.808C221.776 412.067 222.107 413.496 222.107 415.096C222.107 416.696 221.776 418.125 221.115 419.384C220.475 420.621 219.558 421.603 218.363 422.328C217.19 423.032 215.814 423.384 214.235 423.384C212.934 423.384 211.771 423.117 210.747 422.584C209.744 422.051 208.976 421.304 208.443 420.344V430.04H205.755ZM213.947 421.048C215.014 421.048 215.952 420.803 216.763 420.312C217.574 419.8 218.214 419.096 218.683 418.2C219.152 417.304 219.387 416.259 219.387 415.064C219.387 413.869 219.152 412.824 218.683 411.928C218.214 411.032 217.574 410.339 216.763 409.848C215.952 409.336 215.014 409.08 213.947 409.08C212.88 409.08 211.942 409.336 211.131 409.848C210.32 410.339 209.68 411.032 209.211 411.928C208.742 412.824 208.507 413.869 208.507 415.064C208.507 416.259 208.742 417.304 209.211 418.2C209.68 419.096 210.32 419.8 211.131 420.312C211.942 420.803 212.88 421.048 213.947 421.048ZM233.985 423.384C232.47 423.384 231.126 423.043 229.953 422.36C228.779 421.656 227.851 420.685 227.169 419.448C226.507 418.211 226.177 416.749 226.177 415.064C226.177 413.4 226.507 411.949 227.169 410.712C227.83 409.453 228.747 408.483 229.921 407.8C231.115 407.096 232.491 406.744 234.049 406.744C235.585 406.744 236.907 407.096 238.017 407.8C239.147 408.483 240.011 409.389 240.609 410.52C241.206 411.651 241.505 412.867 241.505 414.168C241.505 414.403 241.494 414.637 241.473 414.872C241.473 415.107 241.473 415.373 241.473 415.672H228.833C228.897 416.888 229.174 417.901 229.665 418.712C230.177 419.501 230.806 420.099 231.553 420.504C232.321 420.909 233.131 421.112 233.985 421.112C235.094 421.112 236.022 420.856 236.769 420.344C237.515 419.832 238.059 419.139 238.401 418.264H241.057C240.63 419.736 239.809 420.963 238.593 421.944C237.398 422.904 235.862 423.384 233.985 423.384ZM233.985 409.016C232.705 409.016 231.563 409.411 230.561 410.2C229.579 410.968 229.014 412.099 228.865 413.592H238.849C238.785 412.163 238.294 411.043 237.377 410.232C236.459 409.421 235.329 409.016 233.985 409.016ZM252.147 423.384C250.249 423.384 248.67 422.904 247.411 421.944C246.153 420.984 245.417 419.683 245.203 418.04H247.955C248.126 418.872 248.563 419.597 249.267 420.216C249.993 420.813 250.963 421.112 252.179 421.112C253.31 421.112 254.142 420.877 254.675 420.408C255.209 419.917 255.475 419.341 255.475 418.68C255.475 417.72 255.123 417.08 254.419 416.76C253.737 416.44 252.766 416.152 251.507 415.896C250.654 415.725 249.801 415.48 248.947 415.16C248.094 414.84 247.379 414.392 246.803 413.816C246.227 413.219 245.939 412.44 245.939 411.48C245.939 410.093 246.451 408.963 247.475 408.088C248.521 407.192 249.929 406.744 251.699 406.744C253.385 406.744 254.761 407.171 255.827 408.024C256.915 408.856 257.545 410.051 257.715 411.608H255.059C254.953 410.797 254.601 410.168 254.003 409.72C253.427 409.251 252.649 409.016 251.667 409.016C250.707 409.016 249.961 409.219 249.427 409.624C248.915 410.029 248.659 410.563 248.659 411.224C248.659 411.864 248.99 412.365 249.651 412.728C250.334 413.091 251.251 413.4 252.403 413.656C253.385 413.869 254.313 414.136 255.187 414.456C256.083 414.755 256.809 415.213 257.363 415.832C257.939 416.429 258.227 417.304 258.227 418.456C258.249 419.885 257.705 421.069 256.595 422.008C255.507 422.925 254.025 423.384 252.147 423.384ZM276.091 430.04V420.376C275.579 421.144 274.843 421.837 273.883 422.456C272.923 423.075 271.718 423.384 270.267 423.384C268.689 423.384 267.302 423.021 266.107 422.296C264.934 421.571 264.017 420.579 263.355 419.32C262.715 418.061 262.395 416.632 262.395 415.032C262.395 413.432 262.726 412.013 263.387 410.776C264.049 409.517 264.966 408.536 266.139 407.832C267.313 407.107 268.699 406.744 270.299 406.744C271.601 406.744 272.753 407.011 273.755 407.544C274.758 408.077 275.537 408.824 276.091 409.784L276.347 407.128H278.779V430.04H276.091ZM270.555 421.048C271.622 421.048 272.561 420.803 273.371 420.312C274.203 419.8 274.843 419.096 275.291 418.2C275.761 417.304 275.995 416.259 275.995 415.064C275.995 413.869 275.761 412.824 275.291 411.928C274.843 411.032 274.203 410.339 273.371 409.848C272.561 409.336 271.622 409.08 270.555 409.08C269.51 409.08 268.571 409.336 267.739 409.848C266.929 410.339 266.289 411.032 265.819 411.928C265.371 412.824 265.147 413.869 265.147 415.064C265.147 416.259 265.371 417.304 265.819 418.2C266.289 419.096 266.929 419.8 267.739 420.312C268.571 420.803 269.51 421.048 270.555 421.048ZM289.953 423.384C288.076 423.384 286.582 422.819 285.473 421.688C284.364 420.536 283.809 418.776 283.809 416.408V407.128H286.497V416.12C286.497 419.427 287.852 421.08 290.561 421.08C291.948 421.08 293.089 420.589 293.985 419.608C294.902 418.605 295.361 417.187 295.361 415.352V407.128H298.049V423H295.617L295.425 420.152C294.934 421.155 294.198 421.944 293.217 422.52C292.257 423.096 291.169 423.384 289.953 423.384ZM305.106 403.608C304.572 403.608 304.124 403.437 303.762 403.096C303.42 402.733 303.25 402.285 303.25 401.752C303.25 401.24 303.42 400.813 303.762 400.472C304.124 400.131 304.572 399.96 305.106 399.96C305.618 399.96 306.055 400.131 306.418 400.472C306.78 400.813 306.962 401.24 306.962 401.752C306.962 402.285 306.78 402.733 306.418 403.096C306.055 403.437 305.618 403.608 305.106 403.608ZM303.762 423V407.128H306.45V423H303.762ZM318.21 423.384C316.311 423.384 314.733 422.904 313.474 421.944C312.215 420.984 311.479 419.683 311.266 418.04H314.018C314.189 418.872 314.626 419.597 315.33 420.216C316.055 420.813 317.026 421.112 318.242 421.112C319.373 421.112 320.205 420.877 320.738 420.408C321.271 419.917 321.538 419.341 321.538 418.68C321.538 417.72 321.186 417.08 320.482 416.76C319.799 416.44 318.829 416.152 317.57 415.896C316.717 415.725 315.863 415.48 315.01 415.16C314.157 414.84 313.442 414.392 312.866 413.816C312.29 413.219 312.002 412.44 312.002 411.48C312.002 410.093 312.514 408.963 313.538 408.088C314.583 407.192 315.991 406.744 317.762 406.744C319.447 406.744 320.823 407.171 321.89 408.024C322.978 408.856 323.607 410.051 323.778 411.608H321.122C321.015 410.797 320.663 410.168 320.066 409.72C319.49 409.251 318.711 409.016 317.73 409.016C316.77 409.016 316.023 409.219 315.49 409.624C314.978 410.029 314.722 410.563 314.722 411.224C314.722 411.864 315.053 412.365 315.714 412.728C316.397 413.091 317.314 413.4 318.466 413.656C319.447 413.869 320.375 414.136 321.25 414.456C322.146 414.755 322.871 415.213 323.426 415.832C324.002 416.429 324.29 417.304 324.29 418.456C324.311 419.885 323.767 421.069 322.658 422.008C321.57 422.925 320.087 423.384 318.21 423.384ZM334.41 423.384C333.087 423.384 331.989 423.16 331.114 422.712C330.239 422.264 329.589 421.667 329.162 420.92C328.735 420.173 328.522 419.363 328.522 418.488C328.522 416.867 329.141 415.619 330.378 414.744C331.615 413.869 333.301 413.432 335.434 413.432H339.722V413.24C339.722 411.853 339.359 410.808 338.634 410.104C337.909 409.379 336.938 409.016 335.722 409.016C334.677 409.016 333.77 409.283 333.002 409.816C332.255 410.328 331.786 411.085 331.594 412.088H328.842C328.949 410.936 329.333 409.965 329.994 409.176C330.677 408.387 331.519 407.789 332.522 407.384C333.525 406.957 334.591 406.744 335.722 406.744C337.941 406.744 339.605 407.341 340.714 408.536C341.845 409.709 342.41 411.277 342.41 413.24V423H340.01L339.85 420.152C339.402 421.048 338.741 421.816 337.866 422.456C337.013 423.075 335.861 423.384 334.41 423.384ZM334.826 421.112C335.85 421.112 336.725 420.845 337.45 420.312C338.197 419.779 338.762 419.085 339.146 418.232C339.53 417.379 339.722 416.483 339.722 415.544V415.512H335.658C334.079 415.512 332.959 415.789 332.298 416.344C331.658 416.877 331.338 417.549 331.338 418.36C331.338 419.192 331.637 419.864 332.234 420.376C332.853 420.867 333.717 421.112 334.826 421.112Z" fill="#333333"/>
<defs>
<linearGradient id="paint0_linear_3881_4293" x1="51" y1="237.727" x2="55.5907" y2="256.505" gradientUnits="userSpaceOnUse">
<stop stop-color="#FF4B00"/>
<stop offset="1" stop-color="#EE2F23"/>
</linearGradient>
<linearGradient id="paint1_linear_3881_4293" x1="85.1992" y1="222.182" x2="130.175" y2="242.622" gradientUnits="userSpaceOnUse">
<stop stop-color="#FF4B00"/>
<stop offset="1" stop-color="#EE2F23"/>
</linearGradient>
</defs>
</svg>
