<svg width="500" height="500" viewBox="0 0 500 500" fill="none" xmlns="http://www.w3.org/2000/svg">
<rect x="0.5" y="0.5" width="499" height="499" rx="23.5" stroke="#E0E0E0"/>
<path d="M43.004 375.384C41.3613 375.384 39.932 375.085 38.716 374.488C37.5 373.891 36.5613 373.059 35.9 371.992C35.2387 370.925 34.908 369.688 34.908 368.28H37.724C37.724 369.155 37.9267 369.965 38.332 370.712C38.7373 371.437 39.324 372.024 40.092 372.472C40.8813 372.899 41.852 373.112 43.004 373.112C44.5187 373.112 45.692 372.749 46.524 372.024C47.356 371.299 47.772 370.392 47.772 369.304C47.772 368.408 47.58 367.693 47.196 367.16C46.812 366.605 46.2893 366.157 45.628 365.816C44.988 365.475 44.2413 365.176 43.388 364.92C42.556 364.664 41.6813 364.376 40.764 364.056C39.036 363.459 37.756 362.723 36.924 361.848C36.092 360.952 35.676 359.789 35.676 358.36C35.6547 357.165 35.932 356.109 36.508 355.192C37.084 354.253 37.8947 353.528 38.94 353.016C40.0067 352.483 41.2653 352.216 42.716 352.216C44.1453 352.216 45.3827 352.483 46.428 353.016C47.4947 353.549 48.316 354.285 48.892 355.224C49.4893 356.163 49.7987 357.229 49.82 358.424H47.004C47.004 357.805 46.844 357.197 46.524 356.6C46.204 355.981 45.7133 355.48 45.052 355.096C44.412 354.712 43.6013 354.52 42.62 354.52C41.404 354.499 40.4013 354.808 39.612 355.448C38.844 356.088 38.46 356.973 38.46 358.104C38.46 359.064 38.7267 359.8 39.26 360.312C39.8147 360.824 40.5827 361.251 41.564 361.592C42.5453 361.912 43.676 362.285 44.956 362.712C46.0227 363.096 46.9827 363.544 47.836 364.056C48.6893 364.568 49.3507 365.229 49.82 366.04C50.3107 366.851 50.556 367.885 50.556 369.144C50.556 370.211 50.2787 371.224 49.724 372.184C49.1693 373.123 48.3267 373.891 47.196 374.488C46.0867 375.085 44.6893 375.384 43.004 375.384ZM62.344 375.384C60.8293 375.384 59.4853 375.043 58.312 374.36C57.1387 373.656 56.2107 372.685 55.528 371.448C54.8667 370.211 54.536 368.749 54.536 367.064C54.536 365.4 54.8667 363.949 55.528 362.712C56.1893 361.453 57.1067 360.483 58.28 359.8C59.4747 359.096 60.8507 358.744 62.408 358.744C63.944 358.744 65.2667 359.096 66.376 359.8C67.5067 360.483 68.3707 361.389 68.968 362.52C69.5653 363.651 69.864 364.867 69.864 366.168C69.864 366.403 69.8533 366.637 69.832 366.872C69.832 367.107 69.832 367.373 69.832 367.672H57.192C57.256 368.888 57.5333 369.901 58.024 370.712C58.536 371.501 59.1653 372.099 59.912 372.504C60.68 372.909 61.4907 373.112 62.344 373.112C63.4533 373.112 64.3813 372.856 65.128 372.344C65.8747 371.832 66.4187 371.139 66.76 370.264H69.416C68.9893 371.736 68.168 372.963 66.952 373.944C65.7573 374.904 64.2213 375.384 62.344 375.384ZM62.344 361.016C61.064 361.016 59.9227 361.411 58.92 362.2C57.9387 362.968 57.3733 364.099 57.224 365.592H67.208C67.144 364.163 66.6533 363.043 65.736 362.232C64.8187 361.421 63.688 361.016 62.344 361.016ZM74.4268 375V359.128H76.8588L77.0508 361.432C77.5628 360.579 78.2454 359.917 79.0988 359.448C79.9521 358.979 80.9121 358.744 81.9788 358.744C83.2374 358.744 84.3148 359 85.2108 359.512C86.1281 360.024 86.8321 360.803 87.3228 361.848C87.8774 360.888 88.6348 360.131 89.5948 359.576C90.5761 359.021 91.6321 358.744 92.7628 358.744C94.6614 358.744 96.1761 359.32 97.3068 360.472C98.4374 361.603 99.0028 363.352 99.0028 365.72V375H96.3468V366.008C96.3468 364.365 96.0161 363.128 95.3548 362.296C94.6934 361.464 93.7441 361.048 92.5068 361.048C91.2268 361.048 90.1601 361.549 89.3068 362.552C88.4748 363.533 88.0588 364.941 88.0588 366.776V375H85.3708V366.008C85.3708 364.365 85.0401 363.128 84.3788 362.296C83.7174 361.464 82.7681 361.048 81.5308 361.048C80.2721 361.048 79.2161 361.549 78.3628 362.552C77.5308 363.533 77.1148 364.941 77.1148 366.776V375H74.4268ZM120.817 375.384C119.302 375.384 117.937 375.043 116.721 374.36C115.526 373.656 114.577 372.685 113.873 371.448C113.19 370.189 112.849 368.728 112.849 367.064C112.849 365.4 113.19 363.949 113.873 362.712C114.577 361.453 115.526 360.483 116.721 359.8C117.937 359.096 119.302 358.744 120.817 358.744C122.694 358.744 124.273 359.235 125.553 360.216C126.854 361.197 127.675 362.509 128.017 364.152H125.265C125.051 363.171 124.529 362.413 123.697 361.88C122.865 361.325 121.894 361.048 120.785 361.048C119.889 361.048 119.046 361.272 118.257 361.72C117.467 362.168 116.827 362.84 116.337 363.736C115.846 364.632 115.601 365.741 115.601 367.064C115.601 368.387 115.846 369.496 116.337 370.392C116.827 371.288 117.467 371.971 118.257 372.44C119.046 372.888 119.889 373.112 120.785 373.112C121.894 373.112 122.865 372.845 123.697 372.312C124.529 371.757 125.051 370.979 125.265 369.976H128.017C127.697 371.576 126.886 372.877 125.585 373.88C124.283 374.883 122.694 375.384 120.817 375.384ZM138.051 375.384C136.728 375.384 135.629 375.16 134.755 374.712C133.88 374.264 133.229 373.667 132.803 372.92C132.376 372.173 132.163 371.363 132.163 370.488C132.163 368.867 132.781 367.619 134.019 366.744C135.256 365.869 136.941 365.432 139.075 365.432H143.363V365.24C143.363 363.853 143 362.808 142.275 362.104C141.549 361.379 140.579 361.016 139.363 361.016C138.317 361.016 137.411 361.283 136.643 361.816C135.896 362.328 135.427 363.085 135.235 364.088H132.483C132.589 362.936 132.973 361.965 133.635 361.176C134.317 360.387 135.16 359.789 136.163 359.384C137.165 358.957 138.232 358.744 139.363 358.744C141.581 358.744 143.245 359.341 144.355 360.536C145.485 361.709 146.051 363.277 146.051 365.24V375H143.651L143.491 372.152C143.043 373.048 142.381 373.816 141.507 374.456C140.653 375.075 139.501 375.384 138.051 375.384ZM138.467 373.112C139.491 373.112 140.365 372.845 141.091 372.312C141.837 371.779 142.403 371.085 142.787 370.232C143.171 369.379 143.363 368.483 143.363 367.544V367.512H139.299C137.72 367.512 136.6 367.789 135.939 368.344C135.299 368.877 134.979 369.549 134.979 370.36C134.979 371.192 135.277 371.864 135.875 372.376C136.493 372.867 137.357 373.112 138.467 373.112ZM158.283 375.384C156.704 375.384 155.318 375.021 154.123 374.296C152.95 373.571 152.032 372.579 151.371 371.32C150.731 370.061 150.411 368.632 150.411 367.032C150.411 365.432 150.742 364.013 151.403 362.776C152.064 361.517 152.982 360.536 154.155 359.832C155.328 359.107 156.715 358.744 158.315 358.744C159.616 358.744 160.768 359.011 161.771 359.544C162.774 360.077 163.552 360.824 164.107 361.784V351.96H166.795V375H164.363L164.107 372.376C163.595 373.144 162.859 373.837 161.899 374.456C160.939 375.075 159.734 375.384 158.283 375.384ZM158.571 373.048C159.638 373.048 160.576 372.803 161.387 372.312C162.219 371.8 162.859 371.096 163.307 370.2C163.776 369.304 164.011 368.259 164.011 367.064C164.011 365.869 163.776 364.824 163.307 363.928C162.859 363.032 162.219 362.339 161.387 361.848C160.576 361.336 159.638 361.08 158.571 361.08C157.526 361.08 156.587 361.336 155.755 361.848C154.944 362.339 154.304 363.032 153.835 363.928C153.387 364.824 153.163 365.869 153.163 367.064C153.163 368.259 153.387 369.304 153.835 370.2C154.304 371.096 154.944 371.8 155.755 372.312C156.587 372.803 157.526 373.048 158.571 373.048ZM177.457 375.384C176.134 375.384 175.035 375.16 174.161 374.712C173.286 374.264 172.635 373.667 172.209 372.92C171.782 372.173 171.569 371.363 171.569 370.488C171.569 368.867 172.187 367.619 173.425 366.744C174.662 365.869 176.347 365.432 178.481 365.432H182.769V365.24C182.769 363.853 182.406 362.808 181.681 362.104C180.955 361.379 179.985 361.016 178.769 361.016C177.723 361.016 176.817 361.283 176.049 361.816C175.302 362.328 174.833 363.085 174.641 364.088H171.889C171.995 362.936 172.379 361.965 173.041 361.176C173.723 360.387 174.566 359.789 175.569 359.384C176.571 358.957 177.638 358.744 178.769 358.744C180.987 358.744 182.651 359.341 183.761 360.536C184.891 361.709 185.457 363.277 185.457 365.24V375H183.057L182.897 372.152C182.449 373.048 181.787 373.816 180.913 374.456C180.059 375.075 178.907 375.384 177.457 375.384ZM177.873 373.112C178.897 373.112 179.771 372.845 180.497 372.312C181.243 371.779 181.809 371.085 182.193 370.232C182.577 369.379 182.769 368.483 182.769 367.544V367.512H178.705C177.126 367.512 176.006 367.789 175.345 368.344C174.705 368.877 174.385 369.549 174.385 370.36C174.385 371.192 174.683 371.864 175.281 372.376C175.899 372.867 176.763 373.112 177.873 373.112ZM196.569 375.384C194.671 375.384 193.092 374.904 191.833 373.944C190.575 372.984 189.839 371.683 189.625 370.04H192.377C192.548 370.872 192.985 371.597 193.689 372.216C194.415 372.813 195.385 373.112 196.601 373.112C197.732 373.112 198.564 372.877 199.097 372.408C199.631 371.917 199.897 371.341 199.897 370.68C199.897 369.72 199.545 369.08 198.841 368.76C198.159 368.44 197.188 368.152 195.929 367.896C195.076 367.725 194.223 367.48 193.369 367.16C192.516 366.84 191.801 366.392 191.225 365.816C190.649 365.219 190.361 364.44 190.361 363.48C190.361 362.093 190.873 360.963 191.897 360.088C192.943 359.192 194.351 358.744 196.121 358.744C197.807 358.744 199.183 359.171 200.249 360.024C201.337 360.856 201.967 362.051 202.137 363.608H199.481C199.375 362.797 199.023 362.168 198.425 361.72C197.849 361.251 197.071 361.016 196.089 361.016C195.129 361.016 194.383 361.219 193.849 361.624C193.337 362.029 193.081 362.563 193.081 363.224C193.081 363.864 193.412 364.365 194.073 364.728C194.756 365.091 195.673 365.4 196.825 365.656C197.807 365.869 198.735 366.136 199.609 366.456C200.505 366.755 201.231 367.213 201.785 367.832C202.361 368.429 202.649 369.304 202.649 370.456C202.671 371.885 202.127 373.069 201.017 374.008C199.929 374.925 198.447 375.384 196.569 375.384ZM213.043 375C211.592 375 210.451 374.648 209.619 373.944C208.787 373.24 208.371 371.971 208.371 370.136V361.4H205.618V359.128H208.371L208.723 355.32H211.059V359.128H215.731V361.4H211.059V370.136C211.059 371.139 211.261 371.821 211.667 372.184C212.072 372.525 212.787 372.696 213.811 372.696H215.475V375H213.043ZM220.146 375V359.128H222.578L222.802 362.168C223.292 361.123 224.039 360.291 225.042 359.672C226.044 359.053 227.282 358.744 228.754 358.744V361.56H228.018C227.079 361.56 226.215 361.731 225.426 362.072C224.636 362.392 224.007 362.947 223.538 363.736C223.068 364.525 222.834 365.613 222.834 367V375H220.146ZM239.409 375.384C237.915 375.384 236.571 375.043 235.377 374.36C234.182 373.677 233.233 372.717 232.529 371.48C231.846 370.221 231.505 368.749 231.505 367.064C231.505 365.379 231.857 363.917 232.561 362.68C233.265 361.421 234.214 360.451 235.409 359.768C236.625 359.085 237.979 358.744 239.473 358.744C240.966 358.744 242.31 359.085 243.505 359.768C244.699 360.451 245.638 361.421 246.321 362.68C247.025 363.917 247.377 365.379 247.377 367.064C247.377 368.749 247.025 370.221 246.321 371.48C245.617 372.717 244.657 373.677 243.441 374.36C242.246 375.043 240.902 375.384 239.409 375.384ZM239.409 373.08C240.326 373.08 241.179 372.856 241.969 372.408C242.758 371.96 243.398 371.288 243.889 370.392C244.379 369.496 244.625 368.387 244.625 367.064C244.625 365.741 244.379 364.632 243.889 363.736C243.419 362.84 242.79 362.168 242.001 361.72C241.211 361.272 240.369 361.048 239.473 361.048C238.555 361.048 237.702 361.272 236.913 361.72C236.123 362.168 235.483 362.84 234.993 363.736C234.502 364.632 234.257 365.741 234.257 367.064C234.257 368.387 234.502 369.496 234.993 370.392C235.483 371.288 236.113 371.96 236.881 372.408C237.67 372.856 238.513 373.08 239.409 373.08ZM253.042 375.16C252.509 375.16 252.061 374.989 251.698 374.648C251.357 374.285 251.186 373.848 251.186 373.336C251.186 372.824 251.357 372.397 251.698 372.056C252.061 371.693 252.509 371.512 253.042 371.512C253.554 371.512 253.981 371.693 254.322 372.056C254.685 372.397 254.866 372.824 254.866 373.336C254.866 373.848 254.685 374.285 254.322 374.648C253.981 374.989 253.554 375.16 253.042 375.16ZM268.993 375V352.6H276.865C278.444 352.6 279.745 352.856 280.769 353.368C281.814 353.859 282.593 354.541 283.105 355.416C283.617 356.269 283.873 357.229 283.873 358.296C283.873 359.747 283.478 360.888 282.689 361.72C281.921 362.552 280.993 363.128 279.905 363.448C280.737 363.597 281.494 363.928 282.177 364.44C282.86 364.952 283.393 365.592 283.777 366.36C284.182 367.128 284.385 367.971 284.385 368.888C284.385 370.019 284.108 371.053 283.553 371.992C282.998 372.909 282.177 373.645 281.089 374.2C280.001 374.733 278.678 375 277.121 375H268.993ZM271.681 362.392H276.673C278.102 362.392 279.201 362.061 279.969 361.4C280.737 360.717 281.121 359.779 281.121 358.584C281.121 357.453 280.737 356.547 279.969 355.864C279.222 355.181 278.092 354.84 276.577 354.84H271.681V362.392ZM271.681 372.76H276.833C278.369 372.76 279.553 372.408 280.385 371.704C281.217 370.979 281.633 369.976 281.633 368.696C281.633 367.437 281.196 366.435 280.321 365.688C279.446 364.92 278.262 364.536 276.769 364.536H271.681V372.76ZM294.363 375.384C293.04 375.384 291.942 375.16 291.067 374.712C290.192 374.264 289.542 373.667 289.115 372.92C288.688 372.173 288.475 371.363 288.475 370.488C288.475 368.867 289.094 367.619 290.331 366.744C291.568 365.869 293.254 365.432 295.387 365.432H299.675V365.24C299.675 363.853 299.312 362.808 298.587 362.104C297.862 361.379 296.891 361.016 295.675 361.016C294.63 361.016 293.723 361.283 292.955 361.816C292.208 362.328 291.739 363.085 291.547 364.088H288.795C288.902 362.936 289.286 361.965 289.947 361.176C290.63 360.387 291.472 359.789 292.475 359.384C293.478 358.957 294.544 358.744 295.675 358.744C297.894 358.744 299.558 359.341 300.667 360.536C301.798 361.709 302.363 363.277 302.363 365.24V375H299.963L299.803 372.152C299.355 373.048 298.694 373.816 297.819 374.456C296.966 375.075 295.814 375.384 294.363 375.384ZM294.779 373.112C295.803 373.112 296.678 372.845 297.403 372.312C298.15 371.779 298.715 371.085 299.099 370.232C299.483 369.379 299.675 368.483 299.675 367.544V367.512H295.611C294.032 367.512 292.912 367.789 292.251 368.344C291.611 368.877 291.291 369.549 291.291 370.36C291.291 371.192 291.59 371.864 292.187 372.376C292.806 372.867 293.67 373.112 294.779 373.112ZM313.476 375.384C311.577 375.384 309.998 374.904 308.74 373.944C307.481 372.984 306.745 371.683 306.532 370.04H309.284C309.454 370.872 309.892 371.597 310.596 372.216C311.321 372.813 312.292 373.112 313.508 373.112C314.638 373.112 315.47 372.877 316.004 372.408C316.537 371.917 316.804 371.341 316.804 370.68C316.804 369.72 316.452 369.08 315.748 368.76C315.065 368.44 314.094 368.152 312.836 367.896C311.982 367.725 311.129 367.48 310.276 367.16C309.422 366.84 308.708 366.392 308.132 365.816C307.556 365.219 307.268 364.44 307.268 363.48C307.268 362.093 307.78 360.963 308.804 360.088C309.849 359.192 311.257 358.744 313.028 358.744C314.713 358.744 316.089 359.171 317.156 360.024C318.244 360.856 318.873 362.051 319.044 363.608H316.388C316.281 362.797 315.929 362.168 315.332 361.72C314.756 361.251 313.977 361.016 312.996 361.016C312.036 361.016 311.289 361.219 310.756 361.624C310.244 362.029 309.988 362.563 309.988 363.224C309.988 363.864 310.318 364.365 310.98 364.728C311.662 365.091 312.58 365.4 313.732 365.656C314.713 365.869 315.641 366.136 316.516 366.456C317.412 366.755 318.137 367.213 318.692 367.832C319.268 368.429 319.556 369.304 319.556 370.456C319.577 371.885 319.033 373.069 317.924 374.008C316.836 374.925 315.353 375.384 313.476 375.384ZM329.949 375C328.498 375 327.357 374.648 326.525 373.944C325.693 373.24 325.277 371.971 325.277 370.136V361.4H322.525V359.128H325.277L325.629 355.32H327.965V359.128H332.637V361.4H327.965V370.136C327.965 371.139 328.167 371.821 328.573 372.184C328.978 372.525 329.693 372.696 330.717 372.696H332.381V375H329.949ZM342.332 375.384C341.009 375.384 339.91 375.16 339.036 374.712C338.161 374.264 337.51 373.667 337.084 372.92C336.657 372.173 336.444 371.363 336.444 370.488C336.444 368.867 337.062 367.619 338.3 366.744C339.537 365.869 341.222 365.432 343.356 365.432H347.644V365.24C347.644 363.853 347.281 362.808 346.556 362.104C345.83 361.379 344.86 361.016 343.644 361.016C342.598 361.016 341.692 361.283 340.924 361.816C340.177 362.328 339.708 363.085 339.516 364.088H336.764C336.87 362.936 337.254 361.965 337.916 361.176C338.598 360.387 339.441 359.789 340.444 359.384C341.446 358.957 342.513 358.744 343.644 358.744C345.862 358.744 347.526 359.341 348.636 360.536C349.766 361.709 350.332 363.277 350.332 365.24V375H347.932L347.772 372.152C347.324 373.048 346.662 373.816 345.788 374.456C344.934 375.075 343.782 375.384 342.332 375.384ZM342.748 373.112C343.772 373.112 344.646 372.845 345.372 372.312C346.118 371.779 346.684 371.085 347.068 370.232C347.452 369.379 347.644 368.483 347.644 367.544V367.512H343.58C342.001 367.512 340.881 367.789 340.22 368.344C339.58 368.877 339.26 369.549 339.26 370.36C339.26 371.192 339.558 371.864 340.156 372.376C340.774 372.867 341.638 373.112 342.748 373.112ZM370.113 375.384C368.79 375.384 367.692 375.16 366.817 374.712C365.942 374.264 365.292 373.667 364.865 372.92C364.438 372.173 364.225 371.363 364.225 370.488C364.225 368.867 364.844 367.619 366.081 366.744C367.318 365.869 369.004 365.432 371.137 365.432H375.425V365.24C375.425 363.853 375.062 362.808 374.337 362.104C373.612 361.379 372.641 361.016 371.425 361.016C370.38 361.016 369.473 361.283 368.705 361.816C367.958 362.328 367.489 363.085 367.297 364.088H364.545C364.652 362.936 365.036 361.965 365.697 361.176C366.38 360.387 367.222 359.789 368.225 359.384C369.228 358.957 370.294 358.744 371.425 358.744C373.644 358.744 375.308 359.341 376.417 360.536C377.548 361.709 378.113 363.277 378.113 365.24V375H375.713L375.553 372.152C375.105 373.048 374.444 373.816 373.569 374.456C372.716 375.075 371.564 375.384 370.113 375.384ZM370.529 373.112C371.553 373.112 372.428 372.845 373.153 372.312C373.9 371.779 374.465 371.085 374.849 370.232C375.233 369.379 375.425 368.483 375.425 367.544V367.512H371.361C369.782 367.512 368.662 367.789 368.001 368.344C367.361 368.877 367.041 369.549 367.041 370.36C367.041 371.192 367.34 371.864 367.937 372.376C368.556 372.867 369.42 373.112 370.529 373.112ZM383.146 375V359.128H385.578L385.738 361.976C386.25 360.973 386.986 360.184 387.946 359.608C388.906 359.032 389.994 358.744 391.21 358.744C393.087 358.744 394.58 359.32 395.69 360.472C396.82 361.603 397.385 363.352 397.385 365.72V375H394.698V366.008C394.698 362.701 393.332 361.048 390.602 361.048C389.236 361.048 388.095 361.549 387.178 362.552C386.282 363.533 385.834 364.941 385.834 366.776V375H383.146ZM409.594 375.384C408.079 375.384 406.735 375.043 405.562 374.36C404.389 373.656 403.461 372.685 402.778 371.448C402.117 370.211 401.786 368.749 401.786 367.064C401.786 365.4 402.117 363.949 402.778 362.712C403.439 361.453 404.357 360.483 405.53 359.8C406.725 359.096 408.101 358.744 409.658 358.744C411.194 358.744 412.517 359.096 413.626 359.8C414.757 360.483 415.621 361.389 416.218 362.52C416.815 363.651 417.114 364.867 417.114 366.168C417.114 366.403 417.103 366.637 417.082 366.872C417.082 367.107 417.082 367.373 417.082 367.672H404.442C404.506 368.888 404.783 369.901 405.274 370.712C405.786 371.501 406.415 372.099 407.162 372.504C407.93 372.909 408.741 373.112 409.594 373.112C410.703 373.112 411.631 372.856 412.378 372.344C413.125 371.832 413.669 371.139 414.01 370.264H416.666C416.239 371.736 415.418 372.963 414.202 373.944C413.007 374.904 411.471 375.384 409.594 375.384ZM409.594 361.016C408.314 361.016 407.173 361.411 406.17 362.2C405.189 362.968 404.623 364.099 404.474 365.592H414.458C414.394 364.163 413.903 363.043 412.986 362.232C412.069 361.421 410.938 361.016 409.594 361.016ZM419.327 375L424.831 367.064L419.327 359.128H422.239L426.687 365.688L431.167 359.128H434.047L428.543 367.064L434.047 375H431.167L426.687 368.44L422.239 375H419.327ZM443.051 375.384C441.728 375.384 440.629 375.16 439.755 374.712C438.88 374.264 438.229 373.667 437.803 372.92C437.376 372.173 437.163 371.363 437.163 370.488C437.163 368.867 437.781 367.619 439.019 366.744C440.256 365.869 441.941 365.432 444.075 365.432H448.363V365.24C448.363 363.853 448 362.808 447.275 362.104C446.549 361.379 445.579 361.016 444.363 361.016C443.317 361.016 442.411 361.283 441.643 361.816C440.896 362.328 440.427 363.085 440.235 364.088H437.483C437.589 362.936 437.973 361.965 438.635 361.176C439.317 360.387 440.16 359.789 441.163 359.384C442.165 358.957 443.232 358.744 444.363 358.744C446.581 358.744 448.245 359.341 449.355 360.536C450.485 361.709 451.051 363.277 451.051 365.24V375H448.651L448.491 372.152C448.043 373.048 447.381 373.816 446.507 374.456C445.653 375.075 444.501 375.384 443.051 375.384ZM443.467 373.112C444.491 373.112 445.365 372.845 446.091 372.312C446.837 371.779 447.403 371.085 447.787 370.232C448.171 369.379 448.363 368.483 448.363 367.544V367.512H444.299C442.72 367.512 441.6 367.789 440.939 368.344C440.299 368.877 439.979 369.549 439.979 370.36C439.979 371.192 440.277 371.864 440.875 372.376C441.493 372.867 442.357 373.112 443.467 373.112ZM456.083 375V359.128H458.515L458.739 362.168C459.23 361.123 459.976 360.291 460.979 359.672C461.982 359.053 463.219 358.744 464.691 358.744V361.56H463.955C463.016 361.56 462.152 361.731 461.363 362.072C460.574 362.392 459.944 362.947 459.475 363.736C459.006 364.525 458.771 365.613 458.771 367V375H456.083ZM80.8661 423.384C78.9675 423.384 77.3888 422.904 76.1301 421.944C74.8715 420.984 74.1355 419.683 73.9221 418.04H76.6741C76.8448 418.872 77.2821 419.597 77.9861 420.216C78.7115 420.813 79.6821 421.112 80.8981 421.112C82.0288 421.112 82.8608 420.877 83.3941 420.408C83.9275 419.917 84.1941 419.341 84.1941 418.68C84.1941 417.72 83.8421 417.08 83.1381 416.76C82.4555 416.44 81.4848 416.152 80.2261 415.896C79.3728 415.725 78.5195 415.48 77.6661 415.16C76.8128 414.84 76.0981 414.392 75.5221 413.816C74.9461 413.219 74.6581 412.44 74.6581 411.48C74.6581 410.093 75.1701 408.963 76.1941 408.088C77.2395 407.192 78.6475 406.744 80.4181 406.744C82.1035 406.744 83.4795 407.171 84.5461 408.024C85.6341 408.856 86.2635 410.051 86.4341 411.608H83.7781C83.6715 410.797 83.3195 410.168 82.7221 409.72C82.1461 409.251 81.3675 409.016 80.3861 409.016C79.4261 409.016 78.6795 409.219 78.1461 409.624C77.6341 410.029 77.3781 410.563 77.3781 411.224C77.3781 411.864 77.7088 412.365 78.3701 412.728C79.0528 413.091 79.9701 413.4 81.1221 413.656C82.1035 413.869 83.0315 414.136 83.9061 414.456C84.8021 414.755 85.5275 415.213 86.0821 415.832C86.6581 416.429 86.9461 417.304 86.9461 418.456C86.9675 419.885 86.4235 421.069 85.3141 422.008C84.2261 422.925 82.7435 423.384 80.8661 423.384ZM98.9221 423.384C97.4075 423.384 96.0635 423.043 94.8901 422.36C93.7168 421.656 92.7888 420.685 92.1061 419.448C91.4448 418.211 91.1141 416.749 91.1141 415.064C91.1141 413.4 91.4448 411.949 92.1061 410.712C92.7675 409.453 93.6848 408.483 94.8581 407.8C96.0528 407.096 97.4288 406.744 98.9861 406.744C100.522 406.744 101.845 407.096 102.954 407.8C104.085 408.483 104.949 409.389 105.546 410.52C106.143 411.651 106.442 412.867 106.442 414.168C106.442 414.403 106.431 414.637 106.41 414.872C106.41 415.107 106.41 415.373 106.41 415.672H93.7701C93.8341 416.888 94.1115 417.901 94.6021 418.712C95.1141 419.501 95.7435 420.099 96.4901 420.504C97.2581 420.909 98.0688 421.112 98.9221 421.112C100.031 421.112 100.959 420.856 101.706 420.344C102.453 419.832 102.997 419.139 103.338 418.264H105.994C105.567 419.736 104.746 420.963 103.53 421.944C102.335 422.904 100.799 423.384 98.9221 423.384ZM98.9221 409.016C97.6421 409.016 96.5008 409.411 95.4981 410.2C94.5168 410.968 93.9515 412.099 93.8021 413.592H103.786C103.722 412.163 103.231 411.043 102.314 410.232C101.397 409.421 100.266 409.016 98.9221 409.016ZM116.797 423.384C114.92 423.384 113.426 422.819 112.317 421.688C111.208 420.536 110.653 418.776 110.653 416.408V407.128H113.341V416.12C113.341 419.427 114.696 421.08 117.405 421.08C118.792 421.08 119.933 420.589 120.829 419.608C121.746 418.605 122.205 417.187 122.205 415.352V407.128H124.893V423H122.461L122.269 420.152C121.778 421.155 121.042 421.944 120.061 422.52C119.101 423.096 118.013 423.384 116.797 423.384ZM147.082 423.384C145.567 423.384 144.202 423.043 142.986 422.36C141.791 421.656 140.842 420.685 140.138 419.448C139.455 418.189 139.114 416.728 139.114 415.064C139.114 413.4 139.455 411.949 140.138 410.712C140.842 409.453 141.791 408.483 142.986 407.8C144.202 407.096 145.567 406.744 147.082 406.744C148.959 406.744 150.538 407.235 151.818 408.216C153.119 409.197 153.941 410.509 154.282 412.152H151.53C151.317 411.171 150.794 410.413 149.962 409.88C149.13 409.325 148.159 409.048 147.05 409.048C146.154 409.048 145.311 409.272 144.522 409.72C143.733 410.168 143.093 410.84 142.602 411.736C142.111 412.632 141.866 413.741 141.866 415.064C141.866 416.387 142.111 417.496 142.602 418.392C143.093 419.288 143.733 419.971 144.522 420.44C145.311 420.888 146.154 421.112 147.05 421.112C148.159 421.112 149.13 420.845 149.962 420.312C150.794 419.757 151.317 418.979 151.53 417.976H154.282C153.962 419.576 153.151 420.877 151.85 421.88C150.549 422.883 148.959 423.384 147.082 423.384ZM164.828 423.384C162.951 423.384 161.457 422.819 160.348 421.688C159.239 420.536 158.684 418.776 158.684 416.408V407.128H161.372V416.12C161.372 419.427 162.727 421.08 165.436 421.08C166.823 421.08 167.964 420.589 168.86 419.608C169.777 418.605 170.236 417.187 170.236 415.352V407.128H172.924V423H170.492L170.3 420.152C169.809 421.155 169.073 421.944 168.092 422.52C167.132 423.096 166.044 423.384 164.828 423.384ZM178.349 423V407.128H180.781L181.005 410.168C181.495 409.123 182.242 408.291 183.245 407.672C184.247 407.053 185.485 406.744 186.957 406.744V409.56H186.221C185.282 409.56 184.418 409.731 183.629 410.072C182.839 410.392 182.21 410.947 181.741 411.736C181.271 412.525 181.037 413.613 181.037 415V423H178.349ZM190.974 423V407.128H193.406L193.63 410.168C194.12 409.123 194.867 408.291 195.87 407.672C196.872 407.053 198.11 406.744 199.582 406.744V409.56H198.846C197.907 409.56 197.043 409.731 196.254 410.072C195.464 410.392 194.835 410.947 194.366 411.736C193.896 412.525 193.662 413.613 193.662 415V423H190.974ZM203.599 423V407.128H206.287V423H203.599ZM204.207 405.816V403.8L210.927 399.736V402.072L204.207 405.816ZM218.988 423.384C217.474 423.384 216.108 423.043 214.892 422.36C213.698 421.656 212.748 420.685 212.044 419.448C211.362 418.189 211.02 416.728 211.02 415.064C211.02 413.4 211.362 411.949 212.044 410.712C212.748 409.453 213.698 408.483 214.892 407.8C216.108 407.096 217.474 406.744 218.988 406.744C220.866 406.744 222.444 407.235 223.724 408.216C225.026 409.197 225.847 410.509 226.188 412.152H223.436C223.223 411.171 222.7 410.413 221.868 409.88C221.036 409.325 220.066 409.048 218.956 409.048C218.06 409.048 217.218 409.272 216.428 409.72C215.639 410.168 214.999 410.84 214.508 411.736C214.018 412.632 213.772 413.741 213.772 415.064C213.772 416.387 214.018 417.496 214.508 418.392C214.999 419.288 215.639 419.971 216.428 420.44C217.218 420.888 218.06 421.112 218.956 421.112C220.066 421.112 221.036 420.845 221.868 420.312C222.7 419.757 223.223 418.979 223.436 417.976H226.188C225.868 419.576 225.058 420.877 223.756 421.88C222.455 422.883 220.866 423.384 218.988 423.384ZM236.734 423.384C234.857 423.384 233.364 422.819 232.254 421.688C231.145 420.536 230.59 418.776 230.59 416.408V407.128H233.278V416.12C233.278 419.427 234.633 421.08 237.342 421.08C238.729 421.08 239.87 420.589 240.766 419.608C241.684 418.605 242.142 417.187 242.142 415.352V407.128H244.83V423H242.398L242.206 420.152C241.716 421.155 240.98 421.944 239.998 422.52C239.038 423.096 237.95 423.384 236.734 423.384ZM250.255 423V399.96H252.943V423H250.255ZM265.581 423.384C264.087 423.384 262.743 423.043 261.549 422.36C260.354 421.677 259.405 420.717 258.701 419.48C258.018 418.221 257.677 416.749 257.677 415.064C257.677 413.379 258.029 411.917 258.733 410.68C259.437 409.421 260.386 408.451 261.581 407.768C262.797 407.085 264.151 406.744 265.645 406.744C267.138 406.744 268.482 407.085 269.677 407.768C270.871 408.451 271.81 409.421 272.493 410.68C273.197 411.917 273.549 413.379 273.549 415.064C273.549 416.749 273.197 418.221 272.493 419.48C271.789 420.717 270.829 421.677 269.613 422.36C268.418 423.043 267.074 423.384 265.581 423.384ZM265.581 421.08C266.498 421.08 267.351 420.856 268.141 420.408C268.93 419.96 269.57 419.288 270.061 418.392C270.551 417.496 270.797 416.387 270.797 415.064C270.797 413.741 270.551 412.632 270.061 411.736C269.591 410.84 268.962 410.168 268.173 409.72C267.383 409.272 266.541 409.048 265.645 409.048C264.727 409.048 263.874 409.272 263.085 409.72C262.295 410.168 261.655 410.84 261.165 411.736C260.674 412.632 260.429 413.741 260.429 415.064C260.429 416.387 260.674 417.496 261.165 418.392C261.655 419.288 262.285 419.96 263.053 420.408C263.842 420.856 264.685 421.08 265.581 421.08ZM294.891 423.384C293.376 423.384 292.032 423.043 290.859 422.36C289.686 421.656 288.758 420.685 288.075 419.448C287.414 418.211 287.083 416.749 287.083 415.064C287.083 413.4 287.414 411.949 288.075 410.712C288.736 409.453 289.654 408.483 290.827 407.8C292.022 407.096 293.398 406.744 294.955 406.744C296.491 406.744 297.814 407.096 298.923 407.8C300.054 408.483 300.918 409.389 301.515 410.52C302.112 411.651 302.411 412.867 302.411 414.168C302.411 414.403 302.4 414.637 302.379 414.872C302.379 415.107 302.379 415.373 302.379 415.672H289.739C289.803 416.888 290.08 417.901 290.571 418.712C291.083 419.501 291.712 420.099 292.459 420.504C293.227 420.909 294.038 421.112 294.891 421.112C296 421.112 296.928 420.856 297.675 420.344C298.422 419.832 298.966 419.139 299.307 418.264H301.963C301.536 419.736 300.715 420.963 299.499 421.944C298.304 422.904 296.768 423.384 294.891 423.384ZM294.891 409.016C293.611 409.016 292.47 409.411 291.467 410.2C290.486 410.968 289.92 412.099 289.771 413.592H299.755C299.691 412.163 299.2 411.043 298.283 410.232C297.366 409.421 296.235 409.016 294.891 409.016ZM316.442 430.04V407.128H318.874L319.13 409.752C319.642 408.984 320.368 408.291 321.306 407.672C322.266 407.053 323.482 406.744 324.954 406.744C326.533 406.744 327.909 407.107 329.082 407.832C330.256 408.557 331.162 409.549 331.802 410.808C332.464 412.067 332.794 413.496 332.794 415.096C332.794 416.696 332.464 418.125 331.802 419.384C331.162 420.621 330.245 421.603 329.05 422.328C327.877 423.032 326.501 423.384 324.922 423.384C323.621 423.384 322.458 423.117 321.434 422.584C320.432 422.051 319.664 421.304 319.13 420.344V430.04H316.442ZM324.634 421.048C325.701 421.048 326.64 420.803 327.45 420.312C328.261 419.8 328.901 419.096 329.37 418.2C329.84 417.304 330.074 416.259 330.074 415.064C330.074 413.869 329.84 412.824 329.37 411.928C328.901 411.032 328.261 410.339 327.45 409.848C326.64 409.336 325.701 409.08 324.634 409.08C323.568 409.08 322.629 409.336 321.818 409.848C321.008 410.339 320.368 411.032 319.898 411.928C319.429 412.824 319.194 413.869 319.194 415.064C319.194 416.259 319.429 417.304 319.898 418.2C320.368 419.096 321.008 419.8 321.818 420.312C322.629 420.803 323.568 421.048 324.634 421.048ZM337.536 423V407.128H339.968L340.192 410.168C340.683 409.123 341.429 408.291 342.432 407.672C343.435 407.053 344.672 406.744 346.144 406.744V409.56H345.408C344.469 409.56 343.605 409.731 342.816 410.072C342.027 410.392 341.397 410.947 340.928 411.736C340.459 412.525 340.224 413.613 340.224 415V423H337.536ZM356.799 423.384C355.306 423.384 353.962 423.043 352.767 422.36C351.573 421.677 350.623 420.717 349.919 419.48C349.237 418.221 348.895 416.749 348.895 415.064C348.895 413.379 349.247 411.917 349.951 410.68C350.655 409.421 351.605 408.451 352.799 407.768C354.015 407.085 355.37 406.744 356.863 406.744C358.357 406.744 359.701 407.085 360.895 407.768C362.09 408.451 363.029 409.421 363.711 410.68C364.415 411.917 364.767 413.379 364.767 415.064C364.767 416.749 364.415 418.221 363.711 419.48C363.007 420.717 362.047 421.677 360.831 422.36C359.637 423.043 358.293 423.384 356.799 423.384ZM356.799 421.08C357.717 421.08 358.57 420.856 359.359 420.408C360.149 419.96 360.789 419.288 361.279 418.392C361.77 417.496 362.015 416.387 362.015 415.064C362.015 413.741 361.77 412.632 361.279 411.736C360.81 410.84 360.181 410.168 359.391 409.72C358.602 409.272 357.759 409.048 356.863 409.048C355.946 409.048 355.093 409.272 354.303 409.72C353.514 410.168 352.874 410.84 352.383 411.736C351.893 412.632 351.647 413.741 351.647 415.064C351.647 416.387 351.893 417.496 352.383 418.392C352.874 419.288 353.503 419.96 354.271 420.408C355.061 420.856 355.903 421.08 356.799 421.08ZM369.505 423V407.128H371.937L372.097 409.976C372.609 408.973 373.345 408.184 374.305 407.608C375.265 407.032 376.353 406.744 377.569 406.744C379.446 406.744 380.94 407.32 382.049 408.472C383.18 409.603 383.745 411.352 383.745 413.72V423H381.057V414.008C381.057 410.701 379.692 409.048 376.961 409.048C375.596 409.048 374.454 409.549 373.537 410.552C372.641 411.533 372.193 412.941 372.193 414.776V423H369.505ZM395.089 423C393.639 423 392.497 422.648 391.665 421.944C390.833 421.24 390.417 419.971 390.417 418.136V409.4H387.665V407.128H390.417L390.769 403.32H393.105V407.128H397.777V409.4H393.105V418.136C393.105 419.139 393.308 419.821 393.713 420.184C394.119 420.525 394.833 420.696 395.857 420.696H397.521V423H395.089ZM408.987 423.384C407.494 423.384 406.15 423.043 404.955 422.36C403.76 421.677 402.811 420.717 402.107 419.48C401.424 418.221 401.083 416.749 401.083 415.064C401.083 413.379 401.435 411.917 402.139 410.68C402.843 409.421 403.792 408.451 404.987 407.768C406.203 407.085 407.558 406.744 409.051 406.744C410.544 406.744 411.888 407.085 413.083 407.768C414.278 408.451 415.216 409.421 415.899 410.68C416.603 411.917 416.955 413.379 416.955 415.064C416.955 416.749 416.603 418.221 415.899 419.48C415.195 420.717 414.235 421.677 413.019 422.36C411.824 423.043 410.48 423.384 408.987 423.384ZM408.987 421.08C409.904 421.08 410.758 420.856 411.547 420.408C412.336 419.96 412.976 419.288 413.467 418.392C413.958 417.496 414.203 416.387 414.203 415.064C414.203 413.741 413.958 412.632 413.467 411.736C412.998 410.84 412.368 410.168 411.579 409.72C410.79 409.272 409.947 409.048 409.051 409.048C408.134 409.048 407.28 409.272 406.491 409.72C405.702 410.168 405.062 410.84 404.571 411.736C404.08 412.632 403.835 413.741 403.835 415.064C403.835 416.387 404.08 417.496 404.571 418.392C405.062 419.288 405.691 419.96 406.459 420.408C407.248 420.856 408.091 421.08 408.987 421.08ZM422.268 416.792L421.948 400.6H424.86L424.54 416.792H422.268ZM423.484 423.16C422.951 423.16 422.503 422.989 422.14 422.648C421.799 422.285 421.628 421.848 421.628 421.336C421.628 420.824 421.799 420.397 422.14 420.056C422.503 419.693 422.951 419.512 423.484 419.512C423.996 419.512 424.423 419.693 424.764 420.056C425.127 420.397 425.308 420.824 425.308 421.336C425.308 421.848 425.127 422.285 424.764 422.648C424.423 422.989 423.996 423.16 423.484 423.16Z" fill="#333333"/>
<path d="M61 228.973C61 209.628 76.6821 193.946 96.027 193.946H403.608C422.953 193.946 438.635 209.628 438.635 228.973C438.635 248.318 422.953 264 403.608 264H96.0271C76.6822 264 61 248.318 61 228.973Z" fill="url(#paint0_linear_3881_4326)"/>
<path d="M180.966 235V222.74H188.759V224.246H182.822V228.064H188.234V229.535H182.822V233.493H188.759V235H180.966ZM191.722 235V226.313H193.368L193.508 227.836C193.777 227.299 194.168 226.879 194.682 226.576C195.207 226.26 195.808 226.103 196.486 226.103C197.536 226.103 198.36 226.43 198.955 227.083C199.562 227.737 199.866 228.712 199.866 230.008V235H198.027V230.201C198.027 228.52 197.338 227.679 195.96 227.679C195.271 227.679 194.699 227.924 194.244 228.414C193.8 228.905 193.578 229.605 193.578 230.516V235H191.722ZM205.171 235L201.913 226.313H203.857L206.274 233.231L208.691 226.313H210.617L207.377 235H205.171ZM214.015 224.667C213.664 224.667 213.373 224.561 213.139 224.351C212.917 224.129 212.806 223.855 212.806 223.528C212.806 223.201 212.917 222.933 213.139 222.723C213.373 222.501 213.664 222.39 214.015 222.39C214.365 222.39 214.651 222.501 214.873 222.723C215.106 222.933 215.223 223.201 215.223 223.528C215.223 223.855 215.106 224.129 214.873 224.351C214.651 224.561 214.365 224.667 214.015 224.667ZM213.087 235V226.313H214.943V235H213.087ZM221.157 235.21C220.421 235.21 219.814 235.087 219.335 234.842C218.857 234.597 218.501 234.276 218.267 233.879C218.034 233.47 217.917 233.026 217.917 232.548C217.917 231.707 218.244 231.041 218.898 230.551C219.551 230.061 220.486 229.816 221.7 229.816H223.977V229.658C223.977 228.981 223.79 228.473 223.416 228.134C223.054 227.796 222.581 227.626 221.998 227.626C221.484 227.626 221.034 227.755 220.649 228.012C220.275 228.257 220.048 228.625 219.966 229.115H218.11C218.168 228.484 218.378 227.947 218.74 227.504C219.114 227.048 219.581 226.704 220.141 226.47C220.713 226.225 221.338 226.103 222.015 226.103C223.229 226.103 224.169 226.424 224.835 227.066C225.5 227.696 225.833 228.56 225.833 229.658V235H224.222L224.064 233.511C223.819 233.99 223.463 234.392 222.996 234.719C222.529 235.046 221.916 235.21 221.157 235.21ZM221.525 233.704C222.027 233.704 222.447 233.587 222.786 233.353C223.136 233.108 223.404 232.787 223.591 232.39C223.79 231.993 223.912 231.555 223.959 231.076H221.892C221.157 231.076 220.631 231.205 220.316 231.462C220.013 231.719 219.861 232.04 219.861 232.425C219.861 232.822 220.007 233.137 220.299 233.371C220.602 233.593 221.011 233.704 221.525 233.704ZM228.818 235V226.313H230.482L230.64 227.959C230.943 227.387 231.364 226.937 231.901 226.611C232.45 226.272 233.109 226.103 233.88 226.103V228.047H233.372C232.858 228.047 232.397 228.134 231.988 228.309C231.591 228.473 231.27 228.759 231.025 229.168C230.792 229.564 230.675 230.119 230.675 230.831V235H228.818ZM245.642 235.21C244.789 235.21 244.025 235.017 243.347 234.632C242.682 234.246 242.157 233.715 241.771 233.038C241.398 232.349 241.211 231.555 241.211 230.656C241.211 229.757 241.398 228.969 241.771 228.292C242.157 227.603 242.682 227.066 243.347 226.681C244.025 226.295 244.789 226.103 245.642 226.103C246.716 226.103 247.615 226.383 248.339 226.943C249.074 227.504 249.547 228.263 249.757 229.22H247.813C247.697 228.741 247.44 228.368 247.043 228.099C246.646 227.831 246.179 227.696 245.642 227.696C245.186 227.696 244.766 227.813 244.381 228.047C243.995 228.268 243.686 228.601 243.453 229.045C243.219 229.477 243.102 230.014 243.102 230.656C243.102 231.298 243.219 231.841 243.453 232.285C243.686 232.717 243.995 233.05 244.381 233.283C244.766 233.517 245.186 233.633 245.642 233.633C246.179 233.633 246.646 233.499 247.043 233.231C247.44 232.962 247.697 232.583 247.813 232.092H249.757C249.559 233.026 249.092 233.779 248.356 234.352C247.621 234.924 246.716 235.21 245.642 235.21ZM255.797 235.21C254.746 235.21 253.917 234.883 253.31 234.229C252.714 233.575 252.417 232.6 252.417 231.304V226.313H254.273V231.112C254.273 232.793 254.962 233.633 256.34 233.633C257.028 233.633 257.595 233.388 258.038 232.898C258.482 232.408 258.704 231.707 258.704 230.796V226.313H260.56V235H258.914L258.774 233.476C258.505 234.013 258.108 234.439 257.583 234.754C257.069 235.058 256.474 235.21 255.797 235.21ZM263.743 235V226.313H265.407L265.564 227.959C265.868 227.387 266.288 226.937 266.825 226.611C267.374 226.272 268.034 226.103 268.804 226.103V228.047H268.296C267.783 228.047 267.321 228.134 266.913 228.309C266.516 228.473 266.195 228.759 265.95 229.168C265.716 229.564 265.599 230.119 265.599 230.831V235H263.743ZM271.217 235V226.313H272.881L273.038 227.959C273.342 227.387 273.762 226.937 274.299 226.611C274.848 226.272 275.508 226.103 276.278 226.103V228.047H275.77C275.257 228.047 274.796 228.134 274.387 228.309C273.99 228.473 273.669 228.759 273.424 229.168C273.19 229.564 273.073 230.119 273.073 230.831V235H271.217ZM278.691 235V226.313H280.547V235H278.691ZM279.129 225.595V224.264L282.947 222.092V223.633L279.129 225.595ZM287.835 235.21C286.983 235.21 286.218 235.017 285.541 234.632C284.875 234.246 284.35 233.715 283.964 233.038C283.591 232.349 283.404 231.555 283.404 230.656C283.404 229.757 283.591 228.969 283.964 228.292C284.35 227.603 284.875 227.066 285.541 226.681C286.218 226.295 286.983 226.103 287.835 226.103C288.909 226.103 289.808 226.383 290.532 226.943C291.268 227.504 291.74 228.263 291.951 229.22H290.007C289.89 228.741 289.633 228.368 289.236 228.099C288.839 227.831 288.372 227.696 287.835 227.696C287.38 227.696 286.959 227.813 286.574 228.047C286.189 228.268 285.879 228.601 285.646 229.045C285.412 229.477 285.295 230.014 285.295 230.656C285.295 231.298 285.412 231.841 285.646 232.285C285.879 232.717 286.189 233.05 286.574 233.283C286.959 233.517 287.38 233.633 287.835 233.633C288.372 233.633 288.839 233.499 289.236 233.231C289.633 232.962 289.89 232.583 290.007 232.092H291.951C291.752 233.026 291.285 233.779 290.549 234.352C289.814 234.924 288.909 235.21 287.835 235.21ZM297.99 235.21C296.939 235.21 296.11 234.883 295.503 234.229C294.907 233.575 294.61 232.6 294.61 231.304V226.313H296.466V231.112C296.466 232.793 297.155 233.633 298.533 233.633C299.222 233.633 299.788 233.388 300.232 232.898C300.675 232.408 300.897 231.707 300.897 230.796V226.313H302.754V235H301.107L300.967 233.476C300.699 234.013 300.302 234.439 299.776 234.754C299.263 235.058 298.667 235.21 297.99 235.21ZM305.936 235V222.39H307.793V235H305.936ZM315.027 235.21C314.199 235.21 313.451 235.023 312.786 234.649C312.132 234.264 311.612 233.733 311.227 233.056C310.842 232.367 310.649 231.567 310.649 230.656C310.649 229.745 310.842 228.952 311.227 228.274C311.624 227.585 312.155 227.054 312.821 226.681C313.486 226.295 314.228 226.103 315.045 226.103C315.874 226.103 316.615 226.295 317.269 226.681C317.935 227.054 318.46 227.585 318.845 228.274C319.242 228.952 319.441 229.745 319.441 230.656C319.441 231.567 319.242 232.367 318.845 233.056C318.46 233.733 317.935 234.264 317.269 234.649C316.604 235.023 315.856 235.21 315.027 235.21ZM315.027 233.616C315.471 233.616 315.88 233.505 316.253 233.283C316.639 233.061 316.948 232.734 317.182 232.302C317.415 231.859 317.532 231.31 317.532 230.656C317.532 230.002 317.415 229.459 317.182 229.027C316.96 228.584 316.656 228.251 316.271 228.029C315.897 227.807 315.489 227.696 315.045 227.696C314.601 227.696 314.187 227.807 313.802 228.029C313.428 228.251 313.124 228.584 312.891 229.027C312.657 229.459 312.541 230.002 312.541 230.656C312.541 231.31 312.657 231.859 312.891 232.302C313.124 232.734 313.428 233.061 313.802 233.283C314.175 233.505 314.584 233.616 315.027 233.616Z" fill="#FCFCFC"/>
<rect x="61.5473" y="102.547" width="376.541" height="68.9595" rx="8.20946" fill="#FCFCFC" stroke="#E0E0E0" stroke-width="1.09459"/>
<path d="M115.765 132.559C115.415 132.559 115.123 132.454 114.89 132.244C114.668 132.022 114.557 131.748 114.557 131.421C114.557 131.094 114.668 130.825 114.89 130.615C115.123 130.393 115.415 130.282 115.765 130.282C116.116 130.282 116.402 130.393 116.623 130.615C116.857 130.825 116.974 131.094 116.974 131.421C116.974 131.748 116.857 132.022 116.623 132.244C116.402 132.454 116.116 132.559 115.765 132.559ZM114.837 142.892V134.205H116.693V142.892H114.837ZM119.965 142.892V134.205H121.611L121.751 135.729C122.02 135.192 122.411 134.772 122.925 134.468C123.45 134.153 124.052 133.995 124.729 133.995C125.78 133.995 126.603 134.322 127.198 134.976C127.805 135.63 128.109 136.605 128.109 137.901V142.892H126.27V138.093C126.27 136.412 125.581 135.571 124.203 135.571C123.514 135.571 122.942 135.817 122.487 136.307C122.043 136.797 121.821 137.498 121.821 138.409V142.892H119.965ZM134.584 143.102C133.486 143.102 132.582 142.834 131.869 142.297C131.157 141.76 130.748 141.047 130.643 140.16H132.517C132.611 140.557 132.833 140.901 133.183 141.193C133.533 141.473 133.994 141.614 134.566 141.614C135.127 141.614 135.535 141.497 135.792 141.263C136.049 141.03 136.178 140.761 136.178 140.458C136.178 140.014 135.997 139.716 135.635 139.565C135.284 139.401 134.794 139.255 134.164 139.127C133.673 139.022 133.183 138.881 132.692 138.706C132.214 138.531 131.811 138.286 131.484 137.971C131.169 137.644 131.011 137.206 131.011 136.657C131.011 135.898 131.303 135.268 131.887 134.766C132.471 134.252 133.288 133.995 134.339 133.995C135.308 133.995 136.09 134.229 136.686 134.696C137.293 135.163 137.649 135.822 137.754 136.675H135.967C135.909 136.301 135.734 136.009 135.442 135.799C135.162 135.589 134.782 135.484 134.304 135.484C133.837 135.484 133.475 135.583 133.218 135.782C132.961 135.968 132.833 136.214 132.833 136.517C132.833 136.821 133.008 137.06 133.358 137.235C133.72 137.41 134.193 137.568 134.777 137.708C135.36 137.837 135.897 137.988 136.388 138.163C136.89 138.327 137.293 138.572 137.596 138.899C137.9 139.226 138.052 139.705 138.052 140.335C138.063 141.129 137.754 141.789 137.123 142.314C136.505 142.84 135.658 143.102 134.584 143.102ZM141.95 132.559C141.6 132.559 141.308 132.454 141.074 132.244C140.852 132.022 140.742 131.748 140.742 131.421C140.742 131.094 140.852 130.825 141.074 130.615C141.308 130.393 141.6 130.282 141.95 130.282C142.3 130.282 142.586 130.393 142.808 130.615C143.042 130.825 143.158 131.094 143.158 131.421C143.158 131.748 143.042 132.022 142.808 132.244C142.586 132.454 142.3 132.559 141.95 132.559ZM141.022 142.892V134.205H142.878V142.892H141.022ZM146.15 142.892V134.205H147.814L147.971 135.852C148.275 135.28 148.695 134.83 149.232 134.503C149.781 134.165 150.441 133.995 151.211 133.995V135.939H150.703C150.19 135.939 149.728 136.027 149.32 136.202C148.923 136.365 148.602 136.651 148.357 137.06C148.123 137.457 148.006 138.012 148.006 138.724V142.892H146.15ZM156.566 143.102C155.831 143.102 155.223 142.98 154.745 142.734C154.266 142.489 153.91 142.168 153.676 141.771C153.443 141.363 153.326 140.919 153.326 140.44C153.326 139.6 153.653 138.934 154.307 138.444C154.961 137.953 155.895 137.708 157.109 137.708H159.386V137.55C159.386 136.873 159.199 136.365 158.825 136.027C158.463 135.688 157.991 135.519 157.407 135.519C156.893 135.519 156.444 135.647 156.058 135.904C155.685 136.149 155.457 136.517 155.375 137.008H153.519C153.577 136.377 153.787 135.84 154.149 135.396C154.523 134.941 154.99 134.597 155.55 134.363C156.122 134.118 156.747 133.995 157.424 133.995C158.639 133.995 159.578 134.316 160.244 134.958C160.909 135.589 161.242 136.453 161.242 137.55V142.892H159.631L159.473 141.403C159.228 141.882 158.872 142.285 158.405 142.612C157.938 142.939 157.325 143.102 156.566 143.102ZM156.934 141.596C157.436 141.596 157.856 141.479 158.195 141.246C158.545 141.001 158.814 140.68 159 140.283C159.199 139.886 159.322 139.448 159.368 138.969H157.302C156.566 138.969 156.041 139.097 155.725 139.354C155.422 139.611 155.27 139.932 155.27 140.318C155.27 140.715 155.416 141.03 155.708 141.263C156.012 141.485 156.42 141.596 156.934 141.596ZM172.929 143.102C171.831 143.102 170.927 142.834 170.214 142.297C169.502 141.76 169.093 141.047 168.988 140.16H170.862C170.956 140.557 171.178 140.901 171.528 141.193C171.878 141.473 172.339 141.614 172.911 141.614C173.472 141.614 173.88 141.497 174.137 141.263C174.394 141.03 174.523 140.761 174.523 140.458C174.523 140.014 174.342 139.716 173.98 139.565C173.629 139.401 173.139 139.255 172.509 139.127C172.018 139.022 171.528 138.881 171.037 138.706C170.559 138.531 170.156 138.286 169.829 137.971C169.514 137.644 169.356 137.206 169.356 136.657C169.356 135.898 169.648 135.268 170.232 134.766C170.816 134.252 171.633 133.995 172.684 133.995C173.653 133.995 174.435 134.229 175.031 134.696C175.638 135.163 175.994 135.822 176.099 136.675H174.312C174.254 136.301 174.079 136.009 173.787 135.799C173.507 135.589 173.127 135.484 172.649 135.484C172.182 135.484 171.82 135.583 171.563 135.782C171.306 135.968 171.178 136.214 171.178 136.517C171.178 136.821 171.353 137.06 171.703 137.235C172.065 137.41 172.538 137.568 173.122 137.708C173.705 137.837 174.242 137.988 174.733 138.163C175.235 138.327 175.638 138.572 175.941 138.899C176.245 139.226 176.397 139.705 176.397 140.335C176.408 141.129 176.099 141.789 175.468 142.314C174.85 142.84 174.003 143.102 172.929 143.102ZM183.307 143.102C182.455 143.102 181.696 142.915 181.031 142.542C180.377 142.157 179.863 141.625 179.489 140.948C179.116 140.271 178.929 139.483 178.929 138.584C178.929 137.673 179.11 136.873 179.472 136.184C179.845 135.496 180.359 134.958 181.013 134.573C181.679 134.188 182.449 133.995 183.325 133.995C184.177 133.995 184.919 134.188 185.549 134.573C186.18 134.947 186.67 135.449 187.02 136.079C187.37 136.71 187.546 137.405 187.546 138.163C187.546 138.28 187.54 138.409 187.528 138.549C187.528 138.677 187.522 138.823 187.511 138.987H180.75C180.809 139.827 181.083 140.469 181.573 140.913C182.076 141.345 182.653 141.561 183.307 141.561C183.833 141.561 184.271 141.444 184.621 141.211C184.983 140.966 185.251 140.639 185.426 140.23H187.283C187.049 141.047 186.582 141.73 185.882 142.279C185.193 142.828 184.335 143.102 183.307 143.102ZM183.307 135.519C182.689 135.519 182.14 135.706 181.661 136.079C181.182 136.441 180.89 136.99 180.785 137.726H185.689C185.654 137.048 185.415 136.511 184.971 136.114C184.527 135.717 183.973 135.519 183.307 135.519ZM193.498 143.102C192.447 143.102 191.618 142.775 191.011 142.121C190.415 141.468 190.118 140.493 190.118 139.197V134.205H191.974V139.004C191.974 140.685 192.663 141.526 194.041 141.526C194.73 141.526 195.296 141.281 195.739 140.79C196.183 140.3 196.405 139.6 196.405 138.689V134.205H198.261V142.892H196.615L196.475 141.368C196.206 141.905 195.81 142.332 195.284 142.647C194.77 142.95 194.175 143.102 193.498 143.102ZM210.793 143.102C209.941 143.102 209.176 142.91 208.499 142.524C207.833 142.139 207.308 141.608 206.923 140.931C206.549 140.242 206.362 139.448 206.362 138.549C206.362 137.65 206.549 136.862 206.923 136.184C207.308 135.496 207.833 134.958 208.499 134.573C209.176 134.188 209.941 133.995 210.793 133.995C211.867 133.995 212.766 134.275 213.49 134.836C214.226 135.396 214.699 136.155 214.909 137.113H212.965C212.848 136.634 212.591 136.26 212.194 135.992C211.797 135.723 211.33 135.589 210.793 135.589C210.338 135.589 209.917 135.706 209.532 135.939C209.147 136.161 208.837 136.494 208.604 136.937C208.37 137.369 208.254 137.907 208.254 138.549C208.254 139.191 208.37 139.734 208.604 140.177C208.837 140.609 209.147 140.942 209.532 141.176C209.917 141.409 210.338 141.526 210.793 141.526C211.33 141.526 211.797 141.392 212.194 141.123C212.591 140.855 212.848 140.475 212.965 139.985H214.909C214.71 140.919 214.243 141.672 213.508 142.244C212.772 142.816 211.867 143.102 210.793 143.102ZM220.948 143.102C219.897 143.102 219.068 142.775 218.461 142.121C217.866 141.468 217.568 140.493 217.568 139.197V134.205H219.424V139.004C219.424 140.685 220.113 141.526 221.491 141.526C222.18 141.526 222.746 141.281 223.19 140.79C223.634 140.3 223.855 139.6 223.855 138.689V134.205H225.712V142.892H224.066L223.925 141.368C223.657 141.905 223.26 142.332 222.734 142.647C222.221 142.95 221.625 143.102 220.948 143.102ZM228.894 142.892V134.205H230.558L230.716 135.852C231.019 135.28 231.44 134.83 231.977 134.503C232.525 134.165 233.185 133.995 233.956 133.995V135.939H233.448C232.934 135.939 232.473 136.027 232.064 136.202C231.667 136.365 231.346 136.651 231.101 137.06C230.868 137.457 230.751 138.012 230.751 138.724V142.892H228.894ZM236.368 142.892V134.205H238.032L238.19 135.852C238.493 135.28 238.914 134.83 239.451 134.503C239.999 134.165 240.659 133.995 241.43 133.995V135.939H240.922C240.408 135.939 239.947 136.027 239.538 136.202C239.141 136.365 238.82 136.651 238.575 137.06C238.342 137.457 238.225 138.012 238.225 138.724V142.892H236.368ZM243.842 142.892V134.205H245.699V142.892H243.842ZM244.28 133.487V132.156L248.098 129.985V131.526L244.28 133.487ZM252.986 143.102C252.134 143.102 251.369 142.91 250.692 142.524C250.027 142.139 249.501 141.608 249.116 140.931C248.742 140.242 248.555 139.448 248.555 138.549C248.555 137.65 248.742 136.862 249.116 136.184C249.501 135.496 250.027 134.958 250.692 134.573C251.369 134.188 252.134 133.995 252.986 133.995C254.061 133.995 254.96 134.275 255.683 134.836C256.419 135.396 256.892 136.155 257.102 137.113H255.158C255.041 136.634 254.784 136.26 254.387 135.992C253.99 135.723 253.523 135.589 252.986 135.589C252.531 135.589 252.111 135.706 251.725 135.939C251.34 136.161 251.031 136.494 250.797 136.937C250.564 137.369 250.447 137.907 250.447 138.549C250.447 139.191 250.564 139.734 250.797 140.177C251.031 140.609 251.34 140.942 251.725 141.176C252.111 141.409 252.531 141.526 252.986 141.526C253.523 141.526 253.99 141.392 254.387 141.123C254.784 140.855 255.041 140.475 255.158 139.985H257.102C256.904 140.919 256.437 141.672 255.701 142.244C254.965 142.816 254.061 143.102 252.986 143.102ZM263.141 143.102C262.091 143.102 261.262 142.775 260.654 142.121C260.059 141.468 259.761 140.493 259.761 139.197V134.205H261.618V139.004C261.618 140.685 262.307 141.526 263.684 141.526C264.373 141.526 264.939 141.281 265.383 140.79C265.827 140.3 266.049 139.6 266.049 138.689V134.205H267.905V142.892H266.259L266.119 141.368C265.85 141.905 265.453 142.332 264.928 142.647C264.414 142.95 263.819 143.102 263.141 143.102ZM271.088 142.892V130.282H272.944V142.892H271.088ZM280.179 143.102C279.35 143.102 278.603 142.915 277.937 142.542C277.283 142.157 276.764 141.625 276.379 140.948C275.993 140.259 275.801 139.459 275.801 138.549C275.801 137.638 275.993 136.844 276.379 136.167C276.775 135.478 277.307 134.947 277.972 134.573C278.638 134.188 279.379 133.995 280.196 133.995C281.025 133.995 281.767 134.188 282.421 134.573C283.086 134.947 283.612 135.478 283.997 136.167C284.394 136.844 284.592 137.638 284.592 138.549C284.592 139.459 284.394 140.259 283.997 140.948C283.612 141.625 283.086 142.157 282.421 142.542C281.755 142.915 281.008 143.102 280.179 143.102ZM280.179 141.509C280.623 141.509 281.031 141.398 281.405 141.176C281.79 140.954 282.1 140.627 282.333 140.195C282.567 139.751 282.683 139.203 282.683 138.549C282.683 137.895 282.567 137.352 282.333 136.92C282.111 136.476 281.808 136.144 281.422 135.922C281.049 135.7 280.64 135.589 280.196 135.589C279.753 135.589 279.338 135.7 278.953 135.922C278.579 136.144 278.276 136.476 278.042 136.92C277.809 137.352 277.692 137.895 277.692 138.549C277.692 139.203 277.809 139.751 278.042 140.195C278.276 140.627 278.579 140.954 278.953 141.176C279.327 141.398 279.735 141.509 280.179 141.509Z" fill="#FF4B00"/>
<path d="M95.4788 127.176H79.0599C78.1531 127.176 77.418 127.911 77.418 128.818V145.237C77.418 146.143 78.1531 146.878 79.0599 146.878H95.4788C96.3856 146.878 97.1207 146.143 97.1207 145.237V128.818C97.1207 127.911 96.3856 127.176 95.4788 127.176Z" stroke="#FF4B00" stroke-width="2.18919" stroke-linejoin="round"/>
<path d="M91.6474 139.216L87.269 134.838L82.8906 139.216" stroke="#FF4B00" stroke-width="2.18919" stroke-linecap="round" stroke-linejoin="round"/>
<path d="M87.2695 143.595V135.112" stroke="#FF4B00" stroke-width="2.18919" stroke-linecap="round" stroke-linejoin="round"/>
<path d="M82.8906 131.554H91.6474" stroke="#FF4B00" stroke-width="2.18919" stroke-linecap="round" stroke-linejoin="round"/>
<defs>
<linearGradient id="paint0_linear_3881_4326" x1="61" y1="193.946" x2="139.44" y2="386.122" gradientUnits="userSpaceOnUse">
<stop stop-color="#FF4B00"/>
<stop offset="1" stop-color="#EE2F23"/>
</linearGradient>
</defs>
</svg>
