<svg width="500" height="500" viewBox="0 0 500 500" fill="none" xmlns="http://www.w3.org/2000/svg">
<rect x="0.5" y="0.5" width="499" height="499" rx="23.5" fill="#FCFCFC" stroke="#E0E0E0"/>
<path d="M107 96C107 78.3269 121.327 64 139 64H169C186.673 64 201 78.3269 201 96V96C201 113.673 186.673 128 169 128H139C121.327 128 107 113.673 107 96V96Z" fill="#FCFCFC"/>
<path d="M145.558 101.192C144.448 101.192 143.488 100.952 142.678 100.472C141.878 99.9813 141.259 99.304 140.822 98.44C140.384 97.5653 140.166 96.5573 140.166 95.416C140.166 94.264 140.384 93.256 140.822 92.392C141.259 91.5173 141.878 90.8347 142.678 90.344C143.488 89.8533 144.448 89.608 145.558 89.608C146.87 89.608 147.942 89.928 148.774 90.568C149.606 91.208 150.134 92.104 150.358 93.256H148.47C148.32 92.6053 148 92.088 147.51 91.704C147.019 91.32 146.363 91.128 145.542 91.128C144.422 91.128 143.536 91.512 142.886 92.28C142.235 93.0373 141.91 94.0827 141.91 95.416C141.91 96.7387 142.235 97.7787 142.886 98.536C143.536 99.2933 144.422 99.672 145.542 99.672C146.363 99.672 147.019 99.4907 147.51 99.128C148 98.7653 148.32 98.2693 148.47 97.64H150.358C150.134 98.7493 149.606 99.6187 148.774 100.248C147.942 100.877 146.87 101.192 145.558 101.192ZM152.972 101V89.8H154.668V99.656H159.756V101H152.972ZM163.127 101V91.176H159.815V89.8H168.119V91.176H164.823V101H163.127Z" fill="#FF4B00"/>
<path d="M139 65H169V63H139V65ZM169 127H139V129H169V127ZM139 127C121.879 127 108 113.121 108 96H106C106 114.225 120.775 129 139 129V127ZM200 96C200 113.121 186.121 127 169 127V129C187.225 129 202 114.225 202 96H200ZM169 65C186.121 65 200 78.8792 200 96H202C202 77.7746 187.225 63 169 63V65ZM139 63C120.775 63 106 77.7746 106 96H108C108 78.8792 121.879 65 139 65V63Z" fill="#E0E0E0"/>
<path d="M209 96C209 78.3269 223.327 64 241 64H342C359.673 64 374 78.3269 374 96V96C374 113.673 359.673 128 342 128H241C223.327 128 209 113.673 209 96V96Z" fill="#FCFCFC"/>
<path d="M245.112 101V91.176H241.8V89.8H250.104V91.176H246.808V101H245.112ZM254.651 101.192C253.873 101.192 253.179 101.021 252.571 100.68C251.974 100.328 251.505 99.8427 251.163 99.224C250.822 98.6053 250.651 97.8853 250.651 97.064C250.651 96.232 250.817 95.5013 251.147 94.872C251.489 94.2427 251.958 93.752 252.555 93.4C253.163 93.048 253.867 92.872 254.667 92.872C255.446 92.872 256.123 93.048 256.699 93.4C257.275 93.7413 257.723 94.2 258.043 94.776C258.363 95.352 258.523 95.9867 258.523 96.68C258.523 96.7867 258.518 96.904 258.507 97.032C258.507 97.1493 258.502 97.2827 258.491 97.432H252.315C252.369 98.2 252.619 98.7867 253.067 99.192C253.526 99.5867 254.054 99.784 254.651 99.784C255.131 99.784 255.531 99.6773 255.851 99.464C256.182 99.24 256.427 98.9413 256.587 98.568H258.283C258.07 99.3147 257.643 99.9387 257.003 100.44C256.374 100.941 255.59 101.192 254.651 101.192ZM254.651 94.264C254.086 94.264 253.585 94.4347 253.147 94.776C252.71 95.1067 252.443 95.608 252.347 96.28H256.827C256.795 95.6613 256.577 95.1707 256.171 94.808C255.766 94.4453 255.259 94.264 254.651 94.264ZM261.033 101V93.064H262.553L262.697 94.568C262.974 94.0453 263.358 93.6347 263.849 93.336C264.35 93.0267 264.953 92.872 265.657 92.872V94.648H265.193C264.724 94.648 264.302 94.728 263.929 94.888C263.566 95.0373 263.273 95.2987 263.049 95.672C262.836 96.0347 262.729 96.5413 262.729 97.192V101H261.033ZM271.402 101.192C270.624 101.192 269.925 101.016 269.306 100.664C268.698 100.312 268.218 99.8267 267.866 99.208C267.525 98.5787 267.354 97.8533 267.354 97.032C267.354 96.2107 267.525 95.4907 267.866 94.872C268.218 94.2427 268.698 93.752 269.306 93.4C269.925 93.048 270.624 92.872 271.402 92.872C272.384 92.872 273.205 93.128 273.866 93.64C274.538 94.152 274.97 94.8453 275.162 95.72H273.386C273.28 95.2827 273.045 94.9413 272.682 94.696C272.32 94.4507 271.893 94.328 271.402 94.328C270.986 94.328 270.602 94.4347 270.25 94.648C269.898 94.8507 269.616 95.1547 269.402 95.56C269.189 95.9547 269.082 96.4453 269.082 97.032C269.082 97.6187 269.189 98.1147 269.402 98.52C269.616 98.9147 269.898 99.2187 270.25 99.432C270.602 99.6453 270.986 99.752 271.402 99.752C271.893 99.752 272.32 99.6293 272.682 99.384C273.045 99.1387 273.28 98.792 273.386 98.344H275.162C274.981 99.1973 274.554 99.8853 273.882 100.408C273.21 100.931 272.384 101.192 271.402 101.192ZM281.464 101.192C280.685 101.192 279.992 101.021 279.384 100.68C278.786 100.328 278.317 99.8427 277.976 99.224C277.634 98.6053 277.464 97.8853 277.464 97.064C277.464 96.232 277.629 95.5013 277.96 94.872C278.301 94.2427 278.77 93.752 279.368 93.4C279.976 93.048 280.68 92.872 281.48 92.872C282.258 92.872 282.936 93.048 283.512 93.4C284.088 93.7413 284.536 94.2 284.856 94.776C285.176 95.352 285.336 95.9867 285.336 96.68C285.336 96.7867 285.33 96.904 285.32 97.032C285.32 97.1493 285.314 97.2827 285.304 97.432H279.128C279.181 98.2 279.432 98.7867 279.88 99.192C280.338 99.5867 280.866 99.784 281.464 99.784C281.944 99.784 282.344 99.6773 282.664 99.464C282.994 99.24 283.24 98.9413 283.4 98.568H285.096C284.882 99.3147 284.456 99.9387 283.816 100.44C283.186 100.941 282.402 101.192 281.464 101.192ZM281.464 94.264C280.898 94.264 280.397 94.4347 279.96 94.776C279.522 95.1067 279.256 95.608 279.16 96.28H283.64C283.608 95.6613 283.389 95.1707 282.984 94.808C282.578 94.4453 282.072 94.264 281.464 94.264ZM288.805 91.56C288.485 91.56 288.219 91.464 288.005 91.272C287.803 91.0693 287.701 90.8187 287.701 90.52C287.701 90.2213 287.803 89.976 288.005 89.784C288.219 89.5813 288.485 89.48 288.805 89.48C289.125 89.48 289.387 89.5813 289.589 89.784C289.803 89.976 289.909 90.2213 289.909 90.52C289.909 90.8187 289.803 91.0693 289.589 91.272C289.387 91.464 289.125 91.56 288.805 91.56ZM287.957 101V93.064H289.653V101H287.957ZM292.642 101V93.064H294.162L294.306 94.568C294.584 94.0453 294.968 93.6347 295.458 93.336C295.96 93.0267 296.562 92.872 297.266 92.872V94.648H296.802C296.333 94.648 295.912 94.728 295.538 94.888C295.176 95.0373 294.882 95.2987 294.658 95.672C294.445 96.0347 294.338 96.5413 294.338 97.192V101H292.642ZM300.43 91.56C300.11 91.56 299.844 91.464 299.63 91.272C299.428 91.0693 299.326 90.8187 299.326 90.52C299.326 90.2213 299.428 89.976 299.63 89.784C299.844 89.5813 300.11 89.48 300.43 89.48C300.75 89.48 301.012 89.5813 301.214 89.784C301.428 89.976 301.534 90.2213 301.534 90.52C301.534 90.8187 301.428 91.0693 301.214 91.272C301.012 91.464 300.75 91.56 300.43 91.56ZM299.582 101V93.064H301.278V101H299.582ZM303.739 101V99.624L307.979 94.472H303.803V93.064H309.899V94.44L305.627 99.592H309.979V101H303.739ZM315.158 101.192C314.486 101.192 313.932 101.08 313.494 100.856C313.057 100.632 312.732 100.339 312.518 99.976C312.305 99.6027 312.198 99.1973 312.198 98.76C312.198 97.992 312.497 97.384 313.094 96.936C313.692 96.488 314.545 96.264 315.654 96.264H317.734V96.12C317.734 95.5013 317.564 95.0373 317.222 94.728C316.892 94.4187 316.46 94.264 315.926 94.264C315.457 94.264 315.046 94.3813 314.694 94.616C314.353 94.84 314.145 95.176 314.07 95.624H312.374C312.428 95.048 312.62 94.5573 312.95 94.152C313.292 93.736 313.718 93.4213 314.23 93.208C314.753 92.984 315.324 92.872 315.942 92.872C317.052 92.872 317.91 93.1653 318.518 93.752C319.126 94.328 319.43 95.1173 319.43 96.12V101H317.958L317.814 99.64C317.59 100.077 317.265 100.445 316.838 100.744C316.412 101.043 315.852 101.192 315.158 101.192ZM315.494 99.816C315.953 99.816 316.337 99.7093 316.646 99.496C316.966 99.272 317.212 98.9787 317.382 98.616C317.564 98.2533 317.676 97.8533 317.718 97.416H315.83C315.158 97.416 314.678 97.5333 314.39 97.768C314.113 98.0027 313.974 98.296 313.974 98.648C313.974 99.0107 314.108 99.2987 314.374 99.512C314.652 99.7147 315.025 99.816 315.494 99.816ZM325.774 101.192C325.006 101.192 324.329 101.011 323.742 100.648C323.155 100.285 322.697 99.7893 322.366 99.16C322.035 98.5307 321.87 97.816 321.87 97.016C321.87 96.216 322.035 95.5067 322.366 94.888C322.697 94.2587 323.155 93.768 323.742 93.416C324.339 93.0533 325.022 92.872 325.79 92.872C326.419 92.872 326.969 92.9947 327.438 93.24C327.918 93.4853 328.291 93.832 328.558 94.28V89.48H330.254V101H328.734L328.558 99.768C328.302 100.141 327.95 100.472 327.502 100.76C327.054 101.048 326.478 101.192 325.774 101.192ZM326.078 99.72C326.803 99.72 327.395 99.4693 327.854 98.968C328.323 98.4667 328.558 97.8213 328.558 97.032C328.558 96.232 328.323 95.5867 327.854 95.096C327.395 94.5947 326.803 94.344 326.078 94.344C325.353 94.344 324.755 94.5947 324.286 95.096C323.817 95.5867 323.582 96.232 323.582 97.032C323.582 97.5547 323.689 98.0187 323.902 98.424C324.115 98.8293 324.409 99.1493 324.782 99.384C325.166 99.608 325.598 99.72 326.078 99.72ZM336.854 101.192C336.097 101.192 335.414 101.021 334.806 100.68C334.209 100.328 333.734 99.8427 333.382 99.224C333.03 98.5947 332.854 97.864 332.854 97.032C332.854 96.2 333.03 95.4747 333.382 94.856C333.745 94.2267 334.23 93.7413 334.838 93.4C335.446 93.048 336.124 92.872 336.87 92.872C337.628 92.872 338.305 93.048 338.902 93.4C339.51 93.7413 339.99 94.2267 340.342 94.856C340.705 95.4747 340.886 96.2 340.886 97.032C340.886 97.864 340.705 98.5947 340.342 99.224C339.99 99.8427 339.51 100.328 338.902 100.68C338.294 101.021 337.612 101.192 336.854 101.192ZM336.854 99.736C337.26 99.736 337.633 99.6347 337.974 99.432C338.326 99.2293 338.609 98.9307 338.822 98.536C339.036 98.1307 339.142 97.6293 339.142 97.032C339.142 96.4347 339.036 95.9387 338.822 95.544C338.62 95.1387 338.342 94.8347 337.99 94.632C337.649 94.4293 337.276 94.328 336.87 94.328C336.465 94.328 336.086 94.4293 335.734 94.632C335.393 94.8347 335.116 95.1387 334.902 95.544C334.689 95.9387 334.582 96.4347 334.582 97.032C334.582 97.6293 334.689 98.1307 334.902 98.536C335.116 98.9307 335.393 99.2293 335.734 99.432C336.076 99.6347 336.449 99.736 336.854 99.736Z" fill="#FF4B00"/>
<path d="M241 65H342V63H241V65ZM342 127H241V129H342V127ZM241 127C223.879 127 210 113.121 210 96H208C208 114.225 222.775 129 241 129V127ZM373 96C373 113.121 359.121 127 342 127V129C360.225 129 375 114.225 375 96H373ZM342 65C359.121 65 373 78.8792 373 96H375C375 77.7746 360.225 63 342 63V65ZM241 63C222.775 63 208 77.7746 208 96H210C210 78.8792 223.879 65 241 65V63Z" fill="#E0E0E0"/>
<path d="M20 168C20 150.327 34.3269 136 52 136H112C129.673 136 144 150.327 144 168V168C144 185.673 129.673 200 112 200H52C34.3269 200 20 185.673 20 168V168Z" fill="#FCFCFC"/>
<path d="M53.3704 173V161.8H60.4904V163.176H55.0664V166.664H60.0104V168.008H55.0664V171.624H60.4904V173H53.3704ZM66.365 173.192C65.3623 173.192 64.5357 172.947 63.885 172.456C63.2343 171.965 62.861 171.315 62.765 170.504H64.477C64.5623 170.867 64.765 171.181 65.085 171.448C65.405 171.704 65.8263 171.832 66.349 171.832C66.861 171.832 67.2343 171.725 67.469 171.512C67.7037 171.299 67.821 171.053 67.821 170.776C67.821 170.371 67.6557 170.099 67.325 169.96C67.005 169.811 66.557 169.677 65.981 169.56C65.533 169.464 65.085 169.336 64.637 169.176C64.1997 169.016 63.8317 168.792 63.533 168.504C63.245 168.205 63.101 167.805 63.101 167.304C63.101 166.611 63.3677 166.035 63.901 165.576C64.4343 165.107 65.181 164.872 66.141 164.872C67.0263 164.872 67.741 165.085 68.285 165.512C68.8397 165.939 69.165 166.541 69.261 167.32H67.629C67.5757 166.979 67.4157 166.712 67.149 166.52C66.893 166.328 66.5463 166.232 66.109 166.232C65.6823 166.232 65.3517 166.323 65.117 166.504C64.8823 166.675 64.765 166.899 64.765 167.176C64.765 167.453 64.925 167.672 65.245 167.832C65.5757 167.992 66.0077 168.136 66.541 168.264C67.0743 168.381 67.565 168.52 68.013 168.68C68.4717 168.829 68.8397 169.053 69.117 169.352C69.3943 169.651 69.533 170.088 69.533 170.664C69.5437 171.389 69.261 171.992 68.685 172.472C68.1197 172.952 67.3463 173.192 66.365 173.192ZM75.1656 173C74.387 173 73.7683 172.813 73.3096 172.44C72.851 172.056 72.6216 171.379 72.6216 170.408V166.488H71.2616V165.064H72.6216L72.8296 163.048H74.3176V165.064H76.5576V166.488H74.3176V170.408C74.3176 170.845 74.4083 171.149 74.5896 171.32C74.7816 171.48 75.107 171.56 75.5656 171.56H76.4776V173H75.1656ZM81.7444 173.192C81.0724 173.192 80.5177 173.08 80.0804 172.856C79.643 172.632 79.3177 172.339 79.1044 171.976C78.891 171.603 78.7844 171.197 78.7844 170.76C78.7844 169.992 79.083 169.384 79.6804 168.936C80.2777 168.488 81.131 168.264 82.2404 168.264H84.3204V168.12C84.3204 167.501 84.1497 167.037 83.8084 166.728C83.4777 166.419 83.0457 166.264 82.5124 166.264C82.043 166.264 81.6324 166.381 81.2804 166.616C80.939 166.84 80.731 167.176 80.6564 167.624H78.9604C79.0137 167.048 79.2057 166.557 79.5364 166.152C79.8777 165.736 80.3044 165.421 80.8164 165.208C81.339 164.984 81.9097 164.872 82.5284 164.872C83.6377 164.872 84.4964 165.165 85.1044 165.752C85.7124 166.328 86.0164 167.117 86.0164 168.12V173H84.5444L84.4004 171.64C84.1764 172.077 83.851 172.445 83.4244 172.744C82.9977 173.043 82.4377 173.192 81.7444 173.192ZM82.0804 171.816C82.539 171.816 82.923 171.709 83.2324 171.496C83.5524 171.272 83.7977 170.979 83.9684 170.616C84.1497 170.253 84.2617 169.853 84.3044 169.416H82.4164C81.7444 169.416 81.2644 169.533 80.9764 169.768C80.699 170.003 80.5604 170.296 80.5604 170.648C80.5604 171.011 80.6937 171.299 80.9604 171.512C81.2377 171.715 81.611 171.816 82.0804 171.816ZM82.0164 164.408V163.192L85.5044 161.208V162.616L82.0164 164.408ZM91.9919 170.568C91.5759 170.568 91.1919 170.52 90.8399 170.424L90.1519 171.096C90.2692 171.171 90.4132 171.235 90.5839 171.288C90.7545 171.341 90.9945 171.389 91.3039 171.432C91.6132 171.475 92.0345 171.517 92.5679 171.56C93.6239 171.656 94.3865 171.912 94.8559 172.328C95.3252 172.733 95.5599 173.277 95.5599 173.96C95.5599 174.429 95.4319 174.872 95.1759 175.288C94.9305 175.715 94.5412 176.056 94.0079 176.312C93.4852 176.579 92.8132 176.712 91.9919 176.712C90.8825 176.712 89.9812 176.499 89.2879 176.072C88.6052 175.656 88.2639 175.021 88.2639 174.168C88.2639 173.837 88.3492 173.507 88.5199 173.176C88.7012 172.856 88.9839 172.552 89.3679 172.264C89.1439 172.168 88.9465 172.067 88.7759 171.96C88.6159 171.843 88.4719 171.725 88.3439 171.608V171.224L89.7199 169.816C89.1012 169.283 88.7919 168.584 88.7919 167.72C88.7919 167.197 88.9145 166.723 89.1599 166.296C89.4159 165.859 89.7839 165.512 90.2639 165.256C90.7439 165 91.3199 164.872 91.9919 164.872C92.4399 164.872 92.8559 164.936 93.2399 165.064H96.1999V166.184L94.7919 166.264C95.0479 166.701 95.1759 167.187 95.1759 167.72C95.1759 168.253 95.0479 168.733 94.7919 169.16C94.5465 169.587 94.1839 169.928 93.7039 170.184C93.2345 170.44 92.6639 170.568 91.9919 170.568ZM91.9919 169.24C92.4825 169.24 92.8772 169.112 93.1759 168.856C93.4852 168.589 93.6399 168.216 93.6399 167.736C93.6399 167.245 93.4852 166.872 93.1759 166.616C92.8772 166.36 92.4825 166.232 91.9919 166.232C91.4905 166.232 91.0852 166.36 90.7759 166.616C90.4772 166.872 90.3279 167.245 90.3279 167.736C90.3279 168.216 90.4772 168.589 90.7759 168.856C91.0852 169.112 91.4905 169.24 91.9919 169.24ZM89.8639 174.008C89.8639 174.467 90.0665 174.808 90.4719 175.032C90.8772 175.267 91.3839 175.384 91.9919 175.384C92.5785 175.384 93.0532 175.256 93.4159 175C93.7785 174.755 93.9599 174.424 93.9599 174.008C93.9599 173.699 93.8372 173.432 93.5919 173.208C93.3465 172.995 92.8825 172.861 92.1999 172.808C91.6879 172.776 91.2345 172.728 90.8399 172.664C90.4665 172.867 90.2105 173.085 90.0719 173.32C89.9332 173.555 89.8639 173.784 89.8639 174.008ZM99.4226 163.56C99.1026 163.56 98.836 163.464 98.6226 163.272C98.42 163.069 98.3186 162.819 98.3186 162.52C98.3186 162.221 98.42 161.976 98.6226 161.784C98.836 161.581 99.1026 161.48 99.4226 161.48C99.7426 161.48 100.004 161.581 100.207 161.784C100.42 161.976 100.527 162.221 100.527 162.52C100.527 162.819 100.42 163.069 100.207 163.272C100.004 163.464 99.7426 163.56 99.4226 163.56ZM98.5746 173V165.064H100.271V173H98.5746ZM106.972 173.192C106.214 173.192 105.532 173.021 104.924 172.68C104.326 172.328 103.852 171.843 103.5 171.224C103.148 170.595 102.972 169.864 102.972 169.032C102.972 168.2 103.148 167.475 103.5 166.856C103.862 166.227 104.348 165.741 104.956 165.4C105.564 165.048 106.241 164.872 106.988 164.872C107.745 164.872 108.422 165.048 109.02 165.4C109.628 165.741 110.108 166.227 110.46 166.856C110.822 167.475 111.003 168.2 111.003 169.032C111.003 169.864 110.822 170.595 110.46 171.224C110.108 171.843 109.628 172.328 109.02 172.68C108.412 173.021 107.729 173.192 106.972 173.192ZM106.972 171.736C107.377 171.736 107.75 171.635 108.092 171.432C108.444 171.229 108.726 170.931 108.94 170.536C109.153 170.131 109.26 169.629 109.26 169.032C109.26 168.435 109.153 167.939 108.94 167.544C108.737 167.139 108.46 166.835 108.108 166.632C107.766 166.429 107.393 166.328 106.988 166.328C106.582 166.328 106.204 166.429 105.852 166.632C105.51 166.835 105.233 167.139 105.02 167.544C104.806 167.939 104.7 168.435 104.7 169.032C104.7 169.629 104.806 170.131 105.02 170.536C105.233 170.931 105.51 171.229 105.852 171.432C106.193 171.635 106.566 171.736 106.972 171.736Z" fill="#FF4B00"/>
<path d="M52 137H112V135H52V137ZM112 199H52V201H112V199ZM52 199C34.8792 199 21 185.121 21 168H19C19 186.225 33.7746 201 52 201V199ZM143 168C143 185.121 129.121 199 112 199V201C130.225 201 145 186.225 145 168H143ZM112 137C129.121 137 143 150.879 143 168H145C145 149.775 130.225 135 112 135V137ZM52 135C33.7746 135 19 149.775 19 168H21C21 150.879 34.8792 137 52 137V135Z" fill="#E0E0E0"/>
<path d="M152 168C152 150.327 166.327 136 184 136H315C332.673 136 347 150.327 347 168V168C347 185.673 332.673 200 315 200H184C166.327 200 152 185.673 152 168V168Z" fill="#FCFCFC"/>
<path d="M187.879 173.192C186.834 173.192 186.002 172.899 185.383 172.312C184.775 171.725 184.471 170.899 184.471 169.832H186.167C186.167 170.365 186.295 170.808 186.551 171.16C186.818 171.512 187.25 171.688 187.847 171.688C188.434 171.688 188.85 171.523 189.095 171.192C189.34 170.851 189.463 170.419 189.463 169.896V161.8H191.159V169.896C191.159 170.952 190.866 171.768 190.279 172.344C189.692 172.909 188.892 173.192 187.879 173.192ZM197.823 173.192C197.066 173.192 196.383 173.021 195.775 172.68C195.178 172.328 194.703 171.843 194.351 171.224C193.999 170.595 193.823 169.864 193.823 169.032C193.823 168.2 193.999 167.475 194.351 166.856C194.714 166.227 195.199 165.741 195.807 165.4C196.415 165.048 197.092 164.872 197.839 164.872C198.596 164.872 199.274 165.048 199.871 165.4C200.479 165.741 200.959 166.227 201.311 166.856C201.674 167.475 201.855 168.2 201.855 169.032C201.855 169.864 201.674 170.595 201.311 171.224C200.959 171.843 200.479 172.328 199.871 172.68C199.263 173.021 198.58 173.192 197.823 173.192ZM197.823 171.736C198.228 171.736 198.602 171.635 198.943 171.432C199.295 171.229 199.578 170.931 199.791 170.536C200.004 170.131 200.111 169.629 200.111 169.032C200.111 168.435 200.004 167.939 199.791 167.544C199.588 167.139 199.311 166.835 198.959 166.632C198.618 166.429 198.244 166.328 197.839 166.328C197.434 166.328 197.055 166.429 196.703 166.632C196.362 166.835 196.084 167.139 195.871 167.544C195.658 167.939 195.551 168.435 195.551 169.032C195.551 169.629 195.658 170.131 195.871 170.536C196.084 170.931 196.362 171.229 196.703 171.432C197.044 171.635 197.418 171.736 197.823 171.736ZM206.257 173L203.281 165.064H205.057L207.265 171.384L209.473 165.064H211.233L208.273 173H206.257ZM216.682 173.192C215.904 173.192 215.21 173.021 214.602 172.68C214.005 172.328 213.536 171.843 213.194 171.224C212.853 170.605 212.682 169.885 212.682 169.064C212.682 168.232 212.848 167.501 213.178 166.872C213.52 166.243 213.989 165.752 214.586 165.4C215.194 165.048 215.898 164.872 216.698 164.872C217.477 164.872 218.154 165.048 218.73 165.4C219.306 165.741 219.754 166.2 220.074 166.776C220.394 167.352 220.554 167.987 220.554 168.68C220.554 168.787 220.549 168.904 220.538 169.032C220.538 169.149 220.533 169.283 220.522 169.432H214.346C214.4 170.2 214.65 170.787 215.098 171.192C215.557 171.587 216.085 171.784 216.682 171.784C217.162 171.784 217.562 171.677 217.882 171.464C218.213 171.24 218.458 170.941 218.618 170.568H220.314C220.101 171.315 219.674 171.939 219.034 172.44C218.405 172.941 217.621 173.192 216.682 173.192ZM216.682 166.264C216.117 166.264 215.616 166.435 215.178 166.776C214.741 167.107 214.474 167.608 214.378 168.28H218.858C218.826 167.661 218.608 167.171 218.202 166.808C217.797 166.445 217.29 166.264 216.682 166.264ZM223.064 173V165.064H224.568L224.712 166.184C224.968 165.779 225.304 165.459 225.72 165.224C226.147 164.989 226.638 164.872 227.192 164.872C228.451 164.872 229.326 165.368 229.816 166.36C230.104 165.901 230.488 165.539 230.968 165.272C231.459 165.005 231.987 164.872 232.552 164.872C233.544 164.872 234.323 165.171 234.888 165.768C235.454 166.365 235.736 167.256 235.736 168.44V173H234.04V168.616C234.04 167.08 233.454 166.312 232.28 166.312C231.683 166.312 231.192 166.536 230.808 166.984C230.435 167.432 230.248 168.072 230.248 168.904V173H228.552V168.616C228.552 167.08 227.96 166.312 226.776 166.312C226.19 166.312 225.704 166.536 225.32 166.984C224.947 167.432 224.76 168.072 224.76 168.904V173H223.064ZM242.596 173L246.724 161.8H248.58L252.676 173H250.884L249.924 170.264H245.348L244.388 173H242.596ZM245.828 168.92H249.444L247.636 163.816L245.828 168.92ZM254.924 176.52V165.064H256.444L256.62 166.296C256.876 165.923 257.228 165.592 257.676 165.304C258.124 165.016 258.7 164.872 259.404 164.872C260.172 164.872 260.849 165.053 261.436 165.416C262.022 165.779 262.481 166.275 262.812 166.904C263.153 167.533 263.324 168.248 263.324 169.048C263.324 169.848 263.153 170.563 262.812 171.192C262.481 171.811 262.022 172.301 261.436 172.664C260.849 173.016 260.166 173.192 259.388 173.192C258.769 173.192 258.22 173.069 257.74 172.824C257.27 172.579 256.897 172.232 256.62 171.784V176.52H254.924ZM259.1 171.72C259.825 171.72 260.422 171.475 260.892 170.984C261.361 170.483 261.596 169.832 261.596 169.032C261.596 168.509 261.489 168.045 261.276 167.64C261.062 167.235 260.769 166.92 260.396 166.696C260.022 166.461 259.59 166.344 259.1 166.344C258.374 166.344 257.777 166.595 257.308 167.096C256.849 167.597 256.62 168.243 256.62 169.032C256.62 169.832 256.849 170.483 257.308 170.984C257.777 171.475 258.374 171.72 259.1 171.72ZM265.908 173V165.064H267.428L267.572 166.568C267.849 166.045 268.233 165.635 268.724 165.336C269.225 165.027 269.828 164.872 270.532 164.872V166.648H270.068C269.599 166.648 269.177 166.728 268.804 166.888C268.441 167.037 268.148 167.299 267.924 167.672C267.711 168.035 267.604 168.541 267.604 169.192V173H265.908ZM276.229 173.192C275.451 173.192 274.757 173.021 274.149 172.68C273.552 172.328 273.083 171.843 272.741 171.224C272.4 170.605 272.229 169.885 272.229 169.064C272.229 168.232 272.395 167.501 272.725 166.872C273.067 166.243 273.536 165.752 274.133 165.4C274.741 165.048 275.445 164.872 276.245 164.872C277.024 164.872 277.701 165.048 278.277 165.4C278.853 165.741 279.301 166.2 279.621 166.776C279.941 167.352 280.101 167.987 280.101 168.68C280.101 168.787 280.096 168.904 280.085 169.032C280.085 169.149 280.08 169.283 280.069 169.432H273.893C273.947 170.2 274.197 170.787 274.645 171.192C275.104 171.587 275.632 171.784 276.229 171.784C276.709 171.784 277.109 171.677 277.429 171.464C277.76 171.24 278.005 170.941 278.165 170.568H279.861C279.648 171.315 279.221 171.939 278.581 172.44C277.952 172.941 277.168 173.192 276.229 173.192ZM276.229 166.264C275.664 166.264 275.163 166.435 274.725 166.776C274.288 167.107 274.021 167.608 273.925 168.28H278.405C278.373 167.661 278.155 167.171 277.749 166.808C277.344 166.445 276.837 166.264 276.229 166.264ZM282.611 173V165.064H284.115L284.243 166.456C284.488 165.965 284.846 165.581 285.315 165.304C285.795 165.016 286.344 164.872 286.963 164.872C287.923 164.872 288.675 165.171 289.219 165.768C289.774 166.365 290.051 167.256 290.051 168.44V173H288.371V168.616C288.371 167.08 287.742 166.312 286.483 166.312C285.854 166.312 285.331 166.536 284.915 166.984C284.51 167.432 284.307 168.072 284.307 168.904V173H282.611ZM296.415 173.192C295.647 173.192 294.969 173.011 294.383 172.648C293.796 172.285 293.337 171.789 293.007 171.16C292.676 170.531 292.511 169.816 292.511 169.016C292.511 168.216 292.676 167.507 293.007 166.888C293.337 166.259 293.796 165.768 294.383 165.416C294.98 165.053 295.663 164.872 296.431 164.872C297.06 164.872 297.609 164.995 298.079 165.24C298.559 165.485 298.932 165.832 299.199 166.28V161.48H300.895V173H299.375L299.199 171.768C298.943 172.141 298.591 172.472 298.143 172.76C297.695 173.048 297.119 173.192 296.415 173.192ZM296.719 171.72C297.444 171.72 298.036 171.469 298.495 170.968C298.964 170.467 299.199 169.821 299.199 169.032C299.199 168.232 298.964 167.587 298.495 167.096C298.036 166.595 297.444 166.344 296.719 166.344C295.993 166.344 295.396 166.595 294.927 167.096C294.457 167.587 294.223 168.232 294.223 169.032C294.223 169.555 294.329 170.019 294.543 170.424C294.756 170.829 295.049 171.149 295.423 171.384C295.807 171.608 296.239 171.72 296.719 171.72ZM304.743 163.56C304.423 163.56 304.156 163.464 303.943 163.272C303.74 163.069 303.639 162.819 303.639 162.52C303.639 162.221 303.74 161.976 303.943 161.784C304.156 161.581 304.423 161.48 304.743 161.48C305.063 161.48 305.324 161.581 305.527 161.784C305.74 161.976 305.847 162.221 305.847 162.52C305.847 162.819 305.74 163.069 305.527 163.272C305.324 163.464 305.063 163.56 304.743 163.56ZM303.895 173V165.064H305.591V173H303.895ZM308.052 173V171.624L312.292 166.472H308.116V165.064H314.212V166.44L309.94 171.592H314.292V173H308.052Z" fill="#FF4B00"/>
<path d="M184 137H315V135H184V137ZM315 199H184V201H315V199ZM184 199C166.879 199 153 185.121 153 168H151C151 186.225 165.775 201 184 201V199ZM346 168C346 185.121 332.121 199 315 199V201C333.225 201 348 186.225 348 168H346ZM315 137C332.121 137 346 150.879 346 168H348C348 149.775 333.225 135 315 135V137ZM184 135C165.775 135 151 149.775 151 168H153C153 150.879 166.879 137 184 137V135Z" fill="#E0E0E0"/>
<path d="M355 168C355 150.327 369.327 136 387 136H448C465.673 136 480 150.327 480 168V168C480 185.673 465.673 200 448 200H387C369.327 200 355 185.673 355 168V168Z" fill="#FCFCFC"/>
<path d="M391.237 173V163.176H387.925V161.8H396.229V163.176H392.933V173H391.237ZM397.658 173V165.064H399.178L399.322 166.568C399.599 166.045 399.983 165.635 400.474 165.336C400.975 165.027 401.578 164.872 402.282 164.872V166.648H401.818C401.349 166.648 400.927 166.728 400.554 166.888C400.191 167.037 399.898 167.299 399.674 167.672C399.461 168.035 399.354 168.541 399.354 169.192V173H397.658ZM407.174 173.192C406.502 173.192 405.947 173.08 405.51 172.856C405.073 172.632 404.747 172.339 404.534 171.976C404.321 171.603 404.214 171.197 404.214 170.76C404.214 169.992 404.513 169.384 405.11 168.936C405.707 168.488 406.561 168.264 407.67 168.264H409.75V168.12C409.75 167.501 409.579 167.037 409.238 166.728C408.907 166.419 408.475 166.264 407.942 166.264C407.473 166.264 407.062 166.381 406.71 166.616C406.369 166.84 406.161 167.176 406.086 167.624H404.39C404.443 167.048 404.635 166.557 404.966 166.152C405.307 165.736 405.734 165.421 406.246 165.208C406.769 164.984 407.339 164.872 407.958 164.872C409.067 164.872 409.926 165.165 410.534 165.752C411.142 166.328 411.446 167.117 411.446 168.12V173H409.974L409.83 171.64C409.606 172.077 409.281 172.445 408.854 172.744C408.427 173.043 407.867 173.192 407.174 173.192ZM407.51 171.816C407.969 171.816 408.353 171.709 408.662 171.496C408.982 171.272 409.227 170.979 409.398 170.616C409.579 170.253 409.691 169.853 409.734 169.416H407.846C407.174 169.416 406.694 169.533 406.406 169.768C406.129 170.003 405.99 170.296 405.99 170.648C405.99 171.011 406.123 171.299 406.39 171.512C406.667 171.715 407.041 171.816 407.51 171.816ZM415.134 163.56C414.814 163.56 414.547 163.464 414.334 163.272C414.131 163.069 414.03 162.819 414.03 162.52C414.03 162.221 414.131 161.976 414.334 161.784C414.547 161.581 414.814 161.48 415.134 161.48C415.454 161.48 415.715 161.581 415.918 161.784C416.131 161.976 416.238 162.221 416.238 162.52C416.238 162.819 416.131 163.069 415.918 163.272C415.715 163.464 415.454 163.56 415.134 163.56ZM414.286 173V165.064H415.982V173H414.286ZM418.97 173V165.064H420.474L420.602 166.456C420.848 165.965 421.205 165.581 421.674 165.304C422.154 165.016 422.704 164.872 423.322 164.872C424.282 164.872 425.034 165.171 425.578 165.768C426.133 166.365 426.41 167.256 426.41 168.44V173H424.73V168.616C424.73 167.08 424.101 166.312 422.842 166.312C422.213 166.312 421.69 166.536 421.274 166.984C420.869 167.432 420.666 168.072 420.666 168.904V173H418.97ZM432.87 173.192C432.091 173.192 431.398 173.021 430.79 172.68C430.193 172.328 429.723 171.843 429.382 171.224C429.041 170.605 428.87 169.885 428.87 169.064C428.87 168.232 429.035 167.501 429.366 166.872C429.707 166.243 430.177 165.752 430.774 165.4C431.382 165.048 432.086 164.872 432.886 164.872C433.665 164.872 434.342 165.048 434.918 165.4C435.494 165.741 435.942 166.2 436.262 166.776C436.582 167.352 436.742 167.987 436.742 168.68C436.742 168.787 436.737 168.904 436.726 169.032C436.726 169.149 436.721 169.283 436.71 169.432H430.534C430.587 170.2 430.838 170.787 431.286 171.192C431.745 171.587 432.273 171.784 432.87 171.784C433.35 171.784 433.75 171.677 434.07 171.464C434.401 171.24 434.646 170.941 434.806 170.568H436.502C436.289 171.315 435.862 171.939 435.222 172.44C434.593 172.941 433.809 173.192 432.87 173.192ZM432.87 166.264C432.305 166.264 431.803 166.435 431.366 166.776C430.929 167.107 430.662 167.608 430.566 168.28H435.046C435.014 167.661 434.795 167.171 434.39 166.808C433.985 166.445 433.478 166.264 432.87 166.264ZM442.964 173.192C442.185 173.192 441.492 173.021 440.884 172.68C440.286 172.328 439.817 171.843 439.476 171.224C439.134 170.605 438.964 169.885 438.964 169.064C438.964 168.232 439.129 167.501 439.46 166.872C439.801 166.243 440.27 165.752 440.868 165.4C441.476 165.048 442.18 164.872 442.98 164.872C443.758 164.872 444.436 165.048 445.012 165.4C445.588 165.741 446.036 166.2 446.356 166.776C446.676 167.352 446.836 167.987 446.836 168.68C446.836 168.787 446.83 168.904 446.82 169.032C446.82 169.149 446.814 169.283 446.804 169.432H440.628C440.681 170.2 440.932 170.787 441.38 171.192C441.838 171.587 442.366 171.784 442.964 171.784C443.444 171.784 443.844 171.677 444.164 171.464C444.494 171.24 444.74 170.941 444.9 170.568H446.596C446.382 171.315 445.956 171.939 445.316 172.44C444.686 172.941 443.902 173.192 442.964 173.192ZM442.964 166.264C442.398 166.264 441.897 166.435 441.46 166.776C441.022 167.107 440.756 167.608 440.66 168.28H445.14C445.108 167.661 444.889 167.171 444.484 166.808C444.078 166.445 443.572 166.264 442.964 166.264Z" fill="#FF4B00"/>
<path d="M387 137H448V135H387V137ZM448 199H387V201H448V199ZM387 199C369.879 199 356 185.121 356 168H354C354 186.225 368.775 201 387 201V199ZM479 168C479 185.121 465.121 199 448 199V201C466.225 201 481 186.225 481 168H479ZM448 137C465.121 137 479 150.879 479 168H481C481 149.775 466.225 135 448 135V137ZM387 135C368.775 135 354 149.775 354 168H356C356 150.879 369.879 137 387 137V135Z" fill="#E0E0E0"/>
<path d="M82 240C82 222.327 96.3269 208 114 208H208C225.673 208 240 222.327 240 240V240C240 257.673 225.673 272 208 272H114C96.3269 272 82 257.673 82 240V240Z" fill="#FCFCFC"/>
<path d="M118.237 245V235.176H114.925V233.8H123.229V235.176H119.933V245H118.237ZM127.776 245.192C126.998 245.192 126.304 245.021 125.696 244.68C125.099 244.328 124.63 243.843 124.288 243.224C123.947 242.605 123.776 241.885 123.776 241.064C123.776 240.232 123.942 239.501 124.272 238.872C124.614 238.243 125.083 237.752 125.68 237.4C126.288 237.048 126.992 236.872 127.792 236.872C128.571 236.872 129.248 237.048 129.824 237.4C130.4 237.741 130.848 238.2 131.168 238.776C131.488 239.352 131.648 239.987 131.648 240.68C131.648 240.787 131.643 240.904 131.632 241.032C131.632 241.149 131.627 241.283 131.616 241.432H125.44C125.494 242.2 125.744 242.787 126.192 243.192C126.651 243.587 127.179 243.784 127.776 243.784C128.256 243.784 128.656 243.677 128.976 243.464C129.307 243.24 129.552 242.941 129.712 242.568H131.408C131.195 243.315 130.768 243.939 130.128 244.44C129.499 244.941 128.715 245.192 127.776 245.192ZM127.776 238.264C127.211 238.264 126.71 238.435 126.272 238.776C125.835 239.107 125.568 239.608 125.472 240.28H129.952C129.92 239.661 129.702 239.171 129.296 238.808C128.891 238.445 128.384 238.264 127.776 238.264ZM134.158 245V237.064H135.662L135.806 238.184C136.062 237.779 136.398 237.459 136.814 237.224C137.241 236.989 137.731 236.872 138.286 236.872C139.545 236.872 140.419 237.368 140.91 238.36C141.198 237.901 141.582 237.539 142.062 237.272C142.553 237.005 143.081 236.872 143.646 236.872C144.638 236.872 145.417 237.171 145.982 237.768C146.547 238.365 146.83 239.256 146.83 240.44V245H145.134V240.616C145.134 239.08 144.547 238.312 143.374 238.312C142.777 238.312 142.286 238.536 141.902 238.984C141.529 239.432 141.342 240.072 141.342 240.904V245H139.646V240.616C139.646 239.08 139.054 238.312 137.87 238.312C137.283 238.312 136.798 238.536 136.414 238.984C136.041 239.432 135.854 240.072 135.854 240.904V245H134.158ZM149.564 248.52V237.064H151.084L151.26 238.296C151.516 237.923 151.868 237.592 152.316 237.304C152.764 237.016 153.34 236.872 154.044 236.872C154.812 236.872 155.49 237.053 156.076 237.416C156.663 237.779 157.122 238.275 157.452 238.904C157.794 239.533 157.964 240.248 157.964 241.048C157.964 241.848 157.794 242.563 157.452 243.192C157.122 243.811 156.663 244.301 156.076 244.664C155.49 245.016 154.807 245.192 154.028 245.192C153.41 245.192 152.86 245.069 152.38 244.824C151.911 244.579 151.538 244.232 151.26 243.784V248.52H149.564ZM153.74 243.72C154.466 243.72 155.063 243.475 155.532 242.984C156.002 242.483 156.236 241.832 156.236 241.032C156.236 240.509 156.13 240.045 155.916 239.64C155.703 239.235 155.41 238.92 155.036 238.696C154.663 238.461 154.231 238.344 153.74 238.344C153.015 238.344 152.418 238.595 151.948 239.096C151.49 239.597 151.26 240.243 151.26 241.032C151.26 241.832 151.49 242.483 151.948 242.984C152.418 243.475 153.015 243.72 153.74 243.72ZM164.261 245.192C163.503 245.192 162.821 245.021 162.213 244.68C161.615 244.328 161.141 243.843 160.789 243.224C160.437 242.595 160.261 241.864 160.261 241.032C160.261 240.2 160.437 239.475 160.789 238.856C161.151 238.227 161.637 237.741 162.245 237.4C162.853 237.048 163.53 236.872 164.277 236.872C165.034 236.872 165.711 237.048 166.309 237.4C166.917 237.741 167.397 238.227 167.749 238.856C168.111 239.475 168.293 240.2 168.293 241.032C168.293 241.864 168.111 242.595 167.749 243.224C167.397 243.843 166.917 244.328 166.309 244.68C165.701 245.021 165.018 245.192 164.261 245.192ZM164.261 243.736C164.666 243.736 165.039 243.635 165.381 243.432C165.733 243.229 166.015 242.931 166.229 242.536C166.442 242.131 166.549 241.629 166.549 241.032C166.549 240.435 166.442 239.939 166.229 239.544C166.026 239.139 165.749 238.835 165.397 238.632C165.055 238.429 164.682 238.328 164.277 238.328C163.871 238.328 163.493 238.429 163.141 238.632C162.799 238.835 162.522 239.139 162.309 239.544C162.095 239.939 161.989 240.435 161.989 241.032C161.989 241.629 162.095 242.131 162.309 242.536C162.522 242.931 162.799 243.229 163.141 243.432C163.482 243.635 163.855 243.736 164.261 243.736ZM170.877 245V237.064H172.397L172.541 238.568C172.818 238.045 173.202 237.635 173.693 237.336C174.194 237.027 174.797 236.872 175.501 236.872V238.648H175.037C174.567 238.648 174.146 238.728 173.773 238.888C173.41 239.037 173.117 239.299 172.893 239.672C172.679 240.035 172.573 240.541 172.573 241.192V245H170.877ZM180.393 245.192C179.721 245.192 179.166 245.08 178.729 244.856C178.291 244.632 177.966 244.339 177.753 243.976C177.539 243.603 177.433 243.197 177.433 242.76C177.433 241.992 177.731 241.384 178.329 240.936C178.926 240.488 179.779 240.264 180.889 240.264H182.969V240.12C182.969 239.501 182.798 239.037 182.457 238.728C182.126 238.419 181.694 238.264 181.161 238.264C180.691 238.264 180.281 238.381 179.929 238.616C179.587 238.84 179.379 239.176 179.305 239.624H177.609C177.662 239.048 177.854 238.557 178.185 238.152C178.526 237.736 178.953 237.421 179.465 237.208C179.987 236.984 180.558 236.872 181.177 236.872C182.286 236.872 183.145 237.165 183.753 237.752C184.361 238.328 184.665 239.117 184.665 240.12V245H183.193L183.049 243.64C182.825 244.077 182.499 244.445 182.073 244.744C181.646 245.043 181.086 245.192 180.393 245.192ZM180.729 243.816C181.187 243.816 181.571 243.709 181.881 243.496C182.201 243.272 182.446 242.979 182.617 242.616C182.798 242.253 182.91 241.853 182.953 241.416H181.065C180.393 241.416 179.913 241.533 179.625 241.768C179.347 242.003 179.209 242.296 179.209 242.648C179.209 243.011 179.342 243.299 179.609 243.512C179.886 243.715 180.259 243.816 180.729 243.816ZM180.665 236.408V235.192L184.153 233.208V234.616L180.665 236.408ZM187.392 245V237.064H188.912L189.056 238.568C189.334 238.045 189.718 237.635 190.208 237.336C190.71 237.027 191.312 236.872 192.016 236.872V238.648H191.552C191.083 238.648 190.662 238.728 190.288 238.888C189.926 239.037 189.632 239.299 189.408 239.672C189.195 240.035 189.088 240.541 189.088 241.192V245H187.392ZM195.18 235.56C194.86 235.56 194.594 235.464 194.38 235.272C194.178 235.069 194.076 234.819 194.076 234.52C194.076 234.221 194.178 233.976 194.38 233.784C194.594 233.581 194.86 233.48 195.18 233.48C195.5 233.48 195.762 233.581 195.964 233.784C196.178 233.976 196.284 234.221 196.284 234.52C196.284 234.819 196.178 235.069 195.964 235.272C195.762 235.464 195.5 235.56 195.18 235.56ZM194.332 245V237.064H196.028V245H194.332ZM202.729 245.192C201.972 245.192 201.289 245.021 200.681 244.68C200.084 244.328 199.609 243.843 199.257 243.224C198.905 242.595 198.729 241.864 198.729 241.032C198.729 240.2 198.905 239.475 199.257 238.856C199.62 238.227 200.105 237.741 200.713 237.4C201.321 237.048 201.999 236.872 202.745 236.872C203.503 236.872 204.18 237.048 204.777 237.4C205.385 237.741 205.865 238.227 206.217 238.856C206.58 239.475 206.761 240.2 206.761 241.032C206.761 241.864 206.58 242.595 206.217 243.224C205.865 243.843 205.385 244.328 204.777 244.68C204.169 245.021 203.487 245.192 202.729 245.192ZM202.729 243.736C203.135 243.736 203.508 243.635 203.849 243.432C204.201 243.229 204.484 242.931 204.697 242.536C204.911 242.131 205.017 241.629 205.017 241.032C205.017 240.435 204.911 239.939 204.697 239.544C204.495 239.139 204.217 238.835 203.865 238.632C203.524 238.429 203.151 238.328 202.745 238.328C202.34 238.328 201.961 238.429 201.609 238.632C201.268 238.835 200.991 239.139 200.777 239.544C200.564 239.939 200.457 240.435 200.457 241.032C200.457 241.629 200.564 242.131 200.777 242.536C200.991 242.931 201.268 243.229 201.609 243.432C201.951 243.635 202.324 243.736 202.729 243.736Z" fill="#FF4B00"/>
<path d="M114 209H208V207H114V209ZM208 271H114V273H208V271ZM114 271C96.8792 271 83 257.121 83 240H81C81 258.225 95.7746 273 114 273V271ZM239 240C239 257.121 225.121 271 208 271V273C226.225 273 241 258.225 241 240H239ZM208 209C225.121 209 239 222.879 239 240H241C241 221.775 226.225 207 208 207V209ZM114 207C95.7746 207 81 221.775 81 240H83C83 222.879 96.8792 209 114 209V207Z" fill="#E0E0E0"/>
<path d="M248 240C248 222.327 262.327 208 280 208H372C389.673 208 404 222.327 404 240V240C404 257.673 389.673 272 372 272H280C262.327 272 248 257.673 248 240V240Z" fill="#FCFCFC"/>
<path d="M286.519 245.192C285.409 245.192 284.449 244.952 283.639 244.472C282.839 243.981 282.22 243.304 281.783 242.44C281.345 241.565 281.127 240.557 281.127 239.416C281.127 238.264 281.345 237.256 281.783 236.392C282.22 235.517 282.839 234.835 283.639 234.344C284.449 233.853 285.409 233.608 286.519 233.608C287.831 233.608 288.903 233.928 289.735 234.568C290.567 235.208 291.095 236.104 291.319 237.256H289.431C289.281 236.605 288.961 236.088 288.471 235.704C287.98 235.32 287.324 235.128 286.503 235.128C285.383 235.128 284.497 235.512 283.847 236.28C283.196 237.037 282.871 238.083 282.871 239.416C282.871 240.739 283.196 241.779 283.847 242.536C284.497 243.293 285.383 243.672 286.503 243.672C287.324 243.672 287.98 243.491 288.471 243.128C288.961 242.765 289.281 242.269 289.431 241.64H291.319C291.095 242.749 290.567 243.619 289.735 244.248C288.903 244.877 287.831 245.192 286.519 245.192ZM297.581 245.192C296.824 245.192 296.141 245.021 295.533 244.68C294.936 244.328 294.461 243.843 294.109 243.224C293.757 242.595 293.581 241.864 293.581 241.032C293.581 240.2 293.757 239.475 294.109 238.856C294.472 238.227 294.957 237.741 295.565 237.4C296.173 237.048 296.85 236.872 297.597 236.872C298.354 236.872 299.032 237.048 299.629 237.4C300.237 237.741 300.717 238.227 301.069 238.856C301.432 239.475 301.613 240.2 301.613 241.032C301.613 241.864 301.432 242.595 301.069 243.224C300.717 243.843 300.237 244.328 299.629 244.68C299.021 245.021 298.338 245.192 297.581 245.192ZM297.581 243.736C297.986 243.736 298.36 243.635 298.701 243.432C299.053 243.229 299.336 242.931 299.549 242.536C299.762 242.131 299.869 241.629 299.869 241.032C299.869 240.435 299.762 239.939 299.549 239.544C299.346 239.139 299.069 238.835 298.717 238.632C298.376 238.429 298.002 238.328 297.597 238.328C297.192 238.328 296.813 238.429 296.461 238.632C296.12 238.835 295.842 239.139 295.629 239.544C295.416 239.939 295.309 240.435 295.309 241.032C295.309 241.629 295.416 242.131 295.629 242.536C295.842 242.931 296.12 243.229 296.461 243.432C296.802 243.635 297.176 243.736 297.581 243.736ZM307.909 245.192C307.152 245.192 306.469 245.021 305.861 244.68C305.264 244.328 304.789 243.843 304.437 243.224C304.085 242.595 303.909 241.864 303.909 241.032C303.909 240.2 304.085 239.475 304.437 238.856C304.8 238.227 305.285 237.741 305.893 237.4C306.501 237.048 307.178 236.872 307.925 236.872C308.682 236.872 309.36 237.048 309.957 237.4C310.565 237.741 311.045 238.227 311.397 238.856C311.76 239.475 311.941 240.2 311.941 241.032C311.941 241.864 311.76 242.595 311.397 243.224C311.045 243.843 310.565 244.328 309.957 244.68C309.349 245.021 308.666 245.192 307.909 245.192ZM307.909 243.736C308.314 243.736 308.688 243.635 309.029 243.432C309.381 243.229 309.664 242.931 309.877 242.536C310.09 242.131 310.197 241.629 310.197 241.032C310.197 240.435 310.09 239.939 309.877 239.544C309.674 239.139 309.397 238.835 309.045 238.632C308.704 238.429 308.33 238.328 307.925 238.328C307.52 238.328 307.141 238.429 306.789 238.632C306.448 238.835 306.17 239.139 305.957 239.544C305.744 239.939 305.637 240.435 305.637 241.032C305.637 241.629 305.744 242.131 305.957 242.536C306.17 242.931 306.448 243.229 306.789 243.432C307.13 243.635 307.504 243.736 307.909 243.736ZM314.525 248.52V237.064H316.045L316.221 238.296C316.477 237.923 316.829 237.592 317.277 237.304C317.725 237.016 318.301 236.872 319.005 236.872C319.773 236.872 320.45 237.053 321.037 237.416C321.624 237.779 322.082 238.275 322.413 238.904C322.754 239.533 322.925 240.248 322.925 241.048C322.925 241.848 322.754 242.563 322.413 243.192C322.082 243.811 321.624 244.301 321.037 244.664C320.45 245.016 319.768 245.192 318.989 245.192C318.37 245.192 317.821 245.069 317.341 244.824C316.872 244.579 316.498 244.232 316.221 243.784V248.52H314.525ZM318.701 243.72C319.426 243.72 320.024 243.475 320.493 242.984C320.962 242.483 321.197 241.832 321.197 241.032C321.197 240.509 321.09 240.045 320.877 239.64C320.664 239.235 320.37 238.92 319.997 238.696C319.624 238.461 319.192 238.344 318.701 238.344C317.976 238.344 317.378 238.595 316.909 239.096C316.45 239.597 316.221 240.243 316.221 241.032C316.221 241.832 316.45 242.483 316.909 242.984C317.378 243.475 317.976 243.72 318.701 243.72ZM329.222 245.192C328.443 245.192 327.75 245.021 327.142 244.68C326.544 244.328 326.075 243.843 325.734 243.224C325.392 242.605 325.222 241.885 325.222 241.064C325.222 240.232 325.387 239.501 325.718 238.872C326.059 238.243 326.528 237.752 327.126 237.4C327.734 237.048 328.438 236.872 329.238 236.872C330.016 236.872 330.694 237.048 331.27 237.4C331.846 237.741 332.294 238.2 332.614 238.776C332.934 239.352 333.094 239.987 333.094 240.68C333.094 240.787 333.088 240.904 333.078 241.032C333.078 241.149 333.072 241.283 333.062 241.432H326.886C326.939 242.2 327.19 242.787 327.638 243.192C328.096 243.587 328.624 243.784 329.222 243.784C329.702 243.784 330.102 243.677 330.422 243.464C330.752 243.24 330.998 242.941 331.158 242.568H332.854C332.64 243.315 332.214 243.939 331.574 244.44C330.944 244.941 330.16 245.192 329.222 245.192ZM329.222 238.264C328.656 238.264 328.155 238.435 327.718 238.776C327.28 239.107 327.014 239.608 326.918 240.28H331.398C331.366 239.661 331.147 239.171 330.742 238.808C330.336 238.445 329.83 238.264 329.222 238.264ZM335.603 245V237.064H337.123L337.267 238.568C337.545 238.045 337.929 237.635 338.419 237.336C338.921 237.027 339.523 236.872 340.227 236.872V238.648H339.763C339.294 238.648 338.873 238.728 338.499 238.888C338.137 239.037 337.843 239.299 337.619 239.672C337.406 240.035 337.299 240.541 337.299 241.192V245H335.603ZM345.119 245.192C344.447 245.192 343.893 245.08 343.455 244.856C343.018 244.632 342.693 244.339 342.479 243.976C342.266 243.603 342.159 243.197 342.159 242.76C342.159 241.992 342.458 241.384 343.055 240.936C343.653 240.488 344.506 240.264 345.615 240.264H347.695V240.12C347.695 239.501 347.525 239.037 347.183 238.728C346.853 238.419 346.421 238.264 345.887 238.264C345.418 238.264 345.007 238.381 344.655 238.616C344.314 238.84 344.106 239.176 344.031 239.624H342.335C342.389 239.048 342.581 238.557 342.911 238.152C343.253 237.736 343.679 237.421 344.191 237.208C344.714 236.984 345.285 236.872 345.903 236.872C347.013 236.872 347.871 237.165 348.479 237.752C349.087 238.328 349.391 239.117 349.391 240.12V245H347.919L347.775 243.64C347.551 244.077 347.226 244.445 346.799 244.744C346.373 245.043 345.813 245.192 345.119 245.192ZM345.455 243.816C345.914 243.816 346.298 243.709 346.607 243.496C346.927 243.272 347.173 242.979 347.343 242.616C347.525 242.253 347.637 241.853 347.679 241.416H345.791C345.119 241.416 344.639 241.533 344.351 241.768C344.074 242.003 343.935 242.296 343.935 242.648C343.935 243.011 344.069 243.299 344.335 243.512C344.613 243.715 344.986 243.816 345.455 243.816ZM355.735 245.192C354.967 245.192 354.29 245.011 353.703 244.648C353.116 244.285 352.658 243.789 352.327 243.16C351.996 242.531 351.831 241.816 351.831 241.016C351.831 240.216 351.996 239.507 352.327 238.888C352.658 238.259 353.116 237.768 353.703 237.416C354.3 237.053 354.983 236.872 355.751 236.872C356.38 236.872 356.93 236.995 357.399 237.24C357.879 237.485 358.252 237.832 358.519 238.28V233.48H360.215V245H358.695L358.519 243.768C358.263 244.141 357.911 244.472 357.463 244.76C357.015 245.048 356.439 245.192 355.735 245.192ZM356.039 243.72C356.764 243.72 357.356 243.469 357.815 242.968C358.284 242.467 358.519 241.821 358.519 241.032C358.519 240.232 358.284 239.587 357.815 239.096C357.356 238.595 356.764 238.344 356.039 238.344C355.314 238.344 354.716 238.595 354.247 239.096C353.778 239.587 353.543 240.232 353.543 241.032C353.543 241.555 353.65 242.019 353.863 242.424C354.076 242.829 354.37 243.149 354.743 243.384C355.127 243.608 355.559 243.72 356.039 243.72ZM366.815 245.192C366.058 245.192 365.375 245.021 364.767 244.68C364.17 244.328 363.695 243.843 363.343 243.224C362.991 242.595 362.815 241.864 362.815 241.032C362.815 240.2 362.991 239.475 363.343 238.856C363.706 238.227 364.191 237.741 364.799 237.4C365.407 237.048 366.085 236.872 366.831 236.872C367.589 236.872 368.266 237.048 368.863 237.4C369.471 237.741 369.951 238.227 370.303 238.856C370.666 239.475 370.847 240.2 370.847 241.032C370.847 241.864 370.666 242.595 370.303 243.224C369.951 243.843 369.471 244.328 368.863 244.68C368.255 245.021 367.573 245.192 366.815 245.192ZM366.815 243.736C367.221 243.736 367.594 243.635 367.935 243.432C368.287 243.229 368.57 242.931 368.783 242.536C368.997 242.131 369.103 241.629 369.103 241.032C369.103 240.435 368.997 239.939 368.783 239.544C368.581 239.139 368.303 238.835 367.951 238.632C367.61 238.429 367.237 238.328 366.831 238.328C366.426 238.328 366.047 238.429 365.695 238.632C365.354 238.835 365.077 239.139 364.863 239.544C364.65 239.939 364.543 240.435 364.543 241.032C364.543 241.629 364.65 242.131 364.863 242.536C365.077 242.931 365.354 243.229 365.695 243.432C366.037 243.635 366.41 243.736 366.815 243.736Z" fill="#FF4B00"/>
<path d="M280 209H372V207H280V209ZM372 271H280V273H372V271ZM280 271C262.879 271 249 257.121 249 240H247C247 258.225 261.775 273 280 273V271ZM403 240C403 257.121 389.121 271 372 271V273C390.225 273 405 258.225 405 240H403ZM372 209C389.121 209 403 222.879 403 240H405C405 221.775 390.225 207 372 207V209ZM280 207C261.775 207 247 221.775 247 240H249C249 222.879 262.879 209 280 209V207Z" fill="#E0E0E0"/>
<path d="M59.9149 375V352.6H66.7949C70.7415 352.6 73.6429 353.603 75.4989 355.608C77.3762 357.613 78.3149 360.365 78.3149 363.864C78.3149 367.299 77.3762 370.019 75.4989 372.024C73.6429 374.008 70.7415 375 66.7949 375H59.9149ZM62.6029 372.76H66.7309C68.9069 372.76 70.6349 372.408 71.9149 371.704C73.2162 370.979 74.1442 369.955 74.6989 368.632C75.2535 367.288 75.5309 365.699 75.5309 363.864C75.5309 361.987 75.2535 360.376 74.6989 359.032C74.1442 357.688 73.2162 356.653 71.9149 355.928C70.6349 355.203 68.9069 354.84 66.7309 354.84H62.6029V372.76ZM84.6681 355.608C84.1348 355.608 83.6868 355.437 83.3241 355.096C82.9828 354.733 82.8121 354.285 82.8121 353.752C82.8121 353.24 82.9828 352.813 83.3241 352.472C83.6868 352.131 84.1348 351.96 84.6681 351.96C85.1801 351.96 85.6175 352.131 85.9801 352.472C86.3428 352.813 86.5241 353.24 86.5241 353.752C86.5241 354.285 86.3428 354.733 85.9801 355.096C85.6175 355.437 85.1801 355.608 84.6681 355.608ZM83.3241 375V359.128H86.0121V375H83.3241ZM92.5564 375V361.4H90.1564V359.128H92.5564V356.376C92.5564 354.84 92.9404 353.72 93.7084 353.016C94.4764 352.312 95.5964 351.96 97.0684 351.96H98.6684V354.264H97.4844C96.6737 354.264 96.0977 354.435 95.7564 354.776C95.415 355.096 95.2444 355.651 95.2444 356.44V359.128H99.1484V361.4H95.2444V375H92.5564ZM109.86 375.384C108.345 375.384 107.001 375.043 105.828 374.36C104.654 373.656 103.726 372.685 103.044 371.448C102.382 370.211 102.052 368.749 102.052 367.064C102.052 365.4 102.382 363.949 103.044 362.712C103.705 361.453 104.622 360.483 105.796 359.8C106.99 359.096 108.366 358.744 109.924 358.744C111.46 358.744 112.782 359.096 113.892 359.8C115.022 360.483 115.886 361.389 116.484 362.52C117.081 363.651 117.38 364.867 117.38 366.168C117.38 366.403 117.369 366.637 117.348 366.872C117.348 367.107 117.348 367.373 117.348 367.672H104.708C104.772 368.888 105.049 369.901 105.54 370.712C106.052 371.501 106.681 372.099 107.428 372.504C108.196 372.909 109.006 373.112 109.86 373.112C110.969 373.112 111.897 372.856 112.644 372.344C113.39 371.832 113.934 371.139 114.276 370.264H116.932C116.505 371.736 115.684 372.963 114.468 373.944C113.273 374.904 111.737 375.384 109.86 375.384ZM109.86 361.016C108.58 361.016 107.438 361.411 106.436 362.2C105.454 362.968 104.889 364.099 104.74 365.592H114.724C114.66 364.163 114.169 363.043 113.252 362.232C112.334 361.421 111.204 361.016 109.86 361.016ZM121.942 375V359.128H124.374L124.598 362.168C125.089 361.123 125.836 360.291 126.838 359.672C127.841 359.053 129.078 358.744 130.55 358.744V361.56H129.814C128.876 361.56 128.012 361.731 127.222 362.072C126.433 362.392 125.804 362.947 125.334 363.736C124.865 364.525 124.63 365.613 124.63 367V375H121.942ZM141.11 375.384C139.595 375.384 138.251 375.043 137.078 374.36C135.904 373.656 134.976 372.685 134.294 371.448C133.632 370.211 133.302 368.749 133.302 367.064C133.302 365.4 133.632 363.949 134.294 362.712C134.955 361.453 135.872 360.483 137.046 359.8C138.24 359.096 139.616 358.744 141.174 358.744C142.71 358.744 144.032 359.096 145.142 359.8C146.272 360.483 147.136 361.389 147.734 362.52C148.331 363.651 148.63 364.867 148.63 366.168C148.63 366.403 148.619 366.637 148.598 366.872C148.598 367.107 148.598 367.373 148.598 367.672H135.958C136.022 368.888 136.299 369.901 136.79 370.712C137.302 371.501 137.931 372.099 138.678 372.504C139.446 372.909 140.256 373.112 141.11 373.112C142.219 373.112 143.147 372.856 143.894 372.344C144.64 371.832 145.184 371.139 145.526 370.264H148.182C147.755 371.736 146.934 372.963 145.718 373.944C144.523 374.904 142.987 375.384 141.11 375.384ZM141.11 361.016C139.83 361.016 138.688 361.411 137.686 362.2C136.704 362.968 136.139 364.099 135.99 365.592H145.974C145.91 364.163 145.419 363.043 144.502 362.232C143.584 361.421 142.454 361.016 141.11 361.016ZM153.192 375V359.128H155.624L155.784 361.976C156.296 360.973 157.032 360.184 157.992 359.608C158.952 359.032 160.04 358.744 161.256 358.744C163.134 358.744 164.627 359.32 165.736 360.472C166.867 361.603 167.432 363.352 167.432 365.72V375H164.744V366.008C164.744 362.701 163.379 361.048 160.648 361.048C159.283 361.048 158.142 361.549 157.224 362.552C156.328 363.533 155.88 364.941 155.88 366.776V375H153.192ZM178.777 375C177.326 375 176.185 374.648 175.353 373.944C174.521 373.24 174.105 371.971 174.105 370.136V361.4H171.353V359.128H174.105L174.457 355.32H176.793V359.128H181.465V361.4H176.793V370.136C176.793 371.139 176.996 371.821 177.401 372.184C177.806 372.525 178.521 372.696 179.545 372.696H181.209V375H178.777ZM192.578 375.384C191.064 375.384 189.72 375.043 188.546 374.36C187.373 373.656 186.445 372.685 185.762 371.448C185.101 370.211 184.77 368.749 184.77 367.064C184.77 365.4 185.101 363.949 185.762 362.712C186.424 361.453 187.341 360.483 188.514 359.8C189.709 359.096 191.085 358.744 192.642 358.744C194.178 358.744 195.501 359.096 196.61 359.8C197.741 360.483 198.605 361.389 199.202 362.52C199.8 363.651 200.098 364.867 200.098 366.168C200.098 366.403 200.088 366.637 200.066 366.872C200.066 367.107 200.066 367.373 200.066 367.672H187.426C187.49 368.888 187.768 369.901 188.258 370.712C188.77 371.501 189.4 372.099 190.146 372.504C190.914 372.909 191.725 373.112 192.578 373.112C193.688 373.112 194.616 372.856 195.362 372.344C196.109 371.832 196.653 371.139 196.994 370.264H199.65C199.224 371.736 198.402 372.963 197.186 373.944C195.992 374.904 194.456 375.384 192.578 375.384ZM192.578 361.016C191.298 361.016 190.157 361.411 189.154 362.2C188.173 362.968 187.608 364.099 187.458 365.592H197.442C197.378 364.163 196.888 363.043 195.97 362.232C195.053 361.421 193.922 361.016 192.578 361.016ZM210.741 375.384C208.842 375.384 207.264 374.904 206.005 373.944C204.746 372.984 204.01 371.683 203.797 370.04H206.549C206.72 370.872 207.157 371.597 207.861 372.216C208.586 372.813 209.557 373.112 210.773 373.112C211.904 373.112 212.736 372.877 213.269 372.408C213.802 371.917 214.069 371.341 214.069 370.68C214.069 369.72 213.717 369.08 213.013 368.76C212.33 368.44 211.36 368.152 210.101 367.896C209.248 367.725 208.394 367.48 207.541 367.16C206.688 366.84 205.973 366.392 205.397 365.816C204.821 365.219 204.533 364.44 204.533 363.48C204.533 362.093 205.045 360.963 206.069 360.088C207.114 359.192 208.522 358.744 210.293 358.744C211.978 358.744 213.354 359.171 214.421 360.024C215.509 360.856 216.138 362.051 216.309 363.608H213.653C213.546 362.797 213.194 362.168 212.597 361.72C212.021 361.251 211.242 361.016 210.261 361.016C209.301 361.016 208.554 361.219 208.021 361.624C207.509 362.029 207.253 362.563 207.253 363.224C207.253 363.864 207.584 364.365 208.245 364.728C208.928 365.091 209.845 365.4 210.997 365.656C211.978 365.869 212.906 366.136 213.781 366.456C214.677 366.755 215.402 367.213 215.957 367.832C216.533 368.429 216.821 369.304 216.821 370.456C216.842 371.885 216.298 373.069 215.189 374.008C214.101 374.925 212.618 375.384 210.741 375.384ZM238.426 375.384C236.911 375.384 235.546 375.043 234.33 374.36C233.135 373.656 232.186 372.685 231.482 371.448C230.799 370.189 230.458 368.728 230.458 367.064C230.458 365.4 230.799 363.949 231.482 362.712C232.186 361.453 233.135 360.483 234.33 359.8C235.546 359.096 236.911 358.744 238.426 358.744C240.303 358.744 241.882 359.235 243.162 360.216C244.463 361.197 245.285 362.509 245.626 364.152H242.874C242.661 363.171 242.138 362.413 241.306 361.88C240.474 361.325 239.503 361.048 238.394 361.048C237.498 361.048 236.655 361.272 235.866 361.72C235.077 362.168 234.437 362.84 233.946 363.736C233.455 364.632 233.21 365.741 233.21 367.064C233.21 368.387 233.455 369.496 233.946 370.392C234.437 371.288 235.077 371.971 235.866 372.44C236.655 372.888 237.498 373.112 238.394 373.112C239.503 373.112 240.474 372.845 241.306 372.312C242.138 371.757 242.661 370.979 242.874 369.976H245.626C245.306 371.576 244.495 372.877 243.194 373.88C241.893 374.883 240.303 375.384 238.426 375.384ZM255.66 375.384C254.337 375.384 253.239 375.16 252.364 374.712C251.489 374.264 250.839 373.667 250.412 372.92C249.985 372.173 249.772 371.363 249.772 370.488C249.772 368.867 250.391 367.619 251.628 366.744C252.865 365.869 254.551 365.432 256.684 365.432H260.972V365.24C260.972 363.853 260.609 362.808 259.884 362.104C259.159 361.379 258.188 361.016 256.972 361.016C255.927 361.016 255.02 361.283 254.252 361.816C253.505 362.328 253.036 363.085 252.844 364.088H250.092C250.199 362.936 250.583 361.965 251.244 361.176C251.927 360.387 252.769 359.789 253.772 359.384C254.775 358.957 255.841 358.744 256.972 358.744C259.191 358.744 260.855 359.341 261.964 360.536C263.095 361.709 263.66 363.277 263.66 365.24V375H261.26L261.1 372.152C260.652 373.048 259.991 373.816 259.116 374.456C258.263 375.075 257.111 375.384 255.66 375.384ZM256.076 373.112C257.1 373.112 257.975 372.845 258.7 372.312C259.447 371.779 260.012 371.085 260.396 370.232C260.78 369.379 260.972 368.483 260.972 367.544V367.512H256.908C255.329 367.512 254.209 367.789 253.548 368.344C252.908 368.877 252.588 369.549 252.588 370.36C252.588 371.192 252.887 371.864 253.484 372.376C254.103 372.867 254.967 373.112 256.076 373.112ZM274.527 375C273.076 375 271.935 374.648 271.103 373.944C270.271 373.24 269.855 371.971 269.855 370.136V361.4H267.103V359.128H269.855L270.207 355.32H272.543V359.128H277.215V361.4H272.543V370.136C272.543 371.139 272.746 371.821 273.151 372.184C273.556 372.525 274.271 372.696 275.295 372.696H276.959V375H274.527ZM288.328 375.384C286.814 375.384 285.47 375.043 284.296 374.36C283.123 373.656 282.195 372.685 281.512 371.448C280.851 370.211 280.52 368.749 280.52 367.064C280.52 365.4 280.851 363.949 281.512 362.712C282.174 361.453 283.091 360.483 284.264 359.8C285.459 359.096 286.835 358.744 288.392 358.744C289.928 358.744 291.251 359.096 292.36 359.8C293.491 360.483 294.355 361.389 294.952 362.52C295.55 363.651 295.848 364.867 295.848 366.168C295.848 366.403 295.838 366.637 295.816 366.872C295.816 367.107 295.816 367.373 295.816 367.672H283.176C283.24 368.888 283.518 369.901 284.008 370.712C284.52 371.501 285.15 372.099 285.896 372.504C286.664 372.909 287.475 373.112 288.328 373.112C289.438 373.112 290.366 372.856 291.112 372.344C291.859 371.832 292.403 371.139 292.744 370.264H295.4C294.974 371.736 294.152 372.963 292.936 373.944C291.742 374.904 290.206 375.384 288.328 375.384ZM288.328 361.016C287.048 361.016 285.907 361.411 284.904 362.2C283.923 362.968 283.358 364.099 283.208 365.592H293.192C293.128 364.163 292.638 363.043 291.72 362.232C290.803 361.421 289.672 361.016 288.328 361.016ZM306.589 370.008C305.693 370.008 304.872 369.891 304.125 369.656L302.525 371.16C302.76 371.331 303.048 371.48 303.389 371.608C303.752 371.715 304.264 371.821 304.925 371.928C305.587 372.013 306.515 372.109 307.709 372.216C309.843 372.365 311.368 372.856 312.285 373.688C313.203 374.52 313.661 375.608 313.661 376.952C313.661 377.869 313.405 378.744 312.893 379.576C312.403 380.408 311.635 381.091 310.589 381.624C309.565 382.157 308.243 382.424 306.621 382.424C305.192 382.424 303.923 382.232 302.813 381.848C301.704 381.485 300.84 380.92 300.221 380.152C299.603 379.405 299.293 378.456 299.293 377.304C299.293 376.707 299.453 376.056 299.773 375.352C300.093 374.669 300.691 374.019 301.565 373.4C301.096 373.208 300.691 373.005 300.349 372.792C300.029 372.557 299.731 372.301 299.453 372.024V371.288L302.173 368.6C300.915 367.533 300.285 366.125 300.285 364.376C300.285 363.331 300.531 362.381 301.021 361.528C301.512 360.675 302.227 360.003 303.165 359.512C304.104 359 305.245 358.744 306.589 358.744C307.507 358.744 308.339 358.872 309.085 359.128H314.941V361.144L311.965 361.272C312.584 362.168 312.893 363.203 312.893 364.376C312.893 365.421 312.637 366.371 312.125 367.224C311.635 368.077 310.92 368.76 309.981 369.272C309.064 369.763 307.933 370.008 306.589 370.008ZM306.589 367.8C307.72 367.8 308.616 367.512 309.277 366.936C309.96 366.339 310.301 365.485 310.301 364.376C310.301 363.288 309.96 362.456 309.277 361.88C308.616 361.283 307.72 360.984 306.589 360.984C305.437 360.984 304.52 361.283 303.837 361.88C303.176 362.456 302.845 363.288 302.845 364.376C302.845 365.485 303.176 366.339 303.837 366.936C304.52 367.512 305.437 367.8 306.589 367.8ZM301.917 377.048C301.917 378.115 302.365 378.904 303.261 379.416C304.157 379.949 305.277 380.216 306.621 380.216C307.944 380.216 309 379.928 309.789 379.352C310.6 378.776 311.005 378.008 311.005 377.048C311.005 376.365 310.728 375.768 310.173 375.256C309.619 374.765 308.595 374.477 307.101 374.392C305.928 374.307 304.915 374.2 304.061 374.072C303.187 374.541 302.611 375.043 302.333 375.576C302.056 376.131 301.917 376.621 301.917 377.048ZM325.581 375.384C324.087 375.384 322.743 375.043 321.549 374.36C320.354 373.677 319.405 372.717 318.701 371.48C318.018 370.221 317.677 368.749 317.677 367.064C317.677 365.379 318.029 363.917 318.733 362.68C319.437 361.421 320.386 360.451 321.581 359.768C322.797 359.085 324.151 358.744 325.645 358.744C327.138 358.744 328.482 359.085 329.677 359.768C330.871 360.451 331.81 361.421 332.493 362.68C333.197 363.917 333.549 365.379 333.549 367.064C333.549 368.749 333.197 370.221 332.493 371.48C331.789 372.717 330.829 373.677 329.613 374.36C328.418 375.043 327.074 375.384 325.581 375.384ZM325.581 373.08C326.498 373.08 327.351 372.856 328.141 372.408C328.93 371.96 329.57 371.288 330.061 370.392C330.551 369.496 330.797 368.387 330.797 367.064C330.797 365.741 330.551 364.632 330.061 363.736C329.591 362.84 328.962 362.168 328.173 361.72C327.383 361.272 326.541 361.048 325.645 361.048C324.727 361.048 323.874 361.272 323.085 361.72C322.295 362.168 321.655 362.84 321.165 363.736C320.674 364.632 320.429 365.741 320.429 367.064C320.429 368.387 320.674 369.496 321.165 370.392C321.655 371.288 322.285 371.96 323.053 372.408C323.842 372.856 324.685 373.08 325.581 373.08ZM338.286 375V359.128H340.718L340.942 362.168C341.433 361.123 342.179 360.291 343.182 359.672C344.185 359.053 345.422 358.744 346.894 358.744V361.56H346.158C345.219 361.56 344.355 361.731 343.566 362.072C342.777 362.392 342.147 362.947 341.678 363.736C341.209 364.525 340.974 365.613 340.974 367V375H338.286ZM352.543 355.608C352.01 355.608 351.562 355.437 351.199 355.096C350.858 354.733 350.687 354.285 350.687 353.752C350.687 353.24 350.858 352.813 351.199 352.472C351.562 352.131 352.01 351.96 352.543 351.96C353.055 351.96 353.492 352.131 353.855 352.472C354.218 352.813 354.399 353.24 354.399 353.752C354.399 354.285 354.218 354.733 353.855 355.096C353.492 355.437 353.055 355.608 352.543 355.608ZM351.199 375V359.128H353.887V375H351.199ZM364.847 375.384C363.525 375.384 362.426 375.16 361.551 374.712C360.677 374.264 360.026 373.667 359.599 372.92C359.173 372.173 358.959 371.363 358.959 370.488C358.959 368.867 359.578 367.619 360.815 366.744C362.053 365.869 363.738 365.432 365.871 365.432H370.159V365.24C370.159 363.853 369.797 362.808 369.071 362.104C368.346 361.379 367.375 361.016 366.159 361.016C365.114 361.016 364.207 361.283 363.439 361.816C362.693 362.328 362.223 363.085 362.031 364.088H359.279C359.386 362.936 359.77 361.965 360.431 361.176C361.114 360.387 361.957 359.789 362.959 359.384C363.962 358.957 365.029 358.744 366.159 358.744C368.378 358.744 370.042 359.341 371.151 360.536C372.282 361.709 372.847 363.277 372.847 365.24V375H370.447L370.287 372.152C369.839 373.048 369.178 373.816 368.303 374.456C367.45 375.075 366.298 375.384 364.847 375.384ZM365.263 373.112C366.287 373.112 367.162 372.845 367.887 372.312C368.634 371.779 369.199 371.085 369.583 370.232C369.967 369.379 370.159 368.483 370.159 367.544V367.512H366.095C364.517 367.512 363.397 367.789 362.735 368.344C362.095 368.877 361.775 369.549 361.775 370.36C361.775 371.192 362.074 371.864 362.671 372.376C363.29 372.867 364.154 373.112 365.263 373.112ZM383.96 375.384C382.061 375.384 380.483 374.904 379.224 373.944C377.965 372.984 377.229 371.683 377.016 370.04H379.768C379.939 370.872 380.376 371.597 381.08 372.216C381.805 372.813 382.776 373.112 383.992 373.112C385.123 373.112 385.955 372.877 386.488 372.408C387.021 371.917 387.288 371.341 387.288 370.68C387.288 369.72 386.936 369.08 386.232 368.76C385.549 368.44 384.579 368.152 383.32 367.896C382.467 367.725 381.613 367.48 380.76 367.16C379.907 366.84 379.192 366.392 378.616 365.816C378.04 365.219 377.752 364.44 377.752 363.48C377.752 362.093 378.264 360.963 379.288 360.088C380.333 359.192 381.741 358.744 383.512 358.744C385.197 358.744 386.573 359.171 387.64 360.024C388.728 360.856 389.357 362.051 389.528 363.608H386.872C386.765 362.797 386.413 362.168 385.816 361.72C385.24 361.251 384.461 361.016 383.48 361.016C382.52 361.016 381.773 361.219 381.24 361.624C380.728 362.029 380.472 362.563 380.472 363.224C380.472 363.864 380.803 364.365 381.464 364.728C382.147 365.091 383.064 365.4 384.216 365.656C385.197 365.869 386.125 366.136 387 366.456C387.896 366.755 388.621 367.213 389.176 367.832C389.752 368.429 390.04 369.304 390.04 370.456C390.061 371.885 389.517 373.069 388.408 374.008C387.32 374.925 385.837 375.384 383.96 375.384ZM411.549 375.384C409.97 375.384 408.583 375.021 407.389 374.296C406.215 373.571 405.298 372.579 404.637 371.32C403.997 370.061 403.677 368.632 403.677 367.032C403.677 365.432 404.007 364.013 404.669 362.776C405.33 361.517 406.247 360.536 407.421 359.832C408.594 359.107 409.981 358.744 411.581 358.744C412.882 358.744 414.034 359.011 415.037 359.544C416.039 360.077 416.818 360.824 417.373 361.784V351.96H420.061V375H417.629L417.373 372.376C416.861 373.144 416.125 373.837 415.165 374.456C414.205 375.075 412.999 375.384 411.549 375.384ZM411.837 373.048C412.903 373.048 413.842 372.803 414.653 372.312C415.485 371.8 416.125 371.096 416.573 370.2C417.042 369.304 417.277 368.259 417.277 367.064C417.277 365.869 417.042 364.824 416.573 363.928C416.125 363.032 415.485 362.339 414.653 361.848C413.842 361.336 412.903 361.08 411.837 361.08C410.791 361.08 409.853 361.336 409.021 361.848C408.21 362.339 407.57 363.032 407.101 363.928C406.653 364.824 406.429 365.869 406.429 367.064C406.429 368.259 406.653 369.304 407.101 370.2C407.57 371.096 408.21 371.8 409.021 372.312C409.853 372.803 410.791 373.048 411.837 373.048ZM432.578 375.384C431.064 375.384 429.72 375.043 428.546 374.36C427.373 373.656 426.445 372.685 425.762 371.448C425.101 370.211 424.77 368.749 424.77 367.064C424.77 365.4 425.101 363.949 425.762 362.712C426.424 361.453 427.341 360.483 428.514 359.8C429.709 359.096 431.085 358.744 432.642 358.744C434.178 358.744 435.501 359.096 436.61 359.8C437.741 360.483 438.605 361.389 439.202 362.52C439.8 363.651 440.098 364.867 440.098 366.168C440.098 366.403 440.088 366.637 440.066 366.872C440.066 367.107 440.066 367.373 440.066 367.672H427.426C427.49 368.888 427.768 369.901 428.258 370.712C428.77 371.501 429.4 372.099 430.146 372.504C430.914 372.909 431.725 373.112 432.578 373.112C433.688 373.112 434.616 372.856 435.362 372.344C436.109 371.832 436.653 371.139 436.994 370.264H439.65C439.224 371.736 438.402 372.963 437.186 373.944C435.992 374.904 434.456 375.384 432.578 375.384ZM432.578 361.016C431.298 361.016 430.157 361.411 429.154 362.2C428.173 362.968 427.608 364.099 427.458 365.592H437.442C437.378 364.163 436.888 363.043 435.97 362.232C435.053 361.421 433.922 361.016 432.578 361.016ZM100.246 423C98.795 423 97.6536 422.648 96.8216 421.944C95.9896 421.24 95.5736 419.971 95.5736 418.136V409.4H92.8216V407.128H95.5736L95.9256 403.32H98.2616V407.128H102.934V409.4H98.2616V418.136C98.2616 419.139 98.4643 419.821 98.8696 420.184C99.275 420.525 99.9896 420.696 101.014 420.696H102.678V423H100.246ZM107.349 423V407.128H109.781L110.005 410.168C110.495 409.123 111.242 408.291 112.245 407.672C113.247 407.053 114.485 406.744 115.957 406.744V409.56H115.221C114.282 409.56 113.418 409.731 112.629 410.072C111.839 410.392 111.21 410.947 110.741 411.736C110.271 412.525 110.037 413.613 110.037 415V423H107.349ZM125.254 423.384C123.931 423.384 122.832 423.16 121.958 422.712C121.083 422.264 120.432 421.667 120.006 420.92C119.579 420.173 119.366 419.363 119.366 418.488C119.366 416.867 119.984 415.619 121.222 414.744C122.459 413.869 124.144 413.432 126.278 413.432H130.566V413.24C130.566 411.853 130.203 410.808 129.478 410.104C128.752 409.379 127.782 409.016 126.566 409.016C125.52 409.016 124.614 409.283 123.846 409.816C123.099 410.328 122.63 411.085 122.438 412.088H119.686C119.792 410.936 120.176 409.965 120.838 409.176C121.52 408.387 122.363 407.789 123.366 407.384C124.368 406.957 125.435 406.744 126.566 406.744C128.784 406.744 130.448 407.341 131.558 408.536C132.688 409.709 133.254 411.277 133.254 413.24V423H130.854L130.694 420.152C130.246 421.048 129.584 421.816 128.71 422.456C127.856 423.075 126.704 423.384 125.254 423.384ZM125.67 421.112C126.694 421.112 127.568 420.845 128.294 420.312C129.04 419.779 129.606 419.085 129.99 418.232C130.374 417.379 130.566 416.483 130.566 415.544V415.512H126.502C124.923 415.512 123.803 415.789 123.142 416.344C122.502 416.877 122.182 417.549 122.182 418.36C122.182 419.192 122.48 419.864 123.078 420.376C123.696 420.867 124.56 421.112 125.67 421.112ZM146.766 423.384C145.465 423.384 144.302 423.117 143.278 422.584C142.275 422.051 141.507 421.304 140.974 420.344L140.718 423H138.286V399.96H140.974V409.752C141.486 408.984 142.211 408.291 143.15 407.672C144.11 407.053 145.326 406.744 146.798 406.744C148.377 406.744 149.753 407.107 150.926 407.832C152.099 408.557 153.006 409.549 153.646 410.808C154.307 412.067 154.638 413.496 154.638 415.096C154.638 416.696 154.307 418.125 153.646 419.384C153.006 420.621 152.089 421.603 150.894 422.328C149.721 423.032 148.345 423.384 146.766 423.384ZM146.478 421.048C147.545 421.048 148.483 420.803 149.294 420.312C150.105 419.8 150.745 419.096 151.214 418.2C151.683 417.304 151.918 416.259 151.918 415.064C151.918 413.869 151.683 412.824 151.214 411.928C150.745 411.032 150.105 410.339 149.294 409.848C148.483 409.336 147.545 409.08 146.478 409.08C145.411 409.08 144.473 409.336 143.662 409.848C142.851 410.339 142.211 411.032 141.742 411.928C141.273 412.824 141.038 413.869 141.038 415.064C141.038 416.259 141.273 417.304 141.742 418.2C142.211 419.096 142.851 419.8 143.662 420.312C144.473 420.803 145.411 421.048 146.478 421.048ZM164.66 423.384C163.337 423.384 162.239 423.16 161.364 422.712C160.489 422.264 159.839 421.667 159.412 420.92C158.985 420.173 158.772 419.363 158.772 418.488C158.772 416.867 159.391 415.619 160.628 414.744C161.865 413.869 163.551 413.432 165.684 413.432H169.972V413.24C169.972 411.853 169.609 410.808 168.884 410.104C168.159 409.379 167.188 409.016 165.972 409.016C164.927 409.016 164.02 409.283 163.252 409.816C162.505 410.328 162.036 411.085 161.844 412.088H159.092C159.199 410.936 159.583 409.965 160.244 409.176C160.927 408.387 161.769 407.789 162.772 407.384C163.775 406.957 164.841 406.744 165.972 406.744C168.191 406.744 169.855 407.341 170.964 408.536C172.095 409.709 172.66 411.277 172.66 413.24V423H170.26L170.1 420.152C169.652 421.048 168.991 421.816 168.116 422.456C167.263 423.075 166.111 423.384 164.66 423.384ZM165.076 421.112C166.1 421.112 166.975 420.845 167.7 420.312C168.447 419.779 169.012 419.085 169.396 418.232C169.78 417.379 169.972 416.483 169.972 415.544V415.512H165.908C164.329 415.512 163.209 415.789 162.548 416.344C161.908 416.877 161.588 417.549 161.588 418.36C161.588 419.192 161.887 419.864 162.484 420.376C163.103 420.867 163.967 421.112 165.076 421.112ZM177.692 423V399.96H180.38V423H177.692ZM185.786 423V399.96H188.474V409.848C189.007 408.867 189.765 408.109 190.746 407.576C191.727 407.021 192.794 406.744 193.946 406.744C195.781 406.744 197.253 407.32 198.362 408.472C199.471 409.603 200.026 411.352 200.026 413.72V423H197.37V414.008C197.37 410.701 196.037 409.048 193.37 409.048C191.983 409.048 190.821 409.549 189.882 410.552C188.943 411.533 188.474 412.941 188.474 414.776V423H185.786ZM212.331 423.384C210.837 423.384 209.493 423.043 208.299 422.36C207.104 421.677 206.155 420.717 205.451 419.48C204.768 418.221 204.427 416.749 204.427 415.064C204.427 413.379 204.779 411.917 205.483 410.68C206.187 409.421 207.136 408.451 208.331 407.768C209.547 407.085 210.901 406.744 212.395 406.744C213.888 406.744 215.232 407.085 216.427 407.768C217.621 408.451 218.56 409.421 219.243 410.68C219.947 411.917 220.299 413.379 220.299 415.064C220.299 416.749 219.947 418.221 219.243 419.48C218.539 420.717 217.579 421.677 216.363 422.36C215.168 423.043 213.824 423.384 212.331 423.384ZM212.331 421.08C213.248 421.08 214.101 420.856 214.891 420.408C215.68 419.96 216.32 419.288 216.811 418.392C217.301 417.496 217.547 416.387 217.547 415.064C217.547 413.741 217.301 412.632 216.811 411.736C216.341 410.84 215.712 410.168 214.923 409.72C214.133 409.272 213.291 409.048 212.395 409.048C211.477 409.048 210.624 409.272 209.835 409.72C209.045 410.168 208.405 410.84 207.915 411.736C207.424 412.632 207.179 413.741 207.179 415.064C207.179 416.387 207.424 417.496 207.915 418.392C208.405 419.288 209.035 419.96 209.803 420.408C210.592 420.856 211.435 421.08 212.331 421.08ZM241.705 423.384C240.126 423.384 238.74 423.021 237.545 422.296C236.372 421.571 235.454 420.579 234.793 419.32C234.153 418.061 233.833 416.632 233.833 415.032C233.833 413.432 234.164 412.013 234.825 410.776C235.486 409.517 236.404 408.536 237.577 407.832C238.75 407.107 240.137 406.744 241.737 406.744C243.038 406.744 244.19 407.011 245.193 407.544C246.196 408.077 246.974 408.824 247.529 409.784V399.96H250.217V423H247.785L247.529 420.376C247.017 421.144 246.281 421.837 245.321 422.456C244.361 423.075 243.156 423.384 241.705 423.384ZM241.993 421.048C243.06 421.048 243.998 420.803 244.809 420.312C245.641 419.8 246.281 419.096 246.729 418.2C247.198 417.304 247.433 416.259 247.433 415.064C247.433 413.869 247.198 412.824 246.729 411.928C246.281 411.032 245.641 410.339 244.809 409.848C243.998 409.336 243.06 409.08 241.993 409.08C240.948 409.08 240.009 409.336 239.177 409.848C238.366 410.339 237.726 411.032 237.257 411.928C236.809 412.824 236.585 413.869 236.585 415.064C236.585 416.259 236.809 417.304 237.257 418.2C237.726 419.096 238.366 419.8 239.177 420.312C240.009 420.803 240.948 421.048 241.993 421.048ZM257.231 403.608C256.697 403.608 256.249 403.437 255.887 403.096C255.545 402.733 255.375 402.285 255.375 401.752C255.375 401.24 255.545 400.813 255.887 400.472C256.249 400.131 256.697 399.96 257.231 399.96C257.743 399.96 258.18 400.131 258.543 400.472C258.905 400.813 259.087 401.24 259.087 401.752C259.087 402.285 258.905 402.733 258.543 403.096C258.18 403.437 257.743 403.608 257.231 403.608ZM255.887 423V407.128H258.575V423H255.887ZM270.335 423.384C268.436 423.384 266.858 422.904 265.599 421.944C264.34 420.984 263.604 419.683 263.391 418.04H266.143C266.314 418.872 266.751 419.597 267.455 420.216C268.18 420.813 269.151 421.112 270.367 421.112C271.498 421.112 272.33 420.877 272.863 420.408C273.396 419.917 273.663 419.341 273.663 418.68C273.663 417.72 273.311 417.08 272.607 416.76C271.924 416.44 270.954 416.152 269.695 415.896C268.842 415.725 267.988 415.48 267.135 415.16C266.282 414.84 265.567 414.392 264.991 413.816C264.415 413.219 264.127 412.44 264.127 411.48C264.127 410.093 264.639 408.963 265.663 408.088C266.708 407.192 268.116 406.744 269.887 406.744C271.572 406.744 272.948 407.171 274.015 408.024C275.103 408.856 275.732 410.051 275.903 411.608H273.247C273.14 410.797 272.788 410.168 272.191 409.72C271.615 409.251 270.836 409.016 269.855 409.016C268.895 409.016 268.148 409.219 267.615 409.624C267.103 410.029 266.847 410.563 266.847 411.224C266.847 411.864 267.178 412.365 267.839 412.728C268.522 413.091 269.439 413.4 270.591 413.656C271.572 413.869 272.5 414.136 273.375 414.456C274.271 414.755 274.996 415.213 275.551 415.832C276.127 416.429 276.415 417.304 276.415 418.456C276.436 419.885 275.892 421.069 274.783 422.008C273.695 422.925 272.212 423.384 270.335 423.384ZM281.255 430.04V407.128H283.687L283.943 409.752C284.455 408.984 285.18 408.291 286.119 407.672C287.079 407.053 288.295 406.744 289.767 406.744C291.346 406.744 292.722 407.107 293.895 407.832C295.068 408.557 295.975 409.549 296.615 410.808C297.276 412.067 297.607 413.496 297.607 415.096C297.607 416.696 297.276 418.125 296.615 419.384C295.975 420.621 295.058 421.603 293.863 422.328C292.69 423.032 291.314 423.384 289.735 423.384C288.434 423.384 287.271 423.117 286.247 422.584C285.244 422.051 284.476 421.304 283.943 420.344V430.04H281.255ZM289.447 421.048C290.514 421.048 291.452 420.803 292.263 420.312C293.074 419.8 293.714 419.096 294.183 418.2C294.652 417.304 294.887 416.259 294.887 415.064C294.887 413.869 294.652 412.824 294.183 411.928C293.714 411.032 293.074 410.339 292.263 409.848C291.452 409.336 290.514 409.08 289.447 409.08C288.38 409.08 287.442 409.336 286.631 409.848C285.82 410.339 285.18 411.032 284.711 411.928C284.242 412.824 284.007 413.869 284.007 415.064C284.007 416.259 284.242 417.304 284.711 418.2C285.18 419.096 285.82 419.8 286.631 420.312C287.442 420.803 288.38 421.048 289.447 421.048ZM309.581 423.384C308.087 423.384 306.743 423.043 305.549 422.36C304.354 421.677 303.405 420.717 302.701 419.48C302.018 418.221 301.677 416.749 301.677 415.064C301.677 413.379 302.029 411.917 302.733 410.68C303.437 409.421 304.386 408.451 305.581 407.768C306.797 407.085 308.151 406.744 309.645 406.744C311.138 406.744 312.482 407.085 313.677 407.768C314.871 408.451 315.81 409.421 316.493 410.68C317.197 411.917 317.549 413.379 317.549 415.064C317.549 416.749 317.197 418.221 316.493 419.48C315.789 420.717 314.829 421.677 313.613 422.36C312.418 423.043 311.074 423.384 309.581 423.384ZM309.581 421.08C310.498 421.08 311.351 420.856 312.141 420.408C312.93 419.96 313.57 419.288 314.061 418.392C314.551 417.496 314.797 416.387 314.797 415.064C314.797 413.741 314.551 412.632 314.061 411.736C313.591 410.84 312.962 410.168 312.173 409.72C311.383 409.272 310.541 409.048 309.645 409.048C308.727 409.048 307.874 409.272 307.085 409.72C306.295 410.168 305.655 410.84 305.165 411.736C304.674 412.632 304.429 413.741 304.429 415.064C304.429 416.387 304.674 417.496 305.165 418.392C305.655 419.288 306.285 419.96 307.053 420.408C307.842 420.856 308.685 421.08 309.581 421.08ZM322.286 423V407.128H324.718L324.878 409.976C325.39 408.973 326.126 408.184 327.086 407.608C328.046 407.032 329.134 406.744 330.35 406.744C332.227 406.744 333.721 407.32 334.83 408.472C335.961 409.603 336.526 411.352 336.526 413.72V423H333.838V414.008C333.838 410.701 332.473 409.048 329.742 409.048C328.377 409.048 327.235 409.549 326.318 410.552C325.422 411.533 324.974 412.941 324.974 414.776V423H322.286ZM341.599 423V407.128H344.287V423H341.599ZM342.207 405.816V403.8L348.927 399.736V402.072L342.207 405.816ZM354.268 423L348.252 407.128H351.068L355.836 420.408L360.636 407.128H363.388L357.372 423H354.268ZM373.703 423.384C372.189 423.384 370.845 423.043 369.671 422.36C368.498 421.656 367.57 420.685 366.887 419.448C366.226 418.211 365.895 416.749 365.895 415.064C365.895 413.4 366.226 411.949 366.887 410.712C367.549 409.453 368.466 408.483 369.639 407.8C370.834 407.096 372.21 406.744 373.767 406.744C375.303 406.744 376.626 407.096 377.735 407.8C378.866 408.483 379.73 409.389 380.327 410.52C380.925 411.651 381.223 412.867 381.223 414.168C381.223 414.403 381.213 414.637 381.191 414.872C381.191 415.107 381.191 415.373 381.191 415.672H368.551C368.615 416.888 368.893 417.901 369.383 418.712C369.895 419.501 370.525 420.099 371.271 420.504C372.039 420.909 372.85 421.112 373.703 421.112C374.813 421.112 375.741 420.856 376.487 420.344C377.234 419.832 377.778 419.139 378.119 418.264H380.775C380.349 419.736 379.527 420.963 378.311 421.944C377.117 422.904 375.581 423.384 373.703 423.384ZM373.703 409.016C372.423 409.016 371.282 409.411 370.279 410.2C369.298 410.968 368.733 412.099 368.583 413.592H378.567C378.503 412.163 378.013 411.043 377.095 410.232C376.178 409.421 375.047 409.016 373.703 409.016ZM387.418 403.608C386.885 403.608 386.437 403.437 386.074 403.096C385.733 402.733 385.562 402.285 385.562 401.752C385.562 401.24 385.733 400.813 386.074 400.472C386.437 400.131 386.885 399.96 387.418 399.96C387.93 399.96 388.367 400.131 388.73 400.472C389.093 400.813 389.274 401.24 389.274 401.752C389.274 402.285 389.093 402.733 388.73 403.096C388.367 403.437 387.93 403.608 387.418 403.608ZM386.074 423V407.128H388.762V423H386.074ZM400.522 423.384C398.624 423.384 397.045 422.904 395.786 421.944C394.528 420.984 393.792 419.683 393.578 418.04H396.33C396.501 418.872 396.938 419.597 397.642 420.216C398.368 420.813 399.338 421.112 400.554 421.112C401.685 421.112 402.517 420.877 403.05 420.408C403.584 419.917 403.85 419.341 403.85 418.68C403.85 417.72 403.498 417.08 402.794 416.76C402.112 416.44 401.141 416.152 399.882 415.896C399.029 415.725 398.176 415.48 397.322 415.16C396.469 414.84 395.754 414.392 395.178 413.816C394.602 413.219 394.314 412.44 394.314 411.48C394.314 410.093 394.826 408.963 395.85 408.088C396.896 407.192 398.304 406.744 400.074 406.744C401.76 406.744 403.136 407.171 404.202 408.024C405.29 408.856 405.92 410.051 406.09 411.608H403.434C403.328 410.797 402.976 410.168 402.378 409.72C401.802 409.251 401.024 409.016 400.042 409.016C399.082 409.016 398.336 409.219 397.802 409.624C397.29 410.029 397.034 410.563 397.034 411.224C397.034 411.864 397.365 412.365 398.026 412.728C398.709 413.091 399.626 413.4 400.778 413.656C401.76 413.869 402.688 414.136 403.562 414.456C404.458 414.755 405.184 415.213 405.738 415.832C406.314 416.429 406.602 417.304 406.602 418.456C406.624 419.885 406.08 421.069 404.97 422.008C403.882 422.925 402.4 423.384 400.522 423.384Z" fill="#333333"/>
</svg>
