<svg width="32" height="32" viewBox="0 0 32 32" fill="none" xmlns="http://www.w3.org/2000/svg">
<path fill-rule="evenodd" clip-rule="evenodd" d="M16 32C24.8366 32 32 24.8366 32 16C32 7.16344 24.8366 0 16 0C7.16344 0 0 7.16344 0 16C0 24.8366 7.16344 32 16 32Z" fill="#333333"/>
<path d="M22.6829 15.166V23.4993H9.34961V15.166" stroke="#FCFCFC" stroke-width="2" stroke-linecap="round" stroke-linejoin="round"/>
<path d="M8.43416 11.7403C7.79684 13.3907 9.02614 15.1667 10.7954 15.1667C12.1761 15.1667 13.303 14.0474 13.303 12.6667C13.303 14.0474 14.4223 15.1667 15.803 15.1667H16.2274C17.6081 15.1667 18.7274 14.0474 18.7274 12.6667C18.7274 14.0474 19.8548 15.1667 21.2355 15.1667C23.0057 15.1667 24.2361 13.3897 23.5983 11.7385L22.3472 8.5H9.68537L8.43416 11.7403Z" stroke="#FCFCFC" stroke-width="2" stroke-linejoin="round"/>
</svg>
