<svg width="20" height="20" viewBox="0 0 20 20" fill="none" xmlns="http://www.w3.org/2000/svg">
<path d="M12.3425 14.5833C11.7874 16.7398 9.82979 18.3332 7.5 18.3332C4.73858 18.3332 2.5 16.0947 2.5 13.3333C2.5 11.3154 3.69539 9.57662 5.41667 8.78662" stroke="#FF4B00" stroke-width="2" stroke-linecap="round" stroke-linejoin="round"/>
<path d="M7.5 5L8.33333 12.5L14.5833 12.0833L15.8333 16.6667H17.0833" stroke="#FF4B00" stroke-width="2" stroke-linecap="round" stroke-linejoin="round"/>
<path d="M9.16683 3.33341C9.16683 4.25387 8.42062 5.00008 7.50016 5.00008C6.5797 5.00008 5.8335 4.25387 5.8335 3.33341C5.8335 2.41294 6.5797 1.66675 7.50016 1.66675C8.42062 1.66675 9.16683 2.41294 9.16683 3.33341Z" stroke="#FF4B00" stroke-width="2" stroke-linecap="round" stroke-linejoin="round"/>
<path d="M10.4165 8.33325H13.7498" stroke="#FF4B00" stroke-width="2" stroke-linecap="round" stroke-linejoin="round"/>
</svg>
