<svg width="20" height="20" viewBox="0 0 20 20" fill="none" xmlns="http://www.w3.org/2000/svg">
<path d="M10.0003 18.3327C12.3015 18.3327 14.3848 17.3999 15.8929 15.8919C17.4009 14.3839 18.3337 12.3005 18.3337 9.99935C18.3337 7.69818 17.4009 5.61485 15.8929 4.10679C14.3848 2.59876 12.3015 1.66602 10.0003 1.66602C7.69916 1.66602 5.61583 2.59876 4.10777 4.10679C2.59973 5.61485 1.66699 7.69818 1.66699 9.99935C1.66699 12.3005 2.59973 14.3839 4.10777 15.8919C5.61583 17.3999 7.69916 18.3327 10.0003 18.3327Z" stroke="#333333" stroke-width="2" stroke-linejoin="round"/>
<path d="M10 11.9264V10.2598C11.3807 10.2598 12.5 9.14047 12.5 7.75977C12.5 6.37906 11.3807 5.25977 10 5.25977C8.61929 5.25977 7.5 6.37906 7.5 7.75977" stroke="#333333" stroke-width="2" stroke-linecap="round" stroke-linejoin="round"/>
<path fill-rule="evenodd" clip-rule="evenodd" d="M9.99967 15.6771C10.575 15.6771 11.0413 15.2107 11.0413 14.6354C11.0413 14.0601 10.575 13.5938 9.99967 13.5938C9.42438 13.5938 8.95801 14.0601 8.95801 14.6354C8.95801 15.2107 9.42438 15.6771 9.99967 15.6771Z" fill="#333333"/>
</svg>
