<svg width="107" height="25" viewBox="0 0 107 25" fill="none" xmlns="http://www.w3.org/2000/svg">
<path d="M3.91953 0.0505439C2.42032 0.393307 1.84206 2.32135 2.88079 3.5103C3.49118 4.20654 4.89401 4.31365 5.64361 3.72453C5.86849 3.54244 6.14692 3.21039 6.26471 2.97474C6.5003 2.49273 6.53243 1.6144 6.31826 1.20737C5.85779 0.318327 4.87259 -0.163683 3.91953 0.0505439Z" fill="#616161"/>
<path d="M0.000830596 4.62519C0.000830596 5.10716 -0.0741307 5.06432 1.20021 5.34279C1.66069 5.43918 2.14258 5.61055 2.27109 5.71765L2.51739 5.91044L2.54951 13.7183C2.57093 19.1485 2.53881 21.6012 2.46384 21.794C2.31392 22.1474 2.06762 22.2545 0.921783 22.4901L0.000830596 22.6722V23.0578V23.4434H4.39142H8.78201V23.0578V22.6615L8.11807 22.5437C7.02577 22.3509 6.66168 22.2224 6.42608 21.9225C6.21191 21.6547 6.21191 21.5476 6.21191 13.9004C6.21191 8.35241 6.24403 6.08181 6.3297 5.88902C6.46892 5.58913 6.98294 5.3535 7.71113 5.2464C8.82484 5.07503 8.78201 5.09645 8.78201 4.62519V4.20749L8.17161 4.27175C7.82893 4.31459 7.02577 4.46454 6.37254 4.61448C4.8519 4.96793 3.92023 4.96793 2.4103 4.61448C1.76777 4.46454 0.95391 4.30388 0.621938 4.27175L0.000830596 4.19678V4.62519Z" fill="#616161"/>
<path d="M17.6808 6.81081C17.4452 7.43199 14.4147 14.2971 13.3652 16.589C11.6733 20.2732 10.8701 21.8262 10.5274 22.0939C10.3668 22.2224 9.95987 22.4045 9.6172 22.5009C9.0068 22.6722 8.99609 22.683 8.99609 23.0578V23.4434H11.8874H14.7788V23.0578V22.6615L14.0077 22.4902C13.1832 22.3081 12.9583 22.1796 12.9583 21.9011C12.9583 21.8047 13.301 20.873 13.7293 19.8234L14.5003 17.9277L17.1775 17.9492L19.8547 17.9813L20.5186 19.6735C20.8827 20.6052 21.2147 21.4834 21.2468 21.6334C21.3539 22.0511 20.947 22.3724 20.101 22.533L19.3835 22.6615V23.0578V23.4434H23.5063H27.6292V23.0471C27.6292 22.6722 27.6077 22.6401 27.1794 22.533C25.798 22.1796 25.7337 22.1153 24.6414 19.8555C23.2493 16.9638 19.2229 7.92465 18.8159 6.75726C18.7624 6.61804 18.6232 6.5752 18.2591 6.5752C17.8522 6.5752 17.7558 6.61804 17.6808 6.81081ZM18.3447 14.3935L19.4584 17.0174L17.2096 17.0495C15.9674 17.0602 14.9501 17.0602 14.9287 17.0388C14.8966 17.0174 15.5819 15.3466 16.9847 12.048C17.0704 11.8445 17.1561 11.7053 17.1882 11.7267C17.2096 11.7588 17.7344 12.9583 18.3447 14.3935Z" fill="#616161"/>
<path d="M36.2493 6.6911C33.0367 7.0981 30.3917 8.86536 29.1281 11.4466C28.4963 12.7426 28.2393 13.9422 28.2393 15.6773C28.2393 18.9441 29.3637 21.2361 31.6874 22.6821C32.9618 23.4854 34.6002 23.8281 37.181 23.8281C39.1085 23.8281 40.1152 23.6996 43.1993 23.0355L44.7948 22.6928L44.7734 19.8759C44.7627 18.0765 44.7948 16.9305 44.8698 16.7055C45.009 16.2878 45.2018 16.1807 46.3583 15.9344L47.2257 15.7523V15.3667V14.9704L42.9958 14.9811H38.7659V15.356V15.7416L39.7618 15.9772C41.1967 16.3093 41.1218 16.1486 41.1218 19.2118V21.7503L40.2972 21.9966C38.6695 22.4786 36.8597 22.3715 35.4783 21.7074C34.6002 21.2897 33.433 20.1008 33.0153 19.2118C32.4371 17.9908 32.2978 17.2089 32.2871 15.3025C32.2871 13.2353 32.4585 12.3463 33.1545 10.9754C34.0541 9.16526 35.4997 8.23343 37.695 8.01922C38.5838 7.94424 39.9224 8.11561 40.747 8.41551C41.7429 8.77967 42.4925 9.58297 42.9101 10.7504C43.0922 11.2538 43.2742 11.8215 43.317 12.0036C43.3813 12.3463 43.4027 12.357 43.981 12.357H44.57L44.5057 9.88287C44.4736 8.51191 44.4307 7.37658 44.4093 7.35516C44.313 7.26947 42.0856 6.88389 40.8005 6.73394C39.3548 6.56257 37.438 6.54115 36.2493 6.6911Z" fill="#616161"/>
<path d="M72.391 9.59537C70.7633 13.3439 68.718 17.8742 67.6471 20.0804C66.7583 21.9333 66.512 22.2224 65.6017 22.4795C65.077 22.6294 64.9485 22.6294 64.1882 22.4795C62.8282 22.1903 62.3677 21.869 61.5003 20.5517C60.9756 19.7591 58.4697 15.6251 58.4697 15.5501C58.4697 15.518 58.7482 15.3252 59.0908 15.111C60.3223 14.3506 61.1148 13.1618 61.3611 11.7159C61.6395 10.088 60.8899 8.35302 59.6049 7.59261C58.6946 7.05711 58.1699 7.01427 52.687 6.99285L47.6004 6.97143V7.38912V7.7961L48.5535 7.98888C49.7207 8.2245 49.9777 8.37444 50.0848 8.89923C50.224 9.57395 50.1919 21.4727 50.042 21.794C49.9028 22.1153 49.3888 22.3188 48.2215 22.5437L47.5469 22.6722V23.0578V23.4434H51.9374H56.328V23.0578V22.6722L55.2357 22.4473C53.5973 22.1046 53.7151 22.3617 53.6722 18.8381L53.6294 15.8928L54.3148 15.9571C54.6789 15.9999 55.0215 16.0535 55.0644 16.0963C55.1715 16.1927 57.3667 20.6159 58.0521 22.1046L58.6625 23.4434H64.6701H70.6776V23.0578V22.6722L69.8531 22.4688C69.3712 22.3509 68.9857 22.1903 68.9214 22.0832C68.8143 21.9118 69.2962 20.5517 70.2065 18.4846L70.4528 17.9277H73.0657C75.0682 17.9277 75.7 17.9599 75.7429 18.0562C76.9851 21.1086 77.2207 21.7298 77.1671 21.944C77.0922 22.2224 76.9851 22.276 76.032 22.5223C75.3466 22.6937 75.3359 22.7044 75.3038 23.0685L75.2717 23.4434H79.4052H83.5281V23.0578V22.6615L82.7142 22.4152C82.061 22.2117 81.8254 22.0832 81.5898 21.7833C81.1293 21.2157 77.1136 12.5192 75.3573 8.28876L74.672 6.62871L74.1901 6.59658L73.7082 6.56445L72.391 9.59537ZM55.9104 8.52438C56.4779 8.69574 57.1204 9.26336 57.4203 9.87383C57.6238 10.3022 57.6666 10.5379 57.6666 11.4482C57.6559 13.633 56.8634 14.4684 54.7003 14.5755L53.6508 14.6398V11.5767C53.6508 9.23124 53.683 8.50296 53.79 8.47083C54.0471 8.36373 55.5034 8.39586 55.9104 8.52438ZM74.2651 14.4256C74.8433 15.8179 75.2931 16.9853 75.261 17.0174C75.2288 17.0495 74.2222 17.0602 73.0121 17.0495L70.8062 17.0174L71.8449 14.5541C72.4232 13.1939 72.9158 11.9944 72.9586 11.8873C73.0121 11.7695 73.0764 11.7267 73.1299 11.7802C73.1728 11.8338 73.6868 13.0226 74.2651 14.4256Z" fill="#616161"/>
<path d="M100.438 7.16343C100.384 7.28124 99.9129 8.48082 99.3882 9.84105C98.8742 11.1906 97.8033 13.8468 97.0215 15.7318C95.4045 19.6518 93.916 23.2934 93.916 23.3577C93.916 23.3791 94.1195 23.3898 94.3658 23.3684L94.8155 23.3363L97.3964 17.6061C98.8099 14.4573 100.127 11.5654 100.309 11.1799L100.652 10.4837L100.63 16.1281C100.609 22.7579 100.759 22.1153 99.1633 22.4366C98.6279 22.5437 98.1353 22.6615 98.0817 22.7043C98.0282 22.7365 97.9853 22.9185 97.9853 23.1006V23.4434H102.429H106.874V23.0578V22.6722L105.942 22.4794C104.796 22.2545 104.443 22.0831 104.336 21.6976C104.218 21.312 104.229 9.42334 104.336 8.89853C104.443 8.37371 104.721 8.20235 105.878 7.97743L106.82 7.79535L106.852 7.37764L106.884 6.94922H103.704C100.63 6.94922 100.523 6.95993 100.438 7.16343Z" fill="#616161"/>
<path d="M86.409 16.5029C86.2912 21.3012 86.2591 21.7725 86.0342 21.9974C85.8307 22.2116 85.1668 22.4259 84.2565 22.5758C83.871 22.6508 83.8496 22.6722 83.8496 23.0471V23.4434H87.2228H90.5961V23.1006C90.5961 22.9185 90.5532 22.7365 90.4997 22.7043C90.4461 22.6722 90.0392 22.5758 89.6002 22.4901C88.5079 22.2759 88.1759 22.0938 88.1009 21.6547C88.0688 21.4619 88.0046 20.4658 87.9617 19.4376L87.8868 17.5847L87.1907 16.7921C86.8159 16.353 86.4839 15.9995 86.4625 15.9995C86.4411 15.9995 86.409 16.2244 86.409 16.5029Z" fill="#616161"/>
<path d="M80.5684 5.87652V5.9806C82.0024 5.76961 83.3755 5.30466 84.8357 5.16563C87.901 4.87372 91.0607 5.43208 93.8907 6.60629C95.5488 7.29431 96.9372 8.38521 98.4702 9.31118C98.6638 8.739 99.391 7.63993 99.2207 7.04325C99.1026 6.62883 98.4004 6.38899 98.0539 6.21454C96.8501 5.60837 95.6158 5.12254 94.307 4.79684C89.7381 3.65989 84.9392 4.19041 80.5684 5.87652Z" fill="#616161"/>
<path d="M80.8799 7.02268V7.12678C84.9986 7.12678 89.0176 8.20968 92.4827 10.4829C93.8859 11.4034 95.3646 12.5791 96.7001 13.7891C96.8789 13.2603 97.4724 12.3704 97.3441 11.8128C97.2468 11.3906 96.7068 11.0839 96.3879 10.838C95.4702 10.1304 94.5101 9.49456 93.4736 8.97485C89.3912 6.92799 85.3444 6.67029 80.8799 7.02268Z" fill="#616161"/>
<path d="M79.4229 8.375V8.4791C83.7832 8.82616 88.1831 11.6243 91.1725 14.6746C92.3319 15.8574 93.5304 17.2949 94.7227 18.6807C94.9624 18.0626 95.6191 17.0616 95.4993 16.3905C95.4214 15.9534 94.9741 15.5649 94.6929 15.2454C93.8333 14.2688 92.8474 13.3851 91.8084 12.6042C88.2716 9.94556 83.867 8.375 79.4229 8.375Z" fill="#616161"/>
<path d="M77.5488 8.91016V9.01425C84.0164 12.0793 89.6299 17.2718 92.4323 24.0039C94.3896 21.581 92.6195 19.3941 91.0658 17.3418C88.577 14.0543 85.1166 11.5903 81.2957 10.0764C80.1298 9.61448 78.806 9.01993 77.5488 8.91016Z" fill="#616161"/>
</svg>
