<svg width="200" height="32" viewBox="0 0 200 32" fill="none" xmlns="http://www.w3.org/2000/svg">
<path fill-rule="evenodd" clip-rule="evenodd" d="M1.00507 4.72363H2.81421C3.367 4.72363 3.81928 5.17592 3.81928 5.72871V10.9551V21.3576V26.584C3.81928 27.1368 3.367 27.5891 2.81421 27.5891H1.00507C0.452283 27.5891 0 27.1368 0 26.584V21.3576V10.9551V5.72871C0 5.17592 0.452283 4.72363 1.00507 4.72363Z" fill="#373435"/>
<path fill-rule="evenodd" clip-rule="evenodd" d="M8.6434 4.72363H9.64847L29.2474 20.8551V11.0053V10.9551V5.72871C29.2474 5.17592 29.6997 4.72363 30.2525 4.72363H32.0616C32.6144 4.72363 33.0164 5.17592 33.0164 5.72871V10.9551V11.0053V27.5891H31.4083L12.2617 11.6084V24.7748V26.584C12.2617 27.1368 11.8094 27.5891 11.2566 27.5891H9.44746C8.89467 27.5891 8.44238 27.1368 8.44238 26.584V24.8251V4.72363H8.6434ZM8.54289 20.9053C8.54289 20.9053 8.54289 20.9556 8.49264 20.9556L8.54289 20.9053Z" fill="#373435"/>
<path fill-rule="evenodd" clip-rule="evenodd" d="M42.3641 0.804059L48.3443 0L45.3793 10.8045C45.6306 10.7543 45.8819 10.704 46.1834 10.6538C52.0631 9.89997 57.4402 14.0208 58.194 19.9005C58.9478 25.7801 54.827 31.1573 48.9473 31.9111C43.0677 32.6649 37.6905 28.5441 36.9367 22.6644C36.7357 21.207 36.8865 19.7999 37.2382 18.4933L42.3641 0.804059ZM46.6859 15.0761C50.1032 14.6238 53.2692 17.036 53.7214 20.4532C54.1737 23.8705 51.7615 27.0365 48.3443 27.4888C44.8768 27.8908 41.7611 25.4786 41.3088 22.0614C40.8565 18.6441 43.2687 15.5284 46.6859 15.0761Z" fill="url(#paint0_linear_3059_1616)"/>
<path d="M62.918 18.7448C62.918 17.6392 63.119 16.6341 63.5713 15.629C63.9733 14.6742 64.5763 13.8199 65.2799 13.1164C66.0337 12.4128 66.888 11.8098 67.8931 11.4077C68.8982 11.0057 69.9535 10.8047 71.1093 10.8047C72.2652 10.8047 73.3205 11.0057 74.3256 11.4077C75.3306 11.8098 76.1849 12.4128 76.9387 13.1164C77.6423 13.8199 78.2453 14.6742 78.6474 15.629C79.0997 16.6341 79.3007 17.6392 79.3007 18.7448C79.3007 18.8955 79.3007 18.996 79.3007 19.0965C79.3007 19.1468 79.2504 19.2473 79.2504 19.2976H64.6266C64.7271 20.2524 64.9281 21.0564 65.3301 21.76C65.7322 22.5138 66.1845 23.1168 66.7875 23.6696C67.3905 24.1722 68.0941 24.5742 68.7976 24.8255C69.5515 25.127 70.3555 25.2275 71.1093 25.2275C71.7626 25.2275 72.3154 25.1772 72.8682 25.0265C73.421 24.8757 73.9235 24.6747 74.4261 24.3732C74.8783 24.1219 75.3306 23.7701 75.7327 23.3681C76.0844 23.0163 76.4362 22.564 76.6875 22.0615H78.5469C78.2453 22.7651 77.8433 23.3681 77.391 23.9209C76.8885 24.5239 76.3357 24.9762 75.6824 25.4285C75.0291 25.8305 74.3256 26.1321 73.5717 26.3833C72.8179 26.6346 71.9636 26.7351 71.1093 26.7351C69.9535 26.7351 68.8982 26.5341 67.8931 26.1321C66.888 25.6798 66.0337 25.127 65.2799 24.4234C64.5763 23.6696 63.9733 22.8153 63.5713 21.8605C63.119 20.9057 62.918 19.8503 62.918 18.7448ZM71.1093 12.262C70.255 12.262 69.4509 12.4128 68.6971 12.6641C67.9433 12.9656 67.29 13.3676 66.7372 13.8702C66.1342 14.423 65.6819 15.026 65.3301 15.7295C64.9784 16.4331 64.7271 17.1869 64.6266 17.991H77.5418C77.4413 17.1869 77.19 16.4331 76.8382 15.7295C76.4865 15.026 76.0342 14.423 75.4311 13.8702C74.8783 13.3676 74.225 12.9656 73.4712 12.6641C72.7677 12.4128 71.9636 12.262 71.1093 12.262ZM106.036 26.3331H104.327V18.0412C104.327 17.0361 104.226 16.1818 104.025 15.4783C103.824 14.7747 103.523 14.1717 103.171 13.7194C102.769 13.2671 102.317 12.9153 101.764 12.6641C101.262 12.4631 100.658 12.3626 100.005 12.3626C99.2514 12.3626 98.5478 12.4631 97.9448 12.7143C97.2915 12.9656 96.7387 13.3174 96.2864 13.8199C95.7839 14.2722 95.4321 14.825 95.1808 15.5285C94.9296 16.1818 94.7788 16.9859 94.7788 17.8402V26.3331H93.0702V18.0412C93.0702 17.0361 92.9697 16.1818 92.7184 15.4783C92.5174 14.7747 92.2661 14.1717 91.8641 13.7194C91.4621 13.2671 91.0098 12.9153 90.5072 12.6641C89.9544 12.4631 89.3514 12.3626 88.6981 12.3626C87.9443 12.3626 87.2407 12.4631 86.6377 12.7143C85.9844 12.9656 85.4316 13.3174 84.9793 13.7697C84.527 14.2722 84.125 14.825 83.8738 15.5285C83.6225 16.2321 83.4717 16.9859 83.4717 17.8402V26.3331H81.7631V11.2067H83.2205L83.3712 13.5686C83.6727 13.1666 83.9743 12.8148 84.3763 12.4631C84.7281 12.1113 85.1301 11.8098 85.6326 11.6087C86.0849 11.3575 86.5875 11.1565 87.1402 11.0057C87.693 10.9052 88.2961 10.8047 88.8991 10.8047C90.1052 10.8047 91.1605 11.1062 92.0651 11.659C92.9697 12.2118 93.623 13.0158 94.1255 14.0712C94.3768 13.6189 94.7285 13.2169 95.0803 12.8148C95.4823 12.4128 95.9346 12.061 96.4372 11.7595C96.9397 11.458 97.4925 11.257 98.1458 11.056C98.7488 10.9052 99.4524 10.8047 100.156 10.8047C101.061 10.8047 101.865 10.9554 102.618 11.257C103.322 11.5585 103.925 12.0108 104.428 12.5636C104.98 13.1666 105.382 13.9204 105.634 14.825C105.935 15.6793 106.036 16.7346 106.036 17.9407V26.3331ZM125.484 18.7448C125.484 19.8503 125.283 20.9057 124.83 21.8605C124.428 22.8153 123.876 23.6696 123.172 24.4234C122.418 25.127 121.564 25.6798 120.609 26.0818C119.604 26.5341 118.549 26.7351 117.393 26.7351C116.689 26.7351 115.986 26.6346 115.333 26.4838C114.679 26.2828 114.076 26.0316 113.523 25.73C112.971 25.4285 112.468 25.0767 112.016 24.6747C111.564 24.2224 111.161 23.7701 110.86 23.2676V31.5092H109.151V11.2067H110.609L110.759 14.3224C111.061 13.8199 111.463 13.3676 111.915 12.9153C112.368 12.5133 112.87 12.1113 113.473 11.8098C114.026 11.5082 114.629 11.257 115.282 11.056C115.986 10.8549 116.639 10.8047 117.393 10.8047C118.549 10.8047 119.604 11.0057 120.609 11.4077C121.564 11.8098 122.418 12.3626 123.172 13.1164C123.876 13.8199 124.428 14.6742 124.83 15.629C125.283 16.5839 125.484 17.6392 125.484 18.7448ZM123.725 18.7448C123.725 17.8402 123.574 16.9859 123.222 16.1818C122.871 15.428 122.418 14.7245 121.815 14.1717C121.262 13.5686 120.559 13.1164 119.805 12.8148C119.001 12.4631 118.147 12.3123 117.242 12.3123C116.388 12.3123 115.534 12.4631 114.73 12.8148C113.976 13.1164 113.272 13.5686 112.669 14.1717C112.116 14.7245 111.614 15.428 111.312 16.1818C110.96 16.9859 110.759 17.8402 110.759 18.7448C110.759 19.6493 110.96 20.5036 111.312 21.3077C111.614 22.0615 112.116 22.7651 112.669 23.3179C113.272 23.9209 113.976 24.3732 114.73 24.6747C115.534 25.0265 116.388 25.1772 117.242 25.1772C118.147 25.1772 119.001 25.0265 119.805 24.6747C120.559 24.3732 121.262 23.9209 121.815 23.3179C122.418 22.7651 122.871 22.0615 123.222 21.3077C123.574 20.5036 123.725 19.6493 123.725 18.7448ZM136.942 12.7646H135.384C134.58 12.7646 133.776 12.9153 133.072 13.1666C132.419 13.4179 131.816 13.7697 131.313 14.2722C130.811 14.7747 130.409 15.3778 130.107 16.1316C129.806 16.8351 129.705 17.7397 129.705 18.6945V26.3331H127.996V11.2067H129.454L129.605 14.1214C129.856 13.6691 130.208 13.3174 130.559 12.9656C130.911 12.5636 131.363 12.262 131.866 12.0108C132.318 11.7595 132.871 11.5585 133.474 11.4077C134.027 11.257 134.68 11.2067 135.334 11.2067H136.942V12.7646ZM137.394 18.7448C137.394 17.6392 137.645 16.6341 138.047 15.629C138.449 14.6742 139.052 13.8199 139.806 13.1164C140.51 12.4128 141.414 11.8098 142.369 11.4077C143.374 11.0057 144.429 10.8047 145.585 10.8047C146.741 10.8047 147.847 11.0057 148.801 11.4077C149.807 11.8098 150.711 12.4128 151.415 13.1164C152.168 13.8199 152.721 14.6742 153.174 15.629C153.576 16.6341 153.777 17.6392 153.777 18.7448C153.777 18.8955 153.777 18.996 153.777 19.0965C153.777 19.1468 153.777 19.2473 153.726 19.2976H139.103C139.203 20.2524 139.404 21.0564 139.806 21.76C140.208 22.5138 140.711 23.1168 141.263 23.6696C141.866 24.1722 142.57 24.5742 143.324 24.8255C144.027 25.127 144.831 25.2275 145.636 25.2275C146.239 25.2275 146.791 25.1772 147.344 25.0265C147.897 24.8757 148.45 24.6747 148.902 24.3732C149.405 24.1219 149.807 23.7701 150.209 23.3681C150.56 23.0163 150.912 22.564 151.163 22.0615H153.023C152.721 22.7651 152.37 23.3681 151.867 23.9209C151.364 24.5239 150.812 24.9762 150.158 25.4285C149.555 25.8305 148.852 26.1321 148.048 26.3833C147.294 26.6346 146.49 26.7351 145.585 26.7351C144.429 26.7351 143.374 26.5341 142.369 26.1321C141.414 25.6798 140.51 25.127 139.806 24.4234C139.052 23.6696 138.449 22.8153 138.047 21.8605C137.645 20.9057 137.394 19.8503 137.394 18.7448ZM145.585 12.262C144.731 12.262 143.927 12.4128 143.223 12.6641C142.47 12.9656 141.816 13.3676 141.213 13.8702C140.66 14.423 140.158 15.026 139.806 15.7295C139.454 16.4331 139.203 17.1869 139.103 17.991H152.018C151.917 17.1869 151.716 16.4331 151.314 15.7295C150.962 15.026 150.51 14.423 149.957 13.8702C149.354 13.3676 148.701 12.9656 147.997 12.6641C147.244 12.4128 146.44 12.262 145.585 12.262ZM156.239 22.1118C156.239 22.5138 156.39 22.9158 156.591 23.2676C156.842 23.6696 157.144 23.9712 157.546 24.2727C157.948 24.5742 158.4 24.8255 158.953 24.9762C159.455 25.127 160.058 25.2275 160.611 25.2275C162.32 25.2275 163.626 24.9762 164.481 24.4234C165.335 23.8204 165.787 23.1168 165.787 22.162C165.787 21.7097 165.636 21.2575 165.385 20.9559C165.134 20.6042 164.832 20.3529 164.38 20.1016C163.928 19.9006 163.425 19.6996 162.822 19.5488C162.169 19.3981 161.516 19.2976 160.762 19.1971C160.31 19.1468 159.908 19.0965 159.455 19.0463C159.003 18.996 158.551 18.8955 158.149 18.795C157.696 18.6443 157.345 18.4935 156.943 18.3427C156.541 18.1417 156.239 17.8905 155.938 17.6392C155.686 17.3377 155.435 17.0361 155.284 16.6341C155.083 16.2321 155.033 15.7798 155.033 15.2773C155.033 14.7245 155.133 14.1717 155.334 13.6189C155.535 13.0661 155.887 12.6138 156.39 12.1615C156.842 11.7595 157.495 11.4077 158.249 11.1565C159.053 10.9052 160.008 10.8047 161.164 10.8047C162.018 10.8047 162.822 10.9052 163.476 11.1062C164.179 11.3072 164.782 11.6087 165.234 12.0108C165.737 12.3626 166.089 12.8148 166.39 13.3676C166.642 13.8702 166.792 14.423 166.792 15.026H165.084C165.033 14.624 164.933 14.2219 164.732 13.9204C164.531 13.5686 164.229 13.2671 163.928 13.0158C163.576 12.8148 163.124 12.6138 162.672 12.4631C162.169 12.3123 161.666 12.262 161.063 12.262C160.259 12.262 159.606 12.3626 159.053 12.5133C158.5 12.7143 158.048 12.9153 157.696 13.2169C157.345 13.4681 157.093 13.7697 156.943 14.1717C156.792 14.5235 156.691 14.8752 156.691 15.227C156.691 15.6793 156.792 16.0311 157.043 16.3326C157.244 16.6341 157.546 16.8854 157.948 17.0864C158.35 17.2874 158.852 17.4382 159.455 17.5889C160.058 17.6894 160.762 17.7899 161.566 17.8402C161.968 17.8905 162.42 17.991 162.873 18.0412C163.325 18.1417 163.777 18.2422 164.229 18.3427C164.631 18.4935 165.084 18.6443 165.486 18.8453C165.888 19.0463 166.24 19.2976 166.541 19.5991C166.843 19.9006 167.094 20.2524 167.245 20.6544C167.446 21.0564 167.496 21.559 167.496 22.0615C167.496 22.8153 167.345 23.4686 167.044 24.0717C166.742 24.6244 166.29 25.127 165.687 25.529C165.134 25.8808 164.38 26.2326 163.526 26.4336C162.672 26.6346 161.666 26.7351 160.561 26.7351C159.656 26.7351 158.852 26.5843 158.098 26.3331C157.345 26.0316 156.742 25.6798 156.189 25.2275C155.686 24.8255 155.234 24.3229 154.983 23.7701C154.681 23.2173 154.53 22.6646 154.53 22.1118H156.239ZM168.149 18.7448C168.149 17.6392 168.35 16.6341 168.752 15.629C169.204 14.6742 169.757 13.8199 170.461 13.1164C171.215 12.4128 172.069 11.8098 173.024 11.4077C174.029 11.0057 175.084 10.8047 176.24 10.8047C176.994 10.8047 177.647 10.9052 178.351 11.056C179.004 11.257 179.607 11.5082 180.16 11.8098C180.763 12.1113 181.265 12.4631 181.718 12.9153C182.17 13.3174 182.522 13.8199 182.873 14.3224L182.974 11.2067H184.532V26.3331H182.974L182.873 23.2173C182.522 23.7199 182.17 24.1722 181.718 24.6244C181.265 25.0265 180.713 25.4285 180.16 25.73C179.607 26.0316 178.954 26.2828 178.3 26.4838C177.647 26.6346 176.994 26.7351 176.24 26.7351C175.084 26.7351 174.029 26.5341 173.024 26.1321C172.069 25.6798 171.215 25.127 170.511 24.4234C169.757 23.7199 169.204 22.8656 168.802 21.8605C168.35 20.9057 168.149 19.8503 168.149 18.7448ZM169.908 18.7448C169.908 19.6493 170.059 20.5036 170.411 21.3077C170.762 22.1118 171.215 22.7651 171.818 23.3681C172.37 23.9209 173.074 24.3732 173.878 24.725C174.632 25.0265 175.486 25.1772 176.391 25.1772C177.295 25.1772 178.099 25.0265 178.903 24.725C179.708 24.3732 180.361 23.9209 180.964 23.3681C181.567 22.7651 182.019 22.1118 182.371 21.3077C182.723 20.5539 182.873 19.6996 182.873 18.7448C182.873 17.8402 182.723 16.9859 182.371 16.2321C182.019 15.428 181.567 14.7245 180.964 14.1717C180.361 13.6189 179.708 13.1666 178.903 12.8148C178.099 12.5133 177.295 12.3123 176.391 12.3123C175.486 12.3123 174.632 12.5133 173.828 12.8148C173.074 13.1666 172.37 13.6189 171.767 14.1717C171.215 14.7245 170.762 15.428 170.411 16.2321C170.059 16.9859 169.908 17.8402 169.908 18.7448ZM188.251 22.1118C188.251 22.5138 188.401 22.9158 188.602 23.2676C188.854 23.6696 189.155 23.9712 189.557 24.2727C189.959 24.5742 190.412 24.8255 190.964 24.9762C191.467 25.127 192.02 25.2275 192.623 25.2275C194.331 25.2275 195.638 24.9762 196.492 24.4234C197.347 23.8204 197.799 23.1168 197.799 22.162C197.799 21.7097 197.648 21.2575 197.397 20.9559C197.146 20.6042 196.844 20.3529 196.392 20.1016C195.939 19.9006 195.437 19.6996 194.784 19.5488C194.181 19.3981 193.477 19.2976 192.723 19.1971C192.321 19.1468 191.869 19.0965 191.467 19.0463C191.015 18.996 190.562 18.8955 190.16 18.795C189.708 18.6443 189.306 18.4935 188.954 18.3427C188.552 18.1417 188.251 17.8905 187.949 17.6392C187.648 17.3377 187.447 17.0361 187.296 16.6341C187.095 16.2321 187.045 15.7798 187.045 15.2773C187.045 14.7245 187.145 14.1717 187.346 13.6189C187.547 13.0661 187.899 12.6138 188.351 12.1615C188.854 11.7595 189.507 11.4077 190.261 11.1565C191.065 10.9052 192.02 10.8047 193.175 10.8047C194.03 10.8047 194.784 10.9052 195.487 11.1062C196.191 11.3072 196.794 11.6087 197.246 12.0108C197.749 12.3626 198.1 12.8148 198.402 13.3676C198.653 13.8702 198.754 14.423 198.754 15.026H197.095C197.045 14.624 196.945 14.2219 196.743 13.9204C196.542 13.5686 196.241 13.2671 195.889 13.0158C195.537 12.8148 195.135 12.6138 194.683 12.4631C194.181 12.3123 193.628 12.262 193.075 12.262C192.271 12.262 191.618 12.3626 191.065 12.5133C190.512 12.7143 190.06 12.9153 189.708 13.2169C189.356 13.4681 189.105 13.7697 188.954 14.1717C188.803 14.5235 188.703 14.8752 188.703 15.227C188.703 15.6793 188.803 16.0311 189.055 16.3326C189.256 16.6341 189.557 16.8854 189.959 17.0864C190.361 17.2874 190.864 17.4382 191.467 17.5889C192.07 17.6894 192.773 17.7899 193.578 17.8402C193.98 17.8905 194.432 17.991 194.884 18.0412C195.336 18.1417 195.789 18.2422 196.241 18.3427C196.643 18.4935 197.095 18.6443 197.497 18.8453C197.899 19.0463 198.251 19.2976 198.553 19.5991C198.854 19.9006 199.055 20.2524 199.256 20.6544C199.407 21.0564 199.507 21.559 199.507 22.0615C199.507 22.8153 199.357 23.4686 199.055 24.0717C198.754 24.6244 198.301 25.127 197.698 25.529C197.146 25.8808 196.392 26.2326 195.537 26.4336C194.683 26.6346 193.678 26.7351 192.572 26.7351C191.668 26.7351 190.864 26.5843 190.11 26.3331C189.356 26.0316 188.703 25.6798 188.2 25.2275C187.648 24.8255 187.246 24.3229 186.994 23.7701C186.693 23.2173 186.542 22.6646 186.542 22.1118H188.251Z" fill="#373435"/>
<defs>
<linearGradient id="paint0_linear_3059_1616" x1="36.2834" y1="17.5888" x2="57.5407" y2="14.8248" gradientUnits="userSpaceOnUse">
<stop stop-color="#FF4B00"/>
<stop offset="1" stop-color="#EE4037"/>
</linearGradient>
</defs>
</svg>
