<svg width="59" height="32" viewBox="0 0 59 32" fill="none" xmlns="http://www.w3.org/2000/svg">
<path fill-rule="evenodd" clip-rule="evenodd" d="M1.05364 4.81689H2.85989C3.31145 4.81689 3.76301 5.11794 3.76301 5.72002V10.9882V21.3741V26.4918C3.76301 27.0939 3.31145 27.5455 2.85989 27.5455H1.05364C0.451561 27.5455 0 27.0939 0 26.4918V21.3741V10.9882V5.72002C0 5.11794 0.451561 4.81689 1.05364 4.81689Z" fill="#373435"/>
<path fill-rule="evenodd" clip-rule="evenodd" d="M8.57923 4.81689H9.63287L29.2005 20.7721V10.9882V5.72002C29.2005 5.11794 29.6521 4.81689 30.2542 4.81689H32.0604C32.512 4.81689 32.9635 5.11794 32.9635 5.72002V10.9882V27.5455H31.4583L12.1917 11.5903V24.6856V26.4918C12.1917 27.0939 11.7402 27.5455 11.2886 27.5455H9.48235C8.88027 27.5455 8.42871 27.0939 8.42871 26.4918V24.8361V4.81689H8.57923Z" fill="#373435"/>
<path fill-rule="evenodd" clip-rule="evenodd" d="M42.2971 0.752602L48.3179 0L45.3075 10.8375C45.6086 10.6869 45.9096 10.6869 46.2107 10.6869C52.0809 9.93434 57.3492 13.9984 58.1018 19.8687C58.8544 25.739 54.7903 31.1577 48.92 31.9103C43.0497 32.6629 37.631 28.5989 36.8784 22.7286C36.7279 21.2234 36.8784 19.8687 37.1794 18.514L42.2971 0.752602ZM46.6622 15.052C50.1242 14.6005 53.2851 17.0088 53.7367 20.4708C54.1882 23.9327 51.7799 26.9431 48.3179 27.3947C44.856 27.8463 41.695 25.4379 41.2435 22.1265C40.7919 18.6645 43.2002 15.5036 46.6622 15.052Z" fill="url(#paint0_linear_3059_1612)"/>
<defs>
<linearGradient id="paint0_linear_3059_1612" x1="36.2763" y1="17.6109" x2="57.4997" y2="14.751" gradientUnits="userSpaceOnUse">
<stop stop-color="#FF4B00"/>
<stop offset="1" stop-color="#EE4037"/>
</linearGradient>
</defs>
</svg>
