<svg width="144" height="32" viewBox="0 0 144 32" fill="none" xmlns="http://www.w3.org/2000/svg">
<path fill-rule="evenodd" clip-rule="evenodd" d="M0.955224 4.65674H2.80597C3.34328 4.65674 3.76119 5.13435 3.76119 5.67166V10.806V21.0149V26.1493C3.76119 26.6866 3.34328 27.1045 2.80597 27.1045H0.955224C0.41791 27.1045 0 26.6866 0 26.1493V21.0149V10.806V5.67166C0 5.13435 0.41791 4.65674 0.955224 4.65674Z" fill="#373435"/>
<path fill-rule="evenodd" clip-rule="evenodd" d="M8.47744 4.65674H9.49237L28.776 20.5373V10.806V5.61196C28.776 5.13435 29.1939 4.65674 29.7312 4.65674H31.5222C32.0595 4.65674 32.4774 5.13435 32.4774 5.61196V10.806V27.1045H30.9252L12.0595 11.403V24.3582V26.1493C12.0595 26.6866 11.5819 27.1045 11.0446 27.1045H9.25356C8.71625 27.1045 8.29834 26.6866 8.29834 26.1493V24.4179V4.65674H8.47744ZM8.41774 20.5373C8.41774 20.597 8.35804 20.597 8.35804 20.6567L8.41774 20.5373Z" fill="#373435"/>
<path fill-rule="evenodd" clip-rule="evenodd" d="M41.6716 0.776119L47.582 0L44.6567 10.6269C44.8955 10.5672 45.194 10.5075 45.4328 10.5075C51.2238 9.73134 56.5373 13.791 57.2537 19.5821C58.0298 25.3731 53.9701 30.6269 48.1791 31.403C42.388 32.1791 37.0746 28.0597 36.3582 22.3284C36.1791 20.8955 36.2985 19.5224 36.6567 18.209L41.6716 0.776119ZM45.9701 14.806C49.3134 14.3881 52.4179 16.7761 52.8358 20.1194C53.3134 23.5224 50.9253 26.5672 47.5223 27.0448C44.1791 27.4627 41.0746 25.0746 40.6567 21.7313C40.2388 18.3881 42.5671 15.2836 45.9701 14.806Z" fill="url(#paint0_linear_3059_1671)"/>
<path d="M75.5819 10.9852L69.0745 25.9105H67.4625L60.9551 10.9852H62.8058L68.2984 23.7016L73.7312 10.9852H75.5819ZM75.761 18.4478C75.761 17.3732 75.9402 16.3583 76.3581 15.4031C76.7163 14.4478 77.3133 13.612 78.0297 12.8956C78.7461 12.1792 79.5819 11.6419 80.5372 11.224C81.4924 10.8061 82.567 10.627 83.7013 10.627C84.4178 10.627 85.0745 10.6867 85.7312 10.8658C86.3879 11.0449 86.9849 11.2837 87.5819 11.6419C88.1193 11.9404 88.5969 12.2986 89.0745 12.7165C89.4924 13.1344 89.9103 13.612 90.2088 14.0896L90.3282 11.0449H91.8208V25.9105H90.3282L90.2088 22.8658C89.9103 23.3434 89.4924 23.821 89.0745 24.2389C88.5969 24.6568 88.1193 25.015 87.5222 25.3135C86.9849 25.612 86.3879 25.8508 85.7312 26.0299C85.0745 26.209 84.4178 26.3284 83.7013 26.3284C82.567 26.3284 81.4924 26.0896 80.5372 25.6717C79.5819 25.3135 78.7461 24.7165 78.0297 24.0001C77.3133 23.3434 76.776 22.5075 76.3581 21.5523C75.9402 20.5971 75.761 19.5225 75.761 18.4478ZM77.4327 18.4478C77.4327 19.3434 77.6118 20.1792 77.97 20.9553C78.2685 21.7314 78.7461 22.3881 79.2834 22.9852C79.8805 23.5225 80.5372 24.0001 81.3133 24.2986C82.0894 24.6568 82.9252 24.7762 83.8208 24.7762C84.7163 24.7762 85.5521 24.6568 86.3282 24.2986C87.1043 24.0001 87.761 23.5225 88.3581 22.9852C88.9551 22.3881 89.373 21.7314 89.7312 20.9553C90.0297 20.1792 90.2088 19.3434 90.2088 18.4478C90.2088 17.5523 90.0297 16.7165 89.7312 15.9404C89.373 15.1643 88.8954 14.5075 88.3581 13.9702C87.761 13.3732 87.1043 12.9553 86.3282 12.5971C85.5521 12.2986 84.7163 12.1195 83.8208 12.1195C82.9252 12.1195 82.0894 12.2986 81.3133 12.5971C80.5372 12.9553 79.8805 13.3732 79.2834 13.9702C78.7461 14.5075 78.2685 15.1643 77.97 15.9404C77.6118 16.7165 77.4327 17.5523 77.4327 18.4478ZM94.3282 18.4478C94.3282 17.3732 94.5073 16.3583 94.9252 15.4031C95.3431 14.4478 95.8805 13.612 96.5969 12.8956C97.3133 12.1792 98.1491 11.6419 99.164 11.224C100.119 10.8061 101.134 10.627 102.269 10.627C102.985 10.627 103.701 10.6867 104.358 10.8658C105.015 11.0449 105.612 11.2837 106.149 11.6419C106.686 11.9404 107.224 12.2986 107.642 12.7165C108.119 13.1344 108.477 13.612 108.776 14.0896L108.955 11.0449H110.448V24.0001C110.448 24.5374 110.388 25.1344 110.269 25.7911C110.149 26.3881 110.03 26.9852 109.791 27.5822C109.552 28.1792 109.254 28.7762 108.836 29.3135C108.477 29.7911 108 30.2687 107.403 30.6867C106.806 31.0449 106.149 31.4031 105.373 31.6419C104.597 31.8807 103.701 32.0001 102.686 32.0001C101.492 32.0001 100.418 31.821 99.5222 31.4628C98.6267 31.1643 97.8506 30.6867 97.1939 30.209C96.5372 29.6717 96.0596 29.0747 95.7013 28.418C95.3431 27.7613 95.1043 27.1046 94.9849 26.4478H96.5969C96.776 26.9255 96.9551 27.4031 97.3133 27.9404C97.6118 28.418 98.0297 28.8359 98.5073 29.1941C99.0446 29.612 99.6416 29.9105 100.298 30.1493C101.015 30.3881 101.791 30.5075 102.686 30.5075C103.582 30.5075 104.298 30.3881 104.955 30.209C105.552 29.9702 106.089 29.7314 106.567 29.3732C107.045 29.015 107.403 28.5971 107.642 28.1792C107.94 27.7613 108.179 27.2837 108.358 26.8061C108.477 26.3284 108.597 25.8508 108.657 25.4329C108.716 24.9553 108.776 24.5374 108.776 24.1195V22.7464C108.418 23.224 108.06 23.7016 107.582 24.1195C107.164 24.5374 106.627 24.8956 106.089 25.1941C105.492 25.5523 104.895 25.7911 104.239 25.9702C103.582 26.1493 102.866 26.209 102.149 26.209C101.074 26.209 100.06 26.0299 99.1043 25.612C98.1491 25.2538 97.3133 24.6568 96.5969 24.0001C95.8805 23.2837 95.3431 22.4478 94.9252 21.4926C94.5073 20.5971 94.3282 19.5225 94.3282 18.4478ZM96.0596 18.4478C96.0596 19.3434 96.179 20.1792 96.5372 20.9553C96.8954 21.7314 97.3133 22.3881 97.9103 22.9852C98.4476 23.5225 99.164 24.0001 99.9402 24.2986C100.716 24.6568 101.552 24.7762 102.448 24.7762C103.283 24.7762 104.119 24.6568 104.895 24.2986C105.671 24.0001 106.328 23.5225 106.925 22.9852C107.522 22.3881 107.94 21.7314 108.298 20.9553C108.657 20.1792 108.776 19.3434 108.776 18.4478C108.776 17.5523 108.657 16.7165 108.298 15.9404C107.94 15.1643 107.522 14.5075 106.925 13.9702C106.328 13.3732 105.671 12.9553 104.895 12.5971C104.119 12.2986 103.283 12.1195 102.388 12.1195C101.552 12.1195 100.716 12.2986 99.9402 12.5971C99.164 12.9553 98.4476 13.3732 97.9103 13.9702C97.3133 14.5075 96.8954 15.1643 96.5372 15.9404C96.179 16.7165 96.0596 17.5523 96.0596 18.4478ZM112.955 18.4478C112.955 17.3732 113.194 16.3583 113.552 15.4031C113.97 14.4478 114.567 13.612 115.283 12.8956C116 12.1792 116.836 11.6419 117.791 11.224C118.746 10.8061 119.821 10.627 120.955 10.627C121.671 10.627 122.328 10.6867 122.985 10.8658C123.642 11.0449 124.239 11.2837 124.776 11.6419C125.373 11.9404 125.851 12.2986 126.328 12.7165C126.746 13.1344 127.104 13.612 127.463 14.0896L127.582 11.0449H129.074V25.9105H127.582L127.463 22.8658C127.104 23.3434 126.746 23.821 126.269 24.2389C125.851 24.6568 125.313 25.015 124.776 25.3135C124.239 25.612 123.642 25.8508 122.985 26.0299C122.328 26.209 121.671 26.3284 120.955 26.3284C119.821 26.3284 118.746 26.0896 117.791 25.6717C116.836 25.3135 116 24.7165 115.283 24.0001C114.567 23.3434 113.97 22.5075 113.612 21.5523C113.194 20.5971 112.955 19.5225 112.955 18.4478ZM114.686 18.4478C114.686 19.3434 114.866 20.1792 115.164 20.9553C115.522 21.7314 116 22.3881 116.537 22.9852C117.134 23.5225 117.791 24.0001 118.567 24.2986C119.343 24.6568 120.179 24.7762 121.074 24.7762C121.97 24.7762 122.746 24.6568 123.522 24.2986C124.298 24.0001 125.015 23.5225 125.552 22.9852C126.149 22.3881 126.627 21.7314 126.985 20.9553C127.283 20.1792 127.463 19.3434 127.463 18.4478C127.463 17.5523 127.283 16.7165 126.925 15.9404C126.627 15.1643 126.149 14.5075 125.552 13.9702C125.015 13.3732 124.298 12.9553 123.522 12.5971C122.746 12.2986 121.97 12.1195 121.074 12.1195C120.179 12.1195 119.343 12.2986 118.567 12.5971C117.791 12.9553 117.134 13.3732 116.537 13.9702C115.94 14.5075 115.522 15.1643 115.164 15.9404C114.866 16.7165 114.686 17.5523 114.686 18.4478ZM132.716 21.7314C132.776 22.1493 132.895 22.5075 133.074 22.9255C133.313 23.2837 133.612 23.5822 134.03 23.8807C134.448 24.1792 134.866 24.418 135.403 24.5971C135.94 24.7762 136.477 24.8359 137.074 24.8359C138.746 24.8359 140 24.5374 140.836 24.0001C141.672 23.4628 142.089 22.7464 142.089 21.7911C142.089 21.3135 141.97 20.9553 141.731 20.5971C141.492 20.2986 141.194 20.0001 140.716 19.7613C140.298 19.5822 139.821 19.4031 139.164 19.224C138.567 19.1046 137.91 18.9852 137.134 18.9255C136.776 18.8658 136.298 18.8061 135.88 18.7464C135.463 18.6867 135.045 18.5673 134.627 18.4478C134.209 18.3284 133.791 18.209 133.433 18.0299C133.074 17.8508 132.716 17.612 132.477 17.3732C132.179 17.0747 131.94 16.7762 131.761 16.3583C131.642 16.0001 131.522 15.5225 131.522 14.9852C131.522 14.4478 131.642 13.9105 131.821 13.3732C132.06 12.8956 132.358 12.418 132.836 12.0001C133.313 11.5822 133.97 11.224 134.746 10.9852C135.522 10.7464 136.477 10.627 137.612 10.627C138.448 10.627 139.164 10.7464 139.88 10.9255C140.537 11.1643 141.134 11.4628 141.612 11.821C142.089 12.1792 142.448 12.5971 142.686 13.1344C142.985 13.6717 143.104 14.209 143.104 14.8061H141.433C141.373 14.3881 141.313 14.0299 141.074 13.6717C140.895 13.3732 140.597 13.0747 140.298 12.8359C139.94 12.5971 139.522 12.418 139.045 12.2986C138.567 12.1195 138.03 12.0598 137.492 12.0598C136.716 12.0598 136.06 12.1792 135.522 12.2986C134.925 12.4777 134.507 12.7165 134.149 13.015C133.851 13.2538 133.612 13.5523 133.433 13.9105C133.313 14.2687 133.194 14.627 133.194 14.9852C133.194 15.4031 133.313 15.7613 133.492 16.0598C133.731 16.3583 134.03 16.5971 134.388 16.7762C134.806 17.015 135.283 17.1344 135.88 17.3135C136.477 17.4329 137.194 17.4926 137.97 17.5523C138.388 17.612 138.806 17.6717 139.283 17.7314C139.701 17.8508 140.179 17.9105 140.597 18.0896C141.015 18.209 141.433 18.3284 141.851 18.5673C142.209 18.7464 142.567 18.9852 142.866 19.2837C143.164 19.5822 143.403 19.8807 143.582 20.2986C143.761 20.7165 143.821 21.1941 143.821 21.7314C143.821 22.4478 143.701 23.1046 143.403 23.7016C143.045 24.2389 142.627 24.7165 142.03 25.0747C141.492 25.4926 140.776 25.7911 139.94 25.9702C139.045 26.209 138.089 26.3284 137.015 26.3284C136.119 26.3284 135.283 26.1493 134.567 25.9105C133.851 25.612 133.194 25.2538 132.716 24.8359C132.179 24.418 131.761 23.9404 131.463 23.4031C131.224 22.8658 131.045 22.2687 131.045 21.7314H132.716Z" fill="#373435"/>
<defs>
<linearGradient id="paint0_linear_3059_1671" x1="35.7014" y1="17.3134" x2="56.597" y2="14.5672" gradientUnits="userSpaceOnUse">
<stop stop-color="#FF4B00"/>
<stop offset="1" stop-color="#EE4037"/>
</linearGradient>
</defs>
</svg>
