<svg width="93" height="32" viewBox="0 0 93 32" fill="none" xmlns="http://www.w3.org/2000/svg">
<path d="M41.3057 17.4216C41.6618 17.4216 42.7607 17.6029 43.0039 17.3208C43.2042 17.0884 43.2082 16.5219 43.2672 16.227L43.8079 13.5236C44.4718 10.2037 44.9839 6.8049 45.8323 3.5273H45.8952L46.5993 7.11089L48.7243 17.4216H50.4847L49.5919 12.9578L47.7182 3.96739L46.9011 0.00658427H45.3293C45.162 0.00664714 44.8952 -0.0386194 44.7738 0.107365C44.5377 0.391474 44.5333 1.0948 44.4617 1.45259L43.8079 4.72183C43.2632 7.44561 42.7504 10.178 42.1726 12.8949C41.8651 14.3412 41.3362 15.9424 41.3057 17.4216Z" fill="#616161"/>
<path fill-rule="evenodd" clip-rule="evenodd" d="M18.7524 4.72175C19.2879 3.6353 20.4157 3.09003 21.5644 2.92543C23.051 2.71249 24.943 3.45681 25.4397 4.97323C25.6358 5.5718 25.6168 6.2369 25.5986 6.87862C25.5933 7.06346 25.5881 7.24636 25.5881 7.42516V11.8261C25.5881 12.1284 25.605 12.4555 25.6225 12.7941C25.6788 13.8836 25.7413 15.0916 25.2659 15.9755C24.7066 17.0155 23.5689 17.5169 22.4446 17.655C20.9223 17.8419 19.0696 17.0232 18.6122 15.4725C18.4366 14.8769 18.4551 14.2187 18.4731 13.5836C18.4785 13.3931 18.4838 13.2046 18.4838 13.0206V8.74543C18.4838 8.44557 18.4666 8.11909 18.4487 7.78044C18.3936 6.73519 18.3323 5.57402 18.7524 4.72175ZM0 17.4215V3.15H1.69749V17.4215H0ZM6.85283 17.4215V3.15C6.96641 3.15 7.12376 3.13646 7.30031 3.12126C7.79374 3.07879 8.43721 3.02341 8.69498 3.21464C8.84037 3.32248 8.91102 3.56572 8.96851 3.76366C8.98331 3.81462 8.99723 3.86257 9.01134 3.90444L9.57717 5.60193C9.79442 6.25365 9.99903 6.91932 10.2046 7.58805C10.666 9.08912 11.1321 10.6057 11.7567 12.0147V3.15H13.4542V17.4215H11.8196C11.4505 15.8261 10.8165 14.2125 10.1995 12.6418C9.99163 12.1128 9.7857 11.5886 9.59245 11.0716C9.51142 10.8549 9.42094 10.6318 9.32888 10.4048C9.05886 9.73889 8.77517 9.03932 8.67606 8.36821H8.61319V17.4215H6.85283ZM31.9503 13.4607L30.0518 3.15H31.8751C32.011 4.87001 32.3958 6.6068 32.7775 8.32938C32.9813 9.24908 33.1841 10.1647 33.3477 11.0716C33.3921 11.3174 33.4478 11.5661 33.5038 11.8162C33.6261 12.362 33.7499 12.9149 33.7612 13.4607H33.824L35.7101 3.15H37.4705L36.8056 7.04794L35.6206 13.6493L34.9557 17.4215H33.3211L32.7027 17.3207L32.446 16.1641L31.9503 13.4607ZM54.1939 4.91036V3.15H60.418V4.91036H58.1547V17.4215H56.4572V4.91036H54.1939ZM65.259 17.4215V3.15H67.0194V17.4215H65.259ZM72.325 6.48211L71.7346 3.15L73.4485 3.21464L73.6459 3.90444L74.0244 5.91628L74.9146 10.5687L75.5068 13.4607C75.5343 12.8226 75.6735 12.1765 75.8111 11.5384C75.8722 11.2551 75.9329 10.9732 75.9834 10.6944C76.0433 10.3621 76.1028 10.0297 76.1623 9.69713C76.3881 8.43536 76.6141 7.17254 76.8648 5.91628C76.9341 5.56901 76.9974 5.2205 77.0607 4.87197C77.1117 4.59117 77.1628 4.31037 77.2169 4.03018C77.2288 3.96853 77.2367 3.89596 77.2451 3.81932C77.2675 3.61589 77.2929 3.38377 77.403 3.25079C77.5859 3.031 78.305 3.08869 78.7926 3.1278C78.9419 3.13977 79.0695 3.15 79.1533 3.15L77.3351 13.3349L76.8145 16.227L76.575 17.3207L75.9469 17.4215H74.3123L73.5333 13.0835L72.325 6.48211ZM84.1829 17.4215H82.3597C82.6542 15.139 83.1687 12.8565 83.6807 10.5849C83.9425 9.42352 84.2036 8.26501 84.4344 7.11081L84.9876 4.34453C85.0036 4.26474 85.0156 4.16505 85.0285 4.05747C85.0632 3.76754 85.1048 3.42031 85.2511 3.25079C85.4328 3.03983 86.0901 3.09262 86.5445 3.12911C86.6842 3.14033 86.8047 3.15 86.8863 3.15L87.7288 7.29942L89.8412 17.4215H88.018L86.069 8.1796H86.0061C85.9842 8.69132 85.8611 9.20948 85.7398 9.72019C85.6871 9.94193 85.6348 10.1623 85.5912 10.3801C85.4391 11.1399 85.254 11.9116 85.0677 12.6886C84.6902 14.2625 84.3075 15.8583 84.1829 17.4215ZM20.2792 5.60184C20.4381 4.99621 21.1283 4.71197 21.6901 4.62352C22.3998 4.5118 23.4445 4.74574 23.7505 5.4761C23.9633 5.98392 23.9105 6.72952 23.8637 7.39182C23.8453 7.65293 23.8277 7.9011 23.8277 8.11664V12.769C23.8277 12.9734 23.8401 13.1934 23.8529 13.419C23.8827 13.947 23.9143 14.506 23.7926 14.9695C23.6251 15.608 22.9024 15.8649 22.3188 15.9485C21.6238 16.048 20.6332 15.7941 20.3301 15.0951C20.1098 14.5872 20.1624 13.8358 20.2089 13.1705C20.227 12.9126 20.2441 12.6676 20.2441 12.4547V7.80229C20.2441 7.59789 20.2317 7.37791 20.219 7.15225C20.1891 6.62433 20.1576 6.06531 20.2792 5.60184Z" fill="#616161"/>
<path fill-rule="evenodd" clip-rule="evenodd" d="M41.3057 31.945V22.1373C41.5495 22.1373 41.8153 22.1227 42.0911 22.1075C42.9428 22.0607 43.8894 22.0087 44.5749 22.3658C46.1294 23.1755 46.1154 25.9508 45.015 27.104C46.6055 27.8457 46.3788 30.6452 45.0776 31.5302C44.2768 32.0748 43.1308 32.0201 42.1089 31.9713C41.8286 31.958 41.5576 31.945 41.3057 31.945ZM51.8678 31.945V22.1373C52.0916 22.1373 52.3332 22.1252 52.5835 22.1127C53.5388 22.0648 54.6213 22.0106 55.3257 22.5981C56.1997 23.3276 56.1472 24.5591 56.1003 25.6586C56.0901 25.8973 56.0802 26.1298 56.0801 26.3496C56.0801 26.9767 55.9424 27.734 55.3257 28.0471C56.2309 28.9549 56.1957 30.0569 56.1582 31.2276C56.1506 31.4643 56.143 31.7038 56.143 31.945H55.1371C55.1371 31.7592 55.1509 31.5437 55.1657 31.3132C55.2293 30.3208 55.3107 29.0509 54.3826 28.6745C54.0097 28.5233 53.5835 28.5343 53.176 28.5448C53.0737 28.5474 52.9725 28.55 52.8737 28.55V31.945H51.8678ZM62.1659 28.7386L63.4988 22.1373L64.6204 22.2381L64.8065 22.9546L65.1742 24.715L66.1896 29.556L66.6423 31.945C66.5668 31.945 66.4783 31.9515 66.3843 31.9584C66.1343 31.9768 65.8457 31.998 65.6634 31.9071C65.339 31.745 65.2239 30.6455 65.1963 30.3104H62.9958C62.9675 30.66 62.8776 31.6627 62.5834 31.8804C62.4133 32.0058 62.07 31.9796 61.7946 31.9585C61.7023 31.9515 61.6177 31.945 61.5498 31.945L62.1659 28.7386ZM71.9233 28.8644H72.9293C72.9293 28.9669 72.9241 29.0763 72.9187 29.1891C72.9015 29.5498 72.8828 29.9439 73.028 30.2475C73.4404 31.1104 74.6029 31.2004 75.1517 30.4352C75.4918 29.9615 75.4554 29.0444 75.368 28.4872C75.2523 27.7553 74.555 27.6486 73.8806 27.5455C73.5287 27.4917 73.183 27.4388 72.9293 27.2986C71.7775 26.6619 71.6983 24.9328 71.9799 23.7719C72.359 22.2109 74.4262 21.5849 75.6327 22.6519C76.3901 23.3223 76.3887 24.1703 76.3872 25.0948C76.3872 25.1357 76.3871 25.1767 76.3871 25.2179H75.3812C75.3812 25.1204 75.3853 25.0184 75.3895 24.9145C75.4025 24.5915 75.4162 24.2495 75.3101 23.9605C74.975 23.0481 73.734 22.8611 73.1581 23.6471C72.8029 24.1315 72.8456 25.1455 72.9431 25.7209C73.0643 26.4305 73.7896 26.5722 74.4745 26.706C74.8123 26.772 75.1403 26.8361 75.3812 26.9655C76.5631 27.5997 76.5889 29.2658 76.2922 30.4361C75.8898 32.0194 73.6812 32.4372 72.5577 31.3676C71.9093 30.7498 71.9157 29.9271 71.9221 29.1068C71.9227 29.0259 71.9233 28.945 71.9233 28.8644ZM82.0454 31.945V22.1373H83.0513V31.945H82.0454ZM88.8354 31.945V22.1373H89.8413V30.9391H92.1046V31.945H88.8354ZM42.2486 26.7268V23.1432C42.3887 23.1432 42.5451 23.134 42.709 23.1243C43.2453 23.0926 43.863 23.0561 44.2602 23.3227C45.0486 23.8518 45.0146 25.9315 44.258 26.4879C43.8361 26.798 43.2229 26.768 42.6745 26.7411C42.5261 26.7339 42.3825 26.7268 42.2486 26.7268ZM52.8737 27.6699V23.1432C52.9899 23.1432 53.1172 23.1363 53.25 23.129C53.7313 23.1026 54.2836 23.0724 54.6315 23.3566C54.8547 23.5391 55.0037 23.8029 55.0534 24.0863C55.1942 24.8882 55.3419 26.8321 54.6944 27.4042C54.322 27.7331 53.7496 27.706 53.2408 27.6818C53.113 27.6757 52.9892 27.6699 52.8737 27.6699ZM63.1215 29.4302L64.0645 24.5264L64.3914 26.0352L65.0704 29.4302H63.1215ZM42.2486 30.9391V27.607C42.3947 27.607 42.5531 27.5994 42.7174 27.5915C43.3118 27.563 43.9854 27.5307 44.449 27.8398C45.2813 28.3948 45.4076 30.165 44.511 30.7204C44.0275 31.0199 43.3576 30.9865 42.7526 30.9563C42.5771 30.9476 42.4071 30.9391 42.2486 30.9391Z" fill="#616161"/>
</svg>
