<svg width="20" height="20" viewBox="0 0 20 20" fill="none" xmlns="http://www.w3.org/2000/svg">
<path d="M14.5832 5.83341C14.5832 3.53223 12.5311 1.66675 9.99984 1.66675C7.46855 1.66675 5.4165 3.53223 5.4165 5.83341" stroke="#FF4B00" stroke-width="2" stroke-linecap="round" stroke-linejoin="round"/>
<path d="M2.9165 6.66659C2.9165 6.20634 3.2896 5.83325 3.74984 5.83325H16.2498C16.7101 5.83325 17.0832 6.20634 17.0832 6.66659V11.6666C17.0832 12.1268 16.7101 12.4999 16.2498 12.4999H12.4998C12.0396 12.4999 11.6665 12.1268 11.6665 11.6666C11.6665 11.2063 11.2934 10.8333 10.8332 10.8333H9.1665C8.70625 10.8333 8.33317 11.2063 8.33317 11.6666C8.33317 12.1268 7.96009 12.4999 7.49984 12.4999H3.74984C3.2896 12.4999 2.9165 12.1268 2.9165 11.6666V6.66659Z" stroke="#FF4B00" stroke-width="2" stroke-linecap="round" stroke-linejoin="round"/>
<path d="M4.1665 12.5V18.3333H15.8332V12.5" stroke="#FF4B00" stroke-width="2" stroke-linecap="round" stroke-linejoin="round"/>
<path d="M11.6668 10.8333H8.3335V13.3333H11.6668V10.8333Z" stroke="#FF4B00" stroke-width="2" stroke-linecap="round" stroke-linejoin="round"/>
</svg>
