<svg width="20" height="20" viewBox="0 0 20 20" fill="none" xmlns="http://www.w3.org/2000/svg">
<path d="M19.4196 10.0467C19.4196 10.3261 19.3529 10.5883 19.2413 10.8267C18.4963 13.23 15.0085 13.0544 10.0474 13.1717C9.21795 13.1911 9.69239 14.1706 9.9835 16.3206C10.1729 17.7189 9.27128 19.8661 7.75572 19.8661C5.25684 19.8661 7.66072 17.895 5.45128 13.0206C4.27072 10.4161 1.63184 11.875 1.63184 9.25889V3.30444C1.63184 2.28611 1.73184 1.30722 3.16406 1.14611C4.55239 0.989444 4.24017 0 6.24295 0H16.2674C17.2885 0 18.1191 0.831111 18.1191 1.85222C18.1191 2.27556 17.9707 2.66111 17.7313 2.97333C18.2979 3.29056 18.6868 3.88944 18.6868 4.58389C18.6868 5.00611 18.5391 5.39167 18.3002 5.70333C18.8685 6.02 19.2585 6.61944 19.2585 7.315C19.2585 7.82 19.0541 8.27778 18.7246 8.61278C19.1452 8.95222 19.4196 9.46555 19.4196 10.0467V10.0467Z" fill="#FFDB5E"/>
<path d="M12.7885 8.19542H17.5685C18.2185 8.19542 18.8285 8.5432 19.1607 9.10264C19.2974 9.3332 19.2213 9.63153 18.9902 9.76875C18.7596 9.90598 18.4613 9.82875 18.3241 9.5982C18.1668 9.33209 17.8763 9.16764 17.568 9.16764H12.6735C12.1885 9.16764 11.7941 9.56209 11.7941 10.0471C11.7941 10.5321 12.1885 10.9265 12.6735 10.9265H15.9441C16.2124 10.9265 16.4302 11.1443 16.4302 11.4126C16.4302 11.681 16.2124 11.8988 15.9441 11.8988H12.673C11.6518 11.8988 10.8213 11.0682 10.8213 10.0471C10.8213 9.47764 11.0852 8.97375 11.4907 8.63375C11.1491 8.29764 10.9363 7.83098 10.9363 7.31542C10.9363 6.74431 11.2018 6.23875 11.6096 5.89931C11.2702 5.56375 11.0596 5.09875 11.0596 4.58431C11.0596 3.96209 11.3702 3.4132 11.8424 3.07709C11.5513 2.74987 11.3691 2.32375 11.3691 1.85264C11.3691 0.831532 12.1996 0.000976562 13.2207 0.000976562H16.2674C16.9174 0.000976562 17.528 0.348199 17.8602 0.907643C17.9974 1.1382 17.9213 1.43653 17.6907 1.57375C17.4596 1.70987 17.1613 1.63487 17.0246 1.40431C16.8663 1.1382 16.5757 0.973199 16.2674 0.973199H13.2207C12.7357 0.973199 12.3413 1.36764 12.3413 1.85264C12.3413 2.33764 12.7357 2.73209 13.2207 2.73209H16.8352C17.4852 2.73209 18.0963 3.07987 18.428 3.63931C18.5652 3.87042 18.4891 4.16875 18.2585 4.30542C18.0257 4.44487 17.7285 4.36653 17.5924 4.13598C17.4318 3.86542 17.1485 3.70431 16.8352 3.70431H12.9113C12.4263 3.70431 12.0318 4.09931 12.0318 4.58431C12.0318 5.06931 12.4263 5.46375 12.9113 5.46375H17.4063C18.0563 5.46375 18.6668 5.81098 18.9991 6.37042C19.1363 6.60098 19.0602 6.89931 18.8296 7.03653C18.598 7.1732 18.3002 7.09764 18.1635 6.86709C18.003 6.59709 17.7196 6.43598 17.4063 6.43598H12.7885C12.3035 6.43598 11.9091 6.83042 11.9091 7.31542C11.9091 7.80042 12.303 8.19542 12.7885 8.19542V8.19542Z" fill="#EE9547"/>
</svg>
