<svg width="28" height="28" viewBox="0 0 28 28" fill="none" xmlns="http://www.w3.org/2000/svg">
<path d="M10.6876 17.978C11.873 17.026 12.8016 16.2467 13.4736 15.64C14.1456 15.024 14.7103 14.3847 15.1676 13.722C15.6343 13.05 15.8676 12.392 15.8676 11.748C15.8676 11.1413 15.7183 10.6653 15.4196 10.32C15.1303 9.96533 14.659 9.788 14.0056 9.788C13.371 9.788 12.8763 9.98867 12.5216 10.39C12.1763 10.782 11.9896 11.3093 11.9616 11.972H10.7296C10.767 10.9267 11.0843 10.1193 11.6816 9.55C12.279 8.98067 13.049 8.696 13.9916 8.696C14.953 8.696 15.7136 8.962 16.2736 9.494C16.843 10.026 17.1276 10.7587 17.1276 11.692C17.1276 12.4667 16.8943 13.2227 16.4276 13.96C15.9703 14.688 15.4476 15.332 14.8596 15.892C14.2716 16.4427 13.5203 17.0867 12.6056 17.824H17.4216V18.888H10.6876V17.978Z" fill="#333333"/>
<circle cx="14" cy="14" r="13.5" stroke="#333333"/>
</svg>
