<svg width="28" height="28" viewBox="0 0 28 28" fill="none" xmlns="http://www.w3.org/2000/svg">
<path d="M10.7179 11.426C10.7833 10.5673 11.1146 9.89533 11.7119 9.41C12.3093 8.92467 13.0839 8.682 14.0359 8.682C14.6706 8.682 15.2166 8.79867 15.6739 9.032C16.1406 9.256 16.4906 9.564 16.7239 9.956C16.9666 10.348 17.0879 10.7913 17.0879 11.286C17.0879 11.8647 16.9199 12.364 16.5839 12.784C16.2573 13.204 15.8279 13.4747 15.2959 13.596V13.666C15.9026 13.8153 16.3833 14.1093 16.7379 14.548C17.0926 14.9867 17.2699 15.5607 17.2699 16.27C17.2699 16.802 17.1486 17.2827 16.9059 17.712C16.6633 18.132 16.2993 18.4633 15.8139 18.706C15.3286 18.9487 14.7453 19.07 14.0639 19.07C13.0746 19.07 12.2626 18.8133 11.6279 18.3C10.9933 17.7773 10.6386 17.04 10.5639 16.088H11.7959C11.8613 16.648 12.0899 17.1053 12.4819 17.46C12.8739 17.8147 13.3966 17.992 14.0499 17.992C14.7033 17.992 15.1979 17.824 15.5339 17.488C15.8793 17.1427 16.0519 16.6993 16.0519 16.158C16.0519 15.458 15.8186 14.954 15.3519 14.646C14.8853 14.338 14.1806 14.184 13.2379 14.184H12.9159V13.12H13.2519C14.1106 13.1107 14.7593 12.9707 15.1979 12.7C15.6366 12.42 15.8559 11.9907 15.8559 11.412C15.8559 10.9173 15.6926 10.5207 15.3659 10.222C15.0486 9.92333 14.5913 9.774 13.9939 9.774C13.4153 9.774 12.9486 9.92333 12.5939 10.222C12.2393 10.5207 12.0293 10.922 11.9639 11.426H10.7179Z" fill="#333333"/>
<circle cx="14" cy="14" r="13.5" stroke="#333333"/>
</svg>
