<svg width="36" height="37" viewBox="0 0 36 37" fill="none" xmlns="http://www.w3.org/2000/svg">
<g clip-path="url(#clip0_60_765)">
<path d="M11.6256 7.98781C11.5136 8.09981 11.4286 8.23481 11.3576 8.38281L11.3496 8.37481L0.133635 33.6408L0.144635 33.6518C-0.0633649 34.0548 0.284635 34.8748 0.997635 35.5888C1.71064 36.3018 2.53063 36.6498 2.93363 36.4418L2.94363 36.4518L28.2096 25.2348L28.2016 25.2258C28.3486 25.1558 28.4836 25.0708 28.5966 24.9568C30.1586 23.3948 27.6256 18.3298 22.9406 13.6438C18.2536 8.95781 13.1886 6.42581 11.6256 7.98781Z" fill="url(#paint0_linear_60_765)"/>
<path d="M12.9996 12.5L0.415635 33.006L0.133635 33.641L0.144635 33.652C-0.0633649 34.055 0.284635 34.875 0.997635 35.589C1.22964 35.821 1.47064 35.997 1.70664 36.146L16.9996 17.5L12.9996 12.5Z" fill="#FF4B00"/>
<path d="M23.0117 13.5663C27.6817 18.2383 30.2747 23.2183 28.8007 24.6903C27.3277 26.1643 22.3477 23.5723 17.6747 18.9023C13.0037 14.2303 10.4117 9.24829 11.8847 7.77529C13.3587 6.30229 18.3387 8.89429 23.0117 13.5663V13.5663Z" fill="#212121"/>
<path d="M18.5898 14.1091C18.3908 14.2701 18.1308 14.3541 17.8558 14.3241C16.9878 14.2301 16.2578 13.9281 15.7468 13.4511C15.2058 12.9461 14.9388 12.2681 15.0118 11.5891C15.1398 10.3971 16.3358 9.30305 18.3748 9.52305C19.1678 9.60805 19.5218 9.35305 19.5338 9.23105C19.5478 9.11005 19.2568 8.78505 18.4638 8.69905C17.5958 8.60505 16.8658 8.30305 16.3538 7.82605C15.8128 7.32105 15.5448 6.64305 15.6188 5.96405C15.7488 4.77205 16.9438 3.67805 18.9808 3.89905C19.5588 3.96105 19.8638 3.84205 19.9928 3.76505C20.0958 3.70205 20.1368 3.64205 20.1408 3.60705C20.1528 3.48605 19.8658 3.16105 19.0708 3.07505C18.5218 3.01505 18.1238 2.52305 18.1848 1.97305C18.2438 1.42405 18.7348 1.02705 19.2858 1.08705C21.3228 1.30605 22.2588 2.62905 22.1298 3.82205C21.9998 5.01605 20.8048 6.10805 18.7658 5.88905C18.1878 5.82605 17.8858 5.94605 17.7558 6.02305C17.6528 6.08505 17.6108 6.14605 17.6068 6.18005C17.5938 6.30205 17.8828 6.62605 18.6778 6.71205C20.7148 6.93205 21.6508 8.25405 21.5218 9.44705C21.3928 10.6391 20.1978 11.7331 18.1598 11.5121C17.5818 11.4501 17.2778 11.5701 17.1478 11.6461C17.0438 11.7101 17.0038 11.7701 16.9998 11.8041C16.9868 11.9251 17.2758 12.2501 18.0698 12.3361C18.6178 12.3961 19.0168 12.8891 18.9558 13.4381C18.9278 13.7121 18.7888 13.9491 18.5898 14.1091V14.1091Z" fill="#EE2F23"/>
<path d="M30.6612 23.3571C32.6342 22.8001 33.9952 23.6801 34.3192 24.8351C34.6432 25.9891 33.9412 27.4501 31.9692 28.0051C31.1992 28.2211 30.9682 28.5891 30.9992 28.7061C31.0332 28.8241 31.4242 29.0181 32.1922 28.8011C34.1642 28.2461 35.5252 29.1261 35.8492 30.2801C36.1752 31.4351 35.4712 32.8941 33.4982 33.4501C32.7292 33.6661 32.4972 34.0351 32.5312 34.1521C32.5642 34.2691 32.9542 34.4631 33.7232 34.2471C34.2532 34.0981 34.8072 34.4071 34.9562 34.9381C35.1042 35.4701 34.7952 36.0221 34.2632 36.1721C32.2922 36.7271 30.9302 35.8491 30.6042 34.6931C30.2802 33.5391 30.9832 32.0801 32.9572 31.5241C33.7272 31.3071 33.9582 30.9401 33.9242 30.8221C33.8922 30.7051 33.5022 30.5101 32.7342 30.7261C30.7602 31.2821 29.4002 30.4041 29.0752 29.2471C28.7502 28.0931 29.4532 26.6341 31.4262 26.0771C32.1942 25.8621 32.4252 25.4921 32.3932 25.3761C32.3592 25.2581 31.9702 25.0641 31.2012 25.2801C30.6692 25.4301 30.1182 25.1201 29.9682 24.5891C29.8192 24.0591 30.1292 23.5071 30.6612 23.3571V23.3571Z" fill="#237B4B"/>
<path d="M23.0008 20.6597C22.7068 20.6597 22.4168 20.5307 22.2188 20.2847C21.8738 19.8527 21.9448 19.2237 22.3748 18.8787C22.5928 18.7037 27.7928 14.6197 35.1418 15.6707C35.6888 15.7487 36.0688 16.2547 35.9908 16.8017C35.9128 17.3477 35.4108 17.7317 34.8588 17.6497C28.3658 16.7277 23.6718 20.4037 23.6258 20.4407C23.4398 20.5887 23.2198 20.6597 23.0008 20.6597V20.6597Z" fill="#EE2F23"/>
<path d="M5.75397 16.5001C5.65897 16.5001 5.56197 16.4861 5.46597 16.4581C4.93697 16.2991 4.63697 15.7421 4.79597 15.2131C5.92897 11.4401 6.95597 5.41909 5.69397 3.84909C5.55297 3.67109 5.33997 3.49609 4.85197 3.53309C3.91397 3.60509 4.00297 5.58409 4.00397 5.60409C4.04597 6.15509 3.63197 6.63509 3.08197 6.67609C2.52297 6.71009 2.05097 6.30409 2.00997 5.75309C1.90697 4.37409 2.33597 1.71809 4.70197 1.53909C5.75797 1.45909 6.63497 1.82609 7.25397 2.59609C9.62497 5.54709 7.21797 14.1021 6.71197 15.7881C6.58197 16.2211 6.18397 16.5001 5.75397 16.5001Z" fill="#237B4B"/>
<path d="M25.5 11.5C26.3284 11.5 27 10.8284 27 10C27 9.17157 26.3284 8.5 25.5 8.5C24.6716 8.5 24 9.17157 24 10C24 10.8284 24.6716 11.5 25.5 11.5Z" fill="#237B4B"/>
<path d="M2 20.5C3.10457 20.5 4 19.6046 4 18.5C4 17.3954 3.10457 16.5 2 16.5C0.89543 16.5 0 17.3954 0 18.5C0 19.6046 0.89543 20.5 2 20.5Z" fill="#E00025"/>
<path d="M32.5 21.5C33.3284 21.5 34 20.8284 34 20C34 19.1716 33.3284 18.5 32.5 18.5C31.6716 18.5 31 19.1716 31 20C31 20.8284 31.6716 21.5 32.5 21.5Z" fill="#5C913B"/>
<path d="M23.5 33.5C24.3284 33.5 25 32.8284 25 32C25 31.1716 24.3284 30.5 23.5 30.5C22.6716 30.5 22 31.1716 22 32C22 32.8284 22.6716 33.5 23.5 33.5Z" fill="#FF8F00"/>
<path d="M28 6.5C29.1046 6.5 30 5.60457 30 4.5C30 3.39543 29.1046 2.5 28 2.5C26.8954 2.5 26 3.39543 26 4.5C26 5.60457 26.8954 6.5 28 6.5Z" fill="#FF8F00"/>
<path d="M32.5 10.5C33.3284 10.5 34 9.82843 34 9C34 8.17157 33.3284 7.5 32.5 7.5C31.6716 7.5 31 8.17157 31 9C31 9.82843 31.6716 10.5 32.5 10.5Z" fill="#FF8F00"/>
<path d="M29.5 14.5C30.3284 14.5 31 13.8284 31 13C31 12.1716 30.3284 11.5 29.5 11.5C28.6716 11.5 28 12.1716 28 13C28 13.8284 28.6716 14.5 29.5 14.5Z" fill="#FF8F00"/>
<path d="M7.5 25.5C8.32843 25.5 9 24.8284 9 24C9 23.1716 8.32843 22.5 7.5 22.5C6.67157 22.5 6 23.1716 6 24C6 24.8284 6.67157 25.5 7.5 25.5Z" fill="#FFCC4D"/>
</g>
<defs>
<linearGradient id="paint0_linear_60_765" x1="0.0849609" y1="7.52637" x2="35.0123" y2="23.3993" gradientUnits="userSpaceOnUse">
<stop stop-color="#FF4B00"/>
<stop offset="1" stop-color="#EE2F23"/>
</linearGradient>
<clipPath id="clip0_60_765">
<rect width="36" height="36" fill="white" transform="translate(0 0.5)"/>
</clipPath>
</defs>
</svg>
