<svg width="20" height="20" viewBox="0 0 20 20" fill="none" xmlns="http://www.w3.org/2000/svg">
<path d="M19.4196 9.95323C19.4196 9.67379 19.3529 9.41157 19.2413 9.17323C18.4963 6.7699 15.0085 6.94546 10.0474 6.82823C9.21795 6.80879 9.69239 5.82934 9.9835 3.67934C10.1729 2.28101 9.27128 0.133789 7.75573 0.133789C5.25684 0.133789 7.66073 2.1049 5.45128 6.97934C4.27072 9.58379 1.63184 8.1249 1.63184 10.741V16.696C1.63184 17.7143 1.73184 18.6932 3.16406 18.8543C4.55239 19.0105 4.24017 19.9999 6.24295 19.9999H16.2674C17.2885 19.9999 18.1191 19.1688 18.1191 18.1477C18.1191 17.7243 17.9707 17.3388 17.7313 17.0266C18.2979 16.7093 18.6868 16.1105 18.6868 15.416C18.6868 14.9938 18.5391 14.6082 18.3002 14.2966C18.8685 13.9799 19.2585 13.3805 19.2585 12.6849C19.2585 12.1799 19.0541 11.7221 18.7246 11.3871C19.1452 11.0477 19.4196 10.5343 19.4196 9.95323V9.95323Z" fill="#FFDB5E"/>
<path d="M12.7885 11.8049H17.5685C18.2185 11.8049 18.8285 11.4571 19.1607 10.8977C19.2974 10.6671 19.2213 10.3688 18.9902 10.2316C18.7596 10.0943 18.4613 10.1716 18.3241 10.4021C18.1668 10.6682 17.8763 10.8327 17.568 10.8327H12.6735C12.1885 10.8327 11.7941 10.4382 11.7941 9.95323C11.7941 9.46823 12.1885 9.07378 12.6735 9.07378H15.9441C16.2124 9.07378 16.4302 8.85601 16.4302 8.58767C16.4302 8.31934 16.2124 8.10156 15.9441 8.10156H12.673C11.6518 8.10156 10.8213 8.93212 10.8213 9.95323C10.8213 10.5227 11.0852 11.0266 11.4907 11.3666C11.1491 11.7027 10.9363 12.1693 10.9363 12.6849C10.9363 13.256 11.2018 13.7616 11.6096 14.101C11.2702 14.4366 11.0596 14.9016 11.0596 15.416C11.0596 16.0382 11.3702 16.5871 11.8424 16.9232C11.5513 17.2505 11.3691 17.6766 11.3691 18.1477C11.3691 19.1688 12.1996 19.9993 13.2207 19.9993H16.2674C16.9174 19.9993 17.528 19.6521 17.8602 19.0927C17.9974 18.8621 17.9213 18.5638 17.6907 18.4266C17.4596 18.2905 17.1613 18.3655 17.0246 18.596C16.8663 18.8621 16.5757 19.0271 16.2674 19.0271H13.2207C12.7357 19.0271 12.3413 18.6327 12.3413 18.1477C12.3413 17.6627 12.7357 17.2682 13.2207 17.2682H16.8352C17.4852 17.2682 18.0963 16.9205 18.428 16.361C18.5652 16.1299 18.4891 15.8316 18.2585 15.6949C18.0257 15.5555 17.7285 15.6338 17.5924 15.8643C17.4318 16.1349 17.1485 16.296 16.8352 16.296H12.9113C12.4263 16.296 12.0318 15.901 12.0318 15.416C12.0318 14.931 12.4263 14.5366 12.9113 14.5366H17.4063C18.0563 14.5366 18.6668 14.1893 18.9991 13.6299C19.1363 13.3993 19.0602 13.101 18.8296 12.9638C18.598 12.8271 18.3002 12.9027 18.1635 13.1332C18.003 13.4032 17.7196 13.5643 17.4063 13.5643H12.7885C12.3035 13.5643 11.9091 13.1699 11.9091 12.6849C11.9091 12.1999 12.303 11.8049 12.7885 11.8049V11.8049Z" fill="#EE9547"/>
</svg>
