<svg width="687" height="319" viewBox="0 0 687 319" fill="none" xmlns="http://www.w3.org/2000/svg">
<rect x="156.5" y="0.5" width="399" height="299" rx="23.5" stroke="url(#paint0_linear_2727_1378)"/>
<rect x="83" y="186" width="64" height="64" rx="32" fill="url(#paint1_linear_2727_1378)"/>
<path d="M105.666 231.334H124.333C125.069 231.334 125.666 230.737 125.666 230V211.334L119.666 204.667H105.666C104.93 204.667 104.333 205.264 104.333 206V230C104.333 230.737 104.93 231.334 105.666 231.334Z" stroke="#FCFCFC" stroke-width="2" stroke-linecap="round" stroke-linejoin="round"/>
<path d="M115 220.666C116.472 220.666 117.666 219.472 117.666 218C117.666 216.527 116.472 215.333 115 215.333C113.527 215.333 112.333 216.527 112.333 218C112.333 219.472 113.527 220.666 115 220.666Z" stroke="#FCFCFC" stroke-width="2" stroke-linecap="round" stroke-linejoin="round"/>
<path d="M120.334 226C120.334 223.055 117.946 220.667 115 220.667C112.055 220.667 109.667 223.055 109.667 226" stroke="#FCFCFC" stroke-width="2" stroke-linecap="round" stroke-linejoin="round"/>
<path d="M119 204.667V211.334H125.667" stroke="#FCFCFC" stroke-width="2" stroke-linecap="round" stroke-linejoin="round"/>
<g filter="url(#filter0_d_2727_1378)">
<rect x="25" y="35" width="462" height="96" rx="12" fill="#F8F8F8"/>
<rect opacity="0.2" x="49" y="69" width="165" height="12" rx="6" fill="#616161"/>
<rect opacity="0.2" x="49" y="89" width="121.484" height="12" rx="6" fill="#616161"/>
<circle cx="295" cy="83" r="24" fill="#C4C4C4"/>
<circle cx="367" cy="83" r="24" fill="#C4C4C4"/>
<circle cx="439" cy="83" r="24" fill="#C4C4C4"/>
</g>
<g filter="url(#filter1_d_2727_1378)">
<rect x="167" y="170" width="462" height="96" rx="12" fill="#F8F8F8"/>
<rect opacity="0.2" x="191" y="204" width="165" height="12" rx="6" fill="#616161"/>
<rect opacity="0.2" x="191" y="224" width="121.484" height="12" rx="6" fill="#616161"/>
<circle cx="437" cy="218" r="24" fill="#C4C4C4"/>
<circle cx="509" cy="218" r="24" fill="#C4C4C4"/>
<circle cx="581" cy="218" r="24" fill="#C4C4C4"/>
</g>
<rect x="507" y="49" width="180" height="64" rx="32" fill="url(#paint2_linear_2727_1378)"/>
<g clip-path="url(#clip0_2727_1378)">
<path d="M562.5 69H538.5V93H562.5V69Z" fill="white" fill-opacity="0.01"/>
<path d="M550.5 91C556.023 91 560.5 86.5229 560.5 81C560.5 75.4771 556.023 71 550.5 71C544.977 71 540.5 75.4771 540.5 81C540.5 86.5229 544.977 91 550.5 91Z" stroke="#FCFCFC" stroke-width="2" stroke-linejoin="round"/>
<path d="M550.5 77V85" stroke="#FCFCFC" stroke-width="2" stroke-linecap="round" stroke-linejoin="round"/>
<path d="M546.5 81H554.5" stroke="#FCFCFC" stroke-width="2" stroke-linecap="round" stroke-linejoin="round"/>
</g>
<path d="M571.994 86V74.8H574.042L579.306 82.688V74.8H581.354V86H579.306L574.042 78.128V86H571.994ZM588.036 86.192C587.268 86.192 586.574 86.016 585.956 85.664C585.348 85.312 584.862 84.8267 584.5 84.208C584.148 83.5787 583.972 82.8533 583.972 82.032C583.972 81.2107 584.153 80.4907 584.516 79.872C584.878 79.2427 585.364 78.752 585.972 78.4C586.59 78.048 587.284 77.872 588.052 77.872C588.809 77.872 589.492 78.048 590.1 78.4C590.718 78.752 591.204 79.2427 591.556 79.872C591.918 80.4907 592.1 81.2107 592.1 82.032C592.1 82.8533 591.918 83.5787 591.556 84.208C591.204 84.8267 590.718 85.312 590.1 85.664C589.481 86.016 588.793 86.192 588.036 86.192ZM588.036 84.416C588.569 84.416 589.033 84.2187 589.428 83.824C589.822 83.4187 590.02 82.8213 590.02 82.032C590.02 81.2427 589.822 80.6507 589.428 80.256C589.033 79.8507 588.574 79.648 588.052 79.648C587.508 79.648 587.038 79.8507 586.644 80.256C586.26 80.6507 586.068 81.2427 586.068 82.032C586.068 82.8213 586.26 83.4187 586.644 83.824C587.038 84.2187 587.502 84.416 588.036 84.416ZM596.434 86L593.522 78.064H595.666L597.682 84.064L599.698 78.064H601.842L598.914 86H596.434ZM606.135 86.192C605.453 86.192 604.893 86.0853 604.455 85.872C604.018 85.648 603.693 85.3547 603.479 84.992C603.266 84.6293 603.159 84.2293 603.159 83.792C603.159 83.056 603.447 82.4587 604.023 82C604.599 81.5413 605.463 81.312 606.615 81.312H608.631V81.12C608.631 80.576 608.477 80.176 608.167 79.92C607.858 79.664 607.474 79.536 607.015 79.536C606.599 79.536 606.237 79.6373 605.927 79.84C605.618 80.032 605.426 80.32 605.351 80.704H603.351C603.405 80.128 603.597 79.6267 603.927 79.2C604.269 78.7733 604.706 78.448 605.239 78.224C605.773 77.9893 606.37 77.872 607.031 77.872C608.162 77.872 609.053 78.1547 609.703 78.72C610.354 79.2853 610.679 80.0853 610.679 81.12V86H608.935L608.743 84.72C608.509 85.1467 608.178 85.4987 607.751 85.776C607.335 86.0533 606.797 86.192 606.135 86.192ZM606.599 84.592C607.186 84.592 607.639 84.4 607.959 84.016C608.29 83.632 608.498 83.1573 608.583 82.592H606.839C606.295 82.592 605.906 82.6933 605.671 82.896C605.437 83.088 605.319 83.328 605.319 83.616C605.319 83.9253 605.437 84.1653 605.671 84.336C605.906 84.5067 606.215 84.592 606.599 84.592ZM620.09 86L617.178 78.064H619.322L621.338 84.064L623.354 78.064H625.498L622.57 86H620.09ZM629.792 86.192C629.109 86.192 628.549 86.0853 628.112 85.872C627.674 85.648 627.349 85.3547 627.136 84.992C626.922 84.6293 626.816 84.2293 626.816 83.792C626.816 83.056 627.104 82.4587 627.68 82C628.256 81.5413 629.12 81.312 630.272 81.312H632.288V81.12C632.288 80.576 632.133 80.176 631.824 79.92C631.514 79.664 631.13 79.536 630.672 79.536C630.256 79.536 629.893 79.6373 629.584 79.84C629.274 80.032 629.082 80.32 629.008 80.704H627.008C627.061 80.128 627.253 79.6267 627.584 79.2C627.925 78.7733 628.362 78.448 628.896 78.224C629.429 77.9893 630.026 77.872 630.688 77.872C631.818 77.872 632.709 78.1547 633.36 78.72C634.01 79.2853 634.336 80.0853 634.336 81.12V86H632.592L632.4 84.72C632.165 85.1467 631.834 85.4987 631.408 85.776C630.992 86.0533 630.453 86.192 629.792 86.192ZM630.256 84.592C630.842 84.592 631.296 84.4 631.616 84.016C631.946 83.632 632.154 83.1573 632.24 82.592H630.496C629.952 82.592 629.562 82.6933 629.328 82.896C629.093 83.088 628.976 83.328 628.976 83.616C628.976 83.9253 629.093 84.1653 629.328 84.336C629.562 84.5067 629.872 84.592 630.256 84.592ZM640.4 83.632C640.016 83.632 639.659 83.5893 639.328 83.504L638.736 84.096C638.917 84.192 639.163 84.272 639.472 84.336C639.781 84.4 640.283 84.464 640.976 84.528C642.032 84.624 642.8 84.8747 643.28 85.28C643.76 85.6853 644 86.2453 644 86.96C644 87.4293 643.872 87.872 643.616 88.288C643.36 88.7147 642.965 89.056 642.432 89.312C641.899 89.5787 641.216 89.712 640.384 89.712C639.253 89.712 638.341 89.4987 637.648 89.072C636.955 88.656 636.608 88.0267 636.608 87.184C636.608 86.4693 636.955 85.8507 637.648 85.328C637.435 85.232 637.248 85.1307 637.088 85.024C636.939 84.9173 636.805 84.8053 636.688 84.688V84.32L638.08 82.848C637.461 82.304 637.152 81.6053 637.152 80.752C637.152 80.2187 637.28 79.7333 637.536 79.296C637.803 78.8587 638.176 78.512 638.656 78.256C639.136 78 639.717 77.872 640.4 77.872C640.848 77.872 641.264 77.936 641.648 78.064H644.656V79.312L643.296 79.408C643.509 79.8133 643.616 80.2613 643.616 80.752C643.616 81.2853 643.488 81.7707 643.232 82.208C642.976 82.6453 642.603 82.992 642.112 83.248C641.632 83.504 641.061 83.632 640.4 83.632ZM640.4 82.064C640.816 82.064 641.157 81.952 641.424 81.728C641.701 81.504 641.84 81.184 641.84 80.768C641.84 80.352 641.701 80.032 641.424 79.808C641.157 79.584 640.816 79.472 640.4 79.472C639.963 79.472 639.611 79.584 639.344 79.808C639.077 80.032 638.944 80.352 638.944 80.768C638.944 81.184 639.077 81.504 639.344 81.728C639.611 81.952 639.963 82.064 640.4 82.064ZM638.48 86.976C638.48 87.3707 638.661 87.664 639.024 87.856C639.397 88.0587 639.851 88.16 640.384 88.16C640.896 88.16 641.312 88.0533 641.632 87.84C641.952 87.6373 642.112 87.36 642.112 87.008C642.112 86.72 642.005 86.48 641.792 86.288C641.589 86.096 641.179 85.9787 640.56 85.936C640.123 85.904 639.717 85.856 639.344 85.792C639.035 85.9627 638.811 86.1493 638.672 86.352C638.544 86.5547 638.48 86.7627 638.48 86.976ZM649.635 86.192C648.953 86.192 648.393 86.0853 647.955 85.872C647.518 85.648 647.193 85.3547 646.979 84.992C646.766 84.6293 646.659 84.2293 646.659 83.792C646.659 83.056 646.947 82.4587 647.523 82C648.099 81.5413 648.963 81.312 650.115 81.312H652.131V81.12C652.131 80.576 651.977 80.176 651.667 79.92C651.358 79.664 650.974 79.536 650.515 79.536C650.099 79.536 649.737 79.6373 649.427 79.84C649.118 80.032 648.926 80.32 648.851 80.704H646.851C646.905 80.128 647.097 79.6267 647.427 79.2C647.769 78.7733 648.206 78.448 648.739 78.224C649.273 77.9893 649.87 77.872 650.531 77.872C651.662 77.872 652.553 78.1547 653.203 78.72C653.854 79.2853 654.179 80.0853 654.179 81.12V86H652.435L652.243 84.72C652.009 85.1467 651.678 85.4987 651.251 85.776C650.835 86.0533 650.297 86.192 649.635 86.192ZM650.099 84.592C650.686 84.592 651.139 84.4 651.459 84.016C651.79 83.632 651.998 83.1573 652.083 82.592H650.339C649.795 82.592 649.406 82.6933 649.171 82.896C648.937 83.088 648.819 83.328 648.819 83.616C648.819 83.9253 648.937 84.1653 649.171 84.336C649.406 84.5067 649.715 84.592 650.099 84.592Z" fill="#FCFCFC"/>
<defs>
<filter id="filter0_d_2727_1378" x="0" y="35" width="512" height="149" filterUnits="userSpaceOnUse" color-interpolation-filters="sRGB">
<feFlood flood-opacity="0" result="BackgroundImageFix"/>
<feColorMatrix in="SourceAlpha" type="matrix" values="0 0 0 0 0 0 0 0 0 0 0 0 0 0 0 0 0 0 127 0" result="hardAlpha"/>
<feOffset dy="28"/>
<feGaussianBlur stdDeviation="12.5"/>
<feComposite in2="hardAlpha" operator="out"/>
<feColorMatrix type="matrix" values="0 0 0 0 0 0 0 0 0 0 0 0 0 0 0 0 0 0 0.05 0"/>
<feBlend mode="normal" in2="BackgroundImageFix" result="effect1_dropShadow_2727_1378"/>
<feBlend mode="normal" in="SourceGraphic" in2="effect1_dropShadow_2727_1378" result="shape"/>
</filter>
<filter id="filter1_d_2727_1378" x="142" y="170" width="512" height="149" filterUnits="userSpaceOnUse" color-interpolation-filters="sRGB">
<feFlood flood-opacity="0" result="BackgroundImageFix"/>
<feColorMatrix in="SourceAlpha" type="matrix" values="0 0 0 0 0 0 0 0 0 0 0 0 0 0 0 0 0 0 127 0" result="hardAlpha"/>
<feOffset dy="28"/>
<feGaussianBlur stdDeviation="12.5"/>
<feComposite in2="hardAlpha" operator="out"/>
<feColorMatrix type="matrix" values="0 0 0 0 0 0 0 0 0 0 0 0 0 0 0 0 0 0 0.05 0"/>
<feBlend mode="normal" in2="BackgroundImageFix" result="effect1_dropShadow_2727_1378"/>
<feBlend mode="normal" in="SourceGraphic" in2="effect1_dropShadow_2727_1378" result="shape"/>
</filter>
<linearGradient id="paint0_linear_2727_1378" x1="156" y1="0" x2="581.533" y2="257.866" gradientUnits="userSpaceOnUse">
<stop stop-color="#FF4B00"/>
<stop offset="1" stop-color="#EE2F23"/>
</linearGradient>
<linearGradient id="paint1_linear_2727_1378" x1="79.7273" y1="183.191" x2="150.798" y2="252.269" gradientUnits="userSpaceOnUse">
<stop stop-color="#333333"/>
<stop offset="1" stop-color="#0F0F0F"/>
</linearGradient>
<linearGradient id="paint2_linear_2727_1378" x1="507" y1="49" x2="606.399" y2="176.056" gradientUnits="userSpaceOnUse">
<stop stop-color="#FF4B00"/>
<stop offset="1" stop-color="#EE2F23"/>
</linearGradient>
<clipPath id="clip0_2727_1378">
<rect width="24" height="24" fill="white" transform="translate(538.5 69)"/>
</clipPath>
</defs>
</svg>
