<svg width="518" height="377" viewBox="0 0 518 377" fill="none" xmlns="http://www.w3.org/2000/svg">
<rect x="57.5" y="0.5" width="399" height="359" rx="23.5" stroke="url(#paint0_linear_2830_1402)"/>
<rect x="28.5" y="24.5" width="373" height="63" rx="31.5" fill="#FCFCFC" stroke="#E0E0E0"/>
<path d="M69 56V48.5C69 47.6716 68.3285 47 67.5 47H52.5C51.6716 47 51 47.6716 51 48.5V63.5C51 64.3285 51.6716 65 52.5 65H60" stroke="#B3B3B3" stroke-width="2" stroke-linecap="round" stroke-linejoin="round"/>
<path d="M64 63C65.6569 63 67 61.6569 67 60C67 58.3431 65.6569 57 64 57C62.3431 57 61 58.3431 61 60C61 61.6569 62.3431 63 64 63Z" stroke="#B3B3B3" stroke-width="2"/>
<path d="M66.5 62L69 64" stroke="#B3B3B3" stroke-width="2" stroke-linecap="round" stroke-linejoin="round"/>
<path d="M55 52H65" stroke="#B3B3B3" stroke-width="2" stroke-linecap="round" stroke-linejoin="round"/>
<path d="M55 56H59" stroke="#B3B3B3" stroke-width="2" stroke-linecap="round" stroke-linejoin="round"/>
<path d="M93.184 61V49.8H94.528L100.496 58.776V49.8H101.84V61H100.496L94.528 52.024V61H93.184ZM108.501 61.192C107.755 61.192 107.083 61.0213 106.485 60.68C105.888 60.3387 105.413 59.8587 105.061 59.24C104.72 58.6107 104.549 57.8747 104.549 57.032C104.549 56.1893 104.725 55.4587 105.077 54.84C105.429 54.2107 105.904 53.7253 106.501 53.384C107.109 53.0427 107.787 52.872 108.533 52.872C109.28 52.872 109.952 53.0427 110.549 53.384C111.147 53.7253 111.616 54.2107 111.957 54.84C112.309 55.4587 112.485 56.1893 112.485 57.032C112.485 57.8747 112.309 58.6107 111.957 59.24C111.605 59.8587 111.125 60.3387 110.517 60.68C109.92 61.0213 109.248 61.192 108.501 61.192ZM108.501 60.04C108.96 60.04 109.387 59.928 109.781 59.704C110.176 59.48 110.496 59.144 110.741 58.696C110.987 58.248 111.109 57.6933 111.109 57.032C111.109 56.3707 110.987 55.816 110.741 55.368C110.507 54.92 110.192 54.584 109.797 54.36C109.403 54.136 108.981 54.024 108.533 54.024C108.075 54.024 107.648 54.136 107.253 54.36C106.859 54.584 106.539 54.92 106.293 55.368C106.048 55.816 105.925 56.3707 105.925 57.032C105.925 57.6933 106.048 58.248 106.293 58.696C106.539 59.144 106.853 59.48 107.237 59.704C107.632 59.928 108.053 60.04 108.501 60.04ZM115.104 61V53.064H116.32L116.416 54.216C116.672 53.7893 117.013 53.4587 117.44 53.224C117.867 52.9893 118.347 52.872 118.88 52.872C119.509 52.872 120.048 53 120.496 53.256C120.955 53.512 121.307 53.9013 121.552 54.424C121.829 53.944 122.208 53.5653 122.688 53.288C123.179 53.0107 123.707 52.872 124.272 52.872C125.221 52.872 125.979 53.16 126.544 53.736C127.109 54.3013 127.392 55.176 127.392 56.36V61H126.064V56.504C126.064 55.6827 125.899 55.064 125.568 54.648C125.237 54.232 124.763 54.024 124.144 54.024C123.504 54.024 122.971 54.2747 122.544 54.776C122.128 55.2667 121.92 55.9707 121.92 56.888V61H120.576V56.504C120.576 55.6827 120.411 55.064 120.08 54.648C119.749 54.232 119.275 54.024 118.656 54.024C118.027 54.024 117.499 54.2747 117.072 54.776C116.656 55.2667 116.448 55.9707 116.448 56.888V61H115.104ZM133.735 61.192C132.977 61.192 132.305 61.0213 131.719 60.68C131.132 60.328 130.668 59.8427 130.327 59.224C129.996 58.6053 129.831 57.8747 129.831 57.032C129.831 56.2 129.996 55.4747 130.327 54.856C130.657 54.2267 131.116 53.7413 131.703 53.4C132.3 53.048 132.988 52.872 133.766 52.872C134.535 52.872 135.196 53.048 135.751 53.4C136.316 53.7413 136.748 54.1947 137.047 54.76C137.345 55.3253 137.495 55.9333 137.495 56.584C137.495 56.7013 137.489 56.8187 137.479 56.936C137.479 57.0533 137.479 57.1867 137.479 57.336H131.159C131.191 57.944 131.329 58.4507 131.575 58.856C131.831 59.2507 132.145 59.5493 132.519 59.752C132.903 59.9547 133.308 60.056 133.735 60.056C134.289 60.056 134.753 59.928 135.127 59.672C135.5 59.416 135.772 59.0693 135.943 58.632H137.271C137.057 59.368 136.647 59.9813 136.039 60.472C135.441 60.952 134.673 61.192 133.735 61.192ZM133.735 54.008C133.095 54.008 132.524 54.2053 132.023 54.6C131.532 54.984 131.249 55.5493 131.174 56.296H136.167C136.135 55.5813 135.889 55.0213 135.431 54.616C134.972 54.2107 134.407 54.008 133.735 54.008ZM148.61 61.192C147.821 61.192 147.128 61.0107 146.53 60.648C145.944 60.2853 145.485 59.7893 145.154 59.16C144.834 58.5307 144.674 57.816 144.674 57.016C144.674 56.216 144.84 55.5067 145.17 54.888C145.501 54.2587 145.96 53.768 146.546 53.416C147.133 53.0533 147.826 52.872 148.626 52.872C149.277 52.872 149.853 53.0053 150.354 53.272C150.856 53.5387 151.245 53.912 151.522 54.392V49.48H152.866V61H151.65L151.522 59.688C151.266 60.072 150.898 60.4187 150.418 60.728C149.938 61.0373 149.336 61.192 148.61 61.192ZM148.754 60.024C149.288 60.024 149.757 59.9013 150.162 59.656C150.578 59.4 150.898 59.048 151.122 58.6C151.357 58.152 151.474 57.6293 151.474 57.032C151.474 56.4347 151.357 55.912 151.122 55.464C150.898 55.016 150.578 54.6693 150.162 54.424C149.757 54.168 149.288 54.04 148.754 54.04C148.232 54.04 147.762 54.168 147.346 54.424C146.941 54.6693 146.621 55.016 146.386 55.464C146.162 55.912 146.05 56.4347 146.05 57.032C146.05 57.6293 146.162 58.152 146.386 58.6C146.621 59.048 146.941 59.4 147.346 59.656C147.762 59.9013 148.232 60.024 148.754 60.024ZM158.447 61.192C157.786 61.192 157.236 61.08 156.799 60.856C156.362 60.632 156.036 60.3333 155.823 59.96C155.61 59.5867 155.503 59.1813 155.503 58.744C155.503 57.9333 155.812 57.3093 156.431 56.872C157.05 56.4347 157.892 56.216 158.959 56.216H161.103V56.12C161.103 55.4267 160.922 54.904 160.559 54.552C160.196 54.1893 159.711 54.008 159.103 54.008C158.58 54.008 158.127 54.1413 157.743 54.408C157.37 54.664 157.135 55.0427 157.039 55.544H155.663C155.716 54.968 155.908 54.4827 156.239 54.088C156.58 53.6933 157.002 53.3947 157.503 53.192C158.004 52.9787 158.538 52.872 159.103 52.872C160.212 52.872 161.044 53.1707 161.599 53.768C162.164 54.3547 162.447 55.1387 162.447 56.12V61H161.247L161.167 59.576C160.943 60.024 160.612 60.408 160.175 60.728C159.748 61.0373 159.172 61.192 158.447 61.192ZM158.655 60.056C159.167 60.056 159.604 59.9227 159.967 59.656C160.34 59.3893 160.623 59.0427 160.815 58.616C161.007 58.1893 161.103 57.7413 161.103 57.272V57.256H159.071C158.282 57.256 157.722 57.3947 157.391 57.672C157.071 57.9387 156.911 58.2747 156.911 58.68C156.911 59.096 157.06 59.432 157.359 59.688C157.668 59.9333 158.1 60.056 158.655 60.056ZM172.486 61L169.478 53.064H170.886L173.27 59.704L175.67 53.064H177.046L174.038 61H172.486ZM181.525 61.192C180.864 61.192 180.315 61.08 179.877 60.856C179.44 60.632 179.115 60.3333 178.901 59.96C178.688 59.5867 178.581 59.1813 178.581 58.744C178.581 57.9333 178.891 57.3093 179.509 56.872C180.128 56.4347 180.971 56.216 182.037 56.216H184.181V56.12C184.181 55.4267 184 54.904 183.637 54.552C183.275 54.1893 182.789 54.008 182.181 54.008C181.659 54.008 181.205 54.1413 180.821 54.408C180.448 54.664 180.213 55.0427 180.117 55.544H178.741C178.795 54.968 178.987 54.4827 179.317 54.088C179.659 53.6933 180.08 53.3947 180.581 53.192C181.083 52.9787 181.616 52.872 182.181 52.872C183.291 52.872 184.123 53.1707 184.677 53.768C185.243 54.3547 185.525 55.1387 185.525 56.12V61H184.325L184.245 59.576C184.021 60.024 183.691 60.408 183.253 60.728C182.827 61.0373 182.251 61.192 181.525 61.192ZM181.733 60.056C182.245 60.056 182.683 59.9227 183.045 59.656C183.419 59.3893 183.701 59.0427 183.893 58.616C184.085 58.1893 184.181 57.7413 184.181 57.272V57.256H182.149C181.36 57.256 180.8 57.3947 180.469 57.672C180.149 57.9387 179.989 58.2747 179.989 58.68C179.989 59.096 180.139 59.432 180.437 59.688C180.747 59.9333 181.179 60.056 181.733 60.056ZM191.428 58.504C190.98 58.504 190.569 58.4453 190.196 58.328L189.396 59.08C189.513 59.1653 189.657 59.24 189.828 59.304C190.009 59.3573 190.265 59.4107 190.596 59.464C190.926 59.5067 191.39 59.5547 191.988 59.608C193.054 59.6827 193.817 59.928 194.276 60.344C194.734 60.76 194.964 61.304 194.964 61.976C194.964 62.4347 194.836 62.872 194.58 63.288C194.334 63.704 193.95 64.0453 193.428 64.312C192.916 64.5787 192.254 64.712 191.444 64.712C190.729 64.712 190.094 64.616 189.539 64.424C188.985 64.2427 188.553 63.96 188.243 63.576C187.934 63.2027 187.78 62.728 187.78 62.152C187.78 61.8533 187.86 61.528 188.02 61.176C188.18 60.8347 188.478 60.5093 188.916 60.2C188.681 60.104 188.478 60.0027 188.308 59.896C188.148 59.7787 187.998 59.6507 187.86 59.512V59.144L189.22 57.8C188.59 57.2667 188.276 56.5627 188.276 55.688C188.276 55.1653 188.398 54.6907 188.644 54.264C188.889 53.8373 189.246 53.5013 189.716 53.256C190.185 53 190.756 52.872 191.428 52.872C191.886 52.872 192.302 52.936 192.676 53.064H195.604V54.072L194.116 54.136C194.425 54.584 194.58 55.1013 194.58 55.688C194.58 56.2107 194.452 56.6853 194.196 57.112C193.95 57.5387 193.593 57.88 193.124 58.136C192.665 58.3813 192.1 58.504 191.428 58.504ZM191.428 57.4C191.993 57.4 192.441 57.256 192.772 56.968C193.113 56.6693 193.284 56.2427 193.284 55.688C193.284 55.144 193.113 54.728 192.772 54.44C192.441 54.1413 191.993 53.992 191.428 53.992C190.852 53.992 190.393 54.1413 190.052 54.44C189.721 54.728 189.556 55.144 189.556 55.688C189.556 56.2427 189.721 56.6693 190.052 56.968C190.393 57.256 190.852 57.4 191.428 57.4ZM189.092 62.024C189.092 62.5573 189.316 62.952 189.764 63.208C190.212 63.4747 190.772 63.608 191.444 63.608C192.105 63.608 192.633 63.464 193.028 63.176C193.433 62.888 193.636 62.504 193.636 62.024C193.636 61.6827 193.497 61.384 193.22 61.128C192.942 60.8827 192.43 60.7387 191.684 60.696C191.097 60.6533 190.59 60.6 190.164 60.536C189.726 60.7707 189.438 61.0213 189.299 61.288C189.161 61.5653 189.092 61.8107 189.092 62.024ZM200.51 61.192C199.848 61.192 199.299 61.08 198.862 60.856C198.424 60.632 198.099 60.3333 197.886 59.96C197.672 59.5867 197.566 59.1813 197.566 58.744C197.566 57.9333 197.875 57.3093 198.494 56.872C199.112 56.4347 199.955 56.216 201.022 56.216H203.166V56.12C203.166 55.4267 202.984 54.904 202.622 54.552C202.259 54.1893 201.774 54.008 201.166 54.008C200.643 54.008 200.19 54.1413 199.806 54.408C199.432 54.664 199.198 55.0427 199.102 55.544H197.726C197.779 54.968 197.971 54.4827 198.302 54.088C198.643 53.6933 199.064 53.3947 199.566 53.192C200.067 52.9787 200.6 52.872 201.166 52.872C202.275 52.872 203.107 53.1707 203.662 53.768C204.227 54.3547 204.51 55.1387 204.51 56.12V61H203.31L203.23 59.576C203.006 60.024 202.675 60.408 202.238 60.728C201.811 61.0373 201.235 61.192 200.51 61.192ZM200.718 60.056C201.23 60.056 201.667 59.9227 202.03 59.656C202.403 59.3893 202.686 59.0427 202.878 58.616C203.07 58.1893 203.166 57.7413 203.166 57.272V57.256H201.134C200.344 57.256 199.784 57.3947 199.454 57.672C199.134 57.9387 198.974 58.2747 198.974 58.68C198.974 59.096 199.123 59.432 199.422 59.688C199.731 59.9333 200.163 60.056 200.718 60.056ZM215.876 61.192C215.13 61.192 214.458 61.0213 213.86 60.68C213.263 60.3387 212.788 59.8587 212.436 59.24C212.095 58.6107 211.924 57.8747 211.924 57.032C211.924 56.1893 212.1 55.4587 212.452 54.84C212.804 54.2107 213.279 53.7253 213.876 53.384C214.484 53.0427 215.162 52.872 215.908 52.872C216.655 52.872 217.327 53.0427 217.924 53.384C218.522 53.7253 218.991 54.2107 219.332 54.84C219.684 55.4587 219.86 56.1893 219.86 57.032C219.86 57.8747 219.684 58.6107 219.332 59.24C218.98 59.8587 218.5 60.3387 217.892 60.68C217.295 61.0213 216.623 61.192 215.876 61.192ZM215.876 60.04C216.335 60.04 216.762 59.928 217.156 59.704C217.551 59.48 217.871 59.144 218.116 58.696C218.362 58.248 218.484 57.6933 218.484 57.032C218.484 56.3707 218.362 55.816 218.116 55.368C217.882 54.92 217.567 54.584 217.172 54.36C216.778 54.136 216.356 54.024 215.908 54.024C215.45 54.024 215.023 54.136 214.628 54.36C214.234 54.584 213.914 54.92 213.668 55.368C213.423 55.816 213.3 56.3707 213.3 57.032C213.3 57.6933 213.423 58.248 213.668 58.696C213.914 59.144 214.228 59.48 214.612 59.704C215.007 59.928 215.428 60.04 215.876 60.04ZM225.375 61.192C224.436 61.192 223.69 60.9093 223.135 60.344C222.58 59.768 222.303 58.888 222.303 57.704V53.064H223.647V57.56C223.647 59.2133 224.324 60.04 225.679 60.04C226.372 60.04 226.943 59.7947 227.391 59.304C227.85 58.8027 228.079 58.0933 228.079 57.176V53.064H229.423V61H228.207L228.111 59.576C227.866 60.0773 227.498 60.472 227.007 60.76C226.527 61.048 225.983 61.192 225.375 61.192ZM240.938 61.192C240.18 61.192 239.508 61.0213 238.922 60.68C238.335 60.328 237.871 59.8427 237.53 59.224C237.199 58.6053 237.034 57.8747 237.034 57.032C237.034 56.2 237.199 55.4747 237.53 54.856C237.86 54.2267 238.319 53.7413 238.906 53.4C239.503 53.048 240.191 52.872 240.97 52.872C241.738 52.872 242.399 53.048 242.954 53.4C243.519 53.7413 243.951 54.1947 244.25 54.76C244.548 55.3253 244.698 55.9333 244.698 56.584C244.698 56.7013 244.692 56.8187 244.682 56.936C244.682 57.0533 244.682 57.1867 244.682 57.336H238.362C238.394 57.944 238.532 58.4507 238.778 58.856C239.034 59.2507 239.348 59.5493 239.722 59.752C240.106 59.9547 240.511 60.056 240.938 60.056C241.492 60.056 241.956 59.928 242.33 59.672C242.703 59.416 242.975 59.0693 243.146 58.632H244.474C244.26 59.368 243.85 59.9813 243.242 60.472C242.644 60.952 241.876 61.192 240.938 61.192ZM240.938 54.008C240.298 54.008 239.727 54.2053 239.226 54.6C238.735 54.984 238.452 55.5493 238.378 56.296H243.37C243.338 55.5813 243.092 55.0213 242.634 54.616C242.175 54.2107 241.61 54.008 240.938 54.008ZM247.229 61V53.064H248.445L248.541 54.216C248.797 53.7893 249.138 53.4587 249.565 53.224C249.992 52.9893 250.472 52.872 251.005 52.872C251.634 52.872 252.173 53 252.621 53.256C253.08 53.512 253.432 53.9013 253.677 54.424C253.954 53.944 254.333 53.5653 254.813 53.288C255.304 53.0107 255.832 52.872 256.397 52.872C257.346 52.872 258.104 53.16 258.669 53.736C259.234 54.3013 259.517 55.176 259.517 56.36V61H258.189V56.504C258.189 55.6827 258.024 55.064 257.693 54.648C257.362 54.232 256.888 54.024 256.269 54.024C255.629 54.024 255.096 54.2747 254.669 54.776C254.253 55.2667 254.045 55.9707 254.045 56.888V61H252.701V56.504C252.701 55.6827 252.536 55.064 252.205 54.648C251.874 54.232 251.4 54.024 250.781 54.024C250.152 54.024 249.624 54.2747 249.197 54.776C248.781 55.2667 248.573 55.9707 248.573 56.888V61H247.229ZM262.292 64.52V53.064H263.508L263.636 54.376C263.892 53.992 264.254 53.6453 264.724 53.336C265.204 53.0267 265.812 52.872 266.548 52.872C267.337 52.872 268.025 53.0533 268.612 53.416C269.198 53.7787 269.652 54.2747 269.972 54.904C270.302 55.5333 270.468 56.248 270.468 57.048C270.468 57.848 270.302 58.5627 269.972 59.192C269.652 59.8107 269.193 60.3013 268.596 60.664C268.009 61.016 267.321 61.192 266.532 61.192C265.881 61.192 265.3 61.0587 264.788 60.792C264.286 60.5253 263.902 60.152 263.636 59.672V64.52H262.292ZM266.388 60.024C266.921 60.024 267.39 59.9013 267.796 59.656C268.201 59.4 268.521 59.048 268.756 58.6C268.99 58.152 269.108 57.6293 269.108 57.032C269.108 56.4347 268.99 55.912 268.756 55.464C268.521 55.016 268.201 54.6693 267.796 54.424C267.39 54.168 266.921 54.04 266.388 54.04C265.854 54.04 265.385 54.168 264.98 54.424C264.574 54.6693 264.254 55.016 264.02 55.464C263.785 55.912 263.668 56.4347 263.668 57.032C263.668 57.6293 263.785 58.152 264.02 58.6C264.254 59.048 264.574 59.4 264.98 59.656C265.385 59.9013 265.854 60.024 266.388 60.024ZM273.088 61V53.064H274.304L274.416 54.584C274.662 54.0613 275.035 53.6453 275.536 53.336C276.038 53.0267 276.656 52.872 277.392 52.872V54.28H277.024C276.555 54.28 276.123 54.3653 275.728 54.536C275.334 54.696 275.019 54.9733 274.784 55.368C274.55 55.7627 274.432 56.3067 274.432 57V61H273.088ZM282.922 61.192C282.165 61.192 281.493 61.0213 280.906 60.68C280.319 60.328 279.855 59.8427 279.514 59.224C279.183 58.6053 279.018 57.8747 279.018 57.032C279.018 56.2 279.183 55.4747 279.514 54.856C279.845 54.2267 280.303 53.7413 280.89 53.4C281.487 53.048 282.175 52.872 282.954 52.872C283.722 52.872 284.383 53.048 284.938 53.4C285.503 53.7413 285.935 54.1947 286.234 54.76C286.533 55.3253 286.682 55.9333 286.682 56.584C286.682 56.7013 286.677 56.8187 286.666 56.936C286.666 57.0533 286.666 57.1867 286.666 57.336H280.346C280.378 57.944 280.517 58.4507 280.762 58.856C281.018 59.2507 281.333 59.5493 281.706 59.752C282.09 59.9547 282.495 60.056 282.922 60.056C283.477 60.056 283.941 59.928 284.314 59.672C284.687 59.416 284.959 59.0693 285.13 58.632H286.458C286.245 59.368 285.834 59.9813 285.226 60.472C284.629 60.952 283.861 61.192 282.922 61.192ZM282.922 54.008C282.282 54.008 281.711 54.2053 281.21 54.6C280.719 54.984 280.437 55.5493 280.362 56.296H285.354C285.322 55.5813 285.077 55.0213 284.618 54.616C284.159 54.2107 283.594 54.008 282.922 54.008ZM292.253 61.192C291.304 61.192 290.515 60.952 289.885 60.472C289.256 59.992 288.888 59.3413 288.781 58.52H290.157C290.243 58.936 290.461 59.2987 290.813 59.608C291.176 59.9067 291.661 60.056 292.269 60.056C292.835 60.056 293.251 59.9387 293.517 59.704C293.784 59.4587 293.917 59.1707 293.917 58.84C293.917 58.36 293.741 58.04 293.389 57.88C293.048 57.72 292.563 57.576 291.933 57.448C291.507 57.3627 291.08 57.24 290.653 57.08C290.227 56.92 289.869 56.696 289.581 56.408C289.293 56.1093 289.149 55.72 289.149 55.24C289.149 54.5467 289.405 53.9813 289.917 53.544C290.44 53.096 291.144 52.872 292.029 52.872C292.872 52.872 293.56 53.0853 294.093 53.512C294.637 53.928 294.952 54.5253 295.037 55.304H293.709C293.656 54.8987 293.48 54.584 293.181 54.36C292.893 54.1253 292.504 54.008 292.013 54.008C291.533 54.008 291.16 54.1093 290.893 54.312C290.637 54.5147 290.509 54.7813 290.509 55.112C290.509 55.432 290.675 55.6827 291.005 55.864C291.347 56.0453 291.805 56.2 292.381 56.328C292.872 56.4347 293.336 56.568 293.773 56.728C294.221 56.8773 294.584 57.1067 294.861 57.416C295.149 57.7147 295.293 58.152 295.293 58.728C295.304 59.4427 295.032 60.0347 294.477 60.504C293.933 60.9627 293.192 61.192 292.253 61.192ZM300.603 61.192C299.942 61.192 299.393 61.08 298.955 60.856C298.518 60.632 298.193 60.3333 297.979 59.96C297.766 59.5867 297.659 59.1813 297.659 58.744C297.659 57.9333 297.969 57.3093 298.587 56.872C299.206 56.4347 300.049 56.216 301.115 56.216H303.259V56.12C303.259 55.4267 303.078 54.904 302.715 54.552C302.353 54.1893 301.867 54.008 301.259 54.008C300.737 54.008 300.283 54.1413 299.899 54.408C299.526 54.664 299.291 55.0427 299.195 55.544H297.819C297.873 54.968 298.065 54.4827 298.395 54.088C298.737 53.6933 299.158 53.3947 299.659 53.192C300.161 52.9787 300.694 52.872 301.259 52.872C302.369 52.872 303.201 53.1707 303.755 53.768C304.321 54.3547 304.603 55.1387 304.603 56.12V61H303.403L303.323 59.576C303.099 60.024 302.769 60.408 302.331 60.728C301.905 61.0373 301.329 61.192 300.603 61.192ZM300.811 60.056C301.323 60.056 301.761 59.9227 302.123 59.656C302.497 59.3893 302.779 59.0427 302.971 58.616C303.163 58.1893 303.259 57.7413 303.259 57.272V57.256H301.227C300.438 57.256 299.878 57.3947 299.547 57.672C299.227 57.9387 299.067 58.2747 299.067 58.68C299.067 59.096 299.217 59.432 299.515 59.688C299.825 59.9333 300.257 60.056 300.811 60.056Z" fill="#B3B3B3"/>
<rect x="426" y="24" width="64" height="64" rx="32" fill="url(#paint1_linear_2830_1402)"/>
<path d="M456.5 63C461.194 63 465 59.1944 465 54.5C465 49.8056 461.194 46 456.5 46C451.806 46 448 49.8056 448 54.5C448 59.1944 451.806 63 456.5 63Z" stroke="#FCFCFC" stroke-width="2" stroke-linejoin="round"/>
<path d="M462.611 60.6113L466.854 64.854" stroke="#FCFCFC" stroke-width="2" stroke-linecap="round" stroke-linejoin="round"/>
<g filter="url(#filter0_d_2830_1402)">
<g clip-path="url(#clip0_2830_1402)">
<rect x="28" y="100" width="462" height="224" rx="24" fill="#F8F8F8"/>
<rect width="422" height="48" transform="translate(48 120)" fill="#F8F8F8"/>
<path d="M101.184 137V125.8H102.752L106.784 133.608L110.784 125.8H112.368V137H111.024V128.2L107.28 135.4H106.272L102.528 128.216V137H101.184ZM118.969 137.192C118.212 137.192 117.54 137.021 116.953 136.68C116.366 136.328 115.902 135.843 115.561 135.224C115.23 134.605 115.065 133.875 115.065 133.032C115.065 132.2 115.23 131.475 115.561 130.856C115.892 130.227 116.35 129.741 116.937 129.4C117.534 129.048 118.222 128.872 119.001 128.872C119.769 128.872 120.43 129.048 120.985 129.4C121.55 129.741 121.982 130.195 122.281 130.76C122.58 131.325 122.729 131.933 122.729 132.584C122.729 132.701 122.724 132.819 122.713 132.936C122.713 133.053 122.713 133.187 122.713 133.336H116.393C116.425 133.944 116.564 134.451 116.809 134.856C117.065 135.251 117.38 135.549 117.753 135.752C118.137 135.955 118.542 136.056 118.969 136.056C119.524 136.056 119.988 135.928 120.361 135.672C120.734 135.416 121.006 135.069 121.177 134.632H122.505C122.292 135.368 121.881 135.981 121.273 136.472C120.676 136.952 119.908 137.192 118.969 137.192ZM118.969 130.008C118.329 130.008 117.758 130.205 117.257 130.6C116.766 130.984 116.484 131.549 116.409 132.296H121.401C121.369 131.581 121.124 131.021 120.665 130.616C120.206 130.211 119.641 130.008 118.969 130.008ZM125.26 137V129.064H126.476L126.588 130.584C126.834 130.061 127.207 129.645 127.708 129.336C128.21 129.027 128.828 128.872 129.564 128.872V130.28H129.196C128.727 130.28 128.295 130.365 127.9 130.536C127.506 130.696 127.191 130.973 126.956 131.368C126.722 131.763 126.604 132.307 126.604 133V137H125.26ZM135.174 137.192C134.417 137.192 133.734 137.021 133.126 136.68C132.529 136.328 132.054 135.843 131.702 135.224C131.361 134.595 131.19 133.864 131.19 133.032C131.19 132.2 131.361 131.475 131.702 130.856C132.054 130.227 132.529 129.741 133.126 129.4C133.734 129.048 134.417 128.872 135.174 128.872C136.113 128.872 136.902 129.117 137.542 129.608C138.193 130.099 138.603 130.755 138.774 131.576H137.398C137.291 131.085 137.03 130.707 136.614 130.44C136.198 130.163 135.713 130.024 135.158 130.024C134.71 130.024 134.289 130.136 133.894 130.36C133.499 130.584 133.179 130.92 132.934 131.368C132.689 131.816 132.566 132.371 132.566 133.032C132.566 133.693 132.689 134.248 132.934 134.696C133.179 135.144 133.499 135.485 133.894 135.72C134.289 135.944 134.71 136.056 135.158 136.056C135.713 136.056 136.198 135.923 136.614 135.656C137.03 135.379 137.291 134.989 137.398 134.488H138.774C138.614 135.288 138.209 135.939 137.558 136.44C136.907 136.941 136.113 137.192 135.174 137.192ZM144.041 137.192C143.38 137.192 142.83 137.08 142.393 136.856C141.956 136.632 141.63 136.333 141.417 135.96C141.204 135.587 141.097 135.181 141.097 134.744C141.097 133.933 141.406 133.309 142.025 132.872C142.644 132.435 143.486 132.216 144.553 132.216H146.697V132.12C146.697 131.427 146.516 130.904 146.153 130.552C145.79 130.189 145.305 130.008 144.697 130.008C144.174 130.008 143.721 130.141 143.337 130.408C142.964 130.664 142.729 131.043 142.633 131.544H141.257C141.31 130.968 141.502 130.483 141.833 130.088C142.174 129.693 142.596 129.395 143.097 129.192C143.598 128.979 144.132 128.872 144.697 128.872C145.806 128.872 146.638 129.171 147.193 129.768C147.758 130.355 148.041 131.139 148.041 132.12V137H146.841L146.761 135.576C146.537 136.024 146.206 136.408 145.769 136.728C145.342 137.037 144.766 137.192 144.041 137.192ZM144.249 136.056C144.761 136.056 145.198 135.923 145.561 135.656C145.934 135.389 146.217 135.043 146.409 134.616C146.601 134.189 146.697 133.741 146.697 133.272V133.256H144.665C143.876 133.256 143.316 133.395 142.985 133.672C142.665 133.939 142.505 134.275 142.505 134.68C142.505 135.096 142.654 135.432 142.953 135.688C143.262 135.933 143.694 136.056 144.249 136.056ZM154.407 137.192C153.618 137.192 152.924 137.011 152.327 136.648C151.74 136.285 151.282 135.789 150.951 135.16C150.631 134.531 150.471 133.816 150.471 133.016C150.471 132.216 150.636 131.507 150.967 130.888C151.298 130.259 151.756 129.768 152.343 129.416C152.93 129.053 153.623 128.872 154.423 128.872C155.074 128.872 155.65 129.005 156.151 129.272C156.652 129.539 157.042 129.912 157.319 130.392V125.48H158.663V137H157.447L157.319 135.688C157.063 136.072 156.695 136.419 156.215 136.728C155.735 137.037 155.132 137.192 154.407 137.192ZM154.551 136.024C155.084 136.024 155.554 135.901 155.959 135.656C156.375 135.4 156.695 135.048 156.919 134.6C157.154 134.152 157.271 133.629 157.271 133.032C157.271 132.435 157.154 131.912 156.919 131.464C156.695 131.016 156.375 130.669 155.959 130.424C155.554 130.168 155.084 130.04 154.551 130.04C154.028 130.04 153.559 130.168 153.143 130.424C152.738 130.669 152.418 131.016 152.183 131.464C151.959 131.912 151.847 132.435 151.847 133.032C151.847 133.629 151.959 134.152 152.183 134.6C152.418 135.048 152.738 135.4 153.143 135.656C153.559 135.901 154.028 136.024 154.551 136.024ZM162.42 127.304C162.153 127.304 161.929 127.219 161.748 127.048C161.577 126.867 161.492 126.643 161.492 126.376C161.492 126.12 161.577 125.907 161.748 125.736C161.929 125.565 162.153 125.48 162.42 125.48C162.676 125.48 162.895 125.565 163.076 125.736C163.257 125.907 163.348 126.12 163.348 126.376C163.348 126.643 163.257 126.867 163.076 127.048C162.895 127.219 162.676 127.304 162.42 127.304ZM161.748 137V129.064H163.092V137H161.748ZM166.182 137V129.064H167.398L167.478 130.488C167.734 129.987 168.102 129.592 168.582 129.304C169.062 129.016 169.606 128.872 170.214 128.872C171.153 128.872 171.899 129.16 172.454 129.736C173.019 130.301 173.302 131.176 173.302 132.36V137H171.958V132.504C171.958 130.851 171.275 130.024 169.91 130.024C169.227 130.024 168.657 130.275 168.198 130.776C167.75 131.267 167.526 131.971 167.526 132.888V137H166.182ZM176.088 137V125.48H177.432V130.424C177.699 129.933 178.078 129.555 178.568 129.288C179.059 129.011 179.592 128.872 180.168 128.872C181.086 128.872 181.822 129.16 182.376 129.736C182.931 130.301 183.208 131.176 183.208 132.36V137H181.88V132.504C181.88 130.851 181.214 130.024 179.88 130.024C179.187 130.024 178.606 130.275 178.136 130.776C177.667 131.267 177.432 131.971 177.432 132.888V137H176.088ZM189.611 137.192C188.864 137.192 188.192 137.021 187.595 136.68C186.997 136.339 186.523 135.859 186.171 135.24C185.829 134.611 185.659 133.875 185.659 133.032C185.659 132.189 185.835 131.459 186.187 130.84C186.539 130.211 187.013 129.725 187.611 129.384C188.219 129.043 188.896 128.872 189.643 128.872C190.389 128.872 191.061 129.043 191.659 129.384C192.256 129.725 192.725 130.211 193.067 130.84C193.419 131.459 193.595 132.189 193.595 133.032C193.595 133.875 193.419 134.611 193.067 135.24C192.715 135.859 192.235 136.339 191.627 136.68C191.029 137.021 190.357 137.192 189.611 137.192ZM189.611 136.04C190.069 136.04 190.496 135.928 190.891 135.704C191.285 135.48 191.605 135.144 191.851 134.696C192.096 134.248 192.219 133.693 192.219 133.032C192.219 132.371 192.096 131.816 191.851 131.368C191.616 130.92 191.301 130.584 190.907 130.36C190.512 130.136 190.091 130.024 189.643 130.024C189.184 130.024 188.757 130.136 188.363 130.36C187.968 130.584 187.648 130.92 187.403 131.368C187.157 131.816 187.035 132.371 187.035 133.032C187.035 133.693 187.157 134.248 187.403 134.696C187.648 135.144 187.963 135.48 188.347 135.704C188.741 135.928 189.163 136.04 189.611 136.04ZM204.798 137.192C204.008 137.192 203.315 137.011 202.718 136.648C202.131 136.285 201.672 135.789 201.342 135.16C201.022 134.531 200.862 133.816 200.862 133.016C200.862 132.216 201.027 131.507 201.358 130.888C201.688 130.259 202.147 129.768 202.734 129.416C203.32 129.053 204.014 128.872 204.814 128.872C205.464 128.872 206.04 129.005 206.542 129.272C207.043 129.539 207.432 129.912 207.71 130.392V125.48H209.054V137H207.838L207.71 135.688C207.454 136.072 207.086 136.419 206.606 136.728C206.126 137.037 205.523 137.192 204.798 137.192ZM204.942 136.024C205.475 136.024 205.944 135.901 206.35 135.656C206.766 135.4 207.086 135.048 207.31 134.6C207.544 134.152 207.662 133.629 207.662 133.032C207.662 132.435 207.544 131.912 207.31 131.464C207.086 131.016 206.766 130.669 206.35 130.424C205.944 130.168 205.475 130.04 204.942 130.04C204.419 130.04 203.95 130.168 203.534 130.424C203.128 130.669 202.808 131.016 202.574 131.464C202.35 131.912 202.238 132.435 202.238 133.032C202.238 133.629 202.35 134.152 202.574 134.6C202.808 135.048 203.128 135.4 203.534 135.656C203.95 135.901 204.419 136.024 204.942 136.024ZM215.611 137.192C214.864 137.192 214.192 137.021 213.595 136.68C212.997 136.339 212.523 135.859 212.171 135.24C211.829 134.611 211.659 133.875 211.659 133.032C211.659 132.189 211.835 131.459 212.187 130.84C212.539 130.211 213.013 129.725 213.611 129.384C214.219 129.043 214.896 128.872 215.643 128.872C216.389 128.872 217.061 129.043 217.659 129.384C218.256 129.725 218.725 130.211 219.067 130.84C219.419 131.459 219.595 132.189 219.595 133.032C219.595 133.875 219.419 134.611 219.067 135.24C218.715 135.859 218.235 136.339 217.627 136.68C217.029 137.021 216.357 137.192 215.611 137.192ZM215.611 136.04C216.069 136.04 216.496 135.928 216.891 135.704C217.285 135.48 217.605 135.144 217.851 134.696C218.096 134.248 218.219 133.693 218.219 133.032C218.219 132.371 218.096 131.816 217.851 131.368C217.616 130.92 217.301 130.584 216.907 130.36C216.512 130.136 216.091 130.024 215.643 130.024C215.184 130.024 214.757 130.136 214.363 130.36C213.968 130.584 213.648 130.92 213.403 131.368C213.157 131.816 213.035 132.371 213.035 133.032C213.035 133.693 213.157 134.248 213.403 134.696C213.648 135.144 213.963 135.48 214.347 135.704C214.741 135.928 215.163 136.04 215.611 136.04ZM230.654 137L226.446 125.8H227.902L231.438 135.576L235.006 125.8H236.43L232.222 137H230.654ZM239.451 127.304C239.185 127.304 238.961 127.219 238.779 127.048C238.609 126.867 238.523 126.643 238.523 126.376C238.523 126.12 238.609 125.907 238.779 125.736C238.961 125.565 239.185 125.48 239.451 125.48C239.707 125.48 239.926 125.565 240.107 125.736C240.289 125.907 240.379 126.12 240.379 126.376C240.379 126.643 240.289 126.867 240.107 127.048C239.926 127.219 239.707 127.304 239.451 127.304ZM238.779 137V129.064H240.123V137H238.779ZM243.213 137V125.48H244.557V137H243.213ZM247.51 137V125.48H248.854V137H247.51ZM254.447 137.192C253.786 137.192 253.236 137.08 252.799 136.856C252.362 136.632 252.036 136.333 251.823 135.96C251.61 135.587 251.503 135.181 251.503 134.744C251.503 133.933 251.812 133.309 252.431 132.872C253.05 132.435 253.892 132.216 254.959 132.216H257.103V132.12C257.103 131.427 256.922 130.904 256.559 130.552C256.196 130.189 255.711 130.008 255.103 130.008C254.58 130.008 254.127 130.141 253.743 130.408C253.37 130.664 253.135 131.043 253.039 131.544H251.663C251.716 130.968 251.908 130.483 252.239 130.088C252.58 129.693 253.002 129.395 253.503 129.192C254.004 128.979 254.538 128.872 255.103 128.872C256.212 128.872 257.044 129.171 257.599 129.768C258.164 130.355 258.447 131.139 258.447 132.12V137H257.247L257.167 135.576C256.943 136.024 256.612 136.408 256.175 136.728C255.748 137.037 255.172 137.192 254.447 137.192ZM254.655 136.056C255.167 136.056 255.604 135.923 255.967 135.656C256.34 135.389 256.623 135.043 256.815 134.616C257.007 134.189 257.103 133.741 257.103 133.272V133.256H255.071C254.282 133.256 253.722 133.395 253.391 133.672C253.071 133.939 252.911 134.275 252.911 134.68C252.911 135.096 253.06 135.432 253.359 135.688C253.668 135.933 254.1 136.056 254.655 136.056Z" fill="#333333"/>
<path d="M101.036 161V151.2H102.408L105.936 158.032L109.436 151.2H110.822V161H109.646V153.3L106.37 159.6H105.488L102.212 153.314V161H101.036ZM116.734 161.168C116.08 161.168 115.492 161.019 114.97 160.72C114.447 160.421 114.032 160.001 113.724 159.46C113.425 158.909 113.276 158.265 113.276 157.528C113.276 156.791 113.43 156.151 113.738 155.61C114.046 155.059 114.461 154.635 114.984 154.336C115.516 154.037 116.108 153.888 116.762 153.888C117.415 153.888 118.003 154.037 118.526 154.336C119.048 154.635 119.459 155.059 119.758 155.61C120.066 156.151 120.22 156.791 120.22 157.528C120.22 158.265 120.066 158.909 119.758 159.46C119.45 160.001 119.03 160.421 118.498 160.72C117.975 161.019 117.387 161.168 116.734 161.168ZM116.734 160.16C117.135 160.16 117.508 160.062 117.854 159.866C118.199 159.67 118.479 159.376 118.694 158.984C118.908 158.592 119.016 158.107 119.016 157.528C119.016 156.949 118.908 156.464 118.694 156.072C118.488 155.68 118.213 155.386 117.868 155.19C117.522 154.994 117.154 154.896 116.762 154.896C116.36 154.896 115.987 154.994 115.642 155.19C115.296 155.386 115.016 155.68 114.802 156.072C114.587 156.464 114.48 156.949 114.48 157.528C114.48 158.107 114.587 158.592 114.802 158.984C115.016 159.376 115.292 159.67 115.628 159.866C115.973 160.062 116.342 160.16 116.734 160.16ZM125.265 161.168C124.434 161.168 123.743 160.958 123.193 160.538C122.642 160.118 122.32 159.549 122.227 158.83H123.431C123.505 159.194 123.697 159.511 124.005 159.782C124.322 160.043 124.747 160.174 125.279 160.174C125.773 160.174 126.137 160.071 126.371 159.866C126.604 159.651 126.721 159.399 126.721 159.11C126.721 158.69 126.567 158.41 126.259 158.27C125.96 158.13 125.535 158.004 124.985 157.892C124.611 157.817 124.238 157.71 123.865 157.57C123.491 157.43 123.179 157.234 122.927 156.982C122.675 156.721 122.549 156.38 122.549 155.96C122.549 155.353 122.773 154.859 123.221 154.476C123.678 154.084 124.294 153.888 125.069 153.888C125.806 153.888 126.408 154.075 126.875 154.448C127.351 154.812 127.626 155.335 127.701 156.016H126.539C126.492 155.661 126.338 155.386 126.077 155.19C125.825 154.985 125.484 154.882 125.055 154.882C124.635 154.882 124.308 154.971 124.075 155.148C123.851 155.325 123.739 155.559 123.739 155.848C123.739 156.128 123.883 156.347 124.173 156.506C124.471 156.665 124.873 156.8 125.377 156.912C125.806 157.005 126.212 157.122 126.595 157.262C126.987 157.393 127.304 157.593 127.547 157.864C127.799 158.125 127.925 158.508 127.925 159.012C127.934 159.637 127.696 160.155 127.211 160.566C126.735 160.967 126.086 161.168 125.265 161.168ZM133.015 161.168C132.184 161.168 131.493 160.958 130.943 160.538C130.392 160.118 130.07 159.549 129.977 158.83H131.181C131.255 159.194 131.447 159.511 131.755 159.782C132.072 160.043 132.497 160.174 133.029 160.174C133.523 160.174 133.887 160.071 134.121 159.866C134.354 159.651 134.471 159.399 134.471 159.11C134.471 158.69 134.317 158.41 134.009 158.27C133.71 158.13 133.285 158.004 132.735 157.892C132.361 157.817 131.988 157.71 131.615 157.57C131.241 157.43 130.929 157.234 130.677 156.982C130.425 156.721 130.299 156.38 130.299 155.96C130.299 155.353 130.523 154.859 130.971 154.476C131.428 154.084 132.044 153.888 132.819 153.888C133.556 153.888 134.158 154.075 134.625 154.448C135.101 154.812 135.376 155.335 135.451 156.016H134.289C134.242 155.661 134.088 155.386 133.827 155.19C133.575 154.985 133.234 154.882 132.805 154.882C132.385 154.882 132.058 154.971 131.825 155.148C131.601 155.325 131.489 155.559 131.489 155.848C131.489 156.128 131.633 156.347 131.923 156.506C132.221 156.665 132.623 156.8 133.127 156.912C133.556 157.005 133.962 157.122 134.345 157.262C134.737 157.393 135.054 157.593 135.297 157.864C135.549 158.125 135.675 158.508 135.675 159.012C135.684 159.637 135.446 160.155 134.961 160.566C134.485 160.967 133.836 161.168 133.015 161.168ZM141.269 161.168C140.615 161.168 140.027 161.019 139.505 160.72C138.982 160.421 138.567 160.001 138.259 159.46C137.96 158.909 137.811 158.265 137.811 157.528C137.811 156.791 137.965 156.151 138.273 155.61C138.581 155.059 138.996 154.635 139.519 154.336C140.051 154.037 140.643 153.888 141.297 153.888C141.95 153.888 142.538 154.037 143.061 154.336C143.583 154.635 143.994 155.059 144.293 155.61C144.601 156.151 144.755 156.791 144.755 157.528C144.755 158.265 144.601 158.909 144.293 159.46C143.985 160.001 143.565 160.421 143.033 160.72C142.51 161.019 141.922 161.168 141.269 161.168ZM141.269 160.16C141.67 160.16 142.043 160.062 142.389 159.866C142.734 159.67 143.014 159.376 143.229 158.984C143.443 158.592 143.551 158.107 143.551 157.528C143.551 156.949 143.443 156.464 143.229 156.072C143.023 155.68 142.748 155.386 142.403 155.19C142.057 154.994 141.689 154.896 141.297 154.896C140.895 154.896 140.522 154.994 140.177 155.19C139.831 155.386 139.551 155.68 139.337 156.072C139.122 156.464 139.015 156.949 139.015 157.528C139.015 158.107 139.122 158.592 139.337 158.984C139.551 159.376 139.827 159.67 140.163 159.866C140.508 160.062 140.877 160.16 141.269 160.16ZM147.14 161V154.056H148.204L148.302 155.386C148.516 154.929 148.843 154.565 149.282 154.294C149.72 154.023 150.262 153.888 150.906 153.888V155.12H150.584C150.173 155.12 149.795 155.195 149.45 155.344C149.104 155.484 148.829 155.727 148.624 156.072C148.418 156.417 148.316 156.893 148.316 157.5V161H147.14ZM155.88 161.168C155.227 161.168 154.639 161.019 154.116 160.72C153.593 160.421 153.178 160.001 152.87 159.46C152.571 158.909 152.422 158.265 152.422 157.528C152.422 156.791 152.576 156.151 152.884 155.61C153.192 155.059 153.607 154.635 154.13 154.336C154.662 154.037 155.255 153.888 155.908 153.888C156.561 153.888 157.149 154.037 157.672 154.336C158.195 154.635 158.605 155.059 158.904 155.61C159.212 156.151 159.366 156.791 159.366 157.528C159.366 158.265 159.212 158.909 158.904 159.46C158.596 160.001 158.176 160.421 157.644 160.72C157.121 161.019 156.533 161.168 155.88 161.168ZM155.88 160.16C156.281 160.16 156.655 160.062 157 159.866C157.345 159.67 157.625 159.376 157.84 158.984C158.055 158.592 158.162 158.107 158.162 157.528C158.162 156.949 158.055 156.464 157.84 156.072C157.635 155.68 157.359 155.386 157.014 155.19C156.669 154.994 156.3 154.896 155.908 154.896C155.507 154.896 155.133 154.994 154.788 155.19C154.443 155.386 154.163 155.68 153.948 156.072C153.733 156.464 153.626 156.949 153.626 157.528C153.626 158.107 153.733 158.592 153.948 158.984C154.163 159.376 154.438 159.67 154.774 159.866C155.119 160.062 155.488 160.16 155.88 160.16ZM155.586 153.482V152.6L158.526 150.822V151.844L155.586 153.482ZM160.813 162.666L161.625 159.572H162.843L161.625 162.666H160.813ZM169.515 161V151.2H172.679C173.444 151.2 174.069 151.326 174.555 151.578C175.04 151.83 175.399 152.175 175.633 152.614C175.866 153.053 175.983 153.538 175.983 154.07C175.983 154.686 175.815 155.241 175.479 155.736C175.152 156.231 174.639 156.581 173.939 156.786L176.081 161H174.695L172.707 156.954H172.623H170.691V161H169.515ZM170.691 156.03H172.595C173.351 156.03 173.901 155.848 174.247 155.484C174.592 155.12 174.765 154.653 174.765 154.084C174.765 153.505 174.592 153.048 174.247 152.712C173.911 152.367 173.355 152.194 172.581 152.194H170.691V156.03ZM179.207 152.516C178.974 152.516 178.778 152.441 178.619 152.292C178.47 152.133 178.395 151.937 178.395 151.704C178.395 151.48 178.47 151.293 178.619 151.144C178.778 150.995 178.974 150.92 179.207 150.92C179.431 150.92 179.623 150.995 179.781 151.144C179.94 151.293 180.019 151.48 180.019 151.704C180.019 151.937 179.94 152.133 179.781 152.292C179.623 152.441 179.431 152.516 179.207 152.516ZM178.619 161V154.056H179.795V161H178.619ZM185.757 161.168C185.104 161.168 184.516 161.019 183.993 160.72C183.47 160.421 183.055 160.001 182.747 159.46C182.448 158.909 182.299 158.265 182.299 157.528C182.299 156.791 182.453 156.151 182.761 155.61C183.069 155.059 183.484 154.635 184.007 154.336C184.539 154.037 185.132 153.888 185.785 153.888C186.438 153.888 187.026 154.037 187.549 154.336C188.072 154.635 188.482 155.059 188.781 155.61C189.089 156.151 189.243 156.791 189.243 157.528C189.243 158.265 189.089 158.909 188.781 159.46C188.473 160.001 188.053 160.421 187.521 160.72C186.998 161.019 186.41 161.168 185.757 161.168ZM185.757 160.16C186.158 160.16 186.532 160.062 186.877 159.866C187.222 159.67 187.502 159.376 187.717 158.984C187.932 158.592 188.039 158.107 188.039 157.528C188.039 156.949 187.932 156.464 187.717 156.072C187.512 155.68 187.236 155.386 186.891 155.19C186.546 154.994 186.177 154.896 185.785 154.896C185.384 154.896 185.01 154.994 184.665 155.19C184.32 155.386 184.04 155.68 183.825 156.072C183.61 156.464 183.503 156.949 183.503 157.528C183.503 158.107 183.61 158.592 183.825 158.984C184.04 159.376 184.315 159.67 184.651 159.866C184.996 160.062 185.365 160.16 185.757 160.16ZM200.367 161.168C199.453 161.168 198.65 160.958 197.959 160.538C197.269 160.109 196.732 159.516 196.349 158.76C195.967 157.995 195.775 157.113 195.775 156.114C195.775 155.115 195.967 154.233 196.349 153.468C196.741 152.703 197.292 152.105 198.001 151.676C198.72 151.247 199.565 151.032 200.535 151.032C201.637 151.032 202.551 151.298 203.279 151.83C204.017 152.362 204.493 153.095 204.707 154.028H203.349C203.219 153.44 202.906 152.973 202.411 152.628C201.926 152.283 201.301 152.11 200.535 152.11C199.817 152.11 199.191 152.273 198.659 152.6C198.127 152.917 197.712 153.375 197.413 153.972C197.124 154.569 196.979 155.283 196.979 156.114C196.979 156.945 197.124 157.659 197.413 158.256C197.703 158.853 198.104 159.315 198.617 159.642C199.131 159.959 199.728 160.118 200.409 160.118C201.455 160.118 202.243 159.815 202.775 159.208C203.307 158.592 203.611 157.752 203.685 156.688H200.857V155.764H204.889V161H203.811L203.713 159.39C203.359 159.959 202.925 160.398 202.411 160.706C201.898 161.014 201.217 161.168 200.367 161.168ZM207.429 161V154.056H208.493L208.591 155.386C208.806 154.929 209.132 154.565 209.571 154.294C210.01 154.023 210.551 153.888 211.195 153.888V155.12H210.873C210.462 155.12 210.084 155.195 209.739 155.344C209.394 155.484 209.118 155.727 208.913 156.072C208.708 156.417 208.605 156.893 208.605 157.5V161H207.429ZM215.575 161.168C214.996 161.168 214.515 161.07 214.133 160.874C213.75 160.678 213.465 160.417 213.279 160.09C213.092 159.763 212.999 159.409 212.999 159.026C212.999 158.317 213.269 157.771 213.811 157.388C214.352 157.005 215.089 156.814 216.023 156.814H217.899V156.73C217.899 156.123 217.74 155.666 217.423 155.358C217.105 155.041 216.681 154.882 216.149 154.882C215.691 154.882 215.295 154.999 214.959 155.232C214.632 155.456 214.427 155.787 214.343 156.226H213.139C213.185 155.722 213.353 155.297 213.643 154.952C213.941 154.607 214.31 154.345 214.749 154.168C215.187 153.981 215.654 153.888 216.149 153.888C217.119 153.888 217.847 154.149 218.333 154.672C218.827 155.185 219.075 155.871 219.075 156.73V161H218.025L217.955 159.754C217.759 160.146 217.469 160.482 217.087 160.762C216.713 161.033 216.209 161.168 215.575 161.168ZM215.757 160.174C216.205 160.174 216.587 160.057 216.905 159.824C217.231 159.591 217.479 159.287 217.647 158.914C217.815 158.541 217.899 158.149 217.899 157.738V157.724H216.121C215.43 157.724 214.94 157.845 214.651 158.088C214.371 158.321 214.231 158.615 214.231 158.97C214.231 159.334 214.361 159.628 214.623 159.852C214.893 160.067 215.271 160.174 215.757 160.174ZM221.589 161V154.056H222.653L222.723 155.302C222.947 154.863 223.269 154.518 223.689 154.266C224.109 154.014 224.585 153.888 225.117 153.888C225.938 153.888 226.592 154.14 227.077 154.644C227.572 155.139 227.819 155.904 227.819 156.94V161H226.643V157.066C226.643 155.619 226.046 154.896 224.851 154.896C224.254 154.896 223.754 155.115 223.353 155.554C222.961 155.983 222.765 156.599 222.765 157.402V161H221.589ZM233.501 161.168C232.81 161.168 232.203 161.009 231.681 160.692C231.167 160.375 230.766 159.941 230.477 159.39C230.197 158.839 230.057 158.214 230.057 157.514C230.057 156.814 230.201 156.193 230.491 155.652C230.78 155.101 231.181 154.672 231.695 154.364C232.208 154.047 232.815 153.888 233.515 153.888C234.084 153.888 234.588 154.005 235.027 154.238C235.465 154.471 235.806 154.798 236.049 155.218V150.92H237.225V161H236.161L236.049 159.852C235.825 160.188 235.503 160.491 235.083 160.762C234.663 161.033 234.135 161.168 233.501 161.168ZM233.627 160.146C234.093 160.146 234.504 160.039 234.859 159.824C235.223 159.6 235.503 159.292 235.699 158.9C235.904 158.508 236.007 158.051 236.007 157.528C236.007 157.005 235.904 156.548 235.699 156.156C235.503 155.764 235.223 155.461 234.859 155.246C234.504 155.022 234.093 154.91 233.627 154.91C233.169 154.91 232.759 155.022 232.395 155.246C232.04 155.461 231.76 155.764 231.555 156.156C231.359 156.548 231.261 157.005 231.261 157.528C231.261 158.051 231.359 158.508 231.555 158.9C231.76 159.292 232.04 159.6 232.395 159.824C232.759 160.039 233.169 160.146 233.627 160.146ZM243.014 161.168C242.351 161.168 241.763 161.019 241.25 160.72C240.736 160.412 240.33 159.987 240.032 159.446C239.742 158.905 239.598 158.265 239.598 157.528C239.598 156.8 239.742 156.165 240.032 155.624C240.321 155.073 240.722 154.649 241.236 154.35C241.758 154.042 242.36 153.888 243.042 153.888C243.714 153.888 244.292 154.042 244.778 154.35C245.272 154.649 245.65 155.045 245.912 155.54C246.173 156.035 246.304 156.567 246.304 157.136C246.304 157.239 246.299 157.341 246.29 157.444C246.29 157.547 246.29 157.663 246.29 157.794H240.76C240.788 158.326 240.909 158.769 241.124 159.124C241.348 159.469 241.623 159.731 241.95 159.908C242.286 160.085 242.64 160.174 243.014 160.174C243.499 160.174 243.905 160.062 244.232 159.838C244.558 159.614 244.796 159.311 244.946 158.928H246.108C245.921 159.572 245.562 160.109 245.03 160.538C244.507 160.958 243.835 161.168 243.014 161.168ZM243.014 154.882C242.454 154.882 241.954 155.055 241.516 155.4C241.086 155.736 240.839 156.231 240.774 156.884H245.142C245.114 156.259 244.899 155.769 244.498 155.414C244.096 155.059 243.602 154.882 243.014 154.882ZM256.218 161.168C255.527 161.168 254.92 161.009 254.398 160.692C253.884 160.375 253.483 159.941 253.194 159.39C252.914 158.839 252.774 158.214 252.774 157.514C252.774 156.814 252.918 156.193 253.208 155.652C253.497 155.101 253.898 154.672 254.412 154.364C254.925 154.047 255.532 153.888 256.232 153.888C256.801 153.888 257.305 154.005 257.744 154.238C258.182 154.471 258.523 154.798 258.766 155.218V150.92H259.942V161H258.878L258.766 159.852C258.542 160.188 258.22 160.491 257.8 160.762C257.38 161.033 256.852 161.168 256.218 161.168ZM256.344 160.146C256.81 160.146 257.221 160.039 257.576 159.824C257.94 159.6 258.22 159.292 258.416 158.9C258.621 158.508 258.724 158.051 258.724 157.528C258.724 157.005 258.621 156.548 258.416 156.156C258.22 155.764 257.94 155.461 257.576 155.246C257.221 155.022 256.81 154.91 256.344 154.91C255.886 154.91 255.476 155.022 255.112 155.246C254.757 155.461 254.477 155.764 254.272 156.156C254.076 156.548 253.978 157.005 253.978 157.528C253.978 158.051 254.076 158.508 254.272 158.9C254.477 159.292 254.757 159.6 255.112 159.824C255.476 160.039 255.886 160.146 256.344 160.146ZM265.773 161.168C265.119 161.168 264.531 161.019 264.009 160.72C263.486 160.421 263.071 160.001 262.763 159.46C262.464 158.909 262.315 158.265 262.315 157.528C262.315 156.791 262.469 156.151 262.777 155.61C263.085 155.059 263.5 154.635 264.023 154.336C264.555 154.037 265.147 153.888 265.801 153.888C266.454 153.888 267.042 154.037 267.565 154.336C268.087 154.635 268.498 155.059 268.797 155.61C269.105 156.151 269.259 156.791 269.259 157.528C269.259 158.265 269.105 158.909 268.797 159.46C268.489 160.001 268.069 160.421 267.537 160.72C267.014 161.019 266.426 161.168 265.773 161.168ZM265.773 160.16C266.174 160.16 266.547 160.062 266.893 159.866C267.238 159.67 267.518 159.376 267.733 158.984C267.947 158.592 268.055 158.107 268.055 157.528C268.055 156.949 267.947 156.464 267.733 156.072C267.527 155.68 267.252 155.386 266.907 155.19C266.561 154.994 266.193 154.896 265.801 154.896C265.399 154.896 265.026 154.994 264.681 155.19C264.335 155.386 264.055 155.68 263.841 156.072C263.626 156.464 263.519 156.949 263.519 157.528C263.519 158.107 263.626 158.592 263.841 158.984C264.055 159.376 264.331 159.67 264.667 159.866C265.012 160.062 265.381 160.16 265.773 160.16ZM276.169 161V151.2H277.345L282.567 159.054V151.2H283.743V161H282.567L277.345 153.146V161H276.169ZM289.665 161.168C289.012 161.168 288.424 161.019 287.901 160.72C287.378 160.421 286.963 160.001 286.655 159.46C286.356 158.909 286.207 158.265 286.207 157.528C286.207 156.791 286.361 156.151 286.669 155.61C286.977 155.059 287.392 154.635 287.915 154.336C288.447 154.037 289.04 153.888 289.693 153.888C290.346 153.888 290.934 154.037 291.457 154.336C291.98 154.635 292.39 155.059 292.689 155.61C292.997 156.151 293.151 156.791 293.151 157.528C293.151 158.265 292.997 158.909 292.689 159.46C292.381 160.001 291.961 160.421 291.429 160.72C290.906 161.019 290.318 161.168 289.665 161.168ZM289.665 160.16C290.066 160.16 290.44 160.062 290.785 159.866C291.13 159.67 291.41 159.376 291.625 158.984C291.84 158.592 291.947 158.107 291.947 157.528C291.947 156.949 291.84 156.464 291.625 156.072C291.42 155.68 291.144 155.386 290.799 155.19C290.454 154.994 290.085 154.896 289.693 154.896C289.292 154.896 288.918 154.994 288.573 155.19C288.228 155.386 287.948 155.68 287.733 156.072C287.518 156.464 287.411 156.949 287.411 157.528C287.411 158.107 287.518 158.592 287.733 158.984C287.948 159.376 288.223 159.67 288.559 159.866C288.904 160.062 289.273 160.16 289.665 160.16ZM295.536 161V154.056H296.6L296.698 155.386C296.913 154.929 297.24 154.565 297.678 154.294C298.117 154.023 298.658 153.888 299.302 153.888V155.12H298.98C298.57 155.12 298.192 155.195 297.846 155.344C297.501 155.484 297.226 155.727 297.02 156.072C296.815 156.417 296.712 156.893 296.712 157.5V161H295.536ZM304.116 161C303.482 161 302.982 160.846 302.618 160.538C302.254 160.23 302.072 159.675 302.072 158.872V155.05H300.868V154.056H302.072L302.226 152.39H303.248V154.056H305.292V155.05H303.248V158.872C303.248 159.311 303.337 159.609 303.514 159.768C303.692 159.917 304.004 159.992 304.452 159.992H305.18V161H304.116ZM310.467 161.168C309.804 161.168 309.216 161.019 308.703 160.72C308.19 160.412 307.784 159.987 307.485 159.446C307.196 158.905 307.051 158.265 307.051 157.528C307.051 156.8 307.196 156.165 307.485 155.624C307.774 155.073 308.176 154.649 308.689 154.35C309.212 154.042 309.814 153.888 310.495 153.888C311.167 153.888 311.746 154.042 312.231 154.35C312.726 154.649 313.104 155.045 313.365 155.54C313.626 156.035 313.757 156.567 313.757 157.136C313.757 157.239 313.752 157.341 313.743 157.444C313.743 157.547 313.743 157.663 313.743 157.794H308.213C308.241 158.326 308.362 158.769 308.577 159.124C308.801 159.469 309.076 159.731 309.403 159.908C309.739 160.085 310.094 160.174 310.467 160.174C310.952 160.174 311.358 160.062 311.685 159.838C312.012 159.614 312.25 159.311 312.399 158.928H313.561C313.374 159.572 313.015 160.109 312.483 160.538C311.96 160.958 311.288 161.168 310.467 161.168ZM310.467 154.882C309.907 154.882 309.408 155.055 308.969 155.4C308.54 155.736 308.292 156.231 308.227 156.884H312.595C312.567 156.259 312.352 155.769 311.951 155.414C311.55 155.059 311.055 154.882 310.467 154.882Z" fill="#616161"/>
<circle cx="68" cy="144" r="20" fill="url(#paint2_linear_2830_1402)"/>
<path d="M58 138H78V142L77.3008 142.42C76.1924 143.085 74.8076 143.085 73.6992 142.42L73 142L72.3008 142.42C71.1924 143.085 69.8077 143.085 68.6993 142.42L68 142L67.3007 142.42C66.1923 143.085 64.8077 143.085 63.6993 142.42L63 142L62.3007 142.42C61.1923 143.085 59.8077 143.085 58.6993 142.42L58 142V138Z" stroke="#FCFCFC" stroke-width="2" stroke-linecap="round" stroke-linejoin="round"/>
<path d="M60 143.244V154H76V143" stroke="#FCFCFC" stroke-width="2" stroke-linecap="round" stroke-linejoin="round"/>
<path d="M60 137.911V134H76V138" stroke="#FCFCFC" stroke-width="2" stroke-linecap="round" stroke-linejoin="round"/>
<path d="M70.5 148H65.5V154H70.5V148Z" stroke="#FCFCFC" stroke-width="2" stroke-linecap="round" stroke-linejoin="round"/>
<path d="M53.414 204L58.022 191.4H60.614L65.222 204H62.774L61.766 201.084H56.852L55.826 204H53.414ZM57.482 199.284H61.136L59.3 194.046L57.482 199.284ZM70.6402 204C69.7042 204 68.9542 203.772 68.3902 203.316C67.8262 202.86 67.5442 202.05 67.5442 200.886V196.998H66.0142V195.072H67.5442L67.8142 192.678H69.8482V195.072H72.2602V196.998H69.8482V200.904C69.8482 201.336 69.9382 201.636 70.1182 201.804C70.3102 201.96 70.6342 202.038 71.0902 202.038H72.2062V204H70.6402ZM79.0978 204.216C78.1978 204.216 77.3998 204.024 76.7038 203.64C76.0078 203.256 75.4618 202.716 75.0658 202.02C74.6698 201.324 74.4718 200.52 74.4718 199.608C74.4718 198.684 74.6638 197.862 75.0478 197.142C75.4438 196.422 75.9838 195.864 76.6678 195.468C77.3638 195.06 78.1798 194.856 79.1158 194.856C79.9918 194.856 80.7658 195.048 81.4378 195.432C82.1098 195.816 82.6318 196.344 83.0038 197.016C83.3878 197.676 83.5798 198.414 83.5798 199.23C83.5798 199.362 83.5738 199.5 83.5618 199.644C83.5618 199.788 83.5558 199.938 83.5438 200.094H76.7578C76.8058 200.79 77.0458 201.336 77.4778 201.732C77.9218 202.128 78.4558 202.326 79.0798 202.326C79.5478 202.326 79.9378 202.224 80.2498 202.02C80.5738 201.804 80.8138 201.528 80.9698 201.192H83.3098C83.1418 201.756 82.8598 202.272 82.4638 202.74C82.0798 203.196 81.5998 203.556 81.0238 203.82C80.4598 204.084 79.8178 204.216 79.0978 204.216ZM79.1158 196.728C78.5518 196.728 78.0538 196.89 77.6218 197.214C77.1898 197.526 76.9138 198.006 76.7938 198.654H81.2398C81.2038 198.066 80.9878 197.598 80.5918 197.25C80.1958 196.902 79.7038 196.728 79.1158 196.728ZM86.2677 204V195.072H88.3017L88.4817 196.584C88.7577 196.056 89.1537 195.636 89.6697 195.324C90.1977 195.012 90.8157 194.856 91.5237 194.856C92.6277 194.856 93.4857 195.204 94.0977 195.9C94.7097 196.596 95.0157 197.616 95.0157 198.96V204H92.7117V199.176C92.7117 198.408 92.5557 197.82 92.2437 197.412C91.9317 197.004 91.4457 196.8 90.7857 196.8C90.1377 196.8 89.6037 197.028 89.1837 197.484C88.7757 197.94 88.5717 198.576 88.5717 199.392V204H86.2677ZM102.073 204.216C101.233 204.216 100.483 204.012 99.8228 203.604C99.1628 203.196 98.6408 202.638 98.2568 201.93C97.8728 201.222 97.6808 200.418 97.6808 199.518C97.6808 198.618 97.8728 197.82 98.2568 197.124C98.6408 196.416 99.1628 195.864 99.8228 195.468C100.483 195.06 101.233 194.856 102.073 194.856C102.745 194.856 103.333 194.982 103.837 195.234C104.341 195.486 104.749 195.84 105.061 196.296V191.04H107.365V204H105.313L105.061 202.722C104.773 203.118 104.389 203.466 103.909 203.766C103.441 204.066 102.829 204.216 102.073 204.216ZM102.559 202.2C103.303 202.2 103.909 201.954 104.377 201.462C104.857 200.958 105.097 200.316 105.097 199.536C105.097 198.756 104.857 198.12 104.377 197.628C103.909 197.124 103.303 196.872 102.559 196.872C101.827 196.872 101.221 197.118 100.741 197.61C100.261 198.102 100.021 198.738 100.021 199.518C100.021 200.298 100.261 200.94 100.741 201.444C101.221 201.948 101.827 202.2 102.559 202.2ZM114.799 204.216C113.899 204.216 113.101 204.024 112.405 203.64C111.709 203.256 111.163 202.716 110.767 202.02C110.371 201.324 110.173 200.52 110.173 199.608C110.173 198.684 110.365 197.862 110.749 197.142C111.145 196.422 111.685 195.864 112.369 195.468C113.065 195.06 113.881 194.856 114.817 194.856C115.693 194.856 116.467 195.048 117.139 195.432C117.811 195.816 118.333 196.344 118.705 197.016C119.089 197.676 119.281 198.414 119.281 199.23C119.281 199.362 119.275 199.5 119.263 199.644C119.263 199.788 119.257 199.938 119.245 200.094H112.459C112.507 200.79 112.747 201.336 113.179 201.732C113.623 202.128 114.157 202.326 114.781 202.326C115.249 202.326 115.639 202.224 115.951 202.02C116.275 201.804 116.515 201.528 116.671 201.192H119.011C118.843 201.756 118.561 202.272 118.165 202.74C117.781 203.196 117.301 203.556 116.725 203.82C116.161 204.084 115.519 204.216 114.799 204.216ZM114.817 196.728C114.253 196.728 113.755 196.89 113.323 197.214C112.891 197.526 112.615 198.006 112.495 198.654H116.941C116.905 198.066 116.689 197.598 116.293 197.25C115.897 196.902 115.405 196.728 114.817 196.728ZM121.969 204V195.072H124.003L124.183 196.584C124.459 196.056 124.855 195.636 125.371 195.324C125.899 195.012 126.517 194.856 127.225 194.856C128.329 194.856 129.187 195.204 129.799 195.9C130.411 196.596 130.717 197.616 130.717 198.96V204H128.413V199.176C128.413 198.408 128.257 197.82 127.945 197.412C127.633 197.004 127.147 196.8 126.487 196.8C125.839 196.8 125.305 197.028 124.885 197.484C124.477 197.94 124.273 198.576 124.273 199.392V204H121.969ZM137.648 204C136.712 204 135.962 203.772 135.398 203.316C134.834 202.86 134.552 202.05 134.552 200.886V196.998H133.022V195.072H134.552L134.822 192.678H136.856V195.072H139.268V196.998H136.856V200.904C136.856 201.336 136.946 201.636 137.126 201.804C137.318 201.96 137.642 202.038 138.098 202.038H139.214V204H137.648ZM146.106 204.216C145.206 204.216 144.408 204.024 143.712 203.64C143.016 203.256 142.47 202.716 142.074 202.02C141.678 201.324 141.48 200.52 141.48 199.608C141.48 198.684 141.672 197.862 142.056 197.142C142.452 196.422 142.992 195.864 143.676 195.468C144.372 195.06 145.188 194.856 146.124 194.856C147 194.856 147.774 195.048 148.446 195.432C149.118 195.816 149.64 196.344 150.012 197.016C150.396 197.676 150.588 198.414 150.588 199.23C150.588 199.362 150.582 199.5 150.57 199.644C150.57 199.788 150.564 199.938 150.552 200.094H143.766C143.814 200.79 144.054 201.336 144.486 201.732C144.93 202.128 145.464 202.326 146.088 202.326C146.556 202.326 146.946 202.224 147.258 202.02C147.582 201.804 147.822 201.528 147.978 201.192H150.318C150.15 201.756 149.868 202.272 149.472 202.74C149.088 203.196 148.608 203.556 148.032 203.82C147.468 204.084 146.826 204.216 146.106 204.216ZM146.124 196.728C145.56 196.728 145.062 196.89 144.63 197.214C144.198 197.526 143.922 198.006 143.802 198.654H148.248C148.212 198.066 147.996 197.598 147.6 197.25C147.204 196.902 146.712 196.728 146.124 196.728ZM162.419 204.216C161.579 204.216 160.829 204.012 160.169 203.604C159.509 203.196 158.987 202.638 158.603 201.93C158.219 201.222 158.027 200.418 158.027 199.518C158.027 198.618 158.219 197.82 158.603 197.124C158.987 196.416 159.509 195.864 160.169 195.468C160.829 195.06 161.579 194.856 162.419 194.856C163.091 194.856 163.679 194.982 164.183 195.234C164.687 195.486 165.095 195.84 165.407 196.296V191.04H167.711V204H165.659L165.407 202.722C165.119 203.118 164.735 203.466 164.255 203.766C163.787 204.066 163.175 204.216 162.419 204.216ZM162.905 202.2C163.649 202.2 164.255 201.954 164.723 201.462C165.203 200.958 165.443 200.316 165.443 199.536C165.443 198.756 165.203 198.12 164.723 197.628C164.255 197.124 163.649 196.872 162.905 196.872C162.173 196.872 161.567 197.118 161.087 197.61C160.607 198.102 160.367 198.738 160.367 199.518C160.367 200.298 160.607 200.94 161.087 201.444C161.567 201.948 162.173 202.2 162.905 202.2ZM175.145 204.216C174.245 204.216 173.447 204.024 172.751 203.64C172.055 203.256 171.509 202.716 171.113 202.02C170.717 201.324 170.519 200.52 170.519 199.608C170.519 198.684 170.711 197.862 171.095 197.142C171.491 196.422 172.031 195.864 172.715 195.468C173.411 195.06 174.227 194.856 175.163 194.856C176.039 194.856 176.813 195.048 177.485 195.432C178.157 195.816 178.679 196.344 179.051 197.016C179.435 197.676 179.627 198.414 179.627 199.23C179.627 199.362 179.621 199.5 179.609 199.644C179.609 199.788 179.603 199.938 179.591 200.094H172.805C172.853 200.79 173.093 201.336 173.525 201.732C173.969 202.128 174.503 202.326 175.127 202.326C175.595 202.326 175.985 202.224 176.297 202.02C176.621 201.804 176.861 201.528 177.017 201.192H179.357C179.189 201.756 178.907 202.272 178.511 202.74C178.127 203.196 177.647 203.556 177.071 203.82C176.507 204.084 175.865 204.216 175.145 204.216ZM175.163 196.728C174.599 196.728 174.101 196.89 173.669 197.214C173.237 197.526 172.961 198.006 172.841 198.654H177.287C177.251 198.066 177.035 197.598 176.639 197.25C176.243 196.902 175.751 196.728 175.163 196.728ZM187.354 204V191.04H189.658V204H187.354ZM197.046 204.216C196.182 204.216 195.402 204.018 194.706 203.622C194.022 203.226 193.476 202.68 193.068 201.984C192.672 201.276 192.474 200.46 192.474 199.536C192.474 198.612 192.678 197.802 193.086 197.106C193.494 196.398 194.04 195.846 194.724 195.45C195.42 195.054 196.2 194.856 197.064 194.856C197.916 194.856 198.684 195.054 199.368 195.45C200.064 195.846 200.61 196.398 201.006 197.106C201.414 197.802 201.618 198.612 201.618 199.536C201.618 200.46 201.414 201.276 201.006 201.984C200.61 202.68 200.064 203.226 199.368 203.622C198.672 204.018 197.898 204.216 197.046 204.216ZM197.046 202.218C197.646 202.218 198.168 201.996 198.612 201.552C199.056 201.096 199.278 200.424 199.278 199.536C199.278 198.648 199.056 197.982 198.612 197.538C198.168 197.082 197.652 196.854 197.064 196.854C196.452 196.854 195.924 197.082 195.48 197.538C195.048 197.982 194.832 198.648 194.832 199.536C194.832 200.424 195.048 201.096 195.48 201.552C195.924 201.996 196.446 202.218 197.046 202.218ZM205.706 193.686C205.286 193.686 204.938 193.56 204.662 193.308C204.398 193.056 204.266 192.738 204.266 192.354C204.266 191.97 204.398 191.658 204.662 191.418C204.938 191.166 205.286 191.04 205.706 191.04C206.126 191.04 206.468 191.166 206.732 191.418C207.008 191.658 207.146 191.97 207.146 192.354C207.146 192.738 207.008 193.056 206.732 193.308C206.468 193.56 206.126 193.686 205.706 193.686ZM202.736 207.96V205.998H203.438C203.834 205.998 204.116 205.92 204.284 205.764C204.452 205.608 204.536 205.344 204.536 204.972V195.072H206.84V204.972C206.84 206.052 206.564 206.82 206.012 207.276C205.472 207.732 204.734 207.96 203.798 207.96H202.736ZM213.072 204.216C212.304 204.216 211.674 204.096 211.182 203.856C210.69 203.604 210.324 203.274 210.084 202.866C209.844 202.458 209.724 202.008 209.724 201.516C209.724 200.688 210.048 200.016 210.696 199.5C211.344 198.984 212.316 198.726 213.612 198.726H215.88V198.51C215.88 197.898 215.706 197.448 215.358 197.16C215.01 196.872 214.578 196.728 214.062 196.728C213.594 196.728 213.186 196.842 212.838 197.07C212.49 197.286 212.274 197.61 212.19 198.042H209.94C210 197.394 210.216 196.83 210.588 196.35C210.972 195.87 211.464 195.504 212.064 195.252C212.664 194.988 213.336 194.856 214.08 194.856C215.352 194.856 216.354 195.174 217.086 195.81C217.818 196.446 218.184 197.346 218.184 198.51V204H216.222L216.006 202.56C215.742 203.04 215.37 203.436 214.89 203.748C214.422 204.06 213.816 204.216 213.072 204.216ZM213.594 202.416C214.254 202.416 214.764 202.2 215.124 201.768C215.496 201.336 215.73 200.802 215.826 200.166H213.864C213.252 200.166 212.814 200.28 212.55 200.508C212.286 200.724 212.154 200.994 212.154 201.318C212.154 201.666 212.286 201.936 212.55 202.128C212.814 202.32 213.162 202.416 213.594 202.416Z" fill="#333333"/>
<path d="M58.334 245.168C57.3727 245.168 56.542 244.958 55.842 244.538C55.1513 244.109 54.6147 243.516 54.232 242.76C53.8493 241.995 53.658 241.108 53.658 240.1C53.658 239.101 53.8493 238.224 54.232 237.468C54.6147 236.703 55.1513 236.105 55.842 235.676C56.542 235.247 57.3727 235.032 58.334 235.032C59.454 235.032 60.364 235.303 61.064 235.844C61.7733 236.376 62.226 237.123 62.422 238.084H61.12C60.9707 237.477 60.6627 236.992 60.196 236.628C59.7387 236.255 59.118 236.068 58.334 236.068C57.634 236.068 57.0227 236.231 56.5 236.558C55.9773 236.875 55.5713 237.337 55.282 237.944C55.002 238.541 54.862 239.26 54.862 240.1C54.862 240.94 55.002 241.663 55.282 242.27C55.5713 242.867 55.9773 243.329 56.5 243.656C57.0227 243.973 57.634 244.132 58.334 244.132C59.118 244.132 59.7387 243.955 60.196 243.6C60.6627 243.236 60.9707 242.755 61.12 242.158H62.422C62.226 243.101 61.7733 243.838 61.064 244.37C60.364 244.902 59.454 245.168 58.334 245.168ZM64.8622 245V235.2H66.0382V244.062H70.6022V245H64.8622ZM73.705 245V236.166H70.779V235.2H77.807V236.166H74.881V245H73.705Z" fill="#616161"/>
<path d="M98.6357 240.104C98.8946 240.104 99.1045 239.895 99.1045 239.636C99.1045 239.377 98.8946 239.167 98.6357 239.167C98.3769 239.167 98.167 239.377 98.167 239.636C98.167 239.895 98.3769 240.104 98.6357 240.104Z" fill="#616161" stroke="#616161" stroke-width="1.5" stroke-linecap="round" stroke-linejoin="round"/>
<path d="M122.332 245V236.166H119.406V235.2H126.434V236.166H123.508V245H122.332ZM130.414 245.168C129.752 245.168 129.164 245.019 128.65 244.72C128.137 244.412 127.731 243.987 127.432 243.446C127.143 242.905 126.998 242.265 126.998 241.528C126.998 240.8 127.143 240.165 127.432 239.624C127.722 239.073 128.123 238.649 128.636 238.35C129.159 238.042 129.761 237.888 130.442 237.888C131.114 237.888 131.693 238.042 132.178 238.35C132.673 238.649 133.051 239.045 133.312 239.54C133.574 240.035 133.704 240.567 133.704 241.136C133.704 241.239 133.7 241.341 133.69 241.444C133.69 241.547 133.69 241.663 133.69 241.794H128.16C128.188 242.326 128.31 242.769 128.524 243.124C128.748 243.469 129.024 243.731 129.35 243.908C129.686 244.085 130.041 244.174 130.414 244.174C130.9 244.174 131.306 244.062 131.632 243.838C131.959 243.614 132.197 243.311 132.346 242.928H133.508C133.322 243.572 132.962 244.109 132.43 244.538C131.908 244.958 131.236 245.168 130.414 245.168ZM130.414 238.882C129.854 238.882 129.355 239.055 128.916 239.4C128.487 239.736 128.24 240.231 128.174 240.884H132.542C132.514 240.259 132.3 239.769 131.898 239.414C131.497 239.059 131.002 238.882 130.414 238.882ZM136.013 245V238.056H137.077L137.161 239.064C137.385 238.691 137.684 238.401 138.057 238.196C138.43 237.991 138.85 237.888 139.317 237.888C139.868 237.888 140.339 238 140.731 238.224C141.132 238.448 141.44 238.789 141.655 239.246C141.898 238.826 142.229 238.495 142.649 238.252C143.078 238.009 143.54 237.888 144.035 237.888C144.866 237.888 145.528 238.14 146.023 238.644C146.518 239.139 146.765 239.904 146.765 240.94V245H145.603V241.066C145.603 240.347 145.458 239.806 145.169 239.442C144.88 239.078 144.464 238.896 143.923 238.896C143.363 238.896 142.896 239.115 142.523 239.554C142.159 239.983 141.977 240.599 141.977 241.402V245H140.801V241.066C140.801 240.347 140.656 239.806 140.367 239.442C140.078 239.078 139.662 238.896 139.121 238.896C138.57 238.896 138.108 239.115 137.735 239.554C137.371 239.983 137.189 240.599 137.189 241.402V245H136.013ZM149.286 248.08V238.056H150.35L150.462 239.204C150.686 238.868 151.004 238.565 151.414 238.294C151.834 238.023 152.366 237.888 153.01 237.888C153.701 237.888 154.303 238.047 154.816 238.364C155.33 238.681 155.726 239.115 156.006 239.666C156.296 240.217 156.44 240.842 156.44 241.542C156.44 242.242 156.296 242.867 156.006 243.418C155.726 243.959 155.325 244.389 154.802 244.706C154.289 245.014 153.687 245.168 152.996 245.168C152.427 245.168 151.918 245.051 151.47 244.818C151.032 244.585 150.696 244.258 150.462 243.838V248.08H149.286ZM152.87 244.146C153.337 244.146 153.748 244.039 154.102 243.824C154.457 243.6 154.737 243.292 154.942 242.9C155.148 242.508 155.25 242.051 155.25 241.528C155.25 241.005 155.148 240.548 154.942 240.156C154.737 239.764 154.457 239.461 154.102 239.246C153.748 239.022 153.337 238.91 152.87 238.91C152.404 238.91 151.993 239.022 151.638 239.246C151.284 239.461 151.004 239.764 150.798 240.156C150.593 240.548 150.49 241.005 150.49 241.528C150.49 242.051 150.593 242.508 150.798 242.9C151.004 243.292 151.284 243.6 151.638 243.824C151.993 244.039 152.404 244.146 152.87 244.146ZM161.991 245.168C161.338 245.168 160.75 245.019 160.227 244.72C159.705 244.421 159.289 244.001 158.981 243.46C158.683 242.909 158.533 242.265 158.533 241.528C158.533 240.791 158.687 240.151 158.995 239.61C159.303 239.059 159.719 238.635 160.241 238.336C160.773 238.037 161.366 237.888 162.019 237.888C162.673 237.888 163.261 238.037 163.783 238.336C164.306 238.635 164.717 239.059 165.015 239.61C165.323 240.151 165.477 240.791 165.477 241.528C165.477 242.265 165.323 242.909 165.015 243.46C164.707 244.001 164.287 244.421 163.755 244.72C163.233 245.019 162.645 245.168 161.991 245.168ZM161.991 244.16C162.393 244.16 162.766 244.062 163.111 243.866C163.457 243.67 163.737 243.376 163.951 242.984C164.166 242.592 164.273 242.107 164.273 241.528C164.273 240.949 164.166 240.464 163.951 240.072C163.746 239.68 163.471 239.386 163.125 239.19C162.78 238.994 162.411 238.896 162.019 238.896C161.618 238.896 161.245 238.994 160.899 239.19C160.554 239.386 160.274 239.68 160.059 240.072C159.845 240.464 159.737 240.949 159.737 241.528C159.737 242.107 159.845 242.592 160.059 242.984C160.274 243.376 160.549 243.67 160.885 243.866C161.231 244.062 161.599 244.16 161.991 244.16ZM172.388 245V235.2H173.564V245H172.388ZM176.321 245V238.056H177.385L177.455 239.302C177.679 238.863 178.001 238.518 178.421 238.266C178.841 238.014 179.317 237.888 179.849 237.888C180.671 237.888 181.324 238.14 181.809 238.644C182.304 239.139 182.551 239.904 182.551 240.94V245H181.375V241.066C181.375 239.619 180.778 238.896 179.583 238.896C178.986 238.896 178.487 239.115 178.085 239.554C177.693 239.983 177.497 240.599 177.497 241.402V245H176.321ZM187.827 245C187.193 245 186.693 244.846 186.329 244.538C185.965 244.23 185.783 243.675 185.783 242.872V239.05H184.579V238.056H185.783L185.937 236.39H186.959V238.056H189.003V239.05H186.959V242.872C186.959 243.311 187.048 243.609 187.225 243.768C187.403 243.917 187.715 243.992 188.163 243.992H188.891V245H187.827ZM194.178 245.168C193.515 245.168 192.927 245.019 192.414 244.72C191.901 244.412 191.495 243.987 191.196 243.446C190.907 242.905 190.762 242.265 190.762 241.528C190.762 240.8 190.907 240.165 191.196 239.624C191.485 239.073 191.887 238.649 192.4 238.35C192.923 238.042 193.525 237.888 194.206 237.888C194.878 237.888 195.457 238.042 195.942 238.35C196.437 238.649 196.815 239.045 197.076 239.54C197.337 240.035 197.468 240.567 197.468 241.136C197.468 241.239 197.463 241.341 197.454 241.444C197.454 241.547 197.454 241.663 197.454 241.794H191.924C191.952 242.326 192.073 242.769 192.288 243.124C192.512 243.469 192.787 243.731 193.114 243.908C193.45 244.085 193.805 244.174 194.178 244.174C194.663 244.174 195.069 244.062 195.396 243.838C195.723 243.614 195.961 243.311 196.11 242.928H197.272C197.085 243.572 196.726 244.109 196.194 244.538C195.671 244.958 194.999 245.168 194.178 245.168ZM194.178 238.882C193.618 238.882 193.119 239.055 192.68 239.4C192.251 239.736 192.003 240.231 191.938 240.884H196.306C196.278 240.259 196.063 239.769 195.662 239.414C195.261 239.059 194.766 238.882 194.178 238.882ZM202.48 242.816C202.088 242.816 201.728 242.765 201.402 242.662L200.702 243.32C200.804 243.395 200.93 243.46 201.08 243.516C201.238 243.563 201.462 243.609 201.752 243.656C202.041 243.693 202.447 243.735 202.97 243.782C203.903 243.847 204.57 244.062 204.972 244.426C205.373 244.79 205.574 245.266 205.574 245.854C205.574 246.255 205.462 246.638 205.238 247.002C205.023 247.366 204.687 247.665 204.23 247.898C203.782 248.131 203.203 248.248 202.494 248.248C201.868 248.248 201.313 248.164 200.828 247.996C200.342 247.837 199.964 247.59 199.694 247.254C199.423 246.927 199.288 246.512 199.288 246.008C199.288 245.747 199.358 245.462 199.498 245.154C199.638 244.855 199.899 244.571 200.282 244.3C200.076 244.216 199.899 244.127 199.75 244.034C199.61 243.931 199.479 243.819 199.358 243.698V243.376L200.548 242.2C199.997 241.733 199.722 241.117 199.722 240.352C199.722 239.895 199.829 239.479 200.044 239.106C200.258 238.733 200.571 238.439 200.982 238.224C201.392 238 201.892 237.888 202.48 237.888C202.881 237.888 203.245 237.944 203.572 238.056H206.134V238.938L204.832 238.994C205.102 239.386 205.238 239.839 205.238 240.352C205.238 240.809 205.126 241.225 204.902 241.598C204.687 241.971 204.374 242.27 203.964 242.494C203.562 242.709 203.068 242.816 202.48 242.816ZM202.48 241.85C202.974 241.85 203.366 241.724 203.656 241.472C203.954 241.211 204.104 240.837 204.104 240.352C204.104 239.876 203.954 239.512 203.656 239.26C203.366 238.999 202.974 238.868 202.48 238.868C201.976 238.868 201.574 238.999 201.276 239.26C200.986 239.512 200.842 239.876 200.842 240.352C200.842 240.837 200.986 241.211 201.276 241.472C201.574 241.724 201.976 241.85 202.48 241.85ZM200.436 245.896C200.436 246.363 200.632 246.708 201.024 246.932C201.416 247.165 201.906 247.282 202.494 247.282C203.072 247.282 203.534 247.156 203.88 246.904C204.234 246.652 204.412 246.316 204.412 245.896C204.412 245.597 204.29 245.336 204.048 245.112C203.805 244.897 203.357 244.771 202.704 244.734C202.19 244.697 201.747 244.65 201.374 244.594C200.991 244.799 200.739 245.019 200.618 245.252C200.496 245.495 200.436 245.709 200.436 245.896ZM208.21 245V238.056H209.274L209.372 239.386C209.587 238.929 209.913 238.565 210.352 238.294C210.791 238.023 211.332 237.888 211.976 237.888V239.12H211.654C211.243 239.12 210.865 239.195 210.52 239.344C210.175 239.484 209.899 239.727 209.694 240.072C209.489 240.417 209.386 240.893 209.386 241.5V245H208.21ZM216.356 245.168C215.777 245.168 215.297 245.07 214.914 244.874C214.531 244.678 214.247 244.417 214.06 244.09C213.873 243.763 213.78 243.409 213.78 243.026C213.78 242.317 214.051 241.771 214.592 241.388C215.133 241.005 215.871 240.814 216.804 240.814H218.68V240.73C218.68 240.123 218.521 239.666 218.204 239.358C217.887 239.041 217.462 238.882 216.93 238.882C216.473 238.882 216.076 238.999 215.74 239.232C215.413 239.456 215.208 239.787 215.124 240.226H213.92C213.967 239.722 214.135 239.297 214.424 238.952C214.723 238.607 215.091 238.345 215.53 238.168C215.969 237.981 216.435 237.888 216.93 237.888C217.901 237.888 218.629 238.149 219.114 238.672C219.609 239.185 219.856 239.871 219.856 240.73V245H218.806L218.736 243.754C218.54 244.146 218.251 244.482 217.868 244.762C217.495 245.033 216.991 245.168 216.356 245.168ZM216.538 244.174C216.986 244.174 217.369 244.057 217.686 243.824C218.013 243.591 218.26 243.287 218.428 242.914C218.596 242.541 218.68 242.149 218.68 241.738V241.724H216.902C216.211 241.724 215.721 241.845 215.432 242.088C215.152 242.321 215.012 242.615 215.012 242.97C215.012 243.334 215.143 243.628 215.404 243.852C215.675 244.067 216.053 244.174 216.538 244.174ZM222.37 245V234.92H223.546V245H222.37Z" fill="#616161"/>
<path d="M244.636 240.104C244.895 240.104 245.104 239.895 245.104 239.636C245.104 239.377 244.895 239.167 244.636 239.167C244.377 239.167 244.167 239.377 244.167 239.636C244.167 239.895 244.377 240.104 244.636 240.104Z" fill="#616161" stroke="#616161" stroke-width="1.5" stroke-linecap="round" stroke-linejoin="round"/>
<path d="M269.088 245.168C268.463 245.168 267.898 245.056 267.394 244.832C266.89 244.599 266.484 244.253 266.176 243.796C265.877 243.339 265.719 242.769 265.7 242.088H266.89C266.899 242.648 267.095 243.133 267.478 243.544C267.861 243.945 268.397 244.146 269.088 244.146C269.779 244.146 270.297 243.955 270.642 243.572C270.997 243.189 271.174 242.727 271.174 242.186C271.174 241.729 271.062 241.355 270.838 241.066C270.623 240.777 270.329 240.562 269.956 240.422C269.592 240.282 269.191 240.212 268.752 240.212H268.024V239.218H268.752C269.387 239.218 269.881 239.073 270.236 238.784C270.6 238.495 270.782 238.089 270.782 237.566C270.782 237.127 270.637 236.768 270.348 236.488C270.068 236.199 269.648 236.054 269.088 236.054C268.547 236.054 268.113 236.217 267.786 236.544C267.459 236.861 267.277 237.263 267.24 237.748H266.05C266.078 237.216 266.218 236.745 266.47 236.334C266.731 235.923 267.086 235.606 267.534 235.382C267.982 235.149 268.5 235.032 269.088 235.032C269.723 235.032 270.25 235.144 270.67 235.368C271.099 235.592 271.421 235.891 271.636 236.264C271.86 236.637 271.972 237.048 271.972 237.496C271.972 237.991 271.837 238.443 271.566 238.854C271.295 239.255 270.889 239.526 270.348 239.666C270.927 239.787 271.407 240.063 271.79 240.492C272.173 240.921 272.364 241.486 272.364 242.186C272.364 242.727 272.238 243.227 271.986 243.684C271.743 244.132 271.379 244.491 270.894 244.762C270.409 245.033 269.807 245.168 269.088 245.168ZM275.352 245.07C275.119 245.07 274.923 244.995 274.764 244.846C274.615 244.687 274.54 244.496 274.54 244.272C274.54 244.048 274.615 243.861 274.764 243.712C274.923 243.553 275.119 243.474 275.352 243.474C275.576 243.474 275.763 243.553 275.912 243.712C276.071 243.861 276.15 244.048 276.15 244.272C276.15 244.496 276.071 244.687 275.912 244.846C275.763 244.995 275.576 245.07 275.352 245.07ZM281.762 245.168C280.894 245.168 280.143 244.958 279.508 244.538C278.883 244.109 278.402 243.516 278.066 242.76C277.73 241.995 277.562 241.108 277.562 240.1C277.562 239.092 277.73 238.21 278.066 237.454C278.402 236.689 278.883 236.096 279.508 235.676C280.143 235.247 280.894 235.032 281.762 235.032C282.63 235.032 283.377 235.247 284.002 235.676C284.628 236.096 285.108 236.689 285.444 237.454C285.78 238.21 285.948 239.092 285.948 240.1C285.948 241.108 285.78 241.995 285.444 242.76C285.108 243.516 284.628 244.109 284.002 244.538C283.377 244.958 282.63 245.168 281.762 245.168ZM281.762 244.132C282.332 244.132 282.84 243.973 283.288 243.656C283.746 243.329 284.1 242.867 284.352 242.27C284.614 241.663 284.744 240.94 284.744 240.1C284.744 239.26 284.614 238.541 284.352 237.944C284.1 237.347 283.746 236.889 283.288 236.572C282.84 236.245 282.332 236.082 281.762 236.082C281.184 236.082 280.67 236.245 280.222 236.572C279.774 236.889 279.42 237.347 279.158 237.944C278.897 238.541 278.766 239.26 278.766 240.1C278.766 240.94 278.897 241.663 279.158 242.27C279.42 242.867 279.774 243.329 280.222 243.656C280.67 243.973 281.184 244.132 281.762 244.132ZM292.219 245.168C291.351 245.168 290.6 244.958 289.965 244.538C289.34 244.109 288.859 243.516 288.523 242.76C288.187 241.995 288.019 241.108 288.019 240.1C288.019 239.092 288.187 238.21 288.523 237.454C288.859 236.689 289.34 236.096 289.965 235.676C290.6 235.247 291.351 235.032 292.219 235.032C293.087 235.032 293.834 235.247 294.459 235.676C295.085 236.096 295.565 236.689 295.901 237.454C296.237 238.21 296.405 239.092 296.405 240.1C296.405 241.108 296.237 241.995 295.901 242.76C295.565 243.516 295.085 244.109 294.459 244.538C293.834 244.958 293.087 245.168 292.219 245.168ZM292.219 244.132C292.789 244.132 293.297 243.973 293.745 243.656C294.203 243.329 294.557 242.867 294.809 242.27C295.071 241.663 295.201 240.94 295.201 240.1C295.201 239.26 295.071 238.541 294.809 237.944C294.557 237.347 294.203 236.889 293.745 236.572C293.297 236.245 292.789 236.082 292.219 236.082C291.641 236.082 291.127 236.245 290.679 236.572C290.231 236.889 289.877 237.347 289.615 237.944C289.354 238.541 289.223 239.26 289.223 240.1C289.223 240.94 289.354 241.663 289.615 242.27C289.877 242.867 290.231 243.329 290.679 243.656C291.127 243.973 291.641 244.132 292.219 244.132ZM302.676 245.168C301.808 245.168 301.057 244.958 300.422 244.538C299.797 244.109 299.316 243.516 298.98 242.76C298.644 241.995 298.476 241.108 298.476 240.1C298.476 239.092 298.644 238.21 298.98 237.454C299.316 236.689 299.797 236.096 300.422 235.676C301.057 235.247 301.808 235.032 302.676 235.032C303.544 235.032 304.291 235.247 304.916 235.676C305.542 236.096 306.022 236.689 306.358 237.454C306.694 238.21 306.862 239.092 306.862 240.1C306.862 241.108 306.694 241.995 306.358 242.76C306.022 243.516 305.542 244.109 304.916 244.538C304.291 244.958 303.544 245.168 302.676 245.168ZM302.676 244.132C303.246 244.132 303.754 243.973 304.202 243.656C304.66 243.329 305.014 242.867 305.266 242.27C305.528 241.663 305.658 240.94 305.658 240.1C305.658 239.26 305.528 238.541 305.266 237.944C305.014 237.347 304.66 236.889 304.202 236.572C303.754 236.245 303.246 236.082 302.676 236.082C302.098 236.082 301.584 236.245 301.136 236.572C300.688 236.889 300.334 237.347 300.072 237.944C299.811 238.541 299.68 239.26 299.68 240.1C299.68 240.94 299.811 241.663 300.072 242.27C300.334 242.867 300.688 243.329 301.136 243.656C301.584 243.973 302.098 244.132 302.676 244.132ZM313.766 245V235.2H316.93C317.696 235.2 318.321 235.326 318.806 235.578C319.292 235.83 319.651 236.175 319.884 236.614C320.118 237.053 320.234 237.538 320.234 238.07C320.234 238.686 320.066 239.241 319.73 239.736C319.404 240.231 318.89 240.581 318.19 240.786L320.332 245H318.946L316.958 240.954H316.874H314.942V245H313.766ZM314.942 240.03H316.846C317.602 240.03 318.153 239.848 318.498 239.484C318.844 239.12 319.016 238.653 319.016 238.084C319.016 237.505 318.844 237.048 318.498 236.712C318.162 236.367 317.607 236.194 316.832 236.194H314.942V240.03ZM325.363 246.218V245.14C324.449 245.037 323.725 244.711 323.193 244.16C322.661 243.609 322.395 242.909 322.395 242.06H323.627C323.627 242.555 323.772 242.998 324.061 243.39C324.36 243.773 324.794 244.02 325.363 244.132V240.338C325.298 240.319 325.228 240.301 325.153 240.282C325.088 240.254 325.023 240.231 324.957 240.212C324.201 239.951 323.641 239.629 323.277 239.246C322.913 238.854 322.731 238.345 322.731 237.72C322.722 236.992 322.951 236.385 323.417 235.9C323.893 235.415 324.542 235.135 325.363 235.06V233.926H326.329V235.06C327.113 235.153 327.739 235.447 328.205 235.942C328.672 236.437 328.91 237.039 328.919 237.748H327.687C327.687 237.403 327.575 237.071 327.351 236.754C327.127 236.427 326.787 236.208 326.329 236.096V239.484C326.404 239.503 326.479 239.526 326.553 239.554C326.628 239.582 326.707 239.605 326.791 239.624C327.258 239.792 327.678 239.988 328.051 240.212C328.425 240.436 328.714 240.725 328.919 241.08C329.134 241.435 329.241 241.887 329.241 242.438C329.241 242.877 329.134 243.292 328.919 243.684C328.705 244.076 328.378 244.407 327.939 244.678C327.51 244.949 326.973 245.107 326.329 245.154V246.218H325.363ZM323.949 237.608C323.949 238.037 324.075 238.364 324.327 238.588C324.579 238.803 324.925 238.989 325.363 239.148V236.068C324.943 236.133 324.603 236.301 324.341 236.572C324.08 236.833 323.949 237.179 323.949 237.608ZM328.023 242.508C328.023 241.967 327.865 241.565 327.547 241.304C327.23 241.043 326.824 240.828 326.329 240.66V244.16C326.871 244.095 327.286 243.908 327.575 243.6C327.874 243.292 328.023 242.928 328.023 242.508ZM331.015 246.33L334.529 234.304H335.691L332.177 246.33H331.015ZM337.562 245V238.056H338.626L338.71 239.064C338.934 238.691 339.232 238.401 339.606 238.196C339.979 237.991 340.399 237.888 340.866 237.888C341.416 237.888 341.888 238 342.28 238.224C342.681 238.448 342.989 238.789 343.204 239.246C343.446 238.826 343.778 238.495 344.198 238.252C344.627 238.009 345.089 237.888 345.584 237.888C346.414 237.888 347.077 238.14 347.572 238.644C348.066 239.139 348.314 239.904 348.314 240.94V245H347.152V241.066C347.152 240.347 347.007 239.806 346.718 239.442C346.428 239.078 346.013 238.896 345.472 238.896C344.912 238.896 344.445 239.115 344.072 239.554C343.708 239.983 343.526 240.599 343.526 241.402V245H342.35V241.066C342.35 240.347 342.205 239.806 341.916 239.442C341.626 239.078 341.211 238.896 340.67 238.896C340.119 238.896 339.657 239.115 339.284 239.554C338.92 239.983 338.738 240.599 338.738 241.402V245H337.562ZM353.957 245.168C353.294 245.168 352.706 245.019 352.193 244.72C351.68 244.412 351.274 243.987 350.975 243.446C350.686 242.905 350.541 242.265 350.541 241.528C350.541 240.8 350.686 240.165 350.975 239.624C351.264 239.073 351.666 238.649 352.179 238.35C352.702 238.042 353.304 237.888 353.985 237.888C354.657 237.888 355.236 238.042 355.721 238.35C356.216 238.649 356.594 239.045 356.855 239.54C357.116 240.035 357.247 240.567 357.247 241.136C357.247 241.239 357.242 241.341 357.233 241.444C357.233 241.547 357.233 241.663 357.233 241.794H351.703C351.731 242.326 351.852 242.769 352.067 243.124C352.291 243.469 352.566 243.731 352.893 243.908C353.229 244.085 353.584 244.174 353.957 244.174C354.442 244.174 354.848 244.062 355.175 243.838C355.502 243.614 355.74 243.311 355.889 242.928H357.051C356.864 243.572 356.505 244.109 355.973 244.538C355.45 244.958 354.778 245.168 353.957 245.168ZM353.957 238.882C353.397 238.882 352.898 239.055 352.459 239.4C352.03 239.736 351.782 240.231 351.717 240.884H356.085C356.057 240.259 355.842 239.769 355.441 239.414C355.04 239.059 354.545 238.882 353.957 238.882ZM352.025 237.286V236.362L353.943 235.228L355.861 236.362V237.286L353.943 236.11L352.025 237.286ZM362.216 245.168C361.385 245.168 360.695 244.958 360.144 244.538C359.593 244.118 359.271 243.549 359.178 242.83H360.382C360.457 243.194 360.648 243.511 360.956 243.782C361.273 244.043 361.698 244.174 362.23 244.174C362.725 244.174 363.089 244.071 363.322 243.866C363.555 243.651 363.672 243.399 363.672 243.11C363.672 242.69 363.518 242.41 363.21 242.27C362.911 242.13 362.487 242.004 361.936 241.892C361.563 241.817 361.189 241.71 360.816 241.57C360.443 241.43 360.13 241.234 359.878 240.982C359.626 240.721 359.5 240.38 359.5 239.96C359.5 239.353 359.724 238.859 360.172 238.476C360.629 238.084 361.245 237.888 362.02 237.888C362.757 237.888 363.359 238.075 363.826 238.448C364.302 238.812 364.577 239.335 364.652 240.016H363.49C363.443 239.661 363.289 239.386 363.028 239.19C362.776 238.985 362.435 238.882 362.006 238.882C361.586 238.882 361.259 238.971 361.026 239.148C360.802 239.325 360.69 239.559 360.69 239.848C360.69 240.128 360.835 240.347 361.124 240.506C361.423 240.665 361.824 240.8 362.328 240.912C362.757 241.005 363.163 241.122 363.546 241.262C363.938 241.393 364.255 241.593 364.498 241.864C364.75 242.125 364.876 242.508 364.876 243.012C364.885 243.637 364.647 244.155 364.162 244.566C363.686 244.967 363.037 245.168 362.216 245.168Z" fill="#616161"/>
<rect x="53.5" y="272.5" width="43" height="31" rx="15.5" fill="#F8F8F8"/>
<path d="M72.9163 279.667H80.4163L75.833 285.5H82.083L72.083 296.334L74.1663 288.417H68.333L72.9163 279.667Z" stroke="#FF4B00" stroke-width="2" stroke-linejoin="round"/>
<rect x="53.5" y="272.5" width="43" height="31" rx="15.5" stroke="#FF4B00"/>
<rect x="109.5" y="272.5" width="43" height="31" rx="15.5" fill="#F8F8F8"/>
<path d="M135.584 283.834C135.584 281.532 133.532 279.667 131 279.667C128.469 279.667 126.417 281.532 126.417 283.834" stroke="#FF4B00" stroke-width="2" stroke-linecap="round" stroke-linejoin="round"/>
<path d="M123.917 284.666C123.917 284.206 124.29 283.833 124.75 283.833H137.25C137.711 283.833 138.084 284.206 138.084 284.666V289.666C138.084 290.127 137.711 290.5 137.25 290.5H133.5C133.04 290.5 132.667 290.127 132.667 289.666C132.667 289.206 132.294 288.833 131.834 288.833H130.167C129.707 288.833 129.334 289.206 129.334 289.666C129.334 290.127 128.961 290.5 128.5 290.5H124.75C124.29 290.5 123.917 290.127 123.917 289.666V284.666Z" stroke="#FF4B00" stroke-width="2" stroke-linecap="round" stroke-linejoin="round"/>
<path d="M125.167 290.5V296.333H136.834V290.5" stroke="#FF4B00" stroke-width="2" stroke-linecap="round" stroke-linejoin="round"/>
<path d="M132.666 288.833H129.333V291.333H132.666V288.833Z" stroke="#FF4B00" stroke-width="2" stroke-linecap="round" stroke-linejoin="round"/>
<rect x="109.5" y="272.5" width="43" height="31" rx="15.5" stroke="#FF4B00"/>
<rect x="165.5" y="272.5" width="43" height="31" rx="15.5" fill="#F8F8F8"/>
<g clip-path="url(#clip1_2830_1402)">
<path d="M177.833 285.25L186.592 281.75L195.352 285.25L186.592 288.75L177.833 285.25Z" stroke="#FF4B00" stroke-width="2" stroke-linejoin="round"/>
<path d="M195.352 285.296V289.139" stroke="#FF4B00" stroke-width="2" stroke-linecap="round" stroke-linejoin="round"/>
<path d="M181.814 287.094V292.278C181.814 292.278 183.819 294.25 186.592 294.25C189.366 294.25 191.37 292.278 191.37 292.278V287.094" stroke="#FF4B00" stroke-width="2" stroke-linecap="round" stroke-linejoin="round"/>
</g>
<rect x="165.5" y="272.5" width="43" height="31" rx="15.5" stroke="#FF4B00"/>
</g>
</g>
<defs>
<filter id="filter0_d_2830_1402" x="0" y="97" width="518" height="280" filterUnits="userSpaceOnUse" color-interpolation-filters="sRGB">
<feFlood flood-opacity="0" result="BackgroundImageFix"/>
<feColorMatrix in="SourceAlpha" type="matrix" values="0 0 0 0 0 0 0 0 0 0 0 0 0 0 0 0 0 0 127 0" result="hardAlpha"/>
<feOffset dy="25"/>
<feGaussianBlur stdDeviation="14"/>
<feComposite in2="hardAlpha" operator="out"/>
<feColorMatrix type="matrix" values="0 0 0 0 0 0 0 0 0 0 0 0 0 0 0 0 0 0 0.1 0"/>
<feBlend mode="normal" in2="BackgroundImageFix" result="effect1_dropShadow_2830_1402"/>
<feBlend mode="normal" in="SourceGraphic" in2="effect1_dropShadow_2830_1402" result="shape"/>
</filter>
<linearGradient id="paint0_linear_2830_1402" x1="57" y1="0" x2="520.578" y2="234.101" gradientUnits="userSpaceOnUse">
<stop stop-color="#FF4B00"/>
<stop offset="1" stop-color="#EE2F23"/>
</linearGradient>
<linearGradient id="paint1_linear_2830_1402" x1="422.727" y1="21.1908" x2="493.798" y2="90.2688" gradientUnits="userSpaceOnUse">
<stop stop-color="#333333"/>
<stop offset="1" stop-color="#0F0F0F"/>
</linearGradient>
<linearGradient id="paint2_linear_2830_1402" x1="48" y1="124" x2="96.2194" y2="145.915" gradientUnits="userSpaceOnUse">
<stop stop-color="#FF4B00"/>
<stop offset="1" stop-color="#EE2F23"/>
</linearGradient>
<clipPath id="clip0_2830_1402">
<rect x="28" y="100" width="462" height="224" rx="24" fill="white"/>
</clipPath>
<clipPath id="clip1_2830_1402">
<rect width="20" height="20" fill="white" transform="translate(177 278)"/>
</clipPath>
</defs>
</svg>
