<svg width="616" height="326" viewBox="0 0 616 326" fill="none" xmlns="http://www.w3.org/2000/svg">
<rect x="95.5" y="0.5" width="399" height="299" rx="23.5" stroke="url(#paint0_linear_3892_4927)"/>
<g opacity="0.2">
<rect x="130" y="196" width="165" height="12" rx="6" fill="#333333"/>
<rect x="130" y="216" width="121.484" height="12" rx="6" fill="#333333"/>
</g>
<rect x="196" y="262" width="223" height="64" rx="32" fill="url(#paint1_linear_3892_4927)"/>
<path d="M226.08 299V287.8H230.192C231.088 287.8 231.824 287.955 232.4 288.264C232.987 288.563 233.424 288.973 233.712 289.496C234 290.008 234.144 290.579 234.144 291.208C234.144 291.891 233.963 292.515 233.6 293.08C233.248 293.645 232.694 294.056 231.936 294.312L234.256 299H231.904L229.824 294.584H228.128V299H226.08ZM228.128 293.08H230.064C230.747 293.08 231.248 292.915 231.568 292.584C231.888 292.253 232.048 291.816 232.048 291.272C232.048 290.739 231.888 290.312 231.568 289.992C231.259 289.672 230.752 289.512 230.048 289.512H228.128V293.08ZM240.123 299.192C239.323 299.192 238.613 299.021 237.995 298.68C237.376 298.339 236.891 297.859 236.539 297.24C236.187 296.621 236.011 295.907 236.011 295.096C236.011 294.275 236.181 293.544 236.523 292.904C236.875 292.264 237.355 291.768 237.963 291.416C238.581 291.053 239.307 290.872 240.139 290.872C240.917 290.872 241.605 291.043 242.203 291.384C242.8 291.725 243.264 292.195 243.595 292.792C243.936 293.379 244.107 294.035 244.107 294.76C244.107 294.877 244.101 295 244.091 295.128C244.091 295.256 244.085 295.389 244.075 295.528H238.043C238.085 296.147 238.299 296.632 238.683 296.984C239.077 297.336 239.552 297.512 240.107 297.512C240.523 297.512 240.869 297.421 241.147 297.24C241.435 297.048 241.648 296.803 241.787 296.504H243.867C243.717 297.005 243.467 297.464 243.115 297.88C242.773 298.285 242.347 298.605 241.835 298.84C241.333 299.075 240.763 299.192 240.123 299.192ZM240.139 292.536C239.637 292.536 239.195 292.68 238.811 292.968C238.427 293.245 238.181 293.672 238.075 294.248H242.027C241.995 293.725 241.803 293.309 241.451 293C241.099 292.691 240.661 292.536 240.139 292.536ZM249.315 299.192C248.632 299.192 248.072 299.085 247.635 298.872C247.198 298.648 246.872 298.355 246.659 297.992C246.446 297.629 246.339 297.229 246.339 296.792C246.339 296.056 246.627 295.459 247.203 295C247.779 294.541 248.643 294.312 249.795 294.312H251.811V294.12C251.811 293.576 251.656 293.176 251.347 292.92C251.038 292.664 250.654 292.536 250.195 292.536C249.779 292.536 249.416 292.637 249.107 292.84C248.798 293.032 248.606 293.32 248.531 293.704H246.531C246.584 293.128 246.776 292.627 247.107 292.2C247.448 291.773 247.886 291.448 248.419 291.224C248.952 290.989 249.55 290.872 250.211 290.872C251.342 290.872 252.232 291.155 252.883 291.72C253.534 292.285 253.859 293.085 253.859 294.12V299H252.115L251.923 297.72C251.688 298.147 251.358 298.499 250.931 298.776C250.515 299.053 249.976 299.192 249.315 299.192ZM249.779 297.592C250.366 297.592 250.819 297.4 251.139 297.016C251.47 296.632 251.678 296.157 251.763 295.592H250.019C249.475 295.592 249.086 295.693 248.851 295.896C248.616 296.088 248.499 296.328 248.499 296.616C248.499 296.925 248.616 297.165 248.851 297.336C249.086 297.507 249.395 297.592 249.779 297.592ZM256.563 299V287.48H258.611V299H256.563ZM262.558 289.832C262.185 289.832 261.875 289.72 261.63 289.496C261.395 289.272 261.278 288.989 261.278 288.648C261.278 288.307 261.395 288.029 261.63 287.816C261.875 287.592 262.185 287.48 262.558 287.48C262.931 287.48 263.235 287.592 263.47 287.816C263.715 288.029 263.838 288.307 263.838 288.648C263.838 288.989 263.715 289.272 263.47 289.496C263.235 289.72 262.931 289.832 262.558 289.832ZM261.534 299V291.064H263.582V299H261.534ZM265.958 299V297.352L270.006 292.76H266.006V291.064H272.342V292.712L268.23 297.304H272.422V299H265.958ZM277.612 299.192C276.929 299.192 276.369 299.085 275.932 298.872C275.495 298.648 275.169 298.355 274.956 297.992C274.743 297.629 274.636 297.229 274.636 296.792C274.636 296.056 274.924 295.459 275.5 295C276.076 294.541 276.94 294.312 278.092 294.312H280.108V294.12C280.108 293.576 279.953 293.176 279.644 292.92C279.335 292.664 278.951 292.536 278.492 292.536C278.076 292.536 277.713 292.637 277.404 292.84C277.095 293.032 276.903 293.32 276.828 293.704H274.828C274.881 293.128 275.073 292.627 275.404 292.2C275.745 291.773 276.183 291.448 276.716 291.224C277.249 290.989 277.847 290.872 278.508 290.872C279.639 290.872 280.529 291.155 281.18 291.72C281.831 292.285 282.156 293.085 282.156 294.12V299H280.412L280.22 297.72C279.985 298.147 279.655 298.499 279.228 298.776C278.812 299.053 278.273 299.192 277.612 299.192ZM278.076 297.592C278.663 297.592 279.116 297.4 279.436 297.016C279.767 296.632 279.975 296.157 280.06 295.592H278.316C277.772 295.592 277.383 295.693 277.148 295.896C276.913 296.088 276.796 296.328 276.796 296.616C276.796 296.925 276.913 297.165 277.148 297.336C277.383 297.507 277.692 297.592 278.076 297.592ZM284.86 299V291.064H286.684L286.876 292.552C287.164 292.04 287.554 291.635 288.044 291.336C288.546 291.027 289.132 290.872 289.804 290.872V293.032H289.228C288.78 293.032 288.38 293.101 288.028 293.24C287.676 293.379 287.399 293.619 287.196 293.96C287.004 294.301 286.908 294.776 286.908 295.384V299H284.86ZM296.517 302.52V291.064H298.341L298.565 292.2C298.821 291.848 299.157 291.539 299.573 291.272C299.999 291.005 300.549 290.872 301.221 290.872C301.967 290.872 302.634 291.053 303.221 291.416C303.807 291.779 304.271 292.275 304.613 292.904C304.954 293.533 305.125 294.248 305.125 295.048C305.125 295.848 304.954 296.563 304.613 297.192C304.271 297.811 303.807 298.301 303.221 298.664C302.634 299.016 301.967 299.192 301.221 299.192C300.623 299.192 300.101 299.08 299.653 298.856C299.205 298.632 298.842 298.317 298.565 297.912V302.52H296.517ZM300.789 297.4C301.439 297.4 301.978 297.181 302.405 296.744C302.831 296.307 303.045 295.741 303.045 295.048C303.045 294.355 302.831 293.784 302.405 293.336C301.978 292.888 301.439 292.664 300.789 292.664C300.127 292.664 299.583 292.888 299.157 293.336C298.741 293.773 298.533 294.339 298.533 295.032C298.533 295.725 298.741 296.296 299.157 296.744C299.583 297.181 300.127 297.4 300.789 297.4ZM310.44 299.192C309.757 299.192 309.197 299.085 308.76 298.872C308.323 298.648 307.997 298.355 307.784 297.992C307.571 297.629 307.464 297.229 307.464 296.792C307.464 296.056 307.752 295.459 308.328 295C308.904 294.541 309.768 294.312 310.92 294.312H312.936V294.12C312.936 293.576 312.781 293.176 312.472 292.92C312.163 292.664 311.779 292.536 311.32 292.536C310.904 292.536 310.541 292.637 310.232 292.84C309.923 293.032 309.731 293.32 309.656 293.704H307.656C307.709 293.128 307.901 292.627 308.232 292.2C308.573 291.773 309.011 291.448 309.544 291.224C310.077 290.989 310.675 290.872 311.336 290.872C312.467 290.872 313.357 291.155 314.008 291.72C314.659 292.285 314.984 293.085 314.984 294.12V299H313.24L313.048 297.72C312.813 298.147 312.483 298.499 312.056 298.776C311.64 299.053 311.101 299.192 310.44 299.192ZM310.904 297.592C311.491 297.592 311.944 297.4 312.264 297.016C312.595 296.632 312.803 296.157 312.888 295.592H311.144C310.6 295.592 310.211 295.693 309.976 295.896C309.741 296.088 309.624 296.328 309.624 296.616C309.624 296.925 309.741 297.165 309.976 297.336C310.211 297.507 310.52 297.592 310.904 297.592ZM321.048 296.632C320.664 296.632 320.307 296.589 319.976 296.504L319.384 297.096C319.566 297.192 319.811 297.272 320.12 297.336C320.43 297.4 320.931 297.464 321.624 297.528C322.68 297.624 323.448 297.875 323.928 298.28C324.408 298.685 324.648 299.245 324.648 299.96C324.648 300.429 324.52 300.872 324.264 301.288C324.008 301.715 323.614 302.056 323.08 302.312C322.547 302.579 321.864 302.712 321.032 302.712C319.902 302.712 318.99 302.499 318.296 302.072C317.603 301.656 317.256 301.027 317.256 300.184C317.256 299.469 317.603 298.851 318.296 298.328C318.083 298.232 317.896 298.131 317.736 298.024C317.587 297.917 317.454 297.805 317.336 297.688V297.32L318.728 295.848C318.11 295.304 317.8 294.605 317.8 293.752C317.8 293.219 317.928 292.733 318.184 292.296C318.451 291.859 318.824 291.512 319.304 291.256C319.784 291 320.366 290.872 321.048 290.872C321.496 290.872 321.912 290.936 322.296 291.064H325.304V292.312L323.944 292.408C324.158 292.813 324.264 293.261 324.264 293.752C324.264 294.285 324.136 294.771 323.88 295.208C323.624 295.645 323.251 295.992 322.76 296.248C322.28 296.504 321.71 296.632 321.048 296.632ZM321.048 295.064C321.464 295.064 321.806 294.952 322.072 294.728C322.35 294.504 322.488 294.184 322.488 293.768C322.488 293.352 322.35 293.032 322.072 292.808C321.806 292.584 321.464 292.472 321.048 292.472C320.611 292.472 320.259 292.584 319.992 292.808C319.726 293.032 319.592 293.352 319.592 293.768C319.592 294.184 319.726 294.504 319.992 294.728C320.259 294.952 320.611 295.064 321.048 295.064ZM319.128 299.976C319.128 300.371 319.31 300.664 319.672 300.856C320.046 301.059 320.499 301.16 321.032 301.16C321.544 301.16 321.96 301.053 322.28 300.84C322.6 300.637 322.76 300.36 322.76 300.008C322.76 299.72 322.654 299.48 322.44 299.288C322.238 299.096 321.827 298.979 321.208 298.936C320.771 298.904 320.366 298.856 319.992 298.792C319.683 298.963 319.459 299.149 319.32 299.352C319.192 299.555 319.128 299.763 319.128 299.976ZM330.284 299.192C329.601 299.192 329.041 299.085 328.604 298.872C328.166 298.648 327.841 298.355 327.628 297.992C327.414 297.629 327.308 297.229 327.308 296.792C327.308 296.056 327.596 295.459 328.172 295C328.748 294.541 329.612 294.312 330.764 294.312H332.78V294.12C332.78 293.576 332.625 293.176 332.316 292.92C332.006 292.664 331.622 292.536 331.164 292.536C330.748 292.536 330.385 292.637 330.076 292.84C329.766 293.032 329.574 293.32 329.5 293.704H327.5C327.553 293.128 327.745 292.627 328.076 292.2C328.417 291.773 328.854 291.448 329.388 291.224C329.921 290.989 330.518 290.872 331.18 290.872C332.31 290.872 333.201 291.155 333.852 291.72C334.502 292.285 334.828 293.085 334.828 294.12V299H333.084L332.892 297.72C332.657 298.147 332.326 298.499 331.9 298.776C331.484 299.053 330.945 299.192 330.284 299.192ZM330.748 297.592C331.334 297.592 331.788 297.4 332.108 297.016C332.438 296.632 332.646 296.157 332.732 295.592H330.988C330.444 295.592 330.054 295.693 329.82 295.896C329.585 296.088 329.468 296.328 329.468 296.616C329.468 296.925 329.585 297.165 329.82 297.336C330.054 297.507 330.364 297.592 330.748 297.592ZM337.532 299V291.064H339.34L339.516 292.136C339.772 291.752 340.108 291.448 340.524 291.224C340.951 290.989 341.442 290.872 341.996 290.872C343.223 290.872 344.092 291.347 344.604 292.296C344.892 291.859 345.276 291.512 345.756 291.256C346.247 291 346.78 290.872 347.356 290.872C348.391 290.872 349.186 291.181 349.74 291.8C350.295 292.419 350.572 293.325 350.572 294.52V299H348.524V294.712C348.524 294.029 348.391 293.507 348.124 293.144C347.868 292.781 347.468 292.6 346.924 292.6C346.37 292.6 345.922 292.803 345.58 293.208C345.25 293.613 345.084 294.179 345.084 294.904V299H343.036V294.712C343.036 294.029 342.903 293.507 342.636 293.144C342.37 292.781 341.959 292.6 341.404 292.6C340.86 292.6 340.418 292.803 340.076 293.208C339.746 293.613 339.58 294.179 339.58 294.904V299H337.532ZM357.123 299.192C356.323 299.192 355.613 299.021 354.995 298.68C354.376 298.339 353.891 297.859 353.539 297.24C353.187 296.621 353.011 295.907 353.011 295.096C353.011 294.275 353.181 293.544 353.523 292.904C353.875 292.264 354.355 291.768 354.963 291.416C355.581 291.053 356.307 290.872 357.139 290.872C357.917 290.872 358.605 291.043 359.203 291.384C359.8 291.725 360.264 292.195 360.595 292.792C360.936 293.379 361.107 294.035 361.107 294.76C361.107 294.877 361.101 295 361.091 295.128C361.091 295.256 361.085 295.389 361.075 295.528H355.043C355.085 296.147 355.299 296.632 355.683 296.984C356.077 297.336 356.552 297.512 357.107 297.512C357.523 297.512 357.869 297.421 358.147 297.24C358.435 297.048 358.648 296.803 358.787 296.504H360.867C360.717 297.005 360.467 297.464 360.115 297.88C359.773 298.285 359.347 298.605 358.835 298.84C358.333 299.075 357.763 299.192 357.123 299.192ZM357.139 292.536C356.637 292.536 356.195 292.68 355.811 292.968C355.427 293.245 355.181 293.672 355.075 294.248H359.027C358.995 293.725 358.803 293.309 358.451 293C358.099 292.691 357.661 292.536 357.139 292.536ZM363.579 299V291.064H365.387L365.547 292.408C365.792 291.939 366.144 291.565 366.603 291.288C367.072 291.011 367.622 290.872 368.251 290.872C369.232 290.872 369.995 291.181 370.539 291.8C371.083 292.419 371.355 293.325 371.355 294.52V299H369.307V294.712C369.307 294.029 369.168 293.507 368.891 293.144C368.614 292.781 368.182 292.6 367.595 292.6C367.019 292.6 366.544 292.803 366.171 293.208C365.808 293.613 365.627 294.179 365.627 294.904V299H363.579ZM377.599 299C376.767 299 376.101 298.797 375.599 298.392C375.098 297.987 374.847 297.267 374.847 296.232V292.776H373.487V291.064H374.847L375.087 288.936H376.895V291.064H379.039V292.776H376.895V296.248C376.895 296.632 376.975 296.899 377.135 297.048C377.306 297.187 377.594 297.256 377.999 297.256H378.991V299H377.599ZM385.153 299.192C384.385 299.192 383.691 299.016 383.073 298.664C382.465 298.312 381.979 297.827 381.617 297.208C381.265 296.579 381.089 295.853 381.089 295.032C381.089 294.211 381.27 293.491 381.633 292.872C381.995 292.243 382.481 291.752 383.089 291.4C383.707 291.048 384.401 290.872 385.169 290.872C385.926 290.872 386.609 291.048 387.217 291.4C387.835 291.752 388.321 292.243 388.673 292.872C389.035 293.491 389.217 294.211 389.217 295.032C389.217 295.853 389.035 296.579 388.673 297.208C388.321 297.827 387.835 298.312 387.217 298.664C386.598 299.016 385.91 299.192 385.153 299.192ZM385.153 297.416C385.686 297.416 386.15 297.219 386.545 296.824C386.939 296.419 387.137 295.821 387.137 295.032C387.137 294.243 386.939 293.651 386.545 293.256C386.15 292.851 385.691 292.648 385.169 292.648C384.625 292.648 384.155 292.851 383.761 293.256C383.377 293.651 383.185 294.243 383.185 295.032C383.185 295.821 383.377 296.419 383.761 296.824C384.155 297.219 384.619 297.416 385.153 297.416Z" fill="#FCFCFC"/>
<g opacity="0.2">
<path d="M412.667 195.167C412.667 194.155 413.488 193.334 414.5 193.334H447.5C448.513 193.334 449.334 194.155 449.334 195.167V220.834C449.334 221.847 448.513 222.667 447.5 222.667H414.5C413.488 222.667 412.667 221.847 412.667 220.834V195.167Z" stroke="#333333" stroke-width="3.66667" stroke-linejoin="round"/>
<path d="M412.667 200.666H449.334" stroke="#333333" stroke-width="3.66667" stroke-linecap="round" stroke-linejoin="round"/>
<path d="M433.75 215.334H442" stroke="#333333" stroke-width="3.66667" stroke-linecap="round" stroke-linejoin="round"/>
<path d="M449.333 195.166V209.833" stroke="#333333" stroke-width="3.66667" stroke-linecap="round" stroke-linejoin="round"/>
<path d="M412.667 195.166V209.833" stroke="#333333" stroke-width="3.66667" stroke-linecap="round" stroke-linejoin="round"/>
</g>
<rect x="37" y="32" width="129" height="121" rx="11.5041" fill="#F8F8F8"/>
<g filter="url(#filter0_d_3892_4927)">
<path d="M58.2294 123V113.2H59.4054V123H58.2294ZM62.1633 123V116.056H63.2273L63.2973 117.302C63.5213 116.863 63.8433 116.518 64.2633 116.266C64.6833 116.014 65.1593 115.888 65.6913 115.888C66.5126 115.888 67.1659 116.14 67.6513 116.644C68.1459 117.139 68.3933 117.904 68.3933 118.94V123H67.2173V119.066C67.2173 117.619 66.6199 116.896 65.4253 116.896C64.8279 116.896 64.3286 117.115 63.9273 117.554C63.5353 117.983 63.3393 118.599 63.3393 119.402V123H62.1633ZM71.303 123V117.05H70.253V116.056H71.303V114.852C71.303 114.18 71.471 113.69 71.807 113.382C72.143 113.074 72.633 112.92 73.277 112.92H73.977V113.928H73.459C73.1043 113.928 72.8523 114.003 72.703 114.152C72.5537 114.292 72.479 114.535 72.479 114.88V116.056H74.187V117.05H72.479V123H71.303ZM79.2277 123.168C78.5743 123.168 77.9863 123.019 77.4637 122.72C76.941 122.421 76.5257 122.001 76.2177 121.46C75.919 120.909 75.7697 120.265 75.7697 119.528C75.7697 118.791 75.9237 118.151 76.2317 117.61C76.5397 117.059 76.955 116.635 77.4777 116.336C78.0097 116.037 78.6023 115.888 79.2557 115.888C79.909 115.888 80.497 116.037 81.0197 116.336C81.5423 116.635 81.953 117.059 82.2517 117.61C82.5597 118.151 82.7137 118.791 82.7137 119.528C82.7137 120.265 82.5597 120.909 82.2517 121.46C81.9437 122.001 81.5237 122.421 80.9917 122.72C80.469 123.019 79.881 123.168 79.2277 123.168ZM79.2277 122.16C79.629 122.16 80.0023 122.062 80.3477 121.866C80.693 121.67 80.973 121.376 81.1877 120.984C81.4023 120.592 81.5097 120.107 81.5097 119.528C81.5097 118.949 81.4023 118.464 81.1877 118.072C80.9823 117.68 80.707 117.386 80.3617 117.19C80.0163 116.994 79.6477 116.896 79.2557 116.896C78.8543 116.896 78.481 116.994 78.1357 117.19C77.7903 117.386 77.5103 117.68 77.2957 118.072C77.081 118.464 76.9737 118.949 76.9737 119.528C76.9737 120.107 77.081 120.592 77.2957 120.984C77.5103 121.376 77.7857 121.67 78.1217 121.866C78.467 122.062 78.8357 122.16 79.2277 122.16ZM85.0988 123V116.056H86.1628L86.2608 117.386C86.4755 116.929 86.8021 116.565 87.2408 116.294C87.6795 116.023 88.2208 115.888 88.8648 115.888V117.12H88.5428C88.1321 117.12 87.7541 117.195 87.4088 117.344C87.0635 117.484 86.7881 117.727 86.5828 118.072C86.3775 118.417 86.2748 118.893 86.2748 119.5V123H85.0988ZM90.9348 123V116.056H91.9988L92.0828 117.064C92.3068 116.691 92.6054 116.401 92.9788 116.196C93.3521 115.991 93.7721 115.888 94.2388 115.888C94.7894 115.888 95.2608 116 95.6528 116.224C96.0541 116.448 96.3621 116.789 96.5768 117.246C96.8194 116.826 97.1508 116.495 97.5708 116.252C98.0001 116.009 98.4621 115.888 98.9568 115.888C99.7874 115.888 100.45 116.14 100.945 116.644C101.439 117.139 101.687 117.904 101.687 118.94V123H100.525V119.066C100.525 118.347 100.38 117.806 100.091 117.442C99.8014 117.078 99.3861 116.896 98.8448 116.896C98.2848 116.896 97.8181 117.115 97.4448 117.554C97.0808 117.983 96.8988 118.599 96.8988 119.402V123H95.7228V119.066C95.7228 118.347 95.5781 117.806 95.2888 117.442C94.9994 117.078 94.5841 116.896 94.0428 116.896C93.4921 116.896 93.0301 117.115 92.6568 117.554C92.2928 117.983 92.1108 118.599 92.1108 119.402V123H90.9348ZM106.518 123.168C105.94 123.168 105.459 123.07 105.076 122.874C104.694 122.678 104.409 122.417 104.222 122.09C104.036 121.763 103.942 121.409 103.942 121.026C103.942 120.317 104.213 119.771 104.754 119.388C105.296 119.005 106.033 118.814 106.966 118.814H108.842V118.73C108.842 118.123 108.684 117.666 108.366 117.358C108.049 117.041 107.624 116.882 107.092 116.882C106.635 116.882 106.238 116.999 105.902 117.232C105.576 117.456 105.37 117.787 105.286 118.226H104.082C104.129 117.722 104.297 117.297 104.586 116.952C104.885 116.607 105.254 116.345 105.692 116.168C106.131 115.981 106.598 115.888 107.092 115.888C108.063 115.888 108.791 116.149 109.276 116.672C109.771 117.185 110.018 117.871 110.018 118.73V123H108.968L108.898 121.754C108.702 122.146 108.413 122.482 108.03 122.762C107.657 123.033 107.153 123.168 106.518 123.168ZM106.7 122.174C107.148 122.174 107.531 122.057 107.848 121.824C108.175 121.591 108.422 121.287 108.59 120.914C108.758 120.541 108.842 120.149 108.842 119.738V119.724H107.064C106.374 119.724 105.884 119.845 105.594 120.088C105.314 120.321 105.174 120.615 105.174 120.97C105.174 121.334 105.305 121.628 105.566 121.852C105.837 122.067 106.215 122.174 106.7 122.174ZM115.724 123.168C115.062 123.168 114.464 123.019 113.932 122.72C113.41 122.412 112.994 121.987 112.686 121.446C112.388 120.895 112.238 120.256 112.238 119.528C112.238 118.8 112.388 118.165 112.686 117.624C112.994 117.073 113.41 116.649 113.932 116.35C114.464 116.042 115.062 115.888 115.724 115.888C116.546 115.888 117.236 116.103 117.796 116.532C118.366 116.961 118.725 117.535 118.874 118.254H117.67C117.577 117.825 117.348 117.493 116.984 117.26C116.62 117.017 116.196 116.896 115.71 116.896C115.318 116.896 114.95 116.994 114.604 117.19C114.259 117.386 113.979 117.68 113.764 118.072C113.55 118.464 113.442 118.949 113.442 119.528C113.442 120.107 113.55 120.592 113.764 120.984C113.979 121.376 114.259 121.675 114.604 121.88C114.95 122.076 115.318 122.174 115.71 122.174C116.196 122.174 116.62 122.057 116.984 121.824C117.348 121.581 117.577 121.241 117.67 120.802H118.874C118.734 121.502 118.38 122.071 117.81 122.51C117.241 122.949 116.546 123.168 115.724 123.168ZM114.716 126.64V125.898H116.004C116.639 125.898 116.956 125.674 116.956 125.226C116.956 124.806 116.639 124.596 116.004 124.596H115.318V122.916H116.102V123.896C116.634 123.887 117.068 123.994 117.404 124.218C117.74 124.442 117.908 124.783 117.908 125.24C117.908 125.679 117.75 126.019 117.432 126.262C117.115 126.514 116.714 126.64 116.228 126.64H114.716ZM124.431 123.168C123.777 123.168 123.189 123.019 122.667 122.72C122.144 122.421 121.729 122.001 121.421 121.46C121.122 120.909 120.973 120.265 120.973 119.528C120.973 118.791 121.127 118.151 121.435 117.61C121.743 117.059 122.158 116.635 122.681 116.336C123.213 116.037 123.805 115.888 124.459 115.888C125.112 115.888 125.7 116.037 126.223 116.336C126.745 116.635 127.156 117.059 127.455 117.61C127.763 118.151 127.917 118.791 127.917 119.528C127.917 120.265 127.763 120.909 127.455 121.46C127.147 122.001 126.727 122.421 126.195 122.72C125.672 123.019 125.084 123.168 124.431 123.168ZM124.431 122.16C124.832 122.16 125.205 122.062 125.551 121.866C125.896 121.67 126.176 121.376 126.391 120.984C126.605 120.592 126.713 120.107 126.713 119.528C126.713 118.949 126.605 118.464 126.391 118.072C126.185 117.68 125.91 117.386 125.565 117.19C125.219 116.994 124.851 116.896 124.459 116.896C124.057 116.896 123.684 116.994 123.339 117.19C122.993 117.386 122.713 117.68 122.499 118.072C122.284 118.464 122.177 118.949 122.177 119.528C122.177 120.107 122.284 120.592 122.499 120.984C122.713 121.376 122.989 121.67 123.325 121.866C123.67 122.062 124.039 122.16 124.431 122.16ZM125.229 115.272C124.977 115.272 124.767 115.216 124.599 115.104C124.44 114.992 124.286 114.885 124.137 114.782C123.987 114.67 123.819 114.614 123.633 114.614C123.287 114.614 123.087 114.824 123.031 115.244H122.345C122.41 114.768 122.559 114.413 122.793 114.18C123.035 113.947 123.329 113.83 123.675 113.83C123.927 113.83 124.132 113.886 124.291 113.998C124.459 114.11 124.617 114.222 124.767 114.334C124.916 114.437 125.089 114.488 125.285 114.488C125.443 114.488 125.579 114.437 125.691 114.334C125.803 114.231 125.873 114.073 125.901 113.858H126.573C126.526 114.315 126.377 114.665 126.125 114.908C125.882 115.151 125.583 115.272 125.229 115.272ZM133.424 123.168C132.761 123.168 132.173 123.019 131.66 122.72C131.147 122.412 130.741 121.987 130.442 121.446C130.153 120.905 130.008 120.265 130.008 119.528C130.008 118.8 130.153 118.165 130.442 117.624C130.731 117.073 131.133 116.649 131.646 116.35C132.169 116.042 132.771 115.888 133.452 115.888C134.124 115.888 134.703 116.042 135.188 116.35C135.683 116.649 136.061 117.045 136.322 117.54C136.583 118.035 136.714 118.567 136.714 119.136C136.714 119.239 136.709 119.341 136.7 119.444C136.7 119.547 136.7 119.663 136.7 119.794H131.17C131.198 120.326 131.319 120.769 131.534 121.124C131.758 121.469 132.033 121.731 132.36 121.908C132.696 122.085 133.051 122.174 133.424 122.174C133.909 122.174 134.315 122.062 134.642 121.838C134.969 121.614 135.207 121.311 135.356 120.928H136.518C136.331 121.572 135.972 122.109 135.44 122.538C134.917 122.958 134.245 123.168 133.424 123.168ZM133.424 116.882C132.864 116.882 132.365 117.055 131.926 117.4C131.497 117.736 131.249 118.231 131.184 118.884H135.552C135.524 118.259 135.309 117.769 134.908 117.414C134.507 117.059 134.012 116.882 133.424 116.882ZM141.683 123.168C140.852 123.168 140.161 122.958 139.611 122.538C139.06 122.118 138.738 121.549 138.645 120.83H139.849C139.923 121.194 140.115 121.511 140.423 121.782C140.74 122.043 141.165 122.174 141.697 122.174C142.191 122.174 142.555 122.071 142.789 121.866C143.022 121.651 143.139 121.399 143.139 121.11C143.139 120.69 142.985 120.41 142.677 120.27C142.378 120.13 141.953 120.004 141.403 119.892C141.029 119.817 140.656 119.71 140.283 119.57C139.909 119.43 139.597 119.234 139.345 118.982C139.093 118.721 138.967 118.38 138.967 117.96C138.967 117.353 139.191 116.859 139.639 116.476C140.096 116.084 140.712 115.888 141.487 115.888C142.224 115.888 142.826 116.075 143.293 116.448C143.769 116.812 144.044 117.335 144.119 118.016H142.957C142.91 117.661 142.756 117.386 142.495 117.19C142.243 116.985 141.902 116.882 141.473 116.882C141.053 116.882 140.726 116.971 140.493 117.148C140.269 117.325 140.157 117.559 140.157 117.848C140.157 118.128 140.301 118.347 140.591 118.506C140.889 118.665 141.291 118.8 141.795 118.912C142.224 119.005 142.63 119.122 143.013 119.262C143.405 119.393 143.722 119.593 143.965 119.864C144.217 120.125 144.343 120.508 144.343 121.012C144.352 121.637 144.114 122.155 143.629 122.566C143.153 122.967 142.504 123.168 141.683 123.168ZM78.4217 141.168C77.731 141.168 77.1243 141.009 76.6017 140.692C76.0883 140.375 75.687 139.941 75.3977 139.39C75.1177 138.839 74.9777 138.214 74.9777 137.514C74.9777 136.814 75.1223 136.193 75.4117 135.652C75.701 135.101 76.1023 134.672 76.6157 134.364C77.129 134.047 77.7357 133.888 78.4357 133.888C79.005 133.888 79.509 134.005 79.9477 134.238C80.3863 134.471 80.727 134.798 80.9697 135.218V130.92H82.1457V141H81.0817L80.9697 139.852C80.7457 140.188 80.4237 140.491 80.0037 140.762C79.5837 141.033 79.0563 141.168 78.4217 141.168ZM78.5477 140.146C79.0143 140.146 79.425 140.039 79.7797 139.824C80.1437 139.6 80.4237 139.292 80.6197 138.9C80.825 138.508 80.9277 138.051 80.9277 137.528C80.9277 137.005 80.825 136.548 80.6197 136.156C80.4237 135.764 80.1437 135.461 79.7797 135.246C79.425 135.022 79.0143 134.91 78.5477 134.91C78.0903 134.91 77.6797 135.022 77.3157 135.246C76.961 135.461 76.681 135.764 76.4757 136.156C76.2797 136.548 76.1817 137.005 76.1817 137.528C76.1817 138.051 76.2797 138.508 76.4757 138.9C76.681 139.292 76.961 139.6 77.3157 139.824C77.6797 140.039 78.0903 140.146 78.5477 140.146ZM87.1227 141.168C86.544 141.168 86.0633 141.07 85.6807 140.874C85.298 140.678 85.0133 140.417 84.8267 140.09C84.64 139.763 84.5467 139.409 84.5467 139.026C84.5467 138.317 84.8173 137.771 85.3587 137.388C85.9 137.005 86.6373 136.814 87.5707 136.814H89.4467V136.73C89.4467 136.123 89.288 135.666 88.9707 135.358C88.6533 135.041 88.2287 134.882 87.6967 134.882C87.2393 134.882 86.8427 134.999 86.5067 135.232C86.18 135.456 85.9747 135.787 85.8907 136.226H84.6867C84.7333 135.722 84.9013 135.297 85.1907 134.952C85.4893 134.607 85.858 134.345 86.2967 134.168C86.7353 133.981 87.202 133.888 87.6967 133.888C88.6673 133.888 89.3953 134.149 89.8807 134.672C90.3753 135.185 90.6227 135.871 90.6227 136.73V141H89.5727L89.5027 139.754C89.3067 140.146 89.0173 140.482 88.6347 140.762C88.2613 141.033 87.7573 141.168 87.1227 141.168ZM87.3047 140.174C87.7527 140.174 88.1353 140.057 88.4527 139.824C88.7793 139.591 89.0267 139.287 89.1947 138.914C89.3627 138.541 89.4467 138.149 89.4467 137.738V137.724H87.6687C86.978 137.724 86.488 137.845 86.1987 138.088C85.9187 138.321 85.7787 138.615 85.7787 138.97C85.7787 139.334 85.9093 139.628 86.1707 139.852C86.4413 140.067 86.8193 140.174 87.3047 140.174ZM99.594 141L96.962 134.056H98.194L100.28 139.866L102.38 134.056H103.584L100.952 141H99.594ZM107.597 141.168C107.019 141.168 106.538 141.07 106.155 140.874C105.773 140.678 105.488 140.417 105.301 140.09C105.115 139.763 105.021 139.409 105.021 139.026C105.021 138.317 105.292 137.771 105.833 137.388C106.375 137.005 107.112 136.814 108.045 136.814H109.921V136.73C109.921 136.123 109.763 135.666 109.445 135.358C109.128 135.041 108.703 134.882 108.171 134.882C107.714 134.882 107.317 134.999 106.981 135.232C106.655 135.456 106.449 135.787 106.365 136.226H105.161C105.208 135.722 105.376 135.297 105.665 134.952C105.964 134.607 106.333 134.345 106.771 134.168C107.21 133.981 107.677 133.888 108.171 133.888C109.142 133.888 109.87 134.149 110.355 134.672C110.85 135.185 111.097 135.871 111.097 136.73V141H110.047L109.977 139.754C109.781 140.146 109.492 140.482 109.109 140.762C108.736 141.033 108.232 141.168 107.597 141.168ZM107.779 140.174C108.227 140.174 108.61 140.057 108.927 139.824C109.254 139.591 109.501 139.287 109.669 138.914C109.837 138.541 109.921 138.149 109.921 137.738V137.724H108.143C107.453 137.724 106.963 137.845 106.673 138.088C106.393 138.321 106.253 138.615 106.253 138.97C106.253 139.334 106.384 139.628 106.645 139.852C106.916 140.067 107.294 140.174 107.779 140.174ZM116.356 138.816C115.964 138.816 115.604 138.765 115.278 138.662L114.578 139.32C114.68 139.395 114.806 139.46 114.956 139.516C115.114 139.563 115.338 139.609 115.628 139.656C115.917 139.693 116.323 139.735 116.846 139.782C117.779 139.847 118.446 140.062 118.848 140.426C119.249 140.79 119.45 141.266 119.45 141.854C119.45 142.255 119.338 142.638 119.114 143.002C118.899 143.366 118.563 143.665 118.106 143.898C117.658 144.131 117.079 144.248 116.37 144.248C115.744 144.248 115.189 144.164 114.704 143.996C114.218 143.837 113.84 143.59 113.57 143.254C113.299 142.927 113.164 142.512 113.164 142.008C113.164 141.747 113.234 141.462 113.374 141.154C113.514 140.855 113.775 140.571 114.158 140.3C113.952 140.216 113.775 140.127 113.626 140.034C113.486 139.931 113.355 139.819 113.234 139.698V139.376L114.424 138.2C113.873 137.733 113.598 137.117 113.598 136.352C113.598 135.895 113.705 135.479 113.92 135.106C114.134 134.733 114.447 134.439 114.858 134.224C115.268 134 115.768 133.888 116.356 133.888C116.757 133.888 117.121 133.944 117.448 134.056H120.01V134.938L118.708 134.994C118.978 135.386 119.114 135.839 119.114 136.352C119.114 136.809 119.002 137.225 118.778 137.598C118.563 137.971 118.25 138.27 117.84 138.494C117.438 138.709 116.944 138.816 116.356 138.816ZM116.356 137.85C116.85 137.85 117.242 137.724 117.532 137.472C117.83 137.211 117.98 136.837 117.98 136.352C117.98 135.876 117.83 135.512 117.532 135.26C117.242 134.999 116.85 134.868 116.356 134.868C115.852 134.868 115.45 134.999 115.152 135.26C114.862 135.512 114.718 135.876 114.718 136.352C114.718 136.837 114.862 137.211 115.152 137.472C115.45 137.724 115.852 137.85 116.356 137.85ZM114.312 141.896C114.312 142.363 114.508 142.708 114.9 142.932C115.292 143.165 115.782 143.282 116.37 143.282C116.948 143.282 117.41 143.156 117.756 142.904C118.11 142.652 118.288 142.316 118.288 141.896C118.288 141.597 118.166 141.336 117.924 141.112C117.681 140.897 117.233 140.771 116.58 140.734C116.066 140.697 115.623 140.65 115.25 140.594C114.867 140.799 114.615 141.019 114.494 141.252C114.372 141.495 114.312 141.709 114.312 141.896ZM124.396 141.168C123.817 141.168 123.337 141.07 122.954 140.874C122.571 140.678 122.287 140.417 122.1 140.09C121.913 139.763 121.82 139.409 121.82 139.026C121.82 138.317 122.091 137.771 122.632 137.388C123.173 137.005 123.911 136.814 124.844 136.814H126.72V136.73C126.72 136.123 126.561 135.666 126.244 135.358C125.927 135.041 125.502 134.882 124.97 134.882C124.513 134.882 124.116 134.999 123.78 135.232C123.453 135.456 123.248 135.787 123.164 136.226H121.96C122.007 135.722 122.175 135.297 122.464 134.952C122.763 134.607 123.131 134.345 123.57 134.168C124.009 133.981 124.475 133.888 124.97 133.888C125.941 133.888 126.669 134.149 127.154 134.672C127.649 135.185 127.896 135.871 127.896 136.73V141H126.846L126.776 139.754C126.58 140.146 126.291 140.482 125.908 140.762C125.535 141.033 125.031 141.168 124.396 141.168ZM124.578 140.174C125.026 140.174 125.409 140.057 125.726 139.824C126.053 139.591 126.3 139.287 126.468 138.914C126.636 138.541 126.72 138.149 126.72 137.738V137.724H124.942C124.251 137.724 123.761 137.845 123.472 138.088C123.192 138.321 123.052 138.615 123.052 138.97C123.052 139.334 123.183 139.628 123.444 139.852C123.715 140.067 124.093 140.174 124.578 140.174Z" fill="#333333"/>
</g>
<g filter="url(#filter1_d_3892_4927)">
<rect x="233" y="32" width="129" height="121" rx="11.5041" fill="#F8F8F8"/>
</g>
<g filter="url(#filter2_d_3892_4927)">
<path d="M259.203 132V122.2H262.423C263.188 122.2 263.818 122.326 264.313 122.578C264.808 122.83 265.172 123.171 265.405 123.6C265.648 124.029 265.769 124.515 265.769 125.056C265.769 125.588 265.652 126.069 265.419 126.498C265.186 126.927 264.822 127.273 264.327 127.534C263.832 127.786 263.198 127.912 262.423 127.912H260.379V132H259.203ZM260.379 126.918H262.395C263.179 126.918 263.734 126.755 264.061 126.428C264.397 126.092 264.565 125.635 264.565 125.056C264.565 124.468 264.397 124.011 264.061 123.684C263.734 123.348 263.179 123.18 262.395 123.18H260.379V126.918ZM269.972 132.168C269.394 132.168 268.913 132.07 268.53 131.874C268.148 131.678 267.863 131.417 267.676 131.09C267.49 130.763 267.396 130.409 267.396 130.026C267.396 129.317 267.667 128.771 268.208 128.388C268.75 128.005 269.487 127.814 270.42 127.814H272.296V127.73C272.296 127.123 272.138 126.666 271.82 126.358C271.503 126.041 271.078 125.882 270.546 125.882C270.089 125.882 269.692 125.999 269.356 126.232C269.03 126.456 268.824 126.787 268.74 127.226H267.536C267.583 126.722 267.751 126.297 268.04 125.952C268.339 125.607 268.708 125.345 269.146 125.168C269.585 124.981 270.052 124.888 270.546 124.888C271.517 124.888 272.245 125.149 272.73 125.672C273.225 126.185 273.472 126.871 273.472 127.73V132H272.422L272.352 130.754C272.156 131.146 271.867 131.482 271.484 131.762C271.111 132.033 270.607 132.168 269.972 132.168ZM270.154 131.174C270.602 131.174 270.985 131.057 271.302 130.824C271.629 130.591 271.876 130.287 272.044 129.914C272.212 129.541 272.296 129.149 272.296 128.738V128.724H270.518C269.828 128.724 269.338 128.845 269.048 129.088C268.768 129.321 268.628 129.615 268.628 129.97C268.628 130.334 268.759 130.628 269.02 130.852C269.291 131.067 269.669 131.174 270.154 131.174ZM278.731 129.816C278.339 129.816 277.979 129.765 277.653 129.662L276.953 130.32C277.055 130.395 277.181 130.46 277.331 130.516C277.489 130.563 277.713 130.609 278.003 130.656C278.292 130.693 278.698 130.735 279.221 130.782C280.154 130.847 280.821 131.062 281.223 131.426C281.624 131.79 281.825 132.266 281.825 132.854C281.825 133.255 281.713 133.638 281.489 134.002C281.274 134.366 280.938 134.665 280.481 134.898C280.033 135.131 279.454 135.248 278.745 135.248C278.119 135.248 277.564 135.164 277.079 134.996C276.593 134.837 276.215 134.59 275.945 134.254C275.674 133.927 275.539 133.512 275.539 133.008C275.539 132.747 275.609 132.462 275.749 132.154C275.889 131.855 276.15 131.571 276.533 131.3C276.327 131.216 276.15 131.127 276.001 131.034C275.861 130.931 275.73 130.819 275.609 130.698V130.376L276.799 129.2C276.248 128.733 275.973 128.117 275.973 127.352C275.973 126.895 276.08 126.479 276.295 126.106C276.509 125.733 276.822 125.439 277.233 125.224C277.643 125 278.143 124.888 278.731 124.888C279.132 124.888 279.496 124.944 279.823 125.056H282.385V125.938L281.083 125.994C281.353 126.386 281.489 126.839 281.489 127.352C281.489 127.809 281.377 128.225 281.153 128.598C280.938 128.971 280.625 129.27 280.215 129.494C279.813 129.709 279.319 129.816 278.731 129.816ZM278.731 128.85C279.225 128.85 279.617 128.724 279.907 128.472C280.205 128.211 280.355 127.837 280.355 127.352C280.355 126.876 280.205 126.512 279.907 126.26C279.617 125.999 279.225 125.868 278.731 125.868C278.227 125.868 277.825 125.999 277.527 126.26C277.237 126.512 277.093 126.876 277.093 127.352C277.093 127.837 277.237 128.211 277.527 128.472C277.825 128.724 278.227 128.85 278.731 128.85ZM276.687 132.896C276.687 133.363 276.883 133.708 277.275 133.932C277.667 134.165 278.157 134.282 278.745 134.282C279.323 134.282 279.785 134.156 280.131 133.904C280.485 133.652 280.663 133.316 280.663 132.896C280.663 132.597 280.541 132.336 280.299 132.112C280.056 131.897 279.608 131.771 278.955 131.734C278.441 131.697 277.998 131.65 277.625 131.594C277.242 131.799 276.99 132.019 276.869 132.252C276.747 132.495 276.687 132.709 276.687 132.896ZM286.771 132.168C286.192 132.168 285.712 132.07 285.329 131.874C284.946 131.678 284.662 131.417 284.475 131.09C284.288 130.763 284.195 130.409 284.195 130.026C284.195 129.317 284.466 128.771 285.007 128.388C285.548 128.005 286.286 127.814 287.219 127.814H289.095V127.73C289.095 127.123 288.936 126.666 288.619 126.358C288.302 126.041 287.877 125.882 287.345 125.882C286.888 125.882 286.491 125.999 286.155 126.232C285.828 126.456 285.623 126.787 285.539 127.226H284.335C284.382 126.722 284.55 126.297 284.839 125.952C285.138 125.607 285.506 125.345 285.945 125.168C286.384 124.981 286.85 124.888 287.345 124.888C288.316 124.888 289.044 125.149 289.529 125.672C290.024 126.185 290.271 126.871 290.271 127.73V132H289.221L289.151 130.754C288.955 131.146 288.666 131.482 288.283 131.762C287.91 132.033 287.406 132.168 286.771 132.168ZM286.953 131.174C287.401 131.174 287.784 131.057 288.101 130.824C288.428 130.591 288.675 130.287 288.843 129.914C289.011 129.541 289.095 129.149 289.095 128.738V128.724H287.317C286.626 128.724 286.136 128.845 285.847 129.088C285.567 129.321 285.427 129.615 285.427 129.97C285.427 130.334 285.558 130.628 285.819 130.852C286.09 131.067 286.468 131.174 286.953 131.174ZM292.785 132V125.056H293.849L293.933 126.064C294.157 125.691 294.456 125.401 294.829 125.196C295.203 124.991 295.623 124.888 296.089 124.888C296.64 124.888 297.111 125 297.503 125.224C297.905 125.448 298.213 125.789 298.427 126.246C298.67 125.826 299.001 125.495 299.421 125.252C299.851 125.009 300.313 124.888 300.807 124.888C301.638 124.888 302.301 125.14 302.795 125.644C303.29 126.139 303.537 126.904 303.537 127.94V132H302.375V128.066C302.375 127.347 302.231 126.806 301.941 126.442C301.652 126.078 301.237 125.896 300.695 125.896C300.135 125.896 299.669 126.115 299.295 126.554C298.931 126.983 298.749 127.599 298.749 128.402V132H297.573V128.066C297.573 127.347 297.429 126.806 297.139 126.442C296.85 126.078 296.435 125.896 295.893 125.896C295.343 125.896 294.881 126.115 294.507 126.554C294.143 126.983 293.961 127.599 293.961 128.402V132H292.785ZM309.181 132.168C308.518 132.168 307.93 132.019 307.417 131.72C306.903 131.412 306.497 130.987 306.199 130.446C305.909 129.905 305.765 129.265 305.765 128.528C305.765 127.8 305.909 127.165 306.199 126.624C306.488 126.073 306.889 125.649 307.403 125.35C307.925 125.042 308.527 124.888 309.209 124.888C309.881 124.888 310.459 125.042 310.945 125.35C311.439 125.649 311.817 126.045 312.079 126.54C312.34 127.035 312.471 127.567 312.471 128.136C312.471 128.239 312.466 128.341 312.457 128.444C312.457 128.547 312.457 128.663 312.457 128.794H306.927C306.955 129.326 307.076 129.769 307.291 130.124C307.515 130.469 307.79 130.731 308.117 130.908C308.453 131.085 308.807 131.174 309.181 131.174C309.666 131.174 310.072 131.062 310.399 130.838C310.725 130.614 310.963 130.311 311.113 129.928H312.275C312.088 130.572 311.729 131.109 311.197 131.538C310.674 131.958 310.002 132.168 309.181 132.168ZM309.181 125.882C308.621 125.882 308.121 126.055 307.683 126.4C307.253 126.736 307.006 127.231 306.941 127.884H311.309C311.281 127.259 311.066 126.769 310.665 126.414C310.263 126.059 309.769 125.882 309.181 125.882ZM314.779 132V125.056H315.843L315.913 126.302C316.137 125.863 316.459 125.518 316.879 125.266C317.299 125.014 317.775 124.888 318.307 124.888C319.129 124.888 319.782 125.14 320.267 125.644C320.762 126.139 321.009 126.904 321.009 127.94V132H319.833V128.066C319.833 126.619 319.236 125.896 318.041 125.896C317.444 125.896 316.945 126.115 316.543 126.554C316.151 126.983 315.955 127.599 315.955 128.402V132H314.779ZM326.285 132C325.651 132 325.151 131.846 324.787 131.538C324.423 131.23 324.241 130.675 324.241 129.872V126.05H323.037V125.056H324.241L324.395 123.39H325.417V125.056H327.461V126.05H325.417V129.872C325.417 130.311 325.506 130.609 325.683 130.768C325.861 130.917 326.173 130.992 326.621 130.992H327.349V132H326.285ZM332.678 132.168C332.025 132.168 331.437 132.019 330.914 131.72C330.391 131.421 329.976 131.001 329.668 130.46C329.369 129.909 329.22 129.265 329.22 128.528C329.22 127.791 329.374 127.151 329.682 126.61C329.99 126.059 330.405 125.635 330.928 125.336C331.46 125.037 332.053 124.888 332.706 124.888C333.359 124.888 333.947 125.037 334.47 125.336C334.993 125.635 335.403 126.059 335.702 126.61C336.01 127.151 336.164 127.791 336.164 128.528C336.164 129.265 336.01 129.909 335.702 130.46C335.394 131.001 334.974 131.421 334.442 131.72C333.919 132.019 333.331 132.168 332.678 132.168ZM332.678 131.16C333.079 131.16 333.453 131.062 333.798 130.866C334.143 130.67 334.423 130.376 334.638 129.984C334.853 129.592 334.96 129.107 334.96 128.528C334.96 127.949 334.853 127.464 334.638 127.072C334.433 126.68 334.157 126.386 333.812 126.19C333.467 125.994 333.098 125.896 332.706 125.896C332.305 125.896 331.931 125.994 331.586 126.19C331.241 126.386 330.961 126.68 330.746 127.072C330.531 127.464 330.424 127.949 330.424 128.528C330.424 129.107 330.531 129.592 330.746 129.984C330.961 130.376 331.236 130.67 331.572 130.866C331.917 131.062 332.286 131.16 332.678 131.16Z" fill="#333333"/>
</g>
<rect x="431" y="32" width="129" height="121" rx="11.5041" fill="#F8F8F8"/>
<g filter="url(#filter3_d_3892_4927)">
<path d="M451.295 132L447.613 122.2H448.887L451.981 130.754L455.103 122.2H456.349L452.667 132H451.295ZM459.903 132.168C459.324 132.168 458.844 132.07 458.461 131.874C458.078 131.678 457.794 131.417 457.607 131.09C457.42 130.763 457.327 130.409 457.327 130.026C457.327 129.317 457.598 128.771 458.139 128.388C458.68 128.005 459.418 127.814 460.351 127.814H462.227V127.73C462.227 127.123 462.068 126.666 461.751 126.358C461.434 126.041 461.009 125.882 460.477 125.882C460.02 125.882 459.623 125.999 459.287 126.232C458.96 126.456 458.755 126.787 458.671 127.226H457.467C457.514 126.722 457.682 126.297 457.971 125.952C458.27 125.607 458.638 125.345 459.077 125.168C459.516 124.981 459.982 124.888 460.477 124.888C461.448 124.888 462.176 125.149 462.661 125.672C463.156 126.185 463.403 126.871 463.403 127.73V132H462.353L462.283 130.754C462.087 131.146 461.798 131.482 461.415 131.762C461.042 132.033 460.538 132.168 459.903 132.168ZM460.085 131.174C460.533 131.174 460.916 131.057 461.233 130.824C461.56 130.591 461.807 130.287 461.975 129.914C462.143 129.541 462.227 129.149 462.227 128.738V128.724H460.449C459.758 128.724 459.268 128.845 458.979 129.088C458.699 129.321 458.559 129.615 458.559 129.97C458.559 130.334 458.69 130.628 458.951 130.852C459.222 131.067 459.6 131.174 460.085 131.174ZM468.661 129.816C468.269 129.816 467.91 129.765 467.583 129.662L466.883 130.32C466.986 130.395 467.112 130.46 467.261 130.516C467.42 130.563 467.644 130.609 467.933 130.656C468.223 130.693 468.629 130.735 469.151 130.782C470.085 130.847 470.752 131.062 471.153 131.426C471.555 131.79 471.755 132.266 471.755 132.854C471.755 133.255 471.643 133.638 471.419 134.002C471.205 134.366 470.869 134.665 470.411 134.898C469.963 135.131 469.385 135.248 468.675 135.248C468.05 135.248 467.495 135.164 467.009 134.996C466.524 134.837 466.146 134.59 465.875 134.254C465.605 133.927 465.469 133.512 465.469 133.008C465.469 132.747 465.539 132.462 465.679 132.154C465.819 131.855 466.081 131.571 466.463 131.3C466.258 131.216 466.081 131.127 465.931 131.034C465.791 130.931 465.661 130.819 465.539 130.698V130.376L466.729 129.2C466.179 128.733 465.903 128.117 465.903 127.352C465.903 126.895 466.011 126.479 466.225 126.106C466.44 125.733 466.753 125.439 467.163 125.224C467.574 125 468.073 124.888 468.661 124.888C469.063 124.888 469.427 124.944 469.753 125.056H472.315V125.938L471.013 125.994C471.284 126.386 471.419 126.839 471.419 127.352C471.419 127.809 471.307 128.225 471.083 128.598C470.869 128.971 470.556 129.27 470.145 129.494C469.744 129.709 469.249 129.816 468.661 129.816ZM468.661 128.85C469.156 128.85 469.548 128.724 469.837 128.472C470.136 128.211 470.285 127.837 470.285 127.352C470.285 126.876 470.136 126.512 469.837 126.26C469.548 125.999 469.156 125.868 468.661 125.868C468.157 125.868 467.756 125.999 467.457 126.26C467.168 126.512 467.023 126.876 467.023 127.352C467.023 127.837 467.168 128.211 467.457 128.472C467.756 128.724 468.157 128.85 468.661 128.85ZM466.617 132.896C466.617 133.363 466.813 133.708 467.205 133.932C467.597 134.165 468.087 134.282 468.675 134.282C469.254 134.282 469.716 134.156 470.061 133.904C470.416 133.652 470.593 133.316 470.593 132.896C470.593 132.597 470.472 132.336 470.229 132.112C469.987 131.897 469.539 131.771 468.885 131.734C468.372 131.697 467.929 131.65 467.555 131.594C467.173 131.799 466.921 132.019 466.799 132.252C466.678 132.495 466.617 132.709 466.617 132.896ZM476.702 132.168C476.123 132.168 475.642 132.07 475.26 131.874C474.877 131.678 474.592 131.417 474.406 131.09C474.219 130.763 474.126 130.409 474.126 130.026C474.126 129.317 474.396 128.771 474.938 128.388C475.479 128.005 476.216 127.814 477.15 127.814H479.026V127.73C479.026 127.123 478.867 126.666 478.55 126.358C478.232 126.041 477.808 125.882 477.276 125.882C476.818 125.882 476.422 125.999 476.086 126.232C475.759 126.456 475.554 126.787 475.47 127.226H474.266C474.312 126.722 474.48 126.297 474.77 125.952C475.068 125.607 475.437 125.345 475.876 125.168C476.314 124.981 476.781 124.888 477.276 124.888C478.246 124.888 478.974 125.149 479.46 125.672C479.954 126.185 480.202 126.871 480.202 127.73V132H479.152L479.082 130.754C478.886 131.146 478.596 131.482 478.214 131.762C477.84 132.033 477.336 132.168 476.702 132.168ZM476.884 131.174C477.332 131.174 477.714 131.057 478.032 130.824C478.358 130.591 478.606 130.287 478.774 129.914C478.942 129.541 479.026 129.149 479.026 128.738V128.724H477.248C476.557 128.724 476.067 128.845 475.778 129.088C475.498 129.321 475.358 129.615 475.358 129.97C475.358 130.334 475.488 130.628 475.75 130.852C476.02 131.067 476.398 131.174 476.884 131.174ZM487.171 132V121.92H488.347V132H487.171ZM491.739 123.516C491.505 123.516 491.309 123.441 491.151 123.292C491.001 123.133 490.927 122.937 490.927 122.704C490.927 122.48 491.001 122.293 491.151 122.144C491.309 121.995 491.505 121.92 491.739 121.92C491.963 121.92 492.154 121.995 492.313 122.144C492.471 122.293 492.551 122.48 492.551 122.704C492.551 122.937 492.471 123.133 492.313 123.292C492.154 123.441 491.963 123.516 491.739 123.516ZM491.151 132V125.056H492.327V132H491.151ZM498.834 132.168C498.265 132.168 497.756 132.051 497.308 131.818C496.87 131.585 496.534 131.258 496.3 130.838L496.188 132H495.124V121.92H496.3V126.204C496.524 125.868 496.842 125.565 497.252 125.294C497.672 125.023 498.204 124.888 498.848 124.888C499.539 124.888 500.141 125.047 500.654 125.364C501.168 125.681 501.564 126.115 501.844 126.666C502.134 127.217 502.278 127.842 502.278 128.542C502.278 129.242 502.134 129.867 501.844 130.418C501.564 130.959 501.163 131.389 500.64 131.706C500.127 132.014 499.525 132.168 498.834 132.168ZM498.708 131.146C499.175 131.146 499.586 131.039 499.94 130.824C500.295 130.6 500.575 130.292 500.78 129.9C500.986 129.508 501.088 129.051 501.088 128.528C501.088 128.005 500.986 127.548 500.78 127.156C500.575 126.764 500.295 126.461 499.94 126.246C499.586 126.022 499.175 125.91 498.708 125.91C498.242 125.91 497.831 126.022 497.476 126.246C497.122 126.461 496.842 126.764 496.636 127.156C496.431 127.548 496.328 128.005 496.328 128.528C496.328 129.051 496.431 129.508 496.636 129.9C496.842 130.292 497.122 130.6 497.476 130.824C497.831 131.039 498.242 131.146 498.708 131.146ZM507.787 132.168C507.125 132.168 506.537 132.019 506.023 131.72C505.51 131.412 505.104 130.987 504.805 130.446C504.516 129.905 504.371 129.265 504.371 128.528C504.371 127.8 504.516 127.165 504.805 126.624C505.095 126.073 505.496 125.649 506.009 125.35C506.532 125.042 507.134 124.888 507.815 124.888C508.487 124.888 509.066 125.042 509.551 125.35C510.046 125.649 510.424 126.045 510.685 126.54C510.947 127.035 511.077 127.567 511.077 128.136C511.077 128.239 511.073 128.341 511.063 128.444C511.063 128.547 511.063 128.663 511.063 128.794H505.533C505.561 129.326 505.683 129.769 505.897 130.124C506.121 130.469 506.397 130.731 506.723 130.908C507.059 131.085 507.414 131.174 507.787 131.174C508.273 131.174 508.679 131.062 509.005 130.838C509.332 130.614 509.57 130.311 509.719 129.928H510.881C510.695 130.572 510.335 131.109 509.803 131.538C509.281 131.958 508.609 132.168 507.787 132.168ZM507.787 125.882C507.227 125.882 506.728 126.055 506.289 126.4C505.86 126.736 505.613 127.231 505.547 127.884H509.915C509.887 127.259 509.673 126.769 509.271 126.414C508.87 126.059 508.375 125.882 507.787 125.882ZM513.386 132V125.056H514.45L514.548 126.386C514.763 125.929 515.089 125.565 515.528 125.294C515.967 125.023 516.508 124.888 517.152 124.888V126.12H516.83C516.419 126.12 516.041 126.195 515.696 126.344C515.351 126.484 515.075 126.727 514.87 127.072C514.665 127.417 514.562 127.893 514.562 128.5V132H513.386ZM521.532 132.168C520.953 132.168 520.473 132.07 520.09 131.874C519.707 131.678 519.423 131.417 519.236 131.09C519.049 130.763 518.956 130.409 518.956 130.026C518.956 129.317 519.227 128.771 519.768 128.388C520.309 128.005 521.047 127.814 521.98 127.814H523.856V127.73C523.856 127.123 523.697 126.666 523.38 126.358C523.063 126.041 522.638 125.882 522.106 125.882C521.649 125.882 521.252 125.999 520.916 126.232C520.589 126.456 520.384 126.787 520.3 127.226H519.096C519.143 126.722 519.311 126.297 519.6 125.952C519.899 125.607 520.267 125.345 520.706 125.168C521.145 124.981 521.611 124.888 522.106 124.888C523.077 124.888 523.805 125.149 524.29 125.672C524.785 126.185 525.032 126.871 525.032 127.73V132H523.982L523.912 130.754C523.716 131.146 523.427 131.482 523.044 131.762C522.671 132.033 522.167 132.168 521.532 132.168ZM521.714 131.174C522.162 131.174 522.545 131.057 522.862 130.824C523.189 130.591 523.436 130.287 523.604 129.914C523.772 129.541 523.856 129.149 523.856 128.738V128.724H522.078C521.387 128.724 520.897 128.845 520.608 129.088C520.328 129.321 520.188 129.615 520.188 129.97C520.188 130.334 520.319 130.628 520.58 130.852C520.851 131.067 521.229 131.174 521.714 131.174ZM530.696 132.168C530.005 132.168 529.399 132.009 528.876 131.692C528.363 131.375 527.961 130.941 527.672 130.39C527.392 129.839 527.252 129.214 527.252 128.514C527.252 127.814 527.397 127.193 527.686 126.652C527.975 126.101 528.377 125.672 528.89 125.364C529.403 125.047 530.01 124.888 530.71 124.888C531.279 124.888 531.783 125.005 532.222 125.238C532.661 125.471 533.001 125.798 533.244 126.218V121.92H534.42V132H533.356L533.244 130.852C533.02 131.188 532.698 131.491 532.278 131.762C531.858 132.033 531.331 132.168 530.696 132.168ZM530.822 131.146C531.289 131.146 531.699 131.039 532.054 130.824C532.418 130.6 532.698 130.292 532.894 129.9C533.099 129.508 533.202 129.051 533.202 128.528C533.202 128.005 533.099 127.548 532.894 127.156C532.698 126.764 532.418 126.461 532.054 126.246C531.699 126.022 531.289 125.91 530.822 125.91C530.365 125.91 529.954 126.022 529.59 126.246C529.235 126.461 528.955 126.764 528.75 127.156C528.554 127.548 528.456 128.005 528.456 128.528C528.456 129.051 528.554 129.508 528.75 129.9C528.955 130.292 529.235 130.6 529.59 130.824C529.954 131.039 530.365 131.146 530.822 131.146ZM539.397 132.168C538.818 132.168 538.338 132.07 537.955 131.874C537.572 131.678 537.288 131.417 537.101 131.09C536.914 130.763 536.821 130.409 536.821 130.026C536.821 129.317 537.092 128.771 537.633 128.388C538.174 128.005 538.912 127.814 539.845 127.814H541.721V127.73C541.721 127.123 541.562 126.666 541.245 126.358C540.928 126.041 540.503 125.882 539.971 125.882C539.514 125.882 539.117 125.999 538.781 126.232C538.454 126.456 538.249 126.787 538.165 127.226H536.961C537.008 126.722 537.176 126.297 537.465 125.952C537.764 125.607 538.132 125.345 538.571 125.168C539.01 124.981 539.476 124.888 539.971 124.888C540.942 124.888 541.67 125.149 542.155 125.672C542.65 126.185 542.897 126.871 542.897 127.73V132H541.847L541.777 130.754C541.581 131.146 541.292 131.482 540.909 131.762C540.536 132.033 540.032 132.168 539.397 132.168ZM539.579 131.174C540.027 131.174 540.41 131.057 540.727 130.824C541.054 130.591 541.301 130.287 541.469 129.914C541.637 129.541 541.721 129.149 541.721 128.738V128.724H539.943C539.252 128.724 538.762 128.845 538.473 129.088C538.193 129.321 538.053 129.615 538.053 129.97C538.053 130.334 538.184 130.628 538.445 130.852C538.716 131.067 539.094 131.174 539.579 131.174Z" fill="#333333"/>
</g>
<path d="M1 70H615" stroke="url(#paint2_linear_3892_4927)" stroke-linecap="round" stroke-linejoin="round" stroke-dasharray="8 8"/>
<rect x="69" y="38" width="64" height="64" rx="32" fill="#B3B3B3"/>
<path d="M101.248 81V61.608L97.6319 62.408V60.552L102.144 58.6H103.968V81H101.248Z" fill="#FCFCFC"/>
<rect x="265" y="38" width="64" height="64" rx="32" fill="url(#paint3_linear_3892_4927)"/>
<path d="M290.36 81V79.112C291.874 77.9173 293.304 76.712 294.648 75.496C296.013 74.2587 297.218 73.0427 298.264 71.848C299.33 70.6533 300.162 69.48 300.76 68.328C301.378 67.176 301.688 66.0667 301.688 65C301.688 64.2107 301.549 63.4747 301.272 62.792C301.016 62.1093 300.589 61.5653 299.992 61.16C299.394 60.7333 298.584 60.52 297.56 60.52C296.578 60.52 295.757 60.744 295.096 61.192C294.434 61.6187 293.933 62.1947 293.592 62.92C293.272 63.6453 293.112 64.424 293.112 65.256H290.52C290.52 63.784 290.829 62.5253 291.448 61.48C292.066 60.4133 292.909 59.6027 293.976 59.048C295.042 58.4933 296.248 58.216 297.592 58.216C299.576 58.216 301.197 58.7813 302.456 59.912C303.736 61.0213 304.376 62.6853 304.376 64.904C304.376 66.2267 304.045 67.5387 303.384 68.84C302.722 70.12 301.88 71.368 300.856 72.584C299.832 73.7787 298.733 74.8987 297.56 75.944C296.408 76.9893 295.33 77.928 294.328 78.76H305.144V81H290.36Z" fill="#FCFCFC"/>
<rect x="463" y="38" width="64" height="64" rx="32" fill="#B3B3B3"/>
<path d="M495.438 81.384C494.008 81.384 492.718 81.128 491.566 80.616C490.414 80.0827 489.486 79.2933 488.782 78.248C488.099 77.2027 487.736 75.9013 487.694 74.344H490.414C490.435 75.624 490.883 76.7333 491.758 77.672C492.632 78.5893 493.859 79.048 495.438 79.048C497.016 79.048 498.2 78.6107 498.99 77.736C499.8 76.8613 500.206 75.8053 500.206 74.568C500.206 73.5227 499.95 72.6693 499.438 72.008C498.947 71.3467 498.275 70.856 497.422 70.536C496.59 70.216 495.672 70.056 494.67 70.056H493.006V67.784H494.67C496.12 67.784 497.251 67.4533 498.062 66.792C498.894 66.1307 499.31 65.2027 499.31 64.008C499.31 63.0053 498.979 62.184 498.318 61.544C497.678 60.8827 496.718 60.552 495.438 60.552C494.2 60.552 493.208 60.9253 492.462 61.672C491.715 62.3973 491.299 63.3147 491.214 64.424H488.494C488.558 63.208 488.878 62.1307 489.454 61.192C490.051 60.2533 490.862 59.528 491.886 59.016C492.91 58.4827 494.094 58.216 495.438 58.216C496.888 58.216 498.094 58.472 499.054 58.984C500.035 59.496 500.771 60.1787 501.262 61.032C501.774 61.8853 502.03 62.824 502.03 63.848C502.03 64.9787 501.72 66.0133 501.102 66.952C500.483 67.8693 499.555 68.488 498.318 68.808C499.64 69.0853 500.739 69.7147 501.614 70.696C502.488 71.6773 502.926 72.968 502.926 74.568C502.926 75.8053 502.638 76.9467 502.062 77.992C501.507 79.016 500.675 79.8373 499.566 80.456C498.456 81.0747 497.08 81.384 495.438 81.384Z" fill="#FCFCFC"/>
<defs>
<filter id="filter0_d_3892_4927" x="30.2295" y="109.92" width="142.127" height="87.3281" filterUnits="userSpaceOnUse" color-interpolation-filters="sRGB">
<feFlood flood-opacity="0" result="BackgroundImageFix"/>
<feColorMatrix in="SourceAlpha" type="matrix" values="0 0 0 0 0 0 0 0 0 0 0 0 0 0 0 0 0 0 127 0" result="hardAlpha"/>
<feOffset dy="25"/>
<feGaussianBlur stdDeviation="14"/>
<feComposite in2="hardAlpha" operator="out"/>
<feColorMatrix type="matrix" values="0 0 0 0 0 0 0 0 0 0 0 0 0 0 0 0 0 0 0.05 0"/>
<feBlend mode="normal" in2="BackgroundImageFix" result="effect1_dropShadow_3892_4927"/>
<feBlend mode="normal" in="SourceGraphic" in2="effect1_dropShadow_3892_4927" result="shape"/>
</filter>
<filter id="filter1_d_3892_4927" x="209.033" y="32" width="176.934" height="171.81" filterUnits="userSpaceOnUse" color-interpolation-filters="sRGB">
<feFlood flood-opacity="0" result="BackgroundImageFix"/>
<feColorMatrix in="SourceAlpha" type="matrix" values="0 0 0 0 0 0 0 0 0 0 0 0 0 0 0 0 0 0 127 0" result="hardAlpha"/>
<feOffset dy="26.843"/>
<feGaussianBlur stdDeviation="11.9835"/>
<feComposite in2="hardAlpha" operator="out"/>
<feColorMatrix type="matrix" values="0 0 0 0 0 0 0 0 0 0 0 0 0 0 0 0 0 0 0.05 0"/>
<feBlend mode="normal" in2="BackgroundImageFix" result="effect1_dropShadow_3892_4927"/>
<feBlend mode="normal" in="SourceGraphic" in2="effect1_dropShadow_3892_4927" result="shape"/>
</filter>
<filter id="filter2_d_3892_4927" x="231.203" y="119.199" width="132.961" height="69.0488" filterUnits="userSpaceOnUse" color-interpolation-filters="sRGB">
<feFlood flood-opacity="0" result="BackgroundImageFix"/>
<feColorMatrix in="SourceAlpha" type="matrix" values="0 0 0 0 0 0 0 0 0 0 0 0 0 0 0 0 0 0 127 0" result="hardAlpha"/>
<feOffset dy="25"/>
<feGaussianBlur stdDeviation="14"/>
<feComposite in2="hardAlpha" operator="out"/>
<feColorMatrix type="matrix" values="0 0 0 0 0 0 0 0 0 0 0 0 0 0 0 0 0 0 0.05 0"/>
<feBlend mode="normal" in2="BackgroundImageFix" result="effect1_dropShadow_3892_4927"/>
<feBlend mode="normal" in="SourceGraphic" in2="effect1_dropShadow_3892_4927" result="shape"/>
</filter>
<filter id="filter3_d_3892_4927" x="419.612" y="118.92" width="151.285" height="69.3281" filterUnits="userSpaceOnUse" color-interpolation-filters="sRGB">
<feFlood flood-opacity="0" result="BackgroundImageFix"/>
<feColorMatrix in="SourceAlpha" type="matrix" values="0 0 0 0 0 0 0 0 0 0 0 0 0 0 0 0 0 0 127 0" result="hardAlpha"/>
<feOffset dy="25"/>
<feGaussianBlur stdDeviation="14"/>
<feComposite in2="hardAlpha" operator="out"/>
<feColorMatrix type="matrix" values="0 0 0 0 0 0 0 0 0 0 0 0 0 0 0 0 0 0 0.05 0"/>
<feBlend mode="normal" in2="BackgroundImageFix" result="effect1_dropShadow_3892_4927"/>
<feBlend mode="normal" in="SourceGraphic" in2="effect1_dropShadow_3892_4927" result="shape"/>
</filter>
<linearGradient id="paint0_linear_3892_4927" x1="95" y1="0" x2="520.533" y2="257.866" gradientUnits="userSpaceOnUse">
<stop stop-color="#FF4B00"/>
<stop offset="1" stop-color="#EE2F23"/>
</linearGradient>
<linearGradient id="paint1_linear_3892_4927" x1="196" y1="262" x2="288.465" y2="408.429" gradientUnits="userSpaceOnUse">
<stop stop-color="#FF4B00"/>
<stop offset="1" stop-color="#EE2F23"/>
</linearGradient>
<linearGradient id="paint2_linear_3892_4927" x1="-30.3977" y1="69.9561" x2="-30.394" y2="72.178" gradientUnits="userSpaceOnUse">
<stop stop-color="#333333"/>
<stop offset="1" stop-color="#0F0F0F"/>
</linearGradient>
<linearGradient id="paint3_linear_3892_4927" x1="261.727" y1="35.1908" x2="332.798" y2="104.269" gradientUnits="userSpaceOnUse">
<stop stop-color="#333333"/>
<stop offset="1" stop-color="#0F0F0F"/>
</linearGradient>
</defs>
</svg>
