<svg width="264" height="262" viewBox="0 0 264 262" fill="none" xmlns="http://www.w3.org/2000/svg">
<rect x="0.5" y="0.5" width="263" height="261" rx="23.5" stroke="url(#paint0_linear_2684_1232)"/>
<path d="M12.8426 193V183.2H16.0626C16.828 183.2 17.458 183.326 17.9526 183.578C18.4473 183.83 18.8113 184.171 19.0446 184.6C19.2873 185.029 19.4086 185.515 19.4086 186.056C19.4086 186.588 19.292 187.069 19.0586 187.498C18.8253 187.927 18.4613 188.273 17.9666 188.534C17.472 188.786 16.8373 188.912 16.0626 188.912H14.0186V193H12.8426ZM14.0186 187.918H16.0346C16.8186 187.918 17.374 187.755 17.7006 187.428C18.0366 187.092 18.2046 186.635 18.2046 186.056C18.2046 185.468 18.0366 185.011 17.7006 184.684C17.374 184.348 16.8186 184.18 16.0346 184.18H14.0186V187.918ZM21.6301 193V186.056H22.6941L22.7921 187.386C23.0067 186.929 23.3334 186.565 23.7721 186.294C24.2107 186.023 24.7521 185.888 25.3961 185.888V187.12H25.0741C24.6634 187.12 24.2854 187.195 23.9401 187.344C23.5947 187.484 23.3194 187.727 23.1141 188.072C22.9087 188.417 22.8061 188.893 22.8061 189.5V193H21.6301ZM30.3282 193.168C29.6656 193.168 29.0776 193.019 28.5642 192.72C28.0509 192.412 27.6449 191.987 27.3462 191.446C27.0569 190.905 26.9122 190.265 26.9122 189.528C26.9122 188.8 27.0569 188.165 27.3462 187.624C27.6356 187.073 28.0369 186.649 28.5502 186.35C29.0729 186.042 29.6749 185.888 30.3562 185.888C31.0282 185.888 31.6069 186.042 32.0922 186.35C32.5869 186.649 32.9649 187.045 33.2262 187.54C33.4876 188.035 33.6182 188.567 33.6182 189.136C33.6182 189.239 33.6136 189.341 33.6042 189.444C33.6042 189.547 33.6042 189.663 33.6042 189.794H28.0742C28.1022 190.326 28.2236 190.769 28.4382 191.124C28.6622 191.469 28.9376 191.731 29.2642 191.908C29.6002 192.085 29.9549 192.174 30.3282 192.174C30.8136 192.174 31.2196 192.062 31.5462 191.838C31.8729 191.614 32.1109 191.311 32.2602 190.928H33.4222C33.2356 191.572 32.8762 192.109 32.3442 192.538C31.8216 192.958 31.1496 193.168 30.3282 193.168ZM30.3282 186.882C29.7682 186.882 29.2689 187.055 28.8302 187.4C28.4009 187.736 28.1536 188.231 28.0882 188.884H32.4562C32.4282 188.259 32.2136 187.769 31.8122 187.414C31.4109 187.059 30.9162 186.882 30.3282 186.882ZM39.0489 193.168C38.3863 193.168 37.7983 193.019 37.2849 192.72C36.7716 192.412 36.3656 191.987 36.0669 191.446C35.7776 190.905 35.6329 190.265 35.6329 189.528C35.6329 188.8 35.7776 188.165 36.0669 187.624C36.3563 187.073 36.7576 186.649 37.2709 186.35C37.7936 186.042 38.3956 185.888 39.0769 185.888C39.7489 185.888 40.3276 186.042 40.8129 186.35C41.3076 186.649 41.6856 187.045 41.9469 187.54C42.2083 188.035 42.3389 188.567 42.3389 189.136C42.3389 189.239 42.3343 189.341 42.3249 189.444C42.3249 189.547 42.3249 189.663 42.3249 189.794H36.7949C36.8229 190.326 36.9443 190.769 37.1589 191.124C37.3829 191.469 37.6583 191.731 37.9849 191.908C38.3209 192.085 38.6756 192.174 39.0489 192.174C39.5343 192.174 39.9403 192.062 40.2669 191.838C40.5936 191.614 40.8316 191.311 40.9809 190.928H42.1429C41.9563 191.572 41.5969 192.109 41.0649 192.538C40.5423 192.958 39.8703 193.168 39.0489 193.168ZM39.0489 186.882C38.4889 186.882 37.9896 187.055 37.5509 187.4C37.1216 187.736 36.8743 188.231 36.8089 188.884H41.1769C41.1489 188.259 40.9343 187.769 40.5329 187.414C40.1316 187.059 39.6369 186.882 39.0489 186.882ZM44.6476 193V186.056H45.7116L45.7816 187.302C46.0056 186.863 46.3276 186.518 46.7476 186.266C47.1676 186.014 47.6436 185.888 48.1756 185.888C48.997 185.888 49.6503 186.14 50.1356 186.644C50.6303 187.139 50.8776 187.904 50.8776 188.94V193H49.7016V189.066C49.7016 187.619 49.1043 186.896 47.9096 186.896C47.3123 186.896 46.813 187.115 46.4116 187.554C46.0196 187.983 45.8236 188.599 45.8236 189.402V193H44.6476ZM56.6014 193.168C55.9387 193.168 55.3414 193.019 54.8094 192.72C54.2867 192.412 53.8714 191.987 53.5634 191.446C53.2647 190.895 53.1154 190.256 53.1154 189.528C53.1154 188.8 53.2647 188.165 53.5634 187.624C53.8714 187.073 54.2867 186.649 54.8094 186.35C55.3414 186.042 55.9387 185.888 56.6014 185.888C57.4227 185.888 58.1134 186.103 58.6734 186.532C59.2427 186.961 59.602 187.535 59.7514 188.254H58.5474C58.454 187.825 58.2254 187.493 57.8614 187.26C57.4974 187.017 57.0727 186.896 56.5874 186.896C56.1954 186.896 55.8267 186.994 55.4814 187.19C55.136 187.386 54.856 187.68 54.6414 188.072C54.4267 188.464 54.3194 188.949 54.3194 189.528C54.3194 190.107 54.4267 190.592 54.6414 190.984C54.856 191.376 55.136 191.675 55.4814 191.88C55.8267 192.076 56.1954 192.174 56.5874 192.174C57.0727 192.174 57.4974 192.057 57.8614 191.824C58.2254 191.581 58.454 191.241 58.5474 190.802H59.7514C59.6114 191.502 59.2567 192.071 58.6874 192.51C58.118 192.949 57.4227 193.168 56.6014 193.168ZM62.1437 193V182.92H63.3197V187.246C63.5531 186.817 63.8844 186.485 64.3137 186.252C64.7431 186.009 65.2097 185.888 65.7137 185.888C66.5164 185.888 67.1604 186.14 67.6457 186.644C68.1311 187.139 68.3737 187.904 68.3737 188.94V193H67.2117V189.066C67.2117 187.619 66.6284 186.896 65.4617 186.896C64.8551 186.896 64.3464 187.115 63.9357 187.554C63.5251 187.983 63.3197 188.599 63.3197 189.402V193H62.1437ZM73.2155 193.168C72.6368 193.168 72.1561 193.07 71.7735 192.874C71.3908 192.678 71.1061 192.417 70.9195 192.09C70.7328 191.763 70.6395 191.409 70.6395 191.026C70.6395 190.317 70.9101 189.771 71.4515 189.388C71.9928 189.005 72.7301 188.814 73.6635 188.814H75.5395V188.73C75.5395 188.123 75.3808 187.666 75.0635 187.358C74.7461 187.041 74.3215 186.882 73.7895 186.882C73.3321 186.882 72.9355 186.999 72.5995 187.232C72.2728 187.456 72.0675 187.787 71.9835 188.226H70.7795C70.8261 187.722 70.9941 187.297 71.2835 186.952C71.5821 186.607 71.9508 186.345 72.3895 186.168C72.8281 185.981 73.2948 185.888 73.7895 185.888C74.7601 185.888 75.4881 186.149 75.9735 186.672C76.4681 187.185 76.7155 187.871 76.7155 188.73V193H75.6655L75.5955 191.754C75.3995 192.146 75.1101 192.482 74.7275 192.762C74.3541 193.033 73.8501 193.168 73.2155 193.168ZM73.3975 192.174C73.8455 192.174 74.2281 192.057 74.5455 191.824C74.8721 191.591 75.1195 191.287 75.2875 190.914C75.4555 190.541 75.5395 190.149 75.5395 189.738V189.724H73.7615C73.0708 189.724 72.5808 189.845 72.2915 190.088C72.0115 190.321 71.8715 190.615 71.8715 190.97C71.8715 191.334 72.0021 191.628 72.2635 191.852C72.5341 192.067 72.9121 192.174 73.3975 192.174ZM85.9948 193.168C85.4161 193.168 84.9354 193.07 84.5528 192.874C84.1701 192.678 83.8854 192.417 83.6988 192.09C83.5121 191.763 83.4188 191.409 83.4188 191.026C83.4188 190.317 83.6894 189.771 84.2308 189.388C84.7721 189.005 85.5094 188.814 86.4428 188.814H88.3188V188.73C88.3188 188.123 88.1601 187.666 87.8428 187.358C87.5254 187.041 87.1008 186.882 86.5688 186.882C86.1114 186.882 85.7148 186.999 85.3788 187.232C85.0521 187.456 84.8468 187.787 84.7628 188.226H83.5588C83.6054 187.722 83.7734 187.297 84.0628 186.952C84.3614 186.607 84.7301 186.345 85.1688 186.168C85.6074 185.981 86.0741 185.888 86.5688 185.888C87.5394 185.888 88.2674 186.149 88.7528 186.672C89.2474 187.185 89.4948 187.871 89.4948 188.73V193H88.4448L88.3748 191.754C88.1788 192.146 87.8894 192.482 87.5068 192.762C87.1334 193.033 86.6294 193.168 85.9948 193.168ZM86.1768 192.174C86.6248 192.174 87.0074 192.057 87.3248 191.824C87.6514 191.591 87.8988 191.287 88.0668 190.914C88.2348 190.541 88.3188 190.149 88.3188 189.738V189.724H86.5408C85.8501 189.724 85.3601 189.845 85.0708 190.088C84.7908 190.321 84.6508 190.615 84.6508 190.97C84.6508 191.334 84.7814 191.628 85.0428 191.852C85.3134 192.067 85.6914 192.174 86.1768 192.174ZM94.669 193.168C93.8383 193.168 93.1476 192.958 92.597 192.538C92.0463 192.118 91.7243 191.549 91.631 190.83H92.835C92.9096 191.194 93.101 191.511 93.409 191.782C93.7263 192.043 94.151 192.174 94.683 192.174C95.1776 192.174 95.5416 192.071 95.775 191.866C96.0083 191.651 96.125 191.399 96.125 191.11C96.125 190.69 95.971 190.41 95.663 190.27C95.3643 190.13 94.9396 190.004 94.389 189.892C94.0156 189.817 93.6423 189.71 93.269 189.57C92.8956 189.43 92.583 189.234 92.331 188.982C92.079 188.721 91.953 188.38 91.953 187.96C91.953 187.353 92.177 186.859 92.625 186.476C93.0823 186.084 93.6983 185.888 94.473 185.888C95.2103 185.888 95.8123 186.075 96.279 186.448C96.755 186.812 97.0303 187.335 97.105 188.016H95.943C95.8963 187.661 95.7423 187.386 95.481 187.19C95.229 186.985 94.8883 186.882 94.459 186.882C94.039 186.882 93.7123 186.971 93.479 187.148C93.255 187.325 93.143 187.559 93.143 187.848C93.143 188.128 93.2876 188.347 93.577 188.506C93.8756 188.665 94.277 188.8 94.781 188.912C95.2103 189.005 95.6163 189.122 95.999 189.262C96.391 189.393 96.7083 189.593 96.951 189.864C97.203 190.125 97.329 190.508 97.329 191.012C97.3383 191.637 97.1003 192.155 96.615 192.566C96.139 192.967 95.4903 193.168 94.669 193.168ZM104.928 184.516C104.695 184.516 104.499 184.441 104.34 184.292C104.191 184.133 104.116 183.937 104.116 183.704C104.116 183.48 104.191 183.293 104.34 183.144C104.499 182.995 104.695 182.92 104.928 182.92C105.152 182.92 105.343 182.995 105.502 183.144C105.661 183.293 105.74 183.48 105.74 183.704C105.74 183.937 105.661 184.133 105.502 184.292C105.343 184.441 105.152 184.516 104.928 184.516ZM104.34 193V186.056H105.516V193H104.34ZM108.314 193V186.056H109.378L109.448 187.302C109.672 186.863 109.994 186.518 110.414 186.266C110.834 186.014 111.31 185.888 111.842 185.888C112.663 185.888 113.316 186.14 113.802 186.644C114.296 187.139 114.544 187.904 114.544 188.94V193H113.368V189.066C113.368 187.619 112.77 186.896 111.576 186.896C110.978 186.896 110.479 187.115 110.078 187.554C109.686 187.983 109.49 188.599 109.49 189.402V193H108.314ZM117.453 193V187.05H116.403V186.056H117.453V184.852C117.453 184.18 117.621 183.69 117.957 183.382C118.293 183.074 118.783 182.92 119.427 182.92H120.127V183.928H119.609C119.255 183.928 119.003 184.003 118.853 184.152C118.704 184.292 118.629 184.535 118.629 184.88V186.056H120.337V187.05H118.629V193H117.453ZM125.378 193.168C124.725 193.168 124.137 193.019 123.614 192.72C123.091 192.421 122.676 192.001 122.368 191.46C122.069 190.909 121.92 190.265 121.92 189.528C121.92 188.791 122.074 188.151 122.382 187.61C122.69 187.059 123.105 186.635 123.628 186.336C124.16 186.037 124.753 185.888 125.406 185.888C126.059 185.888 126.647 186.037 127.17 186.336C127.693 186.635 128.103 187.059 128.402 187.61C128.71 188.151 128.864 188.791 128.864 189.528C128.864 190.265 128.71 190.909 128.402 191.46C128.094 192.001 127.674 192.421 127.142 192.72C126.619 193.019 126.031 193.168 125.378 193.168ZM125.378 192.16C125.779 192.16 126.153 192.062 126.498 191.866C126.843 191.67 127.123 191.376 127.338 190.984C127.553 190.592 127.66 190.107 127.66 189.528C127.66 188.949 127.553 188.464 127.338 188.072C127.133 187.68 126.857 187.386 126.512 187.19C126.167 186.994 125.798 186.896 125.406 186.896C125.005 186.896 124.631 186.994 124.286 187.19C123.941 187.386 123.661 187.68 123.446 188.072C123.231 188.464 123.124 188.949 123.124 189.528C123.124 190.107 123.231 190.592 123.446 190.984C123.661 191.376 123.936 191.67 124.272 191.866C124.617 192.062 124.986 192.16 125.378 192.16ZM131.249 193V186.056H132.313L132.411 187.386C132.626 186.929 132.953 186.565 133.391 186.294C133.83 186.023 134.371 185.888 135.015 185.888V187.12H134.693C134.283 187.12 133.905 187.195 133.559 187.344C133.214 187.484 132.939 187.727 132.733 188.072C132.528 188.417 132.425 188.893 132.425 189.5V193H131.249ZM137.085 193V186.056H138.149L138.233 187.064C138.457 186.691 138.756 186.401 139.129 186.196C139.502 185.991 139.922 185.888 140.389 185.888C140.94 185.888 141.411 186 141.803 186.224C142.204 186.448 142.512 186.789 142.727 187.246C142.97 186.826 143.301 186.495 143.721 186.252C144.15 186.009 144.612 185.888 145.107 185.888C145.938 185.888 146.6 186.14 147.095 186.644C147.59 187.139 147.837 187.904 147.837 188.94V193H146.675V189.066C146.675 188.347 146.53 187.806 146.241 187.442C145.952 187.078 145.536 186.896 144.995 186.896C144.435 186.896 143.968 187.115 143.595 187.554C143.231 187.983 143.049 188.599 143.049 189.402V193H141.873V189.066C141.873 188.347 141.728 187.806 141.439 187.442C141.15 187.078 140.734 186.896 140.193 186.896C139.642 186.896 139.18 187.115 138.807 187.554C138.443 187.983 138.261 188.599 138.261 189.402V193H137.085ZM152.669 193.168C152.09 193.168 151.609 193.07 151.227 192.874C150.844 192.678 150.559 192.417 150.373 192.09C150.186 191.763 150.093 191.409 150.093 191.026C150.093 190.317 150.363 189.771 150.905 189.388C151.446 189.005 152.183 188.814 153.117 188.814H154.993V188.73C154.993 188.123 154.834 187.666 154.517 187.358C154.199 187.041 153.775 186.882 153.243 186.882C152.785 186.882 152.389 186.999 152.053 187.232C151.726 187.456 151.521 187.787 151.437 188.226H150.233C150.279 187.722 150.447 187.297 150.737 186.952C151.035 186.607 151.404 186.345 151.843 186.168C152.281 185.981 152.748 185.888 153.243 185.888C154.213 185.888 154.941 186.149 155.427 186.672C155.921 187.185 156.169 187.871 156.169 188.73V193H155.119L155.049 191.754C154.853 192.146 154.563 192.482 154.181 192.762C153.807 193.033 153.303 193.168 152.669 193.168ZM152.851 192.174C153.299 192.174 153.681 192.057 153.999 191.824C154.325 191.591 154.573 191.287 154.741 190.914C154.909 190.541 154.993 190.149 154.993 189.738V189.724H153.215C152.524 189.724 152.034 189.845 151.745 190.088C151.465 190.321 151.325 190.615 151.325 190.97C151.325 191.334 151.455 191.628 151.717 191.852C151.987 192.067 152.365 192.174 152.851 192.174ZM161.875 193.168C161.212 193.168 160.615 193.019 160.083 192.72C159.56 192.412 159.145 191.987 158.837 191.446C158.538 190.895 158.389 190.256 158.389 189.528C158.389 188.8 158.538 188.165 158.837 187.624C159.145 187.073 159.56 186.649 160.083 186.35C160.615 186.042 161.212 185.888 161.875 185.888C162.696 185.888 163.387 186.103 163.947 186.532C164.516 186.961 164.875 187.535 165.025 188.254H163.821C163.727 187.825 163.499 187.493 163.135 187.26C162.771 187.017 162.346 186.896 161.861 186.896C161.469 186.896 161.1 186.994 160.755 187.19C160.409 187.386 160.129 187.68 159.915 188.072C159.7 188.464 159.593 188.949 159.593 189.528C159.593 190.107 159.7 190.592 159.915 190.984C160.129 191.376 160.409 191.675 160.755 191.88C161.1 192.076 161.469 192.174 161.861 192.174C162.346 192.174 162.771 192.057 163.135 191.824C163.499 191.581 163.727 191.241 163.821 190.802H165.025C164.885 191.502 164.53 192.071 163.961 192.51C163.391 192.949 162.696 193.168 161.875 193.168ZM160.867 196.64V195.898H162.155C162.789 195.898 163.107 195.674 163.107 195.226C163.107 194.806 162.789 194.596 162.155 194.596H161.469V192.916H162.253V193.896C162.785 193.887 163.219 193.994 163.555 194.218C163.891 194.442 164.059 194.783 164.059 195.24C164.059 195.679 163.9 196.019 163.583 196.262C163.265 196.514 162.864 196.64 162.379 196.64H160.867ZM170.581 193.168C169.928 193.168 169.34 193.019 168.817 192.72C168.295 192.421 167.879 192.001 167.571 191.46C167.273 190.909 167.123 190.265 167.123 189.528C167.123 188.791 167.277 188.151 167.585 187.61C167.893 187.059 168.309 186.635 168.831 186.336C169.363 186.037 169.956 185.888 170.609 185.888C171.263 185.888 171.851 186.037 172.373 186.336C172.896 186.635 173.307 187.059 173.605 187.61C173.913 188.151 174.067 188.791 174.067 189.528C174.067 190.265 173.913 190.909 173.605 191.46C173.297 192.001 172.877 192.421 172.345 192.72C171.823 193.019 171.235 193.168 170.581 193.168ZM170.581 192.16C170.983 192.16 171.356 192.062 171.701 191.866C172.047 191.67 172.327 191.376 172.541 190.984C172.756 190.592 172.863 190.107 172.863 189.528C172.863 188.949 172.756 188.464 172.541 188.072C172.336 187.68 172.061 187.386 171.715 187.19C171.37 186.994 171.001 186.896 170.609 186.896C170.208 186.896 169.835 186.994 169.489 187.19C169.144 187.386 168.864 187.68 168.649 188.072C168.435 188.464 168.327 188.949 168.327 189.528C168.327 190.107 168.435 190.592 168.649 190.984C168.864 191.376 169.139 191.67 169.475 191.866C169.821 192.062 170.189 192.16 170.581 192.16ZM171.379 185.272C171.127 185.272 170.917 185.216 170.749 185.104C170.591 184.992 170.437 184.885 170.287 184.782C170.138 184.67 169.97 184.614 169.783 184.614C169.438 184.614 169.237 184.824 169.181 185.244H168.495C168.561 184.768 168.71 184.413 168.943 184.18C169.186 183.947 169.48 183.83 169.825 183.83C170.077 183.83 170.283 183.886 170.441 183.998C170.609 184.11 170.768 184.222 170.917 184.334C171.067 184.437 171.239 184.488 171.435 184.488C171.594 184.488 171.729 184.437 171.841 184.334C171.953 184.231 172.023 184.073 172.051 183.858H172.723C172.677 184.315 172.527 184.665 172.275 184.908C172.033 185.151 171.734 185.272 171.379 185.272ZM179.574 193.168C178.912 193.168 178.324 193.019 177.81 192.72C177.297 192.412 176.891 191.987 176.592 191.446C176.303 190.905 176.158 190.265 176.158 189.528C176.158 188.8 176.303 188.165 176.592 187.624C176.882 187.073 177.283 186.649 177.796 186.35C178.319 186.042 178.921 185.888 179.602 185.888C180.274 185.888 180.853 186.042 181.338 186.35C181.833 186.649 182.211 187.045 182.472 187.54C182.734 188.035 182.864 188.567 182.864 189.136C182.864 189.239 182.86 189.341 182.85 189.444C182.85 189.547 182.85 189.663 182.85 189.794H177.32C177.348 190.326 177.47 190.769 177.684 191.124C177.908 191.469 178.184 191.731 178.51 191.908C178.846 192.085 179.201 192.174 179.574 192.174C180.06 192.174 180.466 192.062 180.792 191.838C181.119 191.614 181.357 191.311 181.506 190.928H182.668C182.482 191.572 182.122 192.109 181.59 192.538C181.068 192.958 180.396 193.168 179.574 193.168ZM179.574 186.882C179.014 186.882 178.515 187.055 178.076 187.4C177.647 187.736 177.4 188.231 177.334 188.884H181.702C181.674 188.259 181.46 187.769 181.058 187.414C180.657 187.059 180.162 186.882 179.574 186.882ZM187.833 193.168C187.002 193.168 186.312 192.958 185.761 192.538C185.21 192.118 184.888 191.549 184.795 190.83H185.999C186.074 191.194 186.265 191.511 186.573 191.782C186.89 192.043 187.315 192.174 187.847 192.174C188.342 192.174 188.706 192.071 188.939 191.866C189.172 191.651 189.289 191.399 189.289 191.11C189.289 190.69 189.135 190.41 188.827 190.27C188.528 190.13 188.104 190.004 187.553 189.892C187.18 189.817 186.806 189.71 186.433 189.57C186.06 189.43 185.747 189.234 185.495 188.982C185.243 188.721 185.117 188.38 185.117 187.96C185.117 187.353 185.341 186.859 185.789 186.476C186.246 186.084 186.862 185.888 187.637 185.888C188.374 185.888 188.976 186.075 189.443 186.448C189.919 186.812 190.194 187.335 190.269 188.016H189.107C189.06 187.661 188.906 187.386 188.645 187.19C188.393 186.985 188.052 186.882 187.623 186.882C187.203 186.882 186.876 186.971 186.643 187.148C186.419 187.325 186.307 187.559 186.307 187.848C186.307 188.128 186.452 188.347 186.741 188.506C187.04 188.665 187.441 188.8 187.945 188.912C188.374 189.005 188.78 189.122 189.163 189.262C189.555 189.393 189.872 189.593 190.115 189.864C190.367 190.125 190.493 190.508 190.493 191.012C190.502 191.637 190.264 192.155 189.779 192.566C189.303 192.967 188.654 193.168 187.833 193.168ZM200.528 193.168C199.837 193.168 199.231 193.009 198.708 192.692C198.195 192.375 197.793 191.941 197.504 191.39C197.224 190.839 197.084 190.214 197.084 189.514C197.084 188.814 197.229 188.193 197.518 187.652C197.807 187.101 198.209 186.672 198.722 186.364C199.235 186.047 199.842 185.888 200.542 185.888C201.111 185.888 201.615 186.005 202.054 186.238C202.493 186.471 202.833 186.798 203.076 187.218V182.92H204.252V193H203.188L203.076 191.852C202.852 192.188 202.53 192.491 202.11 192.762C201.69 193.033 201.163 193.168 200.528 193.168ZM200.654 192.146C201.121 192.146 201.531 192.039 201.886 191.824C202.25 191.6 202.53 191.292 202.726 190.9C202.931 190.508 203.034 190.051 203.034 189.528C203.034 189.005 202.931 188.548 202.726 188.156C202.53 187.764 202.25 187.461 201.886 187.246C201.531 187.022 201.121 186.91 200.654 186.91C200.197 186.91 199.786 187.022 199.422 187.246C199.067 187.461 198.787 187.764 198.582 188.156C198.386 188.548 198.288 189.005 198.288 189.528C198.288 190.051 198.386 190.508 198.582 190.9C198.787 191.292 199.067 191.6 199.422 191.824C199.786 192.039 200.197 192.146 200.654 192.146ZM209.229 193.168C208.65 193.168 208.17 193.07 207.787 192.874C207.404 192.678 207.12 192.417 206.933 192.09C206.746 191.763 206.653 191.409 206.653 191.026C206.653 190.317 206.924 189.771 207.465 189.388C208.006 189.005 208.744 188.814 209.677 188.814H211.553V188.73C211.553 188.123 211.394 187.666 211.077 187.358C210.76 187.041 210.335 186.882 209.803 186.882C209.346 186.882 208.949 186.999 208.613 187.232C208.286 187.456 208.081 187.787 207.997 188.226H206.793C206.84 187.722 207.008 187.297 207.297 186.952C207.596 186.607 207.964 186.345 208.403 186.168C208.842 185.981 209.308 185.888 209.803 185.888C210.774 185.888 211.502 186.149 211.987 186.672C212.482 187.185 212.729 187.871 212.729 188.73V193H211.679L211.609 191.754C211.413 192.146 211.124 192.482 210.741 192.762C210.368 193.033 209.864 193.168 209.229 193.168ZM209.411 192.174C209.859 192.174 210.242 192.057 210.559 191.824C210.886 191.591 211.133 191.287 211.301 190.914C211.469 190.541 211.553 190.149 211.553 189.738V189.724H209.775C209.084 189.724 208.594 189.845 208.305 190.088C208.025 190.321 207.885 190.615 207.885 190.97C207.885 191.334 208.016 191.628 208.277 191.852C208.548 192.067 208.926 192.174 209.411 192.174ZM219.698 193V186.056H220.762L220.832 187.302C221.056 186.863 221.378 186.518 221.798 186.266C222.218 186.014 222.694 185.888 223.226 185.888C224.048 185.888 224.701 186.14 225.186 186.644C225.681 187.139 225.928 187.904 225.928 188.94V193H224.752V189.066C224.752 187.619 224.155 186.896 222.96 186.896C222.363 186.896 221.864 187.115 221.462 187.554C221.07 187.983 220.874 188.599 220.874 189.402V193H219.698ZM231.624 193.168C230.971 193.168 230.383 193.019 229.86 192.72C229.337 192.421 228.922 192.001 228.614 191.46C228.315 190.909 228.166 190.265 228.166 189.528C228.166 188.791 228.32 188.151 228.628 187.61C228.936 187.059 229.351 186.635 229.874 186.336C230.406 186.037 230.999 185.888 231.652 185.888C232.305 185.888 232.893 186.037 233.416 186.336C233.939 186.635 234.349 187.059 234.648 187.61C234.956 188.151 235.11 188.791 235.11 189.528C235.11 190.265 234.956 190.909 234.648 191.46C234.34 192.001 233.92 192.421 233.388 192.72C232.865 193.019 232.277 193.168 231.624 193.168ZM231.624 192.16C232.025 192.16 232.399 192.062 232.744 191.866C233.089 191.67 233.369 191.376 233.584 190.984C233.799 190.592 233.906 190.107 233.906 189.528C233.906 188.949 233.799 188.464 233.584 188.072C233.379 187.68 233.103 187.386 232.758 187.19C232.413 186.994 232.044 186.896 231.652 186.896C231.251 186.896 230.877 186.994 230.532 187.19C230.187 187.386 229.907 187.68 229.692 188.072C229.477 188.464 229.37 188.949 229.37 189.528C229.37 190.107 229.477 190.592 229.692 190.984C229.907 191.376 230.182 191.67 230.518 191.866C230.863 192.062 231.232 192.16 231.624 192.16ZM239.142 193L236.51 186.056H237.742L239.828 191.866L241.928 186.056H243.132L240.5 193H239.142ZM247.145 193.168C246.566 193.168 246.086 193.07 245.703 192.874C245.32 192.678 245.036 192.417 244.849 192.09C244.662 191.763 244.569 191.409 244.569 191.026C244.569 190.317 244.84 189.771 245.381 189.388C245.922 189.005 246.66 188.814 247.593 188.814H249.469V188.73C249.469 188.123 249.31 187.666 248.993 187.358C248.676 187.041 248.251 186.882 247.719 186.882C247.262 186.882 246.865 186.999 246.529 187.232C246.202 187.456 245.997 187.787 245.913 188.226H244.709C244.756 187.722 244.924 187.297 245.213 186.952C245.512 186.607 245.88 186.345 246.319 186.168C246.758 185.981 247.224 185.888 247.719 185.888C248.69 185.888 249.418 186.149 249.903 186.672C250.398 187.185 250.645 187.871 250.645 188.73V193H249.595L249.525 191.754C249.329 192.146 249.04 192.482 248.657 192.762C248.284 193.033 247.78 193.168 247.145 193.168ZM247.327 192.174C247.775 192.174 248.158 192.057 248.475 191.824C248.802 191.591 249.049 191.287 249.217 190.914C249.385 190.541 249.469 190.149 249.469 189.738V189.724H247.691C247 189.724 246.51 189.845 246.221 190.088C245.941 190.321 245.801 190.615 245.801 190.97C245.801 191.334 245.932 191.628 246.193 191.852C246.464 192.067 246.842 192.174 247.327 192.174ZM37.7444 217L35.1124 210.056H36.3444L38.4304 215.866L40.5304 210.056H41.7344L39.1024 217H37.7444ZM45.7477 217.168C45.169 217.168 44.6883 217.07 44.3057 216.874C43.923 216.678 43.6383 216.417 43.4517 216.09C43.265 215.763 43.1717 215.409 43.1717 215.026C43.1717 214.317 43.4423 213.771 43.9837 213.388C44.525 213.005 45.2623 212.814 46.1957 212.814H48.0717V212.73C48.0717 212.123 47.913 211.666 47.5957 211.358C47.2783 211.041 46.8537 210.882 46.3217 210.882C45.8643 210.882 45.4677 210.999 45.1317 211.232C44.805 211.456 44.5997 211.787 44.5157 212.226H43.3117C43.3583 211.722 43.5263 211.297 43.8157 210.952C44.1143 210.607 44.483 210.345 44.9217 210.168C45.3603 209.981 45.827 209.888 46.3217 209.888C47.2923 209.888 48.0203 210.149 48.5057 210.672C49.0003 211.185 49.2477 211.871 49.2477 212.73V217H48.1977L48.1277 215.754C47.9317 216.146 47.6423 216.482 47.2597 216.762C46.8863 217.033 46.3823 217.168 45.7477 217.168ZM45.9297 216.174C46.3777 216.174 46.7603 216.057 47.0777 215.824C47.4043 215.591 47.6517 215.287 47.8197 214.914C47.9877 214.541 48.0717 214.149 48.0717 213.738V213.724H46.2937C45.603 213.724 45.113 213.845 44.8237 214.088C44.5437 214.321 44.4037 214.615 44.4037 214.97C44.4037 215.334 44.5343 215.628 44.7957 215.852C45.0663 216.067 45.4443 216.174 45.9297 216.174ZM54.5059 214.816C54.1139 214.816 53.7546 214.765 53.4279 214.662L52.7279 215.32C52.8306 215.395 52.9566 215.46 53.1059 215.516C53.2646 215.563 53.4886 215.609 53.7779 215.656C54.0672 215.693 54.4732 215.735 54.9959 215.782C55.9292 215.847 56.5966 216.062 56.9979 216.426C57.3992 216.79 57.5999 217.266 57.5999 217.854C57.5999 218.255 57.4879 218.638 57.2639 219.002C57.0492 219.366 56.7132 219.665 56.2559 219.898C55.8079 220.131 55.2292 220.248 54.5199 220.248C53.8946 220.248 53.3392 220.164 52.8539 219.996C52.3686 219.837 51.9906 219.59 51.7199 219.254C51.4492 218.927 51.3139 218.512 51.3139 218.008C51.3139 217.747 51.3839 217.462 51.5239 217.154C51.6639 216.855 51.9252 216.571 52.3079 216.3C52.1026 216.216 51.9252 216.127 51.7759 216.034C51.6359 215.931 51.5052 215.819 51.3839 215.698V215.376L52.5739 214.2C52.0232 213.733 51.7479 213.117 51.7479 212.352C51.7479 211.895 51.8552 211.479 52.0699 211.106C52.2846 210.733 52.5972 210.439 53.0079 210.224C53.4186 210 53.9179 209.888 54.5059 209.888C54.9072 209.888 55.2712 209.944 55.5979 210.056H58.1599V210.938L56.8579 210.994C57.1286 211.386 57.2639 211.839 57.2639 212.352C57.2639 212.809 57.1519 213.225 56.9279 213.598C56.7132 213.971 56.4006 214.27 55.9899 214.494C55.5886 214.709 55.0939 214.816 54.5059 214.816ZM54.5059 213.85C55.0006 213.85 55.3926 213.724 55.6819 213.472C55.9806 213.211 56.1299 212.837 56.1299 212.352C56.1299 211.876 55.9806 211.512 55.6819 211.26C55.3926 210.999 55.0006 210.868 54.5059 210.868C54.0019 210.868 53.6006 210.999 53.3019 211.26C53.0126 211.512 52.8679 211.876 52.8679 212.352C52.8679 212.837 53.0126 213.211 53.3019 213.472C53.6006 213.724 54.0019 213.85 54.5059 213.85ZM52.4619 217.896C52.4619 218.363 52.6579 218.708 53.0499 218.932C53.4419 219.165 53.9319 219.282 54.5199 219.282C55.0986 219.282 55.5606 219.156 55.9059 218.904C56.2606 218.652 56.4379 218.316 56.4379 217.896C56.4379 217.597 56.3166 217.336 56.0739 217.112C55.8312 216.897 55.3832 216.771 54.7299 216.734C54.2166 216.697 53.7732 216.65 53.3999 216.594C53.0172 216.799 52.7652 217.019 52.6439 217.252C52.5226 217.495 52.4619 217.709 52.4619 217.896ZM62.5465 217.168C61.9678 217.168 61.4872 217.07 61.1045 216.874C60.7218 216.678 60.4372 216.417 60.2505 216.09C60.0638 215.763 59.9705 215.409 59.9705 215.026C59.9705 214.317 60.2412 213.771 60.7825 213.388C61.3238 213.005 62.0612 212.814 62.9945 212.814H64.8705V212.73C64.8705 212.123 64.7118 211.666 64.3945 211.358C64.0772 211.041 63.6525 210.882 63.1205 210.882C62.6632 210.882 62.2665 210.999 61.9305 211.232C61.6038 211.456 61.3985 211.787 61.3145 212.226H60.1105C60.1572 211.722 60.3252 211.297 60.6145 210.952C60.9132 210.607 61.2818 210.345 61.7205 210.168C62.1592 209.981 62.6258 209.888 63.1205 209.888C64.0912 209.888 64.8192 210.149 65.3045 210.672C65.7992 211.185 66.0465 211.871 66.0465 212.73V217H64.9965L64.9265 215.754C64.7305 216.146 64.4412 216.482 64.0585 216.762C63.6852 217.033 63.1812 217.168 62.5465 217.168ZM62.7285 216.174C63.1765 216.174 63.5592 216.057 63.8765 215.824C64.2032 215.591 64.4505 215.287 64.6185 214.914C64.7865 214.541 64.8705 214.149 64.8705 213.738V213.724H63.0925C62.4018 213.724 61.9118 213.845 61.6225 214.088C61.3425 214.321 61.2025 214.615 61.2025 214.97C61.2025 215.334 61.3332 215.628 61.5945 215.852C61.8652 216.067 62.2432 216.174 62.7285 216.174ZM76.1378 217.168C75.4751 217.168 74.8871 217.019 74.3738 216.72C73.8605 216.412 73.4545 215.987 73.1558 215.446C72.8665 214.905 72.7218 214.265 72.7218 213.528C72.7218 212.8 72.8665 212.165 73.1558 211.624C73.4451 211.073 73.8465 210.649 74.3598 210.35C74.8825 210.042 75.4845 209.888 76.1658 209.888C76.8378 209.888 77.4165 210.042 77.9018 210.35C78.3965 210.649 78.7745 211.045 79.0358 211.54C79.2971 212.035 79.4278 212.567 79.4278 213.136C79.4278 213.239 79.4231 213.341 79.4138 213.444C79.4138 213.547 79.4138 213.663 79.4138 213.794H73.8838C73.9118 214.326 74.0331 214.769 74.2478 215.124C74.4718 215.469 74.7471 215.731 75.0738 215.908C75.4098 216.085 75.7645 216.174 76.1378 216.174C76.6231 216.174 77.0291 216.062 77.3558 215.838C77.6825 215.614 77.9205 215.311 78.0698 214.928H79.2318C79.0451 215.572 78.6858 216.109 78.1538 216.538C77.6311 216.958 76.9591 217.168 76.1378 217.168ZM76.1378 210.882C75.5778 210.882 75.0785 211.055 74.6398 211.4C74.2105 211.736 73.9631 212.231 73.8978 212.884H78.2658C78.2378 212.259 78.0231 211.769 77.6218 211.414C77.2205 211.059 76.7258 210.882 76.1378 210.882ZM86.1916 217V210.056H87.2556L87.3536 211.386C87.5683 210.929 87.8949 210.565 88.3336 210.294C88.7723 210.023 89.3136 209.888 89.9576 209.888V211.12H89.6356C89.2249 211.12 88.8469 211.195 88.5016 211.344C88.1563 211.484 87.8809 211.727 87.6756 212.072C87.4703 212.417 87.3676 212.893 87.3676 213.5V217H86.1916ZM94.8898 217.168C94.2271 217.168 93.6391 217.019 93.1258 216.72C92.6124 216.412 92.2064 215.987 91.9078 215.446C91.6184 214.905 91.4738 214.265 91.4738 213.528C91.4738 212.8 91.6184 212.165 91.9078 211.624C92.1971 211.073 92.5984 210.649 93.1118 210.35C93.6344 210.042 94.2364 209.888 94.9178 209.888C95.5898 209.888 96.1684 210.042 96.6538 210.35C97.1484 210.649 97.5264 211.045 97.7878 211.54C98.0491 212.035 98.1798 212.567 98.1798 213.136C98.1798 213.239 98.1751 213.341 98.1658 213.444C98.1658 213.547 98.1658 213.663 98.1658 213.794H92.6358C92.6638 214.326 92.7851 214.769 92.9998 215.124C93.2238 215.469 93.4991 215.731 93.8258 215.908C94.1618 216.085 94.5164 216.174 94.8898 216.174C95.3751 216.174 95.7811 216.062 96.1078 215.838C96.4344 215.614 96.6724 215.311 96.8218 214.928H97.9838C97.7971 215.572 97.4378 216.109 96.9058 216.538C96.3831 216.958 95.7111 217.168 94.8898 217.168ZM94.8898 210.882C94.3298 210.882 93.8304 211.055 93.3918 211.4C92.9624 211.736 92.7151 212.231 92.6498 212.884H97.0178C96.9898 212.259 96.7751 211.769 96.3738 211.414C95.9724 211.059 95.4778 210.882 94.8898 210.882ZM102.798 217.168C102.22 217.168 101.739 217.07 101.356 216.874C100.974 216.678 100.689 216.417 100.502 216.09C100.316 215.763 100.222 215.409 100.222 215.026C100.222 214.317 100.493 213.771 101.034 213.388C101.576 213.005 102.313 212.814 103.246 212.814H105.122V212.73C105.122 212.123 104.964 211.666 104.646 211.358C104.329 211.041 103.904 210.882 103.372 210.882C102.915 210.882 102.518 210.999 102.182 211.232C101.856 211.456 101.65 211.787 101.566 212.226H100.362C100.409 211.722 100.577 211.297 100.866 210.952C101.165 210.607 101.534 210.345 101.972 210.168C102.411 209.981 102.878 209.888 103.372 209.888C104.343 209.888 105.071 210.149 105.556 210.672C106.051 211.185 106.298 211.871 106.298 212.73V217H105.248L105.178 215.754C104.982 216.146 104.693 216.482 104.31 216.762C103.937 217.033 103.433 217.168 102.798 217.168ZM102.98 216.174C103.428 216.174 103.811 216.057 104.128 215.824C104.455 215.591 104.702 215.287 104.87 214.914C105.038 214.541 105.122 214.149 105.122 213.738V213.724H103.344C102.654 213.724 102.164 213.845 101.874 214.088C101.594 214.321 101.454 214.615 101.454 214.97C101.454 215.334 101.585 215.628 101.846 215.852C102.117 216.067 102.495 216.174 102.98 216.174ZM108.813 217V206.92H109.989V217H108.813ZM113.38 208.516C113.147 208.516 112.951 208.441 112.792 208.292C112.643 208.133 112.568 207.937 112.568 207.704C112.568 207.48 112.643 207.293 112.792 207.144C112.951 206.995 113.147 206.92 113.38 206.92C113.604 206.92 113.796 206.995 113.954 207.144C114.113 207.293 114.192 207.48 114.192 207.704C114.192 207.937 114.113 208.133 113.954 208.292C113.796 208.441 113.604 208.516 113.38 208.516ZM112.792 217V210.056H113.968V217H112.792ZM116.29 217V216.034L120.154 211.036H116.36V210.056H121.47V211.022L117.606 216.02H121.54V217H116.29ZM126.968 217.168C126.305 217.168 125.717 217.019 125.204 216.72C124.691 216.412 124.285 215.987 123.986 215.446C123.697 214.905 123.552 214.265 123.552 213.528C123.552 212.8 123.697 212.165 123.986 211.624C124.275 211.073 124.677 210.649 125.19 210.35C125.713 210.042 126.315 209.888 126.996 209.888C127.668 209.888 128.247 210.042 128.732 210.35C129.227 210.649 129.605 211.045 129.866 211.54C130.127 212.035 130.258 212.567 130.258 213.136C130.258 213.239 130.253 213.341 130.244 213.444C130.244 213.547 130.244 213.663 130.244 213.794H124.714C124.742 214.326 124.863 214.769 125.078 215.124C125.302 215.469 125.577 215.731 125.904 215.908C126.24 216.085 126.595 216.174 126.968 216.174C127.453 216.174 127.859 216.062 128.186 215.838C128.513 215.614 128.751 215.311 128.9 214.928H130.062C129.875 215.572 129.516 216.109 128.984 216.538C128.461 216.958 127.789 217.168 126.968 217.168ZM126.968 210.882C126.408 210.882 125.909 211.055 125.47 211.4C125.041 211.736 124.793 212.231 124.728 212.884H129.096C129.068 212.259 128.853 211.769 128.452 211.414C128.051 211.059 127.556 210.882 126.968 210.882ZM140.186 217.168C139.532 217.168 138.944 217.019 138.422 216.72C137.899 216.421 137.484 216.001 137.176 215.46C136.877 214.909 136.728 214.265 136.728 213.528C136.728 212.791 136.882 212.151 137.19 211.61C137.498 211.059 137.913 210.635 138.436 210.336C138.968 210.037 139.56 209.888 140.214 209.888C140.867 209.888 141.455 210.037 141.978 210.336C142.5 210.635 142.911 211.059 143.21 211.61C143.518 212.151 143.672 212.791 143.672 213.528C143.672 214.265 143.518 214.909 143.21 215.46C142.902 216.001 142.482 216.421 141.95 216.72C141.427 217.019 140.839 217.168 140.186 217.168ZM140.186 216.16C140.587 216.16 140.96 216.062 141.306 215.866C141.651 215.67 141.931 215.376 142.146 214.984C142.36 214.592 142.468 214.107 142.468 213.528C142.468 212.949 142.36 212.464 142.146 212.072C141.94 211.68 141.665 211.386 141.32 211.19C140.974 210.994 140.606 210.896 140.214 210.896C139.812 210.896 139.439 210.994 139.094 211.19C138.748 211.386 138.468 211.68 138.254 212.072C138.039 212.464 137.932 212.949 137.932 213.528C137.932 214.107 138.039 214.592 138.254 214.984C138.468 215.376 138.744 215.67 139.08 215.866C139.425 216.062 139.794 216.16 140.186 216.16ZM150.512 220.08V210.056H151.576L151.688 211.204C151.912 210.868 152.229 210.565 152.64 210.294C153.06 210.023 153.592 209.888 154.236 209.888C154.927 209.888 155.529 210.047 156.042 210.364C156.555 210.681 156.952 211.115 157.232 211.666C157.521 212.217 157.666 212.842 157.666 213.542C157.666 214.242 157.521 214.867 157.232 215.418C156.952 215.959 156.551 216.389 156.028 216.706C155.515 217.014 154.913 217.168 154.222 217.168C153.653 217.168 153.144 217.051 152.696 216.818C152.257 216.585 151.921 216.258 151.688 215.838V220.08H150.512ZM154.096 216.146C154.563 216.146 154.973 216.039 155.328 215.824C155.683 215.6 155.963 215.292 156.168 214.9C156.373 214.508 156.476 214.051 156.476 213.528C156.476 213.005 156.373 212.548 156.168 212.156C155.963 211.764 155.683 211.461 155.328 211.246C154.973 211.022 154.563 210.91 154.096 210.91C153.629 210.91 153.219 211.022 152.864 211.246C152.509 211.461 152.229 211.764 152.024 212.156C151.819 212.548 151.716 213.005 151.716 213.528C151.716 214.051 151.819 214.508 152.024 214.9C152.229 215.292 152.509 215.6 152.864 215.824C153.219 216.039 153.629 216.146 154.096 216.146ZM162.363 217.168C161.784 217.168 161.304 217.07 160.921 216.874C160.538 216.678 160.254 216.417 160.067 216.09C159.88 215.763 159.787 215.409 159.787 215.026C159.787 214.317 160.058 213.771 160.599 213.388C161.14 213.005 161.878 212.814 162.811 212.814H164.687V212.73C164.687 212.123 164.528 211.666 164.211 211.358C163.894 211.041 163.469 210.882 162.937 210.882C162.48 210.882 162.083 210.999 161.747 211.232C161.42 211.456 161.215 211.787 161.131 212.226H159.927C159.974 211.722 160.142 211.297 160.431 210.952C160.73 210.607 161.098 210.345 161.537 210.168C161.976 209.981 162.442 209.888 162.937 209.888C163.908 209.888 164.636 210.149 165.121 210.672C165.616 211.185 165.863 211.871 165.863 212.73V217H164.813L164.743 215.754C164.547 216.146 164.258 216.482 163.875 216.762C163.502 217.033 162.998 217.168 162.363 217.168ZM162.545 216.174C162.993 216.174 163.376 216.057 163.693 215.824C164.02 215.591 164.267 215.287 164.435 214.914C164.603 214.541 164.687 214.149 164.687 213.738V213.724H162.909C162.218 213.724 161.728 213.845 161.439 214.088C161.159 214.321 161.019 214.615 161.019 214.97C161.019 215.334 161.15 215.628 161.411 215.852C161.682 216.067 162.06 216.174 162.545 216.174ZM171.121 214.816C170.729 214.816 170.37 214.765 170.043 214.662L169.343 215.32C169.446 215.395 169.572 215.46 169.721 215.516C169.88 215.563 170.104 215.609 170.393 215.656C170.682 215.693 171.088 215.735 171.611 215.782C172.544 215.847 173.212 216.062 173.613 216.426C174.014 216.79 174.215 217.266 174.215 217.854C174.215 218.255 174.103 218.638 173.879 219.002C173.664 219.366 173.328 219.665 172.871 219.898C172.423 220.131 171.844 220.248 171.135 220.248C170.51 220.248 169.954 220.164 169.469 219.996C168.984 219.837 168.606 219.59 168.335 219.254C168.064 218.927 167.929 218.512 167.929 218.008C167.929 217.747 167.999 217.462 168.139 217.154C168.279 216.855 168.54 216.571 168.923 216.3C168.718 216.216 168.54 216.127 168.391 216.034C168.251 215.931 168.12 215.819 167.999 215.698V215.376L169.189 214.2C168.638 213.733 168.363 213.117 168.363 212.352C168.363 211.895 168.47 211.479 168.685 211.106C168.9 210.733 169.212 210.439 169.623 210.224C170.034 210 170.533 209.888 171.121 209.888C171.522 209.888 171.886 209.944 172.213 210.056H174.775V210.938L173.473 210.994C173.744 211.386 173.879 211.839 173.879 212.352C173.879 212.809 173.767 213.225 173.543 213.598C173.328 213.971 173.016 214.27 172.605 214.494C172.204 214.709 171.709 214.816 171.121 214.816ZM171.121 213.85C171.616 213.85 172.008 213.724 172.297 213.472C172.596 213.211 172.745 212.837 172.745 212.352C172.745 211.876 172.596 211.512 172.297 211.26C172.008 210.999 171.616 210.868 171.121 210.868C170.617 210.868 170.216 210.999 169.917 211.26C169.628 211.512 169.483 211.876 169.483 212.352C169.483 212.837 169.628 213.211 169.917 213.472C170.216 213.724 170.617 213.85 171.121 213.85ZM169.077 217.896C169.077 218.363 169.273 218.708 169.665 218.932C170.057 219.165 170.547 219.282 171.135 219.282C171.714 219.282 172.176 219.156 172.521 218.904C172.876 218.652 173.053 218.316 173.053 217.896C173.053 217.597 172.932 217.336 172.689 217.112C172.446 216.897 171.998 216.771 171.345 216.734C170.832 216.697 170.388 216.65 170.015 216.594C169.632 216.799 169.38 217.019 169.259 217.252C169.138 217.495 169.077 217.709 169.077 217.896ZM179.162 217.168C178.583 217.168 178.102 217.07 177.72 216.874C177.337 216.678 177.052 216.417 176.866 216.09C176.679 215.763 176.586 215.409 176.586 215.026C176.586 214.317 176.856 213.771 177.398 213.388C177.939 213.005 178.676 212.814 179.61 212.814H181.486V212.73C181.486 212.123 181.327 211.666 181.01 211.358C180.692 211.041 180.268 210.882 179.736 210.882C179.278 210.882 178.882 210.999 178.546 211.232C178.219 211.456 178.014 211.787 177.93 212.226H176.726C176.772 211.722 176.94 211.297 177.23 210.952C177.528 210.607 177.897 210.345 178.336 210.168C178.774 209.981 179.241 209.888 179.736 209.888C180.706 209.888 181.434 210.149 181.92 210.672C182.414 211.185 182.662 211.871 182.662 212.73V217H181.612L181.542 215.754C181.346 216.146 181.056 216.482 180.674 216.762C180.3 217.033 179.796 217.168 179.162 217.168ZM179.344 216.174C179.792 216.174 180.174 216.057 180.492 215.824C180.818 215.591 181.066 215.287 181.234 214.914C181.402 214.541 181.486 214.149 181.486 213.738V213.724H179.708C179.017 213.724 178.527 213.845 178.238 214.088C177.958 214.321 177.818 214.615 177.818 214.97C177.818 215.334 177.948 215.628 178.21 215.852C178.48 216.067 178.858 216.174 179.344 216.174ZM185.176 217V210.056H186.24L186.324 211.064C186.548 210.691 186.847 210.401 187.22 210.196C187.593 209.991 188.013 209.888 188.48 209.888C189.031 209.888 189.502 210 189.894 210.224C190.295 210.448 190.603 210.789 190.818 211.246C191.061 210.826 191.392 210.495 191.812 210.252C192.241 210.009 192.703 209.888 193.198 209.888C194.029 209.888 194.691 210.14 195.186 210.644C195.681 211.139 195.928 211.904 195.928 212.94V217H194.766V213.066C194.766 212.347 194.621 211.806 194.332 211.442C194.043 211.078 193.627 210.896 193.086 210.896C192.526 210.896 192.059 211.115 191.686 211.554C191.322 211.983 191.14 212.599 191.14 213.402V217H189.964V213.066C189.964 212.347 189.819 211.806 189.53 211.442C189.241 211.078 188.825 210.896 188.284 210.896C187.733 210.896 187.271 211.115 186.898 211.554C186.534 211.983 186.352 212.599 186.352 213.402V217H185.176ZM201.571 217.168C200.909 217.168 200.321 217.019 199.807 216.72C199.294 216.412 198.888 215.987 198.589 215.446C198.3 214.905 198.155 214.265 198.155 213.528C198.155 212.8 198.3 212.165 198.589 211.624C198.879 211.073 199.28 210.649 199.793 210.35C200.316 210.042 200.918 209.888 201.599 209.888C202.271 209.888 202.85 210.042 203.335 210.35C203.83 210.649 204.208 211.045 204.469 211.54C204.731 212.035 204.861 212.567 204.861 213.136C204.861 213.239 204.857 213.341 204.847 213.444C204.847 213.547 204.847 213.663 204.847 213.794H199.317C199.345 214.326 199.467 214.769 199.681 215.124C199.905 215.469 200.181 215.731 200.507 215.908C200.843 216.085 201.198 216.174 201.571 216.174C202.057 216.174 202.463 216.062 202.789 215.838C203.116 215.614 203.354 215.311 203.503 214.928H204.665C204.479 215.572 204.119 216.109 203.587 216.538C203.065 216.958 202.393 217.168 201.571 217.168ZM201.571 210.882C201.011 210.882 200.512 211.055 200.073 211.4C199.644 211.736 199.397 212.231 199.331 212.884H203.699C203.671 212.259 203.457 211.769 203.055 211.414C202.654 211.059 202.159 210.882 201.571 210.882ZM207.17 217V210.056H208.234L208.304 211.302C208.528 210.863 208.85 210.518 209.27 210.266C209.69 210.014 210.166 209.888 210.698 209.888C211.519 209.888 212.173 210.14 212.658 210.644C213.153 211.139 213.4 211.904 213.4 212.94V217H212.224V213.066C212.224 211.619 211.627 210.896 210.432 210.896C209.835 210.896 209.335 211.115 208.934 211.554C208.542 211.983 208.346 212.599 208.346 213.402V217H207.17ZM218.676 217C218.041 217 217.542 216.846 217.178 216.538C216.814 216.23 216.632 215.675 216.632 214.872V211.05H215.428V210.056H216.632L216.786 208.39H217.808V210.056H219.852V211.05H217.808V214.872C217.808 215.311 217.896 215.609 218.074 215.768C218.251 215.917 218.564 215.992 219.012 215.992H219.74V217H218.676ZM225.068 217.168C224.415 217.168 223.827 217.019 223.304 216.72C222.782 216.421 222.366 216.001 222.058 215.46C221.76 214.909 221.61 214.265 221.61 213.528C221.61 212.791 221.764 212.151 222.072 211.61C222.38 211.059 222.796 210.635 223.318 210.336C223.85 210.037 224.443 209.888 225.096 209.888C225.75 209.888 226.338 210.037 226.86 210.336C227.383 210.635 227.794 211.059 228.092 211.61C228.4 212.151 228.554 212.791 228.554 213.528C228.554 214.265 228.4 214.909 228.092 215.46C227.784 216.001 227.364 216.421 226.832 216.72C226.31 217.019 225.722 217.168 225.068 217.168ZM225.068 216.16C225.47 216.16 225.843 216.062 226.188 215.866C226.534 215.67 226.814 215.376 227.028 214.984C227.243 214.592 227.35 214.107 227.35 213.528C227.35 212.949 227.243 212.464 227.028 212.072C226.823 211.68 226.548 211.386 226.202 211.19C225.857 210.994 225.488 210.896 225.096 210.896C224.695 210.896 224.322 210.994 223.976 211.19C223.631 211.386 223.351 211.68 223.136 212.072C222.922 212.464 222.814 212.949 222.814 213.528C222.814 214.107 222.922 214.592 223.136 214.984C223.351 215.376 223.626 215.67 223.962 215.866C224.308 216.062 224.676 216.16 225.068 216.16Z" fill="#333333"/>
<rect x="90" y="134" width="83" height="34" rx="17" fill="url(#paint1_linear_2684_1232)"/>
<path d="M105.348 156V146.2H111.578V147.404H106.832V150.456H111.158V151.632H106.832V154.796H111.578V156H105.348ZM116.952 156C116.27 156 115.729 155.837 115.328 155.51C114.926 155.174 114.726 154.581 114.726 153.732V150.302H113.536V149.056H114.726L114.908 147.292H116.21V149.056H118.17V150.302H116.21V153.732C116.21 154.115 116.289 154.381 116.448 154.53C116.616 154.67 116.9 154.74 117.302 154.74H118.1V156H116.952ZM122.802 156.168C122.214 156.168 121.728 156.07 121.346 155.874C120.963 155.678 120.678 155.421 120.492 155.104C120.305 154.777 120.212 154.423 120.212 154.04C120.212 153.368 120.473 152.836 120.996 152.444C121.518 152.052 122.265 151.856 123.236 151.856H125.056V151.73C125.056 151.189 124.906 150.783 124.608 150.512C124.318 150.241 123.94 150.106 123.474 150.106C123.063 150.106 122.704 150.209 122.396 150.414C122.097 150.61 121.915 150.904 121.85 151.296H120.366C120.412 150.792 120.58 150.363 120.87 150.008C121.168 149.644 121.542 149.369 121.99 149.182C122.447 148.986 122.946 148.888 123.488 148.888C124.458 148.888 125.21 149.145 125.742 149.658C126.274 150.162 126.54 150.853 126.54 151.73V156H125.252L125.126 154.81C124.93 155.193 124.645 155.515 124.272 155.776C123.898 156.037 123.408 156.168 122.802 156.168ZM123.096 154.964C123.497 154.964 123.833 154.871 124.104 154.684C124.384 154.488 124.598 154.231 124.748 153.914C124.906 153.597 125.004 153.247 125.042 152.864H123.39C122.802 152.864 122.382 152.967 122.13 153.172C121.887 153.377 121.766 153.634 121.766 153.942C121.766 154.259 121.882 154.511 122.116 154.698C122.358 154.875 122.685 154.964 123.096 154.964ZM129.02 159.08V149.056H130.35L130.504 150.134C130.728 149.807 131.036 149.518 131.428 149.266C131.82 149.014 132.324 148.888 132.94 148.888C133.612 148.888 134.205 149.047 134.718 149.364C135.231 149.681 135.633 150.115 135.922 150.666C136.221 151.217 136.37 151.842 136.37 152.542C136.37 153.242 136.221 153.867 135.922 154.418C135.633 154.959 135.231 155.389 134.718 155.706C134.205 156.014 133.607 156.168 132.926 156.168C132.385 156.168 131.904 156.061 131.484 155.846C131.073 155.631 130.747 155.328 130.504 154.936V159.08H129.02ZM132.674 154.88C133.309 154.88 133.831 154.665 134.242 154.236C134.653 153.797 134.858 153.228 134.858 152.528C134.858 152.071 134.765 151.665 134.578 151.31C134.391 150.955 134.135 150.68 133.808 150.484C133.481 150.279 133.103 150.176 132.674 150.176C132.039 150.176 131.517 150.395 131.106 150.834C130.705 151.273 130.504 151.837 130.504 152.528C130.504 153.228 130.705 153.797 131.106 154.236C131.517 154.665 132.039 154.88 132.674 154.88ZM141.077 156.168C140.489 156.168 140.004 156.07 139.621 155.874C139.238 155.678 138.954 155.421 138.767 155.104C138.58 154.777 138.487 154.423 138.487 154.04C138.487 153.368 138.748 152.836 139.271 152.444C139.794 152.052 140.54 151.856 141.511 151.856H143.331V151.73C143.331 151.189 143.182 150.783 142.883 150.512C142.594 150.241 142.216 150.106 141.749 150.106C141.338 150.106 140.979 150.209 140.671 150.414C140.372 150.61 140.19 150.904 140.125 151.296H138.641C138.688 150.792 138.856 150.363 139.145 150.008C139.444 149.644 139.817 149.369 140.265 149.182C140.722 148.986 141.222 148.888 141.763 148.888C142.734 148.888 143.485 149.145 144.017 149.658C144.549 150.162 144.815 150.853 144.815 151.73V156H143.527L143.401 154.81C143.205 155.193 142.92 155.515 142.547 155.776C142.174 156.037 141.684 156.168 141.077 156.168ZM141.371 154.964C141.772 154.964 142.108 154.871 142.379 154.684C142.659 154.488 142.874 154.231 143.023 153.914C143.182 153.597 143.28 153.247 143.317 152.864H141.665C141.077 152.864 140.657 152.967 140.405 153.172C140.162 153.377 140.041 153.634 140.041 153.942C140.041 154.259 140.158 154.511 140.391 154.698C140.634 154.875 140.96 154.964 141.371 154.964ZM151.433 156V154.936C152.067 154.432 152.674 153.923 153.253 153.41C153.831 152.897 154.345 152.393 154.793 151.898C155.25 151.394 155.609 150.904 155.871 150.428C156.132 149.943 156.263 149.476 156.263 149.028C156.263 148.729 156.211 148.449 156.109 148.188C156.006 147.917 155.838 147.703 155.605 147.544C155.371 147.376 155.059 147.292 154.667 147.292C154.079 147.292 153.635 147.479 153.337 147.852C153.047 148.225 152.907 148.673 152.917 149.196H151.475C151.484 148.505 151.629 147.927 151.909 147.46C152.198 146.993 152.581 146.639 153.057 146.396C153.542 146.153 154.088 146.032 154.695 146.032C155.619 146.032 156.356 146.293 156.907 146.816C157.467 147.329 157.747 148.048 157.747 148.972C157.747 149.523 157.611 150.069 157.341 150.61C157.079 151.151 156.734 151.674 156.305 152.178C155.885 152.673 155.432 153.139 154.947 153.578C154.461 154.017 153.999 154.413 153.561 154.768H158.041V156H151.433Z" fill="#FCFCFC"/>
<path d="M132 96.6663C146.727 96.6663 158.666 84.7273 158.666 69.9997C158.666 55.2721 146.727 43.333 132 43.333C117.272 43.333 105.333 55.2721 105.333 69.9997C105.333 84.7273 117.272 96.6663 132 96.6663Z" stroke="#333333" stroke-width="4" stroke-linejoin="round"/>
<path d="M132 59.333V80.6663" stroke="#333333" stroke-width="4" stroke-linecap="round" stroke-linejoin="round"/>
<path d="M121.333 70H142.666" stroke="#333333" stroke-width="4" stroke-linecap="round" stroke-linejoin="round"/>
<defs>
<linearGradient id="paint0_linear_2684_1232" x1="0" y1="0" x2="317.415" y2="145.363" gradientUnits="userSpaceOnUse">
<stop stop-color="#FF4B00"/>
<stop offset="1" stop-color="#EE2F23"/>
</linearGradient>
<linearGradient id="paint1_linear_2684_1232" x1="90" y1="134" x2="144.112" y2="194.037" gradientUnits="userSpaceOnUse">
<stop stop-color="#FF4B00"/>
<stop offset="1" stop-color="#EE2F23"/>
</linearGradient>
</defs>
</svg>
