<svg width="264" height="262" viewBox="0 0 264 262" fill="none" xmlns="http://www.w3.org/2000/svg">
<rect x="0.5" y="0.5" width="263" height="261" rx="23.5" stroke="url(#paint0_linear_2684_1244)"/>
<path d="M15.1817 193L18.7937 183.2H20.0397L23.6377 193H22.3917L21.4957 190.48H17.3237L16.4137 193H15.1817ZM17.6737 189.528H21.1457L19.4097 184.684L17.6737 189.528ZM27.0657 193L24.4337 186.056H25.6657L27.7517 191.866L29.8517 186.056H31.0557L28.4237 193H27.0657ZM35.069 193.168C34.4903 193.168 34.0096 193.07 33.627 192.874C33.2443 192.678 32.9596 192.417 32.773 192.09C32.5863 191.763 32.493 191.409 32.493 191.026C32.493 190.317 32.7636 189.771 33.305 189.388C33.8463 189.005 34.5836 188.814 35.517 188.814H37.393V188.73C37.393 188.123 37.2343 187.666 36.917 187.358C36.5996 187.041 36.175 186.882 35.643 186.882C35.1856 186.882 34.789 186.999 34.453 187.232C34.1263 187.456 33.921 187.787 33.837 188.226H32.633C32.6796 187.722 32.8476 187.297 33.137 186.952C33.4356 186.607 33.8043 186.345 34.243 186.168C34.6816 185.981 35.1483 185.888 35.643 185.888C36.6136 185.888 37.3416 186.149 37.827 186.672C38.3216 187.185 38.569 187.871 38.569 188.73V193H37.519L37.449 191.754C37.253 192.146 36.9636 192.482 36.581 192.762C36.2076 193.033 35.7036 193.168 35.069 193.168ZM35.251 192.174C35.699 192.174 36.0816 192.057 36.399 191.824C36.7256 191.591 36.973 191.287 37.141 190.914C37.309 190.541 37.393 190.149 37.393 189.738V189.724H35.615C34.9243 189.724 34.4343 189.845 34.145 190.088C33.865 190.321 33.725 190.615 33.725 190.97C33.725 191.334 33.8556 191.628 34.117 191.852C34.3876 192.067 34.7656 192.174 35.251 192.174ZM41.0832 193V182.92H42.2592V193H41.0832ZM45.6507 184.516C45.4174 184.516 45.2214 184.441 45.0627 184.292C44.9134 184.133 44.8387 183.937 44.8387 183.704C44.8387 183.48 44.9134 183.293 45.0627 183.144C45.2214 182.995 45.4174 182.92 45.6507 182.92C45.8747 182.92 46.066 182.995 46.2247 183.144C46.3834 183.293 46.4627 183.48 46.4627 183.704C46.4627 183.937 46.3834 184.133 46.2247 184.292C46.066 184.441 45.8747 184.516 45.6507 184.516ZM45.0627 193V186.056H46.2387V193H45.0627ZM52.1583 193.168C51.4956 193.168 50.9076 193.019 50.3943 192.72C49.881 192.412 49.475 191.987 49.1763 191.446C48.887 190.905 48.7423 190.265 48.7423 189.528C48.7423 188.8 48.887 188.165 49.1763 187.624C49.4656 187.073 49.867 186.649 50.3803 186.35C50.903 186.042 51.505 185.888 52.1863 185.888C52.8583 185.888 53.437 186.042 53.9223 186.35C54.417 186.649 54.795 187.045 55.0563 187.54C55.3176 188.035 55.4483 188.567 55.4483 189.136C55.4483 189.239 55.4436 189.341 55.4343 189.444C55.4343 189.547 55.4343 189.663 55.4343 189.794H49.9043C49.9323 190.326 50.0536 190.769 50.2683 191.124C50.4923 191.469 50.7676 191.731 51.0943 191.908C51.4303 192.085 51.785 192.174 52.1583 192.174C52.6436 192.174 53.0496 192.062 53.3763 191.838C53.703 191.614 53.941 191.311 54.0903 190.928H55.2523C55.0656 191.572 54.7063 192.109 54.1743 192.538C53.6516 192.958 52.9796 193.168 52.1583 193.168ZM52.1583 186.882C51.5983 186.882 51.099 187.055 50.6603 187.4C50.231 187.736 49.9836 188.231 49.9183 188.884H54.2863C54.2583 188.259 54.0436 187.769 53.6423 187.414C53.241 187.059 52.7463 186.882 52.1583 186.882ZM65.3761 193.168C64.7228 193.168 64.1348 193.019 63.6121 192.72C63.0894 192.421 62.6741 192.001 62.3661 191.46C62.0674 190.909 61.9181 190.265 61.9181 189.528C61.9181 188.791 62.0721 188.151 62.3801 187.61C62.6881 187.059 63.1034 186.635 63.6261 186.336C64.1581 186.037 64.7508 185.888 65.4041 185.888C66.0574 185.888 66.6454 186.037 67.1681 186.336C67.6908 186.635 68.1014 187.059 68.4001 187.61C68.7081 188.151 68.8621 188.791 68.8621 189.528C68.8621 190.265 68.7081 190.909 68.4001 191.46C68.0921 192.001 67.6721 192.421 67.1401 192.72C66.6174 193.019 66.0294 193.168 65.3761 193.168ZM65.3761 192.16C65.7774 192.16 66.1508 192.062 66.4961 191.866C66.8414 191.67 67.1214 191.376 67.3361 190.984C67.5508 190.592 67.6581 190.107 67.6581 189.528C67.6581 188.949 67.5508 188.464 67.3361 188.072C67.1308 187.68 66.8554 187.386 66.5101 187.19C66.1648 186.994 65.7961 186.896 65.4041 186.896C65.0028 186.896 64.6294 186.994 64.2841 187.19C63.9388 187.386 63.6588 187.68 63.4441 188.072C63.2294 188.464 63.1221 188.949 63.1221 189.528C63.1221 190.107 63.2294 190.592 63.4441 190.984C63.6588 191.376 63.9341 191.67 64.2701 191.866C64.6154 192.062 64.9841 192.16 65.3761 192.16ZM73.9073 193.168C73.0766 193.168 72.3859 192.958 71.8353 192.538C71.2846 192.118 70.9626 191.549 70.8693 190.83H72.0733C72.1479 191.194 72.3393 191.511 72.6473 191.782C72.9646 192.043 73.3893 192.174 73.9213 192.174C74.4159 192.174 74.7799 192.071 75.0133 191.866C75.2466 191.651 75.3633 191.399 75.3633 191.11C75.3633 190.69 75.2093 190.41 74.9013 190.27C74.6026 190.13 74.1779 190.004 73.6273 189.892C73.2539 189.817 72.8806 189.71 72.5073 189.57C72.1339 189.43 71.8213 189.234 71.5693 188.982C71.3173 188.721 71.1913 188.38 71.1913 187.96C71.1913 187.353 71.4153 186.859 71.8633 186.476C72.3206 186.084 72.9366 185.888 73.7113 185.888C74.4486 185.888 75.0506 186.075 75.5173 186.448C75.9933 186.812 76.2686 187.335 76.3433 188.016H75.1813C75.1346 187.661 74.9806 187.386 74.7193 187.19C74.4673 186.985 74.1266 186.882 73.6973 186.882C73.2773 186.882 72.9506 186.971 72.7173 187.148C72.4933 187.325 72.3813 187.559 72.3813 187.848C72.3813 188.128 72.5259 188.347 72.8153 188.506C73.1139 188.665 73.5153 188.8 74.0193 188.912C74.4486 189.005 74.8546 189.122 75.2373 189.262C75.6293 189.393 75.9466 189.593 76.1893 189.864C76.4413 190.125 76.5673 190.508 76.5673 191.012C76.5766 191.637 76.3386 192.155 75.8533 192.566C75.3773 192.967 74.7286 193.168 73.9073 193.168ZM86.6443 193.168C85.9817 193.168 85.3843 193.019 84.8523 192.72C84.3297 192.412 83.9143 191.987 83.6063 191.446C83.3077 190.895 83.1583 190.256 83.1583 189.528C83.1583 188.8 83.3077 188.165 83.6063 187.624C83.9143 187.073 84.3297 186.649 84.8523 186.35C85.3843 186.042 85.9817 185.888 86.6443 185.888C87.4657 185.888 88.1563 186.103 88.7163 186.532C89.2857 186.961 89.645 187.535 89.7943 188.254H88.5903C88.497 187.825 88.2683 187.493 87.9043 187.26C87.5403 187.017 87.1157 186.896 86.6303 186.896C86.2383 186.896 85.8697 186.994 85.5243 187.19C85.179 187.386 84.899 187.68 84.6843 188.072C84.4697 188.464 84.3623 188.949 84.3623 189.528C84.3623 190.107 84.4697 190.592 84.6843 190.984C84.899 191.376 85.179 191.675 85.5243 191.88C85.8697 192.076 86.2383 192.174 86.6303 192.174C87.1157 192.174 87.5403 192.057 87.9043 191.824C88.2683 191.581 88.497 191.241 88.5903 190.802H89.7943C89.6543 191.502 89.2997 192.071 88.7303 192.51C88.161 192.949 87.4657 193.168 86.6443 193.168ZM94.7207 193.168C93.8994 193.168 93.246 192.921 92.7607 192.426C92.2754 191.922 92.0327 191.152 92.0327 190.116V186.056H93.2087V189.99C93.2087 191.437 93.8014 192.16 94.9867 192.16C95.5934 192.16 96.0927 191.945 96.4847 191.516C96.886 191.077 97.0867 190.457 97.0867 189.654V186.056H98.2627V193H97.1987L97.1147 191.754C96.9 192.193 96.578 192.538 96.1487 192.79C95.7287 193.042 95.2527 193.168 94.7207 193.168ZM100.948 193V186.056H102.012L102.11 187.386C102.325 186.929 102.652 186.565 103.09 186.294C103.529 186.023 104.07 185.888 104.714 185.888V187.12H104.392C103.982 187.12 103.604 187.195 103.258 187.344C102.913 187.484 102.638 187.727 102.432 188.072C102.227 188.417 102.124 188.893 102.124 189.5V193H100.948ZM106.784 193V186.056H107.848L107.946 187.386C108.161 186.929 108.488 186.565 108.926 186.294C109.365 186.023 109.906 185.888 110.55 185.888V187.12H110.228C109.818 187.12 109.44 187.195 109.094 187.344C108.749 187.484 108.474 187.727 108.268 188.072C108.063 188.417 107.96 188.893 107.96 189.5V193H106.784ZM112.62 193V186.056H113.796V193H112.62ZM112.886 185.482V184.6L115.826 182.822V183.844L112.886 185.482ZM119.666 193.168C119.003 193.168 118.406 193.019 117.874 192.72C117.351 192.412 116.936 191.987 116.628 191.446C116.329 190.895 116.18 190.256 116.18 189.528C116.18 188.8 116.329 188.165 116.628 187.624C116.936 187.073 117.351 186.649 117.874 186.35C118.406 186.042 119.003 185.888 119.666 185.888C120.487 185.888 121.178 186.103 121.738 186.532C122.307 186.961 122.666 187.535 122.816 188.254H121.612C121.518 187.825 121.29 187.493 120.926 187.26C120.562 187.017 120.137 186.896 119.652 186.896C119.26 186.896 118.891 186.994 118.546 187.19C118.2 187.386 117.92 187.68 117.706 188.072C117.491 188.464 117.384 188.949 117.384 189.528C117.384 190.107 117.491 190.592 117.706 190.984C117.92 191.376 118.2 191.675 118.546 191.88C118.891 192.076 119.26 192.174 119.652 192.174C120.137 192.174 120.562 192.057 120.926 191.824C121.29 191.581 121.518 191.241 121.612 190.802H122.816C122.676 191.502 122.321 192.071 121.752 192.51C121.182 192.949 120.487 193.168 119.666 193.168ZM127.742 193.168C126.921 193.168 126.268 192.921 125.782 192.426C125.297 191.922 125.054 191.152 125.054 190.116V186.056H126.23V189.99C126.23 191.437 126.823 192.16 128.008 192.16C128.615 192.16 129.114 191.945 129.506 191.516C129.908 191.077 130.108 190.457 130.108 189.654V186.056H131.284V193H130.22L130.136 191.754C129.922 192.193 129.6 192.538 129.17 192.79C128.75 193.042 128.274 193.168 127.742 193.168ZM133.97 193V182.92H135.146V193H133.97ZM140.987 193.168C140.334 193.168 139.746 193.019 139.223 192.72C138.701 192.421 138.285 192.001 137.977 191.46C137.679 190.909 137.529 190.265 137.529 189.528C137.529 188.791 137.683 188.151 137.991 187.61C138.299 187.059 138.715 186.635 139.237 186.336C139.769 186.037 140.362 185.888 141.015 185.888C141.669 185.888 142.257 186.037 142.779 186.336C143.302 186.635 143.713 187.059 144.011 187.61C144.319 188.151 144.473 188.791 144.473 189.528C144.473 190.265 144.319 190.909 144.011 191.46C143.703 192.001 143.283 192.421 142.751 192.72C142.229 193.019 141.641 193.168 140.987 193.168ZM140.987 192.16C141.389 192.16 141.762 192.062 142.107 191.866C142.453 191.67 142.733 191.376 142.947 190.984C143.162 190.592 143.269 190.107 143.269 189.528C143.269 188.949 143.162 188.464 142.947 188.072C142.742 187.68 142.467 187.386 142.121 187.19C141.776 186.994 141.407 186.896 141.015 186.896C140.614 186.896 140.241 186.994 139.895 187.19C139.55 187.386 139.27 187.68 139.055 188.072C138.841 188.464 138.733 188.949 138.733 189.528C138.733 190.107 138.841 190.592 139.055 190.984C139.27 191.376 139.545 191.67 139.881 191.866C140.227 192.062 140.595 192.16 140.987 192.16ZM149.519 193.168C148.688 193.168 147.997 192.958 147.447 192.538C146.896 192.118 146.574 191.549 146.481 190.83H147.685C147.759 191.194 147.951 191.511 148.259 191.782C148.576 192.043 149.001 192.174 149.533 192.174C150.027 192.174 150.391 192.071 150.625 191.866C150.858 191.651 150.975 191.399 150.975 191.11C150.975 190.69 150.821 190.41 150.513 190.27C150.214 190.13 149.789 190.004 149.239 189.892C148.865 189.817 148.492 189.71 148.119 189.57C147.745 189.43 147.433 189.234 147.181 188.982C146.929 188.721 146.803 188.38 146.803 187.96C146.803 187.353 147.027 186.859 147.475 186.476C147.932 186.084 148.548 185.888 149.323 185.888C150.06 185.888 150.662 186.075 151.129 186.448C151.605 186.812 151.88 187.335 151.955 188.016H150.793C150.746 187.661 150.592 187.386 150.331 187.19C150.079 186.985 149.738 186.882 149.309 186.882C148.889 186.882 148.562 186.971 148.329 187.148C148.105 187.325 147.993 187.559 147.993 187.848C147.993 188.128 148.137 188.347 148.427 188.506C148.725 188.665 149.127 188.8 149.631 188.912C150.06 189.005 150.466 189.122 150.849 189.262C151.241 189.393 151.558 189.593 151.801 189.864C152.053 190.125 152.179 190.508 152.179 191.012C152.188 191.637 151.95 192.155 151.465 192.566C150.989 192.967 150.34 193.168 149.519 193.168ZM162.186 193.168C161.523 193.168 160.935 193.019 160.422 192.72C159.908 192.412 159.502 191.987 159.204 191.446C158.914 190.905 158.77 190.265 158.77 189.528C158.77 188.8 158.914 188.165 159.204 187.624C159.493 187.073 159.894 186.649 160.408 186.35C160.93 186.042 161.532 185.888 162.214 185.888C162.886 185.888 163.464 186.042 163.95 186.35C164.444 186.649 164.822 187.045 165.084 187.54C165.345 188.035 165.476 188.567 165.476 189.136C165.476 189.239 165.471 189.341 165.462 189.444C165.462 189.547 165.462 189.663 165.462 189.794H159.932C159.96 190.326 160.081 190.769 160.296 191.124C160.52 191.469 160.795 191.731 161.122 191.908C161.458 192.085 161.812 192.174 162.186 192.174C162.671 192.174 163.077 192.062 163.404 191.838C163.73 191.614 163.968 191.311 164.118 190.928H165.28C165.093 191.572 164.734 192.109 164.202 192.538C163.679 192.958 163.007 193.168 162.186 193.168ZM162.186 186.882C161.626 186.882 161.126 187.055 160.688 187.4C160.258 187.736 160.011 188.231 159.946 188.884H164.314C164.286 188.259 164.071 187.769 163.67 187.414C163.268 187.059 162.774 186.882 162.186 186.882ZM175.361 193.168C174.699 193.168 174.111 193.019 173.597 192.72C173.084 192.412 172.678 191.987 172.379 191.446C172.09 190.905 171.945 190.265 171.945 189.528C171.945 188.8 172.09 188.165 172.379 187.624C172.669 187.073 173.07 186.649 173.583 186.35C174.106 186.042 174.708 185.888 175.389 185.888C176.061 185.888 176.64 186.042 177.125 186.35C177.62 186.649 177.998 187.045 178.259 187.54C178.521 188.035 178.651 188.567 178.651 189.136C178.651 189.239 178.647 189.341 178.637 189.444C178.637 189.547 178.637 189.663 178.637 189.794H173.107C173.135 190.326 173.257 190.769 173.471 191.124C173.695 191.469 173.971 191.731 174.297 191.908C174.633 192.085 174.988 192.174 175.361 192.174C175.847 192.174 176.253 192.062 176.579 191.838C176.906 191.614 177.144 191.311 177.293 190.928H178.455C178.269 191.572 177.909 192.109 177.377 192.538C176.855 192.958 176.183 193.168 175.361 193.168ZM175.361 186.882C174.801 186.882 174.302 187.055 173.863 187.4C173.434 187.736 173.187 188.231 173.121 188.884H177.489C177.461 188.259 177.247 187.769 176.845 187.414C176.444 187.059 175.949 186.882 175.361 186.882ZM180.96 193V186.056H182.024L182.094 187.302C182.318 186.863 182.64 186.518 183.06 186.266C183.48 186.014 183.956 185.888 184.488 185.888C185.309 185.888 185.963 186.14 186.448 186.644C186.943 187.139 187.19 187.904 187.19 188.94V193H186.014V189.066C186.014 187.619 185.417 186.896 184.222 186.896C183.625 186.896 183.125 187.115 182.724 187.554C182.332 187.983 182.136 188.599 182.136 189.402V193H180.96ZM192.914 193.168C192.251 193.168 191.654 193.019 191.122 192.72C190.599 192.412 190.184 191.987 189.876 191.446C189.577 190.895 189.428 190.256 189.428 189.528C189.428 188.8 189.577 188.165 189.876 187.624C190.184 187.073 190.599 186.649 191.122 186.35C191.654 186.042 192.251 185.888 192.914 185.888C193.735 185.888 194.426 186.103 194.986 186.532C195.555 186.961 195.915 187.535 196.064 188.254H194.86C194.767 187.825 194.538 187.493 194.174 187.26C193.81 187.017 193.385 186.896 192.9 186.896C192.508 186.896 192.139 186.994 191.794 187.19C191.449 187.386 191.169 187.68 190.954 188.072C190.739 188.464 190.632 188.949 190.632 189.528C190.632 190.107 190.739 190.592 190.954 190.984C191.169 191.376 191.449 191.675 191.794 191.88C192.139 192.076 192.508 192.174 192.9 192.174C193.385 192.174 193.81 192.057 194.174 191.824C194.538 191.581 194.767 191.241 194.86 190.802H196.064C195.924 191.502 195.569 192.071 195 192.51C194.431 192.949 193.735 193.168 192.914 193.168ZM201.62 193.168C200.967 193.168 200.379 193.019 199.856 192.72C199.334 192.421 198.918 192.001 198.61 191.46C198.312 190.909 198.162 190.265 198.162 189.528C198.162 188.791 198.316 188.151 198.624 187.61C198.932 187.059 199.348 186.635 199.87 186.336C200.402 186.037 200.995 185.888 201.648 185.888C202.302 185.888 202.89 186.037 203.412 186.336C203.935 186.635 204.346 187.059 204.644 187.61C204.952 188.151 205.106 188.791 205.106 189.528C205.106 190.265 204.952 190.909 204.644 191.46C204.336 192.001 203.916 192.421 203.384 192.72C202.862 193.019 202.274 193.168 201.62 193.168ZM201.62 192.16C202.022 192.16 202.395 192.062 202.74 191.866C203.086 191.67 203.366 191.376 203.58 190.984C203.795 190.592 203.902 190.107 203.902 189.528C203.902 188.949 203.795 188.464 203.58 188.072C203.375 187.68 203.1 187.386 202.754 187.19C202.409 186.994 202.04 186.896 201.648 186.896C201.247 186.896 200.874 186.994 200.528 187.19C200.183 187.386 199.903 187.68 199.688 188.072C199.474 188.464 199.366 188.949 199.366 189.528C199.366 190.107 199.474 190.592 199.688 190.984C199.903 191.376 200.178 191.67 200.514 191.866C200.86 192.062 201.228 192.16 201.62 192.16ZM207.491 193V186.056H208.555L208.625 187.302C208.849 186.863 209.171 186.518 209.591 186.266C210.011 186.014 210.487 185.888 211.019 185.888C211.841 185.888 212.494 186.14 212.979 186.644C213.474 187.139 213.721 187.904 213.721 188.94V193H212.545V189.066C212.545 187.619 211.948 186.896 210.753 186.896C210.156 186.896 209.657 187.115 209.255 187.554C208.863 187.983 208.667 188.599 208.667 189.402V193H207.491ZM218.997 193C218.362 193 217.863 192.846 217.499 192.538C217.135 192.23 216.953 191.675 216.953 190.872V187.05H215.749V186.056H216.953L217.107 184.39H218.129V186.056H220.173V187.05H218.129V190.872C218.129 191.311 218.218 191.609 218.395 191.768C218.572 191.917 218.885 191.992 219.333 191.992H220.061V193H218.997ZM222.417 193V186.056H223.481L223.579 187.386C223.794 186.929 224.121 186.565 224.559 186.294C224.998 186.023 225.539 185.888 226.183 185.888V187.12H225.861C225.451 187.12 225.073 187.195 224.727 187.344C224.382 187.484 224.107 187.727 223.901 188.072C223.696 188.417 223.593 188.893 223.593 189.5V193H222.417ZM231.115 193.168C230.453 193.168 229.865 193.019 229.351 192.72C228.838 192.412 228.432 191.987 228.133 191.446C227.844 190.905 227.699 190.265 227.699 189.528C227.699 188.8 227.844 188.165 228.133 187.624C228.423 187.073 228.824 186.649 229.337 186.35C229.86 186.042 230.462 185.888 231.143 185.888C231.815 185.888 232.394 186.042 232.879 186.35C233.374 186.649 233.752 187.045 234.013 187.54C234.275 188.035 234.405 188.567 234.405 189.136C234.405 189.239 234.401 189.341 234.391 189.444C234.391 189.547 234.391 189.663 234.391 189.794H228.861C228.889 190.326 229.011 190.769 229.225 191.124C229.449 191.469 229.725 191.731 230.051 191.908C230.387 192.085 230.742 192.174 231.115 192.174C231.601 192.174 232.007 192.062 232.333 191.838C232.66 191.614 232.898 191.311 233.047 190.928H234.209C234.023 191.572 233.663 192.109 233.131 192.538C232.609 192.958 231.937 193.168 231.115 193.168ZM231.115 186.882C230.555 186.882 230.056 187.055 229.617 187.4C229.188 187.736 228.941 188.231 228.875 188.884H233.243C233.215 188.259 233.001 187.769 232.599 187.414C232.198 187.059 231.703 186.882 231.115 186.882ZM244.333 193.168C243.68 193.168 243.092 193.019 242.569 192.72C242.046 192.421 241.631 192.001 241.323 191.46C241.024 190.909 240.875 190.265 240.875 189.528C240.875 188.791 241.029 188.151 241.337 187.61C241.645 187.059 242.06 186.635 242.583 186.336C243.115 186.037 243.708 185.888 244.361 185.888C245.014 185.888 245.602 186.037 246.125 186.336C246.648 186.635 247.058 187.059 247.357 187.61C247.665 188.151 247.819 188.791 247.819 189.528C247.819 190.265 247.665 190.909 247.357 191.46C247.049 192.001 246.629 192.421 246.097 192.72C245.574 193.019 244.986 193.168 244.333 193.168ZM244.333 192.16C244.734 192.16 245.108 192.062 245.453 191.866C245.798 191.67 246.078 191.376 246.293 190.984C246.508 190.592 246.615 190.107 246.615 189.528C246.615 188.949 246.508 188.464 246.293 188.072C246.088 187.68 245.812 187.386 245.467 187.19C245.122 186.994 244.753 186.896 244.361 186.896C243.96 186.896 243.586 186.994 243.241 187.19C242.896 187.386 242.616 187.68 242.401 188.072C242.186 188.464 242.079 188.949 242.079 189.528C242.079 190.107 242.186 190.592 242.401 190.984C242.616 191.376 242.891 191.67 243.227 191.866C243.572 192.062 243.941 192.16 244.333 192.16ZM37.698 217.168C37.0354 217.168 36.438 217.019 35.906 216.72C35.3834 216.412 34.968 215.987 34.66 215.446C34.3614 214.895 34.212 214.256 34.212 213.528C34.212 212.8 34.3614 212.165 34.66 211.624C34.968 211.073 35.3834 210.649 35.906 210.35C36.438 210.042 37.0354 209.888 37.698 209.888C38.5194 209.888 39.21 210.103 39.77 210.532C40.3394 210.961 40.6987 211.535 40.848 212.254H39.644C39.5507 211.825 39.322 211.493 38.958 211.26C38.594 211.017 38.1694 210.896 37.684 210.896C37.292 210.896 36.9234 210.994 36.578 211.19C36.2327 211.386 35.9527 211.68 35.738 212.072C35.5234 212.464 35.416 212.949 35.416 213.528C35.416 214.107 35.5234 214.592 35.738 214.984C35.9527 215.376 36.2327 215.675 36.578 215.88C36.9234 216.076 37.292 216.174 37.684 216.174C38.1694 216.174 38.594 216.057 38.958 215.824C39.322 215.581 39.5507 215.241 39.644 214.802H40.848C40.708 215.502 40.3534 216.071 39.784 216.51C39.2147 216.949 38.5194 217.168 37.698 217.168ZM45.5504 217.168C44.9717 217.168 44.4911 217.07 44.1084 216.874C43.7257 216.678 43.4411 216.417 43.2544 216.09C43.0677 215.763 42.9744 215.409 42.9744 215.026C42.9744 214.317 43.2451 213.771 43.7864 213.388C44.3277 213.005 45.0651 212.814 45.9984 212.814H47.8744V212.73C47.8744 212.123 47.7157 211.666 47.3984 211.358C47.0811 211.041 46.6564 210.882 46.1244 210.882C45.6671 210.882 45.2704 210.999 44.9344 211.232C44.6077 211.456 44.4024 211.787 44.3184 212.226H43.1144C43.1611 211.722 43.3291 211.297 43.6184 210.952C43.9171 210.607 44.2857 210.345 44.7244 210.168C45.1631 209.981 45.6297 209.888 46.1244 209.888C47.0951 209.888 47.8231 210.149 48.3084 210.672C48.8031 211.185 49.0504 211.871 49.0504 212.73V217H48.0004L47.9304 215.754C47.7344 216.146 47.4451 216.482 47.0624 216.762C46.6891 217.033 46.1851 217.168 45.5504 217.168ZM45.7324 216.174C46.1804 216.174 46.5631 216.057 46.8804 215.824C47.2071 215.591 47.4544 215.287 47.6224 214.914C47.7904 214.541 47.8744 214.149 47.8744 213.738V213.724H46.0964C45.4057 213.724 44.9157 213.845 44.6264 214.088C44.3464 214.321 44.2064 214.615 44.2064 214.97C44.2064 215.334 44.3371 215.628 44.5984 215.852C44.8691 216.067 45.2471 216.174 45.7324 216.174ZM51.5646 217V210.056H52.6286L52.6986 211.302C52.9226 210.863 53.2446 210.518 53.6646 210.266C54.0846 210.014 54.5606 209.888 55.0926 209.888C55.914 209.888 56.5673 210.14 57.0526 210.644C57.5473 211.139 57.7946 211.904 57.7946 212.94V217H56.6186V213.066C56.6186 211.619 56.0213 210.896 54.8266 210.896C54.2293 210.896 53.73 211.115 53.3286 211.554C52.9366 211.983 52.7406 212.599 52.7406 213.402V217H51.5646ZM63.4764 217.168C62.7857 217.168 62.179 217.009 61.6564 216.692C61.143 216.375 60.7417 215.941 60.4524 215.39C60.1724 214.839 60.0324 214.214 60.0324 213.514C60.0324 212.814 60.177 212.193 60.4664 211.652C60.7557 211.101 61.157 210.672 61.6704 210.364C62.1837 210.047 62.7904 209.888 63.4904 209.888C64.0597 209.888 64.5637 210.005 65.0024 210.238C65.441 210.471 65.7817 210.798 66.0244 211.218V206.92H67.2004V217H66.1364L66.0244 215.852C65.8004 216.188 65.4784 216.491 65.0584 216.762C64.6384 217.033 64.111 217.168 63.4764 217.168ZM63.6024 216.146C64.069 216.146 64.4797 216.039 64.8344 215.824C65.1984 215.6 65.4784 215.292 65.6744 214.9C65.8797 214.508 65.9824 214.051 65.9824 213.528C65.9824 213.005 65.8797 212.548 65.6744 212.156C65.4784 211.764 65.1984 211.461 64.8344 211.246C64.4797 211.022 64.069 210.91 63.6024 210.91C63.145 210.91 62.7344 211.022 62.3704 211.246C62.0157 211.461 61.7357 211.764 61.5304 212.156C61.3344 212.548 61.2364 213.005 61.2364 213.528C61.2364 214.051 61.3344 214.508 61.5304 214.9C61.7357 215.292 62.0157 215.6 62.3704 215.824C62.7344 216.039 63.145 216.146 63.6024 216.146ZM70.5814 208.516C70.348 208.516 70.152 208.441 69.9934 208.292C69.844 208.133 69.7694 207.937 69.7694 207.704C69.7694 207.48 69.844 207.293 69.9934 207.144C70.152 206.995 70.348 206.92 70.5814 206.92C70.8054 206.92 70.9967 206.995 71.1554 207.144C71.314 207.293 71.3934 207.48 71.3934 207.704C71.3934 207.937 71.314 208.133 71.1554 208.292C70.9967 208.441 70.8054 208.516 70.5814 208.516ZM69.9934 217V210.056H71.1694V217H69.9934ZM77.117 217.168C76.4263 217.168 75.8196 217.009 75.297 216.692C74.7836 216.375 74.3823 215.941 74.093 215.39C73.813 214.839 73.673 214.214 73.673 213.514C73.673 212.814 73.8176 212.193 74.107 211.652C74.3963 211.101 74.7976 210.672 75.311 210.364C75.8243 210.047 76.431 209.888 77.131 209.888C77.7003 209.888 78.2043 210.005 78.643 210.238C79.0816 210.471 79.4223 210.798 79.665 211.218V206.92H80.841V217H79.777L79.665 215.852C79.441 216.188 79.119 216.491 78.699 216.762C78.279 217.033 77.7516 217.168 77.117 217.168ZM77.243 216.146C77.7096 216.146 78.1203 216.039 78.475 215.824C78.839 215.6 79.119 215.292 79.315 214.9C79.5203 214.508 79.623 214.051 79.623 213.528C79.623 213.005 79.5203 212.548 79.315 212.156C79.119 211.764 78.839 211.461 78.475 211.246C78.1203 211.022 77.7096 210.91 77.243 210.91C76.7856 210.91 76.375 211.022 76.011 211.246C75.6563 211.461 75.3763 211.764 75.171 212.156C74.975 212.548 74.877 213.005 74.877 213.528C74.877 214.051 74.975 214.508 75.171 214.9C75.3763 215.292 75.6563 215.6 76.011 215.824C76.375 216.039 76.7856 216.146 77.243 216.146ZM85.818 217.168C85.2393 217.168 84.7587 217.07 84.376 216.874C83.9933 216.678 83.7087 216.417 83.522 216.09C83.3353 215.763 83.242 215.409 83.242 215.026C83.242 214.317 83.5127 213.771 84.054 213.388C84.5953 213.005 85.3327 212.814 86.266 212.814H88.142V212.73C88.142 212.123 87.9833 211.666 87.666 211.358C87.3487 211.041 86.924 210.882 86.392 210.882C85.9347 210.882 85.538 210.999 85.202 211.232C84.8753 211.456 84.67 211.787 84.586 212.226H83.382C83.4287 211.722 83.5967 211.297 83.886 210.952C84.1847 210.607 84.5533 210.345 84.992 210.168C85.4307 209.981 85.8973 209.888 86.392 209.888C87.3627 209.888 88.0907 210.149 88.576 210.672C89.0707 211.185 89.318 211.871 89.318 212.73V217H88.268L88.198 215.754C88.002 216.146 87.7127 216.482 87.33 216.762C86.9567 217.033 86.4527 217.168 85.818 217.168ZM86 216.174C86.448 216.174 86.8307 216.057 87.148 215.824C87.4747 215.591 87.722 215.287 87.89 214.914C88.058 214.541 88.142 214.149 88.142 213.738V213.724H86.364C85.6733 213.724 85.1833 213.845 84.894 214.088C84.614 214.321 84.474 214.615 84.474 214.97C84.474 215.334 84.6047 215.628 84.866 215.852C85.1367 216.067 85.5147 216.174 86 216.174ZM94.3848 217C93.7501 217 93.2508 216.846 92.8868 216.538C92.5228 216.23 92.3408 215.675 92.3408 214.872V211.05H91.1368V210.056H92.3408L92.4948 208.39H93.5168V210.056H95.5608V211.05H93.5168V214.872C93.5168 215.311 93.6055 215.609 93.7828 215.768C93.9601 215.917 94.2728 215.992 94.7208 215.992H95.4488V217H94.3848ZM100.777 217.168C100.124 217.168 99.5361 217.019 99.0135 216.72C98.4908 216.421 98.0755 216.001 97.7675 215.46C97.4688 214.909 97.3195 214.265 97.3195 213.528C97.3195 212.791 97.4735 212.151 97.7815 211.61C98.0895 211.059 98.5048 210.635 99.0275 210.336C99.5595 210.037 100.152 209.888 100.805 209.888C101.459 209.888 102.047 210.037 102.569 210.336C103.092 210.635 103.503 211.059 103.801 211.61C104.109 212.151 104.263 212.791 104.263 213.528C104.263 214.265 104.109 214.909 103.801 215.46C103.493 216.001 103.073 216.421 102.541 216.72C102.019 217.019 101.431 217.168 100.777 217.168ZM100.777 216.16C101.179 216.16 101.552 216.062 101.897 215.866C102.243 215.67 102.523 215.376 102.737 214.984C102.952 214.592 103.059 214.107 103.059 213.528C103.059 212.949 102.952 212.464 102.737 212.072C102.532 211.68 102.257 211.386 101.911 211.19C101.566 210.994 101.197 210.896 100.805 210.896C100.404 210.896 100.031 210.994 99.6855 211.19C99.3401 211.386 99.0601 211.68 98.8455 212.072C98.6308 212.464 98.5235 212.949 98.5235 213.528C98.5235 214.107 98.6308 214.592 98.8455 214.984C99.0601 215.376 99.3355 215.67 99.6715 215.866C100.017 216.062 100.385 216.16 100.777 216.16ZM111.818 208.516C111.584 208.516 111.388 208.441 111.23 208.292C111.08 208.133 111.006 207.937 111.006 207.704C111.006 207.48 111.08 207.293 111.23 207.144C111.388 206.995 111.584 206.92 111.818 206.92C112.042 206.92 112.233 206.995 112.392 207.144C112.55 207.293 112.63 207.48 112.63 207.704C112.63 207.937 112.55 208.133 112.392 208.292C112.233 208.441 112.042 208.516 111.818 208.516ZM111.23 217V210.056H112.406V217H111.23ZM118.353 217.168C117.663 217.168 117.056 217.009 116.533 216.692C116.02 216.375 115.619 215.941 115.329 215.39C115.049 214.839 114.909 214.214 114.909 213.514C114.909 212.814 115.054 212.193 115.343 211.652C115.633 211.101 116.034 210.672 116.547 210.364C117.061 210.047 117.667 209.888 118.367 209.888C118.937 209.888 119.441 210.005 119.879 210.238C120.318 210.471 120.659 210.798 120.901 211.218V206.92H122.077V217H121.013L120.901 215.852C120.677 216.188 120.355 216.491 119.935 216.762C119.515 217.033 118.988 217.168 118.353 217.168ZM118.479 216.146C118.946 216.146 119.357 216.039 119.711 215.824C120.075 215.6 120.355 215.292 120.551 214.9C120.757 214.508 120.859 214.051 120.859 213.528C120.859 213.005 120.757 212.548 120.551 212.156C120.355 211.764 120.075 211.461 119.711 211.246C119.357 211.022 118.946 210.91 118.479 210.91C118.022 210.91 117.611 211.022 117.247 211.246C116.893 211.461 116.613 211.764 116.407 212.156C116.211 212.548 116.113 213.005 116.113 213.528C116.113 214.051 116.211 214.508 116.407 214.9C116.613 215.292 116.893 215.6 117.247 215.824C117.611 216.039 118.022 216.146 118.479 216.146ZM127.866 217.168C127.204 217.168 126.616 217.019 126.102 216.72C125.589 216.412 125.183 215.987 124.884 215.446C124.595 214.905 124.45 214.265 124.45 213.528C124.45 212.8 124.595 212.165 124.884 211.624C125.174 211.073 125.575 210.649 126.088 210.35C126.611 210.042 127.213 209.888 127.894 209.888C128.566 209.888 129.145 210.042 129.63 210.35C130.125 210.649 130.503 211.045 130.764 211.54C131.026 212.035 131.156 212.567 131.156 213.136C131.156 213.239 131.152 213.341 131.142 213.444C131.142 213.547 131.142 213.663 131.142 213.794H125.612C125.64 214.326 125.762 214.769 125.976 215.124C126.2 215.469 126.476 215.731 126.802 215.908C127.138 216.085 127.493 216.174 127.866 216.174C128.352 216.174 128.758 216.062 129.084 215.838C129.411 215.614 129.649 215.311 129.798 214.928H130.96C130.774 215.572 130.414 216.109 129.882 216.538C129.36 216.958 128.688 217.168 127.866 217.168ZM127.866 210.882C127.306 210.882 126.807 211.055 126.368 211.4C125.939 211.736 125.692 212.231 125.626 212.884H129.994C129.966 212.259 129.752 211.769 129.35 211.414C128.949 211.059 128.454 210.882 127.866 210.882ZM135.775 217.168C135.196 217.168 134.716 217.07 134.333 216.874C133.95 216.678 133.666 216.417 133.479 216.09C133.292 215.763 133.199 215.409 133.199 215.026C133.199 214.317 133.47 213.771 134.011 213.388C134.552 213.005 135.29 212.814 136.223 212.814H138.099V212.73C138.099 212.123 137.94 211.666 137.623 211.358C137.306 211.041 136.881 210.882 136.349 210.882C135.892 210.882 135.495 210.999 135.159 211.232C134.832 211.456 134.627 211.787 134.543 212.226H133.339C133.386 211.722 133.554 211.297 133.843 210.952C134.142 210.607 134.51 210.345 134.949 210.168C135.388 209.981 135.854 209.888 136.349 209.888C137.32 209.888 138.048 210.149 138.533 210.672C139.028 211.185 139.275 211.871 139.275 212.73V217H138.225L138.155 215.754C137.959 216.146 137.67 216.482 137.287 216.762C136.914 217.033 136.41 217.168 135.775 217.168ZM135.957 216.174C136.405 216.174 136.788 216.057 137.105 215.824C137.432 215.591 137.679 215.287 137.847 214.914C138.015 214.541 138.099 214.149 138.099 213.738V213.724H136.321C135.63 213.724 135.14 213.845 134.851 214.088C134.571 214.321 134.431 214.615 134.431 214.97C134.431 215.334 134.562 215.628 134.823 215.852C135.094 216.067 135.472 216.174 135.957 216.174ZM141.789 217V206.92H142.965V217H141.789ZM150.098 220.08V210.056H151.162L151.274 211.204C151.498 210.868 151.815 210.565 152.226 210.294C152.646 210.023 153.178 209.888 153.822 209.888C154.513 209.888 155.115 210.047 155.628 210.364C156.141 210.681 156.538 211.115 156.818 211.666C157.107 212.217 157.252 212.842 157.252 213.542C157.252 214.242 157.107 214.867 156.818 215.418C156.538 215.959 156.137 216.389 155.614 216.706C155.101 217.014 154.499 217.168 153.808 217.168C153.239 217.168 152.73 217.051 152.282 216.818C151.843 216.585 151.507 216.258 151.274 215.838V220.08H150.098ZM153.682 216.146C154.149 216.146 154.559 216.039 154.914 215.824C155.269 215.6 155.549 215.292 155.754 214.9C155.959 214.508 156.062 214.051 156.062 213.528C156.062 213.005 155.959 212.548 155.754 212.156C155.549 211.764 155.269 211.461 154.914 211.246C154.559 211.022 154.149 210.91 153.682 210.91C153.215 210.91 152.805 211.022 152.45 211.246C152.095 211.461 151.815 211.764 151.61 212.156C151.405 212.548 151.302 213.005 151.302 213.528C151.302 214.051 151.405 214.508 151.61 214.9C151.815 215.292 152.095 215.6 152.45 215.824C152.805 216.039 153.215 216.146 153.682 216.146ZM161.949 217.168C161.37 217.168 160.89 217.07 160.507 216.874C160.124 216.678 159.84 216.417 159.653 216.09C159.466 215.763 159.373 215.409 159.373 215.026C159.373 214.317 159.644 213.771 160.185 213.388C160.726 213.005 161.464 212.814 162.397 212.814H164.273V212.73C164.273 212.123 164.114 211.666 163.797 211.358C163.48 211.041 163.055 210.882 162.523 210.882C162.066 210.882 161.669 210.999 161.333 211.232C161.006 211.456 160.801 211.787 160.717 212.226H159.513C159.56 211.722 159.728 211.297 160.017 210.952C160.316 210.607 160.684 210.345 161.123 210.168C161.562 209.981 162.028 209.888 162.523 209.888C163.494 209.888 164.222 210.149 164.707 210.672C165.202 211.185 165.449 211.871 165.449 212.73V217H164.399L164.329 215.754C164.133 216.146 163.844 216.482 163.461 216.762C163.088 217.033 162.584 217.168 161.949 217.168ZM162.131 216.174C162.579 216.174 162.962 216.057 163.279 215.824C163.606 215.591 163.853 215.287 164.021 214.914C164.189 214.541 164.273 214.149 164.273 213.738V213.724H162.495C161.804 213.724 161.314 213.845 161.025 214.088C160.745 214.321 160.605 214.615 160.605 214.97C160.605 215.334 160.736 215.628 160.997 215.852C161.268 216.067 161.646 216.174 162.131 216.174ZM167.963 217V210.056H169.027L169.125 211.386C169.34 210.929 169.666 210.565 170.105 210.294C170.544 210.023 171.085 209.888 171.729 209.888V211.12H171.407C170.996 211.12 170.618 211.195 170.273 211.344C169.928 211.484 169.652 211.727 169.447 212.072C169.242 212.417 169.139 212.893 169.139 213.5V217H167.963ZM176.109 217.168C175.53 217.168 175.05 217.07 174.667 216.874C174.284 216.678 174 216.417 173.813 216.09C173.626 215.763 173.533 215.409 173.533 215.026C173.533 214.317 173.804 213.771 174.345 213.388C174.886 213.005 175.624 212.814 176.557 212.814H178.433V212.73C178.433 212.123 178.274 211.666 177.957 211.358C177.64 211.041 177.215 210.882 176.683 210.882C176.226 210.882 175.829 210.999 175.493 211.232C175.166 211.456 174.961 211.787 174.877 212.226H173.673C173.72 211.722 173.888 211.297 174.177 210.952C174.476 210.607 174.844 210.345 175.283 210.168C175.722 209.981 176.188 209.888 176.683 209.888C177.654 209.888 178.382 210.149 178.867 210.672C179.362 211.185 179.609 211.871 179.609 212.73V217H178.559L178.489 215.754C178.293 216.146 178.004 216.482 177.621 216.762C177.248 217.033 176.744 217.168 176.109 217.168ZM176.291 216.174C176.739 216.174 177.122 216.057 177.439 215.824C177.766 215.591 178.013 215.287 178.181 214.914C178.349 214.541 178.433 214.149 178.433 213.738V213.724H176.655C175.964 213.724 175.474 213.845 175.185 214.088C174.905 214.321 174.765 214.615 174.765 214.97C174.765 215.334 174.896 215.628 175.157 215.852C175.428 216.067 175.806 216.174 176.291 216.174ZM188.888 217.168C188.31 217.168 187.829 217.07 187.446 216.874C187.064 216.678 186.779 216.417 186.592 216.09C186.406 215.763 186.312 215.409 186.312 215.026C186.312 214.317 186.583 213.771 187.124 213.388C187.666 213.005 188.403 212.814 189.336 212.814H191.212V212.73C191.212 212.123 191.054 211.666 190.736 211.358C190.419 211.041 189.994 210.882 189.462 210.882C189.005 210.882 188.608 210.999 188.272 211.232C187.946 211.456 187.74 211.787 187.656 212.226H186.452C186.499 211.722 186.667 211.297 186.956 210.952C187.255 210.607 187.624 210.345 188.062 210.168C188.501 209.981 188.968 209.888 189.462 209.888C190.433 209.888 191.161 210.149 191.646 210.672C192.141 211.185 192.388 211.871 192.388 212.73V217H191.338L191.268 215.754C191.072 216.146 190.783 216.482 190.4 216.762C190.027 217.033 189.523 217.168 188.888 217.168ZM189.07 216.174C189.518 216.174 189.901 216.057 190.218 215.824C190.545 215.591 190.792 215.287 190.96 214.914C191.128 214.541 191.212 214.149 191.212 213.738V213.724H189.434C188.744 213.724 188.254 213.845 187.964 214.088C187.684 214.321 187.544 214.615 187.544 214.97C187.544 215.334 187.675 215.628 187.936 215.852C188.207 216.067 188.585 216.174 189.07 216.174ZM201.36 217L198.728 210.056H199.96L202.046 215.866L204.146 210.056H205.35L202.718 217H201.36ZM209.363 217.168C208.784 217.168 208.304 217.07 207.921 216.874C207.538 216.678 207.254 216.417 207.067 216.09C206.88 215.763 206.787 215.409 206.787 215.026C206.787 214.317 207.058 213.771 207.599 213.388C208.14 213.005 208.878 212.814 209.811 212.814H211.687V212.73C211.687 212.123 211.528 211.666 211.211 211.358C210.894 211.041 210.469 210.882 209.937 210.882C209.48 210.882 209.083 210.999 208.747 211.232C208.42 211.456 208.215 211.787 208.131 212.226H206.927C206.974 211.722 207.142 211.297 207.431 210.952C207.73 210.607 208.098 210.345 208.537 210.168C208.976 209.981 209.442 209.888 209.937 209.888C210.908 209.888 211.636 210.149 212.121 210.672C212.616 211.185 212.863 211.871 212.863 212.73V217H211.813L211.743 215.754C211.547 216.146 211.258 216.482 210.875 216.762C210.502 217.033 209.998 217.168 209.363 217.168ZM209.545 216.174C209.993 216.174 210.376 216.057 210.693 215.824C211.02 215.591 211.267 215.287 211.435 214.914C211.603 214.541 211.687 214.149 211.687 213.738V213.724H209.909C209.218 213.724 208.728 213.845 208.439 214.088C208.159 214.321 208.019 214.615 208.019 214.97C208.019 215.334 208.15 215.628 208.411 215.852C208.682 216.067 209.06 216.174 209.545 216.174ZM218.121 214.816C217.729 214.816 217.37 214.765 217.043 214.662L216.343 215.32C216.446 215.395 216.572 215.46 216.721 215.516C216.88 215.563 217.104 215.609 217.393 215.656C217.682 215.693 218.088 215.735 218.611 215.782C219.544 215.847 220.212 216.062 220.613 216.426C221.014 216.79 221.215 217.266 221.215 217.854C221.215 218.255 221.103 218.638 220.879 219.002C220.664 219.366 220.328 219.665 219.871 219.898C219.423 220.131 218.844 220.248 218.135 220.248C217.51 220.248 216.954 220.164 216.469 219.996C215.984 219.837 215.606 219.59 215.335 219.254C215.064 218.927 214.929 218.512 214.929 218.008C214.929 217.747 214.999 217.462 215.139 217.154C215.279 216.855 215.54 216.571 215.923 216.3C215.718 216.216 215.54 216.127 215.391 216.034C215.251 215.931 215.12 215.819 214.999 215.698V215.376L216.189 214.2C215.638 213.733 215.363 213.117 215.363 212.352C215.363 211.895 215.47 211.479 215.685 211.106C215.9 210.733 216.212 210.439 216.623 210.224C217.034 210 217.533 209.888 218.121 209.888C218.522 209.888 218.886 209.944 219.213 210.056H221.775V210.938L220.473 210.994C220.744 211.386 220.879 211.839 220.879 212.352C220.879 212.809 220.767 213.225 220.543 213.598C220.328 213.971 220.016 214.27 219.605 214.494C219.204 214.709 218.709 214.816 218.121 214.816ZM218.121 213.85C218.616 213.85 219.008 213.724 219.297 213.472C219.596 213.211 219.745 212.837 219.745 212.352C219.745 211.876 219.596 211.512 219.297 211.26C219.008 210.999 218.616 210.868 218.121 210.868C217.617 210.868 217.216 210.999 216.917 211.26C216.628 211.512 216.483 211.876 216.483 212.352C216.483 212.837 216.628 213.211 216.917 213.472C217.216 213.724 217.617 213.85 218.121 213.85ZM216.077 217.896C216.077 218.363 216.273 218.708 216.665 218.932C217.057 219.165 217.547 219.282 218.135 219.282C218.714 219.282 219.176 219.156 219.521 218.904C219.876 218.652 220.053 218.316 220.053 217.896C220.053 217.597 219.932 217.336 219.689 217.112C219.446 216.897 218.998 216.771 218.345 216.734C217.832 216.697 217.388 216.65 217.015 216.594C216.632 216.799 216.38 217.019 216.259 217.252C216.138 217.495 216.077 217.709 216.077 217.896ZM226.162 217.168C225.583 217.168 225.102 217.07 224.72 216.874C224.337 216.678 224.052 216.417 223.866 216.09C223.679 215.763 223.586 215.409 223.586 215.026C223.586 214.317 223.856 213.771 224.398 213.388C224.939 213.005 225.676 212.814 226.61 212.814H228.486V212.73C228.486 212.123 228.327 211.666 228.01 211.358C227.692 211.041 227.268 210.882 226.736 210.882C226.278 210.882 225.882 210.999 225.546 211.232C225.219 211.456 225.014 211.787 224.93 212.226H223.726C223.772 211.722 223.94 211.297 224.23 210.952C224.528 210.607 224.897 210.345 225.336 210.168C225.774 209.981 226.241 209.888 226.736 209.888C227.706 209.888 228.434 210.149 228.92 210.672C229.414 211.185 229.662 211.871 229.662 212.73V217H228.612L228.542 215.754C228.346 216.146 228.056 216.482 227.674 216.762C227.3 217.033 226.796 217.168 226.162 217.168ZM226.344 216.174C226.792 216.174 227.174 216.057 227.492 215.824C227.818 215.591 228.066 215.287 228.234 214.914C228.402 214.541 228.486 214.149 228.486 213.738V213.724H226.708C226.017 213.724 225.527 213.845 225.238 214.088C224.958 214.321 224.818 214.615 224.818 214.97C224.818 215.334 224.948 215.628 225.21 215.852C225.48 216.067 225.858 216.174 226.344 216.174Z" fill="#333333"/>
<rect x="90" y="134" width="84" height="34" rx="17" fill="url(#paint1_linear_2684_1244)"/>
<path d="M105.492 156V146.2H111.722V147.404H106.976V150.456H111.302V151.632H106.976V154.796H111.722V156H105.492ZM117.096 156C116.415 156 115.873 155.837 115.472 155.51C115.071 155.174 114.87 154.581 114.87 153.732V150.302H113.68V149.056H114.87L115.052 147.292H116.354V149.056H118.314V150.302H116.354V153.732C116.354 154.115 116.433 154.381 116.592 154.53C116.76 154.67 117.045 154.74 117.446 154.74H118.244V156H117.096ZM122.946 156.168C122.358 156.168 121.873 156.07 121.49 155.874C121.108 155.678 120.823 155.421 120.636 155.104C120.45 154.777 120.356 154.423 120.356 154.04C120.356 153.368 120.618 152.836 121.14 152.444C121.663 152.052 122.41 151.856 123.38 151.856H125.2V151.73C125.2 151.189 125.051 150.783 124.752 150.512C124.463 150.241 124.085 150.106 123.618 150.106C123.208 150.106 122.848 150.209 122.54 150.414C122.242 150.61 122.06 150.904 121.994 151.296H120.51C120.557 150.792 120.725 150.363 121.014 150.008C121.313 149.644 121.686 149.369 122.134 149.182C122.592 148.986 123.091 148.888 123.632 148.888C124.603 148.888 125.354 149.145 125.886 149.658C126.418 150.162 126.684 150.853 126.684 151.73V156H125.396L125.27 154.81C125.074 155.193 124.79 155.515 124.416 155.776C124.043 156.037 123.553 156.168 122.946 156.168ZM123.24 154.964C123.642 154.964 123.978 154.871 124.248 154.684C124.528 154.488 124.743 154.231 124.892 153.914C125.051 153.597 125.149 153.247 125.186 152.864H123.534C122.946 152.864 122.526 152.967 122.274 153.172C122.032 153.377 121.91 153.634 121.91 153.942C121.91 154.259 122.027 154.511 122.26 154.698C122.503 154.875 122.83 154.964 123.24 154.964ZM129.165 159.08V149.056H130.495L130.649 150.134C130.873 149.807 131.181 149.518 131.573 149.266C131.965 149.014 132.469 148.888 133.085 148.888C133.757 148.888 134.349 149.047 134.863 149.364C135.376 149.681 135.777 150.115 136.067 150.666C136.365 151.217 136.515 151.842 136.515 152.542C136.515 153.242 136.365 153.867 136.067 154.418C135.777 154.959 135.376 155.389 134.863 155.706C134.349 156.014 133.752 156.168 133.071 156.168C132.529 156.168 132.049 156.061 131.629 155.846C131.218 155.631 130.891 155.328 130.649 154.936V159.08H129.165ZM132.819 154.88C133.453 154.88 133.976 154.665 134.387 154.236C134.797 153.797 135.003 153.228 135.003 152.528C135.003 152.071 134.909 151.665 134.723 151.31C134.536 150.955 134.279 150.68 133.953 150.484C133.626 150.279 133.248 150.176 132.819 150.176C132.184 150.176 131.661 150.395 131.251 150.834C130.849 151.273 130.649 151.837 130.649 152.528C130.649 153.228 130.849 153.797 131.251 154.236C131.661 154.665 132.184 154.88 132.819 154.88ZM141.222 156.168C140.634 156.168 140.148 156.07 139.766 155.874C139.383 155.678 139.098 155.421 138.912 155.104C138.725 154.777 138.632 154.423 138.632 154.04C138.632 153.368 138.893 152.836 139.416 152.444C139.938 152.052 140.685 151.856 141.656 151.856H143.476V151.73C143.476 151.189 143.326 150.783 143.028 150.512C142.738 150.241 142.36 150.106 141.894 150.106C141.483 150.106 141.124 150.209 140.816 150.414C140.517 150.61 140.335 150.904 140.27 151.296H138.786C138.832 150.792 139 150.363 139.29 150.008C139.588 149.644 139.962 149.369 140.41 149.182C140.867 148.986 141.366 148.888 141.908 148.888C142.878 148.888 143.63 149.145 144.162 149.658C144.694 150.162 144.96 150.853 144.96 151.73V156H143.672L143.546 154.81C143.35 155.193 143.065 155.515 142.692 155.776C142.318 156.037 141.828 156.168 141.222 156.168ZM141.516 154.964C141.917 154.964 142.253 154.871 142.524 154.684C142.804 154.488 143.018 154.231 143.168 153.914C143.326 153.597 143.424 153.247 143.462 152.864H141.81C141.222 152.864 140.802 152.967 140.55 153.172C140.307 153.377 140.186 153.634 140.186 153.942C140.186 154.259 140.302 154.511 140.536 154.698C140.778 154.875 141.105 154.964 141.516 154.964ZM156.239 156V154.04H151.325V152.864L156.001 146.2H157.709V152.752H159.081V154.04H157.709V156H156.239ZM152.935 152.752H156.323V147.838L152.935 152.752Z" fill="#FCFCFC"/>
<path d="M136.8 62.8V53.2C136.8 49.2235 133.576 46 129.6 46L120 67.6V94H147.888C150.281 94.0271 152.329 92.2865 152.688 89.92L156 68.32C156.211 66.9276 155.801 65.5128 154.876 64.45C153.952 63.3873 152.608 62.784 151.2 62.8H136.8Z" stroke="#333333" stroke-width="4" stroke-linejoin="round"/>
<path d="M120 67.3338H113.592C110.78 67.2841 108.377 69.613 108 72.3997V89.1997C108.377 91.9863 110.78 94.0494 113.592 93.9997H120V67.3338Z" stroke="#333333" stroke-width="4" stroke-linejoin="round"/>
<defs>
<linearGradient id="paint0_linear_2684_1244" x1="0" y1="0" x2="317.415" y2="145.363" gradientUnits="userSpaceOnUse">
<stop stop-color="#FF4B00"/>
<stop offset="1" stop-color="#EE2F23"/>
</linearGradient>
<linearGradient id="paint1_linear_2684_1244" x1="90" y1="134" x2="144.042" y2="194.681" gradientUnits="userSpaceOnUse">
<stop stop-color="#FF4B00"/>
<stop offset="1" stop-color="#EE2F23"/>
</linearGradient>
</defs>
</svg>
