<svg width="264" height="262" viewBox="0 0 264 262" fill="none" xmlns="http://www.w3.org/2000/svg">
<rect x="0.5" y="0.5" width="263" height="261" rx="23.5" stroke="url(#paint0_linear_3892_4257)"/>
<path d="M21.6581 193V183.2H27.6221V184.166H22.8341V187.61H26.9081V188.562H22.8341V193H21.6581ZM31.6481 193.168C31.0694 193.168 30.5887 193.07 30.2061 192.874C29.8234 192.678 29.5387 192.417 29.3521 192.09C29.1654 191.763 29.0721 191.409 29.0721 191.026C29.0721 190.317 29.3427 189.771 29.8841 189.388C30.4254 189.005 31.1627 188.814 32.0961 188.814H33.9721V188.73C33.9721 188.123 33.8134 187.666 33.4961 187.358C33.1787 187.041 32.7541 186.882 32.2221 186.882C31.7647 186.882 31.3681 186.999 31.0321 187.232C30.7054 187.456 30.5001 187.787 30.4161 188.226H29.2121C29.2587 187.722 29.4267 187.297 29.7161 186.952C30.0147 186.607 30.3834 186.345 30.8221 186.168C31.2607 185.981 31.7274 185.888 32.2221 185.888C33.1927 185.888 33.9207 186.149 34.4061 186.672C34.9007 187.185 35.1481 187.871 35.1481 188.73V193H34.0981L34.0281 191.754C33.8321 192.146 33.5427 192.482 33.1601 192.762C32.7867 193.033 32.2827 193.168 31.6481 193.168ZM31.8301 192.174C32.2781 192.174 32.6607 192.057 32.9781 191.824C33.3047 191.591 33.5521 191.287 33.7201 190.914C33.8881 190.541 33.9721 190.149 33.9721 189.738V189.724H32.1941C31.5034 189.724 31.0134 189.845 30.7241 190.088C30.4441 190.321 30.3041 190.615 30.3041 190.97C30.3041 191.334 30.4347 191.628 30.6961 191.852C30.9667 192.067 31.3447 192.174 31.8301 192.174ZM40.8543 193.168C40.1916 193.168 39.5943 193.019 39.0623 192.72C38.5396 192.412 38.1243 191.987 37.8163 191.446C37.5176 190.895 37.3683 190.256 37.3683 189.528C37.3683 188.8 37.5176 188.165 37.8163 187.624C38.1243 187.073 38.5396 186.649 39.0623 186.35C39.5943 186.042 40.1916 185.888 40.8543 185.888C41.6756 185.888 42.3663 186.103 42.9263 186.532C43.4956 186.961 43.855 187.535 44.0043 188.254H42.8003C42.707 187.825 42.4783 187.493 42.1143 187.26C41.7503 187.017 41.3256 186.896 40.8403 186.896C40.4483 186.896 40.0796 186.994 39.7343 187.19C39.389 187.386 39.109 187.68 38.8943 188.072C38.6796 188.464 38.5723 188.949 38.5723 189.528C38.5723 190.107 38.6796 190.592 38.8943 190.984C39.109 191.376 39.389 191.675 39.7343 191.88C40.0796 192.076 40.4483 192.174 40.8403 192.174C41.3256 192.174 41.7503 192.057 42.1143 191.824C42.4783 191.581 42.707 191.241 42.8003 190.802H44.0043C43.8643 191.502 43.5096 192.071 42.9403 192.51C42.371 192.949 41.6756 193.168 40.8543 193.168ZM39.8463 196.64V195.898H41.1343C41.769 195.898 42.0863 195.674 42.0863 195.226C42.0863 194.806 41.769 194.596 41.1343 194.596H40.4483V192.916H41.2323V193.896C41.7643 193.887 42.1983 193.994 42.5343 194.218C42.8703 194.442 43.0383 194.783 43.0383 195.24C43.0383 195.679 42.8796 196.019 42.5623 196.262C42.245 196.514 41.8436 196.64 41.3583 196.64H39.8463ZM48.7067 193.168C48.128 193.168 47.6473 193.07 47.2647 192.874C46.882 192.678 46.5973 192.417 46.4107 192.09C46.224 191.763 46.1307 191.409 46.1307 191.026C46.1307 190.317 46.4013 189.771 46.9427 189.388C47.484 189.005 48.2213 188.814 49.1547 188.814H51.0307V188.73C51.0307 188.123 50.872 187.666 50.5547 187.358C50.2373 187.041 49.8127 186.882 49.2807 186.882C48.8233 186.882 48.4267 186.999 48.0907 187.232C47.764 187.456 47.5587 187.787 47.4747 188.226H46.2707C46.3173 187.722 46.4853 187.297 46.7747 186.952C47.0733 186.607 47.442 186.345 47.8807 186.168C48.3193 185.981 48.786 185.888 49.2807 185.888C50.2513 185.888 50.9793 186.149 51.4647 186.672C51.9593 187.185 52.2067 187.871 52.2067 188.73V193H51.1567L51.0867 191.754C50.8907 192.146 50.6013 192.482 50.2187 192.762C49.8453 193.033 49.3413 193.168 48.7067 193.168ZM48.8887 192.174C49.3367 192.174 49.7193 192.057 50.0367 191.824C50.3633 191.591 50.6107 191.287 50.7787 190.914C50.9467 190.541 51.0307 190.149 51.0307 189.738V189.724H49.2527C48.562 189.724 48.072 189.845 47.7827 190.088C47.5027 190.321 47.3627 190.615 47.3627 190.97C47.3627 191.334 47.4933 191.628 47.7547 191.852C48.0253 192.067 48.4033 192.174 48.8887 192.174ZM62.34 193.168C61.6866 193.168 61.0986 193.019 60.576 192.72C60.0533 192.421 59.638 192.001 59.33 191.46C59.0313 190.909 58.882 190.265 58.882 189.528C58.882 188.791 59.036 188.151 59.344 187.61C59.652 187.059 60.0673 186.635 60.59 186.336C61.122 186.037 61.7146 185.888 62.368 185.888C63.0213 185.888 63.6093 186.037 64.132 186.336C64.6546 186.635 65.0653 187.059 65.364 187.61C65.672 188.151 65.826 188.791 65.826 189.528C65.826 190.265 65.672 190.909 65.364 191.46C65.056 192.001 64.636 192.421 64.104 192.72C63.5813 193.019 62.9933 193.168 62.34 193.168ZM62.34 192.16C62.7413 192.16 63.1146 192.062 63.46 191.866C63.8053 191.67 64.0853 191.376 64.3 190.984C64.5146 190.592 64.622 190.107 64.622 189.528C64.622 188.949 64.5146 188.464 64.3 188.072C64.0946 187.68 63.8193 187.386 63.474 187.19C63.1286 186.994 62.76 186.896 62.368 186.896C61.9666 186.896 61.5933 186.994 61.248 187.19C60.9026 187.386 60.6226 187.68 60.408 188.072C60.1933 188.464 60.086 188.949 60.086 189.528C60.086 190.107 60.1933 190.592 60.408 190.984C60.6226 191.376 60.898 191.67 61.234 191.866C61.5793 192.062 61.948 192.16 62.34 192.16ZM75.8582 193.168C75.1955 193.168 74.5982 193.019 74.0662 192.72C73.5435 192.412 73.1282 191.987 72.8202 191.446C72.5215 190.895 72.3722 190.256 72.3722 189.528C72.3722 188.8 72.5215 188.165 72.8202 187.624C73.1282 187.073 73.5435 186.649 74.0662 186.35C74.5982 186.042 75.1955 185.888 75.8582 185.888C76.6795 185.888 77.3702 186.103 77.9302 186.532C78.4995 186.961 78.8589 187.535 79.0082 188.254H77.8042C77.7109 187.825 77.4822 187.493 77.1182 187.26C76.7542 187.017 76.3295 186.896 75.8442 186.896C75.4522 186.896 75.0835 186.994 74.7382 187.19C74.3929 187.386 74.1129 187.68 73.8982 188.072C73.6835 188.464 73.5762 188.949 73.5762 189.528C73.5762 190.107 73.6835 190.592 73.8982 190.984C74.1129 191.376 74.3929 191.675 74.7382 191.88C75.0835 192.076 75.4522 192.174 75.8442 192.174C76.3295 192.174 76.7542 192.057 77.1182 191.824C77.4822 191.581 77.7109 191.241 77.8042 190.802H79.0082C78.8682 191.502 78.5135 192.071 77.9442 192.51C77.3749 192.949 76.6795 193.168 75.8582 193.168ZM83.7106 193.168C83.1319 193.168 82.6512 193.07 82.2686 192.874C81.8859 192.678 81.6012 192.417 81.4146 192.09C81.2279 191.763 81.1346 191.409 81.1346 191.026C81.1346 190.317 81.4052 189.771 81.9466 189.388C82.4879 189.005 83.2252 188.814 84.1586 188.814H86.0346V188.73C86.0346 188.123 85.8759 187.666 85.5586 187.358C85.2412 187.041 84.8166 186.882 84.2846 186.882C83.8272 186.882 83.4306 186.999 83.0946 187.232C82.7679 187.456 82.5626 187.787 82.4786 188.226H81.2746C81.3212 187.722 81.4892 187.297 81.7786 186.952C82.0772 186.607 82.4459 186.345 82.8846 186.168C83.3232 185.981 83.7899 185.888 84.2846 185.888C85.2552 185.888 85.9832 186.149 86.4686 186.672C86.9632 187.185 87.2106 187.871 87.2106 188.73V193H86.1606L86.0906 191.754C85.8946 192.146 85.6052 192.482 85.2226 192.762C84.8492 193.033 84.3452 193.168 83.7106 193.168ZM83.8926 192.174C84.3406 192.174 84.7232 192.057 85.0406 191.824C85.3672 191.591 85.6146 191.287 85.7826 190.914C85.9506 190.541 86.0346 190.149 86.0346 189.738V189.724H84.2566C83.5659 189.724 83.0759 189.845 82.7866 190.088C82.5066 190.321 82.3666 190.615 82.3666 190.97C82.3666 191.334 82.4972 191.628 82.7586 191.852C83.0292 192.067 83.4072 192.174 83.8926 192.174ZM92.8748 193.168C92.1841 193.168 91.5775 193.009 91.0548 192.692C90.5415 192.375 90.1401 191.941 89.8508 191.39C89.5708 190.839 89.4308 190.214 89.4308 189.514C89.4308 188.814 89.5755 188.193 89.8648 187.652C90.1541 187.101 90.5555 186.672 91.0688 186.364C91.5821 186.047 92.1888 185.888 92.8888 185.888C93.4581 185.888 93.9621 186.005 94.4008 186.238C94.8395 186.471 95.1801 186.798 95.4228 187.218V182.92H96.5988V193H95.5348L95.4228 191.852C95.1988 192.188 94.8768 192.491 94.4568 192.762C94.0368 193.033 93.5095 193.168 92.8748 193.168ZM93.0008 192.146C93.4675 192.146 93.8781 192.039 94.2328 191.824C94.5968 191.6 94.8768 191.292 95.0728 190.9C95.2781 190.508 95.3808 190.051 95.3808 189.528C95.3808 189.005 95.2781 188.548 95.0728 188.156C94.8768 187.764 94.5968 187.461 94.2328 187.246C93.8781 187.022 93.4675 186.91 93.0008 186.91C92.5435 186.91 92.1328 187.022 91.7688 187.246C91.4141 187.461 91.1341 187.764 90.9288 188.156C90.7328 188.548 90.6348 189.005 90.6348 189.528C90.6348 190.051 90.7328 190.508 90.9288 190.9C91.1341 191.292 91.4141 191.6 91.7688 191.824C92.1328 192.039 92.5435 192.146 93.0008 192.146ZM101.576 193.168C100.997 193.168 100.516 193.07 100.134 192.874C99.7511 192.678 99.4665 192.417 99.2798 192.09C99.0931 191.763 98.9998 191.409 98.9998 191.026C98.9998 190.317 99.2705 189.771 99.8118 189.388C100.353 189.005 101.09 188.814 102.024 188.814H103.9V188.73C103.9 188.123 103.741 187.666 103.424 187.358C103.106 187.041 102.682 186.882 102.15 186.882C101.692 186.882 101.296 186.999 100.96 187.232C100.633 187.456 100.428 187.787 100.344 188.226H99.1398C99.1865 187.722 99.3545 187.297 99.6438 186.952C99.9425 186.607 100.311 186.345 100.75 186.168C101.188 185.981 101.655 185.888 102.15 185.888C103.12 185.888 103.848 186.149 104.334 186.672C104.828 187.185 105.076 187.871 105.076 188.73V193H104.026L103.956 191.754C103.76 192.146 103.47 192.482 103.088 192.762C102.714 193.033 102.21 193.168 101.576 193.168ZM101.758 192.174C102.206 192.174 102.588 192.057 102.906 191.824C103.232 191.591 103.48 191.287 103.648 190.914C103.816 190.541 103.9 190.149 103.9 189.738V189.724H102.122C101.431 189.724 100.941 189.845 100.652 190.088C100.372 190.321 100.232 190.615 100.232 190.97C100.232 191.334 100.362 191.628 100.624 191.852C100.894 192.067 101.272 192.174 101.758 192.174ZM110.25 193.168C109.419 193.168 108.729 192.958 108.178 192.538C107.627 192.118 107.305 191.549 107.212 190.83H108.416C108.491 191.194 108.682 191.511 108.99 191.782C109.307 192.043 109.732 192.174 110.264 192.174C110.759 192.174 111.123 192.071 111.356 191.866C111.589 191.651 111.706 191.399 111.706 191.11C111.706 190.69 111.552 190.41 111.244 190.27C110.945 190.13 110.521 190.004 109.97 189.892C109.597 189.817 109.223 189.71 108.85 189.57C108.477 189.43 108.164 189.234 107.912 188.982C107.66 188.721 107.534 188.38 107.534 187.96C107.534 187.353 107.758 186.859 108.206 186.476C108.663 186.084 109.279 185.888 110.054 185.888C110.791 185.888 111.393 186.075 111.86 186.448C112.336 186.812 112.611 187.335 112.686 188.016H111.524C111.477 187.661 111.323 187.386 111.062 187.19C110.81 186.985 110.469 186.882 110.04 186.882C109.62 186.882 109.293 186.971 109.06 187.148C108.836 187.325 108.724 187.559 108.724 187.848C108.724 188.128 108.869 188.347 109.158 188.506C109.457 188.665 109.858 188.8 110.362 188.912C110.791 189.005 111.197 189.122 111.58 189.262C111.972 189.393 112.289 189.593 112.532 189.864C112.784 190.125 112.91 190.508 112.91 191.012C112.919 191.637 112.681 192.155 112.196 192.566C111.72 192.967 111.071 193.168 110.25 193.168ZM117.77 193C117.135 193 116.636 192.846 116.272 192.538C115.908 192.23 115.726 191.675 115.726 190.872V187.05H114.522V186.056H115.726L115.88 184.39H116.902V186.056H118.946V187.05H116.902V190.872C116.902 191.311 116.99 191.609 117.168 191.768C117.345 191.917 117.658 191.992 118.106 191.992H118.834V193H117.77ZM121.19 193V186.056H122.254L122.352 187.386C122.566 186.929 122.893 186.565 123.332 186.294C123.77 186.023 124.312 185.888 124.956 185.888V187.12H124.634C124.223 187.12 123.845 187.195 123.5 187.344C123.154 187.484 122.879 187.727 122.674 188.072C122.468 188.417 122.366 188.893 122.366 189.5V193H121.19ZM129.93 193.168C129.276 193.168 128.688 193.019 128.166 192.72C127.643 192.421 127.228 192.001 126.92 191.46C126.621 190.909 126.472 190.265 126.472 189.528C126.472 188.791 126.626 188.151 126.934 187.61C127.242 187.059 127.657 186.635 128.18 186.336C128.712 186.037 129.304 185.888 129.958 185.888C130.611 185.888 131.199 186.037 131.722 186.336C132.244 186.635 132.655 187.059 132.954 187.61C133.262 188.151 133.416 188.791 133.416 189.528C133.416 190.265 133.262 190.909 132.954 191.46C132.646 192.001 132.226 192.421 131.694 192.72C131.171 193.019 130.583 193.168 129.93 193.168ZM129.93 192.16C130.331 192.16 130.704 192.062 131.05 191.866C131.395 191.67 131.675 191.376 131.89 190.984C132.104 190.592 132.212 190.107 132.212 189.528C132.212 188.949 132.104 188.464 131.89 188.072C131.684 187.68 131.409 187.386 131.064 187.19C130.718 186.994 130.35 186.896 129.958 186.896C129.556 186.896 129.183 186.994 128.838 187.19C128.492 187.386 128.212 187.68 127.998 188.072C127.783 188.464 127.676 188.949 127.676 189.528C127.676 190.107 127.783 190.592 127.998 190.984C128.212 191.376 128.488 191.67 128.824 191.866C129.169 192.062 129.538 192.16 129.93 192.16ZM143 190.816C142.608 190.816 142.249 190.765 141.922 190.662L141.222 191.32C141.325 191.395 141.451 191.46 141.6 191.516C141.759 191.563 141.983 191.609 142.272 191.656C142.561 191.693 142.967 191.735 143.49 191.782C144.423 191.847 145.091 192.062 145.492 192.426C145.893 192.79 146.094 193.266 146.094 193.854C146.094 194.255 145.982 194.638 145.758 195.002C145.543 195.366 145.207 195.665 144.75 195.898C144.302 196.131 143.723 196.248 143.014 196.248C142.389 196.248 141.833 196.164 141.348 195.996C140.863 195.837 140.485 195.59 140.214 195.254C139.943 194.927 139.808 194.512 139.808 194.008C139.808 193.747 139.878 193.462 140.018 193.154C140.158 192.855 140.419 192.571 140.802 192.3C140.597 192.216 140.419 192.127 140.27 192.034C140.13 191.931 139.999 191.819 139.878 191.698V191.376L141.068 190.2C140.517 189.733 140.242 189.117 140.242 188.352C140.242 187.895 140.349 187.479 140.564 187.106C140.779 186.733 141.091 186.439 141.502 186.224C141.913 186 142.412 185.888 143 185.888C143.401 185.888 143.765 185.944 144.092 186.056H146.654V186.938L145.352 186.994C145.623 187.386 145.758 187.839 145.758 188.352C145.758 188.809 145.646 189.225 145.422 189.598C145.207 189.971 144.895 190.27 144.484 190.494C144.083 190.709 143.588 190.816 143 190.816ZM143 189.85C143.495 189.85 143.887 189.724 144.176 189.472C144.475 189.211 144.624 188.837 144.624 188.352C144.624 187.876 144.475 187.512 144.176 187.26C143.887 186.999 143.495 186.868 143 186.868C142.496 186.868 142.095 186.999 141.796 187.26C141.507 187.512 141.362 187.876 141.362 188.352C141.362 188.837 141.507 189.211 141.796 189.472C142.095 189.724 142.496 189.85 143 189.85ZM140.956 193.896C140.956 194.363 141.152 194.708 141.544 194.932C141.936 195.165 142.426 195.282 143.014 195.282C143.593 195.282 144.055 195.156 144.4 194.904C144.755 194.652 144.932 194.316 144.932 193.896C144.932 193.597 144.811 193.336 144.568 193.112C144.325 192.897 143.877 192.771 143.224 192.734C142.711 192.697 142.267 192.65 141.894 192.594C141.511 192.799 141.259 193.019 141.138 193.252C141.017 193.495 140.956 193.709 140.956 193.896ZM148.731 193V186.056H149.795L149.893 187.386C150.107 186.929 150.434 186.565 150.873 186.294C151.311 186.023 151.853 185.888 152.497 185.888V187.12H152.175C151.764 187.12 151.386 187.195 151.041 187.344C150.695 187.484 150.42 187.727 150.215 188.072C150.009 188.417 149.907 188.893 149.907 189.5V193H148.731ZM156.877 193.168C156.298 193.168 155.817 193.07 155.435 192.874C155.052 192.678 154.767 192.417 154.581 192.09C154.394 191.763 154.301 191.409 154.301 191.026C154.301 190.317 154.571 189.771 155.113 189.388C155.654 189.005 156.391 188.814 157.325 188.814H159.201V188.73C159.201 188.123 159.042 187.666 158.725 187.358C158.407 187.041 157.983 186.882 157.451 186.882C156.993 186.882 156.597 186.999 156.261 187.232C155.934 187.456 155.729 187.787 155.645 188.226H154.441C154.487 187.722 154.655 187.297 154.945 186.952C155.243 186.607 155.612 186.345 156.051 186.168C156.489 185.981 156.956 185.888 157.451 185.888C158.421 185.888 159.149 186.149 159.635 186.672C160.129 187.185 160.377 187.871 160.377 188.73V193H159.327L159.257 191.754C159.061 192.146 158.771 192.482 158.389 192.762C158.015 193.033 157.511 193.168 156.877 193.168ZM157.059 192.174C157.507 192.174 157.889 192.057 158.207 191.824C158.533 191.591 158.781 191.287 158.949 190.914C159.117 190.541 159.201 190.149 159.201 189.738V189.724H157.423C156.732 189.724 156.242 189.845 155.953 190.088C155.673 190.321 155.533 190.615 155.533 190.97C155.533 191.334 155.663 191.628 155.925 191.852C156.195 192.067 156.573 192.174 157.059 192.174ZM165.443 193C164.809 193 164.309 192.846 163.945 192.538C163.581 192.23 163.399 191.675 163.399 190.872V187.05H162.195V186.056H163.399L163.553 184.39H164.575V186.056H166.619V187.05H164.575V190.872C164.575 191.311 164.664 191.609 164.841 191.768C165.019 191.917 165.331 191.992 165.779 191.992H166.507V193H165.443ZM171.397 193.168C170.576 193.168 169.923 192.921 169.437 192.426C168.952 191.922 168.709 191.152 168.709 190.116V186.056H169.885V189.99C169.885 191.437 170.478 192.16 171.663 192.16C172.27 192.16 172.769 191.945 173.161 191.516C173.563 191.077 173.763 190.457 173.763 189.654V186.056H174.939V193H173.875L173.791 191.754C173.577 192.193 173.255 192.538 172.825 192.79C172.405 193.042 171.929 193.168 171.397 193.168ZM178.339 184.516C178.106 184.516 177.91 184.441 177.751 184.292C177.602 184.133 177.527 183.937 177.527 183.704C177.527 183.48 177.602 183.293 177.751 183.144C177.91 182.995 178.106 182.92 178.339 182.92C178.563 182.92 178.755 182.995 178.913 183.144C179.072 183.293 179.151 183.48 179.151 183.704C179.151 183.937 179.072 184.133 178.913 184.292C178.755 184.441 178.563 184.516 178.339 184.516ZM177.751 193V186.056H178.927V193H177.751ZM184.469 193C183.834 193 183.335 192.846 182.971 192.538C182.607 192.23 182.425 191.675 182.425 190.872V187.05H181.221V186.056H182.425L182.579 184.39H183.601V186.056H185.645V187.05H183.601V190.872C183.601 191.311 183.689 191.609 183.867 191.768C184.044 191.917 184.357 191.992 184.805 191.992H185.533V193H184.469ZM190.861 193.168C190.208 193.168 189.62 193.019 189.097 192.72C188.575 192.421 188.159 192.001 187.851 191.46C187.553 190.909 187.403 190.265 187.403 189.528C187.403 188.791 187.557 188.151 187.865 187.61C188.173 187.059 188.589 186.635 189.111 186.336C189.643 186.037 190.236 185.888 190.889 185.888C191.543 185.888 192.131 186.037 192.653 186.336C193.176 186.635 193.587 187.059 193.885 187.61C194.193 188.151 194.347 188.791 194.347 189.528C194.347 190.265 194.193 190.909 193.885 191.46C193.577 192.001 193.157 192.421 192.625 192.72C192.103 193.019 191.515 193.168 190.861 193.168ZM190.861 192.16C191.263 192.16 191.636 192.062 191.981 191.866C192.327 191.67 192.607 191.376 192.821 190.984C193.036 190.592 193.143 190.107 193.143 189.528C193.143 188.949 193.036 188.464 192.821 188.072C192.616 187.68 192.341 187.386 191.995 187.19C191.65 186.994 191.281 186.896 190.889 186.896C190.488 186.896 190.115 186.994 189.769 187.19C189.424 187.386 189.144 187.68 188.929 188.072C188.715 188.464 188.607 188.949 188.607 189.528C188.607 190.107 188.715 190.592 188.929 190.984C189.144 191.376 189.419 191.67 189.755 191.866C190.101 192.062 190.469 192.16 190.861 192.16ZM204.338 193.168C203.647 193.168 203.04 193.009 202.518 192.692C202.004 192.375 201.603 191.941 201.314 191.39C201.034 190.839 200.894 190.214 200.894 189.514C200.894 188.814 201.038 188.193 201.328 187.652C201.617 187.101 202.018 186.672 202.532 186.364C203.045 186.047 203.652 185.888 204.352 185.888C204.921 185.888 205.425 186.005 205.864 186.238C206.302 186.471 206.643 186.798 206.886 187.218V182.92H208.062V193H206.998L206.886 191.852C206.662 192.188 206.34 192.491 205.92 192.762C205.5 193.033 204.972 193.168 204.338 193.168ZM204.464 192.146C204.93 192.146 205.341 192.039 205.696 191.824C206.06 191.6 206.34 191.292 206.536 190.9C206.741 190.508 206.844 190.051 206.844 189.528C206.844 189.005 206.741 188.548 206.536 188.156C206.34 187.764 206.06 187.461 205.696 187.246C205.341 187.022 204.93 186.91 204.464 186.91C204.006 186.91 203.596 187.022 203.232 187.246C202.877 187.461 202.597 187.764 202.392 188.156C202.196 188.548 202.098 189.005 202.098 189.528C202.098 190.051 202.196 190.508 202.392 190.9C202.597 191.292 202.877 191.6 203.232 191.824C203.596 192.039 204.006 192.146 204.464 192.146ZM213.039 193.168C212.46 193.168 211.979 193.07 211.597 192.874C211.214 192.678 210.929 192.417 210.743 192.09C210.556 191.763 210.463 191.409 210.463 191.026C210.463 190.317 210.733 189.771 211.275 189.388C211.816 189.005 212.553 188.814 213.487 188.814H215.363V188.73C215.363 188.123 215.204 187.666 214.887 187.358C214.569 187.041 214.145 186.882 213.613 186.882C213.155 186.882 212.759 186.999 212.423 187.232C212.096 187.456 211.891 187.787 211.807 188.226H210.603C210.649 187.722 210.817 187.297 211.107 186.952C211.405 186.607 211.774 186.345 212.213 186.168C212.651 185.981 213.118 185.888 213.613 185.888C214.583 185.888 215.311 186.149 215.797 186.672C216.291 187.185 216.539 187.871 216.539 188.73V193H215.489L215.419 191.754C215.223 192.146 214.933 192.482 214.551 192.762C214.177 193.033 213.673 193.168 213.039 193.168ZM213.221 192.174C213.669 192.174 214.051 192.057 214.369 191.824C214.695 191.591 214.943 191.287 215.111 190.914C215.279 190.541 215.363 190.149 215.363 189.738V189.724H213.585C212.894 189.724 212.404 189.845 212.115 190.088C211.835 190.321 211.695 190.615 211.695 190.97C211.695 191.334 211.825 191.628 212.087 191.852C212.357 192.067 212.735 192.174 213.221 192.174ZM226.168 193.168C225.337 193.168 224.647 192.958 224.096 192.538C223.545 192.118 223.223 191.549 223.13 190.83H224.334C224.409 191.194 224.6 191.511 224.908 191.782C225.225 192.043 225.65 192.174 226.182 192.174C226.677 192.174 227.041 192.071 227.274 191.866C227.507 191.651 227.624 191.399 227.624 191.11C227.624 190.69 227.47 190.41 227.162 190.27C226.863 190.13 226.439 190.004 225.888 189.892C225.515 189.817 225.141 189.71 224.768 189.57C224.395 189.43 224.082 189.234 223.83 188.982C223.578 188.721 223.452 188.38 223.452 187.96C223.452 187.353 223.676 186.859 224.124 186.476C224.581 186.084 225.197 185.888 225.972 185.888C226.709 185.888 227.311 186.075 227.778 186.448C228.254 186.812 228.529 187.335 228.604 188.016H227.442C227.395 187.661 227.241 187.386 226.98 187.19C226.728 186.985 226.387 186.882 225.958 186.882C225.538 186.882 225.211 186.971 224.978 187.148C224.754 187.325 224.642 187.559 224.642 187.848C224.642 188.128 224.787 188.347 225.076 188.506C225.375 188.665 225.776 188.8 226.28 188.912C226.709 189.005 227.115 189.122 227.498 189.262C227.89 189.393 228.207 189.593 228.45 189.864C228.702 190.125 228.828 190.508 228.828 191.012C228.837 191.637 228.599 192.155 228.114 192.566C227.638 192.967 226.989 193.168 226.168 193.168ZM233.792 193.168C232.971 193.168 232.317 192.921 231.832 192.426C231.347 191.922 231.104 191.152 231.104 190.116V186.056H232.28V189.99C232.28 191.437 232.873 192.16 234.058 192.16C234.665 192.16 235.164 191.945 235.556 191.516C235.957 191.077 236.158 190.457 236.158 189.654V186.056H237.334V193H236.27L236.186 191.754C235.971 192.193 235.649 192.538 235.22 192.79C234.8 193.042 234.324 193.168 233.792 193.168ZM242.33 193.168C241.751 193.168 241.27 193.07 240.888 192.874C240.505 192.678 240.22 192.417 240.034 192.09C239.847 191.763 239.754 191.409 239.754 191.026C239.754 190.317 240.024 189.771 240.566 189.388C241.107 189.005 241.844 188.814 242.778 188.814H244.654V188.73C244.654 188.123 244.495 187.666 244.178 187.358C243.86 187.041 243.436 186.882 242.904 186.882C242.446 186.882 242.05 186.999 241.714 187.232C241.387 187.456 241.182 187.787 241.098 188.226H239.894C239.94 187.722 240.108 187.297 240.398 186.952C240.696 186.607 241.065 186.345 241.504 186.168C241.942 185.981 242.409 185.888 242.904 185.888C243.874 185.888 244.602 186.149 245.088 186.672C245.582 187.185 245.83 187.871 245.83 188.73V193H244.78L244.71 191.754C244.514 192.146 244.224 192.482 243.842 192.762C243.468 193.033 242.964 193.168 242.33 193.168ZM242.512 192.174C242.96 192.174 243.342 192.057 243.66 191.824C243.986 191.591 244.234 191.287 244.402 190.914C244.57 190.541 244.654 190.149 244.654 189.738V189.724H242.876C242.185 189.724 241.695 189.845 241.406 190.088C241.126 190.321 240.986 190.615 240.986 190.97C240.986 191.334 241.116 191.628 241.378 191.852C241.648 192.067 242.026 192.174 242.512 192.174ZM82.5245 217.168C81.8619 217.168 81.2739 217.019 80.7605 216.72C80.2472 216.412 79.8412 215.987 79.5425 215.446C79.2532 214.905 79.1085 214.265 79.1085 213.528C79.1085 212.8 79.2532 212.165 79.5425 211.624C79.8319 211.073 80.2332 210.649 80.7465 210.35C81.2692 210.042 81.8712 209.888 82.5525 209.888C83.2245 209.888 83.8032 210.042 84.2885 210.35C84.7832 210.649 85.1612 211.045 85.4225 211.54C85.6839 212.035 85.8145 212.567 85.8145 213.136C85.8145 213.239 85.8099 213.341 85.8005 213.444C85.8005 213.547 85.8005 213.663 85.8005 213.794H80.2705C80.2985 214.326 80.4199 214.769 80.6345 215.124C80.8585 215.469 81.1339 215.731 81.4605 215.908C81.7965 216.085 82.1512 216.174 82.5245 216.174C83.0099 216.174 83.4159 216.062 83.7425 215.838C84.0692 215.614 84.3072 215.311 84.4565 214.928H85.6185C85.4319 215.572 85.0725 216.109 84.5405 216.538C84.0179 216.958 83.3459 217.168 82.5245 217.168ZM82.5245 210.882C81.9645 210.882 81.4652 211.055 81.0265 211.4C80.5972 211.736 80.3499 212.231 80.2845 212.884H84.6525C84.6245 212.259 84.4099 211.769 84.0085 211.414C83.6072 211.059 83.1125 210.882 82.5245 210.882ZM88.1232 217V210.056H89.1872L89.2712 211.064C89.4952 210.691 89.7939 210.401 90.1672 210.196C90.5406 209.991 90.9606 209.888 91.4272 209.888C91.9779 209.888 92.4492 210 92.8412 210.224C93.2426 210.448 93.5506 210.789 93.7652 211.246C94.0079 210.826 94.3392 210.495 94.7592 210.252C95.1886 210.009 95.6506 209.888 96.1452 209.888C96.9759 209.888 97.6386 210.14 98.1332 210.644C98.6279 211.139 98.8752 211.904 98.8752 212.94V217H97.7132V213.066C97.7132 212.347 97.5686 211.806 97.2792 211.442C96.9899 211.078 96.5746 210.896 96.0332 210.896C95.4732 210.896 95.0066 211.115 94.6332 211.554C94.2692 211.983 94.0872 212.599 94.0872 213.402V217H92.9112V213.066C92.9112 212.347 92.7666 211.806 92.4772 211.442C92.1879 211.078 91.7726 210.896 91.2312 210.896C90.6806 210.896 90.2186 211.115 89.8452 211.554C89.4812 211.983 89.2992 212.599 89.2992 213.402V217H88.1232ZM101.397 220.08V210.056H102.461L102.573 211.204C102.797 210.868 103.114 210.565 103.525 210.294C103.945 210.023 104.477 209.888 105.121 209.888C105.811 209.888 106.413 210.047 106.927 210.364C107.44 210.681 107.837 211.115 108.117 211.666C108.406 212.217 108.551 212.842 108.551 213.542C108.551 214.242 108.406 214.867 108.117 215.418C107.837 215.959 107.435 216.389 106.913 216.706C106.399 217.014 105.797 217.168 105.107 217.168C104.537 217.168 104.029 217.051 103.581 216.818C103.142 216.585 102.806 216.258 102.573 215.838V220.08H101.397ZM104.981 216.146C105.447 216.146 105.858 216.039 106.213 215.824C106.567 215.6 106.847 215.292 107.053 214.9C107.258 214.508 107.361 214.051 107.361 213.528C107.361 213.005 107.258 212.548 107.053 212.156C106.847 211.764 106.567 211.461 106.213 211.246C105.858 211.022 105.447 210.91 104.981 210.91C104.514 210.91 104.103 211.022 103.749 211.246C103.394 211.461 103.114 211.764 102.909 212.156C102.703 212.548 102.601 213.005 102.601 213.528C102.601 214.051 102.703 214.508 102.909 214.9C103.114 215.292 103.394 215.6 103.749 215.824C104.103 216.039 104.514 216.146 104.981 216.146ZM110.938 217V210.056H112.002L112.1 211.386C112.314 210.929 112.641 210.565 113.08 210.294C113.518 210.023 114.06 209.888 114.704 209.888V211.12H114.382C113.971 211.12 113.593 211.195 113.248 211.344C112.902 211.484 112.627 211.727 112.422 212.072C112.216 212.417 112.114 212.893 112.114 213.5V217H110.938ZM119.636 217.168C118.973 217.168 118.385 217.019 117.872 216.72C117.359 216.412 116.953 215.987 116.654 215.446C116.365 214.905 116.22 214.265 116.22 213.528C116.22 212.8 116.365 212.165 116.654 211.624C116.943 211.073 117.345 210.649 117.858 210.35C118.381 210.042 118.983 209.888 119.664 209.888C120.336 209.888 120.915 210.042 121.4 210.35C121.895 210.649 122.273 211.045 122.534 211.54C122.795 212.035 122.926 212.567 122.926 213.136C122.926 213.239 122.921 213.341 122.912 213.444C122.912 213.547 122.912 213.663 122.912 213.794H117.382C117.41 214.326 117.531 214.769 117.746 215.124C117.97 215.469 118.245 215.731 118.572 215.908C118.908 216.085 119.263 216.174 119.636 216.174C120.121 216.174 120.527 216.062 120.854 215.838C121.181 215.614 121.419 215.311 121.568 214.928H122.73C122.543 215.572 122.184 216.109 121.652 216.538C121.129 216.958 120.457 217.168 119.636 217.168ZM119.636 210.882C119.076 210.882 118.577 211.055 118.138 211.4C117.709 211.736 117.461 212.231 117.396 212.884H121.764C121.736 212.259 121.521 211.769 121.12 211.414C120.719 211.059 120.224 210.882 119.636 210.882ZM127.895 217.168C127.064 217.168 126.373 216.958 125.823 216.538C125.272 216.118 124.95 215.549 124.857 214.83H126.061C126.135 215.194 126.327 215.511 126.635 215.782C126.952 216.043 127.377 216.174 127.909 216.174C128.403 216.174 128.767 216.071 129.001 215.866C129.234 215.651 129.351 215.399 129.351 215.11C129.351 214.69 129.197 214.41 128.889 214.27C128.59 214.13 128.165 214.004 127.615 213.892C127.241 213.817 126.868 213.71 126.495 213.57C126.121 213.43 125.809 213.234 125.557 212.982C125.305 212.721 125.179 212.38 125.179 211.96C125.179 211.353 125.403 210.859 125.851 210.476C126.308 210.084 126.924 209.888 127.699 209.888C128.436 209.888 129.038 210.075 129.505 210.448C129.981 210.812 130.256 211.335 130.331 212.016H129.169C129.122 211.661 128.968 211.386 128.707 211.19C128.455 210.985 128.114 210.882 127.685 210.882C127.265 210.882 126.938 210.971 126.705 211.148C126.481 211.325 126.369 211.559 126.369 211.848C126.369 212.128 126.513 212.347 126.803 212.506C127.101 212.665 127.503 212.8 128.007 212.912C128.436 213.005 128.842 213.122 129.225 213.262C129.617 213.393 129.934 213.593 130.177 213.864C130.429 214.125 130.555 214.508 130.555 215.012C130.564 215.637 130.326 216.155 129.841 216.566C129.365 216.967 128.716 217.168 127.895 217.168ZM135.295 217.168C134.716 217.168 134.235 217.07 133.853 216.874C133.47 216.678 133.185 216.417 132.999 216.09C132.812 215.763 132.719 215.409 132.719 215.026C132.719 214.317 132.989 213.771 133.531 213.388C134.072 213.005 134.809 212.814 135.743 212.814H137.619V212.73C137.619 212.123 137.46 211.666 137.143 211.358C136.825 211.041 136.401 210.882 135.869 210.882C135.411 210.882 135.015 210.999 134.679 211.232C134.352 211.456 134.147 211.787 134.063 212.226H132.859C132.905 211.722 133.073 211.297 133.363 210.952C133.661 210.607 134.03 210.345 134.469 210.168C134.907 209.981 135.374 209.888 135.869 209.888C136.839 209.888 137.567 210.149 138.053 210.672C138.547 211.185 138.795 211.871 138.795 212.73V217H137.745L137.675 215.754C137.479 216.146 137.189 216.482 136.807 216.762C136.433 217.033 135.929 217.168 135.295 217.168ZM135.477 216.174C135.925 216.174 136.307 216.057 136.625 215.824C136.951 215.591 137.199 215.287 137.367 214.914C137.535 214.541 137.619 214.149 137.619 213.738V213.724H135.841C135.15 213.724 134.66 213.845 134.371 214.088C134.091 214.321 133.951 214.615 133.951 214.97C133.951 215.334 134.081 215.628 134.343 215.852C134.613 216.067 134.991 216.174 135.477 216.174ZM145.764 217V210.056H146.828L146.898 211.302C147.122 210.863 147.444 210.518 147.864 210.266C148.284 210.014 148.76 209.888 149.292 209.888C150.113 209.888 150.767 210.14 151.252 210.644C151.747 211.139 151.994 211.904 151.994 212.94V217H150.818V213.066C150.818 211.619 150.221 210.896 149.026 210.896C148.429 210.896 147.929 211.115 147.528 211.554C147.136 211.983 146.94 212.599 146.94 213.402V217H145.764ZM156.836 217.168C156.257 217.168 155.776 217.07 155.394 216.874C155.011 216.678 154.726 216.417 154.54 216.09C154.353 215.763 154.26 215.409 154.26 215.026C154.26 214.317 154.53 213.771 155.072 213.388C155.613 213.005 156.35 212.814 157.284 212.814H159.16V212.73C159.16 212.123 159.001 211.666 158.684 211.358C158.366 211.041 157.942 210.882 157.41 210.882C156.952 210.882 156.556 210.999 156.22 211.232C155.893 211.456 155.688 211.787 155.604 212.226H154.4C154.446 211.722 154.614 211.297 154.904 210.952C155.202 210.607 155.571 210.345 156.01 210.168C156.448 209.981 156.915 209.888 157.41 209.888C158.38 209.888 159.108 210.149 159.594 210.672C160.088 211.185 160.336 211.871 160.336 212.73V217H159.286L159.216 215.754C159.02 216.146 158.73 216.482 158.348 216.762C157.974 217.033 157.47 217.168 156.836 217.168ZM157.018 216.174C157.466 216.174 157.848 216.057 158.166 215.824C158.492 215.591 158.74 215.287 158.908 214.914C159.076 214.541 159.16 214.149 159.16 213.738V213.724H157.382C156.691 213.724 156.201 213.845 155.912 214.088C155.632 214.321 155.492 214.615 155.492 214.97C155.492 215.334 155.622 215.628 155.884 215.852C156.154 216.067 156.532 216.174 157.018 216.174ZM167.375 217V207.2H168.551V217H167.375ZM171.379 217V207.2H172.555L177.777 215.054V207.2H178.953V217H177.777L172.555 209.146V217H171.379ZM185.309 217.168C184.6 217.168 184.002 217.037 183.517 216.776C183.032 216.505 182.64 216.146 182.341 215.698C182.052 215.25 181.837 214.751 181.697 214.2C181.566 213.64 181.501 213.071 181.501 212.492C181.501 211.409 181.65 210.462 181.949 209.65C182.248 208.829 182.677 208.189 183.237 207.732C183.806 207.265 184.492 207.032 185.295 207.032C185.911 207.032 186.438 207.153 186.877 207.396C187.316 207.639 187.661 207.965 187.913 208.376C188.174 208.777 188.338 209.225 188.403 209.72H187.311C187.208 209.188 186.98 208.777 186.625 208.488C186.27 208.199 185.822 208.054 185.281 208.054C184.544 208.054 183.923 208.404 183.419 209.104C182.924 209.795 182.658 210.877 182.621 212.352C182.845 211.913 183.2 211.535 183.685 211.218C184.18 210.891 184.772 210.728 185.463 210.728C186.023 210.728 186.546 210.859 187.031 211.12C187.526 211.381 187.927 211.75 188.235 212.226C188.543 212.693 188.697 213.243 188.697 213.878C188.697 214.429 188.562 214.956 188.291 215.46C188.02 215.964 187.628 216.375 187.115 216.692C186.611 217.009 186.009 217.168 185.309 217.168ZM185.225 216.132C185.664 216.132 186.056 216.039 186.401 215.852C186.746 215.665 187.017 215.409 187.213 215.082C187.409 214.746 187.507 214.363 187.507 213.934C187.507 213.271 187.288 212.744 186.849 212.352C186.42 211.951 185.878 211.75 185.225 211.75C184.786 211.75 184.394 211.853 184.049 212.058C183.704 212.254 183.428 212.52 183.223 212.856C183.027 213.192 182.929 213.556 182.929 213.948C182.929 214.368 183.027 214.746 183.223 215.082C183.428 215.409 183.704 215.665 184.049 215.852C184.394 216.039 184.786 216.132 185.225 216.132Z" fill="#333333"/>
<rect x="92" y="134" width="79" height="34" rx="17" fill="url(#paint1_linear_3892_4257)"/>
<path d="M107.084 156V146.2H113.314V147.404H108.568V150.456H112.894V151.632H108.568V154.796H113.314V156H107.084ZM118.688 156C118.007 156 117.465 155.837 117.064 155.51C116.663 155.174 116.462 154.581 116.462 153.732V150.302H115.272V149.056H116.462L116.644 147.292H117.946V149.056H119.906V150.302H117.946V153.732C117.946 154.115 118.025 154.381 118.184 154.53C118.352 154.67 118.637 154.74 119.038 154.74H119.836V156H118.688ZM124.538 156.168C123.95 156.168 123.465 156.07 123.082 155.874C122.699 155.678 122.415 155.421 122.228 155.104C122.041 154.777 121.948 154.423 121.948 154.04C121.948 153.368 122.209 152.836 122.732 152.444C123.255 152.052 124.001 151.856 124.972 151.856H126.792V151.73C126.792 151.189 126.643 150.783 126.344 150.512C126.055 150.241 125.677 150.106 125.21 150.106C124.799 150.106 124.44 150.209 124.132 150.414C123.833 150.61 123.651 150.904 123.586 151.296H122.102C122.149 150.792 122.317 150.363 122.606 150.008C122.905 149.644 123.278 149.369 123.726 149.182C124.183 148.986 124.683 148.888 125.224 148.888C126.195 148.888 126.946 149.145 127.478 149.658C128.01 150.162 128.276 150.853 128.276 151.73V156H126.988L126.862 154.81C126.666 155.193 126.381 155.515 126.008 155.776C125.635 156.037 125.145 156.168 124.538 156.168ZM124.832 154.964C125.233 154.964 125.569 154.871 125.84 154.684C126.12 154.488 126.335 154.231 126.484 153.914C126.643 153.597 126.741 153.247 126.778 152.864H125.126C124.538 152.864 124.118 152.967 123.866 153.172C123.623 153.377 123.502 153.634 123.502 153.942C123.502 154.259 123.619 154.511 123.852 154.698C124.095 154.875 124.421 154.964 124.832 154.964ZM130.756 159.08V149.056H132.086L132.24 150.134C132.464 149.807 132.772 149.518 133.164 149.266C133.556 149.014 134.06 148.888 134.676 148.888C135.348 148.888 135.941 149.047 136.454 149.364C136.968 149.681 137.369 150.115 137.658 150.666C137.957 151.217 138.106 151.842 138.106 152.542C138.106 153.242 137.957 153.867 137.658 154.418C137.369 154.959 136.968 155.389 136.454 155.706C135.941 156.014 135.344 156.168 134.662 156.168C134.121 156.168 133.64 156.061 133.22 155.846C132.81 155.631 132.483 155.328 132.24 154.936V159.08H130.756ZM134.41 154.88C135.045 154.88 135.568 154.665 135.978 154.236C136.389 153.797 136.594 153.228 136.594 152.528C136.594 152.071 136.501 151.665 136.314 151.31C136.128 150.955 135.871 150.68 135.544 150.484C135.218 150.279 134.84 150.176 134.41 150.176C133.776 150.176 133.253 150.395 132.842 150.834C132.441 151.273 132.24 151.837 132.24 152.528C132.24 153.228 132.441 153.797 132.842 154.236C133.253 154.665 133.776 154.88 134.41 154.88ZM142.813 156.168C142.225 156.168 141.74 156.07 141.357 155.874C140.975 155.678 140.69 155.421 140.503 155.104C140.317 154.777 140.223 154.423 140.223 154.04C140.223 153.368 140.485 152.836 141.007 152.444C141.53 152.052 142.277 151.856 143.247 151.856H145.067V151.73C145.067 151.189 144.918 150.783 144.619 150.512C144.33 150.241 143.952 150.106 143.485 150.106C143.075 150.106 142.715 150.209 142.407 150.414C142.109 150.61 141.927 150.904 141.861 151.296H140.377C140.424 150.792 140.592 150.363 140.881 150.008C141.18 149.644 141.553 149.369 142.001 149.182C142.459 148.986 142.958 148.888 143.499 148.888C144.47 148.888 145.221 149.145 145.753 149.658C146.285 150.162 146.551 150.853 146.551 151.73V156H145.263L145.137 154.81C144.941 155.193 144.657 155.515 144.283 155.776C143.91 156.037 143.42 156.168 142.813 156.168ZM143.107 154.964C143.509 154.964 143.845 154.871 144.115 154.684C144.395 154.488 144.61 154.231 144.759 153.914C144.918 153.597 145.016 153.247 145.053 152.864H143.401C142.813 152.864 142.393 152.967 142.141 153.172C141.899 153.377 141.777 153.634 141.777 153.942C141.777 154.259 141.894 154.511 142.127 154.698C142.37 154.875 142.697 154.964 143.107 154.964ZM154.373 156V147.88L152.791 148.244V147.152L154.961 146.2H155.913V156H154.373Z" fill="#F8F8F8"/>
<path d="M105.333 54H158.666V64.6667L156.802 65.7855C153.846 67.5589 150.153 67.5589 147.198 65.7855L145.333 64.6667L143.468 65.7855C140.513 67.5589 136.82 67.5589 133.864 65.7855L132 64.6667L130.135 65.7855C127.179 67.5589 123.487 67.5589 120.531 65.7855L118.666 64.6667L116.802 65.7855C113.846 67.5589 110.153 67.5589 107.198 65.7855L105.333 64.6667V54Z" stroke="#333333" stroke-width="4" stroke-linecap="round" stroke-linejoin="round"/>
<path d="M110.667 67.9859V96.6673H153.334V67.334" stroke="#333333" stroke-width="4" stroke-linecap="round" stroke-linejoin="round"/>
<path d="M110.667 53.7636V43.334H153.334V54.0007" stroke="#333333" stroke-width="4" stroke-linecap="round" stroke-linejoin="round"/>
<path d="M138.666 80.666H125.333V96.666H138.666V80.666Z" stroke="#333333" stroke-width="4" stroke-linecap="round" stroke-linejoin="round"/>
<defs>
<linearGradient id="paint0_linear_3892_4257" x1="0" y1="0" x2="317.415" y2="145.363" gradientUnits="userSpaceOnUse">
<stop stop-color="#FF4B00"/>
<stop offset="1" stop-color="#EE2F23"/>
</linearGradient>
<linearGradient id="paint1_linear_3892_4257" x1="92" y1="134" x2="146.324" y2="191.367" gradientUnits="userSpaceOnUse">
<stop stop-color="#FF4B00"/>
<stop offset="1" stop-color="#EE2F23"/>
</linearGradient>
</defs>
</svg>
