<svg width="264" height="262" viewBox="0 0 264 262" fill="none" xmlns="http://www.w3.org/2000/svg">
<rect x="0.5" y="0.5" width="263" height="261" rx="23.5" stroke="url(#paint0_linear_2684_1238)"/>
<path d="M28.0008 193V183.2H31.0108C32.7375 183.2 34.0068 183.639 34.8188 184.516C35.6402 185.393 36.0508 186.597 36.0508 188.128C36.0508 189.631 35.6402 190.821 34.8188 191.698C34.0068 192.566 32.7375 193 31.0108 193H28.0008ZM29.1768 192.02H30.9828C31.9348 192.02 32.6908 191.866 33.2508 191.558C33.8202 191.241 34.2262 190.793 34.4688 190.214C34.7115 189.626 34.8328 188.931 34.8328 188.128C34.8328 187.307 34.7115 186.602 34.4688 186.014C34.2262 185.426 33.8202 184.973 33.2508 184.656C32.6908 184.339 31.9348 184.18 30.9828 184.18H29.1768V192.02ZM39.1429 184.516C38.9096 184.516 38.7136 184.441 38.5549 184.292C38.4056 184.133 38.3309 183.937 38.3309 183.704C38.3309 183.48 38.4056 183.293 38.5549 183.144C38.7136 182.995 38.9096 182.92 39.1429 182.92C39.3669 182.92 39.5582 182.995 39.7169 183.144C39.8756 183.293 39.9549 183.48 39.9549 183.704C39.9549 183.937 39.8756 184.133 39.7169 184.292C39.5582 184.441 39.3669 184.516 39.1429 184.516ZM38.5549 193V186.056H39.7309V193H38.5549ZM44.5305 193L41.8985 186.056H43.1305L45.2165 191.866L47.3165 186.056H48.5205L45.8885 193H44.5305ZM53.1133 193.168C52.2919 193.168 51.6386 192.921 51.1533 192.426C50.6679 191.922 50.4253 191.152 50.4253 190.116V186.056H51.6013V189.99C51.6013 191.437 52.1939 192.16 53.3793 192.16C53.9859 192.16 54.4853 191.945 54.8773 191.516C55.2786 191.077 55.4793 190.457 55.4793 189.654V186.056H56.6553V193H55.5913L55.5073 191.754C55.2926 192.193 54.9706 192.538 54.5413 192.79C54.1213 193.042 53.6453 193.168 53.1133 193.168ZM59.341 193V182.92H60.517V193H59.341ZM65.9385 190.816C65.5465 190.816 65.1872 190.765 64.8605 190.662L64.1605 191.32C64.2632 191.395 64.3892 191.46 64.5385 191.516C64.6972 191.563 64.9212 191.609 65.2105 191.656C65.4998 191.693 65.9058 191.735 66.4285 191.782C67.3618 191.847 68.0292 192.062 68.4305 192.426C68.8318 192.79 69.0325 193.266 69.0325 193.854C69.0325 194.255 68.9205 194.638 68.6965 195.002C68.4818 195.366 68.1458 195.665 67.6885 195.898C67.2405 196.131 66.6618 196.248 65.9525 196.248C65.3272 196.248 64.7718 196.164 64.2865 195.996C63.8012 195.837 63.4232 195.59 63.1525 195.254C62.8818 194.927 62.7465 194.512 62.7465 194.008C62.7465 193.747 62.8165 193.462 62.9565 193.154C63.0965 192.855 63.3578 192.571 63.7405 192.3C63.5352 192.216 63.3578 192.127 63.2085 192.034C63.0685 191.931 62.9378 191.819 62.8165 191.698V191.376L64.0065 190.2C63.4558 189.733 63.1805 189.117 63.1805 188.352C63.1805 187.895 63.2878 187.479 63.5025 187.106C63.7172 186.733 64.0298 186.439 64.4405 186.224C64.8512 186 65.3505 185.888 65.9385 185.888C66.3398 185.888 66.7038 185.944 67.0305 186.056H69.5925V186.938L68.2905 186.994C68.5612 187.386 68.6965 187.839 68.6965 188.352C68.6965 188.809 68.5845 189.225 68.3605 189.598C68.1458 189.971 67.8332 190.27 67.4225 190.494C67.0212 190.709 66.5265 190.816 65.9385 190.816ZM65.9385 189.85C66.4332 189.85 66.8252 189.724 67.1145 189.472C67.4132 189.211 67.5625 188.837 67.5625 188.352C67.5625 187.876 67.4132 187.512 67.1145 187.26C66.8252 186.999 66.4332 186.868 65.9385 186.868C65.4345 186.868 65.0332 186.999 64.7345 187.26C64.4452 187.512 64.3005 187.876 64.3005 188.352C64.3005 188.837 64.4452 189.211 64.7345 189.472C65.0332 189.724 65.4345 189.85 65.9385 189.85ZM63.8945 193.896C63.8945 194.363 64.0905 194.708 64.4825 194.932C64.8745 195.165 65.3645 195.282 65.9525 195.282C66.5312 195.282 66.9932 195.156 67.3385 194.904C67.6932 194.652 67.8705 194.316 67.8705 193.896C67.8705 193.597 67.7492 193.336 67.5065 193.112C67.2638 192.897 66.8158 192.771 66.1625 192.734C65.6492 192.697 65.2058 192.65 64.8325 192.594C64.4498 192.799 64.1978 193.019 64.0765 193.252C63.9552 193.495 63.8945 193.709 63.8945 193.896ZM74.2031 193.168C73.3818 193.168 72.7285 192.921 72.2431 192.426C71.7578 191.922 71.5151 191.152 71.5151 190.116V186.056H72.6911V189.99C72.6911 191.437 73.2838 192.16 74.4691 192.16C75.0758 192.16 75.5751 191.945 75.9671 191.516C76.3685 191.077 76.5691 190.457 76.5691 189.654V186.056H77.7451V193H76.6811L76.5971 191.754C76.3825 192.193 76.0605 192.538 75.6311 192.79C75.2111 193.042 74.7351 193.168 74.2031 193.168ZM83.5528 193.168C82.8902 193.168 82.3022 193.019 81.7888 192.72C81.2755 192.412 80.8695 191.987 80.5708 191.446C80.2815 190.905 80.1368 190.265 80.1368 189.528C80.1368 188.8 80.2815 188.165 80.5708 187.624C80.8602 187.073 81.2615 186.649 81.7748 186.35C82.2975 186.042 82.8995 185.888 83.5808 185.888C84.2528 185.888 84.8315 186.042 85.3168 186.35C85.8115 186.649 86.1895 187.045 86.4508 187.54C86.7122 188.035 86.8428 188.567 86.8428 189.136C86.8428 189.239 86.8382 189.341 86.8288 189.444C86.8288 189.547 86.8288 189.663 86.8288 189.794H81.2988C81.3268 190.326 81.4482 190.769 81.6628 191.124C81.8868 191.469 82.1622 191.731 82.4888 191.908C82.8248 192.085 83.1795 192.174 83.5528 192.174C84.0382 192.174 84.4442 192.062 84.7708 191.838C85.0975 191.614 85.3355 191.311 85.4848 190.928H86.6468C86.4602 191.572 86.1008 192.109 85.5688 192.538C85.0462 192.958 84.3742 193.168 83.5528 193.168ZM83.5528 186.882C82.9928 186.882 82.4935 187.055 82.0548 187.4C81.6255 187.736 81.3782 188.231 81.3128 188.884H85.6808C85.6528 188.259 85.4382 187.769 85.0368 187.414C84.6355 187.059 84.1408 186.882 83.5528 186.882ZM96.2666 193.168C95.436 193.168 94.7453 192.958 94.1946 192.538C93.644 192.118 93.322 191.549 93.2286 190.83H94.4326C94.5073 191.194 94.6986 191.511 95.0066 191.782C95.324 192.043 95.7486 192.174 96.2806 192.174C96.7753 192.174 97.1393 192.071 97.3726 191.866C97.606 191.651 97.7226 191.399 97.7226 191.11C97.7226 190.69 97.5686 190.41 97.2606 190.27C96.962 190.13 96.5373 190.004 95.9866 189.892C95.6133 189.817 95.24 189.71 94.8666 189.57C94.4933 189.43 94.1806 189.234 93.9286 188.982C93.6766 188.721 93.5506 188.38 93.5506 187.96C93.5506 187.353 93.7746 186.859 94.2226 186.476C94.68 186.084 95.296 185.888 96.0706 185.888C96.808 185.888 97.41 186.075 97.8766 186.448C98.3526 186.812 98.628 187.335 98.7026 188.016H97.5406C97.494 187.661 97.34 187.386 97.0786 187.19C96.8266 186.985 96.486 186.882 96.0566 186.882C95.6366 186.882 95.31 186.971 95.0766 187.148C94.8526 187.325 94.7406 187.559 94.7406 187.848C94.7406 188.128 94.8853 188.347 95.1746 188.506C95.4733 188.665 95.8746 188.8 96.3786 188.912C96.808 189.005 97.214 189.122 97.5966 189.262C97.9886 189.393 98.306 189.593 98.5486 189.864C98.8006 190.125 98.9266 190.508 98.9266 191.012C98.936 191.637 98.698 192.155 98.2126 192.566C97.7366 192.967 97.088 193.168 96.2666 193.168ZM103.891 193.168C103.069 193.168 102.416 192.921 101.931 192.426C101.445 191.922 101.203 191.152 101.203 190.116V186.056H102.379V189.99C102.379 191.437 102.971 192.16 104.157 192.16C104.763 192.16 105.263 191.945 105.655 191.516C106.056 191.077 106.257 190.457 106.257 189.654V186.056H107.433V193H106.369L106.285 191.754C106.07 192.193 105.748 192.538 105.319 192.79C104.899 193.042 104.423 193.168 103.891 193.168ZM112.428 193.168C111.85 193.168 111.369 193.07 110.986 192.874C110.604 192.678 110.319 192.417 110.132 192.09C109.946 191.763 109.852 191.409 109.852 191.026C109.852 190.317 110.123 189.771 110.664 189.388C111.206 189.005 111.943 188.814 112.876 188.814H114.752V188.73C114.752 188.123 114.594 187.666 114.276 187.358C113.959 187.041 113.534 186.882 113.002 186.882C112.545 186.882 112.148 186.999 111.812 187.232C111.486 187.456 111.28 187.787 111.196 188.226H109.992C110.039 187.722 110.207 187.297 110.496 186.952C110.795 186.607 111.164 186.345 111.602 186.168C112.041 185.981 112.508 185.888 113.002 185.888C113.973 185.888 114.701 186.149 115.186 186.672C115.681 187.185 115.928 187.871 115.928 188.73V193H114.878L114.808 191.754C114.612 192.146 114.323 192.482 113.94 192.762C113.567 193.033 113.063 193.168 112.428 193.168ZM112.61 192.174C113.058 192.174 113.441 192.057 113.758 191.824C114.085 191.591 114.332 191.287 114.5 190.914C114.668 190.541 114.752 190.149 114.752 189.738V189.724H112.974C112.284 189.724 111.794 189.845 111.504 190.088C111.224 190.321 111.084 190.615 111.084 190.97C111.084 191.334 111.215 191.628 111.476 191.852C111.747 192.067 112.125 192.174 112.61 192.174ZM124.9 193L122.268 186.056H123.5L125.586 191.866L127.686 186.056H128.89L126.258 193H124.9ZM132.903 193.168C132.324 193.168 131.844 193.07 131.461 192.874C131.078 192.678 130.794 192.417 130.607 192.09C130.42 191.763 130.327 191.409 130.327 191.026C130.327 190.317 130.598 189.771 131.139 189.388C131.68 189.005 132.418 188.814 133.351 188.814H135.227V188.73C135.227 188.123 135.068 187.666 134.751 187.358C134.434 187.041 134.009 186.882 133.477 186.882C133.02 186.882 132.623 186.999 132.287 187.232C131.96 187.456 131.755 187.787 131.671 188.226H130.467C130.514 187.722 130.682 187.297 130.971 186.952C131.27 186.607 131.638 186.345 132.077 186.168C132.516 185.981 132.982 185.888 133.477 185.888C134.448 185.888 135.176 186.149 135.661 186.672C136.156 187.185 136.403 187.871 136.403 188.73V193H135.353L135.283 191.754C135.087 192.146 134.798 192.482 134.415 192.762C134.042 193.033 133.538 193.168 132.903 193.168ZM133.085 192.174C133.533 192.174 133.916 192.057 134.233 191.824C134.56 191.591 134.807 191.287 134.975 190.914C135.143 190.541 135.227 190.149 135.227 189.738V189.724H133.449C132.758 189.724 132.268 189.845 131.979 190.088C131.699 190.321 131.559 190.615 131.559 190.97C131.559 191.334 131.69 191.628 131.951 191.852C132.222 192.067 132.6 192.174 133.085 192.174ZM141.661 190.816C141.269 190.816 140.91 190.765 140.583 190.662L139.883 191.32C139.986 191.395 140.112 191.46 140.261 191.516C140.42 191.563 140.644 191.609 140.933 191.656C141.223 191.693 141.629 191.735 142.151 191.782C143.085 191.847 143.752 192.062 144.153 192.426C144.555 192.79 144.755 193.266 144.755 193.854C144.755 194.255 144.643 194.638 144.419 195.002C144.205 195.366 143.869 195.665 143.411 195.898C142.963 196.131 142.385 196.248 141.675 196.248C141.05 196.248 140.495 196.164 140.009 195.996C139.524 195.837 139.146 195.59 138.875 195.254C138.605 194.927 138.469 194.512 138.469 194.008C138.469 193.747 138.539 193.462 138.679 193.154C138.819 192.855 139.081 192.571 139.463 192.3C139.258 192.216 139.081 192.127 138.931 192.034C138.791 191.931 138.661 191.819 138.539 191.698V191.376L139.729 190.2C139.179 189.733 138.903 189.117 138.903 188.352C138.903 187.895 139.011 187.479 139.225 187.106C139.44 186.733 139.753 186.439 140.163 186.224C140.574 186 141.073 185.888 141.661 185.888C142.063 185.888 142.427 185.944 142.753 186.056H145.315V186.938L144.013 186.994C144.284 187.386 144.419 187.839 144.419 188.352C144.419 188.809 144.307 189.225 144.083 189.598C143.869 189.971 143.556 190.27 143.145 190.494C142.744 190.709 142.249 190.816 141.661 190.816ZM141.661 189.85C142.156 189.85 142.548 189.724 142.837 189.472C143.136 189.211 143.285 188.837 143.285 188.352C143.285 187.876 143.136 187.512 142.837 187.26C142.548 186.999 142.156 186.868 141.661 186.868C141.157 186.868 140.756 186.999 140.457 187.26C140.168 187.512 140.023 187.876 140.023 188.352C140.023 188.837 140.168 189.211 140.457 189.472C140.756 189.724 141.157 189.85 141.661 189.85ZM139.617 193.896C139.617 194.363 139.813 194.708 140.205 194.932C140.597 195.165 141.087 195.282 141.675 195.282C142.254 195.282 142.716 195.156 143.061 194.904C143.416 194.652 143.593 194.316 143.593 193.896C143.593 193.597 143.472 193.336 143.229 193.112C142.987 192.897 142.539 192.771 141.885 192.734C141.372 192.697 140.929 192.65 140.555 192.594C140.173 192.799 139.921 193.019 139.799 193.252C139.678 193.495 139.617 193.709 139.617 193.896ZM149.702 193.168C149.123 193.168 148.642 193.07 148.26 192.874C147.877 192.678 147.592 192.417 147.406 192.09C147.219 191.763 147.126 191.409 147.126 191.026C147.126 190.317 147.396 189.771 147.938 189.388C148.479 189.005 149.216 188.814 150.15 188.814H152.026V188.73C152.026 188.123 151.867 187.666 151.55 187.358C151.232 187.041 150.808 186.882 150.276 186.882C149.818 186.882 149.422 186.999 149.086 187.232C148.759 187.456 148.554 187.787 148.47 188.226H147.266C147.312 187.722 147.48 187.297 147.77 186.952C148.068 186.607 148.437 186.345 148.876 186.168C149.314 185.981 149.781 185.888 150.276 185.888C151.246 185.888 151.974 186.149 152.46 186.672C152.954 187.185 153.202 187.871 153.202 188.73V193H152.152L152.082 191.754C151.886 192.146 151.596 192.482 151.214 192.762C150.84 193.033 150.336 193.168 149.702 193.168ZM149.884 192.174C150.332 192.174 150.714 192.057 151.032 191.824C151.358 191.591 151.606 191.287 151.774 190.914C151.942 190.541 152.026 190.149 152.026 189.738V189.724H150.248C149.557 189.724 149.067 189.845 148.778 190.088C148.498 190.321 148.358 190.615 148.358 190.97C148.358 191.334 148.488 191.628 148.75 191.852C149.02 192.067 149.398 192.174 149.884 192.174ZM163.363 193.168C162.7 193.168 162.103 193.019 161.571 192.72C161.048 192.412 160.633 191.987 160.325 191.446C160.026 190.895 159.877 190.256 159.877 189.528C159.877 188.8 160.026 188.165 160.325 187.624C160.633 187.073 161.048 186.649 161.571 186.35C162.103 186.042 162.7 185.888 163.363 185.888C164.184 185.888 164.875 186.103 165.435 186.532C166.004 186.961 166.364 187.535 166.513 188.254H165.309C165.216 187.825 164.987 187.493 164.623 187.26C164.259 187.017 163.834 186.896 163.349 186.896C162.957 186.896 162.588 186.994 162.243 187.19C161.898 187.386 161.618 187.68 161.403 188.072C161.188 188.464 161.081 188.949 161.081 189.528C161.081 190.107 161.188 190.592 161.403 190.984C161.618 191.376 161.898 191.675 162.243 191.88C162.588 192.076 162.957 192.174 163.349 192.174C163.834 192.174 164.259 192.057 164.623 191.824C164.987 191.581 165.216 191.241 165.309 190.802H166.513C166.373 191.502 166.018 192.071 165.449 192.51C164.88 192.949 164.184 193.168 163.363 193.168ZM172.069 193.168C171.416 193.168 170.828 193.019 170.305 192.72C169.783 192.421 169.367 192.001 169.059 191.46C168.761 190.909 168.611 190.265 168.611 189.528C168.611 188.791 168.765 188.151 169.073 187.61C169.381 187.059 169.797 186.635 170.319 186.336C170.851 186.037 171.444 185.888 172.097 185.888C172.751 185.888 173.339 186.037 173.861 186.336C174.384 186.635 174.795 187.059 175.093 187.61C175.401 188.151 175.555 188.791 175.555 189.528C175.555 190.265 175.401 190.909 175.093 191.46C174.785 192.001 174.365 192.421 173.833 192.72C173.311 193.019 172.723 193.168 172.069 193.168ZM172.069 192.16C172.471 192.16 172.844 192.062 173.189 191.866C173.535 191.67 173.815 191.376 174.029 190.984C174.244 190.592 174.351 190.107 174.351 189.528C174.351 188.949 174.244 188.464 174.029 188.072C173.824 187.68 173.549 187.386 173.203 187.19C172.858 186.994 172.489 186.896 172.097 186.896C171.696 186.896 171.323 186.994 170.977 187.19C170.632 187.386 170.352 187.68 170.137 188.072C169.923 188.464 169.815 188.949 169.815 189.528C169.815 190.107 169.923 190.592 170.137 190.984C170.352 191.376 170.627 191.67 170.963 191.866C171.309 192.062 171.677 192.16 172.069 192.16ZM177.941 193V186.056H179.005L179.089 187.064C179.313 186.691 179.611 186.401 179.985 186.196C180.358 185.991 180.778 185.888 181.245 185.888C181.795 185.888 182.267 186 182.659 186.224C183.06 186.448 183.368 186.789 183.583 187.246C183.825 186.826 184.157 186.495 184.577 186.252C185.006 186.009 185.468 185.888 185.963 185.888C186.793 185.888 187.456 186.14 187.951 186.644C188.445 187.139 188.693 187.904 188.693 188.94V193H187.531V189.066C187.531 188.347 187.386 187.806 187.097 187.442C186.807 187.078 186.392 186.896 185.851 186.896C185.291 186.896 184.824 187.115 184.451 187.554C184.087 187.983 183.905 188.599 183.905 189.402V193H182.729V189.066C182.729 188.347 182.584 187.806 182.295 187.442C182.005 187.078 181.59 186.896 181.049 186.896C180.498 186.896 180.036 187.115 179.663 187.554C179.299 187.983 179.117 188.599 179.117 189.402V193H177.941ZM195.669 193V186.056H196.733L196.803 187.302C197.027 186.863 197.349 186.518 197.769 186.266C198.189 186.014 198.665 185.888 199.197 185.888C200.018 185.888 200.672 186.14 201.157 186.644C201.652 187.139 201.899 187.904 201.899 188.94V193H200.723V189.066C200.723 187.619 200.126 186.896 198.931 186.896C198.334 186.896 197.834 187.115 197.433 187.554C197.041 187.983 196.845 188.599 196.845 189.402V193H195.669ZM207.595 193.168C206.942 193.168 206.354 193.019 205.831 192.72C205.308 192.421 204.893 192.001 204.585 191.46C204.286 190.909 204.137 190.265 204.137 189.528C204.137 188.791 204.291 188.151 204.599 187.61C204.907 187.059 205.322 186.635 205.845 186.336C206.377 186.037 206.97 185.888 207.623 185.888C208.276 185.888 208.864 186.037 209.387 186.336C209.91 186.635 210.32 187.059 210.619 187.61C210.927 188.151 211.081 188.791 211.081 189.528C211.081 190.265 210.927 190.909 210.619 191.46C210.311 192.001 209.891 192.421 209.359 192.72C208.836 193.019 208.248 193.168 207.595 193.168ZM207.595 192.16C207.996 192.16 208.37 192.062 208.715 191.866C209.06 191.67 209.34 191.376 209.555 190.984C209.77 190.592 209.877 190.107 209.877 189.528C209.877 188.949 209.77 188.464 209.555 188.072C209.35 187.68 209.074 187.386 208.729 187.19C208.384 186.994 208.015 186.896 207.623 186.896C207.222 186.896 206.848 186.994 206.503 187.19C206.158 187.386 205.878 187.68 205.663 188.072C205.448 188.464 205.341 188.949 205.341 189.528C205.341 190.107 205.448 190.592 205.663 190.984C205.878 191.376 206.153 191.67 206.489 191.866C206.834 192.062 207.203 192.16 207.595 192.16ZM216.126 193.168C215.295 193.168 214.605 192.958 214.054 192.538C213.503 192.118 213.181 191.549 213.088 190.83H214.292C214.367 191.194 214.558 191.511 214.866 191.782C215.183 192.043 215.608 192.174 216.14 192.174C216.635 192.174 216.999 192.071 217.232 191.866C217.465 191.651 217.582 191.399 217.582 191.11C217.582 190.69 217.428 190.41 217.12 190.27C216.821 190.13 216.397 190.004 215.846 189.892C215.473 189.817 215.099 189.71 214.726 189.57C214.353 189.43 214.04 189.234 213.788 188.982C213.536 188.721 213.41 188.38 213.41 187.96C213.41 187.353 213.634 186.859 214.082 186.476C214.539 186.084 215.155 185.888 215.93 185.888C216.667 185.888 217.269 186.075 217.736 186.448C218.212 186.812 218.487 187.335 218.562 188.016H217.4C217.353 187.661 217.199 187.386 216.938 187.19C216.686 186.985 216.345 186.882 215.916 186.882C215.496 186.882 215.169 186.971 214.936 187.148C214.712 187.325 214.6 187.559 214.6 187.848C214.6 188.128 214.745 188.347 215.034 188.506C215.333 188.665 215.734 188.8 216.238 188.912C216.667 189.005 217.073 189.122 217.456 189.262C217.848 189.393 218.165 189.593 218.408 189.864C218.66 190.125 218.786 190.508 218.786 191.012C218.795 191.637 218.557 192.155 218.072 192.566C217.596 192.967 216.947 193.168 216.126 193.168ZM223.876 193.168C223.045 193.168 222.355 192.958 221.804 192.538C221.253 192.118 220.931 191.549 220.838 190.83H222.042C222.117 191.194 222.308 191.511 222.616 191.782C222.933 192.043 223.358 192.174 223.89 192.174C224.385 192.174 224.749 192.071 224.982 191.866C225.215 191.651 225.332 191.399 225.332 191.11C225.332 190.69 225.178 190.41 224.87 190.27C224.571 190.13 224.147 190.004 223.596 189.892C223.223 189.817 222.849 189.71 222.476 189.57C222.103 189.43 221.79 189.234 221.538 188.982C221.286 188.721 221.16 188.38 221.16 187.96C221.16 187.353 221.384 186.859 221.832 186.476C222.289 186.084 222.905 185.888 223.68 185.888C224.417 185.888 225.019 186.075 225.486 186.448C225.962 186.812 226.237 187.335 226.312 188.016H225.15C225.103 187.661 224.949 187.386 224.688 187.19C224.436 186.985 224.095 186.882 223.666 186.882C223.246 186.882 222.919 186.971 222.686 187.148C222.462 187.325 222.35 187.559 222.35 187.848C222.35 188.128 222.495 188.347 222.784 188.506C223.083 188.665 223.484 188.8 223.988 188.912C224.417 189.005 224.823 189.122 225.206 189.262C225.598 189.393 225.915 189.593 226.158 189.864C226.41 190.125 226.536 190.508 226.536 191.012C226.545 191.637 226.307 192.155 225.822 192.566C225.346 192.967 224.697 193.168 223.876 193.168ZM232.13 193.168C231.477 193.168 230.889 193.019 230.366 192.72C229.843 192.421 229.428 192.001 229.12 191.46C228.821 190.909 228.672 190.265 228.672 189.528C228.672 188.791 228.826 188.151 229.134 187.61C229.442 187.059 229.857 186.635 230.38 186.336C230.912 186.037 231.505 185.888 232.158 185.888C232.811 185.888 233.399 186.037 233.922 186.336C234.445 186.635 234.855 187.059 235.154 187.61C235.462 188.151 235.616 188.791 235.616 189.528C235.616 190.265 235.462 190.909 235.154 191.46C234.846 192.001 234.426 192.421 233.894 192.72C233.371 193.019 232.783 193.168 232.13 193.168ZM232.13 192.16C232.531 192.16 232.905 192.062 233.25 191.866C233.595 191.67 233.875 191.376 234.09 190.984C234.305 190.592 234.412 190.107 234.412 189.528C234.412 188.949 234.305 188.464 234.09 188.072C233.885 187.68 233.609 187.386 233.264 187.19C232.919 186.994 232.55 186.896 232.158 186.896C231.757 186.896 231.383 186.994 231.038 187.19C230.693 187.386 230.413 187.68 230.198 188.072C229.983 188.464 229.876 188.949 229.876 189.528C229.876 190.107 229.983 190.592 230.198 190.984C230.413 191.376 230.688 191.67 231.024 191.866C231.369 192.062 231.738 192.16 232.13 192.16ZM49.507 220.08V210.056H50.571L50.683 211.204C50.907 210.868 51.2243 210.565 51.635 210.294C52.055 210.023 52.587 209.888 53.231 209.888C53.9217 209.888 54.5237 210.047 55.037 210.364C55.5503 210.681 55.947 211.115 56.227 211.666C56.5163 212.217 56.661 212.842 56.661 213.542C56.661 214.242 56.5163 214.867 56.227 215.418C55.947 215.959 55.5457 216.389 55.023 216.706C54.5097 217.014 53.9077 217.168 53.217 217.168C52.6477 217.168 52.139 217.051 51.691 216.818C51.2523 216.585 50.9163 216.258 50.683 215.838V220.08H49.507ZM53.091 216.146C53.5577 216.146 53.9683 216.039 54.323 215.824C54.6777 215.6 54.9577 215.292 55.163 214.9C55.3683 214.508 55.471 214.051 55.471 213.528C55.471 213.005 55.3683 212.548 55.163 212.156C54.9577 211.764 54.6777 211.461 54.323 211.246C53.9683 211.022 53.5577 210.91 53.091 210.91C52.6243 210.91 52.2137 211.022 51.859 211.246C51.5043 211.461 51.2243 211.764 51.019 212.156C50.8137 212.548 50.711 213.005 50.711 213.528C50.711 214.051 50.8137 214.508 51.019 214.9C51.2243 215.292 51.5043 215.6 51.859 215.824C52.2137 216.039 52.6243 216.146 53.091 216.146ZM62.212 217.168C61.5587 217.168 60.9707 217.019 60.448 216.72C59.9254 216.421 59.51 216.001 59.202 215.46C58.9034 214.909 58.754 214.265 58.754 213.528C58.754 212.791 58.908 212.151 59.216 211.61C59.524 211.059 59.9394 210.635 60.462 210.336C60.994 210.037 61.5867 209.888 62.24 209.888C62.8934 209.888 63.4814 210.037 64.004 210.336C64.5267 210.635 64.9374 211.059 65.236 211.61C65.544 212.151 65.698 212.791 65.698 213.528C65.698 214.265 65.544 214.909 65.236 215.46C64.928 216.001 64.508 216.421 63.976 216.72C63.4534 217.019 62.8654 217.168 62.212 217.168ZM62.212 216.16C62.6134 216.16 62.9867 216.062 63.332 215.866C63.6774 215.67 63.9574 215.376 64.172 214.984C64.3867 214.592 64.494 214.107 64.494 213.528C64.494 212.949 64.3867 212.464 64.172 212.072C63.9667 211.68 63.6914 211.386 63.346 211.19C63.0007 210.994 62.632 210.896 62.24 210.896C61.8387 210.896 61.4654 210.994 61.12 211.19C60.7747 211.386 60.4947 211.68 60.28 212.072C60.0654 212.464 59.958 212.949 59.958 213.528C59.958 214.107 60.0654 214.592 60.28 214.984C60.4947 215.376 60.77 215.67 61.106 215.866C61.4514 216.062 61.82 216.16 62.212 216.16ZM70.7432 217.168C69.9125 217.168 69.2219 216.958 68.6712 216.538C68.1205 216.118 67.7985 215.549 67.7052 214.83H68.9092C68.9839 215.194 69.1752 215.511 69.4832 215.782C69.8005 216.043 70.2252 216.174 70.7572 216.174C71.2519 216.174 71.6159 216.071 71.8492 215.866C72.0825 215.651 72.1992 215.399 72.1992 215.11C72.1992 214.69 72.0452 214.41 71.7372 214.27C71.4385 214.13 71.0139 214.004 70.4632 213.892C70.0899 213.817 69.7165 213.71 69.3432 213.57C68.9699 213.43 68.6572 213.234 68.4052 212.982C68.1532 212.721 68.0272 212.38 68.0272 211.96C68.0272 211.353 68.2512 210.859 68.6992 210.476C69.1565 210.084 69.7725 209.888 70.5472 209.888C71.2845 209.888 71.8865 210.075 72.3532 210.448C72.8292 210.812 73.1045 211.335 73.1792 212.016H72.0172C71.9705 211.661 71.8165 211.386 71.5552 211.19C71.3032 210.985 70.9625 210.882 70.5332 210.882C70.1132 210.882 69.7865 210.971 69.5532 211.148C69.3292 211.325 69.2172 211.559 69.2172 211.848C69.2172 212.128 69.3619 212.347 69.6512 212.506C69.9499 212.665 70.3512 212.8 70.8552 212.912C71.2845 213.005 71.6905 213.122 72.0732 213.262C72.4652 213.393 72.7825 213.593 73.0252 213.864C73.2772 214.125 73.4032 214.508 73.4032 215.012C73.4125 215.637 73.1745 216.155 72.6892 216.566C72.2132 216.967 71.5645 217.168 70.7432 217.168ZM78.2627 217C77.6281 217 77.1287 216.846 76.7647 216.538C76.4007 216.23 76.2187 215.675 76.2187 214.872V211.05H75.0147V210.056H76.2187L76.3727 208.39H77.3947V210.056H79.4387V211.05H77.3947V214.872C77.3947 215.311 77.4834 215.609 77.6607 215.768C77.8381 215.917 78.1507 215.992 78.5987 215.992H79.3267V217H78.2627ZM86.1379 220.08V210.056H87.2019L87.3139 211.204C87.5379 210.868 87.8552 210.565 88.2659 210.294C88.6859 210.023 89.2179 209.888 89.8619 209.888C90.5525 209.888 91.1545 210.047 91.6679 210.364C92.1812 210.681 92.5779 211.115 92.8579 211.666C93.1472 212.217 93.2919 212.842 93.2919 213.542C93.2919 214.242 93.1472 214.867 92.8579 215.418C92.5779 215.959 92.1765 216.389 91.6539 216.706C91.1405 217.014 90.5385 217.168 89.8479 217.168C89.2785 217.168 88.7699 217.051 88.3219 216.818C87.8832 216.585 87.5472 216.258 87.3139 215.838V220.08H86.1379ZM89.7219 216.146C90.1885 216.146 90.5992 216.039 90.9539 215.824C91.3085 215.6 91.5885 215.292 91.7939 214.9C91.9992 214.508 92.1019 214.051 92.1019 213.528C92.1019 213.005 91.9992 212.548 91.7939 212.156C91.5885 211.764 91.3085 211.461 90.9539 211.246C90.5992 211.022 90.1885 210.91 89.7219 210.91C89.2552 210.91 88.8445 211.022 88.4899 211.246C88.1352 211.461 87.8552 211.764 87.6499 212.156C87.4445 212.548 87.3419 213.005 87.3419 213.528C87.3419 214.051 87.4445 214.508 87.6499 214.9C87.8552 215.292 88.1352 215.6 88.4899 215.824C88.8445 216.039 89.2552 216.146 89.7219 216.146ZM97.9889 217.168C97.4102 217.168 96.9296 217.07 96.5469 216.874C96.1642 216.678 95.8796 216.417 95.6929 216.09C95.5062 215.763 95.4129 215.409 95.4129 215.026C95.4129 214.317 95.6836 213.771 96.2249 213.388C96.7662 213.005 97.5036 212.814 98.4369 212.814H100.313V212.73C100.313 212.123 100.154 211.666 99.8369 211.358C99.5196 211.041 99.0949 210.882 98.5629 210.882C98.1056 210.882 97.7089 210.999 97.3729 211.232C97.0462 211.456 96.8409 211.787 96.7569 212.226H95.5529C95.5996 211.722 95.7676 211.297 96.0569 210.952C96.3556 210.607 96.7242 210.345 97.1629 210.168C97.6016 209.981 98.0682 209.888 98.5629 209.888C99.5336 209.888 100.262 210.149 100.747 210.672C101.242 211.185 101.489 211.871 101.489 212.73V217H100.439L100.369 215.754C100.173 216.146 99.8836 216.482 99.5009 216.762C99.1276 217.033 98.6236 217.168 97.9889 217.168ZM98.1709 216.174C98.6189 216.174 99.0016 216.057 99.3189 215.824C99.6456 215.591 99.8929 215.287 100.061 214.914C100.229 214.541 100.313 214.149 100.313 213.738V213.724H98.5349C97.8442 213.724 97.3542 213.845 97.0649 214.088C96.7849 214.321 96.6449 214.615 96.6449 214.97C96.6449 215.334 96.7756 215.628 97.0369 215.852C97.3076 216.067 97.6856 216.174 98.1709 216.174ZM104.003 217V210.056H105.067L105.165 211.386C105.38 210.929 105.706 210.565 106.145 210.294C106.584 210.023 107.125 209.888 107.769 209.888V211.12H107.447C107.036 211.12 106.658 211.195 106.313 211.344C105.968 211.484 105.692 211.727 105.487 212.072C105.282 212.417 105.179 212.893 105.179 213.5V217H104.003ZM112.149 217.168C111.57 217.168 111.09 217.07 110.707 216.874C110.324 216.678 110.04 216.417 109.853 216.09C109.666 215.763 109.573 215.409 109.573 215.026C109.573 214.317 109.844 213.771 110.385 213.388C110.926 213.005 111.664 212.814 112.597 212.814H114.473V212.73C114.473 212.123 114.314 211.666 113.997 211.358C113.68 211.041 113.255 210.882 112.723 210.882C112.266 210.882 111.869 210.999 111.533 211.232C111.206 211.456 111.001 211.787 110.917 212.226H109.713C109.76 211.722 109.928 211.297 110.217 210.952C110.516 210.607 110.884 210.345 111.323 210.168C111.762 209.981 112.228 209.888 112.723 209.888C113.694 209.888 114.422 210.149 114.907 210.672C115.402 211.185 115.649 211.871 115.649 212.73V217H114.599L114.529 215.754C114.333 216.146 114.044 216.482 113.661 216.762C113.288 217.033 112.784 217.168 112.149 217.168ZM112.331 216.174C112.779 216.174 113.162 216.057 113.479 215.824C113.806 215.591 114.053 215.287 114.221 214.914C114.389 214.541 114.473 214.149 114.473 213.738V213.724H112.695C112.004 213.724 111.514 213.845 111.225 214.088C110.945 214.321 110.805 214.615 110.805 214.97C110.805 215.334 110.936 215.628 111.197 215.852C111.468 216.067 111.846 216.174 112.331 216.174ZM122.618 217V210.056H123.682L123.78 211.386C123.995 210.929 124.322 210.565 124.76 210.294C125.199 210.023 125.74 209.888 126.384 209.888V211.12H126.062C125.652 211.12 125.274 211.195 124.928 211.344C124.583 211.484 124.308 211.727 124.102 212.072C123.897 212.417 123.794 212.893 123.794 213.5V217H122.618ZM131.317 217.168C130.654 217.168 130.066 217.019 129.553 216.72C129.039 216.412 128.633 215.987 128.335 215.446C128.045 214.905 127.901 214.265 127.901 213.528C127.901 212.8 128.045 212.165 128.335 211.624C128.624 211.073 129.025 210.649 129.539 210.35C130.061 210.042 130.663 209.888 131.345 209.888C132.017 209.888 132.595 210.042 133.081 210.35C133.575 210.649 133.953 211.045 134.215 211.54C134.476 212.035 134.607 212.567 134.607 213.136C134.607 213.239 134.602 213.341 134.593 213.444C134.593 213.547 134.593 213.663 134.593 213.794H129.063C129.091 214.326 129.212 214.769 129.427 215.124C129.651 215.469 129.926 215.731 130.253 215.908C130.589 216.085 130.943 216.174 131.317 216.174C131.802 216.174 132.208 216.062 132.535 215.838C132.861 215.614 133.099 215.311 133.249 214.928H134.411C134.224 215.572 133.865 216.109 133.333 216.538C132.81 216.958 132.138 217.168 131.317 217.168ZM131.317 210.882C130.757 210.882 130.257 211.055 129.819 211.4C129.389 211.736 129.142 212.231 129.077 212.884H133.445C133.417 212.259 133.202 211.769 132.801 211.414C132.399 211.059 131.905 210.882 131.317 210.882ZM140.065 217.168C139.375 217.168 138.768 217.009 138.245 216.692C137.732 216.375 137.331 215.941 137.041 215.39C136.761 214.839 136.621 214.214 136.621 213.514C136.621 212.814 136.766 212.193 137.055 211.652C137.345 211.101 137.746 210.672 138.259 210.364C138.773 210.047 139.379 209.888 140.079 209.888C140.649 209.888 141.153 210.005 141.591 210.238C142.03 210.471 142.371 210.798 142.613 211.218V206.92H143.789V217H142.725L142.613 215.852C142.389 216.188 142.067 216.491 141.647 216.762C141.227 217.033 140.7 217.168 140.065 217.168ZM140.191 216.146C140.658 216.146 141.069 216.039 141.423 215.824C141.787 215.6 142.067 215.292 142.263 214.9C142.469 214.508 142.571 214.051 142.571 213.528C142.571 213.005 142.469 212.548 142.263 212.156C142.067 211.764 141.787 211.461 141.423 211.246C141.069 211.022 140.658 210.91 140.191 210.91C139.734 210.91 139.323 211.022 138.959 211.246C138.605 211.461 138.325 211.764 138.119 212.156C137.923 212.548 137.825 213.005 137.825 213.528C137.825 214.051 137.923 214.508 138.119 214.9C138.325 215.292 138.605 215.6 138.959 215.824C139.323 216.039 139.734 216.146 140.191 216.146ZM149.578 217.168C148.916 217.168 148.328 217.019 147.814 216.72C147.301 216.412 146.895 215.987 146.596 215.446C146.307 214.905 146.162 214.265 146.162 213.528C146.162 212.8 146.307 212.165 146.596 211.624C146.886 211.073 147.287 210.649 147.8 210.35C148.323 210.042 148.925 209.888 149.606 209.888C150.278 209.888 150.857 210.042 151.342 210.35C151.837 210.649 152.215 211.045 152.476 211.54C152.738 212.035 152.868 212.567 152.868 213.136C152.868 213.239 152.864 213.341 152.854 213.444C152.854 213.547 152.854 213.663 152.854 213.794H147.324C147.352 214.326 147.474 214.769 147.688 215.124C147.912 215.469 148.188 215.731 148.514 215.908C148.85 216.085 149.205 216.174 149.578 216.174C150.064 216.174 150.47 216.062 150.796 215.838C151.123 215.614 151.361 215.311 151.51 214.928H152.672C152.486 215.572 152.126 216.109 151.594 216.538C151.072 216.958 150.4 217.168 149.578 217.168ZM149.578 210.882C149.018 210.882 148.519 211.055 148.08 211.4C147.651 211.736 147.404 212.231 147.338 212.884H151.706C151.678 212.259 151.464 211.769 151.062 211.414C150.661 211.059 150.166 210.882 149.578 210.882ZM157.837 217.168C157.006 217.168 156.316 216.958 155.765 216.538C155.214 216.118 154.892 215.549 154.799 214.83H156.003C156.078 215.194 156.269 215.511 156.577 215.782C156.894 216.043 157.319 216.174 157.851 216.174C158.346 216.174 158.71 216.071 158.943 215.866C159.176 215.651 159.293 215.399 159.293 215.11C159.293 214.69 159.139 214.41 158.831 214.27C158.532 214.13 158.108 214.004 157.557 213.892C157.184 213.817 156.81 213.71 156.437 213.57C156.064 213.43 155.751 213.234 155.499 212.982C155.247 212.721 155.121 212.38 155.121 211.96C155.121 211.353 155.345 210.859 155.793 210.476C156.25 210.084 156.866 209.888 157.641 209.888C158.378 209.888 158.98 210.075 159.447 210.448C159.923 210.812 160.198 211.335 160.273 212.016H159.111C159.064 211.661 158.91 211.386 158.649 211.19C158.397 210.985 158.056 210.882 157.627 210.882C157.207 210.882 156.88 210.971 156.647 211.148C156.423 211.325 156.311 211.559 156.311 211.848C156.311 212.128 156.456 212.347 156.745 212.506C157.044 212.665 157.445 212.8 157.949 212.912C158.378 213.005 158.784 213.122 159.167 213.262C159.559 213.393 159.876 213.593 160.119 213.864C160.371 214.125 160.497 214.508 160.497 215.012C160.506 215.637 160.268 216.155 159.783 216.566C159.307 216.967 158.658 217.168 157.837 217.168ZM170.042 217.168C169.211 217.168 168.521 216.958 167.97 216.538C167.419 216.118 167.097 215.549 167.004 214.83H168.208C168.283 215.194 168.474 215.511 168.782 215.782C169.099 216.043 169.524 216.174 170.056 216.174C170.551 216.174 170.915 216.071 171.148 215.866C171.381 215.651 171.498 215.399 171.498 215.11C171.498 214.69 171.344 214.41 171.036 214.27C170.737 214.13 170.313 214.004 169.762 213.892C169.389 213.817 169.015 213.71 168.642 213.57C168.269 213.43 167.956 213.234 167.704 212.982C167.452 212.721 167.326 212.38 167.326 211.96C167.326 211.353 167.55 210.859 167.998 210.476C168.455 210.084 169.071 209.888 169.846 209.888C170.583 209.888 171.185 210.075 171.652 210.448C172.128 210.812 172.403 211.335 172.478 212.016H171.316C171.269 211.661 171.115 211.386 170.854 211.19C170.602 210.985 170.261 210.882 169.832 210.882C169.412 210.882 169.085 210.971 168.852 211.148C168.628 211.325 168.516 211.559 168.516 211.848C168.516 212.128 168.661 212.347 168.95 212.506C169.249 212.665 169.65 212.8 170.154 212.912C170.583 213.005 170.989 213.122 171.372 213.262C171.764 213.393 172.081 213.593 172.324 213.864C172.576 214.125 172.702 214.508 172.702 215.012C172.711 215.637 172.473 216.155 171.988 216.566C171.512 216.967 170.863 217.168 170.042 217.168ZM178.296 217.168C177.643 217.168 177.055 217.019 176.532 216.72C176.009 216.421 175.594 216.001 175.286 215.46C174.987 214.909 174.838 214.265 174.838 213.528C174.838 212.791 174.992 212.151 175.3 211.61C175.608 211.059 176.023 210.635 176.546 210.336C177.078 210.037 177.671 209.888 178.324 209.888C178.977 209.888 179.565 210.037 180.088 210.336C180.611 210.635 181.021 211.059 181.32 211.61C181.628 212.151 181.782 212.791 181.782 213.528C181.782 214.265 181.628 214.909 181.32 215.46C181.012 216.001 180.592 216.421 180.06 216.72C179.537 217.019 178.949 217.168 178.296 217.168ZM178.296 216.16C178.697 216.16 179.071 216.062 179.416 215.866C179.761 215.67 180.041 215.376 180.256 214.984C180.471 214.592 180.578 214.107 180.578 213.528C180.578 212.949 180.471 212.464 180.256 212.072C180.051 211.68 179.775 211.386 179.43 211.19C179.085 210.994 178.716 210.896 178.324 210.896C177.923 210.896 177.549 210.994 177.204 211.19C176.859 211.386 176.579 211.68 176.364 212.072C176.149 212.464 176.042 212.949 176.042 213.528C176.042 214.107 176.149 214.592 176.364 214.984C176.579 215.376 176.854 215.67 177.19 215.866C177.535 216.062 177.904 216.16 178.296 216.16ZM187.359 217.168C186.697 217.168 186.099 217.019 185.567 216.72C185.045 216.412 184.629 215.987 184.321 215.446C184.023 214.895 183.873 214.256 183.873 213.528C183.873 212.8 184.023 212.165 184.321 211.624C184.629 211.073 185.045 210.649 185.567 210.35C186.099 210.042 186.697 209.888 187.359 209.888C188.181 209.888 188.871 210.103 189.431 210.532C190.001 210.961 190.36 211.535 190.509 212.254H189.305C189.212 211.825 188.983 211.493 188.619 211.26C188.255 211.017 187.831 210.896 187.345 210.896C186.953 210.896 186.585 210.994 186.239 211.19C185.894 211.386 185.614 211.68 185.399 212.072C185.185 212.464 185.077 212.949 185.077 213.528C185.077 214.107 185.185 214.592 185.399 214.984C185.614 215.376 185.894 215.675 186.239 215.88C186.585 216.076 186.953 216.174 187.345 216.174C187.831 216.174 188.255 216.057 188.619 215.824C188.983 215.581 189.212 215.241 189.305 214.802H190.509C190.369 215.502 190.015 216.071 189.445 216.51C188.876 216.949 188.181 217.168 187.359 217.168ZM193.616 208.516C193.382 208.516 193.186 208.441 193.028 208.292C192.878 208.133 192.804 207.937 192.804 207.704C192.804 207.48 192.878 207.293 193.028 207.144C193.186 206.995 193.382 206.92 193.616 206.92C193.84 206.92 194.031 206.995 194.19 207.144C194.348 207.293 194.428 207.48 194.428 207.704C194.428 207.937 194.348 208.133 194.19 208.292C194.031 208.441 193.84 208.516 193.616 208.516ZM193.028 217V210.056H194.204V217H193.028ZM199.311 217.168C198.732 217.168 198.252 217.07 197.869 216.874C197.486 216.678 197.202 216.417 197.015 216.09C196.828 215.763 196.735 215.409 196.735 215.026C196.735 214.317 197.006 213.771 197.547 213.388C198.088 213.005 198.826 212.814 199.759 212.814H201.635V212.73C201.635 212.123 201.476 211.666 201.159 211.358C200.842 211.041 200.417 210.882 199.885 210.882C199.428 210.882 199.031 210.999 198.695 211.232C198.368 211.456 198.163 211.787 198.079 212.226H196.875C196.922 211.722 197.09 211.297 197.379 210.952C197.678 210.607 198.046 210.345 198.485 210.168C198.924 209.981 199.39 209.888 199.885 209.888C200.856 209.888 201.584 210.149 202.069 210.672C202.564 211.185 202.811 211.871 202.811 212.73V217H201.761L201.691 215.754C201.495 216.146 201.206 216.482 200.823 216.762C200.45 217.033 199.946 217.168 199.311 217.168ZM199.493 216.174C199.941 216.174 200.324 216.057 200.641 215.824C200.968 215.591 201.215 215.287 201.383 214.914C201.551 214.541 201.635 214.149 201.635 213.738V213.724H199.857C199.166 213.724 198.676 213.845 198.387 214.088C198.107 214.321 197.967 214.615 197.967 214.97C197.967 215.334 198.098 215.628 198.359 215.852C198.63 216.067 199.008 216.174 199.493 216.174ZM206.039 208.516C205.806 208.516 205.61 208.441 205.451 208.292C205.302 208.133 205.227 207.937 205.227 207.704C205.227 207.48 205.302 207.293 205.451 207.144C205.61 206.995 205.806 206.92 206.039 206.92C206.263 206.92 206.455 206.995 206.613 207.144C206.772 207.293 206.851 207.48 206.851 207.704C206.851 207.937 206.772 208.133 206.613 208.292C206.455 208.441 206.263 208.516 206.039 208.516ZM205.451 217V210.056H206.627V217H205.451ZM212.085 217.168C211.254 217.168 210.564 216.958 210.013 216.538C209.462 216.118 209.14 215.549 209.047 214.83H210.251C210.326 215.194 210.517 215.511 210.825 215.782C211.142 216.043 211.567 216.174 212.099 216.174C212.594 216.174 212.958 216.071 213.191 215.866C213.424 215.651 213.541 215.399 213.541 215.11C213.541 214.69 213.387 214.41 213.079 214.27C212.78 214.13 212.356 214.004 211.805 213.892C211.432 213.817 211.058 213.71 210.685 213.57C210.312 213.43 209.999 213.234 209.747 212.982C209.495 212.721 209.369 212.38 209.369 211.96C209.369 211.353 209.593 210.859 210.041 210.476C210.498 210.084 211.114 209.888 211.889 209.888C212.626 209.888 213.228 210.075 213.695 210.448C214.171 210.812 214.446 211.335 214.521 212.016H213.359C213.312 211.661 213.158 211.386 212.897 211.19C212.645 210.985 212.304 210.882 211.875 210.882C211.455 210.882 211.128 210.971 210.895 211.148C210.671 211.325 210.559 211.559 210.559 211.848C210.559 212.128 210.704 212.347 210.993 212.506C211.292 212.665 211.693 212.8 212.197 212.912C212.626 213.005 213.032 213.122 213.415 213.262C213.807 213.393 214.124 213.593 214.367 213.864C214.619 214.125 214.745 214.508 214.745 215.012C214.754 215.637 214.516 216.155 214.031 216.566C213.555 216.967 212.906 217.168 212.085 217.168Z" fill="#333333"/>
<rect x="90" y="134" width="83" height="34" rx="17" fill="url(#paint1_linear_2684_1238)"/>
<path d="M105.211 156V146.2H111.441V147.404H106.695V150.456H111.021V151.632H106.695V154.796H111.441V156H105.211ZM116.815 156C116.134 156 115.592 155.837 115.191 155.51C114.79 155.174 114.589 154.581 114.589 153.732V150.302H113.399V149.056H114.589L114.771 147.292H116.073V149.056H118.033V150.302H116.073V153.732C116.073 154.115 116.152 154.381 116.311 154.53C116.479 154.67 116.764 154.74 117.165 154.74H117.963V156H116.815ZM122.665 156.168C122.077 156.168 121.592 156.07 121.209 155.874C120.826 155.678 120.542 155.421 120.355 155.104C120.168 154.777 120.075 154.423 120.075 154.04C120.075 153.368 120.336 152.836 120.859 152.444C121.382 152.052 122.128 151.856 123.099 151.856H124.919V151.73C124.919 151.189 124.77 150.783 124.471 150.512C124.182 150.241 123.804 150.106 123.337 150.106C122.926 150.106 122.567 150.209 122.259 150.414C121.96 150.61 121.778 150.904 121.713 151.296H120.229C120.276 150.792 120.444 150.363 120.733 150.008C121.032 149.644 121.405 149.369 121.853 149.182C122.31 148.986 122.81 148.888 123.351 148.888C124.322 148.888 125.073 149.145 125.605 149.658C126.137 150.162 126.403 150.853 126.403 151.73V156H125.115L124.989 154.81C124.793 155.193 124.508 155.515 124.135 155.776C123.762 156.037 123.272 156.168 122.665 156.168ZM122.959 154.964C123.36 154.964 123.696 154.871 123.967 154.684C124.247 154.488 124.462 154.231 124.611 153.914C124.77 153.597 124.868 153.247 124.905 152.864H123.253C122.665 152.864 122.245 152.967 121.993 153.172C121.75 153.377 121.629 153.634 121.629 153.942C121.629 154.259 121.746 154.511 121.979 154.698C122.222 154.875 122.548 154.964 122.959 154.964ZM128.883 159.08V149.056H130.213L130.367 150.134C130.591 149.807 130.899 149.518 131.291 149.266C131.683 149.014 132.187 148.888 132.803 148.888C133.475 148.888 134.068 149.047 134.581 149.364C135.095 149.681 135.496 150.115 135.785 150.666C136.084 151.217 136.233 151.842 136.233 152.542C136.233 153.242 136.084 153.867 135.785 154.418C135.496 154.959 135.095 155.389 134.581 155.706C134.068 156.014 133.471 156.168 132.789 156.168C132.248 156.168 131.767 156.061 131.347 155.846C130.937 155.631 130.61 155.328 130.367 154.936V159.08H128.883ZM132.537 154.88C133.172 154.88 133.695 154.665 134.105 154.236C134.516 153.797 134.721 153.228 134.721 152.528C134.721 152.071 134.628 151.665 134.441 151.31C134.255 150.955 133.998 150.68 133.671 150.484C133.345 150.279 132.967 150.176 132.537 150.176C131.903 150.176 131.38 150.395 130.969 150.834C130.568 151.273 130.367 151.837 130.367 152.528C130.367 153.228 130.568 153.797 130.969 154.236C131.38 154.665 131.903 154.88 132.537 154.88ZM140.94 156.168C140.352 156.168 139.867 156.07 139.484 155.874C139.102 155.678 138.817 155.421 138.63 155.104C138.444 154.777 138.35 154.423 138.35 154.04C138.35 153.368 138.612 152.836 139.134 152.444C139.657 152.052 140.404 151.856 141.374 151.856H143.194V151.73C143.194 151.189 143.045 150.783 142.746 150.512C142.457 150.241 142.079 150.106 141.612 150.106C141.202 150.106 140.842 150.209 140.534 150.414C140.236 150.61 140.054 150.904 139.988 151.296H138.504C138.551 150.792 138.719 150.363 139.008 150.008C139.307 149.644 139.68 149.369 140.128 149.182C140.586 148.986 141.085 148.888 141.626 148.888C142.597 148.888 143.348 149.145 143.88 149.658C144.412 150.162 144.678 150.853 144.678 151.73V156H143.39L143.264 154.81C143.068 155.193 142.784 155.515 142.41 155.776C142.037 156.037 141.547 156.168 140.94 156.168ZM141.234 154.964C141.636 154.964 141.972 154.871 142.242 154.684C142.522 154.488 142.737 154.231 142.886 153.914C143.045 153.597 143.143 153.247 143.18 152.864H141.528C140.94 152.864 140.52 152.967 140.268 153.172C140.026 153.377 139.904 153.634 139.904 153.942C139.904 154.259 140.021 154.511 140.254 154.698C140.497 154.875 140.824 154.964 141.234 154.964ZM154.628 156.168C153.993 156.168 153.415 156.056 152.892 155.832C152.379 155.599 151.968 155.249 151.66 154.782C151.352 154.315 151.189 153.732 151.17 153.032H152.64C152.659 153.555 152.836 153.998 153.172 154.362C153.517 154.717 154.003 154.894 154.628 154.894C155.225 154.894 155.683 154.731 156 154.404C156.317 154.068 156.476 153.653 156.476 153.158C156.476 152.561 156.261 152.117 155.832 151.828C155.412 151.539 154.894 151.394 154.278 151.394H153.55V150.162H154.292C154.843 150.162 155.286 150.031 155.622 149.77C155.967 149.509 156.14 149.14 156.14 148.664C156.14 148.263 156.005 147.936 155.734 147.684C155.473 147.432 155.099 147.306 154.614 147.306C154.11 147.306 153.713 147.455 153.424 147.754C153.135 148.043 152.976 148.407 152.948 148.846H151.478C151.497 148.277 151.637 147.782 151.898 147.362C152.169 146.942 152.537 146.615 153.004 146.382C153.471 146.149 154.007 146.032 154.614 146.032C155.267 146.032 155.813 146.149 156.252 146.382C156.7 146.606 157.036 146.914 157.26 147.306C157.493 147.689 157.61 148.109 157.61 148.566C157.61 149.089 157.465 149.546 157.176 149.938C156.887 150.33 156.499 150.591 156.014 150.722C156.574 150.843 157.036 151.119 157.4 151.548C157.764 151.968 157.946 152.514 157.946 153.186C157.946 153.727 157.82 154.227 157.568 154.684C157.316 155.132 156.943 155.491 156.448 155.762C155.953 156.033 155.347 156.168 154.628 156.168Z" fill="#FCFCFC"/>
<path d="M142.667 75.333H150.667V89.9997C150.667 92.2089 148.876 93.9997 146.667 93.9997C144.458 93.9997 142.667 92.2089 142.667 89.9997V75.333Z" stroke="#333333" stroke-width="4"/>
<path d="M138.666 54H152C154.209 54 156 55.7908 156 58V71.3333C156 73.5425 154.209 75.3333 152 75.3333H137.333" stroke="#333333" stroke-width="4" stroke-linecap="round"/>
<path d="M118.667 56.667H116C111.582 56.667 108 60.2487 108 64.667C108 69.0853 111.582 72.667 116 72.667H118.667" stroke="#333333" stroke-width="4" stroke-linejoin="round"/>
<path d="M118.932 82C118.785 82 118.667 81.8816 118.667 81.7355V46.2646C118.667 46.1185 118.785 46 118.932 46H123.334C133.275 46 141.334 54.0589 141.334 64C141.334 73.9411 133.275 82 123.334 82H118.932Z" stroke="#333333" stroke-width="4"/>
<defs>
<linearGradient id="paint0_linear_2684_1238" x1="0" y1="0" x2="317.415" y2="145.363" gradientUnits="userSpaceOnUse">
<stop stop-color="#FF4B00"/>
<stop offset="1" stop-color="#EE2F23"/>
</linearGradient>
<linearGradient id="paint1_linear_2684_1238" x1="90" y1="134" x2="144.112" y2="194.037" gradientUnits="userSpaceOnUse">
<stop stop-color="#FF4B00"/>
<stop offset="1" stop-color="#EE2F23"/>
</linearGradient>
</defs>
</svg>
