<svg width="24" height="24" viewBox="0 0 24 24" fill="none" xmlns="http://www.w3.org/2000/svg">
<path d="M10.6795 9.56985C7.73517 9.4278 5.68857 10.4775 4.53968 12.7191C2.81634 16.0814 4.24062 21.5831 9.98992 21.5831C15.7392 21.5831 15.9055 16.0276 15.9055 15.4456C15.9055 15.0575 15.9055 12.8881 15.9055 8.93715C17.1352 9.71605 18.172 10.1849 19.0159 10.3437C19.8598 10.5025 20.3963 10.5729 20.6253 10.5549V7.317C19.8448 7.2229 19.1698 7.04355 18.6003 6.77895C17.7461 6.382 16.0524 5.28045 16.0524 3.66592C16.0535 3.67381 16.0535 3.25734 16.0524 2.4165H12.4933C12.4828 10.3245 12.4828 14.6675 12.4933 15.4456C12.5092 16.6126 11.6039 18.2451 9.76827 18.2451C7.93262 18.2451 7.02727 16.6139 7.02727 15.5618C7.02727 14.9177 7.24847 13.9841 8.16302 13.2927C8.70537 12.8828 9.45812 12.7191 10.6795 12.7191C10.6795 12.3413 10.6795 11.2915 10.6795 9.56985Z" stroke="#616161" stroke-width="2" stroke-linejoin="round"/>
</svg>
