<svg width="134" height="25" viewBox="0 0 134 25" fill="none" xmlns="http://www.w3.org/2000/svg">
<path fill-rule="evenodd" clip-rule="evenodd" d="M73.6667 9.59422H71.5703H71.0648V3.24545H71.5703H74.1004H74.5369C75.6112 3.24545 77.2211 3.55087 77.2211 4.65626V8.46568C77.2211 9.46261 75.2206 9.59422 74.1133 9.59422H73.7205H73.6667ZM63.5481 0.423908L63.5127 14.1096L63.5481 23.9854L70.6286 23.9848C70.9617 23.9848 71.0624 23.8867 71.0624 23.5616L71.0648 12.8395H73.0884C74.4875 12.8395 76.8467 12.9074 76.8467 14.2503V23.9848H83.4961V14.3912C83.4961 12.8949 81.7424 11.2875 80.1716 11.2875C81.7282 11.1564 83.4961 11.2328 83.4961 7.76055V4.79775C83.4961 1.00002 80.3616 0.000976562 76.4132 0.000976562H63.9818C63.6488 0.000976562 63.5481 0.099041 63.5481 0.424141L63.5481 0.423908Z" fill="#616161"/>
<path fill-rule="evenodd" clip-rule="evenodd" d="M0.000295819 0.423292V19.0465C0.000295819 20.0378 1.36343 22.1633 2.02663 22.6583C3.28272 23.5962 4.35616 23.9844 6.47385 23.9844H19.9839V0H13.9325C13.6083 0 13.5103 0.098187 13.5103 0.423292V20.8805H10.555C8.54648 20.8805 7.72877 19.8181 7.73893 17.7782C7.74904 15.7563 7.74011 13.7322 7.74011 11.7101C7.74011 9.68787 7.74011 2.44848 7.74011 0.426286C7.74246 0.371054 7.76425 0.00716841 7.31795 0H0.42217C0.0978815 0 0 0.098187 0 0.423292H0.000295819Z" fill="#616161"/>
<path fill-rule="evenodd" clip-rule="evenodd" d="M43.0322 23.9844H61.0173V20.8805H51.0095C50.6753 20.8805 50.5744 20.7823 50.5744 20.4573V13.262C50.5744 12.9369 50.6753 12.8387 51.0095 12.8387H58.4066V9.59374H50.5744V3.24494H61.0173V0H43.0322V23.9844Z" fill="#616161"/>
<path fill-rule="evenodd" clip-rule="evenodd" d="M112.55 6.06663L112.681 6.24467V6.06693L118.756 14.3907H118.664H112.681H112.55V6.06663ZM106.579 23.9844H112.55V18.4822H122.076C122.154 18.7703 123.79 21.1705 124.079 21.5737C124.64 22.3553 125.55 23.9844 126.415 23.9844H133.224C133.063 23.3853 125.227 12.6079 124.123 11.09C122.512 8.87411 121.071 6.7867 119.434 4.59776C117.831 2.45517 116.258 0 112.55 0H106.579V23.9844Z" fill="#616161"/>
<path fill-rule="evenodd" clip-rule="evenodd" d="M22.5146 23.9844H30.2019V12.8387H37.8892V9.59374H30.2019V3.24494H40.5V0H22.5146V23.9844Z" fill="#616161"/>
<path fill-rule="evenodd" clip-rule="evenodd" d="M86.1249 19.3552C86.1774 22.7701 88.6959 23.8822 92.3174 23.9645L97.9892 24.0034C101.484 23.8724 103.692 22.6496 104.012 19.8242L103.969 16.9695C103.953 15.8546 103.012 14.0285 101.671 13.1314L93.426 7.16944C92.956 6.84093 92.3151 6.37886 92.2477 5.50519L92.2582 4.65767C92.3428 3.68095 93.5646 3.41424 94.3351 3.35737L95.2357 3.36031C96.5517 3.36031 97.6109 3.95529 97.6465 4.62965L97.6315 5.67606L103.884 5.66783L103.915 4.66784C103.862 1.25285 101.344 0.140806 97.7224 0.0584872L92.0506 0.0195312C88.5563 0.150502 86.3481 1.37336 86.0273 4.19878L86.0706 7.0534C86.0867 8.16844 87.0274 9.9945 88.3686 10.8916L89.3714 11.6209L96.6138 17.0687C97.0837 17.3972 97.7247 17.6441 97.7921 18.5178L97.7815 19.3653C97.6969 20.342 96.4752 20.6087 95.7048 20.6656L94.8041 20.6627C93.4881 20.6627 92.4288 20.0677 92.3933 19.3933L92.4083 18.3469L86.1557 18.3552L86.1249 19.3552Z" fill="#616161"/>
</svg>
