<svg width="24" height="24" viewBox="0 0 24 24" fill="none" xmlns="http://www.w3.org/2000/svg">
<g clip-path="url(#clip0_34_489)">
<path d="M3.24067 6.09791C3.86733 5.65991 4.812 5.74391 5.37467 6.20858L4.72933 5.27058C4.21 4.52991 4.396 3.72858 5.13733 3.20858C5.87867 2.69058 7.97933 4.08324 7.97933 4.08324C7.45533 3.33524 7.55333 2.38724 8.30133 1.86258C9.04933 1.33991 10.0813 1.52058 10.6053 2.26991L17.552 12.0832L16.6667 20.6666L9.278 17.9719L2.83333 8.41658C2.30467 7.66391 2.48733 6.62591 3.24067 6.09791Z" fill="#EF9645"/>
<path d="M1.79669 11.5574C1.79669 11.5574 1.04202 10.4574 2.14269 9.70339C3.24202 8.94939 3.99602 10.0487 3.99602 10.0487L7.49669 15.1541C7.61735 14.9527 7.74935 14.7541 7.89669 14.5581L3.03802 7.47339C3.03802 7.47339 2.28402 6.37405 3.38402 5.62005C4.48335 4.86605 5.23735 5.96539 5.23735 5.96539L9.80735 12.6301C9.97735 12.4914 10.1514 12.3521 10.3307 12.2154L5.03269 4.48805C5.03269 4.48805 4.27869 3.38872 5.37869 2.63472C6.47802 1.88072 7.23202 2.98005 7.23202 2.98005L12.53 10.7061C12.7247 10.5867 12.9174 10.4834 13.1107 10.3741L8.15869 3.15272C8.15869 3.15272 7.40469 2.05339 8.50402 1.29939C9.60335 0.545387 10.3574 1.64472 10.3574 1.64472L15.5934 9.28072L16.3894 10.4421C13.0907 12.7047 12.7767 16.9614 14.6614 19.7101C15.038 20.2601 15.588 19.8834 15.588 19.8834C13.326 16.5841 14.0167 12.8767 17.316 10.6147L16.3434 5.74672C16.3434 5.74672 15.98 4.46405 17.262 4.10005C18.5447 3.73672 18.9087 5.01939 18.9087 5.01939L20.032 8.35539C20.4774 9.67805 20.9514 10.9961 21.5787 12.2427C23.35 15.7627 22.292 20.1374 18.952 22.4287C15.3087 24.9267 10.328 23.9981 7.82935 20.3554L1.79669 11.5574Z" fill="#FFDC5D"/>
<path d="M7.99996 21.361C5.3333 21.361 2.63863 18.6663 2.63863 15.9997C2.63863 15.631 2.36863 15.333 1.99996 15.333C1.6313 15.333 1.3053 15.631 1.3053 15.9997C1.3053 19.9997 3.99996 22.6943 7.99996 22.6943C8.36863 22.6943 8.66663 22.3683 8.66663 21.9997C8.66663 21.631 8.36863 21.361 7.99996 21.361Z" fill="#DCDCDC"/>
<path d="M4.66667 22.6663C2.66667 22.6663 1.33333 21.333 1.33333 19.333C1.33333 18.9643 1.03533 18.6663 0.666667 18.6663C0.298 18.6663 0 18.9643 0 19.333C0 21.9997 2 23.9997 4.66667 23.9997C5.03533 23.9997 5.33333 23.7017 5.33333 23.333C5.33333 22.9643 5.03533 22.6663 4.66667 22.6663ZM16 1.33301C15.632 1.33301 15.3333 1.63167 15.3333 1.99967C15.3333 2.36767 15.632 2.66634 16 2.66634C18.6667 2.66634 21.3333 5.05901 21.3333 7.99967C21.3333 8.36767 21.632 8.66634 22 8.66634C22.368 8.66634 22.6667 8.36767 22.6667 7.99967C22.6667 4.32367 20 1.33301 16 1.33301Z" fill="#DCDCDC"/>
<path d="M19.3333 0.027832C18.9653 0.027832 18.6666 0.298499 18.6666 0.666499C18.6666 1.0345 18.9653 1.36117 19.3333 1.36117C21.3333 1.36117 22.6386 2.8445 22.6386 4.6665C22.6386 5.0345 22.9646 5.33317 23.3333 5.33317C23.702 5.33317 23.972 5.0345 23.972 4.6665C23.972 2.1085 22 0.027832 19.3333 0.027832Z" fill="#DCDCDC"/>
</g>
<defs>
<clipPath id="clip0_34_489">
<rect width="24" height="24" fill="white"/>
</clipPath>
</defs>
</svg>
