<svg width="64" height="64" viewBox="0 0 64 64" fill="none" xmlns="http://www.w3.org/2000/svg">
<rect width="64" height="64" rx="8" fill="#F0F0F0"/>
<path fill-rule="evenodd" clip-rule="evenodd" d="M4.05364 20.8164H5.85989C6.31145 20.8164 6.76301 21.1174 6.76301 21.7195V26.9877V37.3736V42.4913C6.76301 43.0934 6.31145 43.545 5.85989 43.545H4.05364C3.45156 43.545 3 43.0934 3 42.4913V37.3736V26.9877V21.7195C3 21.1174 3.45156 20.8164 4.05364 20.8164Z" fill="#373435"/>
<path fill-rule="evenodd" clip-rule="evenodd" d="M11.5792 20.8164H12.6329L32.2005 36.7716V26.9877V21.7195C32.2005 21.1174 32.6521 20.8164 33.2542 20.8164H35.0604C35.512 20.8164 35.9635 21.1174 35.9635 21.7195V26.9877V43.545H34.4583L15.1917 27.5898V40.6851V42.4913C15.1917 43.0934 14.7402 43.545 14.2886 43.545H12.4824C11.8803 43.545 11.4287 43.0934 11.4287 42.4913V40.8356V20.8164H11.5792Z" fill="#373435"/>
<path fill-rule="evenodd" clip-rule="evenodd" d="M45.2971 16.7526L51.3179 16L48.3075 26.8375C48.6086 26.6869 48.9096 26.6869 49.2107 26.6869C55.0809 25.9343 60.3492 29.9984 61.1018 35.8687C61.8544 41.739 57.7903 47.1577 51.92 47.9103C46.0497 48.6629 40.631 44.5989 39.8784 38.7286C39.7279 37.2234 39.8784 35.8687 40.1794 34.514L45.2971 16.7526ZM49.6622 31.052C53.1242 30.6005 56.2851 33.0088 56.7367 36.4708C57.1882 39.9327 54.7799 42.9431 51.3179 43.3947C47.856 43.8463 44.695 41.4379 44.2435 38.1265C43.7919 34.6645 46.2002 31.5036 49.6622 31.052Z" fill="url(#paint0_linear_4029_4350)"/>
<defs>
<linearGradient id="paint0_linear_4029_4350" x1="39.2763" y1="33.6109" x2="60.4997" y2="30.751" gradientUnits="userSpaceOnUse">
<stop stop-color="#FF4B00"/>
<stop offset="1" stop-color="#EE4037"/>
</linearGradient>
</defs>
</svg>
